<svg xmlns="http://www.w3.org/2000/svg" xmlns:xlink="http://www.w3.org/1999/xlink" version="1.1" x="0px" y="0px" viewBox="0 0 60 75" style="enable-background:new 0 0 60 60;" xml:space="preserve"><path d="M39.77,37.29c-0.39-0.39-1.02-0.39-1.41,0s-0.39,1.02,0,1.41L41.65,42l-3.29,3.29c-0.39,0.39-0.39,1.02,0,1.41  c0.2,0.2,0.45,0.29,0.71,0.29s0.51-0.1,0.71-0.29l4-4c0.39-0.39,0.39-1.02,0-1.41L39.77,37.29z"/><path d="M20.17,37.29c-0.39-0.39-1.02-0.39-1.41,0l-4,4c-0.39,0.39-0.39,1.02,0,1.41l4,4c0.2,0.2,0.45,0.29,0.71,0.29  s0.51-0.1,0.71-0.29c0.39-0.39,0.39-1.02,0-1.41L16.88,42l3.29-3.29C20.56,38.32,20.56,37.68,20.17,37.29z"/><path d="M31.03,34.95c-0.63-0.15-1.3-0.12-1.95,0.08c-1.43,0.44-2.5,1.64-2.79,3.11c-0.64,3.2-3.41,6.28-3.44,6.31  c-0.3,0.33-0.34,0.82-0.11,1.2c0.19,0.3,0.51,0.47,0.85,0.47c0.09,0,0.18-0.01,0.27-0.04c1.22-0.34,7.41-2.13,8.92-3.65  c1.09-1.09,1.51-2.59,1.27-4.01c2.57-0.75,6-3.5,8.43-5.93c3.11-3.11,7.79-8.98,5.56-11.21c-0.94-0.94-2.6-0.74-4.95,0.59  c-1.93,1.09-4.16,2.86-6.27,4.97C33.91,29.76,31.79,32.76,31.03,34.95z M31.37,41.02c-0.58,0.58-2.87,1.49-5.16,2.25  c0.82-1.3,1.68-2.98,2.03-4.74c0.15-0.76,0.7-1.37,1.43-1.6c0.14-0.04,0.33-0.08,0.54-0.08c0.34,0,0.76,0.11,1.14,0.48l0.07-0.07  c0.01,0,0.01,0,0.02,0.01l-0.07,0.07C32.38,38.36,32.38,40.01,31.37,41.02z M33.3,36.56c-0.15-0.21-0.31-0.42-0.5-0.61  c0.18-0.71,0.64-1.68,1.41-2.84l2.01,2.01C35.01,35.92,34,36.4,33.3,36.56z M46.44,22.64c0.07,0,0.12,0.01,0.17,0.03  c0.31,0.69-1.31,4.19-5.53,8.42c-1.12,1.12-2.2,2.06-3.22,2.85l-2.46-2.46c0.79-1.02,1.73-2.1,2.85-3.22  C42.18,24.32,45.49,22.64,46.44,22.64z"/><path d="M51,7H9c-1.65,0-3,1.35-3,3v40c0,1.65,1.35,3,3,3h42c1.65,0,3-1.35,3-3V10C54,8.35,52.65,7,51,7z M52,50c0,0.55-0.45,1-1,1  H9c-0.55,0-1-0.45-1-1V18h15c0.38,0,0.73-0.21,0.89-0.55L25.62,14h9.76l1.72,3.45C37.27,17.79,37.62,18,38,18h14V50z M52,16H38.62  l-1.72-3.45C36.73,12.21,36.38,12,36,12H25c-0.38,0-0.73,0.21-0.89,0.55L22.38,16H8v-6c0-0.55,0.45-1,1-1h42c0.55,0,1,0.45,1,1V16z"/><path d="M20,13h-1c-0.55,0-1,0.45-1,1s0.45,1,1,1h1c0.55,0,1-0.45,1-1S20.55,13,20,13z"/><path d="M16,13h-1c-0.55,0-1,0.45-1,1s0.45,1,1,1h1c0.55,0,1-0.45,1-1S16.55,13,16,13z"/><path d="M12,13h-1c-0.55,0-1,0.45-1,1s0.45,1,1,1h1c0.55,0,1-0.45,1-1S12.55,13,12,13z"/><text x="0" y="75" fill="#000000" font-size="5px" font-weight="bold" font-family="'Helvetica Neue', Helvetica, Arial-Unicode, Arial, Sans-serif">Created by Vectorstall</text><text x="0" y="80" fill="#000000" font-size="5px" font-weight="bold" font-family="'Helvetica Neue', Helvetica, Arial-Unicode, Arial, Sans-serif">from the Noun Project</text></svg>