<svg xmlns="http://www.w3.org/2000/svg" viewBox="0 0 500 500"><g id="freepik--background-complete--inject-80"><path d="M313.32,131H186.68V44.31H313.32Zm-125.64-1H312.32V45.31H187.68Z" style="fill:#ebebeb"></path><path d="M196.58,49.89a2.52,2.52,0,1,1-2.52-2.52A2.52,2.52,0,0,1,196.58,49.89Z" style="fill:#a6a6a6"></path><path d="M206.87,49.89a2.52,2.52,0,1,1-2.52-2.52A2.51,2.51,0,0,1,206.87,49.89Z" style="fill:#ebebeb"></path><path d="M217.17,49.89a2.52,2.52,0,1,1-2.52-2.52A2.52,2.52,0,0,1,217.17,49.89Z" style="fill:#FFC727"></path><rect x="187.18" y="54.33" width="125.64" height="1" style="fill:#ebebeb"></rect><path d="M196,394.06H109.33V312.68H196Zm-85.64-1H195V313.68H110.33Z" style="fill:#ebebeb"></path><path d="M119.23,318.26a2.52,2.52,0,1,1-2.52-2.52A2.52,2.52,0,0,1,119.23,318.26Z" style="fill:#a6a6a6"></path><path d="M129.52,318.26a2.52,2.52,0,1,1-2.52-2.52A2.52,2.52,0,0,1,129.52,318.26Z" style="fill:#ebebeb"></path><path d="M139.82,318.26a2.53,2.53,0,1,1-2.53-2.52A2.52,2.52,0,0,1,139.82,318.26Z" style="fill:#FFC727"></path><rect x="109.83" y="322.7" width="85.64" height="1" style="fill:#ebebeb"></rect><rect x="109.83" y="340.29" width="85.64" height="1" style="fill:#ebebeb"></rect><rect x="109.83" y="357.88" width="85.64" height="1" style="fill:#ebebeb"></rect><rect x="109.83" y="375.47" width="85.64" height="1" style="fill:#ebebeb"></rect><rect x="118.43" y="330.79" width="68.43" height="3.15" style="fill:#ebebeb"></rect><rect x="118.43" y="348.25" width="68.43" height="3.15" style="fill:#ebebeb"></rect><rect x="118.43" y="365.71" width="68.43" height="3.15" style="fill:#ebebeb"></rect><rect x="118.43" y="383.17" width="68.43" height="3.15" style="fill:#ebebeb"></rect><path d="M451,327.51l-13.35.28-6.58.11c-2.19.05-4.36,0-6.55.06l.45-.45.05,11.19-.5-.5,13.24.06c4.42,0,8.83.12,13.24.17l-.27.27c0-1.83.09-3.67.13-5.54Zm0,0,.15,5.54c0,1.86.11,3.75.13,5.65V339H451c-4.41,0-8.82.16-13.24.17l-13.24.06h-.5v-.5l.06-11.19v-.45h.44c2.24,0,4.47,0,6.7.05l6.66.11Z" style="fill:#ebebeb"></path><rect x="290.73" y="237.59" width="26.48" height="11.19" style="fill:#ebebeb"></rect><path d="M302.44,223.48l-13.35.27-6.58.12c-2.19,0-4.37,0-6.55,0l.45-.44,0,11.18-.5-.49,13.24.06c4.42,0,8.83.11,13.24.16l-.27.27c0-1.83.09-3.67.13-5.53Zm0,0,.14,5.53c.05,1.87.12,3.76.14,5.65v.27h-.28c-4.41.05-8.82.16-13.24.16l-13.24.06h-.5v-.51l.06-11.18V223H276c2.23,0,4.47,0,6.7.05l6.66.12Z" style="fill:#ebebeb"></path><path d="M332,223.48l-13.36.27-6.58.12c-2.19,0-4.36,0-6.54,0l.44-.44.06,11.18-.5-.49,13.24.06c4.41,0,8.82.11,13.24.16l-.28.27c0-1.83.09-3.67.13-5.53Zm0,0,.14,5.53c0,1.87.11,3.76.13,5.65v.27H332c-4.42.05-8.83.16-13.24.16l-13.24.06H305v-.51l.05-11.18V223h.45c2.23,0,4.46,0,6.69.05l6.66.12Z" style="fill:#ebebeb"></path><path d="M63.73,59.94l13.35-.27,6.58-.12c2.19,0,4.37,0,6.55,0l-.45.44-.05-11.19.5.5L77,49.19c-4.42,0-8.83-.11-13.24-.16l.27-.28c0,1.84-.09,3.68-.13,5.54Zm0,0-.15-5.53c0-1.87-.11-3.76-.13-5.66v-.27h.28c4.41,0,8.82-.16,13.24-.16l13.24-.07h.5v.5l-.06,11.19v.45h-.44c-2.23,0-4.47,0-6.7-.06l-6.66-.11Z" style="fill:#ebebeb"></path><rect x="48.96" y="62.86" width="26.48" height="11.19" transform="translate(124.39 136.92) rotate(180)" style="fill:#ebebeb"></rect><path d="M424.56,60l13.36-.28,6.58-.11c2.19,0,4.36,0,6.54-.06l-.44.45-.05-11.19.49.5L437.8,49.2c-4.41,0-8.82-.11-13.24-.16l.28-.27c0,1.83-.09,3.67-.13,5.53Zm0,0-.14-5.54c0-1.87-.11-3.76-.13-5.65V48.5h.27c4.42-.05,8.83-.16,13.24-.16L451,48.27h.51v.51L451.49,60v.45H451c-2.23,0-4.46,0-6.69,0l-6.66-.12Z" style="fill:#ebebeb"></path><rect x="220.1" y="388.47" width="26.48" height="11.19" style="fill:#ebebeb"></rect><path d="M75.44,331.69,62.08,332l-6.58.11c-2.19.05-4.36,0-6.54.06l.44-.45.05,11.19-.49-.5,13.24.06c4.41,0,8.82.12,13.24.17l-.28.27c0-1.83.09-3.67.13-5.54Zm0,0,.14,5.54c0,1.86.11,3.75.13,5.65v.27h-.27c-4.42.05-8.83.16-13.24.17L49,343.38h-.51v-.5l0-11.19v-.45H49c2.23,0,4.46,0,6.69.06l6.66.11Z" style="fill:#ebebeb"></path><path d="M231.81,374.36l-13.36.28-6.58.11c-2.18.05-4.36,0-6.54.06l.44-.45.06,11.19-.5-.5,13.24.07c4.41,0,8.83.11,13.24.16l-.27.27c0-1.83.08-3.67.13-5.53Zm0,0,.14,5.54c.05,1.87.11,3.75.13,5.65v.27h-.27c-4.41.05-8.83.15-13.24.16l-13.24.06h-.5v-.5l0-11.19v-.45h.45c2.23,0,4.47,0,6.69.05l6.66.11Z" style="fill:#ebebeb"></path><path d="M315.39,297.53v151h91.29v-151Zm83,95.28H323.68V353.49h74.71Zm0-48.68H323.68V304.82h74.71Z" style="fill:#dbdbdb"></path><rect x="406.68" y="297.53" width="41.28" height="151.01" style="fill:#ebebeb"></rect><rect x="323.68" y="304.82" width="17.75" height="39.31" style="fill:#ebebeb"></rect><path d="M398.64,439.31H323.89v-38h74.75Zm-74.25-.5h73.75v-37H324.39Z" style="fill:#ebebeb"></path><rect x="353.89" y="412.12" width="14.75" height="5.39" style="fill:#ebebeb"></rect><rect x="323.68" y="353.5" width="17.75" height="39.31" style="fill:#ebebeb"></rect><rect x="363.8" y="368.44" width="36.24" height="12.49" transform="translate(756.61 -7.24) rotate(90)" style="fill:#a6a6a6"></rect><rect x="378.01" y="376.83" width="7.82" height="12.49" transform="translate(765 1.15) rotate(90)" style="fill:#dbdbdb"></rect><rect x="379.6" y="364.31" width="4.64" height="12.49" transform="translate(752.48 -11.37) rotate(90)" style="fill:#dbdbdb"></rect><rect x="345.46" y="313.8" width="31.57" height="30.33" style="fill:#ebebeb"></rect><rect x="377.03" y="313.8" width="12" height="30.33" style="fill:#c7c7c7"></rect><polygon points="345.46 328.97 377.03 328.97 352.38 329.75 345.46 328.97" style="fill:#c7c7c7"></polygon><polygon points="377.03 340.47 345.46 340.47 370.11 341.25 377.03 340.47" style="fill:#c7c7c7"></polygon><polygon points="345.46 320.49 365.45 320.49 347.68 321.13 345.46 320.49" style="fill:#c7c7c7"></polygon><polygon points="377.03 336 357.03 336 374.81 336.64 377.03 336" style="fill:#c7c7c7"></polygon><polygon points="353.03 317.11 375.58 317.11 371.83 317.5 353.03 317.11" style="fill:#c7c7c7"></polygon><polygon points="348.53 332.22 371.08 332.22 367.32 332.6 348.53 332.22" style="fill:#c7c7c7"></polygon><polygon points="362.4 323.38 377.03 323.38 379.64 324.4 362.4 323.38" style="fill:#ebebeb"></polygon><polygon points="341.43 323.38 356.06 323.38 358.67 324.4 341.43 323.38" style="fill:#ebebeb"></polygon><polygon points="360.2 337.01 345.57 337.01 342.96 338.03 360.2 337.01" style="fill:#ebebeb"></polygon><polygon points="377.03 333.55 388.77 333.55 391.39 334.57 377.03 333.55" style="fill:#c7c7c7"></polygon><polygon points="381.13 328.97 390.24 328.97 389.02 328.13 381.13 328.97" style="fill:#c7c7c7"></polygon><rect x="388.17" y="354.14" width="10.22" height="38.66" style="fill:#ebebeb"></rect><path d="M393.28,361.77a2.13,2.13,0,1,1,2.13-2.13A2.13,2.13,0,0,1,393.28,361.77Z" style="fill:#fff"></path><path d="M393.28,360.86a1.22,1.22,0,1,1,0-2.43,1.22,1.22,0,0,1,0,2.43Z" style="fill:#a6a6a6"></path><rect x="388.57" y="376.9" width="9.41" height="10.22" transform="translate(775.29 -11.27) rotate(90)" style="fill:#fff"></rect><rect x="337.01" y="384.83" width="38.66" height="8.04" style="fill:#c7c7c7"></rect><path d="M368.05,388.84a2.13,2.13,0,1,1,2.13,2.13A2.12,2.12,0,0,1,368.05,388.84Z" style="fill:#fff"></path><path d="M369,388.84a1.22,1.22,0,1,1,1.22,1.22A1.22,1.22,0,0,1,369,388.84Z" style="fill:#a6a6a6"></path><rect x="343.1" y="384.83" width="9.41" height="8.04" transform="translate(695.62 777.69) rotate(180)" style="fill:#fff"></rect></g><g id="freepik--Plant--inject-80"><path d="M108.61,362.7C96.88,378.59,84.65,397,81.67,417c0,.3.45.4.52.1a118.77,118.77,0,0,1,5.18-15.95c7.72-2.12,15.29-3.87,19.34-11.52,4.13-7.87,3.61-18.14,2.82-26.71C109.48,362.41,108.85,362.39,108.61,362.7Z" style="fill:#FFC727"></path><path d="M87.49,401c5.27-11.83,12-23.7,20.64-33.43.06-.07.15,0,.09.09-5.63,6.93-9.91,14.48-14.09,22.15,3.89-3.94,8.15-7.48,11.83-11.66.07-.08.18,0,.11.12-3.65,4.38-7.64,9.15-12.4,12.39-1.28,2.36-2.56,4.72-3.87,7.08l1-.5c.06,0,.11.06,0,.09-.36.18-.72.38-1.1.54-.62,1.11-1.23,2.23-1.86,3.35C87.72,401.42,87.38,401.2,87.49,401Z" style="fill:#263238"></path><path d="M91.41,396.82a68.88,68.88,0,0,0,9-6c.07-.06.19.05.11.11a47.38,47.38,0,0,1-9,6.12A.13.13,0,0,1,91.41,396.82Z" style="fill:#263238"></path><path d="M80.31,414c0,.24.44.24.43,0,.06-6.56,0-13.15.1-19.75,1.69-3.39,5.29-5.27,7.8-8a35.09,35.09,0,0,0,4.68-6.52,46.55,46.55,0,0,0,5.43-18.1c.7-7-2-30.18-4.93-29.38-1.53.42-6.5,11.89-7.81,15.68a108.73,108.73,0,0,0-4.67,19.23C78.94,382.59,79.14,398.45,80.31,414Z" style="fill:#FFC727"></path><path d="M80.26,385.68l0,0c.36-8.31,2.23-16.69,4-24.74,1.88-8.68,4.09-16.85,8.55-24.59.08-.14.3,0,.22.13a91,91,0,0,0-6.87,18.87c.3-.47.66-.91,1-1.35.13-.17.41,0,.29.17a13,13,0,0,1-1.39,2,.07.07,0,0,1-.06,0c-1.54,6.2-2.64,12.55-3.59,18.87.08-.08.14-.16.21-.24a.06.06,0,0,1,.1.07c-.12.21-.25.42-.38.63-.47,3.21-.91,6.42-1.35,9.6,5.71-4.89,10.6-10.65,13.35-17.75,0,0,.07,0,0,0-2.69,7.37-6.95,13.91-13.5,18.38l-.36,2.56c0,.18-.3.13-.3,0,0-.76,0-1.51.07-2.27A.18.18,0,0,1,80.26,385.68Z" style="fill:#263238"></path><path d="M83,373.65c4.37-6.52,8.45-12.85,11.65-20.06,0-.08.17,0,.14.06-2.69,7.16-6.47,14.42-11.57,20.17C83.07,373.94,82.87,373.78,83,373.65Z" style="fill:#263238"></path><path d="M88.77,352c1.81-3.21,3.71-6.32,5.42-9.59,0-.09.17,0,.13.08A49.81,49.81,0,0,1,89,352.14.16.16,0,1,1,88.77,352Z" style="fill:#263238"></path><path d="M88.06,353.37s0,.06,0,.06A0,0,0,0,1,88.06,353.37Z" style="fill:#263238"></path><path d="M75.87,395a66.77,66.77,0,0,1-1.53,12.93c.06.47.13.94.2,1.42A61.38,61.38,0,0,0,76.85,395a.43.43,0,0,0,0-.45h0A94.85,94.85,0,0,0,75.42,375c-2-12.06-6.47-23.63-14.88-32.67a.6.6,0,0,0-.93.19c-3.39,8.63-2.21,18.93.68,27.54A50.57,50.57,0,0,0,67,383.09C69.85,387.15,73.53,390.58,75.87,395Z" style="fill:#FFC727"></path><path d="M61.54,346.33c8,12.93,13.51,28.27,14.19,43.55,0,.27-.44.34-.48.07-.19-1.38-.4-2.74-.62-4.09h0c-3.3-3.15-6.69-6.49-9.05-10.43a.08.08,0,0,1,.12-.09,108.93,108.93,0,0,0,8.78,9.56q-.85-5.07-2-10l-.63-.74c-.14-.16.1-.4.24-.24l.19.21a116,116,0,0,0-4.17-13.23c-2-2.42-4.29-4.51-5.77-7.42a.06.06,0,0,1,.1-.07c1.19,1.67,2.34,3.35,3.69,4.9.54.61,1.13,1.19,1.68,1.79a101.26,101.26,0,0,0-6.52-13.6A.18.18,0,0,1,61.54,346.33Z" style="fill:#263238"></path><path d="M63.15,362.29c2.57,3.46,5.51,6.77,7.9,10.35a.1.1,0,0,1-.16.13c-3.08-2.88-5.68-6.83-7.92-10.38C62.9,362.27,63.07,362.18,63.15,362.29Z" style="fill:#263238"></path><path d="M71.42,373.45l.11.11c.07.07,0,.19-.12.12l-.11-.11A.08.08,0,0,1,71.42,373.45Z" style="fill:#263238"></path><path d="M49.05,371.2a39.7,39.7,0,0,0,8.41,19.73,20.94,20.94,0,0,0,6.82,5.32c3,1.46,6,3.15,9.1,4.35a60,60,0,0,1,3.23,11.45c.09-.34.19-.68.29-1-2-16.85-12.86-31.25-26.81-40.5A.68.68,0,0,0,49.05,371.2Z" style="fill:#FFC727"></path><path d="M53.87,376.17c-.1-.08,0-.26.14-.18a57.12,57.12,0,0,1,17.77,21.9c.1.23-.21.44-.35.21-.64-1.14-1.31-2.25-2-3.33h0c-3.18-.6-6.2-2.84-8.56-5-.06-.05,0-.15.1-.09a19.44,19.44,0,0,0,4,2.83c1.3.66,2.7,1.07,4,1.6q-1.77-2.81-3.69-5.41a37.1,37.1,0,0,1-9.57-5.38c-.09-.06,0-.21.09-.15A93.84,93.84,0,0,0,64.77,388a80.15,80.15,0,0,0-6.28-7.32c-1.08-.57-2.18-1.14-3.23-1.75-.08-.05,0-.2.07-.17a11.64,11.64,0,0,1,2.48,1.22C56.55,378.66,55.25,377.4,53.87,376.17Z" style="fill:#263238"></path><path d="M54.16,382a4.38,4.38,0,0,1,.54.39s0,.11-.07.08a4.4,4.4,0,0,1-.56-.31C54,382.09,54.07,381.93,54.16,382Z" style="fill:#263238"></path><polygon points="98.67 448.54 60.45 448.54 63.53 413.73 64.21 406.06 94.91 406.06 95.58 413.73 98.67 448.54" style="fill:#455a64"></polygon><polygon points="95.58 413.73 63.53 413.73 64.21 406.06 94.91 406.06 95.58 413.73" style="fill:#263238"></polygon><rect x="62.38" y="400.69" width="34.35" height="7.6" style="fill:#455a64"></rect></g><g id="freepik--Floor--inject-80"><polygon points="49.04 448.04 99.28 447.8 149.52 447.71 250 447.54 350.48 447.71 400.72 447.79 450.96 448.04 400.72 448.28 350.48 448.37 250 448.54 149.52 448.37 99.28 448.28 49.04 448.04" style="fill:#263238"></polygon></g><g id="freepik--Screen--inject-80"><rect x="48.99" y="66.36" width="402.05" height="250.91" style="fill:#fff"></rect><path d="M451,317.27l-402,.36h-.36v-.36L48.49,66.36v-.5H49l402.05.2h.31v.3Zm0,0-.3-250.91.3.3-402,.2.5-.5-.14,250.91-.36-.36Z" style="fill:#dbdbdb"></path><rect x="48.96" y="66.36" width="402.09" height="9.08" style="fill:#455a64"></rect><path d="M56.62,70.9a1.57,1.57,0,1,1-1.57-1.57A1.56,1.56,0,0,1,56.62,70.9Z" style="fill:#c7c7c7"></path><path d="M63,70.9a1.57,1.57,0,1,1-1.57-1.57A1.56,1.56,0,0,1,63,70.9Z" style="fill:#fff"></path><path d="M69.38,70.9a1.57,1.57,0,1,1-1.57-1.57A1.56,1.56,0,0,1,69.38,70.9Z" style="fill:#FFC727"></path><rect x="48.96" y="75.44" width="402.09" height="15.51" style="fill:#ebebeb"></rect><rect x="97.78" y="78.6" width="325.38" height="9.2" style="fill:#fff"></rect><path d="M423.26,87.89H97.69V78.51H423.26ZM97.88,87.71H423.07v-9H97.88Z" style="fill:#c7c7c7"></path><path d="M104.9,85.18l-.65.49-1-1.32-.21-.28-.22-.28h0a2.07,2.07,0,0,0,.25-.15l0,0a1.56,1.56,0,0,0,.31-.37h0l.23.3.21.28Z" style="fill:#ebebeb"></path><path d="M103.87,83.81l-.21-.28a1.32,1.32,0,0,0,.18-.33l-.25-.34,0,0a.86.86,0,0,1-.07.21,1.3,1.3,0,0,1-.08.17,1.56,1.56,0,0,1-.31.37l.09-.08h0l.21.28.22.27.78,1-.09.08-.78-1-.21-.28-.21-.28h0l0,0a2.07,2.07,0,0,1-.25.15l-.09,0-.25.07v0l.23.3a1.43,1.43,0,0,0,.34-.14l.21.28,1,1.32.65-.49Z" style="fill:#ebebeb"></path><path d="M103.61,81.42a1.78,1.78,0,1,0-.91,2.79,1.43,1.43,0,0,0,.34-.14,1.58,1.58,0,0,0,.24-.15l0,0a.6.6,0,0,0,.08-.08,1.6,1.6,0,0,0,.25-.27,1.32,1.32,0,0,0,.18-.33A1.77,1.77,0,0,0,103.61,81.42Zm-.11,1.63a1.3,1.3,0,0,1-.08.17,1.56,1.56,0,0,1-.31.37l0,0a2.07,2.07,0,0,1-.25.15l-.09,0-.25.07a1.23,1.23,0,0,1-.27,0,1.39,1.39,0,0,1-1.12-.55,1.41,1.41,0,1,1,2.24-1.71,1.38,1.38,0,0,1,.25,1.19A.86.86,0,0,1,103.5,83.05Z" style="fill:#ebebeb"></path><path d="M103.84,83.2a1.78,1.78,0,1,0-1.14,1,1.43,1.43,0,0,0,.34-.14l.21.28a1.75,1.75,0,0,0,.25-.16l0,0a.38.38,0,0,0,.09-.09,1.2,1.2,0,0,0,.24-.26l-.21-.28A1.32,1.32,0,0,0,103.84,83.2Zm-.47.14a.73.73,0,0,1-.17.18.3.3,0,0,1-.08.08.1.1,0,0,1-.05,0,1.37,1.37,0,0,1-.2.13l-.05,0a1.12,1.12,0,0,1-.35.12,1.42,1.42,0,0,1-1.41-.53,1.44,1.44,0,1,1,2.53-.52,1.53,1.53,0,0,1-.16.37Z" style="fill:#ebebeb"></path><polygon points="64.77 86.35 61.41 83.26 64.76 80.06 65.28 80.6 62.51 83.25 65.27 85.8 64.77 86.35" style="fill:#fff"></polygon><polygon points="72.85 80.05 76.2 83.14 72.86 86.34 72.34 85.8 75.11 83.15 72.34 80.6 72.85 80.05" style="fill:#fff"></polygon><path d="M436.48,87a4.17,4.17,0,0,1-1.28.53,4.42,4.42,0,1,1,1.28-.53Z" style="fill:#dbdbdb"></path><path d="M435.5,82.69a1.35,1.35,0,1,1-1.35-1.35A1.34,1.34,0,0,1,435.5,82.69Z" style="fill:#fff"></path><path d="M436.48,86.41V87a4.17,4.17,0,0,1-1.28.53,4.4,4.4,0,0,1-3.38-.53v-.56a2.33,2.33,0,0,1,4.66,0Z" style="fill:#fff"></path><path d="M86.2,87.2a4.36,4.36,0,1,1,4.32-4.92l-.79.1a3.56,3.56,0,1,0-.88,2.85l.59.53A4.37,4.37,0,0,1,86.2,87.2Z" style="fill:#fff"></path><polygon points="87.79 81.24 88.05 80.85 90 82.16 91.17 80.12 91.58 80.36 90.16 82.84 87.79 81.24" style="fill:#fff"></polygon><rect x="443.91" y="106.33" width="7.13" height="210.94" style="fill:#dbdbdb"></rect><path d="M447.47,191.12h0a1.85,1.85,0,0,1-1.84-1.85V109.6a1.84,1.84,0,0,1,1.84-1.84h0a1.84,1.84,0,0,1,1.85,1.84v79.67A1.85,1.85,0,0,1,447.47,191.12Z" style="fill:#a6a6a6"></path><rect x="48.99" y="106.33" width="394.92" height="210.94" style="fill:#fff"></rect><path d="M443.91,317.27,49,317.65h-.38v-.38l-.12-210.94v-.5H49l394.92.2h.3v.3Zm0,0-.29-210.94.29.29L49,106.83l.5-.5-.11,210.94-.39-.38Z" style="fill:#dbdbdb"></path><rect x="48.99" y="106.33" width="394.92" height="37.73" style="fill:#ebebeb"></rect><polygon points="273.2 92.71 203.31 92.71 200.13 106.33 276.38 106.33 273.2 92.71" style="fill:#ebebeb"></polygon><rect x="266.94" y="96.48" width="0.66" height="6.07" transform="translate(7.9 218.11) rotate(-44.99)" style="fill:#dbdbdb"></rect><rect x="266.94" y="96.48" width="0.66" height="6.07" transform="translate(148.65 -159.84) rotate(45)" style="fill:#dbdbdb"></rect><rect x="218.11" y="98.58" width="40.28" height="1.88" style="fill:#dbdbdb"></rect><rect x="174.95" y="235.59" width="150.13" height="20.48" style="fill:#fff"></rect><path d="M325.58,256.57H174.45V235.09H325.58Zm-150.13-1H324.58V236.09H175.45Z" style="fill:#c7c7c7"></path><rect x="304.6" y="235.59" width="20.48" height="20.48" style="fill:#FFC727"></rect><path d="M321.34,251.57l-1.9,1.43-3.5-4.62-1.28-1.7a3.31,3.31,0,0,0,.73-.41,3,3,0,0,0,1-1.26l1.37,1.79Z" style="fill:#fff"></path><path d="M317.61,240.67a5.16,5.16,0,1,0-1.67,7.71,4.85,4.85,0,0,0,.71-.47,5.13,5.13,0,0,0,1-7.24Zm-2.22,5.6a3.31,3.31,0,0,1-.73.41,3.08,3.08,0,1,1,1.7-1.67A3,3,0,0,1,315.39,246.27Z" style="fill:#fff"></path><rect x="179.24" y="239.61" width="1.1" height="12.43" style="fill:#263238"></rect><rect x="174.95" y="264.06" width="34.68" height="10.99" style="fill:#c7c7c7"></rect><rect x="232.68" y="264.06" width="34.68" height="10.99" style="fill:#FFC727"></rect><rect x="290.84" y="264.06" width="34.68" height="10.99" style="fill:#c7c7c7"></rect><rect x="202.14" y="213.4" width="95.77" height="6.65" style="fill:#37474f"></rect><rect x="285.39" y="96.48" width="0.66" height="6.07" style="fill:#c7c7c7"></rect><rect x="285.39" y="96.48" width="0.66" height="6.07" transform="translate(385.24 -186.2) rotate(90)" style="fill:#c7c7c7"></rect><rect x="48.99" y="106.33" width="394.92" height="210.94" style="fill:#fff"></rect><path d="M443.91,317.27,49,317.65h-.38v-.38l-.12-210.94v-.5H49l394.92.2h.3v.3Zm0,0-.29-210.94.29.29L49,106.83l.5-.5-.11,210.94-.39-.38Z" style="fill:#dbdbdb"></path><rect x="48.99" y="106.33" width="394.92" height="37.73" style="fill:#ebebeb"></rect><polygon points="122.06 92.71 52.17 92.71 48.99 106.33 125.24 106.33 122.06 92.71" style="fill:#ebebeb"></polygon><rect x="115.81" y="96.48" width="0.66" height="6.07" transform="translate(-36.36 111.25) rotate(-44.99)" style="fill:#dbdbdb"></rect><rect x="115.81" y="96.48" width="0.66" height="6.07" transform="translate(104.39 -52.97) rotate(45)" style="fill:#dbdbdb"></rect><rect x="66.98" y="98.58" width="40.28" height="1.88" style="fill:#dbdbdb"></rect><rect x="174.95" y="235.59" width="150.13" height="20.48" style="fill:#fff"></rect><path d="M325.58,256.57H174.45V235.09H325.58Zm-150.13-1H324.58V236.09H175.45Z" style="fill:#c7c7c7"></path><rect x="304.6" y="235.59" width="20.48" height="20.48" style="fill:#FFC727"></rect><path d="M321.34,251.57l-1.9,1.43-3.5-4.62-1.28-1.7a3.31,3.31,0,0,0,.73-.41,3,3,0,0,0,1-1.26l1.37,1.79Z" style="fill:#fff"></path><path d="M317.61,240.67a5.16,5.16,0,1,0-1.67,7.71,4.85,4.85,0,0,0,.71-.47,5.13,5.13,0,0,0,1-7.24Zm-2.22,5.6a3.31,3.31,0,0,1-.73.41,3.08,3.08,0,1,1,1.7-1.67A3,3,0,0,1,315.39,246.27Z" style="fill:#fff"></path><rect x="179.24" y="239.61" width="1.1" height="12.43" style="fill:#263238"></rect><rect x="174.95" y="264.06" width="34.68" height="10.99" style="fill:#c7c7c7"></rect><rect x="232.68" y="264.06" width="34.68" height="10.99" style="fill:#FFC727"></rect><rect x="290.84" y="264.06" width="34.68" height="10.99" style="fill:#c7c7c7"></rect><rect x="202.14" y="213.4" width="95.77" height="6.65" style="fill:#37474f"></rect><rect x="48.99" y="106.33" width="394.92" height="210.94" style="fill:#fff"></rect><path d="M443.91,317.27,49,317.65h-.38v-.38l-.12-210.94v-.5H49l394.92.2h.3v.3Zm0,0-.29-210.94.29.29L49,106.83l.5-.5-.11,210.94-.39-.38Z" style="fill:#dbdbdb"></path><rect x="48.99" y="106.33" width="394.92" height="26.7" style="fill:#FFC727"></rect><polygon points="197.27 92.71 127.37 92.71 124.19 106.33 200.44 106.33 197.27 92.71" style="fill:#FFC727"></polygon><g style="opacity:0.2"><rect x="191.01" y="96.48" width="0.66" height="6.07" transform="translate(-14.34 164.42) rotate(-44.99)"></rect><rect x="191.01" y="96.48" width="0.66" height="6.07" transform="translate(126.41 -106.15) rotate(45)"></rect></g><rect x="142.18" y="98.58" width="40.28" height="1.88" style="opacity:0.1"></rect><rect x="70.31" y="154.6" width="123.82" height="95" transform="translate(264.45 404.21) rotate(180)" style="fill:#FFC727"></rect><path d="M82.64,175.38a11.25,11.25,0,1,0,8.83-8.83A11.25,11.25,0,0,0,82.64,175.38Z" style="fill:#fff;opacity:0.6000000000000001"></path><polygon points="111.16 229.14 194.13 229.14 152.65 178.01 111.16 229.14" style="fill:#FFC727"></polygon><polygon points="111.16 229.14 194.13 229.14 152.65 178.01 111.16 229.14" style="opacity:0.2"></polygon><polygon points="70.31 229.18 143.89 229.18 107.1 195.89 70.31 229.18" style="fill:#FFC727"></polygon><polygon points="70.31 229.18 143.89 229.18 107.1 195.89 70.31 229.18" style="opacity:0.1"></polygon><rect x="70.31" y="229.14" width="123.82" height="20.47" style="fill:#FFC727"></rect><rect x="70.31" y="229.14" width="123.82" height="20.47" style="opacity:0.1"></rect><rect x="209.78" y="154.6" width="101.53" height="4.53" style="fill:#a6a6a6"></rect><rect x="209.78" y="165.11" width="215.75" height="4.53" style="fill:#ebebeb"></rect><rect x="209.78" y="175.08" width="215.75" height="4.53" style="fill:#ebebeb"></rect><rect x="209.78" y="185.05" width="215.75" height="4.53" style="fill:#ebebeb"></rect><rect x="209.78" y="195.02" width="215.75" height="4.53" style="fill:#ebebeb"></rect><rect x="209.78" y="213.5" width="215.75" height="4.53" style="fill:#ebebeb"></rect><rect x="209.78" y="223.46" width="215.75" height="4.53" style="fill:#ebebeb"></rect><rect x="209.78" y="233.43" width="215.75" height="4.53" style="fill:#ebebeb"></rect><rect x="209.78" y="243.4" width="215.75" height="4.53" style="fill:#ebebeb"></rect><rect x="209.78" y="253.37" width="215.75" height="4.53" style="fill:#ebebeb"></rect><rect x="70.31" y="273.3" width="355.22" height="4.53" style="fill:#ebebeb"></rect><rect x="70.31" y="283.27" width="284.88" height="4.53" style="fill:#ebebeb"></rect><rect x="70.31" y="116.82" width="356.92" height="6.1" style="fill:#fff;opacity:0.6000000000000001"></rect></g><g id="freepik--Cursor--inject-80"><polygon points="391.25 266.51 395.45 276.64 391.26 278.38 387.04 268.18 380.11 273.55 380.11 245 400.1 265.19 391.25 266.51" style="fill:#263238"></polygon><path d="M380.35,241.2a3.84,3.84,0,0,1,0-3.79,3.84,3.84,0,0,1,0,3.79Z" style="fill:#263238"></path><path d="M377.09,242.55a3.57,3.57,0,0,1-1.69-1,3.48,3.48,0,0,1-1-1.69,3.56,3.56,0,0,1,1.7,1A3.64,3.64,0,0,1,377.09,242.55Z" style="fill:#263238"></path><path d="M375.74,245.81a3.53,3.53,0,0,1-1.89.5,3.48,3.48,0,0,1-1.9-.5,3.84,3.84,0,0,1,3.79,0Z" style="fill:#263238"></path><path d="M377.09,249.07a3.63,3.63,0,0,1-1,1.7,3.54,3.54,0,0,1-1.7,1,3.53,3.53,0,0,1,1-1.69A3.57,3.57,0,0,1,377.09,249.07Z" style="fill:#263238"></path><path d="M385,245.81a3.68,3.68,0,0,1,1.9-.5,3.62,3.62,0,0,1,1.89.5,3.45,3.45,0,0,1-1.89.5A3.59,3.59,0,0,1,385,245.81Z" style="fill:#263238"></path><path d="M383.61,242.55a3.66,3.66,0,0,1,1-1.69,3.57,3.57,0,0,1,1.69-1,3.47,3.47,0,0,1-1,1.69A3.56,3.56,0,0,1,383.61,242.55Z" style="fill:#263238"></path></g><g id="freepik--Character--inject-80"><path d="M279.14,186.85s-22.27,111.81-23.83,120.06c-.37,1.88.92,102,.92,102H214.86s-4-87.42-2-103.91,27.21-118.11,27.21-118.11Z" style="fill:#d3766a"></path><path d="M279.14,186.86S268.31,241.27,261.21,277l-21.14-90.12Z" style="opacity:0.1"></path><polygon points="226.04 242.76 270.03 248.04 279.14 186.85 240.08 186.85 226.04 242.76" style="fill:#263238"></polygon><path d="M268.39,239.6c-4.7-.94-9.47-1.52-14.24-2.06s-9.43-1-14.14-1.53c-2.7-.27-5.42-.55-8.13-.69-.18,0-.19.22,0,.26,4.71.87,9.49,1.42,14.23,2s9.42,1.21,14.13,1.71c2.71.29,5.41.52,8.13.63A.19.19,0,1,0,268.39,239.6Z" style="fill:#37474f"></path><path d="M273.05,190.42q-4.91,17.58-9.36,35.27-.62,2.49-1.21,5a50.56,50.56,0,0,0-1.1,5.14.08.08,0,0,0,.15,0A85.4,85.4,0,0,0,264.1,227c.79-2.93,1.55-5.86,2.3-8.79,1.52-5.87,3-11.74,4.45-17.63q1.22-5,2.42-10.08A.11.11,0,0,0,273.05,190.42Z" style="fill:#37474f"></path><path d="M184.25,446.79c2.29.76,67.53.57,70-1,.94-.59,1.47-10.1,1.78-21.6q.1-3.74.16-7.66c.05-3.08.09-6.21.11-9.24.08-13.63-.41-25.62-.41-25.62H213.73l0,25.62v9.24l.22,7.66S189,435.43,186.5,437.45,182,446,184.25,446.79Z" style="fill:#d3766a"></path><path d="M184.25,446.79c2.29.76,67.53.57,70-1,.94-.59,1.47-10.1,1.78-21.6q.1-3.74.16-7.66c.05-3.08.09-6.21.11-9.24H213.75v9.24l.22,7.66S189,435.43,186.5,437.45,182,446,184.25,446.79Z" style="fill:#dbdbdb"></path><path d="M184.05,446.89c1.49.48,29.28.58,49.51.16,4.69-.09,9-.22,12.42-.37,4.76-.22,8-.48,8.48-.81,1.14-.74,1.69-14.7,2-29.42H213.73l.22,7.7s-25.08,11.31-27.64,13.34S181.77,446.12,184.05,446.89Z" style="fill:#FFC727"></path><path d="M185,444.26c11-.3,55.38-.48,66.27.05.09,0,.09.07,0,.07-10.89.54-55.27.36-66.27.06C184.76,444.43,184.76,444.26,185,444.26Z" style="fill:#263238"></path><path d="M212.39,421.71c4.32-.82,9.62-.17,12.93,2.9.13.12,0,.3-.18.26a60,60,0,0,0-12.73-2.61A.28.28,0,0,1,212.39,421.71Z" style="fill:#263238"></path><path d="M209.27,423.6c4.33-.82,9.62-.17,12.94,2.9.13.12-.05.3-.19.26a60.59,60.59,0,0,0-12.73-2.61A.28.28,0,0,1,209.27,423.6Z" style="fill:#263238"></path><path d="M206.15,425.49c4.33-.82,9.62-.17,12.94,2.91.13.11,0,.29-.18.25A61.46,61.46,0,0,0,206.17,426,.28.28,0,0,1,206.15,425.49Z" style="fill:#263238"></path><path d="M203,427.38c4.33-.82,9.62-.17,12.94,2.91.13.12,0,.3-.18.25a61.46,61.46,0,0,0-12.74-2.61A.28.28,0,0,1,203,427.38Z" style="fill:#263238"></path><path d="M206.32,417.88c3.07,2.37,7.06,3.33,10.64,4.65a.54.54,0,0,0,.67-.54.13.13,0,0,0,.11-.16,23.17,23.17,0,0,0-6.7-9.9c-1.81-1.51-5-2.55-6.67-.21S204.53,416.5,206.32,417.88Zm-1.11-3.48c-.77-4.74,4.33-2.26,5.62-1.1a24.56,24.56,0,0,1,2.3,2.48,66.54,66.54,0,0,1,4,5.69c-1.72-.76-3.49-1.35-5.23-2C209.86,418.61,205.64,417,205.21,414.4Z" style="fill:#263238"></path><path d="M232.16,415.19c-1-2.69-4.38-2.47-6.51-1.46a23.08,23.08,0,0,0-9,7.91.12.12,0,0,0,.06.18.53.53,0,0,0,.52.69c3.79-.38,7.89-.31,11.45-1.84C230.81,419.77,233.16,417.74,232.16,415.19Zm-9.25,5.57c-1.86.23-3.72.37-5.57.67a69.12,69.12,0,0,1,5.32-4.5,25,25,0,0,1,2.85-1.82c1.54-.81,7.1-1.94,5.17,2.47C229.61,420,225.12,420.49,222.91,420.76Z" style="fill:#263238"></path><path d="M229.77,447.13l3.79-.07c4.69-.11,9-.23,12.42-.39,4.76-.21,8-.47,8.48-.8.87-.57,1.4-8.72,1.71-19.06Z" style="opacity:0.1"></path><path d="M268.72,403.7l42.56-.53s-9.79-145.1-13.43-175.3c0,0,6.9-16.35-6-41.05H240s3.47,23.5,9.41,38.4a55.74,55.74,0,0,1,10.84,4.89Z" style="fill:#d3766a"></path><path d="M261.05,248.37h40.69l-3.09-20.5s6.18-20.81-5.9-41.05H240s2.18,22,8.65,38.63l6.62,2.93Z" style="fill:#263238"></path><path d="M255.31,228.38c-.05-.26-.58-.25-.54,0,2.15,12.08,5.53,17.93,5.77,18.49a.09.09,0,0,0,.16,0C260.89,246.31,256.28,233.4,255.31,228.38Z" style="fill:#37474f"></path><path d="M247.49,224.63A85.49,85.49,0,0,1,261,230.91a.15.15,0,0,1-.13.27c-4.54-2-9.17-3.81-13.6-6A.3.3,0,0,1,247.49,224.63Z" style="fill:#37474f"></path><path d="M246,193.46c0-.15.29-.19.29,0a152,152,0,0,0,.76,15.18c.21,2.33,2.09,15.26,6.15,14.32.68-.16,1-.83,1.13-1.85a15.8,15.8,0,0,0-.54-4c-.45-2.71-.81-5.43-1-8.16a74.41,74.41,0,0,1,.17-15.29.13.13,0,0,1,.26,0,140.43,140.43,0,0,0,1.23,21.11c.51,3.37,2.2,8.43-1.31,8.95s-5.9-8-6.34-10.28A77.5,77.5,0,0,1,246,193.46Z" style="fill:#37474f"></path><path d="M253.13,223.29a22.89,22.89,0,0,1,.92,2.68,6.17,6.17,0,0,1,.37,2.2c0,.14-.2.16-.28.06a8.05,8.05,0,0,1-.94-2.14c-.31-.83-.63-1.65-.92-2.49A.45.45,0,0,1,253.13,223.29Z" style="fill:#37474f"></path><path d="M290.89,209.28c-3.83-.38-7.78-.33-11.33-2.05s-5.91-5.16-7.76-8.6a28.23,28.23,0,0,1-2.54-6.75.1.1,0,0,0-.19,0,19,19,0,0,0,1.56,6.37,29,29,0,0,0,3.05,5.64,13.66,13.66,0,0,0,4.38,4.11,15,15,0,0,0,5.75,1.73,32.33,32.33,0,0,0,7.09,0A.22.22,0,0,0,290.89,209.28Z" style="fill:#37474f"></path><path d="M296.16,232.19a36.42,36.42,0,0,1-1.14-5.72c-.1-1.92.91-3.58,1.49-5.35,2.25-6.89,1.34-14.43-1.11-21.12a76.56,76.56,0,0,0-5.3-11c-.05-.09-.18,0-.13.08,3.35,6.56,6.32,13.55,7,21a27.81,27.81,0,0,1-1,10.62c-.49,1.62-1.43,3.2-1.57,4.91a17.73,17.73,0,0,0,.84,5.34c.49,2.15,2,8.62,2.65,10.8.06.18.39.15.36-.06C297.94,239.68,296.6,234.17,296.16,232.19Z" style="fill:#37474f"></path><path d="M299.09,243.06c-4.78-.36-9.58-.35-14.38-.3s-9.48.12-14.23.22c-2.71.05-5.43.11-8.14.3a.13.13,0,1,0,0,.26c4.78.29,9.59.26,14.38.29s9.48,0,14.23,0c2.72,0,5.43-.14,8.14-.37A.19.19,0,1,0,299.09,243.06Z" style="fill:#37474f"></path><path d="M240.35,448.28c2.3.7,67.52-1.14,70-2.78.92-.61,1.21-10.13,1.23-21.64,0-2.48,0-5,0-7.65,0-3.09-.07-6.21-.13-9.25-.26-13.62-1.6-26.75-1.6-26.75l-41.61,2.22.66,25.61.25,9.24.41,7.65s-24.65,11.87-27.13,14S238.05,447.59,240.35,448.28Z" style="fill:#d3766a"></path><path d="M240.35,448.28c2.3.7,67.52-1.14,70-2.78.92-.61,1.21-10.13,1.23-21.64,0-2.48,0-5,0-7.65,0-3.09-.07-6.21-.13-9.25L268.83,408l.25,9.24.41,7.65s-24.65,11.87-27.13,14S238.05,447.59,240.35,448.28Z" style="fill:#dbdbdb"></path><path d="M240.15,448.38c1.5.46,29.28-.15,49.5-1.08,4.68-.22,9-.45,12.4-.69,4.76-.34,7.95-.68,8.46-1,1.13-.77,1.32-14.74,1.21-29.46l-42.67,1.08.41,7.69s-24.79,11.94-27.29,14S237.85,447.67,240.15,448.38Z" style="fill:#FFC727"></path><path d="M241,445.74c11-.58,55.35-1.89,66.25-1.63.09,0,.09.07,0,.07C296.4,445,252,445.94,241,445.92,240.79,445.91,240.79,445.75,241,445.74Z" style="fill:#263238"></path><path d="M267.84,422.5c4.3-.93,9.61-.41,13,2.57.13.12,0,.31-.18.27a60.42,60.42,0,0,0-12.8-2.29A.28.28,0,0,1,267.84,422.5Z" style="fill:#263238"></path><path d="M264.77,424.47c4.31-.93,9.62-.41,13,2.57.13.12,0,.31-.18.27A60.31,60.31,0,0,0,264.8,425,.28.28,0,0,1,264.77,424.47Z" style="fill:#263238"></path><path d="M261.7,426.44c4.31-.93,9.62-.41,13,2.57.13.12,0,.31-.18.26A60.83,60.83,0,0,0,261.74,427,.28.28,0,0,1,261.7,426.44Z" style="fill:#263238"></path><path d="M258.63,428.41c4.31-.93,9.62-.41,13,2.57.13.12,0,.3-.18.26A60.83,60.83,0,0,0,258.67,429,.28.28,0,0,1,258.63,428.41Z" style="fill:#263238"></path><path d="M261.68,418.83c3.13,2.29,7.14,3.15,10.75,4.37.37.13.66-.23.66-.56a.12.12,0,0,0,.1-.16,23.15,23.15,0,0,0-6.94-9.72c-1.85-1.46-5.05-2.43-6.68,0S259.86,417.49,261.68,418.83Zm-1.2-3.45c-.89-4.73,4.27-2.38,5.59-1.24a23.34,23.34,0,0,1,2.36,2.41,68.86,68.86,0,0,1,4.18,5.59c-1.73-.71-3.51-1.27-5.27-1.91C265.24,419.46,261,418,260.48,415.38Z" style="fill:#263238"></path><path d="M287.45,415.49c-1.13-2.67-4.45-2.37-6.56-1.3a23.07,23.07,0,0,0-8.74,8.13.12.12,0,0,0,.06.18c-.06.32.15.73.54.68,3.78-.48,7.88-.51,11.4-2.14C286.21,420.1,288.51,418,287.45,415.49Zm-9.12,5.8c-1.85.28-3.71.46-5.55.81a69.57,69.57,0,0,1,5.21-4.64,25,25,0,0,1,2.8-1.89c1.52-.85,7-2.11,5.23,2.34C285,420.36,280.54,421,278.33,421.29Z" style="fill:#263238"></path><path d="M268.65,93.26s-7.91-8.26-17.9-4.93c-12.45,4.14-12.15,38.19-13.49,44.47s-6.69,8-.46,13.57,14.92,7.3,23.75,6.94,15.43-4.23,16.71-8.16c.78-2.41-1.15-4.7-1.53-8.69C275.5,134.11,280.61,94.49,268.65,93.26Z" style="fill:#263238"></path><path d="M277.85,140.31c-.12-2.7-.86-5.26-.85-8s.38-18.32.6-21c.55-6.82-.17-17.34-9-17.88a.14.14,0,0,0,0,.27c10.84,1.8,8.43,17.12,7.81,32.32a61.49,61.49,0,0,0,.58,11.26c.77,4.72.22,8.84-3.52,12.19-.08.08,0,.21.11.13A11.42,11.42,0,0,0,277.85,140.31Z" style="fill:#263238"></path><path d="M266.93,93c-4.5-3.71-9.85-6.85-15.9-5.06-5.23,1.54-8.65,6.29-10.38,11.16-2.42,6.79-2.09,27.22-4.76,33.94-.94,2.37-3.19,4.85-3.08,7.54.09,2.4,2,3.22,4.05,3.76.12,0,.18-.14.07-.17-5.08-1.5-3.53-5-1.81-8.3a31.35,31.35,0,0,0,2.65-7.33c1.19-5.08,1.46-23.34,3-28.34s4.43-9.68,9.47-11.64c6.3-2.46,11.72.85,16.59,4.53A.06.06,0,0,0,266.93,93Z" style="fill:#263238"></path><path d="M267.63,93c2.05,1.54,8.22.64,10.5-2.64,3.14-4.51-2.65-11.9-8.21-9.18S266.05,91.77,267.63,93Z" style="fill:#263238"></path><path d="M276.76,82.45a11,11,0,0,1,2.6,4.65,4.1,4.1,0,0,1-1.63,4.43,9.81,9.81,0,0,1-2.29,1.27,11.26,11.26,0,0,1-2.54.76,9,9,0,0,1-5.27-.61,7.87,7.87,0,0,0,5.36,1.3,10.9,10.9,0,0,0,2.76-.66,10.45,10.45,0,0,0,2.52-1.36A5.05,5.05,0,0,0,280,89.86a4.8,4.8,0,0,0,0-2.93A9.18,9.18,0,0,0,276.76,82.45Z" style="fill:#263238"></path><path d="M240.91,177.39l-1.14,10.55,53.1-1s-3.48-39.26-19.14-53.77c-7.84-7.26-16.27-6-21.23-.09-1.25,1.49-16,21.56-17,29.92C234.54,170.41,240.91,177.39,240.91,177.39Z" style="fill:#455a64"></path><path d="M253.18,137.39a.59.59,0,1,1-1.17.05.6.6,0,0,1,.56-.61A.59.59,0,0,1,253.18,137.39Zm6.54-.91a.58.58,0,1,0,.06,1.16.57.57,0,0,0,.55-.61A.57.57,0,0,0,259.72,136.48Zm7.16-.36a.59.59,0,1,0,.61.56A.59.59,0,0,0,266.88,136.12Zm7.16-.35a.58.58,0,0,0-.55.61.57.57,0,0,0,.61.55.57.57,0,0,0,.55-.61A.58.58,0,0,0,274,135.77Zm-18.15-4.35a.59.59,0,0,0-.56.61.58.58,0,0,0,.61.55.59.59,0,0,0,.56-.61A.58.58,0,0,0,255.89,131.42Zm7.15-.36a.59.59,0,1,0,.61.56A.58.58,0,0,0,263,131.06Zm7.16-.35a.58.58,0,0,0-.55.61.58.58,0,0,0,1.16-.06A.58.58,0,0,0,270.2,130.71Zm-24.26,17.18a.59.59,0,1,0,.61.56A.58.58,0,0,0,245.94,147.89Zm7.16-.35a.6.6,0,0,0-.56.61.59.59,0,1,0,.56-.61Zm7.15-.35a.58.58,0,0,0-.55.61.59.59,0,0,0,.61.55.6.6,0,0,0,.56-.61A.58.58,0,0,0,260.25,147.19Zm7.16-.36a.58.58,0,0,0-.55.61.58.58,0,1,0,.55-.61Zm7.16-.35a.57.57,0,0,0-.55.61.57.57,0,0,0,.61.55.58.58,0,0,0-.06-1.16Zm7.16-.36a.59.59,0,0,0-.56.61.59.59,0,1,0,.56-.61Zm-32.47-3.64a.58.58,0,0,0-.55.61.58.58,0,0,0,1.16-.06A.58.58,0,0,0,249.26,142.48Zm7.16-.35a.58.58,0,1,0,.61.55A.58.58,0,0,0,256.42,142.13Zm7.15-.36a.58.58,0,1,0,.06,1.16.58.58,0,0,0-.06-1.16Zm7.16-.35a.58.58,0,1,0,.06,1.16.58.58,0,0,0,.55-.61A.57.57,0,0,0,270.73,141.42Zm7.16-.36a.59.59,0,1,0,.61.55A.59.59,0,0,0,277.89,141.06ZM239.31,159a.58.58,0,1,0,.61.55A.57.57,0,0,0,239.31,159Zm7.16-.36a.58.58,0,0,0-.55.61.57.57,0,0,0,.61.55.57.57,0,0,0,.55-.61A.58.58,0,0,0,246.47,158.6Zm7.16-.35a.57.57,0,0,0-.55.61.57.57,0,0,0,.61.55.58.58,0,0,0-.06-1.16Zm7.16-.36a.59.59,0,0,0-.56.61.59.59,0,1,0,1.17-.06A.59.59,0,0,0,260.79,157.89Zm7.15-.35a.57.57,0,0,0-.55.61.58.58,0,0,0,1.16-.06A.57.57,0,0,0,267.94,157.54Zm7.16-.36a.58.58,0,0,0-.55.61.59.59,0,0,0,.61.56.58.58,0,0,0,.55-.61A.59.59,0,0,0,275.1,157.18Zm7.16-.35a.59.59,0,0,0-.56.61.59.59,0,1,0,.56-.61Zm-39.63-3.29a.58.58,0,0,0-.55.61.6.6,0,0,0,.61.56.59.59,0,0,0-.06-1.17Zm7.16-.35a.58.58,0,1,0,.06,1.16.58.58,0,0,0,.55-.61A.57.57,0,0,0,249.79,153.19Zm7.16-.36A.59.59,0,0,0,257,154a.59.59,0,1,0-.05-1.17Zm7.15-.35a.58.58,0,1,0,.06,1.16.58.58,0,1,0-.06-1.16Zm7.16-.36a.58.58,0,0,0-.55.61.59.59,0,0,0,.61.56.59.59,0,0,0-.06-1.17Zm7.16-.35a.57.57,0,0,0-.55.61.57.57,0,0,0,.61.55.57.57,0,0,0,.55-.61A.58.58,0,0,0,278.42,151.77Zm6.61.14a.4.4,0,0,0,0,.11.56.56,0,0,0,.2.41C285.17,152.26,285.09,152.08,285,151.91Zm-45.19,17.75a.59.59,0,0,0-.55.61.59.59,0,1,0,.55-.61Zm7.16-.35a.58.58,0,1,0,.61.55A.57.57,0,0,0,247,169.31Zm7.16-.36a.58.58,0,0,0-.55.61.59.59,0,0,0,.61.56.58.58,0,0,0,.55-.61A.59.59,0,0,0,254.16,169Zm7.16-.35a.58.58,0,1,0,.61.55A.58.58,0,0,0,261.32,168.6Zm7.15-.36a.58.58,0,0,0-.55.61.59.59,0,0,0,.61.56.59.59,0,0,0-.06-1.17Zm7.16-.35a.58.58,0,1,0,.61.55A.57.57,0,0,0,275.63,167.89Zm7.16-.36a.6.6,0,0,0-.56.61.59.59,0,1,0,1.17,0A.6.6,0,0,0,282.79,167.53Zm6.81-.21a.55.55,0,0,0-.21.47.57.57,0,0,0,.43.53C289.75,168,289.68,167.66,289.6,167.32ZM236,164.6a.59.59,0,0,0,.05,1.17.59.59,0,1,0-.05-1.17Zm7.15-.35a.58.58,0,1,0,.06,1.16.57.57,0,0,0,.55-.61A.57.57,0,0,0,243.16,164.25Zm7.16-.36a.59.59,0,1,0,.61.56A.58.58,0,0,0,250.32,163.89Zm7.16-.35a.58.58,0,1,0,.06,1.16.58.58,0,1,0-.06-1.16Zm7.16-.36a.59.59,0,0,0,.05,1.17.59.59,0,1,0-.05-1.17Zm7.15-.35a.58.58,0,1,0,.06,1.16.58.58,0,0,0-.06-1.16Zm7.16-.36a.59.59,0,1,0,.61.56A.6.6,0,0,0,279,162.47Zm7.16-.35a.59.59,0,0,0-.56.61.59.59,0,1,0,.56-.61Zm-45.53,18.27-.12,1.14a.58.58,0,0,0,.52-.61A.61.61,0,0,0,240.58,180.39Zm6.95-.38a.58.58,0,0,0-.55.61.59.59,0,0,0,.61.56.58.58,0,0,0,.55-.61A.59.59,0,0,0,247.53,180Zm7.16-.35a.58.58,0,0,0-.55.61.58.58,0,0,0,1.16-.06A.58.58,0,0,0,254.69,179.66Zm7.16-.36a.6.6,0,0,0-.56.62.59.59,0,0,0,1.17-.06A.6.6,0,0,0,261.85,179.3ZM269,179a.58.58,0,1,0,.06,1.16.57.57,0,0,0,.55-.61A.57.57,0,0,0,269,179Zm7.16-.35a.57.57,0,0,0-.55.61.58.58,0,0,0,1.16-.06A.57.57,0,0,0,276.16,178.6Zm7.16-.36a.6.6,0,0,0-.56.61.59.59,0,1,0,.56-.61Zm7.16-.35a.58.58,0,1,0,0,1.16.6.6,0,0,0,.56-.61A.58.58,0,0,0,290.48,177.89ZM243.69,175a.59.59,0,1,0,.62.56A.6.6,0,0,0,243.69,175Zm7.16-.35a.58.58,0,0,0-.55.61.58.58,0,1,0,.55-.61Zm7.16-.35a.57.57,0,0,0-.55.61.58.58,0,1,0,.55-.61Zm7.16-.36a.59.59,0,0,0-.56.61.58.58,0,0,0,.61.55.59.59,0,0,0,.56-.61A.58.58,0,0,0,265.17,173.89Zm7.15-.35a.57.57,0,0,0-.55.61.58.58,0,0,0,1.16-.06A.57.57,0,0,0,272.32,173.54Zm7.16-.36a.58.58,0,0,0-.55.61.57.57,0,0,0,.61.55.57.57,0,0,0,.55-.61A.58.58,0,0,0,279.48,173.18Zm7.16-.35a.59.59,0,0,0-.56.61.58.58,0,0,0,.61.55.59.59,0,0,0,.56-.61A.58.58,0,0,0,286.64,172.83Zm-42.41,12.83a.59.59,0,0,0-.56.61.59.59,0,0,0,1.17-.06A.59.59,0,0,0,244.23,185.66Zm7.15-.35a.57.57,0,0,0-.55.61.58.58,0,0,0,1.16-.06A.57.57,0,0,0,251.38,185.31Zm7.16-.36a.58.58,0,0,0-.55.61.58.58,0,1,0,.55-.61Zm7.16-.35a.59.59,0,0,0-.56.61.58.58,0,0,0,.61.55.59.59,0,0,0,.56-.61A.58.58,0,0,0,265.7,184.6Zm7.15-.36a.58.58,0,0,0-.55.61.6.6,0,0,0,.61.56.59.59,0,0,0-.06-1.17Zm7.16-.35a.58.58,0,1,0,.61.55A.57.57,0,0,0,280,183.89Zm7.16-.36a.59.59,0,1,0,.06,1.17.59.59,0,0,0-.06-1.17Z" style="fill:#fff"></path><path d="M249.66,173a59.08,59.08,0,0,1,8.5,1c1.39.3,2.75.66,4.12,1,.68.19,1.36.36,2.05.53a9,9,0,0,0,2.19.32c.06,0,.07.1,0,.1a16.21,16.21,0,0,1-2.09,0,15.38,15.38,0,0,1-2-.3c-1.41-.28-2.8-.64-4.21-.94-2.84-.61-5.68-1.21-8.56-1.61C249.5,173.26,249.53,173,249.66,173Z" style="fill:#263238"></path><path d="M242.74,175.84a63.68,63.68,0,0,1,7-.62c1.18,0,2.35,0,3.53.06l1.68.13c.62.05,1.23.18,1.84.23.07,0,.07.1,0,.1-.59,0-1.18,0-1.76.06l-1.76,0c-1.18,0-2.35.06-3.53.06-2.35,0-4.69.06-7,.16A.1.1,0,0,1,242.74,175.84Z" style="fill:#263238"></path><path d="M265.16,129.11c-.18,1.06-4.76,8.17-9.56,8.24-1.57,0-2.06-8.51-2.06-8.51l-.18-.63-2.51-8.7,10-7.29,1.45-1s.53,2.43,1.16,5.46l.09.43c0,.17.08.33.11.49.1.45.2.91.29,1.37s.14.69.2,1.06.13.74.2,1.11A58.53,58.53,0,0,1,265.16,129.11Z" style="fill:#d3766a"></path><path d="M263.41,116.71a18.17,18.17,0,0,1-10.05,11.5l-2.51-8.7,10-7.29,1.45-1S262.78,113.68,263.41,116.71Z" style="fill:#263238"></path><path d="M238.82,104.7c-3.9,15.41,4.89,19.49,8.21,20.33,3,.76,13.39,3,18.86-12s-.46-21.62-7.27-23.72S242.72,89.29,238.82,104.7Z" style="fill:#d3766a"></path><path d="M242.09,101.3a10,10,0,0,0,1.1,0,1.72,1.72,0,0,0,1.12-.16.56.56,0,0,0,.17-.67,1.39,1.39,0,0,0-1.26-.66,2,2,0,0,0-1.43.39A.6.6,0,0,0,242.09,101.3Z" style="fill:#263238"></path><path d="M252.12,104.55c-.35-.14-.65-.32-1-.49a1.82,1.82,0,0,1-.91-.68.57.57,0,0,1,.17-.67,1.39,1.39,0,0,1,1.42,0,2.09,2.09,0,0,1,1.08,1A.61.61,0,0,1,252.12,104.55Z" style="fill:#263238"></path><path d="M243.23,105.38s-.09,0-.1.07c-.21,1.06-.63,2.25-1.66,2.38,0,0,0,.06,0,.06C242.66,108,243.2,106.42,243.23,105.38Z" style="fill:#263238"></path><path d="M242.54,104.06c-1.67-.52-2.58,2.85-1,3.33S243.94,104.49,242.54,104.06Z" style="fill:#263238"></path><path d="M241.78,104.09c-.32.11-.67.36-1,.3s-.55-.52-.7-.93c0,0,0,0-.06,0-.19.64-.16,1.37.43,1.66s1.1-.18,1.42-.78C241.94,104.25,241.9,104.05,241.78,104.09Z" style="fill:#263238"></path><path d="M249,107.17s.06.08.05.12c-.4,1-.69,2.22.11,2.89,0,0,0,.07,0,.06C248,109.67,248.41,108.06,249,107.17Z" style="fill:#263238"></path><path d="M250.24,106.43c1.69.47.63,3.8-.93,3.37S248.83,106,250.24,106.43Z" style="fill:#263238"></path><path d="M250.87,106.87c.21.26.36.67.67.79s.74-.14,1.08-.41c0,0,.06,0,0,0-.18.64-.6,1.24-1.25,1.17s-.83-.74-.78-1.42C250.64,106.92,250.78,106.77,250.87,106.87Z" style="fill:#263238"></path><path d="M247.34,115.42c-.3.2-.62.5-1,.46a2.87,2.87,0,0,1-1.1-.49,0,0,0,0,0,0,0,1.46,1.46,0,0,0,1.24.83,1.13,1.13,0,0,0,1-.78C247.46,115.43,247.38,115.39,247.34,115.42Z" style="fill:#263238"></path><path d="M243.9,110.53s-.61,1.51-.8,2.25c0,.07.16.15.4.23h0a3.63,3.63,0,0,0,3.75-.47c.07,0,0-.15-.09-.13a5.4,5.4,0,0,1-3.44.12c0-.21,1.13-2.56,1-2.59a6.52,6.52,0,0,0-1.78,0c1.18-3.19,2.85-6.17,4-9.37a.11.11,0,0,0-.19-.09,55.7,55.7,0,0,0-4.71,9.9C241.91,110.76,243.57,110.58,243.9,110.53Z" style="fill:#263238"></path><path d="M243.64,112.51a4.52,4.52,0,0,0,1.19,1.9,2,2,0,0,0,1.11.48c.9.09,1.19-.66,1.28-1.35a4.74,4.74,0,0,0,0-1.12A5.69,5.69,0,0,1,243.64,112.51Z" style="fill:#263238"></path><path d="M244.83,114.41a2,2,0,0,0,1.11.48c.9.09,1.19-.66,1.28-1.35A2,2,0,0,0,244.83,114.41Z" style="fill:#ff99ba"></path><path d="M264.71,115.34a6.64,6.64,0,0,1-2.17-6.18,17.32,17.32,0,0,1-5.33-7.3c0,.34.15,2.85.25,4.13-9.34-4.49-10.35-12.85-10.35-12.85a17.73,17.73,0,0,0-6,5.08s1.56-6,5.76-9.26c5.13-3.92,18.32-1.8,22.52,6.26C273.92,103.91,264.71,115.34,264.71,115.34Z" style="fill:#263238"></path><path d="M250.42,102.34a19,19,0,0,0,4.55,3.22s0,0,0,0a16,16,0,0,1-6-6.32,15,15,0,0,1-1.32-3.54,10.38,10.38,0,0,1-.3-4.11c0-.1-.14-.12-.15,0a11.92,11.92,0,0,0-.27,4.08,10.92,10.92,0,0,0,1.31,3.85,12.79,12.79,0,0,0,2.21,2.86" style="fill:#263238"></path><path d="M263.14,113.63s4.23-4.34,6.25-2.76-1.71,8.27-4.47,8.81a2.69,2.69,0,0,1-3.33-2Z" style="fill:#d3766a"></path><path d="M268.27,112.76c.05,0,0,.06,0,.07-1.95.45-3.19,2-4.15,3.64a1.48,1.48,0,0,1,2.25,0,.06.06,0,0,1-.06.09,1.65,1.65,0,0,0-1.89.28,7.72,7.72,0,0,0-1.1,1.31c-.11.15-.39,0-.3-.16l0,0C263.39,115.56,265.73,112.59,268.27,112.76Z" style="fill:#263238"></path><path d="M268.33,159.07c-5.29-.66-8.18-9.72-6.65-15.69s4.89-11.12,9.87-9.94,5.73,9,5.8,13.56S276.52,160.09,268.33,159.07Z" style="fill:#d3766a"></path><path d="M269.47,145.89c-8.54,12.1-27.32,33.91-40,34.63-8.71.49-35.94-20.64-41.74-25.89-2.4-2.18,18.63-21.73,21.31-19.68,3.7,2.83,19.94,18.93,22.53,19s18.72-9.07,29-16.27C273.55,128.55,276.71,135.65,269.47,145.89Z" style="fill:#d3766a"></path><path d="M268.62,149.51a2.21,2.21,0,0,0-.84.13,2.61,2.61,0,0,0-.81.42,11.39,11.39,0,0,0-1.4,1.29s0,.1.06.06c.48-.34,1-.67,1.48-1l.74-.44a6.15,6.15,0,0,1,.78-.37A0,0,0,0,0,268.62,149.51Z" style="fill:#263238"></path><path d="M268.43,148.11a26.14,26.14,0,0,0-5.51,6.21c-.07.1.06.2.15.11,1-1,5-5.49,5.43-6.15C268.55,148.19,268.51,148.05,268.43,148.11Z" style="fill:#263238"></path><path d="M178.28,100.52c-2.67,2.2,6.39,12.32,6.39,12.32a6.35,6.35,0,0,0-4.33.22c-2.38,1.14-1.64,5.35-1.64,5.35a7.84,7.84,0,0,0-4.53,1c-2.17,1.31-2,5.67-2,5.67a6.91,6.91,0,0,0-3.45,3.36c-1.74,4.08,2.14,9.63,4.56,13.18s12.65,11.36,14.44,13l22.94-15.38s-6.35-19-9.8-22.8C197.92,113.27,182.37,97.16,178.28,100.52Z" style="fill:#d3766a"></path><path d="M184.79,112.83c3.9,2.64,7.16,6.21,10.27,9.68.07.08-.06.19-.12.11-3.05-3.5-7.11-6.26-10.3-9.62C184.56,112.91,184.69,112.76,184.79,112.83Z" style="fill:#263238"></path><path d="M179.05,118.29a11.89,11.89,0,0,1,2.18,2.35c.72.88,1.42,1.78,2.1,2.69q2.05,2.72,4,5.55c.06.08-.06.19-.12.1q-2.06-2.71-4.21-5.34c-.73-.88-1.46-1.75-2.2-2.61a15,15,0,0,1-2-2.54A.16.16,0,0,1,179.05,118.29Z" style="fill:#263238"></path><path d="M172.2,125.13a8.46,8.46,0,0,1,1.85,2.22c.61.84,1.22,1.68,1.84,2.51,1.24,1.67,2.47,3.33,3.76,5a.08.08,0,1,1-.12.1c-1.32-1.64-2.66-3.26-4-4.92-.64-.81-1.28-1.63-1.91-2.45a7.87,7.87,0,0,1-1.54-2.37S172.16,125.1,172.2,125.13Z" style="fill:#263238"></path></g></svg>