<svg xmlns="http://www.w3.org/2000/svg" viewBox="0 0 500 500"><g id="freepik--background-complete--inject-135"><path d="M82.59,327.06l-13.12.27-6.66.12c-2.23,0-4.47,0-6.7.05h-.44v-.44l-.06-11.19v-.51h.5l13.24.06c4.42,0,8.83.11,13.24.16h.28v.27c0,1.89-.09,3.78-.13,5.65Zm0,0-.14-5.66c0-1.86-.11-3.7-.13-5.53l.27.27c-4.41.05-8.82.16-13.24.16l-13.24.07.5-.5,0,11.19-.45-.45c2.18,0,4.36,0,6.55.05l6.58.12Z" style="fill:#ebebeb"></path><path d="M67.82,341.17l-13.12.27-6.66.12c-2.23,0-4.47,0-6.7.05H40.9v-.44L40.84,330v-.51h.5l13.24.06c4.41,0,8.83.11,13.24.16h.28V330c0,1.89-.08,3.78-.13,5.65Zm0,0-.14-5.66c-.05-1.86-.11-3.7-.13-5.53l.27.27c-4.41.05-8.83.16-13.24.16l-13.24.06.5-.49-.05,11.19-.45-.45c2.18,0,4.36,0,6.55,0l6.58.12Z" style="fill:#ebebeb"></path><path d="M406.5,202.49l-13.12.28-6.66.11c-2.23.05-4.47,0-6.7.06h-.44v-.45l-.06-11.19v-.5h.5l13.24.07c4.42,0,8.83.11,13.24.16h.28v.27c0,1.9-.09,3.79-.14,5.66Zm0,0-.14-5.65c0-1.86-.11-3.71-.13-5.54l.27.28c-4.41,0-8.82.15-13.24.16L380,191.8l.5-.5,0,11.19-.45-.44c2.18,0,4.36,0,6.55,0l6.58.11Z" style="fill:#ebebeb"></path><path d="M391.73,216.6l-13.12.28L372,217c-2.23,0-4.47,0-6.7.06h-.44v-.45l-.05-11.19v-.5h.5l13.24.07c4.41,0,8.83.11,13.24.16H392v.27c0,1.9-.08,3.79-.13,5.66Zm0,0-.14-5.65c0-1.86-.11-3.71-.13-5.54l.27.28c-4.41.05-8.83.15-13.24.16l-13.24.06.5-.5-.05,11.19-.45-.44c2.18,0,4.36,0,6.55.05l6.58.11Z" style="fill:#ebebeb"></path><path d="M377,202.49l-13.13.28-6.66.11c-2.22.05-4.46,0-6.69.06h-.45v-.45l0-11.19v-.5h.51l13.24.07c4.41,0,8.82.11,13.24.16h.27v.27c0,1.9-.09,3.79-.13,5.66Zm0,0-.14-5.65c-.05-1.86-.12-3.71-.14-5.54l.28.28c-4.42,0-8.83.15-13.24.16l-13.24.06.5-.5L351,202.49l-.44-.44c2.18,0,4.35,0,6.54,0l6.58.11Z" style="fill:#ebebeb"></path><path d="M458.66,341.17l-13.13.27-6.66.12c-2.22,0-4.46,0-6.69.05h-.45v-.44L431.68,330v-.51h.5l13.24.06c4.41,0,8.83.11,13.24.16h.27V330c0,1.89-.08,3.78-.13,5.65Zm0,0-.14-5.66c0-1.86-.12-3.7-.13-5.53l.27.27c-4.41.05-8.83.16-13.24.16l-13.24.06.5-.49-.06,11.19-.44-.45c2.18,0,4.36,0,6.54,0l6.58.12Z" style="fill:#ebebeb"></path><path d="M443.89,67.49l-13.13.27-6.66.12c-2.22,0-4.46,0-6.69.05H417v-.45l0-11.19v-.51h.51l13.24.06c4.41,0,8.82.11,13.24.16h.27v.27c0,1.9-.09,3.78-.13,5.65Zm0,0-.14-5.66c-.05-1.86-.12-3.7-.14-5.53l.28.27c-4.42,0-8.83.16-13.24.16l-13.24.07.5-.5-.06,11.19-.44-.45c2.18,0,4.35,0,6.54.06l6.58.11Z" style="fill:#ebebeb"></path><path d="M458.66,81.6l-13.13.27-6.66.12c-2.22,0-4.46,0-6.69.05h-.45V81.6l-.05-11.19V69.9h.5l13.24.06c4.41,0,8.83.11,13.24.16h.27v.27c0,1.89-.08,3.78-.13,5.65Zm0,0-.14-5.66c0-1.86-.12-3.7-.13-5.53l.27.27c-4.41,0-8.83.16-13.24.16l-13.24.07.5-.5-.06,11.19-.44-.45c2.18,0,4.36,0,6.54.06l6.58.11Z" style="fill:#ebebeb"></path><path d="M82.59,67.49l-13.12.27-6.66.12c-2.23,0-4.47,0-6.7.05h-.44v-.45L55.61,56.3v-.51h.5l13.24.06c4.42,0,8.83.11,13.24.16h.28v.27c0,1.9-.09,3.78-.13,5.65Zm0,0-.14-5.66c0-1.86-.11-3.7-.13-5.53l.27.27c-4.41,0-8.82.16-13.24.16l-13.24.07.5-.5,0,11.19L56.11,67c2.18,0,4.36,0,6.55.06l6.58.11Z" style="fill:#ebebeb"></path><path d="M89.39,328a45,45,0,0,1-.88,17.33A46.87,46.87,0,0,1,85.86,353c-1.38,3.17-2.82,6.26-2.47,9.73.33.22-.82.19-.85-.15-9.27-5.28-21.16-6.24-28.29-14.87-3.38-4.09-5.08-9.27-5.89-14.45-.88-5.64-1.12-11.88.33-17.44,1.23-4.7,4-9.23,8.39-11.54,4.56-2.37,10.54-2.17,15.34-.68C82.78,306.83,87.93,318,89.39,328Z" style="fill:#dbdbdb"></path><path d="M94.15,396.63c-1.27-4.21-2.53-8.43-3.83-12.63-2.54-8.24-5.19-16.45-8.11-24.56q-2.62-7.29-5.55-14.43a85,85,0,0,1,1.11-9c.77-3.6,1.9-7.07,3-10.58.06-.22-.29-.33-.38-.13-2.08,4.85-4.8,11.05-4.86,16.78-2.27-5.39-4.68-10.71-7.29-15.94a68.69,68.69,0,0,1,.41-13.28c0-.2-.28-.26-.31-.06a46.81,46.81,0,0,0-.91,11.72q-3-5.9-6.32-11.65c-.21-.34-.68,0-.51.35C64,320,67.27,326.82,70.3,333.75a44.57,44.57,0,0,0-14.53-8.41c-.23-.08-.41.25-.17.35A53,53,0,0,1,71.32,336.1q3.27,7.62,6.23,15.36C71.75,345.77,63.81,342,56.13,340c-.26-.07-.33.33-.07.41,8.88,2.67,15.78,7.71,22.54,13.76.78,2.08,1.55,4.18,2.31,6.27q4.29,11.91,8.17,24Q91,390.22,92.76,396c1.3,4.16,2.31,8.55,4,12.56.16.39.85.3.76-.16A121.52,121.52,0,0,0,94.15,396.63Z" style="fill:#a6a6a6"></path><path d="M78.77,319.91a23,23,0,0,0-3.33,8.32.07.07,0,0,0,.13,0,71.55,71.55,0,0,1,3.62-8.16C79.33,319.84,78.93,319.67,78.77,319.91Z" style="fill:#a6a6a6"></path><path d="M62.24,339.22a24.52,24.52,0,0,0-8.32-2.8c-.07,0-.12.1,0,.13,1.33.56,2.74.95,4.09,1.47s2.69,1.15,4.06,1.63A.24.24,0,0,0,62.24,339.22Z" style="fill:#a6a6a6"></path><path d="M57.58,316a16.42,16.42,0,0,0-2.67-1.65.14.14,0,0,0-.16.23,15.9,15.9,0,0,0,2.64,1.71C57.56,316.39,57.75,316.1,57.58,316Z" style="fill:#a6a6a6"></path><path d="M120.64,359.5c-6.68,2-13.39,3.82-20.06,5.77-.58.18-11.87-21.45-7.79-32.59,3.77-10.31,12.4-18,22.69-21.52,4.77-1.62,10.63-3,15.66-1.87,4.48,1,7.64,4.65,9.1,8.86,2,5.72,1.32,12.55.24,18.39a32,32,0,0,1-6.57,15C130.37,355.77,125.84,358,120.64,359.5Z" style="fill:#dbdbdb"></path><path d="M130.32,339a88.72,88.72,0,0,1-13.09,5.15,55.47,55.47,0,0,0-8.74,3.17c2.82-6.29,5.91-12.44,9.2-18.54,4.31-1.25,8.84-3.19,12.1-6.25.17-.16,0-.41-.25-.28-3.55,2.52-7.48,4-11.41,5.73.89-1.64,1.78-3.28,2.7-4.92.25-.45-.38-.91-.68-.46a141.18,141.18,0,0,0-9.49,15.93,72.65,72.65,0,0,1-.68-14.6.1.1,0,0,0-.2,0,48.73,48.73,0,0,0,.17,16q-3.51,7-6.39,14.31c-.77-2.91-1.75-5.78-2.41-8.71a39.72,39.72,0,0,1-1-12.85.1.1,0,0,0-.2,0,45.41,45.41,0,0,0,2.8,23.59c-1.11,2.92-2.18,5.85-3.15,8.78a174.67,174.67,0,0,0-8.86,46.32.28.28,0,0,0,.56,0,230.16,230.16,0,0,1,10-45.77c1.94-5.82,4.16-11.47,6.61-17,3.94-1.16,7.87-2.74,11.74-4.09a36.86,36.86,0,0,0,10.83-5.3A.14.14,0,0,0,130.32,339Z" style="fill:#a6a6a6"></path><path d="M136.54,332.67c-4.08,1.45-7.95,3.48-12,5-.19.07-.08.37.11.33,4.32-.89,8.6-2.23,12.08-5.06C136.83,332.79,136.68,332.62,136.54,332.67Z" style="fill:#a6a6a6"></path><path d="M103.2,323.86c0-.21-.26-.34-.33-.12-1.12,3.77-1.89,7.76-.8,11.61a.15.15,0,0,0,.29,0C102.55,331.45,102.34,327.68,103.2,323.86Z" style="fill:#a6a6a6"></path><path d="M120.07,315.17a10,10,0,0,0-1.77,6.4c0,.14.24.22.28.05.49-2.15,1.33-4.11,2-6.2A.28.28,0,0,0,120.07,315.17Z" style="fill:#a6a6a6"></path><path d="M41.23,369c2,6.21,6.61,14.8,14,14.87,4.77,0,9.58-.52,14.36-.59,5.13-.08,10.26-.07,15.38.24.42,0-.62-15.35-12.93-22.83-3.45-2.1-7.67-2.76-11.59-3.61a53.47,53.47,0,0,0-13.69-1.43c-2.82.11-5.18.71-6.18,3.61S40.3,366.09,41.23,369Z" style="fill:#dbdbdb"></path><path d="M46.53,361.27c3,.77,6,1.65,9,2.61a31.6,31.6,0,0,0-2.48-2.43c-1.29-1.07-2.71-1.92-4.1-2.86-.11-.08,0-.3.11-.25a16.94,16.94,0,0,1,7.26,5.78c3.74,1.21,7.45,2.54,11,4a41.52,41.52,0,0,1,7.06,3.72,28.39,28.39,0,0,0-2.56-4.45c-1.63-2.12-3.84-3.3-6-4.8a.19.19,0,0,1,.19-.33,17.57,17.57,0,0,1,9.61,10.42,41.15,41.15,0,0,1,7,6.34c8.15,9.26,14.57,21.57,14.59,34.14,0,.3-.48.38-.54.07a69.63,69.63,0,0,0-15.54-33.38c-.58-.68-1.18-1.33-1.79-1.95a54,54,0,0,0-6.73-.5c-2.62,0-5.22.38-7.84.59-4.29.35-9.05.4-12.93-1.76-.17-.09-.05-.39.14-.32,8.64,3.14,17.71-.85,26.38,1a40.39,40.39,0,0,0-12.78-8.24l-.8-.32c-5.55.66-11.4,2.11-16.81.31a.13.13,0,0,1,.07-.26c5.23,1.3,10.23-.34,15.39-.6-5.62-2.18-11.33-3.92-17-6.09C46,361.57,46,361.14,46.53,361.27Z" style="fill:#a6a6a6"></path><path d="M44.09,366.73a72.67,72.67,0,0,0,8.07.61c.06,0,.08.1,0,.12a16.94,16.94,0,0,1-8.15-.52A.11.11,0,0,1,44.09,366.73Z" style="fill:#a6a6a6"></path><path d="M62.33,361.4a13.22,13.22,0,0,1,4,2.78c.15.13,0,.38-.2.27-.68-.5-1.37-1-2.08-1.42a18.8,18.8,0,0,1-2-1.23C61.91,361.65,62.11,361.33,62.33,361.4Z" style="fill:#a6a6a6"></path><path d="M105.82,381.4c-.09.21.2.4.31.18h0a.3.3,0,0,0,.19.13,124.17,124.17,0,0,0,15,2.62c4.08.36,8.77.59,12.33-1.78,4.84-3.2,8-11.76,5.4-17.2-3.09-6.46-12.4-2.95-17.07-.66A34.32,34.32,0,0,0,105.82,381.4Z" style="fill:#dbdbdb"></path><path d="M102.2,384.39a48.42,48.42,0,0,1,9-6.84,30.69,30.69,0,0,1,9.11-9.29c.18-.12.33.16.16.29a41.25,41.25,0,0,0-7.67,8.07,84.89,84.89,0,0,1,11.27-5.12,15,15,0,0,1,6.05-6.07s.12,0,.07.08a24.8,24.8,0,0,0-5.47,5.74c2.29-.85,4.6-1.65,6.91-2.42.21-.07.29.25.09.33-4.11,1.61-8.32,3.3-12.4,5.26a47.6,47.6,0,0,0,15-.05c.14,0,.2.18.06.22a29.52,29.52,0,0,1-15.93.23,74.34,74.34,0,0,0-7.56,4.24,18.68,18.68,0,0,1,6.11.5,46.16,46.16,0,0,0,10.73,1.21.13.13,0,0,1,0,.25c-6.22,1.07-12.11-1.76-18.28-1a47.68,47.68,0,0,0-6.43,5.25,48.5,48.5,0,0,0-9.38,13.23c-2.59,5.29-4,10.89-6.1,16.36a.2.2,0,0,1-.39-.11C89,404,94.36,392.07,102.2,384.39Z" style="fill:#a6a6a6"></path><path d="M121,369.62a6.91,6.91,0,0,1,1.59-1.94,6.35,6.35,0,0,1,1.84-1.38c.06,0,.1.07.06.11-.51.58-1.22,1-1.77,1.56s-1,1.21-1.58,1.76A.09.09,0,0,1,121,369.62Z" style="fill:#a6a6a6"></path><path d="M131.26,373c.92-.23,1.9-.22,2.84-.41a26.31,26.31,0,0,0,2.75-.82.11.11,0,0,1,.08.2,9.09,9.09,0,0,1-5.67,1.32A.15.15,0,0,1,131.26,373Z" style="fill:#a6a6a6"></path><polygon points="76.55 401.44 77.36 410.73 80.14 442.07 104.68 442.07 108.15 410.73 109.17 401.44 76.55 401.44" style="fill:#c7c7c7"></polygon><polygon points="76.55 401.44 77.36 410.73 108.15 410.73 109.17 401.44 76.55 401.44" style="fill:#a6a6a6"></polygon><rect x="74.12" y="398.91" width="37.49" height="7.53" transform="translate(185.72 805.36) rotate(180)" style="fill:#c7c7c7"></rect><rect x="313.56" y="40.66" width="59.49" height="59.49" style="fill:#dbdbdb"></rect><rect x="50.25" y="136.78" width="48.49" height="61.95" style="fill:#dbdbdb"></rect></g><g id="freepik--Shadow--inject-135"><ellipse cx="256.62" cy="457.9" rx="210.42" ry="15.63" style="fill:#ebebeb"></ellipse></g><g id="freepik--Floor--inject-135"><polygon points="41.49 442.17 93.62 441.93 145.75 441.84 250 441.67 354.25 441.84 406.38 441.93 458.51 442.17 406.38 442.42 354.25 442.51 250 442.67 145.75 442.5 93.62 442.42 41.49 442.17" style="fill:#263238"></polygon></g><g id="freepik--Device--inject-135"><path d="M287.7,59.32H118.64a17.26,17.26,0,0,0-17.1,17.42v348a17.27,17.27,0,0,0,17.1,17.42H287.7a17.29,17.29,0,0,0,17.12-17.42v-348A17.28,17.28,0,0,0,287.7,59.32ZM294.12,414c0,9.16-6.86,16.57-15.32,16.57H127.56c-8.48,0-15.34-7.41-15.34-16.57V89.93c0-18.66,6.86-19.57,15.34-19.57h30.3c1.76,0,3.2,2,3.2,4.48v1.07c0,5.81,3.18,5.83,7.08,5.83H238.2c3.94,0,7.1,0,7.1-5.83V74.84c0-2.48,1.42-4.48,3.21-4.48H278.8c8.46,0,15.32,2.48,15.32,19.57Z" style="fill:#263238"></path><path d="M294.12,89.93V414c0,9.16-6.86,16.57-15.32,16.57H127.56c-8.48,0-15.34-7.41-15.34-16.57V89.93c0-18.66,6.86-19.57,15.34-19.57h30.3c1.76,0,3.2,2,3.2,4.48v1.07c0,5.81,3.18,5.83,7.08,5.83H238.2c3.94,0,7.1,0,7.1-5.83V74.84c0-2.48,1.42-4.48,3.21-4.48H278.8C287.26,70.36,294.12,72.84,294.12,89.93Z" style="fill:#fff"></path><g id="freepik--u5Zjqx--inject-135"><path d="M152.63,77.64l-.29.29-.17.17a4,4,0,0,0-5.64,0l-.16-.16a4,4,0,0,0-.29-.29h0c.13-.11.25-.23.38-.33a4.26,4.26,0,0,1,.85-.55,4.5,4.5,0,0,1,1.14-.38l.56-.07h.5l.39,0a4.26,4.26,0,0,1,1,.25,4.94,4.94,0,0,1,.7.33,3.85,3.85,0,0,1,.67.47l.31.27Z" style="fill:#dbdbdb"></path><path d="M147.46,79c-.16-.15-.31-.31-.46-.46a3.21,3.21,0,0,1,1.88-1,3.34,3.34,0,0,1,2.83.94l-.47.47a2.66,2.66,0,0,0-3.78,0Z" style="fill:#dbdbdb"></path><path d="M150.78,79.48l-.46.46a1.38,1.38,0,0,0-1.94,0l-.46-.46A2,2,0,0,1,150.78,79.48Z" style="fill:#dbdbdb"></path><path d="M149.77,80.36a.41.41,0,0,1-.42.41.41.41,0,0,1-.41-.41.41.41,0,0,1,.41-.42A.42.42,0,0,1,149.77,80.36Z" style="fill:#dbdbdb"></path></g><path d="M124.09,78.53a1.21,1.21,0,1,1,1.2,1.2A1.21,1.21,0,0,1,124.09,78.53Z" style="fill:#dbdbdb"></path><path d="M127.88,78.53a1.21,1.21,0,1,1,1.21,1.2A1.21,1.21,0,0,1,127.88,78.53Z" style="fill:#dbdbdb"></path><path d="M131.68,78.53a1.21,1.21,0,1,1,1.21,1.2A1.21,1.21,0,0,1,131.68,78.53Z" style="fill:#dbdbdb"></path><path d="M135.48,78.53a1.21,1.21,0,1,1,1.2,1.2A1.21,1.21,0,0,1,135.48,78.53Z" style="fill:#dbdbdb"></path><path d="M139.28,78.53a1.21,1.21,0,1,1,1.2,1.2A1.21,1.21,0,0,1,139.28,78.53Z" style="fill:#dbdbdb"></path><path d="M280.48,81.16h-9.81V76.61h9.81Zm-9.31-.5H280V77.11h-8.81Z" style="fill:#dbdbdb"></path><rect x="271.48" y="77.38" width="6.33" height="3" style="fill:#dbdbdb"></rect><rect x="280.49" y="77.67" width="0.87" height="2.43" style="fill:#dbdbdb"></rect><path d="M212.73,74.49H193.62a1.18,1.18,0,0,1-1.18-1.18h0a1.18,1.18,0,0,1,1.18-1.18h19.11a1.17,1.17,0,0,1,1.18,1.18h0A1.18,1.18,0,0,1,212.73,74.49Z" style="fill:#fff"></path><g id="freepik--aiZGp2--inject-135"><path d="M170.32,235.43A79,79,0,0,0,165,259.86H143.34v-.6c.06-.56.12-1.11.17-1.66a58.64,58.64,0,0,1,1.43-8.53,65.92,65.92,0,0,1,4.81-13.33.49.49,0,0,1,.52-.31h20Z" style="fill:#455a64"></path><path d="M169.66,290H149.79a.47.47,0,0,1-.49-.32,62.31,62.31,0,0,1-5.91-22.64,1.11,1.11,0,0,0,0-.25v-.6a3.16,3.16,0,0,1,.32,0H164.6c.39,0,.37,0,.39.39.14,1.74.25,3.48.42,5.21a66.54,66.54,0,0,0,1.33,8.19,73.16,73.16,0,0,0,2.83,9.73C169.6,289.78,169.62,289.87,169.66,290Z" style="fill:#455a64"></path><path d="M253.27,296.3l-.17.29a59.53,59.53,0,0,1-5.64,7.31,55.58,55.58,0,0,1-8.25,7.61,59.58,59.58,0,0,1-19.35,9.69,62.85,62.85,0,0,1-8.28,1.77c-.27,0-.54.09-.81.13h-.48l-.46-.29.53-.38A63.57,63.57,0,0,0,226,307.23a71.27,71.27,0,0,0,6.41-10.63.46.46,0,0,1,.49-.31h20.34Z" style="fill:#455a64"></path><path d="M233.38,259.84H205.46V235.45l.32,0h21.48a.38.38,0,0,1,.43.29A67.29,67.29,0,0,1,232.14,250a72.19,72.19,0,0,1,1.07,7.75C233.26,258.44,233.32,259.13,233.38,259.84Z" style="fill:#455a64"></path><path d="M233.21,266.35c0,.58,0,1.16-.08,1.73-.12,1.36-.22,2.72-.41,4.07-.26,1.87-.55,3.74-.92,5.59a66.23,66.23,0,0,1-3.62,11.91.46.46,0,0,1-.51.36H205.29V266.35Z" style="fill:#455a64"></path><path d="M199.16,235.59V260H171.89c0-.62.06-1.22.13-1.82.13-1.37.25-2.74.46-4.1.34-2.07.69-4.14,1.14-6.19a63.18,63.18,0,0,1,3.94-12,.42.42,0,0,1,.46-.3h21.14Z" style="fill:#455a64"></path><path d="M199.19,266.68q0,11.49,0,23V290H177.4a.44.44,0,0,1-.48-.32,61.79,61.79,0,0,1-3.71-12.32c-.41-2.17-.72-4.36-1-6.55-.18-1.43-.22-2.88-.32-4.32,0,0,0-.08,0-.15l.32,0h26.62C199.13,266.33,199.19,266.41,199.19,266.68Z" style="fill:#455a64"></path><path d="M263,260H240.11a79.8,79.8,0,0,0-5.33-24.59H256.1a.48.48,0,0,1,.5.29,60.17,60.17,0,0,1,5.28,15.3A67.12,67.12,0,0,1,263,259.6C263,259.73,263,259.86,263,260Z" style="fill:#455a64"></path><path d="M263,266.17c0,.55,0,1.08-.08,1.6a60.56,60.56,0,0,1-.75,6.16A59.37,59.37,0,0,1,258,287.67c-.31.71-.65,1.41-1,2.12a.33.33,0,0,1-.34.22h-21l-.22,0c.25-.73.5-1.44.75-2.15A73.92,73.92,0,0,0,239,276.69a72.52,72.52,0,0,0,1-8.3c0-.66.08-1.32.11-2,0-.18.06-.27.24-.25H263Z" style="fill:#455a64"></path><path d="M252.64,229.2a1,1,0,0,1,0,.1H232.29a.47.47,0,0,1-.48-.28,68.81,68.81,0,0,0-9.93-14.72,55.85,55.85,0,0,0-7.63-7c-1.36-1.05-2.78-2-4.17-3l-.23-.18.27-.19c0-.12-.07-.25-.13-.43a59.09,59.09,0,0,1,20.24,6.07A58.5,58.5,0,0,1,252.64,229.2Z" style="fill:#455a64"></path><path d="M195.29,322.83a2.49,2.49,0,0,1-.58.09,53.4,53.4,0,0,1-6.53-1.27,58.45,58.45,0,0,1-11.61-4.3,59.58,59.58,0,0,1-11.84-7.77,56.34,56.34,0,0,1-7.12-7.12,60,60,0,0,1-4.44-6.15,1.79,1.79,0,0,1-.09-.19h19a.46.46,0,0,1,.47.3,71.66,71.66,0,0,0,6.85,11.16,70.47,70.47,0,0,0,8,8.89,62.27,62.27,0,0,0,7.72,6.21Z" style="fill:#455a64"></path><path d="M195,204c-.85.62-1.86,1.32-2.83,2.07a70.29,70.29,0,0,0-9,8.4A63.52,63.52,0,0,0,173.71,228c-.16.31-.3.63-.48.92a.41.41,0,0,1-.29.19c-.34,0-.68,0-1,0H153.71c10.15-14.33,23.77-22.94,41.12-25.57l-.12.23Z" style="fill:#455a64"></path><path d="M225.05,296.32a65.42,65.42,0,0,1-9.22,12.47,58.28,58.28,0,0,1-10.54,8.94V296.32Z" style="fill:#455a64"></path><path d="M199.15,296.32v21a60.69,60.69,0,0,1-19-21Z" style="fill:#455a64"></path><path d="M224.43,229.11h-19v-20A57.25,57.25,0,0,1,216.1,218,67.11,67.11,0,0,1,224.43,229.11Z" style="fill:#455a64"></path><path d="M199.16,209.73v19.55H181A57.65,57.65,0,0,1,199.16,209.73Z" style="fill:#455a64"></path></g><path d="M203.17,333.55h-1.48l0-1c1,0,2,0,3,0l0,1Zm-4.5-.14c-1-.06-2-.15-3-.25l.11-1c1,.11,2,.19,3,.26Zm9.07,0-.06-1c1-.06,2-.15,3-.25l.1,1C209.76,333.26,208.75,333.34,207.74,333.41Zm-15.08-.64c-1-.15-2-.32-3-.51l.19-1q1.47.29,2.94.51Zm21.09,0-.15-1q1.49-.22,2.94-.51l.19,1C215.75,332.44,214.75,332.61,213.75,332.76Zm-27-1.14c-1-.24-2-.49-2.93-.77l.28-1c.95.27,1.91.53,2.88.76Zm33,0-.24-1c1-.23,1.93-.49,2.88-.76l.28,1C221.64,331.11,220.67,331.37,219.69,331.6ZM180.91,330c-1-.32-1.91-.66-2.85-1l.36-.93c.93.36,1.86.69,2.81,1Zm44.59,0-.32-.94c.94-.32,1.88-.66,2.81-1l.35.93C227.4,329.27,226.46,329.61,225.5,329.93Zm-50.25-2.14c-.93-.4-1.84-.82-2.75-1.26l.44-.9c.89.43,1.79.85,2.71,1.24Zm55.89,0-.4-.91c.91-.4,1.81-.81,2.7-1.25l.44.9C233,327,232.06,327.37,231.14,327.77Zm-61.34-2.63c-.88-.48-1.76-1-2.63-1.49l.51-.86c.86.51,1.72,1,2.6,1.47Zm66.76,0-.47-.88q1.31-.71,2.58-1.47l.52.86C238.32,324.15,237.45,324.65,236.56,325.13ZM164.61,322c-.85-.56-1.68-1.13-2.5-1.72l.59-.81c.8.58,1.62,1.15,2.46,1.69Zm77.14,0-.55-.84c.83-.55,1.64-1.11,2.45-1.69l.58.81C243.42,320.91,242.59,321.48,241.75,322Zm4.9-3.54-.62-.78c.78-.62,1.54-1.25,2.3-1.9l.65.76C248.22,317.24,247.44,317.88,246.65,318.5Zm-87,0c-.79-.62-1.57-1.27-2.34-1.92l.65-.76q1.14,1,2.31,1.89Zm91.53-3.94-.69-.73c.73-.68,1.44-1.37,2.13-2.08l.72.7C252.68,313.17,252,313.87,251.23,314.56Zm-96.12,0c-.73-.69-1.45-1.4-2.16-2.12l.72-.7c.69.71,1.4,1.41,2.13,2.09Zm100.35-4.32-.74-.67c.66-.74,1.31-1.49,1.94-2.26l.77.64C256.79,308.73,256.13,309.49,255.46,310.24Zm-104.58,0c-.67-.75-1.33-1.52-2-2.29l.77-.64c.63.77,1.28,1.52,1.95,2.26Zm108.43-4.67-.8-.6c.6-.79,1.18-1.6,1.75-2.42l.82.57C260.5,304,259.92,304.77,259.31,305.57Zm-112.27,0c-.61-.8-1.2-1.62-1.77-2.45l.82-.56c.57.81,1.15,1.62,1.75,2.41Zm-3.43-5c-.54-.85-1.05-1.72-1.55-2.59l.87-.5c.49.87,1,1.72,1.52,2.56Zm119.13,0-.84-.53c.53-.84,1-1.7,1.53-2.56l.87.49C263.8,298.87,263.28,299.74,262.74,300.59Zm-122.12-5.24c-.46-.89-.9-1.79-1.32-2.71l.91-.42c.41.9.85,1.8,1.3,2.68Zm125.12,0-.89-.46c.45-.88.89-1.78,1.31-2.68l.9.41Q266.43,294,265.74,295.33ZM138.1,289.88c-.39-.94-.75-1.88-1.09-2.83l.94-.34c.34.94.7,1.87,1.07,2.79Zm130.17-.06-.92-.37c.37-.92.73-1.85,1.06-2.79l.95.33C269,288,268.65,288.89,268.27,289.82Zm-132.22-5.63q-.45-1.44-.84-2.91l1-.26c.25,1,.53,1.92.82,2.87Zm134.27-.07-1-.3c.29-.94.57-1.9.82-2.86l1,.25C270.89,282.19,270.61,283.16,270.32,284.12ZM134.5,278.34c-.21-1-.4-2-.58-3l1-.17c.17,1,.36,2,.57,2.93Zm137.35-.07-1-.21c.21-1,.4-1.95.57-2.93l1,.17C272.26,276.3,272.07,277.29,271.85,278.27Zm-138.38-5.89c-.13-1-.24-2-.32-3l1-.09c.09,1,.19,2,.32,3Zm139.41-.07-1-.13c.13-1,.23-2,.32-3l1,.08C273.12,270.31,273,271.32,272.88,272.31ZM133,266.36c0-1-.06-2-.07-3h1c0,1,0,2,.07,3Zm140.45-.07-1,0c0-1,.06-2,.06-3v-.14h1v.14C273.46,264.28,273.44,265.29,273.4,266.29Zm-139.46-5.94-1,0c0-1,.1-2,.18-3l1,.09C134.05,258.37,134,259.36,133.94,260.35Zm138.45-.2c0-1-.11-2-.19-3l1-.09c.09,1,.16,2,.2,3Zm-137.95-5.73-1-.13c.13-1,.28-2,.45-3l1,.17C134.72,252.44,134.57,253.43,134.44,254.42Zm137.44-.21q-.19-1.49-.45-2.94l1-.18c.17,1,.33,2,.46,3Zm-136.43-5.67-1-.21c.22-1,.45-2,.71-2.94l1,.25C135.89,246.6,135.66,247.57,135.45,248.54Zm135.4-.2c-.21-1-.45-1.94-.7-2.9l1-.25q.39,1.45.72,2.94ZM137,242.78l-1-.3q.45-1.46,1-2.88l.94.34C137.57,240.88,137.26,241.82,137,242.78Zm132.36-.2c-.3-1-.61-1.89-.95-2.83l.94-.33c.34.94.67,1.9,1,2.86ZM139,237.15l-.93-.38c.38-.94.78-1.86,1.2-2.78l.91.42C139.75,235.31,139.35,236.22,139,237.15ZM267.3,237c-.38-.92-.77-1.82-1.19-2.72l.91-.42q.63,1.36,1.2,2.76Zm-125.84-5.25-.88-.46c.46-.9.94-1.78,1.43-2.66l.87.49C142.39,230,141.92,230.83,141.46,231.72Zm123.34-.15c-.45-.88-.92-1.75-1.42-2.61l.87-.5c.5.88,1,1.76,1.44,2.66Zm-120.39-5-.84-.53c.53-.86,1.09-1.7,1.66-2.53l.82.57C145.49,224.85,144.94,225.69,144.41,226.53Zm117.44-.12c-.53-.84-1.07-1.67-1.64-2.49l.83-.57c.57.83,1.13,1.68,1.66,2.52Zm-114-4.79L147,221c.6-.8,1.23-1.59,1.87-2.37l.77.63C149,220,148.39,220.82,147.8,221.62Zm110.67-.11c-.6-.8-1.22-1.57-1.85-2.34l.77-.64c.64.78,1.27,1.57,1.88,2.37ZM151.58,217l-.74-.67c.67-.75,1.36-1.48,2.07-2.2l.71.69C152.93,215.54,152.25,216.27,151.58,217Zm103.09-.1c-.66-.73-1.34-1.46-2-2.17l.72-.7c.7.72,1.39,1.46,2.07,2.21Zm-98.92-4.16-.68-.73c.73-.69,1.48-1.37,2.24-2l.66.75C157.21,211.4,156.48,212.07,155.75,212.75Zm94.75-.09c-.73-.68-1.47-1.34-2.22-2l.65-.76c.77.66,1.52,1.33,2.25,2Zm-90.23-3.8-.62-.79c.79-.62,1.59-1.23,2.41-1.82l.58.81C161.84,207.64,161,208.24,160.27,208.86Zm85.71-.08c-.79-.62-1.58-1.22-2.39-1.8l.59-.81c.82.59,1.62,1.2,2.41,1.82Zm-80.89-3.41-.55-.83c.84-.56,1.69-1.09,2.56-1.61l.51.86C166.76,204.3,165.92,204.82,165.09,205.37Zm76-.08c-.83-.54-1.67-1.07-2.53-1.58l.52-.86c.86.52,1.72,1.05,2.56,1.61Zm-70.93-3-.48-.88c.89-.48,1.78-.94,2.69-1.38l.44.9C172,201.39,171.07,201.84,170.2,202.31Zm65.81-.07c-.88-.48-1.76-.93-2.66-1.36l.43-.9q1.36.66,2.7,1.38Zm-60.46-2.53-.4-.92c.92-.4,1.85-.78,2.79-1.15l.36.94C177.37,198.93,176.45,199.31,175.55,199.71Zm55.08-.08c-.91-.39-1.83-.77-2.76-1.12l.35-.94c.95.36,1.88.74,2.81,1.14Zm-49.53-2.06-.32-.95c1-.32,1.92-.62,2.89-.9l.28,1C183,197,182,197.25,181.1,197.57Zm44-.07c-.94-.31-1.89-.6-2.85-.88l.28-1c1,.28,1.93.58,2.89.89Zm-38.22-1.58-.24-1c1-.23,2-.45,3-.64l.19,1C188.76,195.47,187.79,195.68,186.83,195.92Zm32.49,0c-1-.23-1.94-.44-2.91-.63l.19-1c1,.19,2,.4,3,.64Zm-26.64-1.1-.15-1c1-.15,2-.28,3-.39l.11,1C194.64,194.49,193.65,194.62,192.68,194.77Zm20.79,0c-1-.15-2-.27-3-.38l.11-1c1,.1,2,.23,3,.38Zm-14.87-.61-.06-1c1-.07,2-.11,3-.13l0,1C200.58,194,199.59,194.06,198.6,194.13Zm8.94,0c-1-.06-2-.1-3-.12l0-1c1,0,2,.06,3,.13Z" style="fill:#FFC727"></path><polygon points="247.9 331.17 252.33 341.87 247.91 343.7 243.45 332.93 236.14 338.6 236.14 308.46 257.24 329.78 247.9 331.17" style="fill:#263238"></polygon><path d="M236.14,305.18a4.07,4.07,0,0,1-.27-1.52,4,4,0,0,1,.27-1.51,4,4,0,0,1,.27,1.51A4.07,4.07,0,0,1,236.14,305.18Z" style="fill:#263238"></path><path d="M233.53,306.26a4,4,0,0,1-1.26-.88,4.2,4.2,0,0,1-.88-1.26,3.81,3.81,0,0,1,1.26.88A4,4,0,0,1,233.53,306.26Z" style="fill:#263238"></path><path d="M232.45,308.87a4,4,0,0,1-1.51.27,4.07,4.07,0,0,1-1.52-.27,4.07,4.07,0,0,1,1.52-.27A4,4,0,0,1,232.45,308.87Z" style="fill:#263238"></path><path d="M233.53,311.48a4,4,0,0,1-.88,1.26,3.81,3.81,0,0,1-1.26.88,4.4,4.4,0,0,1,2.14-2.14Z" style="fill:#263238"></path><path d="M239.83,308.87a4.07,4.07,0,0,1,1.52-.27,4,4,0,0,1,1.51.27,4,4,0,0,1-1.51.27A4.07,4.07,0,0,1,239.83,308.87Z" style="fill:#263238"></path><path d="M238.75,306.26a4,4,0,0,1,.88-1.26,4,4,0,0,1,1.26-.88,4,4,0,0,1-.88,1.26A4,4,0,0,1,238.75,306.26Z" style="fill:#263238"></path><rect x="136.87" y="148.79" width="132.61" height="12.65" style="fill:#fff"></rect><path d="M269.61,161.57H136.74V148.66H269.61Z" style="fill:#fff"></path><path d="M270,161.94H136.36V148.28H270Zm-132.87-.75H269.23V149H137.11Z" style="fill:#dbdbdb"></path><rect x="256.69" y="148.65" width="12.92" height="12.92" style="fill:#455a64"></rect><path d="M267.16,158.66l-1.17.88-2.16-2.85-.79-1.05a1.87,1.87,0,0,0,.45-.26,2,2,0,0,0,.6-.78l.84,1.11Z" style="fill:#fff"></path><path d="M264.86,151.93a3.19,3.19,0,1,0-1,4.76,4.17,4.17,0,0,0,.44-.29,3.08,3.08,0,0,0,.66-.69A3.18,3.18,0,0,0,264.86,151.93Zm-1.37,3.45a1.87,1.87,0,0,1-.45.26,1.91,1.91,0,1,1,1-1A2,2,0,0,1,263.49,155.38Z" style="fill:#fff"></path><rect x="139.51" y="151.27" width="0.68" height="7.68" style="fill:#c7c7c7"></rect></g><g id="freepik--Character--inject-135"><rect x="363.81" y="235.36" width="70.16" height="14.53" style="fill:#c7c7c7"></rect><polygon points="382.64 249.77 380.67 268.34 356.42 442.17 349.48 442.17 368.62 268.34 370.18 249.77 382.64 249.77" style="fill:#c7c7c7"></polygon><polygon points="448.31 442.17 441.36 442.17 417.11 268.34 415.14 249.77 427.6 249.77 429.16 268.34 448.31 442.17" style="fill:#c7c7c7"></polygon><rect x="359.2" y="381.02" width="77.39" height="4.36" style="fill:#c7c7c7"></rect><polygon points="368.62 267.68 380.67 267.68 382.64 249.77 370.18 249.77 368.62 267.68" style="fill:#a6a6a6"></polygon><polygon points="429.16 267.68 417.11 267.68 415.14 249.77 427.6 249.77 429.16 267.68" style="fill:#a6a6a6"></polygon><path d="M327.26,403.14c2.46-.31,63.18-29.26,64.8-31.83.62-1-3.08-10.06-7.87-20.92-1-2.34-2.11-4.76-3.22-7.2-7.2-15.89-15.21-32.58-15.21-32.58l-40.67,19.25,16.32,32.05,3.58,7s-18.29,21.48-19.76,24.49S324.8,403.44,327.26,403.14Z" style="fill:#eb9481"></path><path d="M392.06,371.31c-1.62,2.57-62.34,31.52-64.8,31.83s-3.49-6.7-2-9.7c.84-1.73,7.22-9.53,12.5-15.87l.14,0c-8.33,10.7-13,21,49.33-20.22C390.41,364.9,392.54,370.56,392.06,371.31Z" style="fill:#263238"></path><path d="M354.19,274.61c.4,11.57,30.21,73.25,30.21,73.25L341.45,367s-35.24-68.37-32.31-94c2.5-21.72,57.14-61.89,65.92-73.21,1.3-1.68.85-8.44.85-8.44H411.4v8.44c-13.55,28.76-54.08,63.26-57.09,73.38a4.94,4.94,0,0,0-.12,1.42Z" style="fill:#37474f"></path><path d="M341.8,358.58c7-3.36,5-2.49,12.05-5.77,3.47-1.61,20.87-9.73,24.35-10.7a.08.08,0,0,1,.06.14c-3,2-20.59,9.73-24.08,11.27-7.14,3.16-5.12,2.18-12.3,5.26A.11.11,0,1,1,341.8,358.58Z" style="fill:#263238"></path><path d="M402.44,205.85a371.87,371.87,0,0,1-35.82,46.23c-3.21,3.52-6.52,6.93-9.83,10.35-2.81,2.89-5.66,6.1-6.36,10.21-.77,4.58,1,9.14,2.44,13.4,1.57,4.7,3.14,9.4,4.81,14.07,1.81,5,3.71,10,5.85,14.92,1.1,2.51,7.76,14.81,9,17.26.61,1.22,1.24,2.44,1.88,3.65.32.6,2.59,4.76,2.91,5.36.11.2.4.45.13-.06-.62-1.14-3.15-5.85-3.73-7-2.28-4.56-9.8-19.07-11.7-23.8s-3.67-9.65-5.35-14.53-3.39-9.65-4.81-14.55a20.47,20.47,0,0,1-1-7.76,13.93,13.93,0,0,1,2.92-6.91c2.87-3.84,6.62-7.1,9.89-10.6Q373.78,245.2,383,233.47a328.07,328.07,0,0,0,19.56-27.54C402.6,205.85,402.49,205.78,402.44,205.85Z" style="fill:#263238"></path><path d="M353.7,465.34c2.37.72,69.62-1,72.14-2.74,1-.64,1.27-10.44,1.32-22.31,0-2.56,0-5.21,0-7.89-.12-17.45-.65-35.95-.65-35.95l-45,1.06,1.89,35.92.4,7.88s-25.44,12.2-28,14.35S351.33,464.62,353.7,465.34Z" style="fill:#eb9481"></path><path d="M427.06,449.39c-.16,7.43-.52,12.74-1.22,13.21-2.52,1.69-69.77,3.46-72.14,2.74s-.47-7.54,2.08-9.68c1.32-1.1,8.67-4.86,15.51-8.24C359.57,453.53,352.86,460.38,427.06,449.39Z" style="fill:#263238"></path><path d="M379.42,440.55l51.36-.64s-13.36-192-8.51-197.77c11.57-13.83,9.72-32.27,1.94-50.79H384.46s1.9,28.12,1.72,28.93C374,273.59,379.42,440.55,379.42,440.55Z" style="fill:#37474f"></path><path d="M381.83,431.63c10.22-.76,42.15-1,45.54-.52.08,0,.08.14,0,.15-3.37.65-20.17,1-45.54.58A.11.11,0,0,1,381.83,431.63Z" style="fill:#263238"></path><path d="M383.54,202.27c.4,5,.2,13.63,3.11,13.76s2.4-10.38,2.48-12.79c.07-2.19.83-1.89.91.69.22,7,0,13.19-3.68,12.9s-3.69-11.15-3.6-13.63C382.8,201.93,383.42,200.69,383.54,202.27Z" style="fill:#263238"></path><path d="M386.46,216.36a22.09,22.09,0,0,1-.11,5.3c-.05.15-.61,0-.67-.08-.35-.73-.07-4.17-.17-5.1A.48.48,0,0,1,386.46,216.36Z" style="fill:#263238"></path><path d="M385.23,222.56c-1.24,4.4-2.51,12.82-2.22,15,0,.2.33.26.37.05.4-2.36,2.16-13.7,2.33-14.9S385.57,221.33,385.23,222.56Z" style="fill:#263238"></path><path d="M392.87,226a14.62,14.62,0,0,0-1.85-1.57c-.65-.51-1.31-1-2-1.49-1.38-1-2.81-1.86-4.26-2.72s-2.87-1.62-4.34-2.36-3.18-1.37-4.73-2.15c-.08,0-.16.09-.08.14,1.47.81,2.82,1.82,4.25,2.71s2.84,1.8,4.27,2.69,2.77,1.77,4.18,2.63c.73.45,1.47.88,2.22,1.32a18.73,18.73,0,0,0,2.1,1.17C392.86,226.49,393,226.18,392.87,226Z" style="fill:#263238"></path><path d="M421.89,395.55q-1-10.68-1.78-21.36-1.62-21.37-2.59-42.79t-1.29-42.84q-.15-10.72-.15-21.44c0-7.09-.05-16.55.32-23.63.19-3.6,6.53-6.38,7.82-16.86a38.52,38.52,0,0,0-3-21.92c0-.1-.17,0-.13.07a39.17,39.17,0,0,1,3.07,18.7,32,32,0,0,1-2,9.41c-1.71,4.22-5.9,7.66-6.12,9.9-.32,3.36-.37,6.26-.42,9.62q-.06,5.26-.09,10.51-.06,10.71.06,21.43.23,21.33,1.12,42.64t2.45,42.59c1,14.18,2.3,39.81,3.79,54,.17,1.62.36,3.23.6,4.85,0,.17.32.13.31-.05C423.44,421.23,422.54,402.65,421.89,395.55Z" style="fill:#263238"></path><path d="M369.6,151.56a.46.46,0,0,0,.37.48l1.86.13c1.68-4.36,3.48-7.82,3-6.47a22.24,22.24,0,0,0-1.17,6.58l3.68.18c1.46-7.66,3.32-13.35,3.2-11.59-.47,7.07-.05,9.35.44,11.78,8.9.42,20.57.84,29,1,1-4.24,1.83-8.83,2-8.5,1.15,2.39,1.47,5.87,1.49,8.54,2.69,0,4.84,0,6.14-.1,0,0,.63-3.56.72-4.73a24.51,24.51,0,0,0-.93-8.93,44.82,44.82,0,0,0-3.9-8.29l0-.06v0a25.62,25.62,0,0,1-2.25-5.53s0,0,0,0a24.18,24.18,0,0,1-.69-4.25c-.39-5.23-3.34-9.76-8.26-11.15-9.29-8.76-18.6-5.09-21.41,1.62-.27.66-.53,1.41-.79,2.22v0c-.95,3-1.8,7-2.59,10,0,0,0,0,0,0a0,0,0,0,1,0,0h0a28.36,28.36,0,0,1-1.1,3.51C376,133.42,370.59,136.52,369.6,151.56Z" style="fill:#263238"></path><path d="M406.37,112a9.91,9.91,0,0,1,5.71,8,25.58,25.58,0,0,0,1.29,6.5,22.58,22.58,0,0,0,3.72,5.73c2.28,2.83,3.87,5.64,4.22,9.39a28.85,28.85,0,0,1-1.11,11.86s0,0,0,0a30.62,30.62,0,0,0,.43-12.37c-.71-4.14-3.05-6.75-5.45-9.91a17.28,17.28,0,0,1-3.53-8.46c-.24-1.89-.21-3.85-1-5.63-.9-2.13-2.71-3.48-4.5-4.68A.22.22,0,0,1,406.37,112Z" style="fill:#263238"></path><path d="M372.9,133.81c2.27-3,4.65-5.49,6-9.17,1.22-3.35,1.92-6.9,3.16-10.25a0,0,0,1,1,.08,0c-1.91,6-2.28,12-6.13,17-2.09,2.72-4.18,5.24-5.55,8.5a28.9,28.9,0,0,0-2.17,10.76c0,.13-.17.12-.18,0A24,24,0,0,1,372.9,133.81Z" style="fill:#263238"></path><path d="M404.24,110.06c-1.3-.49-2.54-7.76,2.24-11.23s10.91.5,8.34,6.46C413.2,109.05,407,111.08,404.24,110.06Z" style="fill:#263238"></path><path d="M413.17,98.41a8,8,0,0,1,2.75,4.61,4.86,4.86,0,0,1-1.45,4.68,9.85,9.85,0,0,1-4.75,2.33,15.43,15.43,0,0,1-2.72.33,7.59,7.59,0,0,1-2.76-.3,6.66,6.66,0,0,0,2.74.81,12.08,12.08,0,0,0,2.88-.05,9.52,9.52,0,0,0,5.33-2.37,5.7,5.7,0,0,0,1.58-2.61,5.79,5.79,0,0,0-.06-3A7.17,7.17,0,0,0,413.17,98.41Z" style="fill:#263238"></path><path d="M394.56,158.52c-9.46,19.53-21.47,40.67-32.72,44-10.69,3.16-31.43-23.11-37.94-30-2.35-2.49,16.67-16.79,19.62-14.62,5.55,4.09,15.55,15.23,17.23,14.84S376.41,159,389,147.81C396.71,141,401.11,145,394.56,158.52Z" style="fill:#eb9481"></path><path d="M307.4,160.14c-2.6-1.09-22.63-1.73-22.62-6.07s25.48-3.13,25.48-3.13Z" style="fill:#eb9481"></path><path d="M345.8,160.64c-3.5-4.34-6.58-9-9.62-9.89-2.11-.6-24.78.38-28.32.16s-16.18.12-16.47,3.22c-.41,4.39,14.54,4.35,16.14,6.59,5.51,7.75,26.46,19.2,26.46,19.2Z" style="fill:#eb9481"></path><path d="M291.06,154.19a3.38,3.38,0,0,1,1.45-1.95c1.55-1.09,3.58-1.18,5.41-1.33a50,50,0,0,1,8.3-.06,0,0,0,0,1,0,.09c-2.07,0-4.14.06-6.21.23a25.8,25.8,0,0,0-5.61.86,4.61,4.61,0,0,0-2.17,1.3,1.8,1.8,0,0,0-.42,1.67c.6,1.91,4.37,2.48,6.11,2.87,2.28.51,4.64.95,6.93,1.42.1,0,0,.17-.05.15-2.38-.47-4.88-.65-7.26-1.08-1.93-.35-4-.74-5.56-2A2.19,2.19,0,0,1,291.06,154.19Z" style="fill:#263238"></path><path d="M348.32,159.12l-20.44,23.12s23.16,24.34,33.57,21.38,29.33-32,35.11-50.25c4-12.62-2.88-10.39-10-4s-25.67,22.16-26.51,22S348.32,159.12,348.32,159.12Z" style="fill:#FFC727"></path><path d="M396.56,153.38c-5.77,18.23-24.7,47.27-35.11,50.24-4.6,1.31-11.69-2.72-18.18-7.62,0,0,0,0,0,0,10.34-11.38,37.94-39,50.44-51.43C397.23,143.31,399.11,145.33,396.56,153.38Z" style="opacity:0.1"></path><path d="M334.87,185.75c3-3.19,14.62-16.7,16.94-19.79.16-.22.06-.37-.13-.17-9.12,9.36-14.19,16.56-16.93,19.84C334.68,185.71,334.79,185.83,334.87,185.75Z" style="fill:#263238"></path><path d="M429.92,197.37l-55.82.91,4.37-16.71A17.46,17.46,0,0,1,376,167c1.33-4.92,7.69-12.3,11.58-17,9.49-11.4,17.73-6.24,20.36-3.31C417.94,157.91,429.92,197.37,429.92,197.37Z" style="fill:#ebebeb"></path><path d="M403.59,143.5S398.12,158,396,161.36s-8.44,9.27-8.44,9.27-.72-8.58,0-13.48,4.9-11.88,4.9-11.88a10.13,10.13,0,0,0-2.95,2.31c-4.73,4.82-12.95,14.29-14.18,20.77a17.34,17.34,0,0,0,2.54,13.11l-6.29,20.08,8.81,2.73,4.34-5.14,4.48,5.71,44.65-6.23-7.42-14S415.79,157,411.58,151C406.75,144.06,403.59,143.5,403.59,143.5Z" style="fill:#FFC727"></path><path d="M393.41,180.59a47.84,47.84,0,0,0-7.18-.12c-1.19.08-2.37.22-3.55.38-.59.09-1.17.15-1.76.21a7.72,7.72,0,0,1-1.86,0,0,0,0,1,0,0,.08,13.16,13.16,0,0,0,1.74.29,12.2,12.2,0,0,0,1.71,0c1.2-.07,2.4-.2,3.61-.29,2.43-.17,4.86-.35,7.3-.35C393.51,180.78,393.52,180.59,393.41,180.59Z" style="fill:#263238"></path><path d="M398.83,183.72a51.89,51.89,0,0,0-5.77-1.34c-1-.16-1.95-.27-2.94-.35l-1.41-.1c-.52,0-1,0-1.57,0a0,0,0,0,0,0,.09c.49,0,1,.17,1.45.25l1.47.22c1,.16,1.94.32,2.92.46,1.95.29,3.89.6,5.84.95C398.91,183.9,398.93,183.75,398.83,183.72Z" style="fill:#263238"></path><path d="M402.43,146c-.23,1-5,7.46-9.54,7.24-1.49-.08-1.44-8.19-1.44-8.19l-.14-.6-1.86-8.38,9.86-6.31,1.43-.83s.36,2.32.77,5.23l.06.41c0,.17.06.32.08.47.07.44.13.88.19,1.32s.09.66.13,1l.12,1.06A54,54,0,0,1,402.43,146Z" style="fill:#eb9481"></path><path d="M401.51,134.2a17.21,17.21,0,0,1-10.2,10.29l-1.86-8.38,9.86-6.31,1.43-.83S401.1,131.29,401.51,134.2Z" style="fill:#263238"></path><path d="M377.91,120.43c-5,14.23,3,18.83,6,19.9,2.78,1,12.4,3.94,18.83-9.7s1.4-20.46-4.85-23S382.9,106.2,377.91,120.43Z" style="fill:#eb9481"></path><path d="M380.56,120a8.89,8.89,0,0,0,1,.06,1.67,1.67,0,0,0,1.08-.14.54.54,0,0,0,.17-.63,1.34,1.34,0,0,0-1.18-.65,2,2,0,0,0-1.37.35A.57.57,0,0,0,380.56,120Z" style="fill:#263238"></path><path d="M390.37,122.28a8,8,0,0,1-.92-.48c-.36-.19-.66-.3-.85-.66a.54.54,0,0,1,.17-.64,1.34,1.34,0,0,1,1.35,0,2,2,0,0,1,1,1A.58.58,0,0,1,390.37,122.28Z" style="fill:#263238"></path><path d="M387.46,124.49s.07.07.05.11c-.32,1-.53,2.14.26,2.74,0,0,0,.06,0,0C386.71,126.91,387,125.36,387.46,124.49Z" style="fill:#263238"></path><path d="M388.65,123.72c1.62.36.79,3.57-.71,3.24S387.29,123.43,388.65,123.72Z" style="fill:#263238"></path><path d="M389.24,124.06c.23.25.42.64.75.76s.76-.12,1.1-.38c0,0,.06,0,.05,0-.15.62-.55,1.19-1.23,1.11s-.92-.72-.91-1.38C389,124.1,389.14,124,389.24,124.06Z" style="fill:#263238"></path><path d="M382.06,122.59s-.09,0-.1.07c-.22,1-.63,2.12-1.62,2.23,0,0,0,0,0,0C381.48,125.06,382,123.58,382.06,122.59Z" style="fill:#263238"></path><path d="M381.43,121.33c-1.57-.52-2.5,2.66-1,3.15S382.75,121.77,381.43,121.33Z" style="fill:#263238"></path><path d="M380.7,121.35c-.3.09-.63.33-.94.26s-.51-.5-.64-.89c0,0-.05,0-.06,0-.19.6-.18,1.29.37,1.58s1.05-.15,1.37-.71C380.86,121.51,380.83,121.31,380.7,121.35Z" style="fill:#263238"></path><path d="M385.33,132.9c-.29.18-.59.46-1,.41a2.66,2.66,0,0,1-1-.48,0,0,0,0,0-.06,0,1.4,1.4,0,0,0,1.16.82,1.1,1.1,0,0,0,1-.73C385.45,132.91,385.38,132.87,385.33,132.9Z" style="fill:#263238"></path><path d="M382.16,128.2s-.61,1.42-.8,2.12c0,.06.15.14.38.22h0a3.46,3.46,0,0,0,3.56-.37.08.08,0,0,0-.08-.13,5.15,5.15,0,0,1-3.27,0c0-.2,1.12-2.4,1-2.44a6.12,6.12,0,0,0-1.68-.07c1.17-3,2.81-5.8,3.94-8.81a.1.1,0,0,0-.17-.1,52.54,52.54,0,0,0-4.65,9.31C380.26,128.38,381.84,128.24,382.16,128.2Z" style="fill:#263238"></path><path d="M381.88,130.3a4.21,4.21,0,0,0,1.17,1.75,1.8,1.8,0,0,0,1.06.43c.84.06,1.1-.65,1.17-1.31a4.58,4.58,0,0,0,0-1.06A5.37,5.37,0,0,1,381.88,130.3Z" style="fill:#263238"></path><path d="M383.05,132.05a1.8,1.8,0,0,0,1.06.43c.84.06,1.1-.65,1.17-1.31A2,2,0,0,0,383.05,132.05Z" style="fill:#ff9abb"></path><path d="M402.58,131.43a6.25,6.25,0,0,1-2.48-5.65,16.19,16.19,0,0,1-5.5-6.48c0,.32.33,2.67.52,3.86-9.09-3.57-10.62-11.34-10.62-11.34a16.62,16.62,0,0,0-5.26,5.19s1-5.79,4.76-9.1a9.5,9.5,0,0,1,9.34-2.19,13.55,13.55,0,0,1,12.24,6.5C410.42,120.06,402.58,131.43,402.58,131.43Z" style="fill:#263238"></path><path d="M388.26,120.23a17.88,17.88,0,0,0,4.49,2.7s0,0,0,0a15.06,15.06,0,0,1-6.12-5.51,14.13,14.13,0,0,1-1.49-3.23,9.83,9.83,0,0,1-.56-3.83.08.08,0,0,0-.15,0,11.37,11.37,0,0,0,0,3.86A10.33,10.33,0,0,0,386,117.7a12.23,12.23,0,0,0,2.29,2.53" style="fill:#263238"></path><path d="M400.16,129.57s4.35-3.74,6.13-2.07-2.31,7.66-5,7.94a2.55,2.55,0,0,1-3-2.17Z" style="fill:#eb9481"></path><path d="M405.08,129.19s0,.06,0,.07c-1.88.25-3.18,1.6-4.23,3.08a1.41,1.41,0,0,1,2.14.15s0,.1-.07.08a1.57,1.57,0,0,0-1.81.1,8.26,8.26,0,0,0-1.15,1.14c-.12.14-.37,0-.27-.18l0,0C400.22,131.41,402.69,128.81,405.08,129.19Z" style="fill:#263238"></path><path d="M411.23,150C423.94,172,443,222.31,446.39,229.51c2.34,4.89-23.22,17.77-24.31,14.22-1.39-4.56-19.13-63.21-20.28-89.38C401.26,142.22,407.16,143,411.23,150Z" style="fill:#eb9481"></path><path d="M432.47,254.92c-1.34-1.17-2-.47-1.38,2.65s5.55,15,1.27,16.35-11-15.44-11.62-20.71.33-14,.33-14C423.05,242.23,428.53,249.07,432.47,254.92Z" style="fill:#eb9481"></path><path d="M450.23,247.4l-30,12.72c-.92.3-1.4,1.09-1.08,1.76L424.93,274a1.87,1.87,0,0,0,2.25.69l30-12.72c.92-.3,1.4-1.09,1.08-1.77l-5.76-12.1A1.86,1.86,0,0,0,450.23,247.4Z" style="fill:#FFC727"></path><path d="M450.23,247.4l-30,12.72c-.92.3-1.4,1.09-1.08,1.76L424.93,274a1.87,1.87,0,0,0,2.25.69l30-12.72c.92-.3,1.4-1.09,1.08-1.77l-5.76-12.1A1.86,1.86,0,0,0,450.23,247.4Z" style="fill:#fff;opacity:0.8"></path><path d="M450.93,248.83l-30,12.72c-.92.29-1.4,1.08-1.08,1.76l5.76,12.11a1.87,1.87,0,0,0,2.25.68l30-12.72c.92-.29,1.4-1.08,1.08-1.76l-5.77-12.1A1.84,1.84,0,0,0,450.93,248.83Z" style="fill:#FFC727"></path><path d="M451.27,253c-.67.44-1.41.32-1.67-.26a1.63,1.63,0,0,1,.74-1.84c.67-.43,1.41-.32,1.67.26A1.63,1.63,0,0,1,451.27,253Z" style="fill:#263238"></path><path d="M444.69,227.21c6.53,8.8,12.31,19.16,12.44,30.61a5.63,5.63,0,0,1-1.08,3.54c.15,5.13-2.22,6.74-2.22,6.74-1.32,4.82-4,6.14-4,6.14s-.39,4.12-3.29,4.07-4.51-6.83-7.05-11.78c-5.83-11.33-16.43-24.21-18.44-27.31Z" style="fill:#eb9481"></path><path d="M442.6,252a81.59,81.59,0,0,1,4.54,10.21,83.19,83.19,0,0,1,2.6,12,.1.1,0,1,0,.19,0,43.26,43.26,0,0,0-7.18-22.24C442.65,251.74,442.52,251.8,442.6,252Z" style="fill:#263238"></path><path d="M448.93,247.46c1.43,3.36,3.89,9.3,4.77,20.65,0,0,.07.05.07,0a38.82,38.82,0,0,0-4.68-20.73C449,247.19,448.84,247.23,448.93,247.46Z" style="fill:#263238"></path><path d="M452.38,245.1c2.2,5.82,2.85,9.76,3.64,16.24,0,0,.07,0,.07,0-.12-7.46-1-10.15-3.52-16.35C452.49,244.78,452.3,244.87,452.38,245.1Z" style="fill:#263238"></path><path d="M447.89,228.36l-28,13.7S403.58,179,401.76,158.63s6-15.68,11.42-6.11C420.57,165.59,447.89,228.36,447.89,228.36Z" style="fill:#FFC727"></path><path d="M420.54,234.94c3.82-1.55,19.2-8.45,22.42-10.17.23-.12.2-.29,0-.2-11.55,4.37-18.77,8.51-22.43,10.22C420.39,234.83,420.44,235,420.54,234.94Z" style="fill:#263238"></path><path d="M410.09,201.92c-.42-3-.94-6-1.48-8.95s-1.12-5.94-1.72-8.91-1.25-5.91-1.95-8.86l-1.05-4.41c-.39-1.46-.74-2.93-1.15-4.39.2,1.5.46,3,.68,4.49l.79,4.46c.53,3,1.13,6,1.73,8.91s1.25,5.91,1.95,8.86S409.28,199,410.09,201.92Z" style="fill:#263238"></path><path d="M404.33,174.11a11.62,11.62,0,0,0-2.22-4.23,11.19,11.19,0,0,0,.9,2.23A11.34,11.34,0,0,0,404.33,174.11Z" style="fill:#263238"></path><path d="M403.83,143.84c.56,3.87,1.2,7.73,1.85,11.59l.2-.33c-2.27.6-4.53,1.25-6.8,1.87l-.38.11.16.37c.68,1.49,1.34,3,2,4.46l.09-.41c-2.39,2.09-4.83,4.14-7.2,6.27s-4.75,4.23-7.08,6.4c2.51-2,5-4,7.43-6s4.87-4.1,7.31-6.14l.2-.17-.11-.24c-.66-1.5-1.37-3-2.06-4.46l-.21.47c2.25-.66,4.52-1.3,6.76-2l.25-.08,0-.25C405.47,151.49,404.69,147.66,403.83,143.84Z" style="fill:#263238"></path><path d="M391.26,146.13c-1.27,1.31-2.15,2.24-3.37,3.59s-2.47,2.67-3.66,4L384,154l.32.2,2.36,1.47-.07-.53c-1,1-1.95,1.93-2.9,2.92l-.12.14,0,.17c.49,2.63.93,5.27,1.47,7.89s1,5.26,1.64,7.87c-.33-2.66-.72-5.31-1.13-8s-.86-5.28-1.29-7.92l-.1.3c1-1,1.93-2,2.89-2.94l.3-.31-.37-.22-2.38-1.42.08.48c1.19-1.37,2.33-2.79,3.49-4.19S390.13,147.56,391.26,146.13Z" style="fill:#263238"></path><path d="M386.71,174.17c-.34,1.28-.68,2.55-1,3.84s-.6,2.57-.88,3.86h0v0c-.09,2.87-.11,5.74-.16,8.61s0,5.74,0,8.61c.17-2.87.29-5.73.38-8.6s.17-5.74.2-8.61v0c.27-1.29.53-2.59.76-3.89S386.49,175.47,386.71,174.17Z" style="fill:#263238"></path><path d="M388.22,176.66a.93.93,0,0,1,1.11.93,1,1,0,0,1-.36.75.93.93,0,0,1-1.5-.75A.93.93,0,0,1,388.22,176.66Zm-.5,1.43a.6.6,0,0,0,.5.07.61.61,0,0,0,0-1.13.6.6,0,0,0-.5.07.62.62,0,0,0,0,1Z" style="fill:#263238"></path><path d="M387.1,185a1,1,0,0,1,.75.18,1,1,0,0,1,.36.75,1,1,0,0,1-.36.75,1,1,0,0,1-.75.18,1,1,0,0,1,0-1.86Zm-.5,1.43a.64.64,0,0,0,.5.07.62.62,0,0,0,0-1.14.61.61,0,0,0-.5.08.6.6,0,0,0-.25.49A.63.63,0,0,0,386.6,186.4Z" style="fill:#263238"></path><path d="M386.71,192.57a1,1,0,0,1,.75.18,1,1,0,0,1,.36.76,1,1,0,0,1-.36.75,1,1,0,0,1-.75.18.93.93,0,0,1-.75-.93A.94.94,0,0,1,386.71,192.57Zm-.5,1.43a.61.61,0,0,0,.5.08.6.6,0,0,0,.39-.57.58.58,0,0,0-.39-.57.6.6,0,0,0-.5.07.62.62,0,0,0,0,1Z" style="fill:#263238"></path></g><g id="freepik--Browsers--inject-135"><rect x="55.87" y="100.83" width="91.34" height="91.34" style="fill:#FFC727"></rect><path d="M132.11,133.62c1.56-3.34,5.82-13.79.3-18.13-4.58-3.6-13.13-4-25,1.72-.79-.06-1.61-.08-2.44-.08-16.19,0-27.07,10-30.12,24,5.44-6.94,13.26-12.53,15.9-13.17l-.89.71a65.12,65.12,0,0,0-15.84,18.74l-.06.1C66.43,161,65.27,174.39,69.55,178c6.39,5.34,18.58-.6,21.33-2.23a31.87,31.87,0,0,0,14,3.09c19.57,0,29.27-16.94,29.27-20.31H117.7a14.84,14.84,0,0,1-12.29,6.84c-8.32,0-14-6.34-14-13.37h44.49A36.48,36.48,0,0,0,132.11,133.62Zm-43.38,41c-4,1.9-12.19,4.57-15.46.56-1.74-2.13-1.13-8.78,2.25-16.88a30.24,30.24,0,0,0,13.21,16.32l2.11,1.13A22.4,22.4,0,0,1,88.73,174.59Zm2.52-31.11s1-12.88,13.72-12.88,13.72,12.88,13.72,12.88ZM116.19,119c7.5-2.93,13.45-3.15,15.33.07,2.58,4.4,1,9.88-.29,12.92A28.5,28.5,0,0,0,116.19,119Z" style="fill:#455a64"></path><rect x="268.31" y="51.58" width="91.34" height="91.34" style="fill:#FFC727"></rect><circle cx="313.98" cy="97.25" r="12.09" transform="translate(23.2 250.5) rotate(-45)" style="opacity:0.2"></circle><path d="M314,63a34.27,34.27,0,1,0,34.27,34.27A34.27,34.27,0,0,0,314,63Zm0,49.1a14.83,14.83,0,1,1,14.83-14.83A14.84,14.84,0,0,1,314,112.08Z" style="fill:#FFC727"></path><path d="M314,63a34.27,34.27,0,1,0,34.27,34.27A34.27,34.27,0,0,0,314,63Zm0,49.1a14.83,14.83,0,1,1,14.83-14.83A14.84,14.84,0,0,1,314,112.08Z" style="opacity:0.2"></path><path d="M326.05,105.87l-14.86,25.54a34.27,34.27,0,0,1-25.65-53.29l15.28,26h0a14.83,14.83,0,0,0,25.23,1.77Z" style="fill:#FFC727"></path><path d="M326.05,105.87l-14.86,25.54a34.27,34.27,0,0,1-25.65-53.29l15.28,26h0a14.83,14.83,0,0,0,25.23,1.77Z" style="opacity:0.30000000000000004"></path><path d="M348.25,97.25A34.27,34.27,0,0,1,314,131.52c-.94,0-1.87,0-2.79-.11l14.86-25.53h0A14.84,14.84,0,0,0,314,82.41h30.9A34.16,34.16,0,0,1,348.25,97.25Z" style="fill:#FFC727"></path><path d="M348.25,97.25A34.27,34.27,0,0,1,314,131.52c-.94,0-1.87,0-2.79-.11l14.86-25.53h0A14.84,14.84,0,0,0,314,82.41h30.9A34.16,34.16,0,0,1,348.25,97.25Z" style="opacity:0.1"></path><rect x="239.11" y="360.78" width="91.34" height="91.34" style="fill:#FFC727"></rect><circle cx="284.78" cy="406.45" r="34.28" style="fill:#455a64"></circle><path d="M284.78,381c-.1-1-.11-2-.12-3s0-2,.12-3c.11,1,.11,2,.13,3S284.88,380,284.78,381Z" style="fill:#fff"></path><path d="M272.06,384.42c-.59-.82-1.09-1.68-1.61-2.54s-1-1.75-1.39-2.67c.59.82,1.1,1.68,1.61,2.54S271.65,383.5,272.06,384.42Z" style="fill:#fff"></path><path d="M262.75,393.73c-.92-.41-1.79-.91-2.66-1.4s-1.72-1-2.54-1.61c.92.41,1.79.91,2.66,1.4S261.94,393.14,262.75,393.73Z" style="fill:#fff"></path><path d="M259.34,406.45c-1,.1-2,.11-3,.12s-2,0-3-.12c1-.11,2-.12,3-.13S258.34,406.34,259.34,406.45Z" style="fill:#fff"></path><path d="M262.75,419.16c-.81.59-1.68,1.1-2.54,1.61s-1.74,1-2.66,1.4c.82-.59,1.68-1.1,2.54-1.61S261.83,419.58,262.75,419.16Z" style="fill:#fff"></path><path d="M272.06,428.47c-.41.92-.9,1.79-1.39,2.67s-1,1.72-1.61,2.54c.41-.92.9-1.79,1.39-2.67S271.47,429.29,272.06,428.47Z" style="fill:#fff"></path><path d="M284.78,431.88c.1,1,.11,2,.13,3s0,2-.13,3c-.1-1-.11-2-.12-3S284.68,432.88,284.78,431.88Z" style="fill:#fff"></path><path d="M297.5,428.47c.59.82,1.1,1.68,1.61,2.54s1,1.75,1.39,2.67c-.59-.82-1.09-1.68-1.61-2.54S297.91,429.39,297.5,428.47Z" style="fill:#fff"></path><path d="M306.81,419.16c.92.42,1.79.91,2.66,1.4s1.73,1,2.54,1.61c-.92-.41-1.79-.91-2.66-1.4S307.63,419.75,306.81,419.16Z" style="fill:#fff"></path><path d="M310.22,406.45c1-.11,2-.12,3-.13s2,0,3,.13c-1,.1-2,.11-3,.12S311.22,406.55,310.22,406.45Z" style="fill:#fff"></path><path d="M306.81,393.73c.82-.59,1.68-1.1,2.54-1.61s1.74-1,2.66-1.4c-.81.59-1.68,1.1-2.54,1.61S307.73,393.32,306.81,393.73Z" style="fill:#fff"></path><path d="M297.5,384.42c.41-.92.91-1.79,1.39-2.67s1-1.72,1.61-2.54c-.41.92-.9,1.79-1.39,2.67S298.09,383.6,297.5,384.42Z" style="fill:#fff"></path><path d="M282.21,375.53a17.35,17.35,0,0,1,.29,2.15,19.59,19.59,0,0,1,.05,2.17,17.64,17.64,0,0,1-.3-2.15A17.43,17.43,0,0,1,282.21,375.53Z" style="fill:#fff"></path><path d="M279.52,375.87A17.52,17.52,0,0,1,280,378a17,17,0,0,1,.24,2.15,17,17,0,0,1-.48-2.11A17.4,17.4,0,0,1,279.52,375.87Z" style="fill:#fff"></path><path d="M276.88,376.45a17,17,0,0,1,.66,2.06,16.71,16.71,0,0,1,.42,2.13,16.61,16.61,0,0,1-.66-2.07A16.91,16.91,0,0,1,276.88,376.45Z" style="fill:#fff"></path><path d="M274.3,377.25a18.32,18.32,0,0,1,.83,2,16.54,16.54,0,0,1,.61,2.08,16.6,16.6,0,0,1-.84-2A16,16,0,0,1,274.3,377.25Z" style="fill:#fff"></path><path d="M271.79,378.28a17.42,17.42,0,0,1,1,1.91,16.51,16.51,0,0,1,.78,2,19.33,19.33,0,0,1-1-1.91A21.57,21.57,0,0,1,271.79,378.28Z" style="fill:#fff"></path><path d="M267.1,381a19.49,19.49,0,0,1,1.32,1.71,17.37,17.37,0,0,1,1.13,1.86,16.8,16.8,0,0,1-1.33-1.72A16.54,16.54,0,0,1,267.1,381Z" style="fill:#fff"></path><path d="M264.94,382.6a17,17,0,0,1,1.47,1.59,14.82,14.82,0,0,1,1.28,1.75,20.05,20.05,0,0,1-1.47-1.59A18.23,18.23,0,0,1,264.94,382.6Z" style="fill:#fff"></path><path d="M262.94,384.42a17,17,0,0,1,1.6,1.45A18.33,18.33,0,0,1,266,387.5a17,17,0,0,1-1.6-1.45A18.33,18.33,0,0,1,262.94,384.42Z" style="fill:#fff"></path><path d="M261.1,386.41a18.43,18.43,0,0,1,3.29,2.81,19.41,19.41,0,0,1-3.29-2.81Z" style="fill:#fff"></path><path d="M259.45,388.55a17.51,17.51,0,0,1,1.83,1.15,18.28,18.28,0,0,1,1.69,1.36,18.38,18.38,0,0,1-1.84-1.16A18,18,0,0,1,259.45,388.55Z" style="fill:#fff"></path><path d="M256.72,393.22a16,16,0,0,1,2,.82,18.51,18.51,0,0,1,1.9,1,17.63,17.63,0,0,1-2-.82A18.51,18.51,0,0,1,256.72,393.22Z" style="fill:#fff"></path><path d="M255.68,395.71a18.32,18.32,0,0,1,4.05,1.52,18.32,18.32,0,0,1-4.05-1.52Z" style="fill:#fff"></path><path d="M254.85,398.29a17,17,0,0,1,2.12.46,15.49,15.49,0,0,1,2,.7,18.8,18.8,0,0,1-4.17-1.16Z" style="fill:#fff"></path><path d="M254.26,400.93a17.54,17.54,0,0,1,2.15.27,19.5,19.5,0,0,1,2.1.52,19.13,19.13,0,0,1-2.15-.27A18.93,18.93,0,0,1,254.26,400.93Z" style="fill:#fff"></path><path d="M253.89,403.61a19.59,19.59,0,0,1,2.17.08,17.62,17.62,0,0,1,2.14.34,19.45,19.45,0,0,1-4.31-.42Z" style="fill:#fff"></path><path d="M253.87,409a19.66,19.66,0,0,1,2.14-.3,17.47,17.47,0,0,1,2.17,0A17.35,17.35,0,0,1,256,409,19.47,19.47,0,0,1,253.87,409Z" style="fill:#fff"></path><path d="M254.21,411.7a19,19,0,0,1,2.11-.48,19.53,19.53,0,0,1,2.16-.23,17.52,17.52,0,0,1-2.12.48A17,17,0,0,1,254.21,411.7Z" style="fill:#fff"></path><path d="M254.78,414.35a19.19,19.19,0,0,1,2.07-.67,18.92,18.92,0,0,1,2.12-.42,17.06,17.06,0,0,1-2.06.67A18.65,18.65,0,0,1,254.78,414.35Z" style="fill:#fff"></path><path d="M255.59,416.93a18.23,18.23,0,0,1,2-.84,16.65,16.65,0,0,1,2.09-.6,19.26,19.26,0,0,1-2,.84A19,19,0,0,1,255.59,416.93Z" style="fill:#fff"></path><path d="M256.61,419.44a16.77,16.77,0,0,1,1.92-1,17.62,17.62,0,0,1,2-.79,16,16,0,0,1-1.92,1A17.62,17.62,0,0,1,256.61,419.44Z" style="fill:#fff"></path><path d="M259.3,424.13A17,17,0,0,1,261,422.8a18.19,18.19,0,0,1,1.85-1.12,17,17,0,0,1-1.71,1.33A18.19,18.19,0,0,1,259.3,424.13Z" style="fill:#fff"></path><path d="M260.93,426.28c.5-.53,1.05-1,1.59-1.47a18.23,18.23,0,0,1,1.75-1.28,17,17,0,0,1-1.59,1.47A16,16,0,0,1,260.93,426.28Z" style="fill:#fff"></path><path d="M262.75,428.29a20.37,20.37,0,0,1,1.46-1.61,18.73,18.73,0,0,1,1.63-1.43,18.48,18.48,0,0,1-1.45,1.61A20.48,20.48,0,0,1,262.75,428.29Z" style="fill:#fff"></path><path d="M264.74,430.12a18.14,18.14,0,0,1,1.31-1.72,18.54,18.54,0,0,1,1.5-1.57,18.43,18.43,0,0,1-2.81,3.29Z" style="fill:#fff"></path><path d="M266.88,431.78A17.17,17.17,0,0,1,268,430a15.71,15.71,0,0,1,1.36-1.69,17.17,17.17,0,0,1-1.16,1.83A18.28,18.28,0,0,1,266.88,431.78Z" style="fill:#fff"></path><path d="M271.55,434.5a17.48,17.48,0,0,1,.82-2,16.69,16.69,0,0,1,1.05-1.9,17.48,17.48,0,0,1-.82,2A16.69,16.69,0,0,1,271.55,434.5Z" style="fill:#fff"></path><path d="M274.05,435.55a16.52,16.52,0,0,1,.64-2.07,18.29,18.29,0,0,1,.87-2,19,19,0,0,1-1.51,4.05Z" style="fill:#fff"></path><path d="M276.63,436.37a18.38,18.38,0,0,1,.45-2.11,19.22,19.22,0,0,1,.7-2.06,18.55,18.55,0,0,1-.45,2.12A18.33,18.33,0,0,1,276.63,436.37Z" style="fill:#fff"></path><path d="M279.27,437a17.07,17.07,0,0,1,.27-2.15,15.33,15.33,0,0,1,.52-2.1,19.92,19.92,0,0,1-.79,4.25Z" style="fill:#fff"></path><path d="M282,437.34a18.68,18.68,0,0,1,.41-4.31,17.19,17.19,0,0,1-.08,2.16A17.45,17.45,0,0,1,282,437.34Z" style="fill:#fff"></path><path d="M287.35,437.36a19.48,19.48,0,0,1-.29-2.15,17.43,17.43,0,0,1,0-2.17,17.61,17.61,0,0,1,.29,2.15A17.43,17.43,0,0,1,287.35,437.36Z" style="fill:#fff"></path><path d="M290,437a17.52,17.52,0,0,1-.48-2.12,15.36,15.36,0,0,1-.23-2.15,19,19,0,0,1,.48,2.11A19.53,19.53,0,0,1,290,437Z" style="fill:#fff"></path><path d="M292.68,436.44a19,19,0,0,1-.66-2.06,16.71,16.71,0,0,1-.42-2.13,16.61,16.61,0,0,1,.66,2.07A16.91,16.91,0,0,1,292.68,436.44Z" style="fill:#fff"></path><path d="M295.27,435.64a16.6,16.6,0,0,1-.84-2,18.4,18.4,0,0,1-.61-2.08,16.6,16.6,0,0,1,.84,2A18.4,18.4,0,0,1,295.27,435.64Z" style="fill:#fff"></path><path d="M297.77,434.61a17.42,17.42,0,0,1-1-1.91,18.31,18.31,0,0,1-.78-2,17.42,17.42,0,0,1,1,1.91A19.11,19.11,0,0,1,297.77,434.61Z" style="fill:#fff"></path><path d="M302.47,431.93a17.85,17.85,0,0,1-1.33-1.71,15.81,15.81,0,0,1-1.12-1.86,20.42,20.42,0,0,1,2.45,3.57Z" style="fill:#fff"></path><path d="M304.62,430.29a17,17,0,0,1-1.47-1.59,16,16,0,0,1-1.28-1.75,18.9,18.9,0,0,1,2.75,3.34Z" style="fill:#fff"></path><path d="M306.62,428.47A17,17,0,0,1,305,427a18.33,18.33,0,0,1-1.43-1.63,18.48,18.48,0,0,1,1.61,1.45A20,20,0,0,1,306.62,428.47Z" style="fill:#fff"></path><path d="M308.46,426.49a18.78,18.78,0,0,1-1.73-1.32,17,17,0,0,1-1.56-1.5A18.69,18.69,0,0,1,306.9,425,18.49,18.49,0,0,1,308.46,426.49Z" style="fill:#fff"></path><path d="M310.12,424.35a18.88,18.88,0,0,1-3.53-2.52,18.38,18.38,0,0,1,1.84,1.16A16.76,16.76,0,0,1,310.12,424.35Z" style="fill:#fff"></path><path d="M312.84,419.67a16,16,0,0,1-2-.82,18.51,18.51,0,0,1-1.9-1,19.12,19.12,0,0,1,3.91,1.86Z" style="fill:#fff"></path><path d="M313.89,417.18a17.75,17.75,0,0,1-2.07-.64,18.52,18.52,0,0,1-2-.88,17.75,17.75,0,0,1,2.07.64A18.52,18.52,0,0,1,313.89,417.18Z" style="fill:#fff"></path><path d="M314.71,414.6a17,17,0,0,1-2.12-.46,15.49,15.49,0,0,1-2-.7,18.8,18.8,0,0,1,4.17,1.16Z" style="fill:#fff"></path><path d="M315.31,412a18.6,18.6,0,0,1-4.26-.79,18.6,18.6,0,0,1,4.26.79Z" style="fill:#fff"></path><path d="M315.67,409.28a19.41,19.41,0,0,1-2.16-.08,17.48,17.48,0,0,1-2.15-.34,19.45,19.45,0,0,1,4.31.42Z" style="fill:#fff"></path><path d="M315.69,403.87a19.32,19.32,0,0,1-2.14.3,17.43,17.43,0,0,1-2.17,0,17.35,17.35,0,0,1,2.15-.29A19.47,19.47,0,0,1,315.69,403.87Z" style="fill:#fff"></path><path d="M315.35,401.19a19,19,0,0,1-2.11.48,19.35,19.35,0,0,1-2.15.23,18.48,18.48,0,0,1,4.26-.71Z" style="fill:#fff"></path><path d="M314.78,398.54a19,19,0,0,1-2.06.67,19.55,19.55,0,0,1-2.13.42,17.06,17.06,0,0,1,2.06-.67A18.65,18.65,0,0,1,314.78,398.54Z" style="fill:#fff"></path><path d="M314,396a19.26,19.26,0,0,1-2,.84,17,17,0,0,1-2.08.6,18.23,18.23,0,0,1,2-.84A18.52,18.52,0,0,1,314,396Z" style="fill:#fff"></path><path d="M313,393.45a16,16,0,0,1-1.92,1,17.62,17.62,0,0,1-2,.79,16.77,16.77,0,0,1,1.92-1A17.62,17.62,0,0,1,313,393.45Z" style="fill:#fff"></path><path d="M310.27,388.76a19.06,19.06,0,0,1-3.57,2.45,19.61,19.61,0,0,1,1.71-1.33A18.34,18.34,0,0,1,310.27,388.76Z" style="fill:#fff"></path><path d="M308.63,386.61a18.45,18.45,0,0,1-1.59,1.47,18.23,18.23,0,0,1-1.75,1.28,17,17,0,0,1,1.59-1.47A18.23,18.23,0,0,1,308.63,386.61Z" style="fill:#fff"></path><path d="M306.81,384.6a17.1,17.1,0,0,1-1.46,1.61,18.73,18.73,0,0,1-1.63,1.43,17.1,17.1,0,0,1,1.46-1.61A18.73,18.73,0,0,1,306.81,384.6Z" style="fill:#fff"></path><path d="M304.82,382.77a18.14,18.14,0,0,1-1.31,1.72,17.09,17.09,0,0,1-1.5,1.57,18.43,18.43,0,0,1,2.81-3.29Z" style="fill:#fff"></path><path d="M302.68,381.11a18.59,18.59,0,0,1-2.51,3.52,17.09,17.09,0,0,1,1.15-1.83A18.28,18.28,0,0,1,302.68,381.11Z" style="fill:#fff"></path><path d="M298,378.39a17.48,17.48,0,0,1-.82,2,16.62,16.62,0,0,1-1,1.9,15.84,15.84,0,0,1,.82-2A16.62,16.62,0,0,1,298,378.39Z" style="fill:#fff"></path><path d="M295.51,377.34a19,19,0,0,1-1.51,4.05,16.52,16.52,0,0,1,.64-2.07A20.49,20.49,0,0,1,295.51,377.34Z" style="fill:#fff"></path><path d="M292.94,376.52a19.21,19.21,0,0,1-1.16,4.17,16.65,16.65,0,0,1,.46-2.12A15,15,0,0,1,292.94,376.52Z" style="fill:#fff"></path><path d="M290.3,375.92a19.13,19.13,0,0,1-.27,2.15,18.93,18.93,0,0,1-.52,2.1,18.39,18.39,0,0,1,.79-4.25Z" style="fill:#fff"></path><path d="M287.62,375.55a19.45,19.45,0,0,1-.42,4.31,19.41,19.41,0,0,1,.08-2.16A17.48,17.48,0,0,1,287.62,375.55Z" style="fill:#fff"></path><polygon points="281.6 403.21 287.96 409.68 261.46 429.12 281.6 403.21" style="fill:#fff"></polygon><polygon points="287.96 409.68 281.6 403.21 308.1 383.77 287.96 409.68" style="fill:#FFC727"></polygon><rect x="91.02" y="360.78" width="91.34" height="91.34" style="fill:#FFC727"></rect><path d="M136.68,372.28a34.17,34.17,0,1,0,34.17,34.17A34.16,34.16,0,0,0,136.68,372.28Zm-2.74,58.47c-12.42,0-22.49-10.88-22.49-24.3s10.07-24.31,22.49-24.31,22.49,10.88,22.49,24.31S146.36,430.75,133.94,430.75Z" style="fill:#FFC727"></path><path d="M136.68,372.28a34.17,34.17,0,1,0,34.17,34.17A34.16,34.16,0,0,0,136.68,372.28Zm-2.74,58.47c-12.42,0-22.49-10.88-22.49-24.3s10.07-24.31,22.49-24.31,22.49,10.88,22.49,24.31S146.36,430.75,133.94,430.75Z" style="opacity:0.2"></path><path d="M148.5,435.71a29.85,29.85,0,0,0,7.24-.9,34.17,34.17,0,1,1,.32-56.5,29.2,29.2,0,1,0-7.56,57.4Z" style="fill:#FFC727"></path><path d="M148.5,435.71a29.85,29.85,0,0,0,7.24-.9,34.17,34.17,0,1,1,.32-56.5,29.2,29.2,0,1,0-7.56,57.4Z" style="opacity:0.1"></path></g></svg>