<svg xmlns="http://www.w3.org/2000/svg" viewBox="0 0 500 500"><g id="freepik--background-complete--inject-41"><rect x="397.07" y="388.54" width="35.16" height="11.19" transform="translate(829.3 788.27) rotate(180)" style="fill:#ebebeb"></rect><rect x="373.31" y="181.37" width="35.16" height="11.19" transform="translate(781.78 373.94) rotate(180)" style="fill:#ebebeb"></rect><path d="M416.68,413.84c5.84-.1,20.81-.35,26.45-.41l8.71-.05-.46.46,0-11.19.5.5c-5.84,0-20.73-.07-26.37-.15l-8.79-.11.24-.24-.24,11.19Zm0,0-.23-11.19v-.24h.24c4.39-.06,13.2-.16,17.58-.19l17.58-.07h.5v.5l0,11.19v.46h-.45l-8.87,0c-5.6-.06-20.5-.31-26.29-.41Z" style="fill:#ebebeb"></path><path d="M107.89,316.27c5.84-.1,20.81-.35,26.44-.42l8.71,0-.45.46-.05-11.19.5.5c-5.83,0-20.72-.07-26.36-.16l-8.79-.1.23-.24-.23,11.19Zm0,0-.24-11.19v-.24h.25c4.38-.06,13.19-.16,17.58-.19l17.57-.07h.51v.5l0,11.19v.46H143l-8.86,0c-5.6-.06-20.51-.31-26.29-.41Z" style="fill:#ebebeb"></path><path d="M127.5,330.38c5.84-.1,20.81-.35,26.45-.42l8.71,0-.46.46,0-11.19.5.5c-5.84,0-20.73-.07-26.37-.16l-8.79-.1.24-.24-.24,11.19Zm0,0-.24-11.19V319h.24c4.39-.06,13.19-.16,17.58-.19l17.58-.07h.5v.5l0,11.19v.46h-.45l-8.87,0c-5.6-.06-20.51-.31-26.29-.41Z" style="fill:#ebebeb"></path><rect x="147.03" y="305.08" width="35.16" height="11.19" transform="translate(329.22 621.35) rotate(180)" style="fill:#ebebeb"></rect><rect x="48.16" y="402.65" width="35.16" height="11.19" transform="translate(131.48 816.49) rotate(180)" style="fill:#ebebeb"></rect><rect x="67.77" y="44.93" width="35.16" height="11.19" transform="translate(170.7 101.06) rotate(180)" style="fill:#ebebeb"></rect><path d="M48.16,70.23c5.84-.1,20.81-.35,26.45-.41l8.71,0-.46.45,0-11.19.5.5c-5.84,0-20.73-.07-26.37-.15l-8.79-.11L48.4,59l-.24,11.19Zm0,0L47.92,59v-.23h.24c4.39-.06,13.19-.16,17.58-.2l17.58-.07h.5V59l0,11.19v.46h-.45l-8.87,0c-5.6-.07-20.51-.32-26.29-.42Z" style="fill:#ebebeb"></path><path d="M416.68,56.12c5.84-.1,20.81-.34,26.45-.41l8.71,0-.46.45,0-11.19.5.5c-5.84,0-20.73-.07-26.37-.15l-8.79-.11.24-.24-.24,11.19Zm0,0-.23-11.19V44.7h.24c4.39-.06,13.2-.16,17.58-.2l17.58-.07h.5v.5l0,11.19v.46h-.45l-8.87,0c-5.6-.07-20.5-.32-26.29-.42Z" style="fill:#ebebeb"></path><path d="M62.82,48.6V226.26H178.3V48.6ZM174,222h-107V52.86H174Z" style="fill:#ebebeb"></path><rect x="67.08" y="52.86" width="106.95" height="169.14" style="fill:#fff"></rect><rect x="67.08" y="135.29" width="106.95" height="4.26" transform="translate(241.11 274.85) rotate(180)" style="fill:#ebebeb"></rect><rect x="54.97" y="226.25" width="131.16" height="12.23" transform="translate(241.11 464.73) rotate(180)" style="fill:#dbdbdb"></rect><path d="M67.08,52.85H174V162.28H67.08Zm103,3.95H71V158.34h99.06Z" style="fill:#dbdbdb"></path><rect x="137.77" y="52.85" width="2.13" height="105.48" style="fill:#dbdbdb"></rect><rect x="101.21" y="52.85" width="2.13" height="105.48" style="fill:#dbdbdb"></rect><path d="M321.71,48.6V226.26H437.18V48.6ZM432.92,222H326V52.86h107Z" style="fill:#ebebeb"></path><rect x="325.97" y="52.86" width="106.95" height="169.14" style="fill:#fff"></rect><rect x="325.97" y="135.29" width="106.95" height="4.26" transform="translate(758.89 274.85) rotate(180)" style="fill:#ebebeb"></rect><rect x="313.86" y="226.25" width="131.16" height="12.23" transform="translate(758.89 464.73) rotate(180)" style="fill:#dbdbdb"></rect><path d="M326,52.85h107V162.28H326ZM429,56.8H329.91V158.34H429Z" style="fill:#dbdbdb"></path><rect x="396.66" y="52.85" width="2.13" height="105.48" style="fill:#dbdbdb"></rect><rect x="360.1" y="52.85" width="2.13" height="105.48" style="fill:#dbdbdb"></rect><rect x="176.94" y="280.32" width="146.12" height="8.92" style="fill:#ebebeb"></rect><rect x="189.97" y="289.24" width="120.06" height="24.61" style="fill:#ebebeb"></rect><polygon points="310.03 294.1 189.97 296.49 189.97 289.24 310.03 289.24 310.03 294.1" style="fill:#c7c7c7"></polygon><path d="M291.94,309.2H208.06V293.9h83.88Zm-82.88-1h81.88V294.9H209.06Z" style="fill:#dbdbdb"></path><rect x="236.34" y="299.48" width="27.33" height="4.13" style="fill:#dbdbdb"></rect><polygon points="189 455.41 185.02 455.41 196.59 313.86 206.73 313.86 189 455.41" style="fill:#ebebeb"></polygon><polygon points="206.73 313.86 205.54 323.33 195.82 323.33 196.59 313.86 206.73 313.86" style="fill:#c7c7c7"></polygon><polygon points="311 455.41 314.98 455.41 303.41 313.86 293.27 313.86 311 455.41" style="fill:#ebebeb"></polygon><polygon points="293.27 313.86 294.46 323.33 304.18 323.33 303.41 313.86 293.27 313.86" style="fill:#c7c7c7"></polygon></g><g id="freepik--Plant--inject-41"><path d="M385.62,326.64a50.94,50.94,0,0,1-1,19.56,54.62,54.62,0,0,1-3,8.65c-1.56,3.58-3.18,7.07-2.79,11,.38.25-.92.21-1-.17-10.47-6-23.89-7.05-31.94-16.79-3.82-4.62-5.74-10.46-6.65-16.31-1-6.37-1.27-13.42.38-19.7,1.38-5.3,4.48-10.42,9.47-13,5.15-2.68,11.89-2.46,17.31-.78C378.15,302.71,384,315.33,385.62,326.64Z" style="fill:#FFC727"></path><path d="M391,404.11q-2.14-7.14-4.32-14.27c-2.87-9.3-5.86-18.57-9.16-27.73q-3-8.22-6.27-16.29c.38-3.38.53-6.75,1.25-10.12.88-4.06,2.15-8,3.33-11.95.07-.24-.32-.37-.42-.14-2.35,5.47-5.42,12.47-5.49,18.95q-3.84-9.13-8.23-18a77.68,77.68,0,0,1,.46-15,.18.18,0,0,0-.35-.07,52.77,52.77,0,0,0-1,13.24c-2.25-4.44-4.62-8.83-7.15-13.15-.22-.39-.76,0-.56.39q5.9,11.37,11,23.14a50.28,50.28,0,0,0-16.41-9.5c-.26-.09-.45.28-.19.39a59.8,59.8,0,0,1,17.75,11.75q3.69,8.61,7,17.35c-6.54-6.42-15.5-10.64-24.17-12.91-.3-.07-.38.38-.09.46,10,3,17.82,8.71,25.45,15.54q1.33,3.54,2.61,7.09,4.84,13.44,9.23,27.06,2.12,6.53,4.16,13.07c1.46,4.69,2.6,9.64,4.51,14.18.18.43,1,.33.86-.19C393.94,412.91,392.3,408.49,391,404.11Z" style="fill:#263238"></path><path d="M373.63,317.48a26,26,0,0,0-3.77,9.39c0,.09.12.14.15.05a81.39,81.39,0,0,1,4.09-9.21C374.26,317.4,373.81,317.21,373.63,317.48Z" style="fill:#263238"></path><path d="M355,339.28a27.67,27.67,0,0,0-9.39-3.16.08.08,0,0,0-.05.15c1.51.63,3.1,1.06,4.62,1.65s3,1.31,4.59,1.85A.27.27,0,0,0,355,339.28Z" style="fill:#263238"></path><path d="M349.7,313.05a17.78,17.78,0,0,0-3-1.86.16.16,0,0,0-.17.26,17.79,17.79,0,0,0,3,1.93C349.68,313.5,349.89,313.18,349.7,313.05Z" style="fill:#263238"></path><path d="M420.9,362.18c-7.54,2.24-15.12,4.31-22.65,6.52-.66.2-13.4-24.22-8.79-36.8,4.25-11.64,14-20.35,25.62-24.31,5.38-1.82,12-3.36,17.68-2.11,5.05,1.12,8.62,5.26,10.27,10,2.23,6.47,1.49,14.17.27,20.77-1.13,6.12-3.37,12.14-7.41,16.95S426.77,360.44,420.9,362.18Z" style="fill:#FFC727"></path><path d="M431.82,339a100.92,100.92,0,0,1-14.77,5.82c-3.21,1-6.8,2-9.87,3.57,3.18-7.1,6.68-14.05,10.38-20.93,4.87-1.41,10-3.61,13.67-7.05a.21.21,0,0,0-.28-.32c-4,2.84-8.44,4.54-12.89,6.46,1-1.85,2-3.7,3.05-5.55a.46.46,0,0,0-.77-.52,160.23,160.23,0,0,0-10.71,18,82.43,82.43,0,0,1-.77-16.48c0-.14-.2-.15-.22,0a54.71,54.71,0,0,0,.19,18.1c-2.65,5.28-5.06,10.69-7.22,16.16-.86-3.29-2-6.53-2.72-9.84a45.13,45.13,0,0,1-1.08-14.51c0-.14-.2-.15-.22,0a51.11,51.11,0,0,0,3.16,26.64c-1.26,3.29-2.46,6.6-3.56,9.91a197.68,197.68,0,0,0-10,52.3.32.32,0,0,0,.64,0,259.42,259.42,0,0,1,11.23-51.68c2.19-6.57,4.7-12.95,7.46-19.21,4.46-1.31,8.89-3.1,13.26-4.61s8.64-3.19,12.22-6C432.13,339.13,432,338.9,431.82,339Z" style="fill:#263238"></path><path d="M438.85,331.89c-4.61,1.64-9,3.93-13.58,5.59-.22.08-.09.42.13.38,4.87-1,9.7-2.51,13.63-5.71C439.18,332,439,331.83,438.85,331.89Z" style="fill:#263238"></path><path d="M401.21,321.94c.06-.24-.3-.38-.37-.13-1.27,4.25-2.14,8.76-.91,13.1.05.17.32.17.33,0C400.48,330.51,400.23,326.25,401.21,321.94Z" style="fill:#263238"></path><path d="M420.26,312.13a11.27,11.27,0,0,0-2,7.22c0,.16.27.26.31.07.56-2.44,1.5-4.65,2.25-7A.32.32,0,0,0,420.26,312.13Z" style="fill:#263238"></path><path d="M331.24,373c2.21,7,7.46,16.71,15.78,16.79,5.39.05,10.82-.59,16.22-.67,5.79-.09,11.59-.07,17.36.27.47,0-.69-17.33-14.6-25.78-3.9-2.36-8.66-3.11-13.08-4.07a60.49,60.49,0,0,0-15.45-1.61c-3.2.13-5.85.8-7,4.07C329.29,365.38,330.18,369.62,331.24,373Z" style="fill:#FFC727"></path><path d="M337.23,364.18c3.38.86,6.79,1.86,10.18,2.94a36.08,36.08,0,0,0-2.8-2.73c-1.46-1.21-3.06-2.18-4.63-3.24-.13-.09-.05-.34.12-.28a19.16,19.16,0,0,1,8.2,6.53c4.23,1.36,8.41,2.87,12.44,4.52a47.47,47.47,0,0,1,8,4.2,32.79,32.79,0,0,0-2.88-5c-1.85-2.39-4.35-3.72-6.76-5.42a.22.22,0,0,1,.22-.37,19.77,19.77,0,0,1,10.84,11.76,46.17,46.17,0,0,1,7.89,7.16c9.2,10.45,16.45,24.36,16.47,38.55,0,.33-.54.43-.6.08-2.62-14.1-8.18-26.75-17.55-37.69-.66-.77-1.34-1.5-2-2.21a64.3,64.3,0,0,0-7.61-.56c-3,0-5.89.43-8.84.67-4.86.4-10.22.45-14.6-2-.2-.11-.07-.44.15-.36,9.76,3.55,20-1,29.79,1.16a46,46,0,0,0-14.43-9.31l-.9-.36c-6.27.76-12.88,2.39-19,.35a.15.15,0,0,1,.08-.29c5.89,1.48,11.55-.38,17.36-.67-6.33-2.47-12.79-4.43-19.14-6.88C336.66,364.52,336.65,364,337.23,364.18Z" style="fill:#263238"></path><path d="M334.46,370.34a82.13,82.13,0,0,0,9.12.69c.07,0,.1.12,0,.13a18.78,18.78,0,0,1-9.2-.59A.12.12,0,0,1,334.46,370.34Z" style="fill:#263238"></path><path d="M355.06,364.33a14.72,14.72,0,0,1,4.51,3.14c.16.14-.05.42-.23.29-.76-.55-1.55-1.08-2.34-1.59a21.51,21.51,0,0,1-2.2-1.39A.27.27,0,0,1,355.06,364.33Z" style="fill:#263238"></path><path d="M404.16,386.91c-.1.23.23.45.36.2h0a.34.34,0,0,0,.22.14,140.4,140.4,0,0,0,17,3c4.6.41,9.9.67,13.92-2,5.46-3.62,9-13.29,6.09-19.43-3.48-7.29-14-3.33-19.27-.74A38.69,38.69,0,0,0,404.16,386.91Z" style="fill:#FFC727"></path><path d="M400.08,390.28a54.1,54.1,0,0,1,10.15-7.72,34.63,34.63,0,0,1,10.29-10.48c.19-.14.37.17.18.31a47.06,47.06,0,0,0-8.67,9.12,96.19,96.19,0,0,1,12.73-5.79,17,17,0,0,1,6.84-6.85s.13.05.07.1a28.12,28.12,0,0,0-6.18,6.48c2.59-1,5.2-1.87,7.81-2.73.24-.08.33.28.1.36-4.64,1.82-9.39,3.73-14,5.94a53.91,53.91,0,0,0,17,0c.15,0,.22.2.06.24a33.41,33.41,0,0,1-18,.27,86.62,86.62,0,0,0-8.53,4.78,21.33,21.33,0,0,1,6.9.57,52.58,52.58,0,0,0,12.12,1.37.14.14,0,0,1,0,.27c-7,1.21-13.68-2-20.64-1.15a51.45,51.45,0,0,0-17.85,20.86c-2.93,6-4.52,12.3-6.89,18.47a.22.22,0,0,1-.43-.12C385.17,412.36,391.22,399,400.08,390.28Z" style="fill:#263238"></path><path d="M421.29,373.6a8,8,0,0,1,1.8-2.18,7,7,0,0,1,2.08-1.56.07.07,0,0,1,.06.12c-.57.65-1.38,1.13-2,1.76s-1.14,1.37-1.78,2C421.37,373.81,421.24,373.71,421.29,373.6Z" style="fill:#263238"></path><path d="M432.89,377.38c1-.27,2.14-.25,3.2-.46a30.84,30.84,0,0,0,3.11-.93.12.12,0,0,1,.1.22,10.33,10.33,0,0,1-6.41,1.49A.17.17,0,0,1,432.89,377.38Z" style="fill:#263238"></path><polygon points="371.11 409.54 372.04 420.02 375.17 455.41 402.88 455.41 406.79 420.02 407.95 409.54 371.11 409.54" style="fill:#37474f"></polygon><polygon points="371.11 409.54 372.04 420.02 406.79 420.02 407.95 409.54 371.11 409.54" style="fill:#263238"></polygon><rect x="368.37" y="406.68" width="42.32" height="8.5" transform="translate(779.06 821.86) rotate(180)" style="fill:#37474f"></rect></g><g id="freepik--Floor--inject-41"><path d="M55.53,455.41c124.59-.62,264.35-.62,388.94,0-124.59.61-264.35.61-388.94,0Z" style="fill:#263238"></path></g><g id="freepik--Tab--inject-41"><rect x="113.12" y="94.22" width="273.87" height="119.42" style="fill:#fff"></rect><path d="M387,213.65c-.05.07-274,.09-274,.14s0-119.52-.09-119.56V94h.23s273.93.17,274,.13-.16,119.45-.1,119.53Zm0,0s-.23-119.86,0-119.32l-273.88.13.24-.24s.07,120-.23,119.28l273.87.15Z" style="fill:#263238"></path><rect x="113.12" y="94.22" width="273.87" height="8.55" style="fill:#263238"></rect><path d="M121.37,98.5a1.72,1.72,0,1,1-1.72-1.72A1.73,1.73,0,0,1,121.37,98.5Z" style="fill:#FFC727"></path><path d="M128.41,98.5a1.73,1.73,0,1,1-1.72-1.72A1.73,1.73,0,0,1,128.41,98.5Z" style="fill:#fff"></path><path d="M135.45,98.5a1.73,1.73,0,1,1-1.73-1.72A1.73,1.73,0,0,1,135.45,98.5Z" style="fill:#455a64"></path><path d="M135.32,133.44a.67.67,0,1,1-1.34,0v-7.15h0a.7.7,0,0,1,.27-.57.68.68,0,0,1,.94.15l4,5.5v-5.07a.67.67,0,0,1,1.34,0v7.15a.69.69,0,0,1-.67.68.66.66,0,0,1-.51-.25l-.06-.07-3.94-5.47Z" style="fill:#263238"></path><path d="M148.53,131.05v2.41a.66.66,0,0,1-.65.66.67.67,0,0,1-.64-.53,2.82,2.82,0,0,1-1.64.53,2.88,2.88,0,0,1-2.09-.9,3.16,3.16,0,0,1-.84-2.17,3.08,3.08,0,0,1,.84-2.16,2.83,2.83,0,0,1,2.09-.93,2.76,2.76,0,0,1,1.64.55.67.67,0,0,1,.64-.55.66.66,0,0,1,.65.67Zm-1.3,0a1.81,1.81,0,0,0-.48-1.26,1.52,1.52,0,0,0-1.15-.51,1.45,1.45,0,0,0-1.14.51,1.76,1.76,0,0,0-.47,1.26,1.82,1.82,0,0,0,.47,1.27,1.53,1.53,0,0,0,1.14.48,1.6,1.6,0,0,0,1.15-.48A1.88,1.88,0,0,0,147.23,131.05Z" style="fill:#263238"></path><path d="M156.09,130.51v3a.66.66,0,0,1-.65.66.68.68,0,0,1-.67-.66v-3a1.26,1.26,0,0,0-2.51,0v2.91s0,.07,0,.09v0s0,0,0,.07v.06a.72.72,0,0,1-.61.4l-.12,0a.66.66,0,0,1-.53-.64v-2.91h0v-1.91a.65.65,0,0,1,.65-.67.63.63,0,0,1,.59.37,2.62,2.62,0,0,1,1.32-.37,2.56,2.56,0,0,1,1.93.85,2.51,2.51,0,0,1,1.93-.85,2.58,2.58,0,0,1,2.56,2.59v2.91a.66.66,0,0,1-.65.66.67.67,0,0,1-.67-.66v-2.91a1.26,1.26,0,0,0-1.24-1.27A1.27,1.27,0,0,0,156.09,130.51Z" style="fill:#263238"></path><path d="M162.22,131a3.06,3.06,0,0,1,3-3.08,2.94,2.94,0,0,1,3,2.86v.06a.41.41,0,0,1,0,.11.59.59,0,0,1-.64.49h-3.91a1.54,1.54,0,0,0,.42.82,1.92,1.92,0,0,0,1.18.55,2,2,0,0,0,1.28-.31.7.7,0,0,1,.92,0,.57.57,0,0,1,0,.8,3.11,3.11,0,0,1-5.21-2.26Zm1.35-.6h3.48a2,2,0,0,0-1.82-1.31A1.7,1.7,0,0,0,163.57,130.44Z" style="fill:#263238"></path><rect x="132.69" y="143.88" width="234.62" height="22.68" style="fill:#ebebeb"></rect><path d="M141.94,151.93a.2.2,0,0,1,.2-.2h3a.19.19,0,0,1,.2.2.2.2,0,0,1-.2.21h-2.78v2.3h2.43a.2.2,0,0,1,0,.4h-2.43v2.3h2.78a.2.2,0,0,1,.2.21.2.2,0,0,1-.2.2h-3a.2.2,0,0,1-.18-.2Z" style="fill:#a6a6a6"></path><path d="M149.69,155.14a1.26,1.26,0,0,0-1.26-1.26,1.28,1.28,0,0,0-1.26,1.26v2.24a.25.25,0,0,1,0,.09.19.19,0,0,1-.15.08h0a.26.26,0,0,1-.14-.11v0h0v-3.72a.19.19,0,0,1,.2-.2.19.19,0,0,1,.19.2v.39a1.63,1.63,0,0,1,1.26-.59,1.66,1.66,0,0,1,1.66,1.66v2.21a.21.21,0,0,1-.2.2.2.2,0,0,1-.2-.2Z" style="fill:#a6a6a6"></path><path d="M153.3,153.67a.22.22,0,0,1-.2.2h-.53v3a.32.32,0,0,0,.3.3.23.23,0,0,1,.21.21.22.22,0,0,1-.21.2.69.69,0,0,1-.71-.71v-3h-.51c-.2,0-.2-.1-.2-.2s0-.2.2-.2h.51V152a.22.22,0,0,1,.2-.2.22.22,0,0,1,.21.2v1.51h.53A.22.22,0,0,1,153.3,153.67Z" style="fill:#a6a6a6"></path><path d="M154.58,155.52a2,2,0,1,1,3.94-.15h0v0a.19.19,0,0,1-.2.18H155a1.61,1.61,0,0,0,1.57,1.57,1.57,1.57,0,0,0,1.32-.74.19.19,0,0,1,.26-.07.2.2,0,0,1,.07.28,2,2,0,0,1-1.65.93A2,2,0,0,1,154.58,155.52Zm.42-.33h3.08a1.57,1.57,0,0,0-1.53-1.32A1.59,1.59,0,0,0,155,155.19Z" style="fill:#a6a6a6"></path><path d="M159.76,153.68a.19.19,0,0,1,.2-.2.2.2,0,0,1,.2.2v.9a.47.47,0,0,1,.05-.1,2,2,0,0,1,1.63-1,.19.19,0,0,1,.2.2.2.2,0,0,1-.2.2,1.48,1.48,0,0,0-1.18.67,3.86,3.86,0,0,0-.49.94.23.23,0,0,0,0,.07v1.79a.21.21,0,0,1-.2.2.2.2,0,0,1-.2-.2Z" style="fill:#a6a6a6"></path><path d="M165.56,153.66a.2.2,0,0,1,.19-.19.2.2,0,0,1,.21.19v2.21a1.25,1.25,0,0,0,1.25,1.26,1.27,1.27,0,0,0,1.26-1.26v-2.21a.19.19,0,0,1,0-.1,0,0,0,0,0,0,0h0a.18.18,0,0,1,.07-.05h.09l.1,0,.05.07a.16.16,0,0,1,0,.08v3.56a1.92,1.92,0,0,1-1.94,1.91,2,2,0,0,1-.84-.19.2.2,0,0,1-.08-.26.21.21,0,0,1,.26-.1,1.49,1.49,0,0,0,.66.15,1.53,1.53,0,0,0,1.54-1.51V157a1.72,1.72,0,0,1-1.26.58,1.67,1.67,0,0,1-1.65-1.67Z" style="fill:#a6a6a6"></path><path d="M172.28,153.47a2,2,0,1,1-1.93,2A2,2,0,0,1,172.28,153.47Zm0,3.68a1.65,1.65,0,1,0-1.53-1.64A1.6,1.6,0,0,0,172.28,157.15Z" style="fill:#a6a6a6"></path><path d="M175.52,153.66a.2.2,0,0,1,.4,0v2.22a1.26,1.26,0,1,0,2.51,0v-2.22a.21.21,0,0,1,.2-.2.2.2,0,0,1,.21.2v2.22a1.66,1.66,0,1,1-3.32,0Z" style="fill:#a6a6a6"></path><path d="M180.7,153.68a.2.2,0,0,1,.21-.2.19.19,0,0,1,.19.2v.9a.53.53,0,0,1,.06-.1,2,2,0,0,1,1.63-1,.19.19,0,0,1,.2.2.2.2,0,0,1-.2.2,1.46,1.46,0,0,0-1.18.67,3.25,3.25,0,0,0-.49.94.12.12,0,0,0,0,.07v1.79a.2.2,0,0,1-.19.2.2.2,0,0,1-.21-.2Z" style="fill:#a6a6a6"></path><path d="M189.75,155.14a1.25,1.25,0,0,0-1.25-1.26,1.27,1.27,0,0,0-1.26,1.26v2.24a.16.16,0,0,1-.05.09.17.17,0,0,1-.14.08H187a.26.26,0,0,1-.14-.11,0,0,0,0,1,0,0h0v-3.72a.19.19,0,0,1,.2-.2.2.2,0,0,1,.19.2v.39a1.63,1.63,0,0,1,1.26-.59,1.66,1.66,0,0,1,1.65,1.66v2.21a.2.2,0,0,1-.2.2.21.21,0,0,1-.2-.2Z" style="fill:#a6a6a6"></path><path d="M195.36,153.67v3.68a.2.2,0,0,1-.4,0v-.61a1.92,1.92,0,0,1-1.53.81,2,2,0,0,1,0-4.08,1.91,1.91,0,0,1,1.53.8v-.6a.2.2,0,1,1,.4,0Zm-.4,1.84a1.53,1.53,0,1,0-1.53,1.64A1.6,1.6,0,0,0,195,155.51Z" style="fill:#a6a6a6"></path><path d="M202.91,155.14a1.26,1.26,0,1,0-2.51,0v2.26h0a.22.22,0,0,1-.1.11.19.19,0,0,1-.1,0h-.06s0,0,0,0h0l0,0s0,0,0,0h0v0s0,0,0,0v-2.26a1.26,1.26,0,1,0-2.51,0v2.21a.17.17,0,0,1-.09.16.09.09,0,0,1,0,0h-.08a.22.22,0,0,1-.17-.15v-3.73a.19.19,0,0,1,.19-.19.19.19,0,0,1,.2.19v.39a1.65,1.65,0,0,1,2.71.29,1.68,1.68,0,0,1,1.46-.87,1.66,1.66,0,0,1,1.66,1.66v2.21a.2.2,0,0,1-.4,0Z" style="fill:#a6a6a6"></path><path d="M204.71,155.52a2,2,0,0,1,2-2.05,2,2,0,0,1,2,1.9h0v0a.18.18,0,0,1-.19.18H205.1a1.61,1.61,0,0,0,1.58,1.57,1.57,1.57,0,0,0,1.32-.74.19.19,0,0,1,.26-.07.21.21,0,0,1,.07.28,2,2,0,0,1-1.65.93A2,2,0,0,1,204.71,155.52Zm.42-.33h3.08a1.57,1.57,0,0,0-1.53-1.32A1.59,1.59,0,0,0,205.13,155.19Z" style="fill:#a6a6a6"></path><path d="M215.55,155.08a1.3,1.3,0,0,0-2.59,0v2.29a0,0,0,0,1,0,0s0,0,0,0a.22.22,0,0,1-.13.1h-.06a.23.23,0,0,1-.15-.07.25.25,0,0,1,0-.07.13.13,0,0,1,0-.06v-5.42a.21.21,0,0,1,.2-.2.2.2,0,0,1,.21.2v2.14a1.7,1.7,0,0,1,1.29-.6,1.62,1.62,0,0,1,1.7,1.61v2.27a.2.2,0,0,1-.4,0Z" style="fill:#a6a6a6"></path><path d="M217.36,155.52a2,2,0,1,1,3.94-.15h0v0a.18.18,0,0,1-.2.18h-3.34a1.61,1.61,0,0,0,1.58,1.57,1.54,1.54,0,0,0,1.31-.74.2.2,0,0,1,.27-.07.21.21,0,0,1,.06.28,1.93,1.93,0,0,1-1.64.93A2,2,0,0,1,217.36,155.52Zm.42-.33h3.09a1.56,1.56,0,0,0-3.09,0Z" style="fill:#a6a6a6"></path><path d="M222.54,153.68a.2.2,0,0,1,.21-.2.19.19,0,0,1,.19.2v.9a.53.53,0,0,1,.06-.1,2,2,0,0,1,1.63-1,.19.19,0,0,1,.19.2.2.2,0,0,1-.19.2,1.45,1.45,0,0,0-1.18.67,3.25,3.25,0,0,0-.49.94.12.12,0,0,0,0,.07v1.79a.2.2,0,0,1-.19.2.2.2,0,0,1-.21-.2Z" style="fill:#a6a6a6"></path><path d="M225.48,155.52a2,2,0,0,1,2-2.05,2,2,0,0,1,2,1.9h0v0a.18.18,0,0,1-.2.18h-3.34a1.61,1.61,0,0,0,1.58,1.57,1.54,1.54,0,0,0,1.31-.74.2.2,0,0,1,.27-.07.22.22,0,0,1,.07.28,2,2,0,0,1-1.65.93A2,2,0,0,1,225.48,155.52Zm.43-.33H229a1.57,1.57,0,0,0-1.53-1.32A1.59,1.59,0,0,0,225.91,155.19Z" style="fill:#a6a6a6"></path><rect x="132.69" y="176.19" width="65.72" height="20.68" style="fill:#FFC727"></rect><path d="M143.1,186.52a3.76,3.76,0,0,1,3.76-3.69,3.83,3.83,0,0,1,2.37.8.61.61,0,0,1,.11.82.59.59,0,0,1-.82.11,2.58,2.58,0,0,0-1.66-.56,2.67,2.67,0,0,0-1.84.74,2.52,2.52,0,0,0-.75,1.78,2.48,2.48,0,0,0,.75,1.78,2.67,2.67,0,0,0,1.84.74,2.6,2.6,0,0,0,1.66-.56.62.62,0,0,1,.82.11.61.61,0,0,1-.11.82,3.83,3.83,0,0,1-2.37.8A3.75,3.75,0,0,1,143.1,186.52Z" style="fill:#fff"></path><path d="M151.59,189.46a2.55,2.55,0,0,1-.71-1.8,2.68,2.68,0,0,1,.71-1.8,2.39,2.39,0,0,1,1.76-.78,2.26,2.26,0,0,1,1.71.78,2.59,2.59,0,0,1,.72,1.8,2.47,2.47,0,0,1-.72,1.8,2.23,2.23,0,0,1-1.71.78A2.35,2.35,0,0,1,151.59,189.46Zm.41-1.8a1.65,1.65,0,0,0,.37,1.09,1.39,1.39,0,0,0,1,.37,1.34,1.34,0,0,0,.94-.37,1.57,1.57,0,0,0,.4-1.09,1.54,1.54,0,0,0-.4-1.07,1.45,1.45,0,0,0-.94-.39,1.49,1.49,0,0,0-1,.39A1.62,1.62,0,0,0,152,187.66Z" style="fill:#fff"></path><path d="M161.8,187.22v2.45a.53.53,0,0,1-.53.54.54.54,0,0,1-.54-.54v-2.45a1.06,1.06,0,0,0-1.07-1,1,1,0,0,0-1,1v2.45a.2.2,0,0,1,0,.1.55.55,0,0,1-.54.44.53.53,0,0,1-.54-.54v-4a.54.54,0,0,1,.54-.55.55.55,0,0,1,.5.32,2.11,2.11,0,0,1,1.09-.32A2.15,2.15,0,0,1,161.8,187.22Z" style="fill:#fff"></path><path d="M166.12,185.65a.57.57,0,0,1-.57.56h-.26v2.86a.57.57,0,0,1,.57.58.56.56,0,0,1-.57.56,1.15,1.15,0,0,1-1.14-1.14v-2.86h-.29a.57.57,0,1,1,0-1.13h.29V183.6a.57.57,0,0,1,.58-.57.56.56,0,0,1,.56.57v1.48h.26A.57.57,0,0,1,166.12,185.65Z" style="fill:#fff"></path><path d="M169,183.8a.56.56,0,1,1-1.11,0v-.21a.56.56,0,1,1,1.11,0Zm0,1.86v4a.56.56,0,0,1-1.11,0v-4a.56.56,0,1,1,1.11,0Z" style="fill:#fff"></path><path d="M175.08,187.22v2.45a.54.54,0,0,1-.53.54.55.55,0,0,1-.55-.54v-2.45a1,1,0,0,0-1.06-1,1,1,0,0,0-1,1v2.45a.2.2,0,0,1,0,.1.56.56,0,0,1-.54.44.54.54,0,0,1-.55-.54v-4a.55.55,0,0,1,.55-.55.56.56,0,0,1,.5.32,2.11,2.11,0,0,1,1.09-.32A2.15,2.15,0,0,1,175.08,187.22Z" style="fill:#fff"></path><path d="M179.12,190.21a2.14,2.14,0,0,1-2.13-2.13v-2.45a.55.55,0,1,1,1.09,0v2.45a1,1,0,0,0,1,1,1.06,1.06,0,0,0,1.08-1v-2.45a.54.54,0,0,1,.53-.55.58.58,0,0,1,.56.55v2.45A2.17,2.17,0,0,1,179.12,190.21Z" style="fill:#fff"></path><path d="M183,187.65a2.54,2.54,0,0,1,2.51-2.57,2.46,2.46,0,0,1,2.47,2.38v.06a.28.28,0,0,1,0,.09.5.5,0,0,1-.54.41h-3.26a1.36,1.36,0,0,0,.35.67,1.65,1.65,0,0,0,1,.47,1.7,1.7,0,0,0,1.06-.26.57.57,0,0,1,.77,0,.46.46,0,0,1,0,.66,2.59,2.59,0,0,1-4.34-1.88Zm1.12-.5H187a1.66,1.66,0,0,0-1.51-1.09A1.43,1.43,0,0,0,184.14,187.15Z" style="fill:#fff"></path></g><g id="freepik--Cursor--inject-41"><polygon points="325.59 180.34 329.42 189.59 325.59 191.18 321.74 181.86 315.41 186.77 315.41 160.7 333.66 179.13 325.59 180.34" style="fill:#263238"></polygon><rect x="316.25" y="148.59" width="1" height="6.31" style="fill:#263238"></rect><rect x="306.83" y="152.61" width="1" height="6.31" transform="translate(-20.13 262.92) rotate(-45)" style="fill:#263238"></rect><rect x="300.35" y="164.76" width="6.31" height="1" style="fill:#263238"></rect><rect x="304.36" y="174.18" width="6.31" height="1" transform="translate(-33.45 268.61) rotate(-45)" style="fill:#263238"></rect><rect x="316.52" y="175.35" width="1" height="6.31" style="fill:#263238"></rect><rect x="325.94" y="171.34" width="1" height="6.31" transform="translate(-27.77 281.96) rotate(-45)" style="fill:#263238"></rect><rect x="327.11" y="164.49" width="6.31" height="1" style="fill:#263238"></rect><rect x="323.1" y="155.07" width="6.31" height="1" transform="translate(-14.45 276.26) rotate(-45)" style="fill:#263238"></rect></g><g id="freepik--Character--inject-41"><path d="M115.56,151.26S105.3,145.34,96,150.9s-14,19.6-12.62,31.49-8.46,19.54-9.67,28.33,4.5,13,6.35,17.63c2.12,5.33-7.13,24,15.44,28.76,28.23,6,39.4-11.24,36.78-25.7-1.28-7.09-5.16-12.18-5-17.89s4.31-10.18,2.34-17.46-4.78-6.35-5.71-17.74S125.56,153.39,115.56,151.26Z" style="fill:#263238"></path><path d="M97.94,150.66a35.15,35.15,0,0,0-13.71,15.87,32.74,32.74,0,0,0-2.59,10.27c-.38,4.63.25,9-1.56,13.44-2.9,7.15-8.53,13-8.42,21.08a19.86,19.86,0,0,0,3.21,10.53c2.38,3.67,5.81,6.59,7.79,10.51.08.17.33,0,.26-.13-1.65-3.48-4.37-6.17-6.61-9.3a20.14,20.14,0,0,1-4-12.69c.36-7.62,5.91-13.38,8.59-20.28a24.35,24.35,0,0,0,1.3-9.47,34.25,34.25,0,0,1,1.69-11.44A37.07,37.07,0,0,1,98,150.76C98.07,150.72,98,150.62,97.94,150.66Z" style="fill:#263238"></path><path d="M84.38,237s0,.05,0,.06A0,0,0,0,0,84.38,237Z" style="fill:#263238"></path><path d="M132.19,229.36c-.65-3.42-2.37-6.54-3-10-.78-4.11.33-8.16,1.19-12.16,1.22-5.71,1.19-11.12-1.23-16.57-1.57-3.52-3.51-6.82-4.65-10.51a42.86,42.86,0,0,1-1.93-12.35c0-.1-.15-.1-.15,0a39.25,39.25,0,0,0,3.46,17.64c1.48,3.25,3.35,6.31,4.17,9.81,1,4.2.5,8.23-.31,12.4a47.54,47.54,0,0,0-1.21,8.45,24,24,0,0,0,1.84,8.39,29.29,29.29,0,0,1-.53,21.61c0,.12.17.21.22.09A27.91,27.91,0,0,0,132.19,229.36Z" style="fill:#263238"></path><path d="M72.94,209.68c.37-6.27,4.82-10.45,7.58-15.85,2.09-4.07,3.53-8.44,3-13,0-.08-.14-.06-.14,0,.22,6.57-2.64,12.46-6.38,17.89-2.48,3.61-4.55,7.08-4.65,11.48s1.55,8,3.93,11.57c1.7,2.57,3.38,5,4.06,8a32,32,0,0,1,.26,9.16c0,.16.24.16.26,0,.5-4.7.66-9.26-1.63-13.6C76.37,220,72.56,216.06,72.94,209.68Z" style="fill:#263238"></path><path d="M133.36,224.93a38.91,38.91,0,0,0-3.49-6.15c-2.34-3.58-2.69-6.45-1.81-10.63a.08.08,0,0,0-.16,0c-1.21,3.43-1.54,6.29.45,9.51,2.77,4.49,5.49,8.59,6,13.9.87,9.43-4.61,18.1-13.31,22.69a.11.11,0,1,0,.11.18c7.29-3.42,12.48-9.76,13.68-17.34A22.49,22.49,0,0,0,133.36,224.93Z" style="fill:#263238"></path><polygon points="89.46 322.21 87.54 336.64 63.92 455.41 57.16 455.41 75.81 336.64 77.33 322.21 89.46 322.21" style="fill:#FFC727"></polygon><polygon points="89.46 322.21 87.54 336.64 63.92 455.41 57.16 455.41 75.81 336.64 77.33 322.21 89.46 322.21" style="opacity:0.30000000000000004"></polygon><polygon points="153.43 455.41 146.66 455.41 123.04 336.64 121.12 322.21 133.26 322.21 134.77 336.64 153.43 455.41" style="fill:#FFC727"></polygon><polygon points="153.43 455.41 146.66 455.41 123.04 336.64 121.12 322.21 133.26 322.21 134.77 336.64 153.43 455.41" style="opacity:0.30000000000000004"></polygon><rect x="67.04" y="417.9" width="75.39" height="3.39" style="fill:#FFC727"></rect><rect x="67.04" y="417.9" width="75.39" height="3.39" style="opacity:0.30000000000000004"></rect><polygon points="75.81 336.13 87.54 336.13 89.46 322.21 77.33 322.21 75.81 336.13" style="opacity:0.30000000000000004"></polygon><polygon points="134.77 336.13 123.04 336.13 121.12 322.21 133.26 322.21 134.77 336.13" style="opacity:0.30000000000000004"></polygon><rect x="69.43" y="312.63" width="71.73" height="13.94" style="fill:#FFC727"></rect><rect x="69.43" y="312.63" width="71.73" height="13.94" style="opacity:0.30000000000000004"></rect><path d="M184.41,453.82c-2.52,0-69.4-21.63-71.37-24-.24-.27,1.59-6.35,4.23-14.65l0-.16c1.66-5.26,22-45.93,22-45.93l43.2,15.84-20.34,37.52s7.84,6.67,14.52,12.94v0c4.12,3.85,7.67,7.3,8.39,8.38C187,446.6,186.93,453.8,184.41,453.82Z" style="fill:#eb9481"></path><path d="M113,429.81c2,2.38,68.85,24,71.37,24s2.6-7.21.72-10a100.41,100.41,0,0,0-8.38-8.38l0,0c-2.55-2.4-5.28-4.86-7.68-7,8.2,9.16,12.65,22.25-50.9-15.34a15.38,15.38,0,0,0-.81,1.95l-.06.17C114.63,423.45,112.8,429.54,113,429.81Z" style="fill:#263238"></path><path d="M166.75,420.86,119,407.73s37.22-82.43,35.89-86.55c-.88-2.75-59.54-1.58-77.09-16.61-18.16-15.57-5-47.27-5-47.27L122,255.9s-.61,10.31,1.31,11.87c1.27,1,68.83,5.41,82.31,29.9C217.89,319.89,166.75,420.86,166.75,420.86Z" style="fill:#37474f"></path><path d="M154.86,321.18c.23.69-.66,3.65-2.29,8.07L189,372c12-29.11,23.08-62.61,16.64-74.3-13.5-24.49-81-28.86-82.32-29.9-1.91-1.55-1.31-11.87-1.31-11.87l-31.29.89,53.5,62.68C150.52,320,154.63,320.46,154.86,321.18Z" style="fill:#263238"></path><path d="M167.69,410.79a28.5,28.5,0,0,0-3.9-1.34c-1.38-.44-2.76-.88-4.15-1.29-2.72-.81-5.46-1.58-8.22-2.29-5.55-1.43-11.1-2.83-16.69-4.11-2.91-.67-9.14-2.13-9.53-2.06-.18,0-.22.34,0,.4,5.41,1.79,10.9,3.31,16.38,4.85s11,3,16.51,4.3c1.53.35,3.08.66,4.62,1a33.87,33.87,0,0,0,4.9.93C167.72,411.19,167.87,410.88,167.69,410.79Z" style="fill:#263238"></path><path d="M75.59,266.63c.11-1.65.26-3.3.41-4.94,0-.19.31-.2.3,0-.5,6.68-1,13.52.36,20.14a28.64,28.64,0,0,0,9.18,15.75c10,8.9,23.74,11.27,36.53,13.14,7.33,1.08,14.7,1.86,22.09,2.41,3.61.27,7.24.48,10.86.62s7.19.09,10.78.21c1.14,0,2.16.53,2,1.83a9,9,0,0,1-.81,2.28l-1.09,2.64q-2,4.94-4.12,9.86-4.26,10.15-8.67,20.24-8.73,20-18.15,39.78l-2.35,4.89c0,.11-.21,0-.16-.09q9-20,17.72-40c2.89-6.64,5.79-13.28,8.65-19.94q2.13-5,4.25-10,1.06-2.51,2.11-5l1-2.5c.29-.7,1.37-2.37.58-3-.52-.42-1.59-.25-2.21-.25l-2.86,0c-1.81,0-3.63-.05-5.44-.1-3.67-.1-7.34-.26-11-.5-7.18-.45-14.35-1.19-21.48-2.17-12.71-1.74-26.54-3.72-36.87-12a30.51,30.51,0,0,1-10.06-13.95C75.12,279.74,75.15,273.07,75.59,266.63Z" style="fill:#263238"></path><path d="M289.91,388.73c-1.75,1.82-64.1,34.28-67.18,34-.36,0-3.41-5.59-7.47-13.29l-.08-.15c-2.59-4.87-26-45.79-26-45.79L228,342.73l24,39.79s10.25-.9,19.4-1.26h0c5.63-.23,10.58-.34,11.86-.1C286.59,381.81,291.66,386.92,289.91,388.73Z" style="fill:#eb9481"></path><path d="M214.8,408.61c.16.27.28.5.38.68l.08.16c4.06,7.7,7.1,13.28,7.47,13.29,3.08.27,65.44-32.19,67.17-34s-3.31-6.92-6.64-7.55c-1.28-.25-6.23-.15-11.87.09h0c-3.9.16-8,.41-11.39.65C272.56,381.88,288.32,387.28,214.8,408.61Z" style="fill:#263238"></path><path d="M251.62,376l-46.77,24.75s-38.67-74.24-42.84-79c-5.55-6.33-75.69,4.42-92.77-16-17.66-21.14-3.58-48.24-3.58-48.24l53.56-1.28s.29,5.94-2.59,14.7c0,0,61.15-5.07,78.87,11.37C209.1,294.91,251.62,376,251.62,376Z" style="fill:#37474f"></path><path d="M107,276.55a90.17,90.17,0,0,1,8.4-5.4,35.14,35.14,0,0,1,6.39-2.76c1.55-.41,2.24-.54.79.18l-3.9,2,.83,0c1-.07,2.11-.14,3.16-.19,2-.1,4.12-.13,6.18-.19,4.17-.12,8.32.17,12.49.29a.09.09,0,1,1,0,.17c-4.16,0-8.33.28-12.5.36-2.06,0-4.11.14-6.17.23l-3,.12a24.24,24.24,0,0,1-2.56.07l-1.13.57c-3,1.5-6,3.06-8.86,4.77C107,276.73,106.91,276.61,107,276.55Z" style="fill:#263238"></path><path d="M120.43,254.19c-.48,2.54-.89,5.1-1.46,7.62-.27,1.16-.53,2.33-.89,3.46-.31,1-.8,2.05-1.87,2.32-1.23.31-1.65-.73-1.6-1.77a31.16,31.16,0,0,1,.44-3.46c.18-1.31.37-2.62.53-3.94.08-.66.17-1.32.24-2,0-.17.07-1.42.14-1.79,0,0,0,.06.07,0h0s.07,0,.07-.06a.18.18,0,0,0-.07-.19.11.11,0,0,0-.12,0c-.23.14-.23.47-.29.71-.17.65-.34,1.29-.48,1.94-.28,1.22-.55,2.44-.79,3.66l-.69,3.67a5.66,5.66,0,0,0-.08,2.8,2.14,2.14,0,0,0,2.06,1.49,1.92,1.92,0,0,0-.12.25c-.1.25-.16.52-.24.78s-.15.52-.21.79a1.74,1.74,0,0,0-.05.39c0,.15,0,.29,0,.44a.2.2,0,0,0,.39.11c.06-.13.15-.23.22-.36a2.19,2.19,0,0,0,.15-.43c.07-.25.13-.51.18-.77s.11-.51.14-.77a3.7,3.7,0,0,0,0-.47,2.85,2.85,0,0,0,1.42-.63,4.84,4.84,0,0,0,1.36-2.37c.32-1.06.55-2.16.78-3.25a46.63,46.63,0,0,0,1.14-8.15A.23.23,0,0,0,120.43,254.19Z" style="fill:#263238"></path><path d="M94.78,262c-.16,1.25-.23,2.52-.45,3.76s-.47,2.45-.8,3.64a12.44,12.44,0,0,1-1.34,3.32,11.87,11.87,0,0,1-2.29,2.61,20.8,20.8,0,0,1-5.69,3.61A28,28,0,0,1,81,280.07c-.56.16-1.14.3-1.72.41a3.66,3.66,0,0,0-1.39.4.29.29,0,0,0,.05.49,5.14,5.14,0,0,0,2.61-.07,18.7,18.7,0,0,0,7.87-3.16,16.49,16.49,0,0,0,4.19-3.84A12.39,12.39,0,0,0,94.65,269a25.13,25.13,0,0,0,.37-7A.12.12,0,0,0,94.78,262Z" style="fill:#263238"></path><path d="M241.82,367.62a28.26,28.26,0,0,0-3.76,1.7c-1.3.63-2.61,1.26-3.9,1.91-2.54,1.29-5.06,2.6-7.55,4-5,2.77-10,5.57-15,8.47-2.58,1.51-8.12,4.73-8.35,5-.11.15.08.4.24.33,5.16-2.41,10.19-5.07,15.23-7.72s10.06-5.32,15-8.2c1.36-.8,2.69-1.64,4-2.46A34.49,34.49,0,0,0,242,368C242.11,367.88,242,367.56,241.82,367.62Z" style="fill:#263238"></path><path d="M66,270a.18.18,0,0,1,.35,0c.17,11.63,2.27,24.59,11.41,32.73,10,8.92,24.21,9.68,37,9.28,7.32-.23,14.61-.59,21.93-.53s14.78.25,22.1,1a12,12,0,0,1,7.57,3.4,39,39,0,0,1,5.14,7q5.73,9,11.11,18.23,10.71,18.34,19.91,37.49,1.14,2.37,2.26,4.76c.05.11-.1.2-.15.1q-9.34-19.21-20-37.73-5.31-9.25-11-18.32c-1.77-2.84-3.49-5.75-5.46-8.46-1.74-2.39-3.89-4.63-6.83-5.45a27.17,27.17,0,0,0-5.47-.66c-1.87-.13-3.74-.24-5.62-.33q-5.48-.27-11-.35c-7.38-.09-14.74.17-22.11.47-12.8.53-26.79.41-37.6-7.49a30.16,30.16,0,0,1-10.18-13.55,54.53,54.53,0,0,1-3.26-17.25C66,272.88,66,271.42,66,270Z" style="fill:#263238"></path><path d="M143.81,319.11c2.62,0,5.23,0,7.84.06a30.73,30.73,0,0,1,6.5.43c2,.44,3.56.65,5.23,2.82,2.08,2.71,13.57,23.7,18.41,33,1.34,2.58,2.66,5.16,4,7.76s2.55,5.44,3.88,8.12c.05.1-.09.19-.14.09-1.19-2.24-2.5-4.42-3.72-6.65s-2.41-4.47-3.59-6.71q-3.6-6.79-7.21-13.59c-2.39-4.49-5.26-8.85-7.69-13.31-2-3.76-4.81-8.88-6.69-9.6a30.34,30.34,0,0,0-8.13-1.78c-2.88-.14-5.77-.24-8.65-.43A.1.1,0,0,1,143.81,319.11Z" style="fill:#263238"></path><path d="M106.61,211.88c6,10.47,29.88,42.76,37.39,43.84,7.82,1.11,36.65-1.36,41.91-7.55,2.57-3-1.58-29-5.58-27.57s-28.66,7.41-31.82,7S119.78,202.34,110.36,197C94.11,187.79,103.37,206.25,106.61,211.88Z" style="fill:#eb9481"></path><path d="M174,221.43l6.09,32.2s-28.88,5.92-37.4,3.43-32.31-36.33-39.25-49.71-.87-16.9,11.58-8.56,32.43,27,34.37,27.1S174,221.43,174,221.43Z" style="fill:#FFC727"></path><path d="M150.43,230.08a12.73,12.73,0,0,0-.87,3.6,12.74,12.74,0,0,0,1.76-3.26,12.92,12.92,0,0,0,.87-3.59A13.17,13.17,0,0,0,150.43,230.08ZM131,220a13,13,0,0,0-3.59-.87,12.54,12.54,0,0,0,3.25,1.76,12.68,12.68,0,0,0,3.59.88A12.86,12.86,0,0,0,131,220Zm37.11,18.67a12.66,12.66,0,0,0-3.59-.87,14.06,14.06,0,0,0,6.84,2.63A13.33,13.33,0,0,0,168.1,238.65ZM153.74,253.5a12.71,12.71,0,0,0-1.93-3.15,13.66,13.66,0,0,0,1.05,3.54,13.34,13.34,0,0,0,1.93,3.15A12.83,12.83,0,0,0,153.74,253.5ZM134,242.75a12.91,12.91,0,0,0-3.16,1.92,14.38,14.38,0,0,0,6.7-3A12.72,12.72,0,0,0,134,242.75Zm-19-44-.77-.51h0l-.71.3a13.23,13.23,0,0,0-3.16,1.92,12.89,12.89,0,0,0,3.55-1.05c.41-.19.81-.38,1.2-.59Z" style="fill:#fff"></path><path d="M168.77,239c-.49-2.55-2.38-12.76-2.66-15.33,0,0,.06-.07.08,0,.74,2.4,2.9,12.42,3.4,15A142.9,142.9,0,0,1,172.11,254c0,.09-.14.14-.17.05C170.55,249.09,169.74,244,168.77,239Z" style="fill:#263238"></path><path d="M164.58,256.27c-8.28,1.18-17.64,2-21.9.79-8.52-2.5-32.31-36.33-39.25-49.71-4.36-8.42-3.59-12.93.69-13Z" style="opacity:0.1"></path><path d="M126.42,267.58l-66.65-.84S78,211.31,92.15,197.11c6.43-6.46,12.48-5.25,17.51-.81,1.25,1.11,16.4,22.33,17.53,29.42,1,6.28-4.1,12.56-4.1,12.56Z" style="fill:#FFC727"></path><path d="M105.23,237.34a55.45,55.45,0,0,1,8.25.18c1.36.16,2.7.37,4,.61.67.12,1.34.22,2,.32a8.93,8.93,0,0,0,2.13.09c.07,0,.08.09,0,.1a15.33,15.33,0,0,1-2,.25,16.07,16.07,0,0,1-2-.09c-1.38-.14-2.76-.35-4.14-.5-2.78-.31-5.57-.63-8.37-.74C105.09,237.56,105.1,237.34,105.23,237.34Z" style="fill:#263238"></path><path d="M98.85,240.69a58.43,58.43,0,0,1,6.69-1.27c1.13-.15,2.26-.23,3.4-.28.54,0,1.08,0,1.62,0s1.2.06,1.8,0c.06,0,.07.1,0,.1-.56,0-1.12.16-1.68.23l-1.69.19c-1.13.13-2.25.27-3.38.39-2.26.24-4.5.51-6.75.83C98.75,240.89,98.74,240.72,98.85,240.69Z" style="fill:#263238"></path><path d="M112,199.34a11,11,0,0,0-1.66,1.16,10.76,10.76,0,0,0,2.14-.5Zm-10.83,46.75A13.27,13.27,0,0,0,98,248a14.15,14.15,0,0,0,6.7-3A13.07,13.07,0,0,0,101.19,246.09ZM73,249a12.66,12.66,0,0,0-1.93-3.14,13.11,13.11,0,0,0,1,3.53A12.89,12.89,0,0,0,74,252.59,12.89,12.89,0,0,0,73,249Zm40.89-18a13.5,13.5,0,0,0-1.92-3.15,12.72,12.72,0,0,0,1,3.54,12.91,12.91,0,0,0,1.92,3.16A13.25,13.25,0,0,0,113.87,231Zm-26.75,1.62a12.94,12.94,0,0,0-3.59-.88,12.61,12.61,0,0,0,3.26,1.77,13.29,13.29,0,0,0,3.59.87A13.06,13.06,0,0,0,87.12,232.65ZM60.67,264.07c-.11.31-.2.6-.29.86a11.18,11.18,0,0,0,2.78.58A11.34,11.34,0,0,0,60.67,264.07Zm55.89-6.83a13.1,13.1,0,0,0-.87,3.59,14.06,14.06,0,0,0,2.63-6.84A13.51,13.51,0,0,0,116.56,257.24Zm-28,5.11a13,13,0,0,0-.87,3.59,14.31,14.31,0,0,0,2.63-6.85A13.57,13.57,0,0,0,88.55,262.35ZM96,212.94a12.81,12.81,0,0,0-.87,3.6,14.33,14.33,0,0,0,2.63-6.84A13.11,13.11,0,0,0,96,212.94Z" style="fill:#fff"></path><path d="M82.76,204.83c-18,22.06-37.55,58.7-27.95,65.79,8.77,6.47,39.08-1.75,58-10.31,3.59-1.63-13-33.3-16.66-31.17a105.66,105.66,0,0,1-11.91,6.14c-1,.34,4.38-7.05,9.93-24.4C99.77,193.23,93,192.22,82.76,204.83Z" style="fill:#eb9481"></path><path d="M142.84,224.22c.22,3.77-9.13,3.53-9.13,3.53a7,7,0,0,1,3,3.64c.85,2.74-3.08,5.28-3.08,5.28a8.58,8.58,0,0,1,2.59,4.35c.55,2.71-3,5.83-3,5.83a7.58,7.58,0,0,1-.14,5.27c-2,4.41-9.41,4.9-13.95,6.11a97.28,97.28,0,0,0-14.82,5.6L94,230.38s19.3-12.89,24.88-12.92C123.54,217.44,142.5,218.46,142.84,224.22Z" style="fill:#eb9481"></path><path d="M133.63,227.65c-5-1.18-10.28-1.15-15.38-1.06a.09.09,0,1,0,0,.17c5.06-.14,10.28,1.07,15.34,1.13A.12.12,0,0,0,133.63,227.65Z" style="fill:#263238"></path><path d="M133.51,236.3a12.82,12.82,0,0,0-3.5,0c-1.24.08-2.48.18-3.72.31q-3.71.36-7.4.92c-.11,0-.11.19,0,.18,2.46-.24,4.93-.45,7.41-.58l3.72-.18a16.3,16.3,0,0,0,3.49-.3A.18.18,0,0,0,133.51,236.3Z" style="fill:#263238"></path><path d="M133.1,246.86A9.3,9.3,0,0,0,130,247c-1.13.14-2.25.27-3.38.39-2.25.25-4.51.49-6.77.66-.11,0-.11.19,0,.18,2.3-.16,4.59-.29,6.89-.47l3.38-.28a8.65,8.65,0,0,0,3-.53S133.15,246.87,133.1,246.86Z" style="fill:#263238"></path><path d="M93.05,230.05l9.29,36.07s-45,14.35-50.37,3.05,19.21-55.62,34-68.68,10,6.53,9.66,8.1c-1.73,6.95-10.51,25.33-10.51,25.33Z" style="fill:#FFC727"></path><path d="M88.55,262.35a13,13,0,0,0-.87,3.59,14.31,14.31,0,0,0,2.63-6.85A13.57,13.57,0,0,0,88.55,262.35Zm-28.64,1.4a12.57,12.57,0,0,0-3.59-.86,13.17,13.17,0,0,0,3.25,1.76,12.73,12.73,0,0,0,3.59.86A12.83,12.83,0,0,0,59.91,263.75Zm27.55-31-1.15.56.48.19a13.29,13.29,0,0,0,3.59.87A12.17,12.17,0,0,0,87.46,232.79Zm-1.88.23.36-.77a11.19,11.19,0,0,0-2.41-.48A10.93,10.93,0,0,0,85.58,233ZM73,249a12.66,12.66,0,0,0-1.93-3.14,13.11,13.11,0,0,0,1,3.53A12.89,12.89,0,0,0,74,252.59,12.89,12.89,0,0,0,73,249Zm.68-33.88-1,1.42q.58-.21,1.14-.45A12.91,12.91,0,0,0,77,214.21,13.21,13.21,0,0,0,73.66,215.16Z" style="fill:#fff"></path><path d="M92.26,230.12c-5.14,2.13-18.52,9.71-21.38,12.68-.09.09,0,.23.11.15,2.86-2.25,19.4-11.46,22-12.62a4.16,4.16,0,0,0,.21.4c.1.12.16,0,.15-.07a5.65,5.65,0,0,0-.24-.88Z" style="fill:#263238"></path><path d="M89.44,250.73c-.63-2.52-3.08-12.61-3.49-15.16,0,0,.06-.07.07,0,.88,2.35,3.58,12.24,4.22,14.76a141.64,141.64,0,0,1,3.35,15.2c0,.09-.13.15-.16.05C91.77,260.72,90.68,255.69,89.44,250.73Z" style="fill:#263238"></path><path d="M84.8,234.16c1.26-3.18,2.85-6.23,4.26-9.35s2.88-6.2,4.17-9.35c0,0,.09,0,.08,0-.78,2.14-1.56,4.28-2.4,6.39.27-.34.53-.69.77-1,.45-.65.86-1.32,1.26-2a0,0,0,0,1,.07,0A10.68,10.68,0,0,1,91.86,221a15.56,15.56,0,0,1-1.15,1.4c-.35.86-.7,1.72-1.08,2.57-1.4,3.16-2.44,6.26-4.3,9.17C85.27,234.24,84.76,234.26,84.8,234.16Z" style="fill:#263238"></path><path d="M58.66,272.94c9.3,1.31,38.52-5.46,43.5-6.76-.09-.53-.08-.72-.21-1.47,0-.1.13-.15.16,0,.18.71.73,2.11.54,2.2-2.37,1.08-34.92,8.5-44,6.31C58.53,273.13,58.52,272.92,58.66,272.94Z" style="fill:#263238"></path><polygon points="133.54 261.91 173.61 266.43 187.59 210.58 147.52 206.05 133.54 261.91" style="fill:#37474f"></polygon><polygon points="135.51 262.13 175.58 266.66 189.56 210.8 149.49 206.28 135.51 262.13" style="fill:#455a64"></polygon><path d="M168.08,234.58A4.38,4.38,0,0,1,163.4,238a3.54,3.54,0,0,1-3.12-4.3,4.37,4.37,0,0,1,4.68-3.42A3.54,3.54,0,0,1,168.08,234.58Z" style="fill:#fff"></path><path d="M189.4,222.26c1.76,4.63,6.66,10.61,6.81,14.3a4.22,4.22,0,0,1-2.7,4.26s3.49,2.11,3.07,5.48c-.21,1.73-3.17,2.91-3.17,2.91s2.73,1.81,2.17,4.78c-.44,2.37-3.34,3.19-3.34,3.19s1.81,3,.58,5.23c-2.48,4.59-23.09,2.94-25.66-4.91-1.2-3.65,3.81-3,3.81-3s-7-2.71-6.74-7,6.69-3,6.69-3-6.73-2.69-6-7.08c.72-4.57,7-2.19,7-2.19s-4.33-3.47-3-6.71c2.14-5.35,10.26,2.24,14.87,1.53l3.1-7.26Z" style="fill:#eb9481"></path><path d="M193,229.08c-1.28-4.54,4.61-9.54,4-14.06-.82-6.11-8-.76-10.25,7.84l-.53,7Z" style="fill:#eb9481"></path><path d="M191.8,257.38c.07,0,.09.1,0,.11a36,36,0,0,1-21.13-3c-.2-.1-.12-.48.12-.41A73.64,73.64,0,0,0,191.8,257.38Z" style="fill:#263238"></path><path d="M193.51,249.26c.08,0,.08.13,0,.15-7.13,1.1-16-.16-22.85-4.67-.23-.16-.29-.53,0-.37C175.41,247,186.83,249.29,193.51,249.26Z" style="fill:#263238"></path><path d="M171.44,234.82c6.69,4.07,14,5.59,21.78,6.06.1,0,.08.15,0,.17-3.85.8-8.76,0-12.53-1a20.65,20.65,0,0,1-9.39-5C171.19,235,171.29,234.73,171.44,234.82Z" style="fill:#263238"></path><path d="M97.83,195.55c.22,1.18,5.49,9,10.84,9,1.74,0,2.11-9.54,2.11-9.54l.19-.69,2.61-9.76-11.25-7.91-1.63-1s-.54,2.72-1.18,6.11q0,.23-.09.48c0,.19-.08.37-.11.55-.11.5-.21,1-.3,1.54s-.14.77-.2,1.18-.13.82-.2,1.24A65.15,65.15,0,0,0,97.83,195.55Z" style="fill:#eb9481"></path><path d="M99.52,181.69A20.28,20.28,0,0,0,111,194.3l2.61-9.76-11.25-7.91-1.63-1S100.16,178.3,99.52,181.69Z" style="fill:#263238"></path><path d="M126.1,166c5.24,16.93-4.31,22-8,23.11-3.32,1-14.74,4.08-21.7-12.22s-.75-24.09,6.71-26.83S120.85,149.05,126.1,166Z" style="fill:#eb9481"></path><path d="M122.8,163.79a9.87,9.87,0,0,1-1.22.09,1.94,1.94,0,0,1-1.26-.15.62.62,0,0,1-.21-.74,1.55,1.55,0,0,1,1.38-.77,2.24,2.24,0,0,1,1.61.38A.67.67,0,0,1,122.8,163.79Z" style="fill:#263238"></path><path d="M111.1,167.1a11.37,11.37,0,0,0,1.09-.58,2,2,0,0,0,1-.79A.64.64,0,0,0,113,165a1.57,1.57,0,0,0-1.59.07,2.3,2.3,0,0,0-1.16,1.18A.67.67,0,0,0,111.1,167.1Z" style="fill:#263238"></path><path d="M115,170.51s-.07.08-.06.13c.4,1.14.66,2.51-.26,3.22,0,0,0,.08,0,.06C115.92,173.35,115.56,171.53,115,170.51Z" style="fill:#263238"></path><path d="M113.6,169.63c-1.9.43-.89,4.19.87,3.79S115.19,169.26,113.6,169.63Z" style="fill:#263238"></path><path d="M112.91,170c-.27.3-.49.77-.88.91s-.89-.13-1.3-.43c0,0-.06,0,0,.06.18.73.66,1.39,1.46,1.29s1.07-.87,1-1.64C113.19,170.07,113,169.9,112.91,170Z" style="fill:#263238"></path><path d="M121.41,168.52c0-.05.11,0,.12.08.27,1.18.77,2.48,1.93,2.59,0,0,.05.07,0,.07C122.13,171.42,121.48,169.68,121.41,168.52Z" style="fill:#263238"></path><path d="M122.14,167c1.84-.63,3,3.1,1.26,3.68S120.59,167.56,122.14,167Z" style="fill:#263238"></path><path d="M123,167c.35.11.75.38,1.11.3s.6-.6.74-1.06c0-.05.06,0,.07,0,.24.71.23,1.52-.42,1.87s-1.23-.16-1.61-.82C122.81,167.23,122.85,167,123,167Z" style="fill:#263238"></path><path d="M117.44,180.11a1.85,1.85,0,0,0,1.14.48,3.19,3.19,0,0,0,1.2-.58,0,0,0,0,1,.07.05,1.64,1.64,0,0,1-1.36,1,1.28,1.28,0,0,1-1.15-.84C117.3,180.13,117.39,180.08,117.44,180.11Z" style="fill:#263238"></path><path d="M121.11,174.55s.73,1.66,1,2.48c0,.08-.16.17-.44.27h0a4,4,0,0,1-4.19-.39c-.08-.06,0-.17.09-.14a6.15,6.15,0,0,0,3.84,0c0-.25-1.34-2.82-1.21-2.87a7.78,7.78,0,0,1,2-.1c-1.41-3.52-3.38-6.78-4.74-10.3,0-.13.13-.22.2-.11a61.08,61.08,0,0,1,5.58,10.88C123.34,174.73,121.48,174.59,121.11,174.55Z" style="fill:#263238"></path><path d="M97.47,176.16c3.29,0,3.17-7.54,3.17-7.54s13.52-4.12,13.25-15.52a19.21,19.21,0,0,0,10.94,9.19s-2.07-12.28-12.15-13.42c0,0-12.71-2.86-18.29,7.65S95.26,176.17,97.47,176.16Z" style="fill:#263238"></path><path d="M113.83,152.26a12.41,12.41,0,0,1,0,5.22,12.85,12.85,0,0,1-2,4.88,11.84,11.84,0,0,1-.82,1l-.42.52-.47.46c-.33.3-.64.61-1,.9l-1.07.77-.55.37-.57.32-1.16.62c-.8.34-1.62.64-2.44.92.75-.45,1.53-.81,2.26-1.26l1.07-.71.54-.35c.17-.12.32-.27.49-.4.32-.28.65-.55,1-.81s.6-.6.89-.9l.45-.44.39-.5a9.1,9.1,0,0,0,.75-1,14.6,14.6,0,0,0,2.09-4.57,14.9,14.9,0,0,0,.47-2.5A15.83,15.83,0,0,0,113.83,152.26Z" style="fill:#263238"></path><path d="M98.84,182.37a3.58,3.58,0,0,0,.85,0,2.54,2.54,0,0,0,.82-.16,2.48,2.48,0,0,0,.93-.54,2.71,2.71,0,0,0,.54-.65,3.34,3.34,0,0,0,.45-1.11l-2-4.42s-5-4.58-7.12-2.7S95.73,181.93,98.84,182.37Z" style="fill:#eb9481"></path><path d="M94.7,174.86a0,0,0,0,0,0,.08c2.2.38,3.67,2,4.84,3.8a1.66,1.66,0,0,0-2.52.09.06.06,0,0,0,.08.09,1.86,1.86,0,0,1,2.12.2,8.64,8.64,0,0,1,1.3,1.4c.13.16.43,0,.32-.2l0,0C100.31,177.69,97.52,174.52,94.7,174.86Z" style="fill:#263238"></path><path d="M98.93,181.59A.82.82,0,0,0,100,182a.84.84,0,0,0,.42-1.09.83.83,0,0,0-1.08-.42A.81.81,0,0,0,98.93,181.59Z" style="fill:#fff"></path><path d="M97,180.74a.58.58,0,1,0,1.07-.47.58.58,0,1,0-1.07.47Z" style="fill:#fff"></path><path d="M115,198.79s-.93,7.78-7.42,8.51-17.23-9.92-17.23-9.92,5.37-5.21,12.87-4.93C109.27,192.67,115,198.79,115,198.79Z" style="fill:#eb9481"></path></g></svg>
