<?xml version="1.0" encoding="UTF-8" standalone="no"?>
<!-- Created with Inkscape (http://www.inkscape.org/) -->

<svg
   xmlns:dc="http://purl.org/dc/elements/1.1/"
   xmlns:cc="http://creativecommons.org/ns#"
   xmlns:rdf="http://www.w3.org/1999/02/22-rdf-syntax-ns#"
   xmlns:svg="http://www.w3.org/2000/svg"
   xmlns="http://www.w3.org/2000/svg"
   xmlns:xlink="http://www.w3.org/1999/xlink"
   xmlns:sodipodi="http://sodipodi.sourceforge.net/DTD/sodipodi-0.dtd"
   xmlns:inkscape="http://www.inkscape.org/namespaces/inkscape"
   width="138"
   height="139"
   id="svg4577"
   version="1.1"
   inkscape:version="0.48.4 r9939"
   sodipodi:docname="ego-onload-small-viewport.svg">
  <defs
     id="defs3">
    <linearGradient
       inkscape:collect="always"
       xlink:href="#linearGradient5541-4-9"
       id="linearGradient10685"
       gradientUnits="userSpaceOnUse"
       gradientTransform="matrix(0.15362219,0,0,5.5164261,160.34718,-2057.4152)"
       x1="1368.8352"
       y1="307.22827"
       x2="1368.8352"
       y2="315.50342" />
    <linearGradient
       inkscape:collect="always"
       id="linearGradient5541-4-9">
      <stop
         style="stop-color:#666666;stop-opacity:1;"
         offset="0"
         id="stop5543-0-8" />
      <stop
         style="stop-color:#666666;stop-opacity:0;"
         offset="1"
         id="stop5545-6-4" />
    </linearGradient>
    <linearGradient
       inkscape:collect="always"
       xlink:href="#linearGradient5541-4-9-0"
       id="linearGradient10687"
       gradientUnits="userSpaceOnUse"
       gradientTransform="matrix(0.15362219,0,0,5.5164261,-552.08515,-1036.7391)"
       x1="1368.8352"
       y1="307.22827"
       x2="1368.8352"
       y2="315.50342" />
    <linearGradient
       inkscape:collect="always"
       id="linearGradient5541-4-9-0">
      <stop
         style="stop-color:#666666;stop-opacity:1;"
         offset="0"
         id="stop5543-0-8-6" />
      <stop
         style="stop-color:#666666;stop-opacity:0;"
         offset="1"
         id="stop5545-6-4-9" />
    </linearGradient>
    <inkscape:path-effect
       effect="spiro"
       id="path-effect3812-7-1-8-1-8-4-4-1-8-4-8"
       is_visible="true" />
    <inkscape:path-effect
       effect="spiro"
       id="path-effect2999-8-1-7-7-6-8-8-2-4-7-2-6"
       is_visible="true" />
    <inkscape:path-effect
       effect="spiro"
       id="path-effect3005-1-8-1-4-4-8-2-6-0-3-4-7-5"
       is_visible="true" />
    <inkscape:path-effect
       effect="spiro"
       id="path-effect3779-7-2-5-0-0-5-4-5-9-9-2-7-0"
       is_visible="true" />
    <inkscape:path-effect
       effect="spiro"
       id="path-effect3783-4-4-2-9-0-7-5-0-7-8-7-9-2"
       is_visible="true" />
    <inkscape:path-effect
       effect="spiro"
       id="path-effect3787-0-5-7-4-5-6-5-9-3-8-79-3-8"
       is_visible="true" />
    <inkscape:path-effect
       effect="spiro"
       id="path-effect3793-9-5-6-8-9-1-1-0-7-0-3-19-6"
       is_visible="true" />
    <inkscape:path-effect
       effect="spiro"
       id="path-effect3812-7-1-8-1-8-4-4-1-8-4-8-8"
       is_visible="true" />
    <inkscape:path-effect
       effect="spiro"
       id="path-effect2999-8-1-7-7-6-8-8-2-4-7-2-6-2"
       is_visible="true" />
    <inkscape:path-effect
       effect="spiro"
       id="path-effect3005-1-8-1-4-4-8-2-6-0-3-4-7-5-4"
       is_visible="true" />
    <inkscape:path-effect
       effect="spiro"
       id="path-effect3779-7-2-5-0-0-5-4-5-9-9-2-7-0-5"
       is_visible="true" />
    <inkscape:path-effect
       effect="spiro"
       id="path-effect3783-4-4-2-9-0-7-5-0-7-8-7-9-2-5"
       is_visible="true" />
    <inkscape:path-effect
       effect="spiro"
       id="path-effect3787-0-5-7-4-5-6-5-9-3-8-79-3-8-1"
       is_visible="true" />
    <inkscape:path-effect
       effect="spiro"
       id="path-effect3793-9-5-6-8-9-1-1-0-7-0-3-19-6-7"
       is_visible="true" />
    <inkscape:path-effect
       effect="spiro"
       id="path-effect3812-7-1-8-1-8-4-4-1-8-4-8-8-1"
       is_visible="true" />
    <inkscape:path-effect
       effect="spiro"
       id="path-effect2999-8-1-7-7-6-8-8-2-4-7-2-6-2-1"
       is_visible="true" />
    <inkscape:path-effect
       effect="spiro"
       id="path-effect3005-1-8-1-4-4-8-2-6-0-3-4-7-5-4-5"
       is_visible="true" />
    <inkscape:path-effect
       effect="spiro"
       id="path-effect3779-7-2-5-0-0-5-4-5-9-9-2-7-0-5-2"
       is_visible="true" />
    <inkscape:path-effect
       effect="spiro"
       id="path-effect3783-4-4-2-9-0-7-5-0-7-8-7-9-2-5-7"
       is_visible="true" />
    <inkscape:path-effect
       effect="spiro"
       id="path-effect3787-0-5-7-4-5-6-5-9-3-8-79-3-8-1-6"
       is_visible="true" />
    <inkscape:path-effect
       effect="spiro"
       id="path-effect3793-9-5-6-8-9-1-1-0-7-0-3-19-6-7-1"
       is_visible="true" />
    <inkscape:path-effect
       effect="spiro"
       id="path-effect3812-7-1-8-1-8-4-4-1-8-4-8-8-1-4"
       is_visible="true" />
    <inkscape:path-effect
       effect="spiro"
       id="path-effect2999-8-1-7-7-6-8-8-2-4-7-2-6-2-1-2"
       is_visible="true" />
    <inkscape:path-effect
       effect="spiro"
       id="path-effect3005-1-8-1-4-4-8-2-6-0-3-4-7-5-4-5-3"
       is_visible="true" />
    <inkscape:path-effect
       effect="spiro"
       id="path-effect3779-7-2-5-0-0-5-4-5-9-9-2-7-0-5-2-2"
       is_visible="true" />
    <inkscape:path-effect
       effect="spiro"
       id="path-effect3783-4-4-2-9-0-7-5-0-7-8-7-9-2-5-7-2"
       is_visible="true" />
    <inkscape:path-effect
       effect="spiro"
       id="path-effect3787-0-5-7-4-5-6-5-9-3-8-79-3-8-1-6-1"
       is_visible="true" />
    <inkscape:path-effect
       effect="spiro"
       id="path-effect3793-9-5-6-8-9-1-1-0-7-0-3-19-6-7-1-6"
       is_visible="true" />
    <inkscape:path-effect
       effect="spiro"
       id="path-effect3793-9-5-6-8-9-1-1-0-7-0-3-19-6-1-8-2"
       is_visible="true" />
    <inkscape:path-effect
       effect="spiro"
       id="path-effect3787-0-5-7-4-5-6-5-9-3-8-79-3-8-1-4-9"
       is_visible="true" />
    <inkscape:path-effect
       effect="spiro"
       id="path-effect3783-4-4-2-9-0-7-5-0-7-8-7-9-2-4-9-1"
       is_visible="true" />
    <inkscape:path-effect
       effect="spiro"
       id="path-effect3779-7-2-5-0-0-5-4-5-9-9-2-7-0-3-0-3"
       is_visible="true" />
    <inkscape:path-effect
       effect="spiro"
       id="path-effect3005-1-8-1-4-4-8-2-6-0-3-4-7-5-3-4-5"
       is_visible="true" />
    <inkscape:path-effect
       effect="spiro"
       id="path-effect2999-8-1-7-7-6-8-8-2-4-7-2-6-2-7-9"
       is_visible="true" />
    <inkscape:path-effect
       effect="spiro"
       id="path-effect3812-7-1-8-1-8-4-4-1-8-4-8-1-1-8"
       is_visible="true" />
    <inkscape:path-effect
       effect="spiro"
       id="path-effect3812-7-1-8-1-8-4-4-1-8-4-8-4"
       is_visible="true" />
    <inkscape:path-effect
       effect="spiro"
       id="path-effect2999-8-1-7-7-6-8-8-2-4-7-2-6-0"
       is_visible="true" />
    <inkscape:path-effect
       effect="spiro"
       id="path-effect3005-1-8-1-4-4-8-2-6-0-3-4-7-5-7"
       is_visible="true" />
    <inkscape:path-effect
       effect="spiro"
       id="path-effect3779-7-2-5-0-0-5-4-5-9-9-2-7-0-6"
       is_visible="true" />
    <inkscape:path-effect
       effect="spiro"
       id="path-effect3783-4-4-2-9-0-7-5-0-7-8-7-9-2-3"
       is_visible="true" />
    <inkscape:path-effect
       effect="spiro"
       id="path-effect3787-0-5-7-4-5-6-5-9-3-8-79-3-8-6"
       is_visible="true" />
    <inkscape:path-effect
       effect="spiro"
       id="path-effect3793-9-5-6-8-9-1-1-0-7-0-3-19-6-15"
       is_visible="true" />
    <inkscape:path-effect
       effect="spiro"
       id="path-effect3812-7-1-8-1-8-4-4-1-8-4-8-17-5"
       is_visible="true" />
    <inkscape:path-effect
       effect="spiro"
       id="path-effect2999-8-1-7-7-6-8-8-2-4-7-2-6-4-7"
       is_visible="true" />
    <inkscape:path-effect
       effect="spiro"
       id="path-effect3005-1-8-1-4-4-8-2-6-0-3-4-7-5-0-4"
       is_visible="true" />
    <inkscape:path-effect
       effect="spiro"
       id="path-effect3779-7-2-5-0-0-5-4-5-9-9-2-7-0-9-44"
       is_visible="true" />
    <inkscape:path-effect
       effect="spiro"
       id="path-effect3783-4-4-2-9-0-7-5-0-7-8-7-9-2-48-44"
       is_visible="true" />
    <inkscape:path-effect
       effect="spiro"
       id="path-effect3787-0-5-7-4-5-6-5-9-3-8-79-3-8-8-2"
       is_visible="true" />
    <inkscape:path-effect
       effect="spiro"
       id="path-effect3793-9-5-6-8-9-1-1-0-7-0-3-19-6-2-9"
       is_visible="true" />
    <inkscape:path-effect
       effect="spiro"
       id="path-effect3812-7-1-8-1-8-4-4-1-8-4-8-17-5-7"
       is_visible="true" />
    <inkscape:path-effect
       effect="spiro"
       id="path-effect2999-8-1-7-7-6-8-8-2-4-7-2-6-4-7-6"
       is_visible="true" />
    <inkscape:path-effect
       effect="spiro"
       id="path-effect3005-1-8-1-4-4-8-2-6-0-3-4-7-5-0-4-1"
       is_visible="true" />
    <inkscape:path-effect
       effect="spiro"
       id="path-effect3779-7-2-5-0-0-5-4-5-9-9-2-7-0-9-44-8"
       is_visible="true" />
    <inkscape:path-effect
       effect="spiro"
       id="path-effect3783-4-4-2-9-0-7-5-0-7-8-7-9-2-48-44-9"
       is_visible="true" />
    <inkscape:path-effect
       effect="spiro"
       id="path-effect3787-0-5-7-4-5-6-5-9-3-8-79-3-8-8-2-2"
       is_visible="true" />
    <inkscape:path-effect
       effect="spiro"
       id="path-effect3793-9-5-6-8-9-1-1-0-7-0-3-19-6-2-9-7"
       is_visible="true" />
    <inkscape:path-effect
       effect="spiro"
       id="path-effect3812-7-1-8-1-8-4-4-1-8-4-8-17-39"
       is_visible="true" />
    <inkscape:path-effect
       effect="spiro"
       id="path-effect2999-8-1-7-7-6-8-8-2-4-7-2-6-4-1"
       is_visible="true" />
    <inkscape:path-effect
       effect="spiro"
       id="path-effect3005-1-8-1-4-4-8-2-6-0-3-4-7-5-0-2"
       is_visible="true" />
    <inkscape:path-effect
       effect="spiro"
       id="path-effect3779-7-2-5-0-0-5-4-5-9-9-2-7-0-9-8"
       is_visible="true" />
    <inkscape:path-effect
       effect="spiro"
       id="path-effect3783-4-4-2-9-0-7-5-0-7-8-7-9-2-48-8"
       is_visible="true" />
    <inkscape:path-effect
       effect="spiro"
       id="path-effect3787-0-5-7-4-5-6-5-9-3-8-79-3-8-8-1"
       is_visible="true" />
    <inkscape:path-effect
       effect="spiro"
       id="path-effect3793-9-5-6-8-9-1-1-0-7-0-3-19-6-2-8"
       is_visible="true" />
    <inkscape:path-effect
       effect="spiro"
       id="path-effect3812-7-1-8-1-8-4-4-1-8-4-8-8-2"
       is_visible="true" />
    <inkscape:path-effect
       effect="spiro"
       id="path-effect2999-8-1-7-7-6-8-8-2-4-7-2-6-5-2"
       is_visible="true" />
    <inkscape:path-effect
       effect="spiro"
       id="path-effect3005-1-8-1-4-4-8-2-6-0-3-4-7-5-8-0"
       is_visible="true" />
    <inkscape:path-effect
       effect="spiro"
       id="path-effect3779-7-2-5-0-0-5-4-5-9-9-2-7-0-39-1"
       is_visible="true" />
    <inkscape:path-effect
       effect="spiro"
       id="path-effect3783-4-4-2-9-0-7-5-0-7-8-7-9-2-44-2"
       is_visible="true" />
    <inkscape:path-effect
       effect="spiro"
       id="path-effect3787-0-5-7-4-5-6-5-9-3-8-79-3-8-69-7"
       is_visible="true" />
    <inkscape:path-effect
       effect="spiro"
       id="path-effect3793-9-5-6-8-9-1-1-0-7-0-3-19-6-8-7"
       is_visible="true" />
    <inkscape:path-effect
       effect="spiro"
       id="path-effect3812-7-1-8-1-8-4-4-1-8-4-8-8-2-9"
       is_visible="true" />
    <inkscape:path-effect
       effect="spiro"
       id="path-effect2999-8-1-7-7-6-8-8-2-4-7-2-6-5-2-5"
       is_visible="true" />
    <inkscape:path-effect
       effect="spiro"
       id="path-effect3005-1-8-1-4-4-8-2-6-0-3-4-7-5-8-0-4"
       is_visible="true" />
    <inkscape:path-effect
       effect="spiro"
       id="path-effect3779-7-2-5-0-0-5-4-5-9-9-2-7-0-39-1-3"
       is_visible="true" />
    <inkscape:path-effect
       effect="spiro"
       id="path-effect3783-4-4-2-9-0-7-5-0-7-8-7-9-2-44-2-1"
       is_visible="true" />
    <inkscape:path-effect
       effect="spiro"
       id="path-effect3787-0-5-7-4-5-6-5-9-3-8-79-3-8-69-7-2"
       is_visible="true" />
    <inkscape:path-effect
       effect="spiro"
       id="path-effect3793-9-5-6-8-9-1-1-0-7-0-3-19-6-8-7-3"
       is_visible="true" />
    <inkscape:path-effect
       effect="spiro"
       id="path-effect3812-7-1-8-1-8-4-4-1-8-4-8-8-1-4-2"
       is_visible="true" />
    <inkscape:path-effect
       effect="spiro"
       id="path-effect2999-8-1-7-7-6-8-8-2-4-7-2-6-2-1-2-4"
       is_visible="true" />
    <inkscape:path-effect
       effect="spiro"
       id="path-effect3005-1-8-1-4-4-8-2-6-0-3-4-7-5-4-5-3-5"
       is_visible="true" />
    <inkscape:path-effect
       effect="spiro"
       id="path-effect3779-7-2-5-0-0-5-4-5-9-9-2-7-0-5-2-2-5"
       is_visible="true" />
    <inkscape:path-effect
       effect="spiro"
       id="path-effect3783-4-4-2-9-0-7-5-0-7-8-7-9-2-5-7-2-1"
       is_visible="true" />
    <inkscape:path-effect
       effect="spiro"
       id="path-effect3787-0-5-7-4-5-6-5-9-3-8-79-3-8-1-6-1-7"
       is_visible="true" />
    <inkscape:path-effect
       effect="spiro"
       id="path-effect3793-9-5-6-8-9-1-1-0-7-0-3-19-6-7-1-6-1"
       is_visible="true" />
  </defs>
  <sodipodi:namedview
     id="base"
     pagecolor="#ffffff"
     bordercolor="#666666"
     borderopacity="1.0"
     inkscape:pageopacity="0.0"
     inkscape:pageshadow="2"
     inkscape:zoom="2.3037325"
     inkscape:cx="95.901797"
     inkscape:cy="51.184091"
     inkscape:document-units="mm"
     inkscape:current-layer="layer1"
     showgrid="false"
     units="px"
     inkscape:window-width="1440"
     inkscape:window-height="825"
     inkscape:window-x="-9"
     inkscape:window-y="-9"
     inkscape:window-maximized="1"
     showguides="false"
     inkscape:guide-bbox="true"
     inkscape:snap-global="false">
    <sodipodi:guide
       orientation="1,0"
       position="53.149605,49.011239"
       id="guide5177" />
    <sodipodi:guide
       orientation="0,1"
       position="50.634127,53.149605"
       id="guide5179" />
    <sodipodi:guide
       orientation="0,1"
       position="-75.509159,100.52587"
       id="guide5483" />
    <sodipodi:guide
       orientation="0,1"
       position="-16.29529,5.9672891"
       id="guide5485" />
    <sodipodi:guide
       orientation="1,0"
       position="99.607826,29.606935"
       id="guide5487" />
    <sodipodi:guide
       orientation="1,0"
       position="6.1968002,73.67307"
       id="guide5489" />
    <sodipodi:guide
       orientation="0,1"
       position="-0.15063195,106.29595"
       id="guide5492" />
    <sodipodi:guide
       orientation="1,0"
       position="0,110.05327"
       id="guide5494" />
    <sodipodi:guide
       orientation="1,0"
       position="106.29688,0"
       id="guide5496" />
    <sodipodi:guide
       orientation="0,1"
       position="0,0"
       id="guide5498" />
    <sodipodi:guide
       orientation="1,0"
       position="9.5003953,73.767775"
       id="guide5609" />
    <sodipodi:guide
       orientation="0,1"
       position="82.988747,97.23934"
       id="guide5611" />
    <sodipodi:guide
       orientation="1,0"
       position="96.121646,65.664497"
       id="guide5613" />
    <sodipodi:guide
       orientation="0,1"
       position="49.737363,10.897512"
       id="guide5615" />
  </sodipodi:namedview>
  <metadata
     id="metadata4581">
    <rdf:RDF>
      <cc:Work
         rdf:about="">
        <dc:format>image/svg+xml</dc:format>
        <dc:type
           rdf:resource="http://purl.org/dc/dcmitype/StillImage" />
        <dc:title></dc:title>
      </cc:Work>
    </rdf:RDF>
  </metadata>
  <g
     inkscape:label="onload"
     inkscape:groupmode="layer"
     id="layer1"
     transform="translate(0,-52.33859)"
     style="display:inline">
    <g
       style="display:inline"
       id="g6110"
       transform="matrix(0.69048921,0,0,0.69048921,-296.17998,-50.682804)">
      <rect
         y="161.92473"
         x="442.63321"
         height="177.97498"
         width="172.16173"
         id="rect4130-1-9"
         style="opacity:0.98999999;fill:#b5ecb8;fill-opacity:0.98823529;stroke:none" />
      <path
         sodipodi:nodetypes="scccccccccccccccsczs"
         inkscape:connector-curvature="0"
         id="path3979-3-6"
         d="m 481.47234,300.40902 c 7.95254,-2.82507 24.13722,-8.48065 24.13722,-8.48065 l -2.28324,7.50211 3.58797,3.58797 6.84975,0.97854 8.48066,0.32617 13.37332,-1.30472 5.54503,0 3.26179,-0.97853 3.91414,0 0,-4.24032 -4.5665,-3.91415 12.06862,5.87122 14.67804,3.91414 7.17593,11.74244 c -1.47864,10.88538 0.0583,14.01933 -6.19739,18.26601 -10.27394,6.59471 -56.25213,3.68898 -57.91174,3.79806 -69.47607,4.5665 -52.66286,-21.08553 -52.66286,-21.08553 0,0 0.26112,-6.42971 3.26178,-9.45919 3.00067,-3.02947 11.3895,-4.42836 17.28748,-6.52357 z"
         style="fill:#ffffff;fill-opacity:1;stroke:none" />
      <path
         inkscape:connector-curvature="0"
         id="path14100-9-1"
         d="m 546.58151,284.60124 c -7.40078,10.47993 29.25361,23.51718 -25.77218,22.88485 -48.04568,-5.54289 -0.50805,-14.51567 -7.20321,-47.17724 0,0 7.06051,14.0222 10.4792,17.33543 3.41869,3.31324 4.3519,3.03114 7.24101,4.07306 2.88913,1.04193 7.41524,1.32184 9.9564,1.81024 2.54116,0.48841 5.29878,1.07366 5.29878,1.07366 z"
         style="fill:#c87137;stroke:none"
         sodipodi:nodetypes="ccczzzc" />
      <path
         sodipodi:nodetypes="cccc"
         inkscape:connector-curvature="0"
         id="path5412-1-3-0"
         d="m 461.53015,315.85773 c -0.26327,17.37602 24.69269,7.45491 24.69269,7.45491 60.03,9.76187 73.52315,2.99678 75.13848,-3.54017 0,0 5.14176,2.87875 15.47905,-4.43966"
         style="fill:none;stroke:#b5ecb8;stroke-width:2.61153984px;stroke-linecap:round;stroke-linejoin:miter;stroke-opacity:0.98823529" />
      <path
         sodipodi:nodetypes="cccc"
         inkscape:connector-curvature="0"
         id="path5412-7-4-9"
         d="m 464.42616,307.95954 c 0.52655,15.53311 19.70654,4.48979 19.70654,4.48979 57.13401,9.23533 70.90114,2.93852 74.14935,-1.80972 0,0 10.37841,0.94734 13.87449,-1.99227"
         style="fill:none;stroke:#b5ecb8;stroke-width:2.61153984px;stroke-linecap:round;stroke-linejoin:miter;stroke-opacity:0.98823529" />
      <path
         sodipodi:nodetypes="cscccc"
         inkscape:connector-curvature="0"
         id="path6026-4-9"
         d="m 518.00615,269.25952 c 1.97965,0.46393 3.54459,1.82345 5.044,3.28171 1.4994,1.45826 4.65085,3.87401 4.65085,3.87401 l 19.81866,6.37265 -2.11824,4.00454 c 0,0 -28.79855,-4.62606 -27.39527,-17.53291 z"
         style="fill:#af5b33;fill-opacity:1;stroke:none" />
      <g
         style="stroke:none"
         transform="matrix(-0.13240862,0.00267782,0.00524381,0.12126427,574.09278,169.78855)"
         id="g4074-6-6">
        <path
           style="fill:#150b02;fill-opacity:0.97058835;stroke:none"
           d="m 90.919581,581.80145 c -6.725988,3.85235 -14.844626,5.20905 -22.457714,3.75288 -7.613088,-1.45617 -14.657974,-5.71323 -19.487508,-11.77583 -4.829535,-6.0626 -7.403973,-13.88086 -7.121391,-21.6268 0.282581,-7.74595 3.419856,-15.35584 8.678307,-21.05042 1.455452,-1.57616 3.06191,-3.00565 4.551963,-4.54914 1.490053,-1.5435 2.877365,-3.22317 3.794607,-5.16258 0.917243,-1.9394 1.337216,-4.17017 0.843055,-6.25786 -0.247081,-1.04384 -0.721623,-2.0384 -1.412746,-2.85877 -0.691124,-0.82037 -1.60133,-1.46216 -2.620911,-1.7955 -1.384253,-0.45256 -2.892026,-0.32563 -4.319844,-0.0387 -1.427818,0.28688 -2.826972,0.72855 -4.273428,0.89806 -3.135335,0.36743 -6.387042,-0.61418 -8.862147,-2.57356 -2.475105,-1.95939 -4.164075,-4.85811 -4.753654,-7.95935 -0.58958,-3.10125 -0.09559,-6.3812 1.284504,-9.22033 1.380099,-2.83913 3.626368,-5.23325 6.316009,-6.88587 3.132804,-1.92492 6.776268,-2.83425 10.390803,-3.50872 3.614535,-0.67448 7.287249,-1.14655 10.775548,-2.30911 3.488299,-1.16256 6.847269,-3.10275 8.948139,-6.12038 1.050436,-1.50882 1.761171,-3.26888 1.942541,-5.09837 0.181371,-1.8295 -0.181624,-3.72568 -1.12127,-5.30587 -0.924256,-1.55431 -2.398925,-2.7737 -4.099176,-3.38956 -1.70025,-0.61586 -3.613752,-0.62372 -5.319009,-0.0219 -1.705257,0.60186 -3.189904,1.80908 -4.12691,3.35574 -0.937006,1.54666 -1.319577,3.42154 -1.063442,5.21166 L 47.093971,465.7925 35.063395,455.48056 c -2.032957,-3.05909 -4.336383,-5.93837 -6.874609,-8.59325 -6.576039,-6.87826 -14.734887,-12.27175 -20.343179,-19.95952 -2.8041458,-3.84389 -4.9293365,-8.27891 -5.5067228,-13.00176 -0.5773863,-4.72285 0.5089997,-9.748 3.5074609,-13.44231 2.4112016,-2.97076 5.9969859,-4.96088 9.7935779,-5.43546 3.796593,-0.47457 7.761921,0.57165 10.830199,2.85748 -3.0498,-5.67464 -6.498372,-11.1349 -10.311865,-16.32721 -6.4636595,-8.80067 -14.1076821,-17.06929 -17.7432031,-27.36559 -1.8177604,-5.14814 -2.5528327,-10.76822 -1.4333223,-16.11185 1.1195105,-5.34363 4.2169776,-10.37328 8.8646135,-13.23809 2.594528,-1.59927 5.5715559,-2.48859 8.5733559,-3.01627 3.0018,-0.52768 6.051738,-0.70936 9.086169,-0.9948 3.034432,-0.28544 6.079896,-0.67992 8.980826,-1.61472 2.90093,-0.9348 5.670917,-2.44147 7.732667,-4.68612 1.738456,-1.89267 2.922566,-4.26022 3.56795,-6.74778 0.645383,-2.48755 0.764901,-5.0939 0.529577,-7.65302 -0.470647,-5.11822 -2.324905,-9.99177 -4.097527,-14.81625 -3.314113,-9.01989 -6.408263,-18.14069 -8.593249,-27.49845 -1.715006,-7.34495 -2.865281,-14.82168 -3.437328,-22.34247 -3.053884,-0.99791 -5.824928,-2.8464 -7.919274,-5.28274 -2.094345,-2.43634 -3.505924,-5.45347 -4.034103,-8.62255 -0.528179,-3.16908 -0.171428,-6.48093 1.019547,-9.46482 1.190975,-2.98389 3.212724,-5.63118 5.777886,-7.5656 3.785725,-2.85486 8.59085,-4.08347 13.324463,-4.35706 4.733612,-0.27359 9.469048,0.33164 14.173946,0.91975 l 13.749264,1.71864 12.030529,0 c -0.46265,-5.86315 2.212554,-11.88237 6.874608,-15.46788 3.852067,-2.96256 8.956212,-4.2386 13.749241,-3.4373 2.949205,2.2119 6.625377,3.4373 10.311887,3.4373 3.68651,0 7.3627,-1.22539 10.31191,-3.4373 l 1.71867,-17.1865 3.43733,-8.59325 c 2.42378,-2.77953 5.34944,-5.12009 8.59322,-6.87463 5.72857,-3.09855 12.45255,-4.32109 18.90518,-3.43728 l 0,0 18.90517,12.03053 17.18654,-3.43728 c 4.73879,-5.74808 6.96587,-13.49666 6.00234,-20.88369 -0.96353,-7.38702 -5.10367,-14.30509 -11.15833,-18.64532 -2.30927,-1.65538 -4.85915,-2.93806 -7.3311,-4.33895 -2.47195,-1.40089 -4.90394,-2.94957 -6.83947,-5.02964 -1.93554,-2.08008 -3.35047,-4.75881 -3.4399,-7.598704 -0.0447,-1.419949 0.24754,-2.857936 0.90615,-4.116701 0.65861,-1.258765 1.6899,-2.330952 2.9551,-2.977114 1.5986,-0.816434 3.48801,-0.922481 5.25574,-0.610748 1.76774,0.311733 3.4402,1.015181 5.07441,1.757763 1.63421,0.742582 3.25671,1.533017 4.97998,2.035418 1.72327,0.502401 3.57629,0.705812 5.31374,0.254877 1.74641,-0.45326 3.28137,-1.548242 4.47555,-2.900757 1.19419,-1.352514 2.07075,-2.956304 2.80685,-4.603586 1.4722,-3.294563 2.46362,-6.888912 4.74813,-9.682207 2.19078,-2.678689 5.50895,-4.404023 8.96003,-4.65891 3.45107,-0.254888 6.98671,0.964243 9.54726,3.292011 2.56054,2.327769 4.11012,5.731561 4.18432,9.191243 0.0742,3.459682 -1.32803,6.926779 -3.78642,9.362186 1.84639,1.225255 4.14886,1.744942 6.34253,1.431562 2.19367,-0.31338 4.25854,-1.456971 5.688,-3.150202 1.52048,-1.801043 2.29343,-4.144637 2.52384,-6.490381 0.23042,-2.345745 -0.0483,-4.71157 -0.43204,-7.037162 -0.38371,-2.325593 -0.87331,-4.638423 -1.06911,-6.98731 -0.19581,-2.348888 -0.0878,-4.76064 0.69597,-6.983557 0.97125,-2.754756 2.9572,-5.095342 5.37781,-6.730172 2.42061,-1.63483 5.25817,-2.591108 8.14617,-3.02867 5.77601,-0.875126 11.63933,0.267185 17.41176,1.165542 6.33361,0.985691 12.73909,1.686433 18.90518,3.4373 7.26345,2.062465 14.11018,5.581235 20.01536,10.28658 l 3.38886,-5.49406 3.94964,-0.15196 11.24125,3.34198 c -0.0874,1.310875 0.35879,2.649587 1.21526,3.64583 1.08082,1.257204 2.74279,1.918788 4.39662,2.035271 1.65383,0.116483 3.3071,-0.266299 4.86983,-0.820011 1.26175,-0.447066 2.48347,-1.007025 3.6458,-1.671 0.5329,-0.947689 1.19985,-1.819865 1.97481,-2.58245 2.23118,-2.195566 5.37774,-3.426114 8.5069,-3.342 2.99705,0.08056 5.94521,1.359957 8.05116,3.49391 l 0.71564,4.45453 c 3.9382,-3.724068 8.7639,-6.503278 13.96145,-8.04067 9.11368,-2.695748 19.32874,-1.418875 27.49843,3.43728 2.97361,1.527278 5.84634,3.250918 8.59328,5.15597 3.6815,2.553183 7.13671,5.43253 10.31191,8.59327 l 8.59325,8.59325 c 3.48608,4.776303 6.3796,9.984639 8.59325,15.467849 1.78741,4.4274 3.1298,9.02281 4.87326,13.4677 1.74345,4.44489 3.92865,8.79464 7.15729,12.3121 4.79046,5.21899 11.82094,8.30893 18.90517,8.30893 7.08423,0 14.11471,-3.08994 18.90517,-8.30893 1.84565,-5.1233 4.79684,-9.84519 8.59328,-13.74924 5.9584,-6.12729 14.08041,-10.18979 22.5945,-10.93582 8.51408,-0.74604 17.34111,1.91182 23.80911,7.49851 6.29767,5.43957 10.06539,13.16201 13.7492,20.62385 1.70123,3.44598 3.41992,6.88334 5.15597,10.31191 1.35854,3.06091 3.09446,5.95411 5.15596,8.59325 4.29445,5.49778 10.01921,9.86837 16.45438,12.56216 6.43517,2.6938 13.56629,3.70474 20.49662,2.9057 7.22905,9.39446 18.31258,15.7279 30.0764,17.18652 5.54254,0.68723 11.1586,0.33612 16.73492,0.647 5.57633,0.31088 11.30553,1.36195 15.91948,4.50894 4.28046,2.91952 7.33006,7.58662 8.28492,12.67918 0.95485,5.09256 -0.19688,10.54741 -3.12895,14.81928 3.1505,3.70896 6.60293,7.16139 10.31189,10.31189 2.66527,2.26396 5.46742,4.3766 7.95239,6.83711 2.48496,2.46051 4.67038,5.32013 5.79682,8.63077 1.1273,3.31317 1.1273,6.99872 0,10.31189 l -10.31191,6.87463 c -2.55748,2.63744 -4.86288,5.51919 -6.87458,8.59325 -5.70351,8.71546 -8.97004,18.88808 -10.31192,29.2171 -0.96214,7.406 -0.96214,14.93644 0,22.34244 5.34718,-0.24676 10.75263,0.89841 15.54038,3.29229 4.78774,2.39388 8.94714,6.03115 11.95803,10.45695 3.70267,5.44267 5.60939,11.9075 6.8693,18.36854 1.25991,6.46105 1.92933,13.03536 3.44259,19.4418 2.27646,9.63751 6.41809,18.71909 9.52218,28.12273 4.65673,14.10726 6.97102,29.12579 5.42631,43.90124 -1.08264,10.35569 -4.19293,20.76743 -10.71401,28.88457 -8.04862,10.01856 -20.4349,15.61137 -29.28427,24.93019 -4.42468,4.65942 -7.97226,10.40604 -8.85647,16.77048 -0.4421,3.18222 -0.19952,6.47736 0.86718,9.50789 1.06669,3.03054 2.97411,5.78501 5.5407,7.71753 2.16129,1.62735 4.76999,2.65417 7.46066,2.93662 2.69066,0.28244 5.45572,-0.18028 7.90783,-1.32335 4.81203,6.63539 7.91904,14.49667 8.94364,22.62897 1.0246,8.13229 -0.0354,16.51857 -3.05113,24.1402 -3.01577,7.62162 -7.98104,14.46263 -14.29269,19.69207 -6.31165,5.22945 -13.95647,8.83638 -22.00588,10.38268 -2.8536,0.54818 -5.79918,0.85501 -8.4489,2.0477 -3.40435,1.53237 -6.06422,4.45224 -7.7592,7.77862 -1.69498,3.32638 -2.4889,7.04714 -2.85123,10.76285 -0.72465,7.43142 0.19735,15.06686 -1.69798,22.28897 -1.6555,6.30821 -5.44368,11.97932 -10.39868,16.21987 -4.95499,4.24055 -11.03837,7.07842 -17.39656,8.53018 -3.34632,0.76406 -6.7714,1.1553 -10.10355,1.97896 -3.33215,0.82367 -6.6361,2.12702 -9.17087,4.44145 -2.30242,2.10227 -3.84682,4.93761 -4.78759,7.91009 -0.94077,2.97248 -1.31042,6.09447 -1.53958,9.20384 -0.45832,6.21875 -0.4382,12.73309 -3.32694,18.25921 -2.44635,4.67984 -6.76501,8.14329 -11.42508,10.62711 -4.66007,2.48381 -9.71908,4.10623 -14.64328,6.01354 -14.08575,5.45589 -27.22705,13.34067 -38.66966,23.2018 L 90.919581,581.80145"
           id="path3810-0-8"
           inkscape:path-effect="#path-effect3812-7-1-8-1-8-4-4-1-8-4-8-8-1-4-2"
           inkscape:original-d="m 90.919581,581.80145 c 0,0 -37.343666,-36.68044 -40.388306,-50.70017 -3.044592,-14.01978 12.030576,-15.46788 5.155968,-20.62385 -6.874608,-5.15595 -3.733126,4.36232 -8.593272,0.85932 -4.860123,-3.503 -9.23589,-18.12458 -6.015288,-26.63911 4.500164,-11.89746 36.836529,-11.07385 30.935761,-22.34245 -2.395524,-4.57465 -14.608537,5.15597 -14.608537,5.15597 L 47.093971,465.7925 35.063395,455.48056 c 0,0 3.437304,8.59327 -6.874609,-8.59325 -10.311912,-17.18652 -30.5557626,-31.3284 -22.3424409,-46.40359 3.3145846,-6.0838 20.6237769,-2.57798 20.6237769,-2.57798 0,0 -5.15592,-0.85932 -10.311865,-16.32721 C 11.002289,366.11068 2.4090174,335.17496 5.8463451,324.863 9.2836493,314.55109 33.078779,324.14826 40.219363,314.55109 c 5.813497,-7.81354 5.155944,-8.59325 0,-29.21705 -5.155968,-20.62382 -5.155968,-20.62382 -8.593249,-27.49845 -3.437328,-6.87461 -3.437328,-22.34247 -3.437328,-22.34247 0,0 -11.404524,-22.55454 -5.155944,-30.93571 5.521362,-7.4058 27.498409,-3.43731 27.498409,-3.43731 l 13.749264,1.71864 12.030529,0 c 0,0 -1.71864,-13.74921 6.874608,-15.46788 8.593249,-1.71864 13.749241,-3.4373 13.749241,-3.4373 0,0 1.71864,3.4373 10.311887,3.4373 8.59325,0 10.31191,-3.4373 10.31191,-3.4373 l 1.71867,-17.1865 3.43733,-8.59325 c 0,0 -6.87466,-3.43732 8.59322,-6.87463 15.46788,-3.43728 18.90518,-3.43728 18.90518,-3.43728 l 0,0 18.90517,12.03053 17.18654,-3.43728 c -29.56805,-24.96058 -1.92622,-33.22712 -5.15599,-39.52901 -8.59327,-15.46786 -17.30385,-19.129309 -13.74922,-24.061109 3.55464,-4.93179 14.1977,6.13503 20.62387,3.43731 6.44778,-2.70683 -2e-5,-17.18655 12.03053,-17.18655 12.03058,0 18.90519,17.18653 18.90519,17.18653 0,0 10.31189,18.905179 12.03053,-1.71864 1.71866,-20.62381 -6.87459,-22.34247 1.71866,-27.49841 8.59325,-5.156 17.18654,-8.5933 30.93574,-8.5933 13.74924,0 6.87461,0 18.90518,3.4373 12.03053,3.43731 20.01536,10.28658 20.01536,10.28658 4.60414,0.73419 3.38886,-5.49406 3.38886,-5.49406 l 3.94964,-0.15196 11.24125,3.34198 c 0,0 -0.30383,3.19009 1.21526,3.64583 1.51909,0.45571 7.29161,1.8229 9.26645,1.21526 1.9748,-0.60764 3.6458,-1.671 3.6458,-1.671 0,0 -0.60764,-0.91145 1.97481,-2.58245 2.58245,-1.671 5.1649,-3.4939 8.5069,-3.342 3.342,0.15195 8.05116,3.49391 8.05116,3.49391 l 0.71564,4.45453 c 10.52415,-6.32203 7.08684,-6.32203 13.96145,-8.04067 6.87459,-1.71869 27.49843,3.43728 27.49843,3.43728 0,0 1.71867,-1.71864 8.59328,5.15597 6.87461,6.87461 10.31191,8.59327 10.31191,8.59327 l 8.59325,8.59325 c 0,0 0,-6.87463 8.59325,15.467849 8.59325,22.34247 -6.87461,20.62381 12.03055,25.7798 18.90521,5.15594 37.81034,0 37.81034,0 0,0 -3.43728,-10.31194 8.59328,-13.74924 12.03055,-3.43731 37.81037,-8.59328 46.40361,-3.43731 8.59323,5.15595 10.31189,12.03056 13.7492,20.62385 3.4373,8.59325 5.15597,10.31191 5.15597,10.31191 0,0 -8.59328,5.15595 5.15596,8.59325 13.7492,3.43728 36.951,15.46786 36.951,15.46786 0,0 7.73393,13.74922 30.0764,17.18652 22.34251,3.43728 27.49846,-6.87461 32.6544,5.15594 5.15597,12.0306 5.15597,27.49846 5.15597,27.49846 0,0 1.71864,8.59325 10.31189,10.31189 8.59324,1.71866 12.03057,8.59325 13.74921,15.46788 1.71864,6.87461 0,10.31189 0,10.31189 l -10.31191,6.87463 c 0,0 -3.4373,1.71864 -6.87458,8.59325 -3.43733,6.87463 -6.87461,12.03058 -10.31192,29.2171 -3.4373,17.18649 0,22.34244 0,22.34244 0,0 17.1865,-5.15595 27.49841,13.74924 10.31189,18.90516 10.31189,24.0611 10.31189,37.81034 0,13.7492 9.52218,0.62429 9.52218,28.12273 0,27.49843 0.38135,32.79024 5.42631,43.90124 9.7232,21.41435 1.31657,-10.64441 -10.71401,28.88457 -12.03055,39.52899 -24.85828,43.45821 -31.73286,58.92609 -6.87461,15.46786 15.36849,1.61327 15.36849,1.61327 0,0 -20.09412,63.0947 -30.40606,76.84392 -10.31193,13.74921 -8.4489,-22.01343 -8.4489,2.0477 0,24.06111 -10.58977,32.23714 -12.30841,40.83044 -1.71866,8.5932 -12.32738,16.15685 -27.79524,24.75005 -15.46788,8.5933 -12.87083,-0.47909 -19.27442,6.42041 -6.40359,6.89951 -3.04415,26.27849 -9.65411,35.37314 -6.60996,9.09465 -10.60048,13.20335 -26.06836,16.64065 -15.46786,3.4373 -38.66966,23.2018 -38.66966,23.2018 z"
           inkscape:connector-curvature="0"
           sodipodi:nodetypes="czszsacccsacssasscacccscscccscccccsazcssssccccsscssccscsccsscssscscsscssccsscsssssscsssszzscc" />
        <path
           style="fill:#c87137;fill-opacity:1;stroke:none;display:inline"
           d="m 86.281707,504.72502 10.121983,-38.2916 0.38196,-54.81143 10.69492,-44.97593 24.92295,-24.4455 c 3.67805,-5.02724 9.81308,-8.1633 16.04203,-8.20026 6.22895,-0.037 12.40075,3.02608 16.1382,8.00932 2.55605,3.40805 3.97307,7.55605 6.48733,10.99505 1.25712,1.7195 2.80895,3.26555 4.70212,4.24175 1.89317,0.9762 4.15511,1.34025 6.18979,0.71007 1.52635,-0.47274 2.85399,-1.47625 3.88254,-2.69909 1.02854,-1.22284 1.77503,-2.65994 2.37605,-4.14049 1.20203,-2.96109 1.86423,-6.15991 3.48141,-8.9163 1.24069,-2.11468 3.01692,-3.89925 5.07392,-5.23339 2.05701,-1.33413 4.38994,-2.22322 6.79602,-2.69434 4.81217,-0.94224 9.83423,-0.21402 14.48538,1.3389 10.08048,3.36565 18.71751,10.63777 24.15903,19.76649 1.76876,2.96728 3.22235,6.14354 4.05725,9.49558 0.83489,3.35205 1.03797,6.88868 0.3353,10.27091 -0.6073,2.9232 -1.89585,5.71155 -3.78777,8.02122 -1.89192,2.30967 -4.38956,4.13115 -7.19361,5.15644 -3.50928,1.28316 -7.47209,1.28316 -10.98137,0 -3.54761,-3.10183 -6.53769,-6.83943 -8.78512,-10.9814 -2.21956,-4.09061 -3.71383,-8.57343 -4.39254,-13.17766 -2.5117,2.09561 -4.46734,4.85171 -5.61591,7.91456 -1.14856,3.06284 -1.48737,6.42525 -0.97292,9.65567 0.85641,5.37776 4.15042,10.31876 8.78511,13.17766 7.51375,3.1812 15.7165,4.72332 23.87255,4.48804 6.1797,-0.17827 12.39166,-1.39183 17.93386,-4.13124 5.54221,-2.73942 10.38693,-7.07234 13.19599,-12.57958 1.64121,-3.21764 2.54148,-6.82006 2.51509,-10.432 -0.0264,-3.61194 -1.02359,-7.13846 -2.13313,-10.57586 l -4.87,-15.08746 -17.57023,-24.15903 6.58883,-15.37395 13.17766,0 13.17766,13.17766 2.19628,13.17766 c 1.04392,6.26353 2.09542,12.55306 4.03929,18.59814 1.94388,6.04507 4.8266,11.88073 9.13837,16.5423 4.85252,5.2462 11.42169,8.82969 18.41464,10.30219 6.99295,1.47251 14.37931,0.86094 21.11834,-1.5171 6.03365,-2.12913 11.67135,-5.76322 15.37392,-10.98138 3.57544,-5.03899 5.17606,-11.44148 4.39257,-17.5702 l -4.39257,-13.17766 0,15.37394 -13.17766,6.58881 c -4.86606,1.8962 -10.17156,2.65413 -15.37392,2.19628 -3.8893,-0.34229 -7.73852,-1.36696 -11.18614,-3.19939 -3.44761,-1.83243 -6.48382,-4.48829 -8.58035,-7.78198 -2.07492,-3.25975 -3.19849,-7.11729 -3.19849,-10.98139 0,-3.8641 1.12357,-7.72164 3.19849,-10.98139 l 13.17766,-13.17766 19.76649,-15.37392 17.57021,-2.19628 c 5.82083,-0.79375 11.74937,-0.79375 17.5702,0 17.38986,2.37134 33.6497,12.12725 43.92553,26.35532 -0.62833,4.36255 -0.62833,8.81511 0,13.17766 1.43033,9.93093 6.02362,19.07431 10.13527,28.22655 4.11166,9.15224 7.86332,18.85238 7.43496,28.87663 -0.26317,6.15847 -2.10265,12.14295 -4.31022,17.89818 -2.20756,5.75523 -4.79948,11.36921 -6.67118,17.24226 -1.2533,3.93261 -2.18244,7.99725 -2.32695,12.12221 -0.14451,4.12497 0.5212,8.32529 2.32695,12.03682 2.09822,4.31266 5.736,7.85642 10.10211,9.84101 4.36611,1.9846 9.42804,2.39524 14.05695,1.14037 l 17.5702,30.74786 c 11.1578,-0.59671 22.49247,3.45139 30.74787,10.9814 4.68534,4.27364 8.37713,9.59167 10.98137,15.37392 3.62547,8.04971 5.15126,17.03431 4.38645,25.82959 -0.7648,8.79528 -3.8185,17.38166 -8.77899,24.68477 -2.9793,5.80887 -4.42811,12.39424 -4.16187,18.91715 0.26624,6.5229 2.24691,12.96829 5.6897,18.51504 4.33198,6.97935 10.98727,12.48889 18.65273,15.44154 7.66546,2.95265 16.29705,3.33144 24.1917,1.06165 -5.64137,1.13199 -11.65344,0.32429 -16.79601,-2.25649 -5.10197,-2.5604 -9.30006,-6.82404 -11.94458,-11.88292 -2.64452,-5.05887 -3.74884,-10.88266 -3.32415,-16.57523 0.4247,-5.69257 2.35711,-11.24365 5.40271,-16.0717 3.0456,-4.82805 7.18808,-8.93652 11.93912,-12.10091 7.99827,-5.32719 17.77195,-7.94891 27.35995,-7.29963 6.27599,0.425 12.47389,2.23377 17.90727,5.40347 5.43339,3.1697 10.08502,7.70975 13.23668,13.15362 4.03667,6.97255 5.52241,15.27227 4.83819,23.29991 -0.68423,8.02764 -3.46188,15.79173 -7.42505,22.80632 -6.07121,10.74571 -14.89679,19.86136 -20.0137,31.09288 -4.04628,8.88149 -5.58235,18.67417 -8.6068,27.95349 -1.51222,4.63967 -3.41541,9.18602 -6.11199,13.25318 -2.69657,4.06716 -6.22211,7.65243 -10.51114,9.97998 -4.61834,2.50626 -10.05595,3.4721 -15.2549,2.70961 -5.19895,-0.7625 -10.13021,-3.24908 -13.83438,-6.97595 l 1.94418,-9.62985 -4.39255,26.3553 -2.19628,41.7293 c -3.33708,8.19483 -7.00143,16.25638 -10.98138,24.159 -6.49933,12.90512 -13.841,25.38595 -21.96277,37.3367 l -26.35532,32.9442 -24.15904,24.159 -21.96275,17.5702 c -24.15686,9.27109 -48.84775,17.15048 -73.90947,23.5861 -24.36977,6.25793 -49.32656,11.1733 -74.48245,10.6949 -13.6817,-0.26019 -27.33224,-2.12308 -40.58336,-5.5384 -8.90611,-5.74526 -16.72354,-13.17183 -22.91766,-21.7718 -7.11177,-9.87405 -12.01287,-21.13242 -16.90178,-32.2757 -5.89108,-13.42751 -11.84339,-26.82817 -17.85667,-40.2014 -6.3897,-8.17286 -12.47487,-16.5838 -18.23865,-25.2095 -6.01275,-8.9983 -11.67452,-18.22829 -17.09275,-27.5966 -12.77991,-22.09691 -24.327858,-45.30403 -29.539959,-70.2927 -2.061775,-9.88488 -3.111864,-19.97191 -3.308723,-30.0676 -0.314391,-16.12326 1.538693,-32.20554 3.64061,-48.19429 0.994931,-7.56819 2.04632,-15.12895 3.154051,-22.68145 l 0.958621,-39.21346 -7.826493,-24.83858 0.83713,-37.33671"
           id="path2997-6-3"
           inkscape:path-effect="#path-effect2999-8-1-7-7-6-8-8-2-4-7-2-6-2-1-2-4"
           inkscape:original-d="m 86.281707,504.72502 10.121983,-38.2916 0.38196,-54.81143 10.69492,-44.97593 24.92295,-24.4455 c 0,0 22.17246,-4.05251 32.18023,-0.19094 7.33517,2.83032 9.59098,17.02325 17.37924,15.94687 6.11631,-0.84531 4.75468,-12.11301 9.74,-15.75588 7.31149,-5.34264 16.8604,-8.71583 26.35532,-6.58883 9.49492,2.12699 19.66215,12.46254 24.15903,19.76649 4.49688,7.30395 5.86242,13.70857 4.39255,19.76649 -1.46987,6.05792 -6.73495,11.18874 -10.98138,13.17766 -4.24643,1.98891 -10.98137,0 -10.98137,0 0,0 -6.55868,-6.88891 -8.78512,-10.9814 -2.22643,-4.0925 -4.39254,-13.17766 -4.39254,-13.17766 0,0 -7.30419,11.35627 -6.58883,17.57023 0.60377,5.24456 8.78511,13.17766 8.78511,13.17766 0,0 14.0522,6.00656 23.87255,4.48804 9.82035,-1.51853 26.23631,-8.69617 31.12985,-16.71082 4.89354,-8.01465 0.38196,-21.00786 0.38196,-21.00786 l -4.87,-15.08746 -17.57023,-24.15903 6.58883,-15.37395 13.17766,0 13.17766,13.17766 2.19628,13.17766 c 0,0 3.36098,26.61102 13.17766,35.14044 9.81669,8.52942 29.83344,10.75926 39.53298,8.78509 9.69955,-1.97417 11.90297,-5.88347 15.37392,-10.98138 3.47096,-5.0979 4.39257,-17.5702 4.39257,-17.5702 l -4.39257,-13.17766 0,15.37394 -13.17766,6.58881 c 0,0 -4.39254,4.39257 -15.37392,2.19628 -10.98137,-2.19628 -15.94408,-4.48516 -19.76649,-10.98137 -3.71263,-6.30969 0,-21.96278 0,-21.96278 l 13.17766,-13.17766 19.76649,-15.37392 17.57021,-2.19628 c 0,0 -13.17766,-4.39255 17.5702,0 30.74789,4.39254 43.92553,26.35532 43.92553,26.35532 0,0 -4.39255,2.19628 0,13.17766 4.39257,10.98137 17.57023,46.12181 17.57023,57.10318 0,10.98138 -10.9814,24.15904 -10.9814,35.14044 0,10.98137 -19.76647,17.5702 0,24.15903 19.76649,6.58883 24.15906,10.98138 24.15906,10.98138 l 17.5702,30.74786 c 0,0 21.96278,8.78512 30.74787,10.9814 8.78511,2.19626 10.98137,8.78509 10.98137,15.37392 0,6.58883 -4.39254,50.51436 -4.39254,50.51436 0,0 -7.25726,30.84336 1.52783,37.43219 8.78512,6.58883 42.84443,16.50319 42.84443,16.50319 0,0 -19.75299,3.82414 -16.79601,-2.25649 2.95698,-6.08063 -0.12318,-47.84567 2.0731,-56.63076 2.19626,-8.78511 22.11373,-10.00415 27.35995,-7.29963 6.53958,3.37132 43.30114,19.55792 31.14395,18.55709 -12.15719,-1.00083 2.08485,31.58311 -2.58686,46.10623 -3.81996,11.87521 -16.29396,23.67548 -20.0137,31.09288 -3.71974,7.4174 -21.93001,49.04 -25.22993,51.18665 -3.29992,2.14665 -29.08928,-4.26634 -29.08928,-4.26634 l 1.94418,-9.62985 -4.39255,26.3553 c 1.36187,16.15298 -7.55814,27.7534 -2.19628,41.7293 0,0 -6.58883,15.3739 -10.98138,24.159 -4.39254,8.7851 -21.96277,37.3367 -21.96277,37.3367 l -26.35532,32.9442 -24.15904,24.159 -21.96275,17.5702 c -29.87473,15.19857 -46.96258,18.08938 -73.90947,23.5861 -8.78511,2.1963 -63.50105,10.6949 -74.48245,10.6949 -10.98137,0 -40.58336,-5.5384 -40.58336,-5.5384 0,0 -16.56845,-13.3627 -22.91766,-21.7718 -7.31789,-9.6921 -11.61714,-21.3413 -16.90178,-32.2757 -6.38054,-13.2019 -17.85667,-40.2014 -17.85667,-40.2014 0,0 -12.4645,-16.5936 -18.23865,-25.2095 -6.02394,-8.9885 -8.78748,-11.4942 -17.09275,-27.5966 -8.30527,-16.1025 -25.084766,-53.1116 -29.539959,-70.2927 -4.455192,-17.1812 -3.308723,-30.0676 -3.308723,-30.0676 0,0 1.925537,-32.18991 3.64061,-48.19429 0.814137,-7.59721 3.154051,-22.68145 3.154051,-22.68145 l 0.958621,-39.21346 -7.826493,-24.83858 z"
           inkscape:connector-curvature="0"
           sodipodi:nodetypes="cccccasazzzzczcaczzccccccczzzccccsaccccscssssccsscsczsscazzccccscccccscaacazzcacccc" />
        <path
           sodipodi:nodetypes="czcssc"
           inkscape:connector-curvature="0"
           id="path6028-6-4"
           d="m 389.39856,577.56372 c -26.06716,17.85409 -18.08703,24.65787 -37.36448,28.4999 -19.27745,3.84204 -40.22068,3.0679 -71.6939,-6.8273 -12.02068,-2.54438 -6.86963,-0.64507 -3.22752,-12.29086 3.64212,-11.64578 10.55975,-18.04784 29.63409,-20.827 19.07434,-2.77916 44.62989,-5.17509 82.65181,11.44526 z"
           style="fill:#ffffff;fill-opacity:1;stroke:none" />
        <path
           sodipodi:type="arc"
           style="fill:#28170b;fill-opacity:1;stroke:none"
           id="path3007-1-8"
           sodipodi:cx="385.6362"
           sodipodi:cy="431.92328"
           sodipodi:rx="9.3299084"
           sodipodi:ry="7.9101396"
           d="m 394.96611,431.92328 a 9.3299084,7.9101396 0 1 1 -18.65982,0 9.3299084,7.9101396 0 1 1 18.65982,0 z"
           transform="matrix(2.3117984,0,0,2.3833697,-554.48177,-447.06009)" />
        <path
           style="fill:#150b02;fill-opacity:0.97058835;stroke:none"
           d="m 286.0282,597.39802 -10.74249,-2.23677 c 6.13678,-10.18118 15.32629,-18.49551 26.06884,-23.5861 16.22968,-7.69079 35.90803,-7.69079 52.13771,0 l 14.89646,8.68961 9.931,7.44825 12.41374,-3.72412 6.20687,-14.89649 -9.931,3.72412 c -6.33504,-2.14478 -12.55401,-4.63237 -18.62061,-7.44825 -8.10665,-3.7628 -16.06817,-8.15575 -24.82746,-9.93096 -9.72541,-1.97101 -19.87035,-0.56961 -29.38838,2.23676 -11.05402,3.25926 -21.65339,8.48167 -30.23432,16.17464 -7.77377,6.96934 -13.77091,15.90459 -17.27558,25.73925 l 6.16233,-0.11048 6.46728,0.89525 c 4.47426,1.09345 8.93236,2.253 13.37236,3.47814 4.42703,1.22156 8.83607,2.50833 13.22521,3.85975 l 14.40454,-1.41377 -9.00916,-1.2046 c -4.14297,-1.22444 -8.28093,-2.46583 -12.41374,-3.72413 -4.28679,-1.30519 -8.56804,-2.62857 -12.8436,-3.9701"
           id="path3003-8-4"
           inkscape:path-effect="#path-effect3005-1-8-1-4-4-8-2-6-0-3-4-7-5-4-5-3-5"
           inkscape:original-d="m 286.0282,597.39802 -10.74249,-2.23677 c 0,0 8.68962,-19.86198 26.06884,-23.5861 17.37923,-3.72413 52.13771,0 52.13771,0 l 14.89646,8.68961 9.931,7.44825 12.41374,-3.72412 6.20687,-14.89649 -9.931,3.72412 c 0,0 -13.65511,-4.9655 -18.62061,-7.44825 -4.96549,-2.48274 -16.01727,-8.57897 -24.82746,-9.93096 -9.71079,-1.49022 -19.95637,-0.51225 -29.38838,2.23676 -10.97308,3.19818 -21.75895,8.50619 -30.23432,16.17464 -7.66224,6.93274 -17.27558,25.73925 -17.27558,25.73925 l 6.16233,-0.11048 6.46728,0.89525 13.37236,3.47814 13.22521,3.85975 14.40454,-1.41377 -9.00916,-1.2046 -12.41374,-3.72413 z"
           inkscape:connector-curvature="0"
           sodipodi:nodetypes="ccsccccccsaaaccccccccc" />
        <path
           style="fill:#150b02;fill-opacity:0.97058835;stroke:none"
           d="m 239.73184,527.73167 -0.31952,6.39077 c 0.37026,2.13676 1.13224,4.20501 2.23676,6.07125 1.3543,2.28828 3.22494,4.26896 5.43216,5.7517 l 5.7517,1.27815 13.10109,-5.11263 c 6.92483,-8.10677 14.89308,-15.32126 23.64587,-21.40909 5.84804,-4.06748 12.09405,-7.6555 18.85279,-9.9057 8.99767,-2.99561 18.6868,-3.53481 28.11941,-2.55632 6.67447,0.69238 13.24657,2.12531 19.81139,3.51494 8.36929,1.7716 16.77065,3.48167 24.92404,6.07122 6.83413,2.17055 13.47326,4.9547 19.81139,8.30802 l 12.46202,7.66894 c 1.65481,1.75267 3.35995,3.4578 5.11263,5.1126 1.15141,1.0871 2.32332,2.15249 3.51491,3.19539 l 6.07125,2.23679 0.31952,-9.58616 c -8.54215,-11.80418 -19.47999,-21.86699 -31.95386,-29.39757 -5.59364,-3.37693 -11.48933,-6.24818 -17.57463,-8.62757 -10.67943,-4.17572 -21.90771,-6.82581 -33.23205,-8.62753 -13.25739,-2.10927 -27.0322,-3.04006 -39.94233,0.63907 -7.31141,2.0836 -14.12321,5.5832 -21.08956,8.62756 -7.12702,3.11458 -14.46139,5.77028 -21.40911,9.26661 -5.39322,2.71405 -10.53493,5.92762 -15.33785,9.58616 l -8.30802,11.5034"
           id="path3777-4-9"
           inkscape:path-effect="#path-effect3779-7-2-5-0-0-5-4-5-9-9-2-7-0-5-2-2-5"
           inkscape:original-d="m 239.73184,527.73167 -0.31952,6.39077 c 0,0 0.95859,4.47356 2.23676,6.07125 1.27815,1.59769 5.43216,5.7517 5.43216,5.7517 l 5.7517,1.27815 13.10109,-5.11263 c 3.14151,-14.0932 11.51649,-15.24813 23.64587,-21.40909 0,0 17.2551,-9.58615 18.85279,-9.9057 1.5977,-0.31955 26.52171,-2.23677 28.11941,-2.55632 1.59769,-0.31952 19.81139,3.51494 19.81139,3.51494 0,0 23.32635,5.43215 24.92404,6.07122 1.59769,0.6391 19.81139,8.30802 19.81139,8.30802 l 12.46202,7.66894 5.11263,5.1126 3.51491,3.19539 6.07125,2.23679 0.31952,-9.58616 c -7.33046,-14.68188 -19.00337,-20.9642 -31.95386,-29.39757 -2.55632,-1.5977 -14.37924,-7.3494 -17.57463,-8.62757 -3.19541,-1.27814 -26.84126,-7.66891 -33.23205,-8.62753 -6.39077,-0.95862 -34.82973,-1.5977 -39.94233,0.63907 -5.11263,2.23676 -15.65741,6.39077 -21.08956,8.62756 -5.43217,2.23677 -17.2551,7.34939 -21.40911,9.26661 -4.154,1.91724 -15.33785,9.58616 -15.33785,9.58616 z"
           inkscape:connector-curvature="0"
           sodipodi:nodetypes="ccsccccsccccccccccssssscc" />
        <path
           style="fill:#150b02;fill-opacity:0.97058835;stroke:none"
           d="m 153.85366,514.02241 5.87549,6.50126 c 1.81558,0.87984 3.35086,2.32764 4.33558,4.08854 0.98471,1.76091 1.41442,3.82695 1.21347,5.83446 -0.20308,2.02881 -1.03878,3.97123 -2.26329,5.60154 -1.2245,1.63031 -2.82765,2.95636 -4.59144,3.97928 -3.42346,1.98546 -7.49154,2.83546 -11.42452,2.39519 -3.11365,-0.34855 -6.10138,-1.47808 -8.85553,-2.97171 -2.75415,-1.49363 -5.29398,-3.34885 -7.79164,-5.2404 -3.84777,-2.91404 -7.61809,-5.92867 -11.42454,-8.89647 -3.95541,-3.08394 -8.13784,-6.20494 -13.0566,-7.18563 -2.93921,-0.58601 -5.971839,-0.36778 -8.963223,-0.5521 -1.495692,-0.0922 -2.993169,-0.28733 -4.425553,-0.72763 -1.432383,-0.4403 -2.802368,-1.13402 -3.911221,-2.142 -1.592476,-1.44761 -2.586576,-3.5346 -2.707155,-5.68333 -0.120579,-2.14872 0.633787,-4.33383 2.054305,-5.95052 l 3.590579,-9.58081 8.160363,-1.36868 c 4.603125,-0.3345 9.263295,0.13075 13.709445,1.36868 5.07731,1.41366 9.81721,3.80541 14.68869,5.81694 4.13709,1.70829 8.39062,3.15057 12.40377,5.13258 4.94083,2.44018 9.48058,5.69015 13.38302,9.58081"
           id="path3781-9-9"
           inkscape:path-effect="#path-effect3783-4-4-2-9-0-7-5-0-7-8-7-9-2-5-7-2-1"
           inkscape:original-d="m 153.85366,514.02241 5.87549,6.50126 c 0,0 6.85471,6.15911 5.54905,9.923 -1.30565,3.7639 -3.91698,8.5543 -6.85473,9.58082 -2.93773,1.02651 -9.79244,2.39519 -11.42452,2.39519 -1.63207,0 -15.01512,-6.15909 -16.64717,-8.21211 -1.63208,-2.05303 -7.18114,-6.15909 -11.42454,-8.89647 -4.24341,-2.73738 -9.46604,-5.81695 -13.0566,-7.18563 -3.59058,-1.36868 -15.66792,-3.42173 -17.299997,-3.42173 -1.632078,0 -0.65285,-11.63385 -0.65285,-11.63385 l 3.590579,-9.58081 8.160363,-1.36868 c 0,0 12.403765,0.68435 13.709445,1.36868 1.30565,0.68437 13.05662,5.47476 14.68869,5.81694 1.63208,0.34217 10.7717,4.44825 12.40377,5.13258 1.63208,0.68435 13.38302,9.58081 13.38302,9.58081 z"
           inkscape:connector-curvature="0" />
        <path
           sodipodi:nodetypes="czcssc"
           inkscape:connector-curvature="0"
           id="path6028-3-6-2"
           d="m 89.743259,556.87368 c 33.455411,14.63617 4.857877,37.4759 32.431991,45.04211 27.57411,7.56621 9.19163,5.78381 39.82675,-5.4829 11.79834,-3.07029 6.80665,-0.94701 2.2493,-12.41175 -4.55746,-11.46473 -8.86263,-27.13663 -28.12353,-29.06919 -19.261,-1.93266 -24.66725,3.01749 -46.384511,1.92173 z"
           style="fill:#ffffff;fill-opacity:1;stroke:none" />
        <path
           sodipodi:type="arc"
           style="fill:#28170b;fill-opacity:1;stroke:none"
           id="path3789-3-5"
           sodipodi:cx="298.0162"
           sodipodi:cy="430.97678"
           sodipodi:rx="5.8142905"
           sodipodi:ry="6.2875466"
           d="m 303.8305,430.97678 a 5.8142905,6.2875466 0 1 1 -11.62859,0 5.8142905,6.2875466 0 1 1 11.62859,0 z"
           transform="matrix(3.484659,0,0,2.9656756,-900.39221,-700.3247)" />
        <path
           style="fill:#150b02;fill-opacity:0.97058835;stroke:none"
           d="m 89.321541,549.54963 0,3.47873 c 0,1.18552 0.04675,2.39699 0.478569,3.50106 0.431821,1.10408 1.233118,2.06651 2.263041,2.65363 l 2.953822,3.45959 4.486222,1.9114 c 6.254745,-2.97712 13.014705,-4.88938 19.902135,-5.62992 5.76484,-0.61984 11.61711,-0.42087 17.32654,0.58907 6.95009,0.48971 13.69253,3.52645 18.66518,8.40665 2.73202,2.68123 4.93685,5.89761 6.45243,9.41272 0.79367,2.24896 1.59678,4.49458 2.4093,6.73679 1.29612,3.57672 2.61619,7.14475 3.96011,10.70378 -1.91361,-1.18106 -4.14864,-1.83551 -6.39706,-1.87315 -2.70893,-0.0453 -5.42529,0.81366 -7.61558,2.40833 l -10.64895,5.68844 c -7.33198,1.29989 -14.87434,1.40548 -22.23983,0.31133 -1.27941,-0.19006 -2.55349,-0.41601 -3.82024,-0.6775 l -11.99216,-8.92276 7.55758,7.94146 5.72178,3.45672 c 6.90506,3.69483 15.18079,4.7521 22.79297,2.91192 1.89524,-0.45816 3.74448,-1.08704 5.62249,-1.61137 0.66781,-0.18645 1.34149,-0.36951 1.96396,-0.67492 0.62246,-0.3054 1.17063,-0.74066 1.69154,-1.19825 l 1.82772,-1.60556 c 1.03867,-0.48941 2.05543,-1.02531 3.04623,-1.60556 1.60134,-0.93781 3.14675,-1.99735 4.87397,-2.67594 2.93076,-1.15144 6.31036,-1.11069 9.21251,0.11107 l -1.67083,-8.06608 c -0.41035,-1.98101 -0.77073,-3.97184 -1.14458,-5.96006 -0.36568,-1.9448 -0.77633,-3.88172 -1.2672,-5.79876 -0.51562,-2.0137 -1.11943,-4.00418 -1.77904,-5.97541 -1.25695,-3.75636 -2.77767,-7.54306 -5.4832,-10.43619 -2.77044,-2.96254 -6.55325,-4.74444 -10.30182,-6.29369 -2.348,-0.97041 -4.73223,-1.88056 -7.2094,-2.44485 -2.84303,-0.64763 -5.7712,-0.83115 -8.68636,-0.89486 -2.95875,-0.0647 -5.92191,-0.008 -8.87097,0.23979 -3.81086,0.32022 -7.60546,0.96257 -11.25262,2.11296 -4.08235,1.28766 -8.09918,3.22967 -12.378811,3.13815 -1.814779,-0.0388 -3.620692,-0.45317 -5.270865,-1.20938 l -2.741586,-2.40837 -2.436997,-3.21101"
           id="path3785-7-5"
           inkscape:path-effect="#path-effect3787-0-5-7-4-5-6-5-9-3-8-79-3-8-1-6-1-7"
           inkscape:original-d="m 89.321541,549.54963 c 0,0 0,2.40833 0,3.47873 0,1.07037 2.74161,6.15469 2.74161,6.15469 l 2.953822,3.45959 4.486222,1.9114 c 0,0 14.695785,-5.77762 19.902135,-5.62992 1.21798,0.0345 17.32654,0.58907 17.32654,0.58907 0,0 16.83743,6.26588 18.66518,8.40665 1.82772,2.14075 6.45243,9.41272 6.45243,9.41272 0,0 1.80007,5.13121 2.4093,6.73679 0.60925,1.60556 3.96011,10.70378 3.96011,10.70378 0,0 -5.17859,-1.87315 -6.39706,-1.87315 -1.21852,0 -7.61558,2.40833 -7.61558,2.40833 l -10.64895,5.68844 c 0,0 5.11023,-5.64385 -22.23983,0.31133 -14.76037,2.99045 -3.82024,-0.6775 -3.82024,-0.6775 -6.83193,-3.19877 -3.60513,-3.62475 -11.99216,-8.92276 3.12047,0.88926 5.46886,9.39584 7.55758,7.94146 1.82772,1.33798 5.72178,3.45672 5.72178,3.45672 0,0 21.57447,2.91192 22.79297,2.91192 1.21847,0 3.49013,-1.07618 5.62249,-1.61137 2.13236,-0.53519 3.6555,-1.87317 3.6555,-1.87317 l 1.82772,-1.60556 c 0,0 2.437,-0.53519 3.04623,-1.60556 0.60924,-1.0704 1.52311,-1.8732 4.87397,-2.67594 3.35086,-0.8028 9.21251,0.11107 9.21251,0.11107 l -1.67083,-8.06608 c 0,0 -0.83999,-4.35447 -1.14458,-5.96006 -0.30463,-1.60558 -0.65797,-2.85519 -1.2672,-5.79876 -0.60924,-2.94354 0.0487,-3.03187 -1.77904,-5.97541 -1.82775,-2.94354 -3.96009,-9.36582 -5.4832,-10.43619 -1.52314,-1.07038 -6.09188,-3.89928 -10.30182,-6.29369 -5.16015,-2.93485 -4.46781,-1.64205 -7.2094,-2.44485 -2.74163,-0.80277 -5.03089,-0.35967 -8.68636,-0.89486 -3.65549,-0.53519 -3.08316,-1.09819 -8.87097,0.23979 -5.78785,1.33796 -6.68328,1.57775 -11.25262,2.11296 -4.56933,0.53519 -9.6372,3.13815 -12.378811,3.13815 -2.74161,0 -5.270865,-1.20938 -5.270865,-1.20938 l -2.741586,-2.40837 z"
           inkscape:connector-curvature="0"
           sodipodi:nodetypes="cscccscscscscccccccssccsscccsssssssssccc" />
        <path
           style="fill:#c83737;fill-opacity:1;stroke:none"
           d="m 157.06858,774.19348 c 3.54932,-2.35069 7.56863,-3.98861 11.75001,-4.78827 4.49144,-0.85896 9.16522,-0.74814 13.61225,0.31712 3.33362,0.79855 6.53908,2.12961 9.4578,3.92732 2.16576,-1.67006 4.67892,-2.88748 7.33192,-3.55173 4.29238,-1.07471 8.80237,-0.69431 13.19852,-0.19091 6.067,0.69473 12.16184,1.62415 17.88079,3.76534 3.88425,1.45428 7.56152,3.46016 10.88706,5.93869 2.43463,2.05597 5.12594,3.80767 7.99154,5.20149 4.07653,1.98281 8.46457,3.22763 12.82332,4.473 4.19278,1.19795 8.39757,2.40884 12.71029,3.05297 8.04548,1.20164 16.38566,0.37624 24.03953,-2.37912 1.21918,0.72334 2.23131,1.79137 2.88814,3.04762 0.65683,1.25626 0.95634,2.69688 0.85464,4.11084 -0.11254,1.56467 -0.71847,3.09023 -1.71018,4.30571 l -33.45684,14.90047 c -2.60951,3.41952 -5.61184,6.53903 -8.92901,9.27747 -3.55808,2.93732 -7.46756,5.42965 -11.5239,7.62826 -3.43145,1.85991 -7.00726,3.52595 -10.81002,4.40523 -6.60564,1.52736 -13.51878,0.60626 -20.174,-0.68808 -5.3298,-1.03656 -10.61381,-2.30856 -15.83145,-3.81103 l -13.08646,-4.02741 c -1.75619,-0.54047 -3.50922,-1.13758 -5.09914,-2.0587 -1.58992,-0.92112 -3.00341,-2.13048 -4.22735,-3.50098 -3.28598,-3.67945 -5.26534,-8.50286 -5.51116,-13.42989 l 2.1984,-7.54959 c 0.13867,-1.82057 -0.46202,-3.68675 -1.63662,-5.08461 -1.00726,-1.19871 -2.38278,-2.02914 -3.79141,-2.71271 -1.40863,-0.68356 -2.87902,-1.24413 -4.23763,-2.02237 -3.12017,-1.78729 -5.55893,-4.73287 -6.7326,-8.13175 -1.17367,-3.39888 -1.07209,-7.22166 0.28042,-10.55342 l -1.14686,0.12904"
           id="path3791-8-3"
           inkscape:path-effect="#path-effect3793-9-5-6-8-9-1-1-0-7-0-3-19-6-7-1-6-1"
           inkscape:original-d="m 157.06858,774.19348 c 0,0 10.35877,-4.44688 11.75001,-4.78827 1.39124,-0.3414 12.50291,-0.0202 13.61225,0.31712 1.10935,0.33737 9.4578,3.92732 9.4578,3.92732 0,0 5.03818,-3.29363 7.33192,-3.55173 2.29373,-0.25806 10.71672,-0.42006 13.19852,-0.19091 2.48188,0.22879 15.69964,2.62425 17.88079,3.76534 2.18117,1.14109 10.88706,5.93869 10.88706,5.93869 0,0 6.67532,4.61011 7.99154,5.20149 1.3162,0.59138 11.71398,4.13562 12.82332,4.473 1.10935,0.33735 11.82657,2.73645 12.71029,3.05297 0.88373,0.31653 24.03953,-2.37912 24.03953,-2.37912 0,0 3.59479,4.43973 3.74278,7.15846 0.0858,1.57666 -1.71018,4.30571 -1.71018,4.30571 -9.06973,9.17531 -21.94844,10.95895 -33.45684,14.90047 -1.22191,1.06184 -6.9552,7.34535 -8.92901,9.27747 -1.97379,1.93208 -8.89202,5.99183 -11.5239,7.62826 -2.63189,1.63642 -9.18442,1.77053 -10.81002,4.40523 -2.91447,4.72367 -17.27845,0.0491 -20.174,-0.68808 -2.89552,-0.73721 -15.83145,-3.81103 -15.83145,-3.81103 l -13.08646,-4.02741 c 0,0 -8.21666,-2.40315 -9.32649,-5.55968 -1.10986,-3.15654 -5.51116,-13.42989 -5.51116,-13.42989 l 2.1984,-7.54959 c 0,0 0.80768,-4.38905 -1.63662,-5.08461 -2.44429,-0.69555 -6.71233,-1.32452 -8.02904,-4.73508 -1.3167,-3.41057 -6.45218,-18.68517 -6.45218,-18.68517 z"
           inkscape:connector-curvature="0"
           sodipodi:nodetypes="csccssscssccsccssssccsccsscc" />
      </g>
      <path
         sodipodi:nodetypes="cc"
         inkscape:connector-curvature="0"
         id="path5973-8-3"
         d="m 549.45669,257.94883 c 2.97561,-3.84238 -7.24256,1.44852 0,0 z"
         style="fill:#af5b33;fill-opacity:1;stroke:none" />
      <path
         sodipodi:nodetypes="csscssc"
         inkscape:connector-curvature="0"
         id="path5975-4-2-3"
         d="m 554.50015,257.96761 c 0.18699,-0.48104 0.72755,-0.31608 1.09507,-0.56952 0.36754,-0.25359 0.56219,-0.92538 0.51936,-1.23357 -0.0857,-0.61637 -1.58278,-1.97077 -3.62286,-3.34595 0.40695,-0.14939 3.10232,1.15124 3.90046,2.45468 1.05298,1.7196 -0.63314,3.71283 -1.60777,2.92433 z"
         style="fill:#af5b33;fill-opacity:0.98823529;stroke:none" />
    </g>
    <path
       sodipodi:nodetypes="cccccsssss"
       inkscape:connector-curvature="0"
       id="path7306-8"
       d="m -0.991202,52.495546 0,139.998814 140.000002,0 0,-139.998814 z M 68.80985,64.562014 c 31.49498,0 57.03005,25.396219 57.03005,56.728046 0,31.33173 -25.53507,56.74956 -57.03005,56.74956 -31.49501,0 -57.030103,-25.41783 -57.030103,-56.74956 0,-31.331827 25.535093,-56.728046 57.030103,-56.728046 z"
       style="fill:#7b5294;fill-opacity:1;stroke:none;display:inline" />
  </g>
</svg>
