<?xml version="1.0" encoding="UTF-8" standalone="no"?>
<!-- Created with Inkscape (http://www.inkscape.org/) -->

<svg
   xmlns:dc="http://purl.org/dc/elements/1.1/"
   xmlns:cc="http://creativecommons.org/ns#"
   xmlns:rdf="http://www.w3.org/1999/02/22-rdf-syntax-ns#"
   xmlns:svg="http://www.w3.org/2000/svg"
   xmlns="http://www.w3.org/2000/svg"
   xmlns:xlink="http://www.w3.org/1999/xlink"
   xmlns:sodipodi="http://sodipodi.sourceforge.net/DTD/sodipodi-0.dtd"
   xmlns:inkscape="http://www.inkscape.org/namespaces/inkscape"
   width="106.29921"
   height="95.669289"
   id="svg4577"
   version="1.1"
   inkscape:version="0.48.4 r9939"
   sodipodi:docname="ego-developer.svg">
  <defs
     id="defs3">
    <linearGradient
       inkscape:collect="always"
       xlink:href="#linearGradient5541-4-9"
       id="linearGradient10685"
       gradientUnits="userSpaceOnUse"
       gradientTransform="matrix(0.15362219,0,0,5.5164261,160.34718,-2057.4152)"
       x1="1368.8352"
       y1="307.22827"
       x2="1368.8352"
       y2="315.50342" />
    <linearGradient
       inkscape:collect="always"
       id="linearGradient5541-4-9">
      <stop
         style="stop-color:#666666;stop-opacity:1;"
         offset="0"
         id="stop5543-0-8" />
      <stop
         style="stop-color:#666666;stop-opacity:0;"
         offset="1"
         id="stop5545-6-4" />
    </linearGradient>
    <linearGradient
       inkscape:collect="always"
       xlink:href="#linearGradient5541-4-9-0"
       id="linearGradient10687"
       gradientUnits="userSpaceOnUse"
       gradientTransform="matrix(0.15362219,0,0,5.5164261,-552.08515,-1036.7391)"
       x1="1368.8352"
       y1="307.22827"
       x2="1368.8352"
       y2="315.50342" />
    <linearGradient
       inkscape:collect="always"
       id="linearGradient5541-4-9-0">
      <stop
         style="stop-color:#666666;stop-opacity:1;"
         offset="0"
         id="stop5543-0-8-6" />
      <stop
         style="stop-color:#666666;stop-opacity:0;"
         offset="1"
         id="stop5545-6-4-9" />
    </linearGradient>
    <inkscape:path-effect
       effect="spiro"
       id="path-effect3812-7-1-8-1-8-4-4-1-8-4-8"
       is_visible="true" />
    <inkscape:path-effect
       effect="spiro"
       id="path-effect2999-8-1-7-7-6-8-8-2-4-7-2-6"
       is_visible="true" />
    <inkscape:path-effect
       effect="spiro"
       id="path-effect3005-1-8-1-4-4-8-2-6-0-3-4-7-5"
       is_visible="true" />
    <inkscape:path-effect
       effect="spiro"
       id="path-effect3779-7-2-5-0-0-5-4-5-9-9-2-7-0"
       is_visible="true" />
    <inkscape:path-effect
       effect="spiro"
       id="path-effect3783-4-4-2-9-0-7-5-0-7-8-7-9-2"
       is_visible="true" />
    <inkscape:path-effect
       effect="spiro"
       id="path-effect3787-0-5-7-4-5-6-5-9-3-8-79-3-8"
       is_visible="true" />
    <inkscape:path-effect
       effect="spiro"
       id="path-effect3793-9-5-6-8-9-1-1-0-7-0-3-19-6"
       is_visible="true" />
    <inkscape:path-effect
       effect="spiro"
       id="path-effect3812-7-1-8-1-8-4-4-1-8-4-8-8"
       is_visible="true" />
    <inkscape:path-effect
       effect="spiro"
       id="path-effect2999-8-1-7-7-6-8-8-2-4-7-2-6-2"
       is_visible="true" />
    <inkscape:path-effect
       effect="spiro"
       id="path-effect3005-1-8-1-4-4-8-2-6-0-3-4-7-5-4"
       is_visible="true" />
    <inkscape:path-effect
       effect="spiro"
       id="path-effect3779-7-2-5-0-0-5-4-5-9-9-2-7-0-5"
       is_visible="true" />
    <inkscape:path-effect
       effect="spiro"
       id="path-effect3783-4-4-2-9-0-7-5-0-7-8-7-9-2-5"
       is_visible="true" />
    <inkscape:path-effect
       effect="spiro"
       id="path-effect3787-0-5-7-4-5-6-5-9-3-8-79-3-8-1"
       is_visible="true" />
    <inkscape:path-effect
       effect="spiro"
       id="path-effect3793-9-5-6-8-9-1-1-0-7-0-3-19-6-7"
       is_visible="true" />
    <inkscape:path-effect
       effect="spiro"
       id="path-effect3812-7-1-8-1-8-4-4-1-8-4-8-8-1"
       is_visible="true" />
    <inkscape:path-effect
       effect="spiro"
       id="path-effect2999-8-1-7-7-6-8-8-2-4-7-2-6-2-1"
       is_visible="true" />
    <inkscape:path-effect
       effect="spiro"
       id="path-effect3005-1-8-1-4-4-8-2-6-0-3-4-7-5-4-5"
       is_visible="true" />
    <inkscape:path-effect
       effect="spiro"
       id="path-effect3779-7-2-5-0-0-5-4-5-9-9-2-7-0-5-2"
       is_visible="true" />
    <inkscape:path-effect
       effect="spiro"
       id="path-effect3783-4-4-2-9-0-7-5-0-7-8-7-9-2-5-7"
       is_visible="true" />
    <inkscape:path-effect
       effect="spiro"
       id="path-effect3787-0-5-7-4-5-6-5-9-3-8-79-3-8-1-6"
       is_visible="true" />
    <inkscape:path-effect
       effect="spiro"
       id="path-effect3793-9-5-6-8-9-1-1-0-7-0-3-19-6-7-1"
       is_visible="true" />
    <inkscape:path-effect
       effect="spiro"
       id="path-effect3812-7-1-8-1-8-4-4-1-8-4-8-8-1-4"
       is_visible="true" />
    <inkscape:path-effect
       effect="spiro"
       id="path-effect2999-8-1-7-7-6-8-8-2-4-7-2-6-2-1-2"
       is_visible="true" />
    <inkscape:path-effect
       effect="spiro"
       id="path-effect3005-1-8-1-4-4-8-2-6-0-3-4-7-5-4-5-3"
       is_visible="true" />
    <inkscape:path-effect
       effect="spiro"
       id="path-effect3779-7-2-5-0-0-5-4-5-9-9-2-7-0-5-2-2"
       is_visible="true" />
    <inkscape:path-effect
       effect="spiro"
       id="path-effect3783-4-4-2-9-0-7-5-0-7-8-7-9-2-5-7-2"
       is_visible="true" />
    <inkscape:path-effect
       effect="spiro"
       id="path-effect3787-0-5-7-4-5-6-5-9-3-8-79-3-8-1-6-1"
       is_visible="true" />
    <inkscape:path-effect
       effect="spiro"
       id="path-effect3793-9-5-6-8-9-1-1-0-7-0-3-19-6-7-1-6"
       is_visible="true" />
    <inkscape:path-effect
       effect="spiro"
       id="path-effect3793-9-5-6-8-9-1-1-0-7-0-3-19-6-1-8-2"
       is_visible="true" />
    <inkscape:path-effect
       effect="spiro"
       id="path-effect3787-0-5-7-4-5-6-5-9-3-8-79-3-8-1-4-9"
       is_visible="true" />
    <inkscape:path-effect
       effect="spiro"
       id="path-effect3783-4-4-2-9-0-7-5-0-7-8-7-9-2-4-9-1"
       is_visible="true" />
    <inkscape:path-effect
       effect="spiro"
       id="path-effect3779-7-2-5-0-0-5-4-5-9-9-2-7-0-3-0-3"
       is_visible="true" />
    <inkscape:path-effect
       effect="spiro"
       id="path-effect3005-1-8-1-4-4-8-2-6-0-3-4-7-5-3-4-5"
       is_visible="true" />
    <inkscape:path-effect
       effect="spiro"
       id="path-effect2999-8-1-7-7-6-8-8-2-4-7-2-6-2-7-9"
       is_visible="true" />
    <inkscape:path-effect
       effect="spiro"
       id="path-effect3812-7-1-8-1-8-4-4-1-8-4-8-1-1-8"
       is_visible="true" />
    <inkscape:path-effect
       effect="spiro"
       id="path-effect3812-7-1-8-1-8-4-4-1-8-4-8-4"
       is_visible="true" />
    <inkscape:path-effect
       effect="spiro"
       id="path-effect2999-8-1-7-7-6-8-8-2-4-7-2-6-0"
       is_visible="true" />
    <inkscape:path-effect
       effect="spiro"
       id="path-effect3005-1-8-1-4-4-8-2-6-0-3-4-7-5-7"
       is_visible="true" />
    <inkscape:path-effect
       effect="spiro"
       id="path-effect3779-7-2-5-0-0-5-4-5-9-9-2-7-0-6"
       is_visible="true" />
    <inkscape:path-effect
       effect="spiro"
       id="path-effect3783-4-4-2-9-0-7-5-0-7-8-7-9-2-3"
       is_visible="true" />
    <inkscape:path-effect
       effect="spiro"
       id="path-effect3787-0-5-7-4-5-6-5-9-3-8-79-3-8-6"
       is_visible="true" />
    <inkscape:path-effect
       effect="spiro"
       id="path-effect3793-9-5-6-8-9-1-1-0-7-0-3-19-6-15"
       is_visible="true" />
    <inkscape:path-effect
       effect="spiro"
       id="path-effect3812-7-1-8-1-8-4-4-1-8-4-8-17-5"
       is_visible="true" />
    <inkscape:path-effect
       effect="spiro"
       id="path-effect2999-8-1-7-7-6-8-8-2-4-7-2-6-4-7"
       is_visible="true" />
    <inkscape:path-effect
       effect="spiro"
       id="path-effect3005-1-8-1-4-4-8-2-6-0-3-4-7-5-0-4"
       is_visible="true" />
    <inkscape:path-effect
       effect="spiro"
       id="path-effect3779-7-2-5-0-0-5-4-5-9-9-2-7-0-9-44"
       is_visible="true" />
    <inkscape:path-effect
       effect="spiro"
       id="path-effect3783-4-4-2-9-0-7-5-0-7-8-7-9-2-48-44"
       is_visible="true" />
    <inkscape:path-effect
       effect="spiro"
       id="path-effect3787-0-5-7-4-5-6-5-9-3-8-79-3-8-8-2"
       is_visible="true" />
    <inkscape:path-effect
       effect="spiro"
       id="path-effect3793-9-5-6-8-9-1-1-0-7-0-3-19-6-2-9"
       is_visible="true" />
    <inkscape:path-effect
       effect="spiro"
       id="path-effect3812-7-1-8-1-8-4-4-1-8-4-8-17-5-7"
       is_visible="true" />
    <inkscape:path-effect
       effect="spiro"
       id="path-effect2999-8-1-7-7-6-8-8-2-4-7-2-6-4-7-6"
       is_visible="true" />
    <inkscape:path-effect
       effect="spiro"
       id="path-effect3005-1-8-1-4-4-8-2-6-0-3-4-7-5-0-4-1"
       is_visible="true" />
    <inkscape:path-effect
       effect="spiro"
       id="path-effect3779-7-2-5-0-0-5-4-5-9-9-2-7-0-9-44-8"
       is_visible="true" />
    <inkscape:path-effect
       effect="spiro"
       id="path-effect3783-4-4-2-9-0-7-5-0-7-8-7-9-2-48-44-9"
       is_visible="true" />
    <inkscape:path-effect
       effect="spiro"
       id="path-effect3787-0-5-7-4-5-6-5-9-3-8-79-3-8-8-2-2"
       is_visible="true" />
    <inkscape:path-effect
       effect="spiro"
       id="path-effect3793-9-5-6-8-9-1-1-0-7-0-3-19-6-2-9-7"
       is_visible="true" />
    <inkscape:path-effect
       effect="spiro"
       id="path-effect3812-7-1-8-1-8-4-4-1-8-4-8-17-39"
       is_visible="true" />
    <inkscape:path-effect
       effect="spiro"
       id="path-effect2999-8-1-7-7-6-8-8-2-4-7-2-6-4-1"
       is_visible="true" />
    <inkscape:path-effect
       effect="spiro"
       id="path-effect3005-1-8-1-4-4-8-2-6-0-3-4-7-5-0-2"
       is_visible="true" />
    <inkscape:path-effect
       effect="spiro"
       id="path-effect3779-7-2-5-0-0-5-4-5-9-9-2-7-0-9-8"
       is_visible="true" />
    <inkscape:path-effect
       effect="spiro"
       id="path-effect3783-4-4-2-9-0-7-5-0-7-8-7-9-2-48-8"
       is_visible="true" />
    <inkscape:path-effect
       effect="spiro"
       id="path-effect3787-0-5-7-4-5-6-5-9-3-8-79-3-8-8-1"
       is_visible="true" />
    <inkscape:path-effect
       effect="spiro"
       id="path-effect3793-9-5-6-8-9-1-1-0-7-0-3-19-6-2-8"
       is_visible="true" />
    <inkscape:path-effect
       effect="spiro"
       id="path-effect3812-7-1-8-1-8-4-4-1-8-4-8-8-2"
       is_visible="true" />
    <inkscape:path-effect
       effect="spiro"
       id="path-effect2999-8-1-7-7-6-8-8-2-4-7-2-6-5-2"
       is_visible="true" />
    <inkscape:path-effect
       effect="spiro"
       id="path-effect3005-1-8-1-4-4-8-2-6-0-3-4-7-5-8-0"
       is_visible="true" />
    <inkscape:path-effect
       effect="spiro"
       id="path-effect3779-7-2-5-0-0-5-4-5-9-9-2-7-0-39-1"
       is_visible="true" />
    <inkscape:path-effect
       effect="spiro"
       id="path-effect3783-4-4-2-9-0-7-5-0-7-8-7-9-2-44-2"
       is_visible="true" />
    <inkscape:path-effect
       effect="spiro"
       id="path-effect3787-0-5-7-4-5-6-5-9-3-8-79-3-8-69-7"
       is_visible="true" />
    <inkscape:path-effect
       effect="spiro"
       id="path-effect3793-9-5-6-8-9-1-1-0-7-0-3-19-6-8-7"
       is_visible="true" />
    <inkscape:path-effect
       effect="spiro"
       id="path-effect3812-7-1-8-1-8-4-4-1-8-4-8-8-2-9"
       is_visible="true" />
    <inkscape:path-effect
       effect="spiro"
       id="path-effect2999-8-1-7-7-6-8-8-2-4-7-2-6-5-2-5"
       is_visible="true" />
    <inkscape:path-effect
       effect="spiro"
       id="path-effect3005-1-8-1-4-4-8-2-6-0-3-4-7-5-8-0-4"
       is_visible="true" />
    <inkscape:path-effect
       effect="spiro"
       id="path-effect3779-7-2-5-0-0-5-4-5-9-9-2-7-0-39-1-3"
       is_visible="true" />
    <inkscape:path-effect
       effect="spiro"
       id="path-effect3783-4-4-2-9-0-7-5-0-7-8-7-9-2-44-2-1"
       is_visible="true" />
    <inkscape:path-effect
       effect="spiro"
       id="path-effect3787-0-5-7-4-5-6-5-9-3-8-79-3-8-69-7-2"
       is_visible="true" />
    <inkscape:path-effect
       effect="spiro"
       id="path-effect3793-9-5-6-8-9-1-1-0-7-0-3-19-6-8-7-3"
       is_visible="true" />
    <inkscape:path-effect
       effect="spiro"
       id="path-effect3793-9-5-6-8-9-1-1-0-7-0-3-19-6-1-8-2-1"
       is_visible="true" />
    <inkscape:path-effect
       effect="spiro"
       id="path-effect3787-0-5-7-4-5-6-5-9-3-8-79-3-8-1-4-9-1"
       is_visible="true" />
    <inkscape:path-effect
       effect="spiro"
       id="path-effect3783-4-4-2-9-0-7-5-0-7-8-7-9-2-4-9-1-5"
       is_visible="true" />
    <inkscape:path-effect
       effect="spiro"
       id="path-effect3779-7-2-5-0-0-5-4-5-9-9-2-7-0-3-0-3-2"
       is_visible="true" />
    <inkscape:path-effect
       effect="spiro"
       id="path-effect3005-1-8-1-4-4-8-2-6-0-3-4-7-5-3-4-5-7"
       is_visible="true" />
    <inkscape:path-effect
       effect="spiro"
       id="path-effect2999-8-1-7-7-6-8-8-2-4-7-2-6-2-7-9-6"
       is_visible="true" />
    <inkscape:path-effect
       effect="spiro"
       id="path-effect3812-7-1-8-1-8-4-4-1-8-4-8-1-1-8-1"
       is_visible="true" />
    <inkscape:path-effect
       effect="spiro"
       id="path-effect3793-9-5-6-8-9-1-1-0-7-0-3-19-6-15-4"
       is_visible="true" />
    <inkscape:path-effect
       effect="spiro"
       id="path-effect3787-0-5-7-4-5-6-5-9-3-8-79-3-8-6-2"
       is_visible="true" />
    <inkscape:path-effect
       effect="spiro"
       id="path-effect3783-4-4-2-9-0-7-5-0-7-8-7-9-2-3-3"
       is_visible="true" />
    <inkscape:path-effect
       effect="spiro"
       id="path-effect3779-7-2-5-0-0-5-4-5-9-9-2-7-0-6-2"
       is_visible="true" />
    <inkscape:path-effect
       effect="spiro"
       id="path-effect3005-1-8-1-4-4-8-2-6-0-3-4-7-5-7-2"
       is_visible="true" />
    <inkscape:path-effect
       effect="spiro"
       id="path-effect2999-8-1-7-7-6-8-8-2-4-7-2-6-0-1"
       is_visible="true" />
    <inkscape:path-effect
       effect="spiro"
       id="path-effect3812-7-1-8-1-8-4-4-1-8-4-8-4-6"
       is_visible="true" />
  </defs>
  <sodipodi:namedview
     id="base"
     pagecolor="#ffffff"
     bordercolor="#666666"
     borderopacity="1.0"
     inkscape:pageopacity="0.0"
     inkscape:pageshadow="2"
     inkscape:zoom="5.542841"
     inkscape:cx="54.609559"
     inkscape:cy="50.278899"
     inkscape:document-units="mm"
     inkscape:current-layer="layer2"
     showgrid="false"
     units="mm"
     inkscape:window-width="1440"
     inkscape:window-height="825"
     inkscape:window-x="-9"
     inkscape:window-y="-9"
     inkscape:window-maximized="1"
     showguides="false"
     inkscape:guide-bbox="true"
     inkscape:snap-global="false">
    <sodipodi:guide
       orientation="1,0"
       position="53.149605,49.011239"
       id="guide5177" />
    <sodipodi:guide
       orientation="0,1"
       position="50.634127,53.149605"
       id="guide5179" />
    <sodipodi:guide
       orientation="0,1"
       position="-75.509159,100.52587"
       id="guide5483" />
    <sodipodi:guide
       orientation="0,1"
       position="-16.29529,5.9672891"
       id="guide5485" />
    <sodipodi:guide
       orientation="1,0"
       position="99.607826,29.606935"
       id="guide5487" />
    <sodipodi:guide
       orientation="1,0"
       position="6.1968002,73.67307"
       id="guide5489" />
    <sodipodi:guide
       orientation="0,1"
       position="-0.15063195,106.29595"
       id="guide5492" />
    <sodipodi:guide
       orientation="1,0"
       position="0,110.05327"
       id="guide5494" />
    <sodipodi:guide
       orientation="1,0"
       position="106.29688,0"
       id="guide5496" />
    <sodipodi:guide
       orientation="0,1"
       position="0,0"
       id="guide5498" />
    <sodipodi:guide
       orientation="1,0"
       position="9.5003953,73.767775"
       id="guide5609" />
    <sodipodi:guide
       orientation="0,1"
       position="82.988747,97.23934"
       id="guide5611" />
    <sodipodi:guide
       orientation="1,0"
       position="96.121646,65.664497"
       id="guide5613" />
    <sodipodi:guide
       orientation="0,1"
       position="49.737363,10.897512"
       id="guide5615" />
  </sodipodi:namedview>
  <metadata
     id="metadata4581">
    <rdf:RDF>
      <cc:Work
         rdf:about="">
        <dc:format>image/svg+xml</dc:format>
        <dc:type
           rdf:resource="http://purl.org/dc/dcmitype/StillImage" />
        <dc:title />
      </cc:Work>
    </rdf:RDF>
  </metadata>
  <g
     inkscape:groupmode="layer"
     id="layer2"
     inkscape:label="developer"
     style="display:inline"
     transform="translate(0,-10.629928)">
    <rect
       style="opacity:0.98999999;fill:#ffffff;fill-opacity:1;stroke:none;display:inline"
       id="rect4130-1-9-4"
       width="99.715721"
       height="93.160034"
       x="4.1402946"
       y="12.64333" />
    <path
       sodipodi:nodetypes="ccczzzc"
       style="fill:#c87137;stroke:none;display:inline"
       d="m 64.346944,83.697278 c -4.286528,6.069936 16.943626,13.621056 -14.927205,13.254828 -27.82795,-3.210444 -0.294233,-8.407464 -4.172074,-27.324924 0,0 4.089421,8.121636 6.069526,10.040628 1.980104,1.919004 2.520612,1.755612 4.193972,2.35914 1.673419,0.603444 4.294926,0.765552 5.766726,1.04844 1.471859,0.282876 3.069055,0.621888 3.069055,0.621888 z"
       id="path14100-9-1-0"
       inkscape:connector-curvature="0" />
    <path
       style="fill:none;stroke:#b5ecb8;stroke-width:1.51259851px;stroke-linecap:round;stroke-linejoin:miter;stroke-opacity:0.98823529;display:inline"
       d="m 16.762732,97.226354 c 0.304976,8.996736 11.413988,2.600484 11.413988,2.600484 33.091903,5.349062 41.065779,1.701972 42.947129,-1.048236 0,0 6.011206,0.548736 8.036082,-1.153884"
       id="path5412-7-4-9-7"
       inkscape:connector-curvature="0"
       sodipodi:nodetypes="cccc" />
    <path
       style="fill:#af5b33;fill-opacity:1;stroke:none;display:inline"
       d="m 47.796153,74.811362 c 1.146616,0.26874 2.053002,1.056168 2.921452,1.900812 0.868449,0.844584 2.693792,2.243808 2.693792,2.243808 l 11.47895,3.690972 -1.226914,2.319456 c 0,0 -16.680057,-2.679432 -15.86728,-10.155048 z"
       id="path6026-4-9-3"
       inkscape:connector-curvature="0"
       sodipodi:nodetypes="cscccc" />
    <path
       style="fill:#150b02;fill-opacity:0.97058835;stroke:none;display:inline"
       d="m 75.075784,58.202459 c 0.479433,0.330403 1.085099,0.472474 1.661445,0.389726 0.576346,-0.08275 1.117576,-0.389483 1.484684,-0.841427 0.367109,-0.451943 0.556405,-1.04455 0.519271,-1.625621 -0.03713,-0.58107 -0.300324,-1.144761 -0.721975,-1.546298 -0.110527,-0.105255 -0.231071,-0.19945 -0.343831,-0.302309 -0.11276,-0.10286 -0.218805,-0.215897 -0.292587,-0.349505 -0.07378,-0.133608 -0.113502,-0.290155 -0.08762,-0.440572 0.01294,-0.07521 0.04226,-0.147919 0.08774,-0.209202 0.04548,-0.06128 0.107305,-0.110837 0.17825,-0.138952 0.104181,-0.04129 0.221157,-0.03491 0.331449,-0.01506 0.110293,0.01984 0.218535,0.05248 0.330186,0.06209 0.219945,0.01893 0.445102,-0.05624 0.614417,-0.197901 0.169314,-0.141657 0.282224,-0.347129 0.318477,-0.56489 0.03625,-0.217761 -0.003,-0.446211 -0.103136,-0.642956 -0.100128,-0.196745 -0.259745,-0.36154 -0.449349,-0.474608 -0.234765,-0.139999 -0.50826,-0.19988 -0.778928,-0.237997 -0.270668,-0.03812 -0.545075,-0.05682 -0.810046,-0.123929 -0.264972,-0.06711 -0.5254,-0.188346 -0.703279,-0.395887 -0.08894,-0.103771 -0.155331,-0.228042 -0.184058,-0.361658 -0.02873,-0.133617 -0.01871,-0.276534 0.03596,-0.401793 0.05772,-0.132241 0.165091,-0.242103 0.295976,-0.302833 0.130884,-0.06073 0.284105,-0.07179 0.422352,-0.03047 0.138247,0.04131 0.260279,0.134623 0.336382,0.257209 0.0761,0.122586 0.105593,0.273348 0.08129,0.415574 l 0.785611,-0.136706 0.891315,-0.742929 c 0.149771,-0.218055 0.317569,-0.423723 0.50112,-0.614218 0.466293,-0.483934 1.035961,-0.872681 1.426467,-1.419605 0.195253,-0.273461 0.34276,-0.587348 0.383734,-0.920854 0.04097,-0.333506 -0.03205,-0.687645 -0.237679,-0.953397 -0.182549,-0.235929 -0.465398,-0.391514 -0.7624,-0.419371 -0.297002,-0.02786 -0.603849,0.07242 -0.827084,0.270291 0.224385,-0.401443 0.472016,-0.789892 0.741237,-1.162752 0.448906,-0.621716 0.967799,-1.218758 1.199361,-1.949802 0.115781,-0.365522 0.15411,-0.761532 0.0644,-1.13431 -0.08971,-0.372777 -0.315524,-0.71956 -0.645185,-0.915355 -0.201197,-0.119496 -0.432707,-0.179892 -0.664786,-0.209869 -0.23208,-0.02998 -0.466767,-0.03089 -0.700614,-0.03954 -0.233847,-0.0087 -0.469166,-0.02536 -0.695218,-0.08586 -0.226052,-0.0605 -0.444103,-0.167487 -0.606796,-0.335684 -0.125469,-0.129714 -0.214491,-0.292476 -0.267256,-0.465056 -0.05277,-0.17258 -0.07006,-0.354866 -0.06248,-0.535173 0.01515,-0.360614 0.127648,-0.709189 0.241,-1.05186 0.212416,-0.642148 0.431793,-1.283786 0.575505,-1.94471 0.112532,-0.517528 0.178139,-1.04525 0.195753,-1.574578 0.21138,-0.07707 0.401083,-0.212668 0.542428,-0.387721 0.141344,-0.175052 0.233932,-0.389064 0.26474,-0.611937 0.03081,-0.222873 -2.5e-4,-0.453977 -0.08881,-0.660809 -0.08856,-0.206832 -0.23436,-0.388806 -0.416906,-0.520331 -0.295099,-0.21262 -0.66977,-0.287197 -1.033425,-0.293952 -0.363655,-0.0068 -0.72546,0.04639 -1.08589,0.09518 l -1.049222,0.142036 -0.922631,0.01866 c -0.01059,-0.421368 -0.23001,-0.832434 -0.574198,-1.07574 -0.304501,-0.215251 -0.699996,-0.296995 -1.06488,-0.220097 -0.227299,0.159912 -0.502554,0.250706 -0.780388,0.257416 -0.281537,0.0068 -0.564576,-0.07283 -0.801268,-0.225429 L 71.6404,29.094673 71.350689,28.496449 C 71.151775,28.304161 70.921065,28.14484 70.670788,28.02693 70.219258,27.814205 69.703885,27.739351 69.210495,27.814831 l 0,0 -1.413313,0.874298 -1.328489,-0.214764 c -0.349274,-0.390858 -0.525497,-0.931029 -0.47391,-1.452662 0.05159,-0.521633 0.330202,-1.016823 0.749269,-1.331696 0.318455,-0.239277 0.712906,-0.379491 0.984283,-0.671075 0.135689,-0.145792 0.236504,-0.331699 0.247765,-0.530546 0.0056,-0.09942 -0.01153,-0.200639 -0.05404,-0.290693 -0.04251,-0.09005 -0.110801,-0.168502 -0.19665,-0.218967 -0.118515,-0.06967 -0.263865,-0.08287 -0.399589,-0.061 -0.135724,0.02187 -0.263893,0.07634 -0.38814,0.135184 -0.124246,0.05884 -0.246747,0.122766 -0.377411,0.165501 -0.130664,0.04273 -0.271884,0.06357 -0.406081,0.03372 -0.128556,-0.02859 -0.244021,-0.102538 -0.337121,-0.195685 -0.0931,-0.09315 -0.165359,-0.205061 -0.22862,-0.320568 -0.126522,-0.231014 -0.223644,-0.485158 -0.409089,-0.672202 -0.166026,-0.167457 -0.397404,-0.268352 -0.633088,-0.276065 -0.235684,-0.0077 -0.473164,0.07784 -0.649782,0.234086 -0.176618,0.156245 -0.290494,0.381519 -0.311582,0.616384 -0.02109,0.234866 0.05084,0.476822 0.196797,0.66203 -0.137143,0.10256 -0.313835,0.150755 -0.484059,0.132032 -0.170225,-0.01872 -0.332218,-0.104167 -0.443792,-0.234083 -0.107827,-0.125552 -0.166948,-0.28745 -0.190644,-0.451244 -0.0237,-0.163794 -0.01397,-0.330563 0.0028,-0.495215 0.01673,-0.164651 0.04042,-0.328888 0.04459,-0.494335 0.0042,-0.165447 -0.01188,-0.333735 -0.07202,-0.48792 -0.08137,-0.208609 -0.241425,-0.381795 -0.432666,-0.498264 -0.191242,-0.11647 -0.412324,-0.178575 -0.635118,-0.200971 -0.445587,-0.04479 -0.890076,0.0642 -1.330803,0.143657 -0.480725,0.08667 -0.968993,0.139163 -1.439413,0.270744 -0.543263,0.151955 -1.056836,0.409307 -1.503752,0.753532 l -0.276581,-0.380624 -0.303362,-0.0045 -0.851951,0.252163 c 0.0063,0.09219 -0.02368,0.186382 -0.08213,0.257953 -0.04005,0.04904 -0.09262,0.08727 -0.150324,0.113334 -0.0577,0.02606 -0.120447,0.04016 -0.183601,0.04467 -0.126308,0.009 -0.252386,-0.01982 -0.373035,-0.05828 -0.09719,-0.03098 -0.192354,-0.06832 -0.284675,-0.111709 -0.04492,-0.06612 -0.09863,-0.126258 -0.159293,-0.178318 -0.181085,-0.155419 -0.424277,-0.234668 -0.662551,-0.221535 -0.223915,0.01234 -0.442543,0.105251 -0.606838,0.257885 l -0.04135,0.313979 c -0.320368,-0.256881 -0.696749,-0.443533 -1.095136,-0.543091 -0.701512,-0.17531 -1.468784,-0.07144 -2.098437,0.284071 -0.222374,0.110876 -0.437447,0.236391 -0.643366,0.375463 -0.272214,0.183845 -0.528408,0.391402 -0.764729,0.619551 l -0.632924,0.616883 c -0.24695,0.340383 -0.452918,0.710469 -0.612044,1.099729 -0.127808,0.312648 -0.225261,0.636891 -0.34847,0.951381 -0.123208,0.314489 -0.274614,0.622738 -0.495864,0.877948 -0.356801,0.411568 -0.892237,0.662587 -1.436823,0.6736 -0.544587,0.01101 -1.089733,-0.218154 -1.462882,-0.61496 -0.169948,-0.358293 -0.409267,-0.683526 -0.700785,-0.952364 -0.479669,-0.442351 -1.107369,-0.728867 -1.758562,-0.770153 -0.651192,-0.04129 -1.320635,0.169792 -1.810608,0.600702 -0.446777,0.392921 -0.725765,0.937675 -0.991798,1.469862 -0.121886,0.243828 -0.243252,0.487917 -0.364096,0.732264 -0.09846,0.217442 -0.222707,0.42319 -0.369315,0.611552 -0.322721,0.414632 -0.755216,0.743023 -1.241295,0.94251 -0.48608,0.199487 -1.024575,0.26959 -1.545528,0.201202 -0.549072,0.690527 -1.378104,1.151587 -2.254384,1.253761 -0.424422,0.04949 -0.854051,0.01816 -1.280621,0.04306 -0.426571,0.0249 -0.866164,0.113352 -1.208012,0.369716 -0.289542,0.217137 -0.490226,0.549364 -0.547692,0.906689 -0.05747,0.357324 0.02893,0.73572 0.235795,1.032691 -0.230121,0.269014 -0.484677,0.517118 -0.759508,0.740259 -0.196914,0.159878 -0.4046,0.307318 -0.587885,0.482654 -0.183285,0.175337 -0.343624,0.383066 -0.419574,0.625074 -0.07383,0.235262 -0.06255,0.496256 0.03132,0.724266 l 0.811708,0.466853 c 0.203091,0.179055 0.388696,0.377935 0.553316,0.592893 0.453667,0.592388 0.742637,1.302623 0.879568,2.036099 0.09641,0.516396 0.119327,1.046454 0.06786,1.569244 -0.401202,-0.03558 -0.811708,0.04027 -1.173711,0.216855 -0.362003,0.176586 -0.674472,0.453409 -0.893405,0.791487 -0.251538,0.388427 -0.376031,0.845413 -0.456161,1.301183 -0.08013,0.45577 -0.119652,0.918671 -0.219828,1.370458 -0.151034,0.681149 -0.436854,1.32403 -0.644849,1.989998 -0.311283,0.99668 -0.446833,2.060667 -0.282812,3.091864 0.117358,0.737832 0.398093,1.467383 0.909395,2.01212 0.640531,0.682417 1.574784,1.013901 2.269852,1.640681 0.347534,0.313391 0.636571,0.712245 0.732258,1.170325 0.04784,0.22904 0.04571,0.469863 -0.01846,0.694876 -0.06417,0.225013 -0.191678,0.433408 -0.371066,0.583635 -0.159833,0.133851 -0.359298,0.219773 -0.566367,0.243968 -0.207068,0.0242 -0.420968,-0.01342 -0.607355,-0.106822 -0.587997,1.00604 -0.641174,2.305158 -0.137367,3.355888 0.503807,1.050731 1.550036,1.822703 2.702623,1.994163 0.220599,0.03282 0.447888,0.04594 0.654172,0.130719 0.245403,0.100859 0.443248,0.29848 0.577045,0.527595 0.133797,0.229115 0.207642,0.488825 0.252255,0.750368 0.08923,0.523087 0.06778,1.068336 0.238652,1.570714 0.156861,0.461182 0.472458,0.861533 0.865521,1.149276 0.393062,0.287743 0.860807,0.465767 1.341289,0.545959 0.259573,0.04332 0.523454,0.05895 0.781667,0.109755 0.258214,0.0508 0.515909,0.140364 0.716004,0.311294 0.168449,0.143897 0.287702,0.338957 0.367208,0.545743 0.07951,0.206785 0.121319,0.426027 0.153817,0.645174 0.06499,0.438293 0.09961,0.898167 0.326792,1.278579 0.204995,0.343258 0.548384,0.584655 0.91288,0.748946 0.364497,0.164291 0.755148,0.260476 1.136864,0.379395 1.093292,0.340601 2.126055,0.874531 3.036076,1.569626 L 75.075784,58.202459"
       id="path3810-0-8-2"
       inkscape:path-effect="#path-effect3812-7-1-8-1-8-4-4-1-8-4-8-4-6"
       inkscape:original-d="m 75.075784,58.202459 c 0,0 2.75251,-2.634208 2.943425,-3.62362 0.190911,-0.989416 -0.969614,-1.067743 -0.458054,-1.44054 0.511559,-0.372796 0.299545,0.300602 0.661635,0.04703 0.362087,-0.253575 0.653259,-1.287323 0.380409,-1.880355 -0.381257,-0.82865 -2.858657,-0.72065 -2.440347,-1.521264 0.16982,-0.32502 1.136,0.339478 1.136,0.339478 l 0.785611,-0.136706 0.891315,-0.742929 c 0,0 -0.23751,0.608888 0.50112,-0.614218 0.738629,-1.223106 2.248195,-2.247774 1.572522,-3.293856 -0.272676,-0.422161 -1.589484,-0.14908 -1.589484,-0.14908 0,0 0.392802,-0.06835 0.741237,-1.162752 0.348436,-1.094397 0.913503,-3.280527 0.618572,-3.999467 -0.294929,-0.718936 -2.090648,-0.008 -2.667414,-0.670955 -0.469573,-0.539775 -0.421512,-0.595559 -0.08874,-2.052089 0.332777,-1.456532 0.332777,-1.456532 0.575505,-1.94471 0.242732,-0.488177 0.195753,-1.574578 0.195753,-1.574578 0,0 0.80612,-1.601829 0.301456,-2.180798 -0.445931,-0.51159 -2.119315,-0.198773 -2.119315,-0.198773 l -1.049222,0.142036 -0.922631,0.01866 c 0,0 0.09005,-0.968356 -0.574198,-1.07574 -0.664243,-0.107382 -1.06488,-0.220097 -1.06488,-0.220097 0,0 -0.121365,0.244088 -0.780388,0.257416 -0.659023,0.01333 -0.801268,-0.225429 -0.801268,-0.225429 L 71.6404,29.094673 71.350689,28.496449 c 0,0 0.516783,-0.252086 -0.679901,-0.469519 -1.196683,-0.21743 -1.460293,-0.212099 -1.460293,-0.212099 l 0,0 -1.413313,0.874298 -1.328489,-0.214764 c 2.191787,-1.798992 0.04681,-2.336729 0.275359,-2.784358 0.612046,-1.099729 1.268947,-1.370404 0.98136,-1.711281 -0.287587,-0.340876 -1.070199,0.452921 -1.571221,0.27341 -0.502706,-0.180116 -0.0522,-1.207115 -0.97483,-1.188455 -0.922635,0.01866 -1.397655,1.236435 -1.397655,1.236435 0,0 -0.733408,1.343818 -0.927851,-0.102051 -0.194444,-1.445869 0.459359,-1.579909 -0.215323,-1.928714 -0.674683,-0.348808 -1.344149,-0.576903 -2.398587,-0.555578 -1.05444,0.02132 -0.527219,0.01066 -1.439413,0.270744 -0.912191,0.260083 -1.503752,0.753532 -1.503752,0.753532 -0.350865,0.05871 -0.276581,-0.380624 -0.276581,-0.380624 l -0.303362,-0.0045 -0.851951,0.252163 c 0,0 0.03299,0.223588 -0.08213,0.257953 -0.115116,0.03436 -0.553663,0.139343 -0.70696,0.09973 -0.153295,-0.03961 -0.284675,-0.111709 -0.284675,-0.111709 0,0 0.04383,-0.06496 -0.159293,-0.178318 -0.203125,-0.113359 -0.406712,-0.237387 -0.662551,-0.221535 -0.255839,0.01586 -0.606838,0.257885 -0.606838,0.257885 l -0.04135,0.313979 c -0.826307,-0.427711 -0.562697,-0.433043 -1.095136,-0.543091 -0.532438,-0.110051 -2.098437,0.284071 -2.098437,0.284071 0,0 -0.137026,-0.118045 -0.643366,0.375463 -0.506339,0.493508 -0.764729,0.619551 -0.764729,0.619551 l -0.632924,0.616883 c 0,0 -0.02088,-0.482846 -0.612044,1.099729 -0.591164,1.582574 0.589858,1.437871 -0.844334,1.829329 -1.434196,0.391455 -2.899705,0.05864 -2.899705,0.05864 0,0 0.232288,-0.729601 -0.700785,-0.952364 -0.933072,-0.222764 -2.925807,-0.544914 -3.56917,-0.169451 -0.643362,0.375461 -0.754287,0.860972 -0.991798,1.469862 -0.23751,0.608886 -0.364096,0.732264 -0.364096,0.732264 0,0 0.674685,0.348805 -0.369315,0.611552 -1.043998,0.262746 -2.786823,1.143712 -2.786823,1.143712 0,0 -0.551362,0.977686 -2.254384,1.253761 -1.703026,0.276074 -2.129759,-0.440195 -2.488633,0.412779 -0.358876,0.852979 -0.311897,1.93938 -0.311897,1.93938 0,0 -0.105704,0.606221 -0.759508,0.740259 -0.653802,0.13404 -0.896534,0.622215 -1.007459,1.107728 -0.110924,0.48551 0.03132,0.724266 0.03132,0.724266 l 0.811708,0.466853 c 0,0 0.268829,0.115379 0.553316,0.592893 0.284491,0.477515 0.563759,0.834318 0.879568,2.036099 0.315808,1.201779 0.06786,1.569244 0.06786,1.569244 0,0 -1.333706,-0.335477 -2.067116,1.008342 -0.733408,1.343817 -0.717748,1.705949 -0.675989,2.671641 0.04176,0.965689 -0.728368,0.05862 -0.644849,1.989998 0.08352,1.93138 0.07034,2.303647 -0.282812,3.091864 -0.68064,1.519139 -0.133298,-0.745579 0.909395,2.01212 1.04269,2.7577 2.038392,3.013777 2.612588,4.089517 0.574199,1.075738 -1.173722,0.137146 -1.173722,0.137146 0,0 1.732666,4.400355 2.565256,5.350051 0.832589,0.949696 0.581094,-1.559239 0.654172,0.130719 0.07308,1.689956 0.910049,2.247783 1.067952,2.848677 0.157905,0.600886 0.994468,1.115673 2.20681,1.695235 1.212344,0.579568 0.985619,-0.05361 1.497671,0.421049 0.512051,0.474663 0.313271,1.840976 0.847817,2.469496 0.534545,0.62852 0.85306,0.910909 2.049744,1.128341 1.196682,0.217432 3.036076,1.569626 3.036076,1.569626 z"
       inkscape:connector-curvature="0"
       sodipodi:nodetypes="czszsacccsacssasscacccscscccscccccsazcssssccccsscssccscsccsscssscscsscssccsscsssssscsssszzscc" />
    <path
       style="fill:#c87137;fill-opacity:1;stroke:none;display:inline"
       d="m 75.19737,52.781724 -0.892563,-2.67375 -0.195766,-3.849145 -0.956802,-3.142342 -1.985607,-1.6783 c -0.299368,-0.365839 -0.770404,-0.584782 -1.243067,-0.577793 -0.472664,0.007 -0.93702,0.239763 -1.225441,0.614293 -0.188356,0.24459 -0.301776,0.54016 -0.490069,0.784797 -0.09415,0.122319 -0.208251,0.23206 -0.345558,0.302575 -0.137306,0.07051 -0.299585,0.09925 -0.448767,0.05963 -0.112227,-0.02981 -0.212425,-0.09666 -0.293237,-0.18005 -0.08081,-0.08338 -0.143294,-0.182937 -0.195965,-0.286422 -0.105344,-0.20697 -0.174401,-0.433438 -0.30562,-0.625051 -0.211094,-0.308251 -0.569651,-0.496626 -0.939018,-0.552731 -0.369367,-0.0561 -0.748809,0.0096 -1.102204,0.130834 -0.737161,0.252836 -1.391313,0.757818 -1.792741,1.42579 -0.125497,0.208826 -0.226953,0.433838 -0.280902,0.671425 -0.05395,0.237586 -0.05919,0.488429 0.0041,0.723708 0.0572,0.212724 0.170222,0.410024 0.323958,0.567783 0.153735,0.15776 0.347767,0.275728 0.558236,0.340731 0.272904,0.08429 0.572896,0.07822 0.84217,-0.01703 0.260915,-0.21759 0.479601,-0.485631 0.640385,-0.784915 0.155239,-0.288961 0.256444,-0.606836 0.296844,-0.93236 0.197209,0.13024 0.356789,0.316771 0.454931,0.531764 0.09814,0.214994 0.134529,0.45776 0.103736,0.69208 -0.05101,0.388155 -0.292866,0.746588 -0.633714,0.939172 -0.57707,0.228154 -1.196652,0.348256 -1.817174,0.352248 -0.468732,0.003 -0.942961,-0.06129 -1.375835,-0.241125 -0.432874,-0.17983 -0.823056,-0.4812 -1.062292,-0.884294 -0.130281,-0.219512 -0.212143,-0.469341 -0.222677,-0.724385 -0.01054,-0.255044 0.05466,-0.506511 0.129577,-0.750531 l 0.327661,-1.067236 1.274099,-1.724086 -0.551996,-1.069586 -1.010606,0.02044 -0.970582,0.945985 -0.128411,0.928952 c -0.06145,0.444548 -0.125208,0.891122 -0.258975,1.319497 -0.133768,0.428375 -0.339679,0.840071 -0.644902,1.169066 -0.367966,0.396625 -0.870644,0.659 -1.400766,0.767077 -0.530122,0.108077 -1.085886,0.06582 -1.604367,-0.08873 -0.461921,-0.137696 -0.908699,-0.373141 -1.212391,-0.747443 -0.276863,-0.341235 -0.41917,-0.788776 -0.390234,-1.227248 l 0.296846,-0.93236 0.04669,1.079805 1.030617,0.442333 c 0.381248,0.121977 0.787063,0.166612 1.185709,0.130413 0.290145,-0.02635 0.578504,-0.09603 0.838519,-0.227447 0.260015,-0.131417 0.490981,-0.326602 0.644036,-0.574498 0.143551,-0.232502 0.215496,-0.508549 0.20369,-0.78154 -0.01181,-0.272992 -0.107313,-0.541797 -0.2704,-0.761038 l -1.050618,-0.90511 -1.562602,-1.049146 -1.354144,-0.127006 c -0.447782,-0.0497 -0.902066,-0.04052 -1.347472,0.02725 -1.285062,0.195515 -2.486299,0.896547 -3.288638,1.919221 0.06127,0.303941 0.07482,0.617451 0.04002,0.925546 -0.07938,0.7027 -0.403005,1.350119 -0.689817,1.996514 -0.286812,0.646395 -0.545978,1.336971 -0.484224,2.041438 0.03846,0.438687 0.200143,0.857198 0.387879,1.255546 0.187737,0.398347 0.403493,0.784316 0.561022,1.195546 0.103916,0.271273 0.182288,0.554379 0.204286,0.84404 0.022,0.289661 -0.01409,0.58682 -0.130906,0.852794 -0.146395,0.333334 -0.420495,0.608659 -0.753173,0.756538 -0.332678,0.14788 -0.720716,0.166885 -1.066252,0.05222 l -1.254085,2.186859 c -0.842017,-0.04749 -1.698404,0.254207 -2.324727,0.818979 -0.337841,0.30464 -0.609375,0.681734 -0.795476,1.096835 -0.25692,0.573064 -0.349202,1.218836 -0.26307,1.840923 0.08613,0.622087 0.350401,1.218492 0.75336,1.700192 0.22322,0.400146 0.341962,0.857989 0.341353,1.316185 -6.1e-4,0.458196 -0.120569,0.915723 -0.344853,1.315273 -0.306509,0.54603 -0.80953,0.978986 -1.395108,1.200785 -0.585577,0.2218 -1.249205,0.230736 -1.840542,0.02478 0.430434,0.09676 0.895614,0.02976 1.281246,-0.184537 0.351258,-0.195198 0.633226,-0.50847 0.802707,-0.872833 0.16948,-0.364363 0.227584,-0.777671 0.178521,-1.176515 -0.04906,-0.398845 -0.203704,-0.782591 -0.433826,-1.112028 -0.230122,-0.329436 -0.534576,-0.604895 -0.878388,-0.812928 -0.629721,-0.38103 -1.386983,-0.531844 -2.120427,-0.470262 -0.465925,0.03912 -0.927653,0.162669 -1.337112,0.388412 -0.409459,0.225742 -0.765103,0.556116 -0.994981,0.963268 -0.280393,0.496623 -0.363823,1.091406 -0.285653,1.656334 0.07817,0.564929 0.311083,1.101222 0.624075,1.577972 0.494495,0.753214 1.186675,1.367982 1.629302,2.152799 0.345053,0.61181 0.523804,1.30124 0.795696,1.948889 0.135945,0.323824 0.296561,0.639459 0.50764,0.920154 0.211078,0.280694 0.474738,0.5263 0.787032,0.686972 0.35567,0.182988 0.769838,0.250031 1.165074,0.188593 0.395235,-0.06144 0.769509,-0.251041 1.052848,-0.533361 l -0.178349,-0.673346 0.416915,1.844278 0.295175,2.927494 c 0.282167,0.572074 0.587687,1.132629 0.915546,1.6798 0.540329,0.901767 1.141383,1.767141 1.797742,2.588317 l 2.121268,2.272993 1.926152,1.659361 1.737705,1.199997 c 1.884553,0.613882 3.801334,1.128812 5.739812,1.541961 1.889195,0.402645 3.814393,0.709648 5.744602,0.635646 1.044001,-0.04003 2.083681,-0.191816 3.095549,-0.45194 0.659176,-0.403842 1.237592,-0.938918 1.691448,-1.56471 0.507406,-0.699628 0.853939,-1.500391 1.198183,-2.293131 0.413207,-0.951551 0.82899,-1.901983 1.247343,-2.851282 0.464104,-0.581972 0.905283,-1.182226 1.32217,-1.798903 0.432532,-0.639819 0.838816,-1.297153 1.227041,-1.964786 0.907595,-1.560794 1.726638,-3.206951 2.05195,-4.982895 0.127737,-0.69734 0.177751,-1.408184 0.162427,-2.116961 -0.02457,-1.136398 -0.216072,-2.262139 -0.425577,-3.379328 -0.09943,-0.530191 -0.203022,-1.059601 -0.310775,-1.588163 l -0.192616,-2.752711 0.52478,-1.756701 -0.177582,-2.621083"
       id="path2997-6-3-60"
       inkscape:path-effect="#path-effect2999-8-1-7-7-6-8-8-2-4-7-2-6-0-1"
       inkscape:original-d="m 75.19737,52.781724 -0.892563,-2.67375 -0.195766,-3.849145 -0.956802,-3.142342 -1.985607,-1.6783 c 0,0 -1.712732,-0.250243 -2.468508,0.0365 -0.553944,0.210167 -0.683837,1.210521 -1.284394,1.146999 -0.471632,-0.04989 -0.40143,-0.843395 -0.794822,-1.091523 -0.576951,-0.363906 -1.319509,-0.586015 -2.041222,-0.421897 -0.721713,0.164118 -1.470055,0.905815 -1.792741,1.42579 -0.322685,0.519975 -0.407958,0.971928 -0.276833,1.395133 0.131125,0.423204 0.550491,0.775406 0.882194,0.908514 0.331703,0.133107 0.84217,-0.01703 0.84217,-0.01703 0,0 0.482067,-0.494022 0.640385,-0.784915 0.158317,-0.290894 0.296844,-0.93236 0.296844,-0.93236 0,0 0.594656,0.786291 0.558667,1.223844 -0.03037,0.369294 -0.633714,0.939172 -0.633714,0.939172 0,0 -1.059431,0.443672 -1.817174,0.352248 -0.757742,-0.09142 -2.038495,-0.570092 -2.438127,-1.125419 -0.399631,-0.555327 -0.0931,-1.474916 -0.0931,-1.474916 l 0.327661,-1.067236 1.274099,-1.724086 -0.551996,-1.069586 -1.010606,0.02044 -0.970582,0.945985 -0.128411,0.928952 c 0,0 -0.176933,1.874265 -0.903877,2.488563 -0.726944,0.614299 -2.255272,0.801959 -3.005133,0.678345 -0.749863,-0.123614 -0.930718,-0.39477 -1.212391,-0.747443 -0.281674,-0.352673 -0.390234,-1.227248 -0.390234,-1.227248 l 0.296846,-0.93236 0.04669,1.079805 1.030617,0.442333 c 0,0 0.350208,0.301704 1.185709,0.130413 0.835499,-0.17129 1.209142,-0.339749 1.482555,-0.801945 0.265561,-0.448926 -0.06671,-1.542578 -0.06671,-1.542578 l -1.050618,-0.90511 -1.562602,-1.049146 -1.354144,-0.127006 c 0,0 0.997265,-0.328954 -1.347472,0.02725 -2.344739,0.356204 -3.288638,1.919221 -3.288638,1.919221 0,0 0.343539,0.147445 0.04002,0.925546 -0.303517,0.778101 -1.207394,3.266664 -1.174041,4.037952 0.03335,0.771288 0.915548,1.679802 0.948901,2.451092 0.03335,0.771288 1.569271,1.203403 0.07338,1.696834 -1.495897,0.493431 -1.819425,0.808759 -1.819425,0.808759 l -1.254085,2.186859 c 0,0 -1.657661,0.651096 -2.324727,0.818979 -0.667066,0.167882 -0.815488,0.634062 -0.795476,1.096835 0.02001,0.462773 0.49029,3.541115 0.49029,3.541115 0,0 0.650242,2.155059 -0.0035,2.631458 -0.653726,0.476398 -3.23565,1.225569 -3.23565,1.225569 0,0 1.526487,0.237956 1.281246,-0.184537 -0.245241,-0.422493 -0.13587,-3.360681 -0.330986,-3.974304 -0.195116,-0.613625 -1.726305,-0.668353 -2.120427,-0.470262 -0.491287,0.246931 -3.261398,1.44083 -2.332093,1.35168 0.929305,-0.08915 -0.06396,2.221506 0.338422,3.234306 0.329023,0.828143 1.321504,1.6376 1.629302,2.152799 0.307798,0.5152 1.830774,3.410361 2.090368,3.556015 0.259593,0.145654 2.217922,-0.344768 2.217922,-0.344768 l -0.178349,-0.673346 0.416915,1.844278 c -0.05538,1.136633 0.663932,1.937566 0.295175,2.927494 0,0 0.551996,1.069582 0.915546,1.6798 0.36355,0.610217 1.797742,2.588317 1.797742,2.588317 l 2.121268,2.272993 1.926152,1.659361 1.737705,1.199997 c 2.337278,1.021152 3.656539,1.197688 5.739812,1.541961 0.680408,0.140634 4.902429,0.652678 5.744602,0.635646 0.84217,-0.01703 3.095549,-0.45194 3.095549,-0.45194 0,0 1.230062,-0.96424 1.691448,-1.56471 0.531778,-0.692084 0.82611,-1.516946 1.198183,-2.293131 0.449232,-0.937145 1.247343,-2.851282 1.247343,-2.851282 0,0 0.905514,-1.1848 1.32217,-1.798903 0.434681,-0.640659 0.639009,-0.820936 1.227041,-1.964786 0.588031,-1.143856 1.76246,-3.769253 2.05195,-4.982895 0.289489,-1.213649 0.162427,-2.116961 0.162427,-2.116961 0,0 -0.245438,-2.257904 -0.425577,-3.379328 -0.08551,-0.532335 -0.310775,-1.588163 -0.310775,-1.588163 l -0.192616,-2.752711 0.52478,-1.756701 z"
       inkscape:connector-curvature="0"
       sodipodi:nodetypes="cccccasazzzzczcaczzccccccczzzccccsaccccscssssccsscsczsscazzccccscccccscaacazzcacccc" />
    <path
       sodipodi:nodetypes="czcssc"
       inkscape:connector-curvature="0"
       id="path6028-6-4-16"
       d="m 52.172321,58.367756 c 2.053338,1.21357 1.462,1.703818 2.952072,1.943767 1.490072,0.239951 3.093874,0.153095 5.477527,-0.590719 0.914148,-0.197351 0.524878,-0.05596 0.210191,-0.868267 -0.314687,-0.812304 -0.86465,-1.25123 -2.335918,-1.416843 -1.471267,-0.165613 -3.438419,-0.294257 -6.303872,0.932062 z"
       style="fill:#ffffff;fill-opacity:1;stroke:none;display:inline" />
    <path
       sodipodi:type="arc"
       style="fill:#28170b;fill-opacity:1;stroke:none;display:inline"
       id="path3007-1-8-5"
       sodipodi:cx="385.6362"
       sodipodi:cy="431.92328"
       sodipodi:rx="9.3299084"
       sodipodi:ry="7.9101396"
       d="m 394.96611,431.92328 c 0,4.36865 -4.17714,7.91014 -9.32991,7.91014 -5.15277,0 -9.32991,-3.54149 -9.32991,-7.91014 0,-4.36865 4.17714,-7.91014 9.32991,-7.91014 5.15277,0 9.32991,3.54149 9.32991,7.91014 z"
       transform="matrix(-0.17729367,0.00358558,0.00723877,0.1673984,121.44727,-15.061692)" />
    <path
       style="fill:#150b02;fill-opacity:0.97058835;stroke:none;display:inline"
       d="m 60.160118,59.600512 0.817056,-0.173764 c -0.52932,-0.710748 -1.25282,-1.275385 -2.070875,-1.616161 -1.266631,-0.527638 -2.754222,-0.497551 -3.998483,0.08087 l -1.11603,0.633428 -0.738994,0.538538 -0.963331,-0.242314 -0.521253,-1.036643 0.772927,0.246165 c 0.477277,-0.160434 0.946527,-0.344746 1.405408,-0.552016 0.612995,-0.276881 1.215659,-0.597535 1.873875,-0.736019 0.744599,-0.156658 1.521774,-0.07038 2.260612,0.111521 0.849917,0.209247 1.678315,0.549959 2.36782,1.089149 0.601094,0.470053 1.08679,1.086592 1.403053,1.781028 l -0.472929,0.0018 -0.493262,0.07291 c -0.339526,0.08365 -0.677894,0.172007 -1.014973,0.265032 -0.335495,0.09259 -0.669714,0.189802 -1.002529,0.291605 l -1.10899,-0.07696 0.687261,-0.09858 c 0.313928,-0.0924 0.627501,-0.186008 0.940709,-0.280822 0.324705,-0.09829 0.649018,-0.197884 0.972928,-0.298767"
       id="path3003-8-4-7"
       inkscape:path-effect="#path-effect3005-1-8-1-4-4-8-2-6-0-3-4-7-5-7-2"
       inkscape:original-d="m 60.160118,59.600512 0.817056,-0.173764 c 0,0 -0.726738,-1.381549 -2.070875,-1.616161 -1.344138,-0.234613 -3.998483,0.08087 -3.998483,0.08087 l -1.11603,0.633428 -0.738994,0.538538 -0.963331,-0.242314 -0.521253,-1.036643 0.772927,0.246165 c 0,0 1.03214,-0.369936 1.405408,-0.552016 0.373267,-0.182079 1.202321,-0.627396 1.873875,-0.736019 0.740202,-0.119728 1.528914,-0.06693 2.260612,0.111521 0.851248,0.207608 1.694546,0.563693 2.36782,1.089149 0.608679,0.475044 1.403053,1.781028 1.403053,1.781028 l -0.472929,0.0018 -0.493262,0.07291 -1.014973,0.265032 -1.002529,0.291605 -1.10899,-0.07696 0.687261,-0.09858 0.940709,-0.280822 z"
       inkscape:connector-curvature="0"
       sodipodi:nodetypes="ccsccccccsaaaccccccccc" />
    <path
       style="fill:#150b02;fill-opacity:0.97058835;stroke:none;display:inline"
       d="m 63.499032,54.635619 0.04391,0.448367 c -0.02338,0.151223 -0.07563,0.29793 -0.153099,0.42989 -0.09777,0.166547 -0.235868,0.309233 -0.399128,0.412401 l -0.43722,0.09869 -1.020261,-0.338771 c -0.563101,-0.563269 -1.195522,-1.057173 -1.878445,-1.467015 -0.464236,-0.278601 -0.954802,-0.519634 -1.475921,-0.666496 -0.700202,-0.197332 -1.441662,-0.220006 -2.164264,-0.135933 -0.508121,0.05912 -1.008591,0.169915 -1.508676,0.277603 -0.635459,0.13684 -1.273174,0.269262 -1.893005,0.465075 -0.514076,0.162404 -1.014463,0.368119 -1.494118,0.61425 l -0.93243,0.557964 c -0.121927,0.125957 -0.247519,0.248365 -0.376564,0.367018 -0.08514,0.07828 -0.171777,0.154927 -0.259856,0.229883 l -0.458815,0.16652 -0.05362,-0.672798 c 0.637381,-0.851262 1.445063,-1.574473 2.361281,-2.114329 0.42135,-0.248269 0.865035,-0.45797 1.321609,-0.633224 0.812563,-0.311899 1.663905,-0.514169 2.522389,-0.657506 1.014694,-0.169419 2.064584,-0.256173 3.06515,-0.01706 0.564778,0.134969 1.099492,0.370377 1.643579,0.573255 0.556231,0.207406 1.125244,0.3818 1.670026,0.617645 0.419361,0.181548 0.823123,0.39911 1.205387,0.649505 l 0.672091,0.795066"
       id="path3777-4-9-5"
       inkscape:path-effect="#path-effect3779-7-2-5-0-0-5-4-5-9-9-2-7-0-6-2"
       inkscape:original-d="m 63.499032,54.635619 0.04391,0.448367 c 0,0 -0.05993,0.315692 -0.153099,0.42989 -0.09317,0.114197 -0.399128,0.412401 -0.399128,0.412401 l -0.43722,0.09869 -1.020261,-0.338771 c -0.283729,-0.984978 -0.929521,-1.053106 -1.878445,-1.467015 0,0 -1.352422,-0.64653 -1.475921,-0.666496 -0.123499,-0.01997 -2.040764,-0.115967 -2.164264,-0.135933 -0.123498,-0.01996 -1.508676,0.277603 -1.508676,0.277603 0,0 -1.772418,0.417711 -1.893005,0.465075 -0.120587,0.04737 -1.494118,0.61425 -1.494118,0.61425 l -0.93243,0.557964 -0.376564,0.367018 -0.259856,0.229883 -0.458815,0.16652 -0.05362,-0.672798 c 0.517587,-1.042567 1.393711,-1.501916 2.361281,-2.114329 0.191194,-0.116181 1.080434,-0.538494 1.321609,-0.633224 0.241176,-0.09473 2.035185,-0.580264 2.522389,-0.657506 0.487201,-0.07724 2.666267,-0.166237 3.06515,-0.01706 0.398885,0.149171 1.220189,0.424577 1.643579,0.573255 0.423391,0.148677 1.345629,0.48943 1.670026,0.617645 0.324397,0.128216 1.205387,0.649505 1.205387,0.649505 z"
       inkscape:connector-curvature="0"
       sodipodi:nodetypes="ccsccccsccccccccccssssscc" />
    <path
       style="fill:#150b02;fill-opacity:0.97058835;stroke:none;display:inline"
       d="m 70.043461,53.539539 -0.430851,0.465736 c -0.133583,0.05661 -0.247451,0.15859 -0.318381,0.285151 -0.07093,0.126561 -0.09848,0.276919 -0.07704,0.420407 0.02214,0.148134 0.09509,0.286181 0.194906,0.397852 0.09982,0.111671 0.225625,0.19805 0.359888,0.264435 0.271637,0.134309 0.58281,0.188626 0.88343,0.15051 0.464534,-0.0589 0.873502,-0.326572 1.251743,-0.602606 0.286728,-0.209249 0.566721,-0.427538 0.849137,-0.642572 0.297557,-0.226562 0.61193,-0.455912 0.979497,-0.524941 0.225231,-0.0423 0.45704,-0.0214 0.685806,-0.03497 0.114383,-0.0068 0.22896,-0.0224 0.337808,-0.0582 0.108849,-0.0358 0.212148,-0.09254 0.292744,-0.173993 0.105882,-0.107 0.168548,-0.255605 0.171258,-0.406113 0.0027,-0.150507 -0.05457,-0.301272 -0.156528,-0.412014 l -0.304463,-0.667349 -0.629982,-0.08347 c -0.352357,-0.01777 -0.707554,0.02205 -1.047231,0.117393 -0.382091,0.107253 -0.740772,0.282891 -1.10882,0.431341 -0.312251,0.125945 -0.632691,0.232867 -0.935667,0.37973 -0.365865,0.177347 -0.703711,0.412348 -0.997252,0.693671"
       id="path3781-9-9-4"
       inkscape:path-effect="#path-effect3783-4-4-2-9-0-7-5-0-7-8-7-9-2-3-3"
       inkscape:original-d="m 70.043461,53.539539 -0.430851,0.465736 c 0,0 -0.506987,0.443223 -0.395423,0.705558 0.111563,0.262336 0.326378,0.594745 0.554794,0.662287 0.228414,0.06754 0.758265,0.153041 0.88343,0.15051 0.125165,-0.0025 1.132815,-0.455879 1.251743,-0.602606 0.11893,-0.146728 0.532021,-0.443728 0.849137,-0.642572 0.317116,-0.198844 0.708291,-0.423241 0.979497,-0.524941 0.271207,-0.101699 1.191193,-0.264629 1.316358,-0.267161 0.125165,-0.0025 0.01473,-0.818127 0.01473,-0.818127 l -0.304463,-0.667349 -0.629982,-0.08347 c 0,0 -0.949176,0.0673 -1.047231,0.117393 -0.09805,0.05009 -0.984695,0.404776 -1.10882,0.431341 -0.124127,0.02656 -0.81258,0.329134 -0.935667,0.37973 -0.123087,0.0506 -0.997255,0.693675 -0.997255,0.693675 z"
       inkscape:connector-curvature="0" />
    <path
       sodipodi:nodetypes="czcssc"
       inkscape:connector-curvature="0"
       id="path6028-3-6-2-12"
       d="m 75.090286,56.449807 c -2.521269,1.079876 -0.258732,2.639693 -2.350433,3.21388 -2.0917,0.574188 -0.687347,0.420488 -3.070998,-0.323326 -0.914149,-0.197346 -0.524884,-0.05596 -0.210198,-0.868263 0.314695,-0.812306 0.597263,-1.919715 2.068527,-2.085324 1.471272,-0.165615 1.900916,0.173678 3.563102,0.06303 z"
       style="fill:#ffffff;fill-opacity:1;stroke:none;display:inline" />
    <path
       sodipodi:type="arc"
       style="fill:#28170b;fill-opacity:1;stroke:none;display:inline"
       id="path3789-3-5-0"
       sodipodi:cx="298.0162"
       sodipodi:cy="430.97678"
       sodipodi:rx="5.8142905"
       sodipodi:ry="6.2875466"
       d="m 303.8305,430.97678 c 0,3.47251 -2.60315,6.28754 -5.8143,6.28754 -3.21114,0 -5.81429,-2.81503 -5.81429,-6.28754 0,-3.47252 2.60315,-6.28755 5.81429,-6.28755 3.21115,0 5.8143,2.81503 5.8143,6.28755 z"
       transform="matrix(-0.26724129,0.00540467,0.00900735,0.20829725,147.2062,-33.386494)" />
    <path
       style="fill:#150b02;fill-opacity:0.97058835;stroke:none;display:inline"
       d="m 75.100384,55.934741 c 0.01601,0.08026 0.01959,0.162989 0.01057,0.244332 -0.01779,0.16038 -0.08558,0.314855 -0.191563,0.436533 l -0.216023,0.247569 -0.338247,0.141208 c -0.491639,-0.19991 -1.014283,-0.323359 -1.54341,-0.364555 -0.442809,-0.03448 -0.890061,-0.01147 -1.326997,0.06825 -0.522552,0.02871 -1.032055,0.253183 -1.405915,0.619399 -0.19575,0.191747 -0.354859,0.420768 -0.466254,0.67112 -0.05405,0.159215 -0.108817,0.318185 -0.16431,0.476902 -0.08856,0.253296 -0.178963,0.50595 -0.271194,0.757933 0.146811,-0.08586 0.314957,-0.134924 0.484906,-0.141485 0.206887,-0.008 0.415797,0.0476 0.59136,0.15734 l 0.833953,0.383017 c 0.565267,0.08047 1.142522,0.07619 1.706536,-0.01263 0.09741,-0.01534 0.194426,-0.03319 0.29092,-0.05351 l 0.892588,-0.645299 -0.555477,0.569498 -0.428309,0.251661 c -0.531062,0.271214 -1.154515,0.357203 -1.739167,0.239873 -0.146565,-0.02941 -0.290375,-0.07108 -0.436088,-0.104456 -0.05135,-0.01176 -0.103108,-0.02319 -0.151674,-0.0436 -0.04857,-0.02041 -0.09237,-0.05047 -0.134358,-0.08229 L 70.39718,59.641614 c -0.08093,-0.03273 -0.160521,-0.06878 -0.238494,-0.108044 -0.125881,-0.06339 -0.248329,-0.135461 -0.381916,-0.180388 -0.228,-0.07668 -0.483417,-0.06869 -0.706178,0.02209 l 0.103639,-0.569121 c 0.02545,-0.139748 0.04702,-0.280158 0.06968,-0.420386 0.02217,-0.137219 0.04787,-0.273911 0.07957,-0.409247 0.03336,-0.142419 0.07334,-0.283251 0.118287,-0.422448 0.08648,-0.267847 0.195709,-0.53673 0.388815,-0.741501 0.206771,-0.219262 0.49118,-0.34593 0.770939,-0.458022 0.178193,-0.0714 0.358504,-0.139373 0.545469,-0.182898 0.217142,-0.05055 0.440672,-0.06751 0.663446,-0.07632 0.226929,-0.009 0.454302,-0.0096 0.68105,0.0031 0.293113,0.01647 0.585669,0.05553 0.86939,0.130953 0.317125,0.08431 0.63102,0.214949 0.958872,0.201212 0.137756,-0.0058 0.274379,-0.03753 0.400554,-0.09312 l 0.20294,-0.173407 0.177141,-0.229326"
       id="path3785-7-5-01"
       inkscape:path-effect="#path-effect3787-0-5-7-4-5-6-5-9-3-8-79-3-8-6-2"
       inkscape:original-d="m 75.100384,55.934741 c 0,0 0.0073,0.169152 0.01057,0.244332 0.0033,0.07518 -0.191563,0.436533 -0.191563,0.436533 l -0.216023,0.247569 -0.338247,0.141208 c 0,0 -1.144579,-0.383004 -1.54341,-0.364555 -0.0933,0.0043 -1.326997,0.06825 -1.326997,0.06825 0,0 -1.272245,0.466205 -1.405915,0.619399 -0.133667,0.153192 -0.466254,0.67112 -0.466254,0.67112 0,0 -0.122464,0.363187 -0.16431,0.476902 -0.04185,0.113713 -0.271194,0.757933 -0.271194,0.757933 0,0 0.391461,-0.139595 0.484906,-0.141485 0.09345,-0.0019 0.59136,0.15734 0.59136,0.15734 l 0.833953,0.383017 c 0,0 -0.409049,-0.388476 1.706536,-0.01263 1.141067,0.187144 0.29092,-0.05351 0.29092,-0.05351 0.514231,-0.235265 0.265471,-0.26018 0.892588,-0.645299 -0.236611,0.0673 -0.390874,0.668409 -0.555477,0.569498 -0.136106,0.09681 -0.428309,0.251661 -0.428309,0.251661 0,0 -1.64572,0.237983 -1.739167,0.239873 -0.09345,0.0019 -0.27093,-0.07017 -0.436088,-0.104456 -0.165158,-0.03428 -0.286032,-0.125894 -0.286032,-0.125894 L 70.39718,59.641614 c 0,0 -0.188521,-0.03381 -0.238494,-0.108044 -0.04997,-0.07423 -0.122498,-0.129203 -0.381916,-0.180388 -0.259419,-0.05119 -0.706178,0.02209 -0.706178,0.02209 l 0.103639,-0.569121 c 0,0 0.0512,-0.307143 0.06968,-0.420386 0.01849,-0.113242 0.04179,-0.201558 0.07957,-0.409247 0.03778,-0.207688 -0.01294,-0.212871 0.118287,-0.422448 0.131232,-0.209578 0.275257,-0.66396 0.388815,-0.741501 0.113559,-0.07754 0.455348,-0.283319 0.770939,-0.458022 0.386823,-0.214136 0.337653,-0.122261 0.545469,-0.182898 0.20782,-0.06064 0.384731,-0.03307 0.663446,-0.07632 0.278717,-0.04326 0.233115,-0.08192 0.68105,0.0031 0.447939,0.085 0.517338,0.100449 0.86939,0.130953 0.352051,0.0305 0.748616,0.205464 0.958872,0.201212 0.210257,-0.0043 0.400554,-0.09312 0.400554,-0.09312 l 0.20294,-0.173407 z"
       inkscape:connector-curvature="0"
       sodipodi:nodetypes="cscccscscscscccccccssccsscccsssssssssccc" />
    <path
       style="fill:#c83737;fill-opacity:1;stroke:none;display:inline"
       d="m 70.587097,71.817906 c -0.28284,-0.159803 -0.594663,-0.268124 -0.91566,-0.318085 -0.346052,-0.05386 -0.702754,-0.03971 -1.042971,0.04339 -0.25033,0.06114 -0.491567,0.15938 -0.713399,0.290508 -0.173809,-0.11441 -0.369366,-0.195655 -0.573078,-0.238088 -0.332086,-0.06917 -0.676192,-0.03498 -1.012785,0.0071 -0.46111,0.05765 -0.92418,0.130541 -1.359856,0.292196 -0.289939,0.10758 -0.565457,0.253955 -0.8169,0.433996 -0.183155,0.148928 -0.384051,0.276019 -0.59708,0.377726 -0.308952,0.147504 -0.640479,0.240636 -0.969845,0.334055 -0.318791,0.09042 -0.638257,0.181971 -0.96549,0.234142 -0.616077,0.09822 -1.254501,0.05344 -1.850836,-0.129815 -0.08945,0.04804 -0.163951,0.123451 -0.210908,0.21347 -0.04696,0.09002 -0.06617,0.194273 -0.05439,0.295117 0.01311,0.112188 0.06475,0.219512 0.144232,0.299763 l 2.611087,0.994659 c 0.213355,0.237825 0.452916,0.452122 0.712951,0.637763 0.28374,0.202564 0.59099,0.370554 0.906946,0.517906 0.270133,0.125982 0.549414,0.237885 0.842408,0.292639 0.509907,0.09529 1.034775,0.01356 1.545071,-0.07962 0.406121,-0.07416 0.807762,-0.171498 1.202551,-0.292226 l 0.991379,-0.303167 c 0.130541,-0.03992 0.260918,-0.08353 0.380073,-0.150136 0.119156,-0.06661 0.226266,-0.153997 0.318297,-0.254819 0.235474,-0.257967 0.373751,-0.602627 0.381866,-0.95181 l -0.191526,-0.526843 c -0.01219,-0.128064 0.02829,-0.260353 0.11007,-0.359661 0.0741,-0.08999 0.177626,-0.150779 0.283397,-0.199791 0.105772,-0.04901 0.216259,-0.08828 0.317976,-0.145235 0.222354,-0.124496 0.395535,-0.334267 0.475673,-0.576173 0.08014,-0.241905 0.06645,-0.513583 -0.0376,-0.746207 l 0.08835,0.0072"
       id="path3791-8-3-4"
       inkscape:path-effect="#path-effect3793-9-5-6-8-9-1-1-0-7-0-3-19-6-15-4"
       inkscape:original-d="m 70.587097,71.817906 c 0,0 -0.807928,-0.296265 -0.91566,-0.318085 -0.107732,-0.02182 -0.95892,0.01797 -1.042971,0.04339 -0.08405,0.02542 -0.713399,0.290508 -0.713399,0.290508 0,0 -0.396385,-0.223517 -0.573078,-0.238088 -0.176691,-0.01457 -0.823149,-0.01288 -1.012785,0.0071 -0.189642,0.01992 -1.196047,0.208667 -1.359856,0.292196 -0.16381,0.08353 -0.8169,0.433996 -0.8169,0.433996 0,0 -0.497934,0.334149 -0.59708,0.377726 -0.09914,0.04358 -0.885793,0.308638 -0.969845,0.334055 -0.08405,0.02542 -0.898678,0.21054 -0.96549,0.234142 -0.06681,0.0236 -1.850836,-0.129815 -1.850836,-0.129815 0,0 -0.262203,0.317404 -0.265295,0.508587 -0.0018,0.110871 0.144232,0.299763 0.144232,0.299763 0.723432,0.63037 1.716528,0.735671 2.611087,0.994659 0.09694,0.07268 0.55571,0.50512 0.712951,0.637763 0.15724,0.132641 0.700134,0.407051 0.906946,0.517906 0.206811,0.110853 0.709738,0.11011 0.842408,0.292639 0.23786,0.327252 1.325247,-0.02335 1.545071,-0.07962 0.21982,-0.05627 1.202551,-0.292226 1.202551,-0.292226 l 0.991379,-0.303167 c 0,0 0.622844,-0.181531 0.69837,-0.404955 0.07553,-0.223424 0.381866,-0.95181 0.381866,-0.95181 l -0.191526,-0.526843 c 0,0 -0.07527,-0.307017 0.11007,-0.359661 0.185343,-0.05264 0.510752,-0.10344 0.601373,-0.345026 0.09062,-0.241587 0.438072,-1.32238 0.438072,-1.32238 z"
       inkscape:connector-curvature="0"
       sodipodi:nodetypes="csccssscssccsccssssccsccsscc" />
    <path
       style="fill:#af5b33;fill-opacity:1;stroke:none;display:inline"
       d="m 66.012254,68.260286 c 1.723461,-2.22552 -4.194899,0.838968 0,0 z"
       id="path5973-8-3-60"
       inkscape:connector-curvature="0"
       sodipodi:nodetypes="cc" />
    <path
       style="fill:#af5b33;fill-opacity:0.98823529;stroke:none;display:inline"
       d="m 68.93338,68.27111 c 0.108312,-0.278592 0.421425,-0.183024 0.634281,-0.329856 0.212912,-0.14688 0.325624,-0.53598 0.300835,-0.714492 -0.04981,-0.356964 -0.916755,-1.141428 -2.098377,-1.93794 0.235734,-0.08652 1.796847,0.666768 2.259162,1.42176 0.609896,0.995988 -0.366748,2.150448 -0.931234,1.69374 z"
       id="path5975-4-2-3-7"
       inkscape:connector-curvature="0"
       sodipodi:nodetypes="csscssc" />
    <rect
       style="fill:#ffffff;fill-opacity:1;stroke:none;display:inline"
       id="rect7691"
       width="96.67466"
       height="93.222"
       x="5.073832"
       y="13.796501" />
    <path
       style="fill:#19b29d;fill-opacity:0.97647059;stroke:none;display:inline"
       d="m 26.689959,92.911622 c 4.606095,-1.636296 13.980229,-4.912008 13.980229,-4.912008 l -1.322448,4.3452 2.078145,2.07816 3.967362,0.566748 4.911969,0.188928 7.745788,-0.755676 3.211711,0 1.889227,-0.566748 2.267039,0 0,-2.455968 -2.644907,-2.2671 6.990108,3.400584 8.501526,2.2671 4.156267,6.801178 c -0.856402,6.3048 0.03359,0.11995 -3.589522,2.57963 -5.950622,3.81964 -32.581119,2.13666 -33.542362,2.19986 -40.2403977,2.64489 -30.502222,-4.21275 -30.502222,-4.21275 0,0 0.151241,-3.72407 1.889217,-5.478686 1.737982,-1.754688 6.596775,-2.564928 10.012873,-3.778452 z"
       id="path3979-3-6-7-7"
       inkscape:connector-curvature="0"
       sodipodi:nodetypes="scccccccccccccccsczs" />
    <path
       sodipodi:nodetypes="ccczzzc"
       style="fill:#c87137;stroke:none;display:inline"
       d="m 64.40104,83.755766 c -4.286469,6.069948 16.943627,13.621116 -14.927147,13.25484 -27.827989,-3.210384 -0.29429,-8.407416 -4.172114,-27.324924 0,0 4.089462,8.121636 6.069509,10.040628 1.980104,1.919064 2.520612,1.755672 4.19403,2.35914 1.673361,0.603444 4.294868,0.765552 5.766727,1.04844 1.4718,0.282936 3.068995,0.621876 3.068995,0.621876 z"
       id="path14100-9-1-2-7"
       inkscape:connector-curvature="0" />
    <path
       style="fill:#af5b33;fill-opacity:1;stroke:none;display:inline"
       d="m 47.850268,74.86991 c 1.146598,0.268692 2.053043,1.056108 2.921491,1.900752 0.86845,0.844596 2.693735,2.24382 2.693735,2.24382 l 11.478951,3.691032 -1.226915,2.319396 c 0,0 -16.680039,-2.679432 -15.867262,-10.155 z"
       id="path6026-4-9-9-7"
       inkscape:connector-curvature="0"
       sodipodi:nodetypes="cscccc" />
    <path
       style="fill:#150b02;fill-opacity:0.97058835;stroke:none;display:inline"
       d="m 75.129872,58.260949 c 0.479438,0.330362 1.085088,0.472399 1.661412,0.389635 0.576324,-0.08276 1.117528,-0.389497 1.484623,-0.841427 0.367096,-0.451929 0.556392,-1.044511 0.519276,-1.625563 -0.03712,-0.581052 -0.300272,-1.144733 -0.721885,-1.546282 -0.110515,-0.105256 -0.231046,-0.199453 -0.343795,-0.302314 -0.112748,-0.10286 -0.218782,-0.215896 -0.292557,-0.349498 -0.07377,-0.133603 -0.113493,-0.29014 -0.08762,-0.44055 0.01294,-0.0752 0.04225,-0.147912 0.08772,-0.209196 0.04547,-0.06128 0.107288,-0.110842 0.178226,-0.138965 0.104171,-0.0413 0.221142,-0.03494 0.331434,-0.01512 0.110292,0.01982 0.218535,0.05244 0.330183,0.06204 0.219938,0.0189 0.445074,-0.05629 0.614374,-0.197953 0.169299,-0.141659 0.282201,-0.347121 0.318456,-0.564871 0.03625,-0.217751 -0.003,-0.446191 -0.103109,-0.642932 -0.100114,-0.196741 -0.259714,-0.361538 -0.449304,-0.47461 -0.234756,-0.140009 -0.508248,-0.199898 -0.778913,-0.238019 -0.270665,-0.03812 -0.54507,-0.05682 -0.81004,-0.123929 -0.26497,-0.06711 -0.525397,-0.188337 -0.703277,-0.395874 -0.08894,-0.103769 -0.155334,-0.228038 -0.184063,-0.361652 -0.02873,-0.133615 -0.01871,-0.276532 0.03596,-0.40179 0.05771,-0.13224 0.165087,-0.242101 0.295969,-0.302831 0.130882,-0.06073 0.284101,-0.07179 0.422346,-0.03047 0.138245,0.04131 0.260276,0.134621 0.336378,0.257205 0.0761,0.122584 0.105591,0.273344 0.08129,0.415568 l 0.785624,-0.136691 0.891328,-0.742937 c 0.149775,-0.218041 0.317574,-0.423697 0.501122,-0.614182 0.466308,-0.483932 1.035984,-0.872685 1.42649,-1.41962 0.195253,-0.273468 0.342758,-0.58736 0.383728,-0.920872 0.04097,-0.333511 -0.03207,-0.687654 -0.237696,-0.953407 -0.182552,-0.235927 -0.465401,-0.391511 -0.762404,-0.419367 -0.297002,-0.02786 -0.603849,0.07242 -0.827088,0.270283 0.22437,-0.40144 0.471987,-0.789885 0.741199,-1.16274 0.448892,-0.621711 0.967781,-1.218741 1.199345,-1.949771 0.115783,-0.365516 0.154115,-0.761519 0.06441,-1.134292 -0.08971,-0.372772 -0.315513,-0.719553 -0.645167,-0.915346 -0.201193,-0.119496 -0.432701,-0.179892 -0.664777,-0.209868 -0.232076,-0.02998 -0.46676,-0.03089 -0.700605,-0.03954 -0.233844,-0.0086 -0.46916,-0.02536 -0.695209,-0.08586 -0.226049,-0.0605 -0.444098,-0.167483 -0.60679,-0.335677 -0.12547,-0.129714 -0.214493,-0.292477 -0.267258,-0.465059 -0.05277,-0.172581 -0.07006,-0.354868 -0.06248,-0.535176 0.01516,-0.360616 0.127655,-0.709191 0.241009,-1.051864 0.212419,-0.642147 0.43179,-1.283788 0.575491,-1.944715 0.11252,-0.517519 0.178113,-1.045231 0.19571,-1.574549 0.211383,-0.07707 0.401089,-0.212661 0.542438,-0.387713 0.141348,-0.175051 0.233938,-0.389063 0.264748,-0.611937 0.03081,-0.222875 -2.47e-4,-0.45398 -0.0888,-0.660813 -0.08856,-0.206834 -0.234362,-0.388809 -0.41691,-0.520333 -0.295096,-0.212615 -0.669761,-0.28719 -1.03341,-0.293947 -0.36365,-0.0068 -0.725449,0.04638 -1.085875,0.09517 l -1.049217,0.142019 -0.922663,0.01854 c -0.0106,-0.421372 -0.230022,-0.832441 -0.574217,-1.075745 -0.304495,-0.215241 -0.699977,-0.296984 -1.064853,-0.220095 -0.2273,0.159932 -0.502565,0.25074 -0.780411,0.257454 -0.281535,0.0068 -0.564573,-0.07283 -0.801263,-0.225424 l -0.18401,-1.2045 -0.289658,-0.598196 c -0.198924,-0.19228 -0.42964,-0.351593 -0.679921,-0.469498 -0.451528,-0.212711 -0.966889,-0.287566 -1.460274,-0.212102 l 0,0 -1.413359,0.8743 -1.328448,-0.214767 c -0.349276,-0.39086 -0.525501,-0.931034 -0.473916,-1.452671 0.05158,-0.521636 0.3302,-1.01683 0.749267,-1.331708 0.318456,-0.23928 0.712908,-0.379499 0.984283,-0.671089 0.135687,-0.145795 0.236499,-0.331705 0.247756,-0.530553 0.0056,-0.09942 -0.01153,-0.20064 -0.05405,-0.290694 -0.04251,-0.09005 -0.110807,-0.1685 -0.196658,-0.218962 -0.118516,-0.06966 -0.263863,-0.08286 -0.399584,-0.06098 -0.135721,0.02188 -0.263888,0.07635 -0.38813,0.13519 -0.124243,0.05884 -0.246741,0.122768 -0.377402,0.165504 -0.130662,0.04274 -0.271879,0.06357 -0.406074,0.03373 -0.128557,-0.02859 -0.244026,-0.102535 -0.337127,-0.195681 -0.0931,-0.09315 -0.165362,-0.205061 -0.228624,-0.320569 -0.126525,-0.231016 -0.223649,-0.485162 -0.409097,-0.672207 -0.166024,-0.167454 -0.397399,-0.268346 -0.63308,-0.276059 -0.23568,-0.0077 -0.473156,0.07784 -0.649773,0.234078 -0.176617,0.156241 -0.290494,0.381509 -0.311586,0.61637 -0.02109,0.234862 0.05083,0.476815 0.196777,0.662025 -0.13714,0.102552 -0.313825,0.150741 -0.484041,0.13202 -0.170217,-0.01872 -0.332204,-0.104161 -0.443777,-0.234068 -0.107828,-0.125547 -0.166954,-0.287439 -0.190655,-0.451229 -0.0237,-0.16379 -0.01398,-0.330555 0.0027,-0.495204 0.01672,-0.164649 0.04042,-0.328883 0.04458,-0.494326 0.0042,-0.165443 -0.01188,-0.333728 -0.07201,-0.487912 -0.08136,-0.208614 -0.241409,-0.38181 -0.432645,-0.498293 -0.191237,-0.116482 -0.412317,-0.178603 -0.635111,-0.201013 -0.445589,-0.04482 -0.890089,0.06415 -1.330818,0.143623 -0.480732,0.08669 -0.969001,0.139225 -1.439423,0.270833 -0.543259,0.151985 -1.056831,0.409335 -1.503771,0.753536 l -0.276568,-0.380648 -0.303384,-0.0058 -0.851942,0.252182 c 0.0063,0.09218 -0.02369,0.186356 -0.08213,0.257917 -0.04005,0.04904 -0.09262,0.08727 -0.150325,0.113334 -0.0577,0.02606 -0.120449,0.04016 -0.183603,0.04467 -0.126309,0.009 -0.252387,-0.01982 -0.37304,-0.05827 -0.09719,-0.03097 -0.192352,-0.0683 -0.284676,-0.111672 -0.04491,-0.06613 -0.09862,-0.126269 -0.15928,-0.178334 -0.181076,-0.15543 -0.424271,-0.234676 -0.662545,-0.221544 -0.223907,0.01234 -0.442528,0.105239 -0.606826,0.257859 l -0.04112,0.313931 c -0.320378,-0.256865 -0.696761,-0.443503 -1.095147,-0.543055 -0.70151,-0.175299 -1.46877,-0.07145 -2.098434,0.284039 -0.222374,0.110891 -0.437449,0.236416 -0.643373,0.375493 -0.272202,0.183841 -0.528391,0.391384 -0.764716,0.619511 l -0.63293,0.616903 c -0.246949,0.340381 -0.452917,0.710465 -0.612043,1.099723 -0.127809,0.31265 -0.225263,0.636895 -0.348472,0.951386 -0.123209,0.31449 -0.274615,0.622741 -0.495866,0.877953 -0.3568,0.411567 -0.892232,0.662588 -1.436816,0.673607 -0.544584,0.01102 -1.089732,-0.218139 -1.462887,-0.614937 -0.16995,-0.358296 -0.409269,-0.683533 -0.700788,-0.952375 -0.479667,-0.442355 -1.107364,-0.728881 -1.758558,-0.770173 -0.651194,-0.04129 -1.320642,0.169783 -1.810612,0.600699 -0.446778,0.39293 -0.725755,0.937699 -0.991795,1.46989 -0.121882,0.243816 -0.243248,0.487891 -0.364096,0.732222 -0.09846,0.21745 -0.222707,0.423206 -0.369319,0.611575 -0.322719,0.414633 -0.755214,0.743023 -1.241294,0.942506 -0.486081,0.199482 -1.024578,0.269577 -1.545528,0.201178 -0.549066,0.690538 -1.378099,1.15161 -2.254384,1.25379 -0.424422,0.04949 -0.854052,0.01817 -1.280623,0.04307 -0.426571,0.02491 -0.866163,0.113356 -1.208011,0.369722 -0.289542,0.217139 -0.490225,0.549367 -0.54769,0.906693 -0.05746,0.357325 0.02894,0.735722 0.235798,1.032693 -0.23013,0.268993 -0.484685,0.517082 -0.759509,0.740215 -0.19692,0.159882 -0.40461,0.307327 -0.587897,0.482672 -0.183286,0.175345 -0.343623,0.383085 -0.419566,0.625102 -0.07382,0.235252 -0.06253,0.496232 0.03133,0.72423 l 0.811707,0.466891 c 0.203093,0.179045 0.388699,0.377916 0.553319,0.592867 0.453678,0.592385 0.742639,1.302631 0.879564,2.036112 0.0964,0.516389 0.119321,1.046438 0.06786,1.569221 -0.4012,-0.03558 -0.811707,0.04026 -1.17371,0.216845 -0.362003,0.176583 -0.674473,0.453404 -0.893407,0.791481 -0.251535,0.38842 -0.376029,0.845398 -0.45616,1.30116 -0.08013,0.455762 -0.119653,0.918656 -0.219827,1.370436 -0.151034,0.681153 -0.436853,1.324038 -0.64485,1.99001 -0.311285,0.996684 -0.446841,2.060675 -0.282812,3.091874 0.117362,0.737817 0.3981,1.467349 0.909393,2.012076 0.640535,0.68242 1.57479,1.013907 2.26986,1.640693 0.347534,0.313393 0.636571,0.712249 0.732259,1.170331 0.04784,0.229042 0.04571,0.469866 -0.01846,0.69488 -0.06417,0.225014 -0.191679,0.43341 -0.371068,0.583638 -0.159833,0.133852 -0.359297,0.219774 -0.566365,0.24397 -0.207068,0.0242 -0.420968,-0.01342 -0.607356,-0.106816 -0.587991,1.00604 -0.641166,2.305155 -0.137361,3.355884 0.503805,1.050728 1.550028,1.822702 2.702612,1.994169 0.2206,0.03282 0.44789,0.04594 0.654174,0.130724 0.245402,0.10086 0.443245,0.298482 0.57704,0.527598 0.133795,0.229115 0.207639,0.488825 0.252252,0.750367 0.08923,0.523086 0.06778,1.068334 0.238662,1.570708 0.156867,0.461174 0.472469,0.861513 0.865532,1.149246 0.393062,0.287733 0.860801,0.46575 1.341277,0.545946 0.259574,0.04333 0.523456,0.05896 0.781671,0.10977 0.258214,0.05081 0.515909,0.140375 0.716002,0.31131 0.168445,0.143898 0.287695,0.338956 0.3672,0.545739 0.07951,0.206782 0.12132,0.426021 0.15382,0.645165 0.065,0.438288 0.09962,0.898154 0.326792,1.278564 0.204994,0.343264 0.548381,0.584671 0.912878,0.748972 0.364497,0.164301 0.75515,0.260497 1.136869,0.379424 1.093284,0.34062 2.126042,0.874547 3.036075,1.569624 l 32.002217,-13.45229"
       id="path3810-0-8-1-7"
       inkscape:path-effect="#path-effect3812-7-1-8-1-8-4-4-1-8-4-8-1-1-8-1"
       inkscape:original-d="m 75.129872,58.260949 c 0,0 2.752523,-2.634192 2.943426,-3.623637 0.190904,-0.989385 -0.969577,-1.067751 -0.458029,-1.440523 0.511548,-0.372772 0.29956,0.300604 0.661617,0.04692 0.362115,-0.253573 0.653278,-1.287325 0.380417,-1.880366 -0.381286,-0.828659 -2.85863,-0.720639 -2.440334,-1.521264 0.169821,-0.324988 1.135981,0.339468 1.135981,0.339468 l 0.785624,-0.136691 0.891328,-0.742937 c 0,0 -0.237529,0.608911 0.501122,-0.614182 0.738593,-1.22315 2.248157,-2.247808 1.572522,-3.293899 -0.272685,-0.422119 -1.589492,-0.149084 -1.589492,-0.149084 0,0 0.392811,-0.06835 0.741199,-1.16274 0.348445,-1.094326 0.913512,-3.280451 0.618584,-3.999409 -0.294928,-0.7189 -2.090616,-0.0082 -2.667381,-0.670943 -0.469614,-0.539754 -0.42154,-0.595531 -0.08873,-2.052099 0.332749,-1.456508 0.332749,-1.456508 0.575491,-1.944715 0.242742,-0.488148 0.19571,-1.574549 0.19571,-1.574549 0,0 0.806128,-1.60183 0.301473,-2.180796 -0.445924,-0.511605 -2.119285,-0.198781 -2.119285,-0.198781 l -1.049217,0.142019 -0.922663,0.01854 c 0,0 0.09006,-0.968362 -0.574217,-1.075745 -0.664222,-0.107388 -1.064853,-0.220095 -1.064853,-0.220095 0,0 -0.121342,0.244132 -0.780411,0.257454 -0.659011,0.01332 -0.801263,-0.225424 -0.801263,-0.225424 l -0.18401,-1.2045 -0.289658,-0.598196 c 0,0 0.51676,-0.252067 -0.679921,-0.469498 -1.196681,-0.21743 -1.460274,-0.212102 -1.460274,-0.212102 l 0,0 -1.413359,0.8743 -1.328448,-0.214767 c 2.191744,-1.798989 0.04692,-2.336774 0.275351,-2.784379 0.612039,-1.099723 1.268907,-1.370382 0.981335,-1.711298 -0.287572,-0.340858 -1.070184,0.452932 -1.57119,0.27344 -0.502744,-0.180131 -0.05213,-1.207108 -0.974848,-1.188457 -0.922663,0.01854 -1.397662,1.236414 -1.397662,1.236414 0,0 -0.733382,1.343855 -0.927818,-0.102048 -0.194494,-1.445853 0.459304,-1.579879 -0.215346,-1.928671 -0.674708,-0.348852 -1.344145,-0.576998 -2.398574,-0.555683 -1.05443,0.02143 -0.527244,0.01044 -1.439423,0.270833 -0.912179,0.260059 -1.503771,0.753536 -1.503771,0.753536 -0.350879,0.05867 -0.276568,-0.380648 -0.276568,-0.380648 l -0.303384,-0.0058 -0.851942,0.252182 c 0,0 0.03301,0.223571 -0.08213,0.257917 -0.115092,0.03418 -0.553655,0.139355 -0.706968,0.09974 -0.153257,-0.03938 -0.284676,-0.111672 -0.284676,-0.111672 0,0 0.04402,-0.06499 -0.15928,-0.178334 -0.203125,-0.113352 -0.406712,-0.237414 -0.662545,-0.221544 -0.255832,0.01564 -0.606826,0.257859 -0.606826,0.257859 l -0.04112,0.313931 c -0.826341,-0.427679 -0.562691,-0.433008 -1.095147,-0.543055 -0.532457,-0.110052 -2.098434,0.284039 -2.098434,0.284039 0,0 -0.137038,-0.118044 -0.643373,0.375493 -0.506335,0.493477 -0.764716,0.619511 -0.764716,0.619511 l -0.63293,0.616903 c 0,0 -0.02086,-0.482819 -0.612043,1.099723 -0.591165,1.582601 0.589855,1.437859 -0.844338,1.829339 -1.434192,0.39148 -2.899703,0.05867 -2.899703,0.05867 0,0 0.232287,-0.729616 -0.700788,-0.952375 -0.933071,-0.22276 -2.925808,-0.544909 -3.56917,-0.169474 -0.643361,0.375495 -0.754289,0.860979 -0.991795,1.46989 -0.237511,0.608852 -0.364096,0.732222 -0.364096,0.732222 0,0 0.674686,0.348851 -0.369319,0.611575 -1.043993,0.262723 -2.786822,1.143684 -2.786822,1.143684 0,0 -0.551362,0.977685 -2.254384,1.25379 -1.703028,0.276045 -2.129758,-0.440192 -2.488634,0.412794 -0.358871,0.852985 -0.311892,1.939386 -0.311892,1.939386 0,0 -0.105708,0.606189 -0.759509,0.740215 -0.653805,0.134084 -0.896535,0.622232 -1.007463,1.107774 -0.110928,0.485484 0.03133,0.72423 0.03133,0.72423 l 0.811707,0.466891 c 0,0 0.268829,0.11538 0.553319,0.592867 0.28449,0.477491 0.563756,0.834335 0.879564,2.036112 0.315807,1.201779 0.06786,1.569221 0.06786,1.569221 0,0 -1.333708,-0.335471 -2.067117,1.008326 -0.733404,1.343843 -0.717747,1.7059 -0.675987,2.671596 0.04176,0.965698 -0.728366,0.05862 -0.64485,1.99001 0.08352,1.931392 0.07034,2.303643 -0.282812,3.091874 -0.680638,1.519121 -0.133297,-0.745602 0.909393,2.012076 1.042695,2.757734 2.038395,3.013799 2.612594,4.089542 0.574194,1.075745 -1.173721,0.137154 -1.173721,0.137154 0,0 1.732664,4.400342 2.565251,5.350053 0.832591,0.94971 0.581097,-1.55926 0.654174,0.130724 0.07308,1.689927 0.910047,2.247749 1.067954,2.848673 0.157901,0.600852 0.994467,1.115652 2.206809,1.695192 1.212342,0.5796 0.985621,-0.05388 1.497673,0.42108 0.512051,0.474648 0.313271,1.84098 0.847812,2.469468 0.534548,0.628548 0.853061,0.910956 2.049747,1.128396 1.196681,0.217428 3.036075,1.569624 3.036075,1.569624 z"
       inkscape:connector-curvature="0"
       sodipodi:nodetypes="czszsacccsacssasscacccscscccscccccsazcssssccccsscssccscsccsscssscscsscssccsscsssssscsssszzscc" />
    <path
       style="fill:#c87137;fill-opacity:1;stroke:none;display:inline"
       d="M 75.251446,52.840234 74.358902,50.166483 74.163133,46.317307 73.206356,43.175042 71.220749,41.49677 c -0.299369,-0.365849 -0.77041,-0.5848 -1.243081,-0.577813 -0.472672,0.007 -0.937036,0.239766 -1.22546,0.614303 -0.188351,0.244587 -0.30177,0.540152 -0.490061,0.784785 -0.09414,0.122317 -0.208246,0.232056 -0.345551,0.30257 -0.137304,0.07051 -0.29958,0.09925 -0.44876,0.05963 -0.11223,-0.02981 -0.212432,-0.09667 -0.293245,-0.180053 -0.08081,-0.08339 -0.143296,-0.182944 -0.195968,-0.286432 -0.105343,-0.206977 -0.174399,-0.433452 -0.30562,-0.625071 -0.211091,-0.308251 -0.569647,-0.496627 -0.939012,-0.55273 -0.369365,-0.0561 -0.748807,0.0096 -1.102198,0.130842 -0.737158,0.252847 -1.391291,0.757847 -1.792733,1.425812 -0.125494,0.208812 -0.226954,0.433807 -0.280909,0.671378 -0.05396,0.237571 -0.0592,0.488401 0.0041,0.723666 0.05719,0.212721 0.170228,0.410015 0.323963,0.567771 0.153734,0.157757 0.347757,0.275728 0.558214,0.34076 0.2729,0.08433 0.572891,0.07834 0.842211,-0.0168 0.260904,-0.217601 0.479581,-0.485645 0.640361,-0.784929 0.155223,-0.288939 0.256425,-0.606783 0.296839,-0.932277 0.19721,0.130227 0.356793,0.316747 0.45494,0.531731 0.09815,0.214983 0.134541,0.457742 0.103755,0.692056 -0.051,0.388154 -0.292852,0.74659 -0.633701,0.93917 -0.577075,0.228133 -1.196656,0.348221 -1.817175,0.35221 -0.468729,0.003 -0.942954,-0.06129 -1.375828,-0.241116 -0.432874,-0.179823 -0.823059,-0.481181 -1.062306,-0.884265 -0.130283,-0.2195 -0.212152,-0.469317 -0.222692,-0.724352 -0.01054,-0.255035 0.05465,-0.506494 0.129562,-0.750506 l 0.327653,-1.067231 1.274119,-1.724098 -0.551976,-1.069605 -1.010642,0.02027 -0.970561,0.946005 -0.128409,0.928975 c -0.06145,0.444542 -0.125203,0.891111 -0.258975,1.319478 -0.133772,0.428367 -0.339693,0.840053 -0.644921,1.169035 -0.367972,0.396609 -0.870649,0.658967 -1.400765,0.767035 -0.530117,0.108067 -1.085871,0.06581 -1.604346,-0.08874 -0.46191,-0.137688 -0.908682,-0.373113 -1.212377,-0.747396 -0.276864,-0.341215 -0.419182,-0.788736 -0.390264,-1.227194 l 0.296839,-0.932392 0.04692,1.079798 1.030625,0.442333 c 0.381253,0.121997 0.78708,0.16664 1.185735,0.130435 0.290139,-0.02635 0.578491,-0.09604 0.838498,-0.22746 0.260007,-0.131421 0.490964,-0.326606 0.644016,-0.574497 0.143549,-0.2325 0.215498,-0.508542 0.203701,-0.781531 -0.0118,-0.27299 -0.10729,-0.541796 -0.270361,-0.761046 l -1.05067,-0.90511 -1.562561,-1.049159 -1.354165,-0.12696 c -0.447772,-0.04971 -0.902046,-0.04053 -1.347445,0.02722 -1.285073,0.195486 -2.486331,0.896502 -3.288687,1.919172 0.06124,0.303949 0.07478,0.617462 0.03996,0.925559 -0.07941,0.702682 -0.403036,1.350082 -0.689839,1.996465 -0.286802,0.646384 -0.54595,1.336949 -0.484195,2.041402 0.03846,0.43869 0.200145,0.857203 0.387881,1.255553 0.187736,0.39835 0.403492,0.784322 0.561019,1.195555 0.103913,0.271271 0.182284,0.554374 0.204281,0.844032 0.022,0.289658 -0.01409,0.586813 -0.130901,0.852786 -0.146392,0.333336 -0.420489,0.608664 -0.753164,0.75655 -0.332676,0.147886 -0.720714,0.166898 -1.066253,0.05224 l -1.254085,2.186877 c -0.842013,-0.04753 -1.69841,0.254153 -2.324727,0.818928 -0.337849,0.304652 -0.609381,0.681766 -0.795476,1.096885 -0.256902,0.573066 -0.349173,1.218832 -0.263042,1.840913 0.08613,0.622081 0.35039,1.218482 0.753333,1.700188 0.223225,0.400146 0.341969,0.857993 0.34136,1.316191 -6.09e-4,0.458199 -0.120571,0.915728 -0.34486,1.315279 -0.306512,0.546025 -0.809536,0.978975 -1.395114,1.200766 -0.585578,0.221792 -1.249203,0.230719 -1.840535,0.02476 0.430433,0.09676 0.895612,0.02977 1.281244,-0.184532 0.351257,-0.195196 0.633224,-0.508467 0.802705,-0.872829 0.16948,-0.364361 0.227583,-0.777667 0.17852,-1.17651 -0.04906,-0.398843 -0.203704,-0.782588 -0.433826,-1.112022 -0.230122,-0.329434 -0.534577,-0.604892 -0.878388,-0.812922 -0.629722,-0.381027 -1.386984,-0.531834 -2.120427,-0.470251 -0.465924,0.03912 -0.927653,0.162669 -1.337112,0.38841 -0.409459,0.225741 -0.765104,0.556114 -0.994982,0.963265 -0.280393,0.496622 -0.363821,1.091404 -0.285649,1.656331 0.07817,0.564927 0.311084,1.101218 0.624074,1.577968 0.494495,0.753219 1.186674,1.367994 1.629301,2.152816 0.34505,0.611808 0.523804,1.301234 0.795697,1.948879 0.135946,0.323822 0.296563,0.639455 0.507641,0.920148 0.211078,0.280692 0.474736,0.526297 0.787029,0.686969 0.355668,0.182989 0.769835,0.250033 1.16507,0.188599 0.395235,-0.06143 0.76951,-0.251032 1.052853,-0.533347 l -0.178347,-0.673368 0.416913,1.84428 0.295177,2.927496 c 0.282169,0.572073 0.587691,1.132626 0.91555,1.679796 0.540329,0.901765 1.141382,1.767138 1.797738,2.588316 l 2.121248,2.273004 1.926181,1.659348 1.737709,1.199976 c 1.884541,0.613904 3.801318,1.128839 5.739795,1.541976 1.889196,0.402634 3.814394,0.709608 5.744601,0.635616 1.04401,-0.04002 2.0837,-0.191796 3.095582,-0.451896 0.659167,-0.403861 1.237575,-0.938945 1.691431,-1.56474 0.507398,-0.69962 0.853939,-1.500366 1.198187,-2.293092 0.413218,-0.951549 0.829007,-1.901982 1.247361,-2.851284 0.464085,-0.581989 0.905251,-1.182252 1.322135,-1.798932 0.432521,-0.639811 0.838805,-1.29713 1.227031,-1.964748 0.907615,-1.560791 1.726678,-3.20695 2.051982,-4.982904 0.127733,-0.697342 0.17774,-1.408189 0.162407,-2.116968 -0.02458,-1.136398 -0.2161,-2.262137 -0.425594,-3.379329 -0.09942,-0.530189 -0.203005,-1.059598 -0.31074,-1.58816 l -0.192641,-2.752697 0.524811,-1.756707 -0.177791,-2.621101"
       id="path2997-6-3-9-3"
       inkscape:path-effect="#path-effect2999-8-1-7-7-6-8-8-2-4-7-2-6-2-7-9-6"
       inkscape:original-d="M 75.251446,52.840234 74.358902,50.166483 74.163133,46.317307 73.206356,43.175042 71.220749,41.49677 c 0,0 -1.712746,-0.250271 -2.468541,0.03649 -0.553945,0.210133 -0.683802,1.210524 -1.284372,1.146985 -0.471641,-0.04981 -0.401442,-0.843427 -0.794833,-1.091556 -0.57694,-0.36391 -1.319529,-0.585974 -2.04121,-0.421888 -0.721739,0.164145 -1.470062,0.905808 -1.792733,1.425812 -0.322671,0.519934 -0.407988,0.971882 -0.276857,1.395044 0.13113,0.423221 0.550528,0.77543 0.882177,0.908531 0.331706,0.133099 0.842211,-0.0168 0.842211,-0.0168 0,0 0.482067,-0.493998 0.640361,-0.784929 0.158353,-0.290872 0.296839,-0.932277 0.296839,-0.932277 0,0 0.594663,0.786204 0.558695,1.223787 -0.03012,0.369297 -0.633701,0.93917 -0.633701,0.93917 0,0 -1.059469,0.443666 -1.817175,0.35221 -0.757765,-0.0914 -2.038546,-0.570046 -2.438134,-1.125381 -0.399647,-0.555335 -0.09313,-1.474858 -0.09313,-1.474858 l 0.327653,-1.067231 1.274119,-1.724098 -0.551976,-1.069605 -1.010642,0.02027 -0.970561,0.946005 -0.128409,0.928975 c 0,0 -0.176945,1.874227 -0.903896,2.488513 -0.726952,0.614239 -2.255224,0.801899 -3.005111,0.678298 -0.749887,-0.1236 -0.930713,-0.394781 -1.212377,-0.747396 -0.281664,-0.352674 -0.390264,-1.227194 -0.390264,-1.227194 l 0.296839,-0.932392 0.04692,1.079798 1.030625,0.442333 c 0,0 0.350241,0.301693 1.185735,0.130435 0.835492,-0.171268 1.209133,-0.339757 1.482514,-0.801957 0.265563,-0.448936 -0.06666,-1.542577 -0.06666,-1.542577 l -1.05067,-0.90511 -1.562561,-1.049159 -1.354165,-0.12696 c 0,0 0.997264,-0.328985 -1.347445,0.02722 -2.344768,0.356207 -3.288687,1.919172 -3.288687,1.919172 0,0 0.343581,0.147465 0.03996,0.925559 -0.303499,0.778094 -1.207395,3.266608 -1.174034,4.037867 0.03359,0.771318 0.915539,1.679847 0.9489,2.451108 0.03359,0.771318 1.56928,1.203399 0.07338,1.696818 -1.495889,0.493477 -1.819417,0.808793 -1.819417,0.808793 l -1.254085,2.186877 c 0,0 -1.657659,0.651077 -2.324727,0.818928 -0.667068,0.167909 -0.815487,0.634105 -0.795476,1.096885 0.02004,0.462779 0.490291,3.541101 0.490291,3.541101 0,0 0.650242,2.155021 -0.0035,2.63147 -0.65373,0.476391 -3.235649,1.225524 -3.235649,1.225524 0,0 1.526488,0.237994 1.281244,-0.184532 -0.245238,-0.422466 -0.135869,-3.360681 -0.330989,-3.974283 -0.195114,-0.613602 -1.726306,-0.668336 -2.120427,-0.470251 -0.491287,0.246913 -3.261393,1.440814 -2.332094,1.351675 0.929306,-0.08914 -0.06396,2.221514 0.338425,3.234299 0.329026,0.828138 1.321505,1.637625 1.629301,2.152816 0.307798,0.515208 1.830777,3.410328 2.090367,3.555996 0.259597,0.145668 2.217923,-0.344748 2.217923,-0.344748 l -0.178347,-0.673368 0.416913,1.84428 c -0.05537,1.136616 0.663935,1.937592 0.295177,2.927496 0,0 0.551999,1.069608 0.91555,1.679796 0.363544,0.610236 1.797738,2.588316 1.797738,2.588316 l 2.121248,2.273004 1.926181,1.659348 1.737709,1.199976 c 2.337296,1.021188 3.656535,1.19772 5.739795,1.541976 0.680441,0.140628 4.902447,0.652644 5.744601,0.635616 0.842153,-0.0168 3.095582,-0.451896 3.095582,-0.451896 0,0 1.230042,-0.964224 1.691431,-1.56474 0.531762,-0.692076 0.82611,-1.516908 1.198187,-2.293092 0.449226,-0.937152 1.247361,-2.851284 1.247361,-2.851284 0,0 0.90546,-1.184808 1.322135,-1.798932 0.434688,-0.640644 0.639029,-0.820896 1.227031,-1.964748 0.588059,-1.143864 1.762499,-3.769248 2.051982,-4.982904 0.289483,-1.213644 0.162407,-2.116968 0.162407,-2.116968 0,0 -0.245406,-2.257885 -0.425594,-3.379329 -0.08549,-0.53234 -0.31074,-1.58816 -0.31074,-1.58816 l -0.192641,-2.752697 0.524811,-1.756707 z"
       inkscape:connector-curvature="0"
       sodipodi:nodetypes="cccccasazzzzczcaczzccccccczzzccccsaccccscssssccsscsczsscazzccccscccccscaacazzcacccc" />
    <path
       sodipodi:nodetypes="czcssc"
       inkscape:connector-curvature="0"
       id="path6028-6-4-8-3"
       d="m 52.226415,58.426251 c 2.053373,1.213536 1.462012,1.703827 2.952056,1.943789 1.490103,0.239904 3.093903,0.153081 5.477534,-0.590724 0.914148,-0.197391 0.524869,-0.05618 0.21019,-0.868276 -0.314678,-0.812325 -0.864626,-1.251241 -2.335905,-1.416834 -1.471278,-0.16565 -3.438408,-0.29429 -6.303875,0.932045 z"
       style="fill:#ffffff;fill-opacity:1;stroke:none;display:inline" />
    <path
       sodipodi:type="arc"
       style="fill:#28170b;fill-opacity:1;stroke:none;display:inline"
       id="path3007-1-8-6-9"
       sodipodi:cx="385.6362"
       sodipodi:cy="431.92328"
       sodipodi:rx="9.3299084"
       sodipodi:ry="7.9101396"
       d="m 394.96611,431.92328 c 0,4.36865 -4.17714,7.91014 -9.32991,7.91014 -5.15277,0 -9.32991,-3.54149 -9.32991,-7.91014 0,-4.36865 4.17714,-7.91014 9.32991,-7.91014 5.15277,0 9.32991,3.54149 9.32991,7.91014 z"
       transform="matrix(-0.17729368,0.00358558,0.00723878,0.1673984,121.50139,-15.003181)" />
    <path
       style="fill:#150b02;fill-opacity:0.97058835;stroke:none;display:inline"
       d="m 60.214192,59.659017 0.817075,-0.17376 c -0.529311,-0.710761 -1.252808,-1.27541 -2.070865,-1.616194 -1.26663,-0.52765 -2.754229,-0.497567 -3.998492,0.08086 l -1.115999,0.633468 -0.738998,0.538539 -0.963323,-0.242337 -0.521278,-1.036647 0.772939,0.246158 c 0.477265,-0.160416 0.946501,-0.344714 1.405367,-0.551976 0.612999,-0.276881 1.215662,-0.597547 1.873879,-0.736044 0.744595,-0.156672 1.521773,-0.07041 2.26061,0.111492 0.84992,0.209249 1.678312,0.549987 2.367818,1.089181 0.601102,0.470062 1.086813,1.0866 1.403107,1.781034 l -0.472973,0 -0.493244,0.07292 c -0.339533,0.08362 -0.677906,0.171963 -1.014986,0.264983 -0.3355,0.09258 -0.669721,0.189805 -1.002534,0.291627 l -1.108991,-0.07698 0.687277,-0.09858 c 0.313861,-0.09265 0.62744,-0.186246 0.940733,-0.280796 0.324603,-0.09796 0.648898,-0.196946 0.972878,-0.296948"
       id="path3003-8-4-5-9"
       inkscape:path-effect="#path-effect3005-1-8-1-4-4-8-2-6-0-3-4-7-5-3-4-5-7"
       inkscape:original-d="m 60.214192,59.659017 0.817075,-0.17376 c 0,0 -0.72672,-1.381561 -2.070865,-1.616194 -1.344144,-0.234576 -3.998492,0.08086 -3.998492,0.08086 l -1.115999,0.633468 -0.738998,0.538539 -0.963323,-0.242337 -0.521278,-1.036647 0.772939,0.246158 c 0,0 1.032131,-0.369933 1.405367,-0.551976 0.373293,-0.182099 1.202357,-0.627445 1.873879,-0.736044 0.740214,-0.119724 1.528908,-0.06696 2.26061,0.111492 0.851247,0.207642 1.694559,0.563734 2.367818,1.089181 0.60868,0.475059 1.403107,1.781034 1.403107,1.781034 l -0.472973,0 -0.493244,0.07292 -1.014986,0.264983 -1.002534,0.291627 -1.108991,-0.07698 0.687277,-0.09858 0.940733,-0.280796 z"
       inkscape:connector-curvature="0"
       sodipodi:nodetypes="ccsccccccsaaaccccccccc" />
    <path
       style="fill:#150b02;fill-opacity:0.97058835;stroke:none;display:inline"
       d="m 63.553153,54.694131 0.04402,0.448357 c -0.0234,0.151221 -0.07566,0.297924 -0.153141,0.429881 -0.09778,0.166537 -0.235872,0.309218 -0.399125,0.41239 l -0.437179,0.0987 -1.020257,-0.338774 c -0.563107,-0.56326 -1.19553,-1.057155 -1.878454,-1.466992 -0.464234,-0.278596 -0.954797,-0.519626 -1.475913,-0.666483 -0.700211,-0.197329 -1.441677,-0.219991 -2.164289,-0.135938 -0.508126,0.0591 -1.008605,0.169871 -1.508695,0.277551 -0.63546,0.136828 -1.273167,0.269273 -1.892993,0.465096 -0.514066,0.16241 -1.014445,0.368121 -1.494098,0.61424 l -0.932452,0.558 c -0.121915,0.125946 -0.247498,0.248342 -0.376536,0.366979 -0.08515,0.07828 -0.171796,0.15493 -0.259886,0.229884 l -0.458783,0.166519 -0.05387,-0.672796 c 0.637386,-0.851249 1.445064,-1.57445 2.361275,-2.114304 0.421353,-0.248271 0.86504,-0.457975 1.321614,-0.633237 0.812547,-0.311907 1.66387,-0.51421 2.522348,-0.657505 1.01471,-0.169373 2.064615,-0.255972 3.065175,-0.0168 0.564777,0.135003 1.099493,0.370416 1.643589,0.57329 0.556221,0.207395 1.125227,0.38177 1.670002,0.617599 0.419376,0.181545 0.823152,0.399109 1.205426,0.649512 l 0.672222,0.794831"
       id="path3777-4-9-0-8"
       inkscape:path-effect="#path-effect3779-7-2-5-0-0-5-4-5-9-9-2-7-0-3-0-3-2"
       inkscape:original-d="m 63.553153,54.694131 0.04402,0.448357 c 0,0 -0.05995,0.315664 -0.153141,0.429881 -0.09313,0.114216 -0.399125,0.41239 -0.399125,0.41239 l -0.437179,0.0987 -1.020257,-0.338774 c -0.283749,-0.984984 -0.929554,-1.053097 -1.878454,-1.466992 0,0 -1.352428,-0.646559 -1.475913,-0.666483 -0.123542,-0.01969 -2.040804,-0.116016 -2.164289,-0.135938 -0.123484,-0.01969 -1.508695,0.277551 -1.508695,0.277551 0,0 -1.772403,0.417718 -1.892993,0.465096 -0.120589,0.0475 -1.494098,0.61424 -1.494098,0.61424 l -0.932452,0.558 -0.376536,0.366979 -0.259886,0.229884 -0.458783,0.166519 -0.05387,-0.672796 c 0.517572,-1.042556 1.393667,-1.501918 2.361275,-2.114304 0.191192,-0.116184 1.080436,-0.53848 1.321614,-0.633237 0.241177,-0.0947 2.035186,-0.580241 2.522348,-0.657505 0.487222,-0.07721 2.66628,-0.16623 3.065175,-0.0168 0.398893,0.149202 1.220196,0.42461 1.643589,0.57329 0.423394,0.14868 1.345593,0.489422 1.670002,0.617599 0.324409,0.128235 1.205426,0.649512 1.205426,0.649512 z"
       inkscape:connector-curvature="0"
       sodipodi:nodetypes="ccsccccsccccccccccssssscc" />
    <path
       style="fill:#150b02;fill-opacity:0.97058835;stroke:none;display:inline"
       d="m 70.097569,53.597999 -0.430866,0.465791 c -0.133576,0.05661 -0.247439,0.158583 -0.318367,0.285136 -0.07093,0.126554 -0.09849,0.276903 -0.07705,0.420385 0.02213,0.148141 0.09509,0.286197 0.194905,0.397873 0.09982,0.111677 0.225637,0.198058 0.359909,0.264441 0.271628,0.134292 0.582787,0.188592 0.883392,0.150475 0.464538,-0.0589 0.873511,-0.326571 1.251763,-0.602598 0.286737,-0.209245 0.566741,-0.427528 0.849162,-0.642562 0.297554,-0.226556 0.61192,-0.455906 0.979482,-0.524927 0.225232,-0.04229 0.457042,-0.02138 0.685809,-0.03496 0.114383,-0.0068 0.228961,-0.0224 0.337808,-0.05821 0.108847,-0.0358 0.212141,-0.09256 0.292726,-0.174022 0.105868,-0.107018 0.168505,-0.255645 0.171169,-0.406157 0.0027,-0.150512 -0.05467,-0.301262 -0.156689,-0.41196 l -0.304484,-0.667353 -0.629935,-0.08346 c -0.352364,-0.01776 -0.707566,0.02206 -1.047249,0.117408 -0.382088,0.107254 -0.740768,0.282886 -1.108816,0.431328 -0.312261,0.125942 -0.632711,0.232858 -0.935694,0.379722 -0.365851,0.177338 -0.703682,0.412331 -0.997205,0.693648 l 2.31e-4,-6e-6"
       id="path3781-9-9-2-1"
       inkscape:path-effect="#path-effect3783-4-4-2-9-0-7-5-0-7-8-7-9-2-4-9-1-5"
       inkscape:original-d="m 70.097569,53.597999 -0.430866,0.465791 c 0,0 -0.506972,0.443202 -0.395418,0.705521 0.111552,0.262319 0.326378,0.594779 0.554814,0.662314 0.228378,0.06754 0.758228,0.153024 0.883392,0.150475 0.125164,0 1.132854,-0.455887 1.251763,-0.602598 0.118908,-0.146711 0.532051,-0.443723 0.849162,-0.642562 0.317111,-0.198839 0.708243,-0.423219 0.979482,-0.524927 0.271181,-0.101712 1.191179,-0.264636 1.316343,-0.267184 0.125164,0 0.01448,-0.818117 0.01448,-0.818117 l -0.304484,-0.667353 -0.629935,-0.08346 c 0,0 -0.949191,0.06731 -1.047249,0.117408 -0.09806,0.04981 -0.984693,0.404744 -1.108816,0.431328 -0.124122,0.02664 -0.812615,0.3291 -0.935694,0.379722 -0.12308,0.05039 -0.997205,0.693648 -0.997205,0.693648 z"
       inkscape:connector-curvature="0" />
    <path
       sodipodi:nodetypes="czcssc"
       inkscape:connector-curvature="0"
       id="path6028-3-6-2-8-8"
       d="m 75.14441,56.508296 c -2.521307,1.079856 -0.258727,2.639694 -2.350444,3.213853 -2.091715,0.574217 -0.687333,0.420498 -3.071023,-0.323309 -0.914148,-0.197333 -0.524869,-0.05618 -0.210191,-0.868275 0.314679,-0.812267 0.597269,-1.919693 2.068548,-2.085286 1.471278,-0.16565 1.900927,0.173644 3.56311,0.06301 z"
       style="fill:#ffffff;fill-opacity:1;stroke:none;display:inline" />
    <path
       sodipodi:type="arc"
       style="fill:#28170b;fill-opacity:1;stroke:none;display:inline"
       id="path3789-3-5-6-2"
       sodipodi:cx="298.0162"
       sodipodi:cy="430.97678"
       sodipodi:rx="5.8142905"
       sodipodi:ry="6.2875466"
       d="m 303.8305,430.97678 c 0,3.47251 -2.60315,6.28754 -5.8143,6.28754 -3.21114,0 -5.81429,-2.81503 -5.81429,-6.28754 0,-3.47252 2.60315,-6.28755 5.81429,-6.28755 3.21115,0 5.8143,2.81503 5.8143,6.28755 z"
       transform="matrix(-0.2672413,0.00540467,0.00900737,0.20829725,147.2603,-33.328021)" />
    <path
       style="fill:#150b02;fill-opacity:0.97058835;stroke:none;display:inline"
       d="m 75.154489,55.993215 c 0.01596,0.08028 0.01949,0.163015 0.01044,0.244363 -0.01785,0.160367 -0.08562,0.314822 -0.191542,0.436542 l -0.216041,0.247549 -0.338251,0.141208 c -0.491635,-0.199901 -1.01427,-0.323347 -1.54339,-0.364547 -0.442809,-0.03448 -0.890061,-0.01148 -1.326999,0.06823 -0.522562,0.0287 -1.032078,0.253174 -1.405945,0.619395 -0.195749,0.191746 -0.354859,0.420765 -0.466254,0.671116 -0.05405,0.159218 -0.108825,0.318191 -0.16432,0.476912 -0.08856,0.253296 -0.178958,0.505951 -0.27118,0.757938 0.146807,-0.08587 0.314954,-0.134938 0.484905,-0.141498 0.206891,-0.008 0.415804,0.04761 0.591361,0.157369 l 0.833987,0.383023 c 0.565295,0.08002 1.142454,0.07571 1.706491,-0.01274 0.09741,-0.01528 0.194429,-0.03304 0.29093,-0.05328 l 0.892602,-0.645342 -0.555507,0.569525 -0.42826,0.251661 c -0.531109,0.271137 -1.154544,0.357112 -1.739215,0.239847 -0.146563,-0.0294 -0.290373,-0.07104 -0.436079,-0.104424 -0.05135,-0.01177 -0.103101,-0.0232 -0.151662,-0.04362 -0.04856,-0.02042 -0.09237,-0.05048 -0.134346,-0.0823 l -0.145031,-0.109932 c -0.08094,-0.03271 -0.160537,-0.06876 -0.238514,-0.108024 -0.125888,-0.06339 -0.248334,-0.135478 -0.381923,-0.18042 -0.227984,-0.0767 -0.483393,-0.06874 -0.706158,0.02201 l 0.10362,-0.56912 c 0.02544,-0.139747 0.04701,-0.280156 0.06967,-0.420382 0.02217,-0.137224 0.04788,-0.273921 0.07958,-0.409262 0.03336,-0.142404 0.07334,-0.283223 0.118272,-0.422408 0.08648,-0.267847 0.195696,-0.536735 0.388816,-0.74149 0.206792,-0.219251 0.491232,-0.345865 0.77097,-0.458029 0.178168,-0.07144 0.358446,-0.139511 0.545431,-0.182911 0.217173,-0.05041 0.440724,-0.06691 0.66347,-0.07633 0.226891,-0.0096 0.454246,-0.012 0.681022,0 0.2932,0.01551 0.585749,0.05526 0.869434,0.130956 0.317051,0.0846 0.631009,0.215031 0.958862,0.201214 0.137741,-0.0058 0.274344,-0.03757 0.400516,-0.09313 l 0.202951,-0.173412 0.177287,-0.22626"
       id="path3785-7-5-0-6"
       inkscape:path-effect="#path-effect3787-0-5-7-4-5-6-5-9-3-8-79-3-8-1-4-9-1"
       inkscape:original-d="m 75.154489,55.993215 c 0,0 0.0076,0.169183 0.01044,0.244363 0.0058,0.07518 -0.191542,0.436542 -0.191542,0.436542 l -0.216041,0.247549 -0.338251,0.141208 c 0,0 -1.144553,-0.383023 -1.54339,-0.364547 -0.09331,0.0058 -1.326999,0.06823 -1.326999,0.06823 0,0 -1.272267,0.466197 -1.405945,0.619395 -0.133679,0.153198 -0.466254,0.671116 -0.466254,0.671116 0,0 -0.122444,0.363215 -0.16432,0.476912 -0.0417,0.1137 -0.27118,0.757938 -0.27118,0.757938 0,0 0.39148,-0.139587 0.484905,-0.141498 0.09348,0 0.591361,0.157369 0.591361,0.157369 l 0.833987,0.383023 c 0,0 -0.409087,-0.388526 1.706491,-0.01274 1.141078,0.187139 0.29093,-0.05328 0.29093,-0.05328 0.514212,-0.23527 0.265505,-0.260233 0.892602,-0.645342 -0.236601,0.0673 -0.3909,0.668394 -0.555507,0.569525 -0.136055,0.09678 -0.42826,0.251661 -0.42826,0.251661 0,0 -1.645733,0.237993 -1.739215,0.239847 -0.09342,0 -0.270892,-0.07014 -0.436079,-0.104424 -0.165129,-0.03418 -0.286008,-0.125917 -0.286008,-0.125917 l -0.145031,-0.109932 c 0,0 -0.188529,-0.0336 -0.238514,-0.108024 -0.04981,-0.07426 -0.1225,-0.12922 -0.381923,-0.18042 -0.259422,-0.05096 -0.706158,0.02201 -0.706158,0.02201 l 0.10362,-0.56912 c 0,0 0.05096,-0.307149 0.06967,-0.420382 0.01854,-0.113232 0.0417,-0.201561 0.07958,-0.409262 0.03764,-0.207642 -0.01274,-0.212854 0.118272,-0.422408 0.131247,-0.209612 0.275235,-0.663992 0.388816,-0.74149 0.11358,-0.07756 0.455365,-0.283344 0.77097,-0.458029 0.386789,-0.21413 0.337615,-0.122269 0.545431,-0.182911 0.207816,-0.06065 0.384761,-0.03301 0.66347,-0.07633 0.278711,-0.04344 0.233128,-0.0819 0.681022,0 0.447952,0.08502 0.517339,0.100428 0.869434,0.130956 0.352036,0.0307 0.748614,0.205442 0.958862,0.201214 0.21025,-0.0058 0.400516,-0.09313 0.400516,-0.09313 l 0.202951,-0.173412 z"
       inkscape:connector-curvature="0"
       sodipodi:nodetypes="cscccscscscscccccccssccsscccsssssssssccc" />
    <path
       style="fill:#800000;fill-opacity:1;stroke:none;display:inline"
       d="m 70.641203,71.87639 c -0.282831,-0.159818 -0.594655,-0.268145 -0.915654,-0.318096 -0.346051,-0.05385 -0.702751,-0.03967 -1.042962,0.04344 -0.250328,0.06116 -0.491564,0.159394 -0.713397,0.29052 -0.173814,-0.11443 -0.369387,-0.195681 -0.573117,-0.238104 -0.332091,-0.06915 -0.676195,-0.03491 -1.012785,0.0072 -0.461101,0.05768 -0.924167,0.130564 -1.359841,0.292212 -0.28994,0.107576 -0.565458,0.25395 -0.8169,0.433992 -0.183156,0.148942 -0.384058,0.276041 -0.597096,0.377748 -0.308941,0.147493 -0.640457,0.240607 -0.969809,0.33402 -0.318804,0.09042 -0.638279,0.181988 -0.965524,0.234168 -0.616072,0.09823 -1.254494,0.05346 -1.850826,-0.129792 -0.08944,0.04804 -0.163945,0.123458 -0.210898,0.213478 -0.04695,0.09002 -0.06616,0.194275 -0.05438,0.295118 0.01311,0.112177 0.06475,0.21949 0.144221,0.299736 l 2.611082,0.994656 c 0.213352,0.237818 0.452908,0.452112 0.712935,0.637752 0.283744,0.202572 0.591,0.37057 0.906966,0.51792 0.270126,0.125972 0.549402,0.237859 0.842385,0.292608 0.509905,0.09529 1.034768,0.01358 1.545069,-0.07956 0.406138,-0.07413 0.807795,-0.171449 1.202588,-0.2922 l 0.991356,-0.303216 c 0.130538,-0.03993 0.260912,-0.08354 0.380071,-0.150136 0.11916,-0.0666 0.226283,-0.15397 0.318325,-0.25478 0.235518,-0.257953 0.373803,-0.602649 0.381866,-0.951852 l -0.191541,-0.526836 c -0.01219,-0.128052 0.02829,-0.260328 0.110052,-0.359628 0.0741,-0.09 0.177625,-0.150784 0.283398,-0.199795 0.105774,-0.04901 0.216263,-0.08828 0.317983,-0.145229 0.222366,-0.124494 0.395561,-0.334271 0.475704,-0.576186 0.08014,-0.241914 0.06646,-0.513604 -0.0376,-0.746238 l 0.08832,0.0071"
       id="path3791-8-3-2-6"
       inkscape:path-effect="#path-effect3793-9-5-6-8-9-1-1-0-7-0-3-19-6-1-8-2-1"
       inkscape:original-d="m 70.641203,71.87639 c 0,0 -0.807922,-0.296268 -0.915654,-0.318096 -0.107736,-0.02196 -0.95892,0.018 -1.042962,0.04344 -0.0841,0.02544 -0.713397,0.29052 -0.713397,0.29052 0,0 -0.396403,-0.223512 -0.573117,-0.238104 -0.176655,-0.01452 -0.823155,-0.01272 -1.012785,0.0072 -0.189629,0.01968 -1.196044,0.20868 -1.359841,0.292212 -0.163797,0.08352 -0.8169,0.433992 -0.8169,0.433992 0,0 -0.497938,0.334188 -0.597096,0.377748 -0.0991,0.04344 -0.885767,0.308652 -0.969809,0.33402 -0.08404,0.02544 -0.898684,0.21054 -0.965524,0.234168 -0.06678,0.02376 -1.850826,-0.129792 -1.850826,-0.129792 0,0 -0.262203,0.3174 -0.265273,0.508596 0,0.11088 0.144221,0.299736 0.144221,0.299736 0.723417,0.630396 1.716511,0.735696 2.611082,0.994656 0.09696,0.07272 0.555741,0.505116 0.712935,0.637752 0.157251,0.132636 0.700134,0.407064 0.906966,0.51792 0.206832,0.11088 0.709749,0.11016 0.842385,0.292608 0.237876,0.3273 1.325263,-0.02316 1.545069,-0.07956 0.219864,-0.05616 1.202588,-0.2922 1.202588,-0.2922 l 0.991356,-0.303216 c 0,0 0.62287,-0.181512 0.698396,-0.404916 0.07553,-0.223452 0.381866,-0.951852 0.381866,-0.951852 l -0.191541,-0.526836 c 0,0 -0.0753,-0.306972 0.110052,-0.359628 0.185344,-0.05268 0.510795,-0.10344 0.601381,-0.345024 0.09065,-0.241584 0.438106,-1.322424 0.438106,-1.322424 z"
       inkscape:connector-curvature="0"
       sodipodi:nodetypes="csccssscssccsccssssccsccsscc" />
    <path
       style="fill:#af5b33;fill-opacity:1;stroke:none;display:inline"
       d="m 66.066351,68.318774 c 1.723462,-2.225508 -4.194841,0.838968 0,0 z"
       id="path5973-8-3-4-0"
       inkscape:connector-curvature="0"
       sodipodi:nodetypes="cc" />
    <path
       style="fill:#af5b33;fill-opacity:0.98823529;stroke:none;display:inline"
       d="m 68.987536,68.32967 c 0.108312,-0.278652 0.421366,-0.183084 0.634222,-0.329916 0.212912,-0.14682 0.325625,-0.535932 0.300835,-0.714432 -0.04981,-0.357024 -0.916754,-1.141488 -2.098376,-1.938 0.235734,-0.08652 1.796904,0.666828 2.259162,1.42176 0.609895,0.995988 -0.366692,2.150436 -0.931235,1.69374 z"
       id="path5975-4-2-3-8-3"
       inkscape:connector-curvature="0"
       sodipodi:nodetypes="csscssc" />
    <path
       style="fill:#297ea9;fill-opacity:1;stroke:none;display:inline"
       d="m 0.21968504,10.43154 0,96.29595 106.29687496,0 0,-96.29595 z M 53.217055,19.593165 c 23.912971,0 43.300834,19.282404 43.300834,43.071494 0,23.78908 -19.387863,43.087851 -43.300834,43.087851 -23.912998,0 -43.3008592,-19.298771 -43.3008592,-43.087851 0,-23.78909 19.3878612,-43.071494 43.3008592,-43.071494 z"
       id="path7673-3"
       inkscape:connector-curvature="0"
       sodipodi:nodetypes="cccccsssss" />
  </g>
</svg>
