<?xml version="1.0" encoding="UTF-8" standalone="no"?>
<!-- Created with Inkscape (http://www.inkscape.org/) -->

<svg
   xmlns:dc="http://purl.org/dc/elements/1.1/"
   xmlns:cc="http://creativecommons.org/ns#"
   xmlns:rdf="http://www.w3.org/1999/02/22-rdf-syntax-ns#"
   xmlns:svg="http://www.w3.org/2000/svg"
   xmlns="http://www.w3.org/2000/svg"
   xmlns:xlink="http://www.w3.org/1999/xlink"
   xmlns:sodipodi="http://sodipodi.sourceforge.net/DTD/sodipodi-0.dtd"
   xmlns:inkscape="http://www.inkscape.org/namespaces/inkscape"
   width="178.51181"
   height="134.46851"
   id="svg4577"
   version="1.1"
   inkscape:version="0.48.4 r9939"
   sodipodi:docname="ego-onload.svg">
  <defs
     id="defs3">
    <linearGradient
       inkscape:collect="always"
       xlink:href="#linearGradient5541-4-9"
       id="linearGradient10685"
       gradientUnits="userSpaceOnUse"
       gradientTransform="matrix(0.15362219,0,0,5.5164261,160.34718,-2057.4152)"
       x1="1368.8352"
       y1="307.22827"
       x2="1368.8352"
       y2="315.50342" />
    <linearGradient
       inkscape:collect="always"
       id="linearGradient5541-4-9">
      <stop
         style="stop-color:#666666;stop-opacity:1;"
         offset="0"
         id="stop5543-0-8" />
      <stop
         style="stop-color:#666666;stop-opacity:0;"
         offset="1"
         id="stop5545-6-4" />
    </linearGradient>
    <linearGradient
       inkscape:collect="always"
       xlink:href="#linearGradient5541-4-9-0"
       id="linearGradient10687"
       gradientUnits="userSpaceOnUse"
       gradientTransform="matrix(0.15362219,0,0,5.5164261,-552.08515,-1036.7391)"
       x1="1368.8352"
       y1="307.22827"
       x2="1368.8352"
       y2="315.50342" />
    <linearGradient
       inkscape:collect="always"
       id="linearGradient5541-4-9-0">
      <stop
         style="stop-color:#666666;stop-opacity:1;"
         offset="0"
         id="stop5543-0-8-6" />
      <stop
         style="stop-color:#666666;stop-opacity:0;"
         offset="1"
         id="stop5545-6-4-9" />
    </linearGradient>
    <inkscape:path-effect
       effect="spiro"
       id="path-effect3812-7-1-8-1-8-4-4-1-8-4-8"
       is_visible="true" />
    <inkscape:path-effect
       effect="spiro"
       id="path-effect2999-8-1-7-7-6-8-8-2-4-7-2-6"
       is_visible="true" />
    <inkscape:path-effect
       effect="spiro"
       id="path-effect3005-1-8-1-4-4-8-2-6-0-3-4-7-5"
       is_visible="true" />
    <inkscape:path-effect
       effect="spiro"
       id="path-effect3779-7-2-5-0-0-5-4-5-9-9-2-7-0"
       is_visible="true" />
    <inkscape:path-effect
       effect="spiro"
       id="path-effect3783-4-4-2-9-0-7-5-0-7-8-7-9-2"
       is_visible="true" />
    <inkscape:path-effect
       effect="spiro"
       id="path-effect3787-0-5-7-4-5-6-5-9-3-8-79-3-8"
       is_visible="true" />
    <inkscape:path-effect
       effect="spiro"
       id="path-effect3793-9-5-6-8-9-1-1-0-7-0-3-19-6"
       is_visible="true" />
    <inkscape:path-effect
       effect="spiro"
       id="path-effect3812-7-1-8-1-8-4-4-1-8-4-8-8"
       is_visible="true" />
    <inkscape:path-effect
       effect="spiro"
       id="path-effect2999-8-1-7-7-6-8-8-2-4-7-2-6-2"
       is_visible="true" />
    <inkscape:path-effect
       effect="spiro"
       id="path-effect3005-1-8-1-4-4-8-2-6-0-3-4-7-5-4"
       is_visible="true" />
    <inkscape:path-effect
       effect="spiro"
       id="path-effect3779-7-2-5-0-0-5-4-5-9-9-2-7-0-5"
       is_visible="true" />
    <inkscape:path-effect
       effect="spiro"
       id="path-effect3783-4-4-2-9-0-7-5-0-7-8-7-9-2-5"
       is_visible="true" />
    <inkscape:path-effect
       effect="spiro"
       id="path-effect3787-0-5-7-4-5-6-5-9-3-8-79-3-8-1"
       is_visible="true" />
    <inkscape:path-effect
       effect="spiro"
       id="path-effect3793-9-5-6-8-9-1-1-0-7-0-3-19-6-7"
       is_visible="true" />
    <inkscape:path-effect
       effect="spiro"
       id="path-effect3812-7-1-8-1-8-4-4-1-8-4-8-8-1"
       is_visible="true" />
    <inkscape:path-effect
       effect="spiro"
       id="path-effect2999-8-1-7-7-6-8-8-2-4-7-2-6-2-1"
       is_visible="true" />
    <inkscape:path-effect
       effect="spiro"
       id="path-effect3005-1-8-1-4-4-8-2-6-0-3-4-7-5-4-5"
       is_visible="true" />
    <inkscape:path-effect
       effect="spiro"
       id="path-effect3779-7-2-5-0-0-5-4-5-9-9-2-7-0-5-2"
       is_visible="true" />
    <inkscape:path-effect
       effect="spiro"
       id="path-effect3783-4-4-2-9-0-7-5-0-7-8-7-9-2-5-7"
       is_visible="true" />
    <inkscape:path-effect
       effect="spiro"
       id="path-effect3787-0-5-7-4-5-6-5-9-3-8-79-3-8-1-6"
       is_visible="true" />
    <inkscape:path-effect
       effect="spiro"
       id="path-effect3793-9-5-6-8-9-1-1-0-7-0-3-19-6-7-1"
       is_visible="true" />
    <inkscape:path-effect
       effect="spiro"
       id="path-effect3812-7-1-8-1-8-4-4-1-8-4-8-8-1-4"
       is_visible="true" />
    <inkscape:path-effect
       effect="spiro"
       id="path-effect2999-8-1-7-7-6-8-8-2-4-7-2-6-2-1-2"
       is_visible="true" />
    <inkscape:path-effect
       effect="spiro"
       id="path-effect3005-1-8-1-4-4-8-2-6-0-3-4-7-5-4-5-3"
       is_visible="true" />
    <inkscape:path-effect
       effect="spiro"
       id="path-effect3779-7-2-5-0-0-5-4-5-9-9-2-7-0-5-2-2"
       is_visible="true" />
    <inkscape:path-effect
       effect="spiro"
       id="path-effect3783-4-4-2-9-0-7-5-0-7-8-7-9-2-5-7-2"
       is_visible="true" />
    <inkscape:path-effect
       effect="spiro"
       id="path-effect3787-0-5-7-4-5-6-5-9-3-8-79-3-8-1-6-1"
       is_visible="true" />
    <inkscape:path-effect
       effect="spiro"
       id="path-effect3793-9-5-6-8-9-1-1-0-7-0-3-19-6-7-1-6"
       is_visible="true" />
    <inkscape:path-effect
       effect="spiro"
       id="path-effect3793-9-5-6-8-9-1-1-0-7-0-3-19-6-1-8-2"
       is_visible="true" />
    <inkscape:path-effect
       effect="spiro"
       id="path-effect3787-0-5-7-4-5-6-5-9-3-8-79-3-8-1-4-9"
       is_visible="true" />
    <inkscape:path-effect
       effect="spiro"
       id="path-effect3783-4-4-2-9-0-7-5-0-7-8-7-9-2-4-9-1"
       is_visible="true" />
    <inkscape:path-effect
       effect="spiro"
       id="path-effect3779-7-2-5-0-0-5-4-5-9-9-2-7-0-3-0-3"
       is_visible="true" />
    <inkscape:path-effect
       effect="spiro"
       id="path-effect3005-1-8-1-4-4-8-2-6-0-3-4-7-5-3-4-5"
       is_visible="true" />
    <inkscape:path-effect
       effect="spiro"
       id="path-effect2999-8-1-7-7-6-8-8-2-4-7-2-6-2-7-9"
       is_visible="true" />
    <inkscape:path-effect
       effect="spiro"
       id="path-effect3812-7-1-8-1-8-4-4-1-8-4-8-1-1-8"
       is_visible="true" />
    <inkscape:path-effect
       effect="spiro"
       id="path-effect3812-7-1-8-1-8-4-4-1-8-4-8-4"
       is_visible="true" />
    <inkscape:path-effect
       effect="spiro"
       id="path-effect2999-8-1-7-7-6-8-8-2-4-7-2-6-0"
       is_visible="true" />
    <inkscape:path-effect
       effect="spiro"
       id="path-effect3005-1-8-1-4-4-8-2-6-0-3-4-7-5-7"
       is_visible="true" />
    <inkscape:path-effect
       effect="spiro"
       id="path-effect3779-7-2-5-0-0-5-4-5-9-9-2-7-0-6"
       is_visible="true" />
    <inkscape:path-effect
       effect="spiro"
       id="path-effect3783-4-4-2-9-0-7-5-0-7-8-7-9-2-3"
       is_visible="true" />
    <inkscape:path-effect
       effect="spiro"
       id="path-effect3787-0-5-7-4-5-6-5-9-3-8-79-3-8-6"
       is_visible="true" />
    <inkscape:path-effect
       effect="spiro"
       id="path-effect3793-9-5-6-8-9-1-1-0-7-0-3-19-6-15"
       is_visible="true" />
    <inkscape:path-effect
       effect="spiro"
       id="path-effect3812-7-1-8-1-8-4-4-1-8-4-8-17-5"
       is_visible="true" />
    <inkscape:path-effect
       effect="spiro"
       id="path-effect2999-8-1-7-7-6-8-8-2-4-7-2-6-4-7"
       is_visible="true" />
    <inkscape:path-effect
       effect="spiro"
       id="path-effect3005-1-8-1-4-4-8-2-6-0-3-4-7-5-0-4"
       is_visible="true" />
    <inkscape:path-effect
       effect="spiro"
       id="path-effect3779-7-2-5-0-0-5-4-5-9-9-2-7-0-9-44"
       is_visible="true" />
    <inkscape:path-effect
       effect="spiro"
       id="path-effect3783-4-4-2-9-0-7-5-0-7-8-7-9-2-48-44"
       is_visible="true" />
    <inkscape:path-effect
       effect="spiro"
       id="path-effect3787-0-5-7-4-5-6-5-9-3-8-79-3-8-8-2"
       is_visible="true" />
    <inkscape:path-effect
       effect="spiro"
       id="path-effect3793-9-5-6-8-9-1-1-0-7-0-3-19-6-2-9"
       is_visible="true" />
    <inkscape:path-effect
       effect="spiro"
       id="path-effect3812-7-1-8-1-8-4-4-1-8-4-8-17-5-7"
       is_visible="true" />
    <inkscape:path-effect
       effect="spiro"
       id="path-effect2999-8-1-7-7-6-8-8-2-4-7-2-6-4-7-6"
       is_visible="true" />
    <inkscape:path-effect
       effect="spiro"
       id="path-effect3005-1-8-1-4-4-8-2-6-0-3-4-7-5-0-4-1"
       is_visible="true" />
    <inkscape:path-effect
       effect="spiro"
       id="path-effect3779-7-2-5-0-0-5-4-5-9-9-2-7-0-9-44-8"
       is_visible="true" />
    <inkscape:path-effect
       effect="spiro"
       id="path-effect3783-4-4-2-9-0-7-5-0-7-8-7-9-2-48-44-9"
       is_visible="true" />
    <inkscape:path-effect
       effect="spiro"
       id="path-effect3787-0-5-7-4-5-6-5-9-3-8-79-3-8-8-2-2"
       is_visible="true" />
    <inkscape:path-effect
       effect="spiro"
       id="path-effect3793-9-5-6-8-9-1-1-0-7-0-3-19-6-2-9-7"
       is_visible="true" />
    <inkscape:path-effect
       effect="spiro"
       id="path-effect3812-7-1-8-1-8-4-4-1-8-4-8-17-39"
       is_visible="true" />
    <inkscape:path-effect
       effect="spiro"
       id="path-effect2999-8-1-7-7-6-8-8-2-4-7-2-6-4-1"
       is_visible="true" />
    <inkscape:path-effect
       effect="spiro"
       id="path-effect3005-1-8-1-4-4-8-2-6-0-3-4-7-5-0-2"
       is_visible="true" />
    <inkscape:path-effect
       effect="spiro"
       id="path-effect3779-7-2-5-0-0-5-4-5-9-9-2-7-0-9-8"
       is_visible="true" />
    <inkscape:path-effect
       effect="spiro"
       id="path-effect3783-4-4-2-9-0-7-5-0-7-8-7-9-2-48-8"
       is_visible="true" />
    <inkscape:path-effect
       effect="spiro"
       id="path-effect3787-0-5-7-4-5-6-5-9-3-8-79-3-8-8-1"
       is_visible="true" />
    <inkscape:path-effect
       effect="spiro"
       id="path-effect3793-9-5-6-8-9-1-1-0-7-0-3-19-6-2-8"
       is_visible="true" />
    <inkscape:path-effect
       effect="spiro"
       id="path-effect3812-7-1-8-1-8-4-4-1-8-4-8-8-2"
       is_visible="true" />
    <inkscape:path-effect
       effect="spiro"
       id="path-effect2999-8-1-7-7-6-8-8-2-4-7-2-6-5-2"
       is_visible="true" />
    <inkscape:path-effect
       effect="spiro"
       id="path-effect3005-1-8-1-4-4-8-2-6-0-3-4-7-5-8-0"
       is_visible="true" />
    <inkscape:path-effect
       effect="spiro"
       id="path-effect3779-7-2-5-0-0-5-4-5-9-9-2-7-0-39-1"
       is_visible="true" />
    <inkscape:path-effect
       effect="spiro"
       id="path-effect3783-4-4-2-9-0-7-5-0-7-8-7-9-2-44-2"
       is_visible="true" />
    <inkscape:path-effect
       effect="spiro"
       id="path-effect3787-0-5-7-4-5-6-5-9-3-8-79-3-8-69-7"
       is_visible="true" />
    <inkscape:path-effect
       effect="spiro"
       id="path-effect3793-9-5-6-8-9-1-1-0-7-0-3-19-6-8-7"
       is_visible="true" />
    <inkscape:path-effect
       effect="spiro"
       id="path-effect3812-7-1-8-1-8-4-4-1-8-4-8-8-2-9"
       is_visible="true" />
    <inkscape:path-effect
       effect="spiro"
       id="path-effect2999-8-1-7-7-6-8-8-2-4-7-2-6-5-2-5"
       is_visible="true" />
    <inkscape:path-effect
       effect="spiro"
       id="path-effect3005-1-8-1-4-4-8-2-6-0-3-4-7-5-8-0-4"
       is_visible="true" />
    <inkscape:path-effect
       effect="spiro"
       id="path-effect3779-7-2-5-0-0-5-4-5-9-9-2-7-0-39-1-3"
       is_visible="true" />
    <inkscape:path-effect
       effect="spiro"
       id="path-effect3783-4-4-2-9-0-7-5-0-7-8-7-9-2-44-2-1"
       is_visible="true" />
    <inkscape:path-effect
       effect="spiro"
       id="path-effect3787-0-5-7-4-5-6-5-9-3-8-79-3-8-69-7-2"
       is_visible="true" />
    <inkscape:path-effect
       effect="spiro"
       id="path-effect3793-9-5-6-8-9-1-1-0-7-0-3-19-6-8-7-3"
       is_visible="true" />
    <linearGradient
       inkscape:collect="always"
       id="linearGradient5541-4-9-1-7">
      <stop
         style="stop-color:#666666;stop-opacity:1;"
         offset="0"
         id="stop5543-0-8-7-4" />
      <stop
         style="stop-color:#666666;stop-opacity:0;"
         offset="1"
         id="stop5545-6-4-4-0" />
    </linearGradient>
    <linearGradient
       inkscape:collect="always"
       id="linearGradient5541-4-9-0-0-4">
      <stop
         style="stop-color:#666666;stop-opacity:1;"
         offset="0"
         id="stop5543-0-8-6-9-8" />
      <stop
         style="stop-color:#666666;stop-opacity:0;"
         offset="1"
         id="stop5545-6-4-9-4-8" />
    </linearGradient>
    <inkscape:path-effect
       effect="spiro"
       id="path-effect3812-7-1-8-1-8-4-4-1-8-4-8-8-1-4-2"
       is_visible="true" />
    <inkscape:path-effect
       effect="spiro"
       id="path-effect2999-8-1-7-7-6-8-8-2-4-7-2-6-2-1-2-4"
       is_visible="true" />
    <inkscape:path-effect
       effect="spiro"
       id="path-effect3005-1-8-1-4-4-8-2-6-0-3-4-7-5-4-5-3-5"
       is_visible="true" />
    <inkscape:path-effect
       effect="spiro"
       id="path-effect3779-7-2-5-0-0-5-4-5-9-9-2-7-0-5-2-2-5"
       is_visible="true" />
    <inkscape:path-effect
       effect="spiro"
       id="path-effect3783-4-4-2-9-0-7-5-0-7-8-7-9-2-5-7-2-1"
       is_visible="true" />
    <inkscape:path-effect
       effect="spiro"
       id="path-effect3787-0-5-7-4-5-6-5-9-3-8-79-3-8-1-6-1-7"
       is_visible="true" />
    <inkscape:path-effect
       effect="spiro"
       id="path-effect3793-9-5-6-8-9-1-1-0-7-0-3-19-6-7-1-6-1"
       is_visible="true" />
    <linearGradient
       inkscape:collect="always"
       xlink:href="#linearGradient5541-4-9-1-7"
       id="linearGradient8514"
       gradientUnits="userSpaceOnUse"
       gradientTransform="matrix(0.22521069,0,0,5.5164261,83.255177,-2057.4152)"
       x1="1368.8352"
       y1="307.22827"
       x2="1368.8352"
       y2="315.50342" />
    <linearGradient
       inkscape:collect="always"
       xlink:href="#linearGradient5541-4-9-0-0-4"
       id="linearGradient8516"
       gradientUnits="userSpaceOnUse"
       gradientTransform="matrix(0.22521069,0,0,5.5164261,-657.54448,-1036.7391)"
       x1="1368.8352"
       y1="307.22827"
       x2="1368.8352"
       y2="315.50342" />
  </defs>
  <sodipodi:namedview
     id="base"
     pagecolor="#ffffff"
     bordercolor="#666666"
     borderopacity="1.0"
     inkscape:pageopacity="0.0"
     inkscape:pageshadow="2"
     inkscape:zoom="2.90508"
     inkscape:cx="151.26733"
     inkscape:cy="91.480351"
     inkscape:document-units="mm"
     inkscape:current-layer="layer1"
     showgrid="false"
     units="mm"
     inkscape:window-width="1440"
     inkscape:window-height="825"
     inkscape:window-x="-9"
     inkscape:window-y="-9"
     inkscape:window-maximized="1"
     showguides="false"
     inkscape:guide-bbox="true"
     inkscape:snap-global="false">
    <sodipodi:guide
       orientation="1,0"
       position="53.149605,49.011239"
       id="guide5177" />
    <sodipodi:guide
       orientation="0,1"
       position="50.634127,53.149605"
       id="guide5179" />
    <sodipodi:guide
       orientation="0,1"
       position="-75.509159,100.52587"
       id="guide5483" />
    <sodipodi:guide
       orientation="0,1"
       position="-16.29529,5.9672891"
       id="guide5485" />
    <sodipodi:guide
       orientation="1,0"
       position="99.607826,29.606935"
       id="guide5487" />
    <sodipodi:guide
       orientation="1,0"
       position="6.1968002,73.67307"
       id="guide5489" />
    <sodipodi:guide
       orientation="0,1"
       position="-0.15063195,106.29595"
       id="guide5492" />
    <sodipodi:guide
       orientation="1,0"
       position="0,110.05327"
       id="guide5494" />
    <sodipodi:guide
       orientation="1,0"
       position="106.29688,0"
       id="guide5496" />
    <sodipodi:guide
       orientation="0,1"
       position="0,0"
       id="guide5498" />
    <sodipodi:guide
       orientation="1,0"
       position="9.5003953,73.767775"
       id="guide5609" />
    <sodipodi:guide
       orientation="0,1"
       position="82.988747,97.23934"
       id="guide5611" />
    <sodipodi:guide
       orientation="1,0"
       position="96.121646,65.664497"
       id="guide5613" />
    <sodipodi:guide
       orientation="0,1"
       position="49.737363,10.897512"
       id="guide5615" />
  </sodipodi:namedview>
  <metadata
     id="metadata4581">
    <rdf:RDF>
      <cc:Work
         rdf:about="">
        <dc:format>image/svg+xml</dc:format>
        <dc:type
           rdf:resource="http://purl.org/dc/dcmitype/StillImage" />
        <dc:title />
      </cc:Work>
    </rdf:RDF>
  </metadata>
  <g
     inkscape:label="onload"
     inkscape:groupmode="layer"
     id="layer1"
     transform="translate(0,-56.870074)"
     style="display:inline">
    <rect
       style="opacity:0.98999999;fill:#b5ecb8;fill-opacity:0.98823529;stroke:none"
       id="rect4130-1-9"
       width="118.87582"
       height="120.43317"
       x="30.887135"
       y="58.518337" />
    <path
       style="fill:#ffffff;fill-opacity:1;stroke:none"
       d="m 57.705135,151.6836 c 5.491143,-1.95068 16.66649,-5.85579 16.66649,-5.85579 l -1.576553,5.18012 2.477455,2.47746 4.729682,0.67567 5.8558,0.22521 9.23413,-0.90089 3.82879,0 2.252231,-0.67567 2.70267,0 0,-2.92789 -3.15312,-2.70268 8.33325,4.05402 10.13503,2.70267 4.9549,8.10802 c -1.02098,7.51624 0.0403,9.6802 -4.27923,12.61249 -7.09404,4.55357 -38.841491,2.5472 -39.987431,2.62252 -47.972477,3.15312 -36.363137,-14.55933 -36.363137,-14.55933 0,0 0.180301,-4.43965 2.252224,-6.53147 2.071931,-2.09182 7.864327,-3.05774 11.936819,-4.50446 z"
       id="path3979-3-6"
       inkscape:connector-curvature="0"
       sodipodi:nodetypes="scccccccccccccccsczs" />
    <path
       sodipodi:nodetypes="ccczzzc"
       style="fill:#c87137;stroke:none"
       d="m 102.66232,140.7685 c -5.110161,7.23628 20.1993,16.23836 -17.795421,15.80174 -33.175021,-3.8273 -0.3508,-10.02291 -4.97374,-32.57537 0,0 4.87521,9.68218 7.23578,11.96993 2.36057,2.28775 3.00494,2.09297 4.99984,2.8124 1.99491,0.71944 5.12014,0.91272 6.87478,1.24995 1.754651,0.33724 3.658761,0.74135 3.658761,0.74135 z"
       id="path14100-9-1"
       inkscape:connector-curvature="0" />
    <path
       style="fill:#af5b33;fill-opacity:1;stroke:none"
       d="m 82.931339,130.17521 c 1.36692,0.32034 2.4475,1.25907 3.48282,2.26598 1.03532,1.00692 3.21137,2.67497 3.21137,2.67497 l 13.684571,4.40024 -1.46262,2.76509 c 0,0 -19.885091,-3.19424 -18.916141,-12.10628 z"
       id="path6026-4-9"
       inkscape:connector-curvature="0"
       sodipodi:nodetypes="cscccc" />
    <g
       id="g4074-6-6"
       transform="matrix(-0.09142672,0.00184901,0.00362079,0.08373167,121.65855,61.491588)"
       style="stroke:none">
      <path
         sodipodi:nodetypes="czszsacccsacssasscacccscscccscccccsazcssssccccsscssccscsccsscssscscsscssccsscsssssscsssszzscc"
         inkscape:connector-curvature="0"
         inkscape:original-d="m 90.919581,581.80145 c 0,0 -37.343666,-36.68044 -40.388306,-50.70017 -3.044592,-14.01978 12.030576,-15.46788 5.155968,-20.62385 -6.874608,-5.15595 -3.733126,4.36232 -8.593272,0.85932 -4.860123,-3.503 -9.23589,-18.12458 -6.015288,-26.63911 4.500164,-11.89746 36.836529,-11.07385 30.935761,-22.34245 -2.395524,-4.57465 -14.608537,5.15597 -14.608537,5.15597 L 47.093971,465.7925 35.063395,455.48056 c 0,0 3.437304,8.59327 -6.874609,-8.59325 -10.311912,-17.18652 -30.5557626,-31.3284 -22.3424409,-46.40359 3.3145846,-6.0838 20.6237769,-2.57798 20.6237769,-2.57798 0,0 -5.15592,-0.85932 -10.311865,-16.32721 C 11.002289,366.11068 2.4090174,335.17496 5.8463451,324.863 9.2836493,314.55109 33.078779,324.14826 40.219363,314.55109 c 5.813497,-7.81354 5.155944,-8.59325 0,-29.21705 -5.155968,-20.62382 -5.155968,-20.62382 -8.593249,-27.49845 -3.437328,-6.87461 -3.437328,-22.34247 -3.437328,-22.34247 0,0 -11.404524,-22.55454 -5.155944,-30.93571 5.521362,-7.4058 27.498409,-3.43731 27.498409,-3.43731 l 13.749264,1.71864 12.030529,0 c 0,0 -1.71864,-13.74921 6.874608,-15.46788 8.593249,-1.71864 13.749241,-3.4373 13.749241,-3.4373 0,0 1.71864,3.4373 10.311887,3.4373 8.59325,0 10.31191,-3.4373 10.31191,-3.4373 l 1.71867,-17.1865 3.43733,-8.59325 c 0,0 -6.87466,-3.43732 8.59322,-6.87463 15.46788,-3.43728 18.90518,-3.43728 18.90518,-3.43728 l 0,0 18.90517,12.03053 17.18654,-3.43728 c -29.56805,-24.96058 -1.92622,-33.22712 -5.15599,-39.52901 -8.59327,-15.46786 -17.30385,-19.129309 -13.74922,-24.061109 3.55464,-4.93179 14.1977,6.13503 20.62387,3.43731 6.44778,-2.70683 -2e-5,-17.18655 12.03053,-17.18655 12.03058,0 18.90519,17.18653 18.90519,17.18653 0,0 10.31189,18.905179 12.03053,-1.71864 1.71866,-20.62381 -6.87459,-22.34247 1.71866,-27.49841 8.59325,-5.156 17.18654,-8.5933 30.93574,-8.5933 13.74924,0 6.87461,0 18.90518,3.4373 12.03053,3.43731 20.01536,10.28658 20.01536,10.28658 4.60414,0.73419 3.38886,-5.49406 3.38886,-5.49406 l 3.94964,-0.15196 11.24125,3.34198 c 0,0 -0.30383,3.19009 1.21526,3.64583 1.51909,0.45571 7.29161,1.8229 9.26645,1.21526 1.9748,-0.60764 3.6458,-1.671 3.6458,-1.671 0,0 -0.60764,-0.91145 1.97481,-2.58245 2.58245,-1.671 5.1649,-3.4939 8.5069,-3.342 3.342,0.15195 8.05116,3.49391 8.05116,3.49391 l 0.71564,4.45453 c 10.52415,-6.32203 7.08684,-6.32203 13.96145,-8.04067 6.87459,-1.71869 27.49843,3.43728 27.49843,3.43728 0,0 1.71867,-1.71864 8.59328,5.15597 6.87461,6.87461 10.31191,8.59327 10.31191,8.59327 l 8.59325,8.59325 c 0,0 0,-6.87463 8.59325,15.467849 8.59325,22.34247 -6.87461,20.62381 12.03055,25.7798 18.90521,5.15594 37.81034,0 37.81034,0 0,0 -3.43728,-10.31194 8.59328,-13.74924 12.03055,-3.43731 37.81037,-8.59328 46.40361,-3.43731 8.59323,5.15595 10.31189,12.03056 13.7492,20.62385 3.4373,8.59325 5.15597,10.31191 5.15597,10.31191 0,0 -8.59328,5.15595 5.15596,8.59325 13.7492,3.43728 36.951,15.46786 36.951,15.46786 0,0 7.73393,13.74922 30.0764,17.18652 22.34251,3.43728 27.49846,-6.87461 32.6544,5.15594 5.15597,12.0306 5.15597,27.49846 5.15597,27.49846 0,0 1.71864,8.59325 10.31189,10.31189 8.59324,1.71866 12.03057,8.59325 13.74921,15.46788 1.71864,6.87461 0,10.31189 0,10.31189 l -10.31191,6.87463 c 0,0 -3.4373,1.71864 -6.87458,8.59325 -3.43733,6.87463 -6.87461,12.03058 -10.31192,29.2171 -3.4373,17.18649 0,22.34244 0,22.34244 0,0 17.1865,-5.15595 27.49841,13.74924 10.31189,18.90516 10.31189,24.0611 10.31189,37.81034 0,13.7492 9.52218,0.62429 9.52218,28.12273 0,27.49843 0.38135,32.79024 5.42631,43.90124 9.7232,21.41435 1.31657,-10.64441 -10.71401,28.88457 -12.03055,39.52899 -24.85828,43.45821 -31.73286,58.92609 -6.87461,15.46786 15.36849,1.61327 15.36849,1.61327 0,0 -20.09412,63.0947 -30.40606,76.84392 -10.31193,13.74921 -8.4489,-22.01343 -8.4489,2.0477 0,24.06111 -10.58977,32.23714 -12.30841,40.83044 -1.71866,8.5932 -12.32738,16.15685 -27.79524,24.75005 -15.46788,8.5933 -12.87083,-0.47909 -19.27442,6.42041 -6.40359,6.89951 -3.04415,26.27849 -9.65411,35.37314 -6.60996,9.09465 -10.60048,13.20335 -26.06836,16.64065 -15.46786,3.4373 -38.66966,23.2018 -38.66966,23.2018 z"
         inkscape:path-effect="#path-effect3812-7-1-8-1-8-4-4-1-8-4-8-8-1-4-2"
         id="path3810-0-8"
         d="m 90.919581,581.80145 c -6.725988,3.85235 -14.844626,5.20905 -22.457714,3.75288 -7.613088,-1.45617 -14.657974,-5.71323 -19.487508,-11.77583 -4.829535,-6.0626 -7.403973,-13.88086 -7.121391,-21.6268 0.282581,-7.74595 3.419856,-15.35584 8.678307,-21.05042 1.455452,-1.57616 3.06191,-3.00565 4.551963,-4.54914 1.490053,-1.5435 2.877365,-3.22317 3.794607,-5.16258 0.917243,-1.9394 1.337216,-4.17017 0.843055,-6.25786 -0.247081,-1.04384 -0.721623,-2.0384 -1.412746,-2.85877 -0.691124,-0.82037 -1.60133,-1.46216 -2.620911,-1.7955 -1.384253,-0.45256 -2.892026,-0.32563 -4.319844,-0.0387 -1.427818,0.28688 -2.826972,0.72855 -4.273428,0.89806 -3.135335,0.36743 -6.387042,-0.61418 -8.862147,-2.57356 -2.475105,-1.95939 -4.164075,-4.85811 -4.753654,-7.95935 -0.58958,-3.10125 -0.09559,-6.3812 1.284504,-9.22033 1.380099,-2.83913 3.626368,-5.23325 6.316009,-6.88587 3.132804,-1.92492 6.776268,-2.83425 10.390803,-3.50872 3.614535,-0.67448 7.287249,-1.14655 10.775548,-2.30911 3.488299,-1.16256 6.847269,-3.10275 8.948139,-6.12038 1.050436,-1.50882 1.761171,-3.26888 1.942541,-5.09837 0.181371,-1.8295 -0.181624,-3.72568 -1.12127,-5.30587 -0.924256,-1.55431 -2.398925,-2.7737 -4.099176,-3.38956 -1.70025,-0.61586 -3.613752,-0.62372 -5.319009,-0.0219 -1.705257,0.60186 -3.189904,1.80908 -4.12691,3.35574 -0.937006,1.54666 -1.319577,3.42154 -1.063442,5.21166 L 47.093971,465.7925 35.063395,455.48056 c -2.032957,-3.05909 -4.336383,-5.93837 -6.874609,-8.59325 -6.576039,-6.87826 -14.734887,-12.27175 -20.343179,-19.95952 -2.8041458,-3.84389 -4.9293365,-8.27891 -5.5067228,-13.00176 -0.5773863,-4.72285 0.5089997,-9.748 3.5074609,-13.44231 2.4112016,-2.97076 5.9969859,-4.96088 9.7935779,-5.43546 3.796593,-0.47457 7.761921,0.57165 10.830199,2.85748 -3.0498,-5.67464 -6.498372,-11.1349 -10.311865,-16.32721 -6.4636595,-8.80067 -14.1076821,-17.06929 -17.7432031,-27.36559 -1.8177604,-5.14814 -2.5528327,-10.76822 -1.4333223,-16.11185 1.1195105,-5.34363 4.2169776,-10.37328 8.8646135,-13.23809 2.594528,-1.59927 5.5715559,-2.48859 8.5733559,-3.01627 3.0018,-0.52768 6.051738,-0.70936 9.086169,-0.9948 3.034432,-0.28544 6.079896,-0.67992 8.980826,-1.61472 2.90093,-0.9348 5.670917,-2.44147 7.732667,-4.68612 1.738456,-1.89267 2.922566,-4.26022 3.56795,-6.74778 0.645383,-2.48755 0.764901,-5.0939 0.529577,-7.65302 -0.470647,-5.11822 -2.324905,-9.99177 -4.097527,-14.81625 -3.314113,-9.01989 -6.408263,-18.14069 -8.593249,-27.49845 -1.715006,-7.34495 -2.865281,-14.82168 -3.437328,-22.34247 -3.053884,-0.99791 -5.824928,-2.8464 -7.919274,-5.28274 -2.094345,-2.43634 -3.505924,-5.45347 -4.034103,-8.62255 -0.528179,-3.16908 -0.171428,-6.48093 1.019547,-9.46482 1.190975,-2.98389 3.212724,-5.63118 5.777886,-7.5656 3.785725,-2.85486 8.59085,-4.08347 13.324463,-4.35706 4.733612,-0.27359 9.469048,0.33164 14.173946,0.91975 l 13.749264,1.71864 12.030529,0 c -0.46265,-5.86315 2.212554,-11.88237 6.874608,-15.46788 3.852067,-2.96256 8.956212,-4.2386 13.749241,-3.4373 2.949205,2.2119 6.625377,3.4373 10.311887,3.4373 3.68651,0 7.3627,-1.22539 10.31191,-3.4373 l 1.71867,-17.1865 3.43733,-8.59325 c 2.42378,-2.77953 5.34944,-5.12009 8.59322,-6.87463 5.72857,-3.09855 12.45255,-4.32109 18.90518,-3.43728 l 0,0 18.90517,12.03053 17.18654,-3.43728 c 4.73879,-5.74808 6.96587,-13.49666 6.00234,-20.88369 -0.96353,-7.38702 -5.10367,-14.30509 -11.15833,-18.64532 -2.30927,-1.65538 -4.85915,-2.93806 -7.3311,-4.33895 -2.47195,-1.40089 -4.90394,-2.94957 -6.83947,-5.02964 -1.93554,-2.08008 -3.35047,-4.75881 -3.4399,-7.598704 -0.0447,-1.419949 0.24754,-2.857936 0.90615,-4.116701 0.65861,-1.258765 1.6899,-2.330952 2.9551,-2.977114 1.5986,-0.816434 3.48801,-0.922481 5.25574,-0.610748 1.76774,0.311733 3.4402,1.015181 5.07441,1.757763 1.63421,0.742582 3.25671,1.533017 4.97998,2.035418 1.72327,0.502401 3.57629,0.705812 5.31374,0.254877 1.74641,-0.45326 3.28137,-1.548242 4.47555,-2.900757 1.19419,-1.352514 2.07075,-2.956304 2.80685,-4.603586 1.4722,-3.294563 2.46362,-6.888912 4.74813,-9.682207 2.19078,-2.678689 5.50895,-4.404023 8.96003,-4.65891 3.45107,-0.254888 6.98671,0.964243 9.54726,3.292011 2.56054,2.327769 4.11012,5.731561 4.18432,9.191243 0.0742,3.459682 -1.32803,6.926779 -3.78642,9.362186 1.84639,1.225255 4.14886,1.744942 6.34253,1.431562 2.19367,-0.31338 4.25854,-1.456971 5.688,-3.150202 1.52048,-1.801043 2.29343,-4.144637 2.52384,-6.490381 0.23042,-2.345745 -0.0483,-4.71157 -0.43204,-7.037162 -0.38371,-2.325593 -0.87331,-4.638423 -1.06911,-6.98731 -0.19581,-2.348888 -0.0878,-4.76064 0.69597,-6.983557 0.97125,-2.754756 2.9572,-5.095342 5.37781,-6.730172 2.42061,-1.63483 5.25817,-2.591108 8.14617,-3.02867 5.77601,-0.875126 11.63933,0.267185 17.41176,1.165542 6.33361,0.985691 12.73909,1.686433 18.90518,3.4373 7.26345,2.062465 14.11018,5.581235 20.01536,10.28658 l 3.38886,-5.49406 3.94964,-0.15196 11.24125,3.34198 c -0.0874,1.310875 0.35879,2.649587 1.21526,3.64583 1.08082,1.257204 2.74279,1.918788 4.39662,2.035271 1.65383,0.116483 3.3071,-0.266299 4.86983,-0.820011 1.26175,-0.447066 2.48347,-1.007025 3.6458,-1.671 0.5329,-0.947689 1.19985,-1.819865 1.97481,-2.58245 2.23118,-2.195566 5.37774,-3.426114 8.5069,-3.342 2.99705,0.08056 5.94521,1.359957 8.05116,3.49391 l 0.71564,4.45453 c 3.9382,-3.724068 8.7639,-6.503278 13.96145,-8.04067 9.11368,-2.695748 19.32874,-1.418875 27.49843,3.43728 2.97361,1.527278 5.84634,3.250918 8.59328,5.15597 3.6815,2.553183 7.13671,5.43253 10.31191,8.59327 l 8.59325,8.59325 c 3.48608,4.776303 6.3796,9.984639 8.59325,15.467849 1.78741,4.4274 3.1298,9.02281 4.87326,13.4677 1.74345,4.44489 3.92865,8.79464 7.15729,12.3121 4.79046,5.21899 11.82094,8.30893 18.90517,8.30893 7.08423,0 14.11471,-3.08994 18.90517,-8.30893 1.84565,-5.1233 4.79684,-9.84519 8.59328,-13.74924 5.9584,-6.12729 14.08041,-10.18979 22.5945,-10.93582 8.51408,-0.74604 17.34111,1.91182 23.80911,7.49851 6.29767,5.43957 10.06539,13.16201 13.7492,20.62385 1.70123,3.44598 3.41992,6.88334 5.15597,10.31191 1.35854,3.06091 3.09446,5.95411 5.15596,8.59325 4.29445,5.49778 10.01921,9.86837 16.45438,12.56216 6.43517,2.6938 13.56629,3.70474 20.49662,2.9057 7.22905,9.39446 18.31258,15.7279 30.0764,17.18652 5.54254,0.68723 11.1586,0.33612 16.73492,0.647 5.57633,0.31088 11.30553,1.36195 15.91948,4.50894 4.28046,2.91952 7.33006,7.58662 8.28492,12.67918 0.95485,5.09256 -0.19688,10.54741 -3.12895,14.81928 3.1505,3.70896 6.60293,7.16139 10.31189,10.31189 2.66527,2.26396 5.46742,4.3766 7.95239,6.83711 2.48496,2.46051 4.67038,5.32013 5.79682,8.63077 1.1273,3.31317 1.1273,6.99872 0,10.31189 l -10.31191,6.87463 c -2.55748,2.63744 -4.86288,5.51919 -6.87458,8.59325 -5.70351,8.71546 -8.97004,18.88808 -10.31192,29.2171 -0.96214,7.406 -0.96214,14.93644 0,22.34244 5.34718,-0.24676 10.75263,0.89841 15.54038,3.29229 4.78774,2.39388 8.94714,6.03115 11.95803,10.45695 3.70267,5.44267 5.60939,11.9075 6.8693,18.36854 1.25991,6.46105 1.92933,13.03536 3.44259,19.4418 2.27646,9.63751 6.41809,18.71909 9.52218,28.12273 4.65673,14.10726 6.97102,29.12579 5.42631,43.90124 -1.08264,10.35569 -4.19293,20.76743 -10.71401,28.88457 -8.04862,10.01856 -20.4349,15.61137 -29.28427,24.93019 -4.42468,4.65942 -7.97226,10.40604 -8.85647,16.77048 -0.4421,3.18222 -0.19952,6.47736 0.86718,9.50789 1.06669,3.03054 2.97411,5.78501 5.5407,7.71753 2.16129,1.62735 4.76999,2.65417 7.46066,2.93662 2.69066,0.28244 5.45572,-0.18028 7.90783,-1.32335 4.81203,6.63539 7.91904,14.49667 8.94364,22.62897 1.0246,8.13229 -0.0354,16.51857 -3.05113,24.1402 -3.01577,7.62162 -7.98104,14.46263 -14.29269,19.69207 -6.31165,5.22945 -13.95647,8.83638 -22.00588,10.38268 -2.8536,0.54818 -5.79918,0.85501 -8.4489,2.0477 -3.40435,1.53237 -6.06422,4.45224 -7.7592,7.77862 -1.69498,3.32638 -2.4889,7.04714 -2.85123,10.76285 -0.72465,7.43142 0.19735,15.06686 -1.69798,22.28897 -1.6555,6.30821 -5.44368,11.97932 -10.39868,16.21987 -4.95499,4.24055 -11.03837,7.07842 -17.39656,8.53018 -3.34632,0.76406 -6.7714,1.1553 -10.10355,1.97896 -3.33215,0.82367 -6.6361,2.12702 -9.17087,4.44145 -2.30242,2.10227 -3.84682,4.93761 -4.78759,7.91009 -0.94077,2.97248 -1.31042,6.09447 -1.53958,9.20384 -0.45832,6.21875 -0.4382,12.73309 -3.32694,18.25921 -2.44635,4.67984 -6.76501,8.14329 -11.42508,10.62711 -4.66007,2.48381 -9.71908,4.10623 -14.64328,6.01354 -14.08575,5.45589 -27.22705,13.34067 -38.66966,23.2018 L 90.919581,581.80145"
         style="fill:#150b02;fill-opacity:0.97058835;stroke:none" />
      <path
         sodipodi:nodetypes="cccccasazzzzczcaczzccccccczzzccccsaccccscssssccsscsczsscazzccccscccccscaacazzcacccc"
         inkscape:connector-curvature="0"
         inkscape:original-d="m 86.281707,504.72502 10.121983,-38.2916 0.38196,-54.81143 10.69492,-44.97593 24.92295,-24.4455 c 0,0 22.17246,-4.05251 32.18023,-0.19094 7.33517,2.83032 9.59098,17.02325 17.37924,15.94687 6.11631,-0.84531 4.75468,-12.11301 9.74,-15.75588 7.31149,-5.34264 16.8604,-8.71583 26.35532,-6.58883 9.49492,2.12699 19.66215,12.46254 24.15903,19.76649 4.49688,7.30395 5.86242,13.70857 4.39255,19.76649 -1.46987,6.05792 -6.73495,11.18874 -10.98138,13.17766 -4.24643,1.98891 -10.98137,0 -10.98137,0 0,0 -6.55868,-6.88891 -8.78512,-10.9814 -2.22643,-4.0925 -4.39254,-13.17766 -4.39254,-13.17766 0,0 -7.30419,11.35627 -6.58883,17.57023 0.60377,5.24456 8.78511,13.17766 8.78511,13.17766 0,0 14.0522,6.00656 23.87255,4.48804 9.82035,-1.51853 26.23631,-8.69617 31.12985,-16.71082 4.89354,-8.01465 0.38196,-21.00786 0.38196,-21.00786 l -4.87,-15.08746 -17.57023,-24.15903 6.58883,-15.37395 13.17766,0 13.17766,13.17766 2.19628,13.17766 c 0,0 3.36098,26.61102 13.17766,35.14044 9.81669,8.52942 29.83344,10.75926 39.53298,8.78509 9.69955,-1.97417 11.90297,-5.88347 15.37392,-10.98138 3.47096,-5.0979 4.39257,-17.5702 4.39257,-17.5702 l -4.39257,-13.17766 0,15.37394 -13.17766,6.58881 c 0,0 -4.39254,4.39257 -15.37392,2.19628 -10.98137,-2.19628 -15.94408,-4.48516 -19.76649,-10.98137 -3.71263,-6.30969 0,-21.96278 0,-21.96278 l 13.17766,-13.17766 19.76649,-15.37392 17.57021,-2.19628 c 0,0 -13.17766,-4.39255 17.5702,0 30.74789,4.39254 43.92553,26.35532 43.92553,26.35532 0,0 -4.39255,2.19628 0,13.17766 4.39257,10.98137 17.57023,46.12181 17.57023,57.10318 0,10.98138 -10.9814,24.15904 -10.9814,35.14044 0,10.98137 -19.76647,17.5702 0,24.15903 19.76649,6.58883 24.15906,10.98138 24.15906,10.98138 l 17.5702,30.74786 c 0,0 21.96278,8.78512 30.74787,10.9814 8.78511,2.19626 10.98137,8.78509 10.98137,15.37392 0,6.58883 -4.39254,50.51436 -4.39254,50.51436 0,0 -7.25726,30.84336 1.52783,37.43219 8.78512,6.58883 42.84443,16.50319 42.84443,16.50319 0,0 -19.75299,3.82414 -16.79601,-2.25649 2.95698,-6.08063 -0.12318,-47.84567 2.0731,-56.63076 2.19626,-8.78511 22.11373,-10.00415 27.35995,-7.29963 6.53958,3.37132 43.30114,19.55792 31.14395,18.55709 -12.15719,-1.00083 2.08485,31.58311 -2.58686,46.10623 -3.81996,11.87521 -16.29396,23.67548 -20.0137,31.09288 -3.71974,7.4174 -21.93001,49.04 -25.22993,51.18665 -3.29992,2.14665 -29.08928,-4.26634 -29.08928,-4.26634 l 1.94418,-9.62985 -4.39255,26.3553 c 1.36187,16.15298 -7.55814,27.7534 -2.19628,41.7293 0,0 -6.58883,15.3739 -10.98138,24.159 -4.39254,8.7851 -21.96277,37.3367 -21.96277,37.3367 l -26.35532,32.9442 -24.15904,24.159 -21.96275,17.5702 c -29.87473,15.19857 -46.96258,18.08938 -73.90947,23.5861 -8.78511,2.1963 -63.50105,10.6949 -74.48245,10.6949 -10.98137,0 -40.58336,-5.5384 -40.58336,-5.5384 0,0 -16.56845,-13.3627 -22.91766,-21.7718 -7.31789,-9.6921 -11.61714,-21.3413 -16.90178,-32.2757 -6.38054,-13.2019 -17.85667,-40.2014 -17.85667,-40.2014 0,0 -12.4645,-16.5936 -18.23865,-25.2095 -6.02394,-8.9885 -8.78748,-11.4942 -17.09275,-27.5966 -8.30527,-16.1025 -25.084766,-53.1116 -29.539959,-70.2927 -4.455192,-17.1812 -3.308723,-30.0676 -3.308723,-30.0676 0,0 1.925537,-32.18991 3.64061,-48.19429 0.814137,-7.59721 3.154051,-22.68145 3.154051,-22.68145 l 0.958621,-39.21346 -7.826493,-24.83858 z"
         inkscape:path-effect="#path-effect2999-8-1-7-7-6-8-8-2-4-7-2-6-2-1-2-4"
         id="path2997-6-3"
         d="m 86.281707,504.72502 10.121983,-38.2916 0.38196,-54.81143 10.69492,-44.97593 24.92295,-24.4455 c 3.67805,-5.02724 9.81308,-8.1633 16.04203,-8.20026 6.22895,-0.037 12.40075,3.02608 16.1382,8.00932 2.55605,3.40805 3.97307,7.55605 6.48733,10.99505 1.25712,1.7195 2.80895,3.26555 4.70212,4.24175 1.89317,0.9762 4.15511,1.34025 6.18979,0.71007 1.52635,-0.47274 2.85399,-1.47625 3.88254,-2.69909 1.02854,-1.22284 1.77503,-2.65994 2.37605,-4.14049 1.20203,-2.96109 1.86423,-6.15991 3.48141,-8.9163 1.24069,-2.11468 3.01692,-3.89925 5.07392,-5.23339 2.05701,-1.33413 4.38994,-2.22322 6.79602,-2.69434 4.81217,-0.94224 9.83423,-0.21402 14.48538,1.3389 10.08048,3.36565 18.71751,10.63777 24.15903,19.76649 1.76876,2.96728 3.22235,6.14354 4.05725,9.49558 0.83489,3.35205 1.03797,6.88868 0.3353,10.27091 -0.6073,2.9232 -1.89585,5.71155 -3.78777,8.02122 -1.89192,2.30967 -4.38956,4.13115 -7.19361,5.15644 -3.50928,1.28316 -7.47209,1.28316 -10.98137,0 -3.54761,-3.10183 -6.53769,-6.83943 -8.78512,-10.9814 -2.21956,-4.09061 -3.71383,-8.57343 -4.39254,-13.17766 -2.5117,2.09561 -4.46734,4.85171 -5.61591,7.91456 -1.14856,3.06284 -1.48737,6.42525 -0.97292,9.65567 0.85641,5.37776 4.15042,10.31876 8.78511,13.17766 7.51375,3.1812 15.7165,4.72332 23.87255,4.48804 6.1797,-0.17827 12.39166,-1.39183 17.93386,-4.13124 5.54221,-2.73942 10.38693,-7.07234 13.19599,-12.57958 1.64121,-3.21764 2.54148,-6.82006 2.51509,-10.432 -0.0264,-3.61194 -1.02359,-7.13846 -2.13313,-10.57586 l -4.87,-15.08746 -17.57023,-24.15903 6.58883,-15.37395 13.17766,0 13.17766,13.17766 2.19628,13.17766 c 1.04392,6.26353 2.09542,12.55306 4.03929,18.59814 1.94388,6.04507 4.8266,11.88073 9.13837,16.5423 4.85252,5.2462 11.42169,8.82969 18.41464,10.30219 6.99295,1.47251 14.37931,0.86094 21.11834,-1.5171 6.03365,-2.12913 11.67135,-5.76322 15.37392,-10.98138 3.57544,-5.03899 5.17606,-11.44148 4.39257,-17.5702 l -4.39257,-13.17766 0,15.37394 -13.17766,6.58881 c -4.86606,1.8962 -10.17156,2.65413 -15.37392,2.19628 -3.8893,-0.34229 -7.73852,-1.36696 -11.18614,-3.19939 -3.44761,-1.83243 -6.48382,-4.48829 -8.58035,-7.78198 -2.07492,-3.25975 -3.19849,-7.11729 -3.19849,-10.98139 0,-3.8641 1.12357,-7.72164 3.19849,-10.98139 l 13.17766,-13.17766 19.76649,-15.37392 17.57021,-2.19628 c 5.82083,-0.79375 11.74937,-0.79375 17.5702,0 17.38986,2.37134 33.6497,12.12725 43.92553,26.35532 -0.62833,4.36255 -0.62833,8.81511 0,13.17766 1.43033,9.93093 6.02362,19.07431 10.13527,28.22655 4.11166,9.15224 7.86332,18.85238 7.43496,28.87663 -0.26317,6.15847 -2.10265,12.14295 -4.31022,17.89818 -2.20756,5.75523 -4.79948,11.36921 -6.67118,17.24226 -1.2533,3.93261 -2.18244,7.99725 -2.32695,12.12221 -0.14451,4.12497 0.5212,8.32529 2.32695,12.03682 2.09822,4.31266 5.736,7.85642 10.10211,9.84101 4.36611,1.9846 9.42804,2.39524 14.05695,1.14037 l 17.5702,30.74786 c 11.1578,-0.59671 22.49247,3.45139 30.74787,10.9814 4.68534,4.27364 8.37713,9.59167 10.98137,15.37392 3.62547,8.04971 5.15126,17.03431 4.38645,25.82959 -0.7648,8.79528 -3.8185,17.38166 -8.77899,24.68477 -2.9793,5.80887 -4.42811,12.39424 -4.16187,18.91715 0.26624,6.5229 2.24691,12.96829 5.6897,18.51504 4.33198,6.97935 10.98727,12.48889 18.65273,15.44154 7.66546,2.95265 16.29705,3.33144 24.1917,1.06165 -5.64137,1.13199 -11.65344,0.32429 -16.79601,-2.25649 -5.10197,-2.5604 -9.30006,-6.82404 -11.94458,-11.88292 -2.64452,-5.05887 -3.74884,-10.88266 -3.32415,-16.57523 0.4247,-5.69257 2.35711,-11.24365 5.40271,-16.0717 3.0456,-4.82805 7.18808,-8.93652 11.93912,-12.10091 7.99827,-5.32719 17.77195,-7.94891 27.35995,-7.29963 6.27599,0.425 12.47389,2.23377 17.90727,5.40347 5.43339,3.1697 10.08502,7.70975 13.23668,13.15362 4.03667,6.97255 5.52241,15.27227 4.83819,23.29991 -0.68423,8.02764 -3.46188,15.79173 -7.42505,22.80632 -6.07121,10.74571 -14.89679,19.86136 -20.0137,31.09288 -4.04628,8.88149 -5.58235,18.67417 -8.6068,27.95349 -1.51222,4.63967 -3.41541,9.18602 -6.11199,13.25318 -2.69657,4.06716 -6.22211,7.65243 -10.51114,9.97998 -4.61834,2.50626 -10.05595,3.4721 -15.2549,2.70961 -5.19895,-0.7625 -10.13021,-3.24908 -13.83438,-6.97595 l 1.94418,-9.62985 -4.39255,26.3553 -2.19628,41.7293 c -3.33708,8.19483 -7.00143,16.25638 -10.98138,24.159 -6.49933,12.90512 -13.841,25.38595 -21.96277,37.3367 l -26.35532,32.9442 -24.15904,24.159 -21.96275,17.5702 c -24.15686,9.27109 -48.84775,17.15048 -73.90947,23.5861 -24.36977,6.25793 -49.32656,11.1733 -74.48245,10.6949 -13.6817,-0.26019 -27.33224,-2.12308 -40.58336,-5.5384 -8.90611,-5.74526 -16.72354,-13.17183 -22.91766,-21.7718 -7.11177,-9.87405 -12.01287,-21.13242 -16.90178,-32.2757 -5.89108,-13.42751 -11.84339,-26.82817 -17.85667,-40.2014 -6.3897,-8.17286 -12.47487,-16.5838 -18.23865,-25.2095 -6.01275,-8.9983 -11.67452,-18.22829 -17.09275,-27.5966 -12.77991,-22.09691 -24.327858,-45.30403 -29.539959,-70.2927 -2.061775,-9.88488 -3.111864,-19.97191 -3.308723,-30.0676 -0.314391,-16.12326 1.538693,-32.20554 3.64061,-48.19429 0.994931,-7.56819 2.04632,-15.12895 3.154051,-22.68145 l 0.958621,-39.21346 -7.826493,-24.83858 0.83713,-37.33671"
         style="fill:#c87137;fill-opacity:1;stroke:none;display:inline" />
      <path
         style="fill:#ffffff;fill-opacity:1;stroke:none"
         d="m 389.39856,577.56372 c -26.06716,17.85409 -18.08703,24.65787 -37.36448,28.4999 -19.27745,3.84204 -40.22068,3.0679 -71.6939,-6.8273 -12.02068,-2.54438 -6.86963,-0.64507 -3.22752,-12.29086 3.64212,-11.64578 10.55975,-18.04784 29.63409,-20.827 19.07434,-2.77916 44.62989,-5.17509 82.65181,11.44526 z"
         id="path6028-6-4"
         inkscape:connector-curvature="0"
         sodipodi:nodetypes="czcssc" />
      <path
         transform="matrix(2.3117984,0,0,2.3833697,-554.48177,-447.06009)"
         d="m 394.96611,431.92328 c 0,4.36865 -4.17714,7.91014 -9.32991,7.91014 -5.15277,0 -9.32991,-3.54149 -9.32991,-7.91014 0,-4.36865 4.17714,-7.91014 9.32991,-7.91014 5.15277,0 9.32991,3.54149 9.32991,7.91014 z"
         sodipodi:ry="7.9101396"
         sodipodi:rx="9.3299084"
         sodipodi:cy="431.92328"
         sodipodi:cx="385.6362"
         id="path3007-1-8"
         style="fill:#28170b;fill-opacity:1;stroke:none"
         sodipodi:type="arc" />
      <path
         sodipodi:nodetypes="ccsccccccsaaaccccccccc"
         inkscape:connector-curvature="0"
         inkscape:original-d="m 286.0282,597.39802 -10.74249,-2.23677 c 0,0 8.68962,-19.86198 26.06884,-23.5861 17.37923,-3.72413 52.13771,0 52.13771,0 l 14.89646,8.68961 9.931,7.44825 12.41374,-3.72412 6.20687,-14.89649 -9.931,3.72412 c 0,0 -13.65511,-4.9655 -18.62061,-7.44825 -4.96549,-2.48274 -16.01727,-8.57897 -24.82746,-9.93096 -9.71079,-1.49022 -19.95637,-0.51225 -29.38838,2.23676 -10.97308,3.19818 -21.75895,8.50619 -30.23432,16.17464 -7.66224,6.93274 -17.27558,25.73925 -17.27558,25.73925 l 6.16233,-0.11048 6.46728,0.89525 13.37236,3.47814 13.22521,3.85975 14.40454,-1.41377 -9.00916,-1.2046 -12.41374,-3.72413 z"
         inkscape:path-effect="#path-effect3005-1-8-1-4-4-8-2-6-0-3-4-7-5-4-5-3-5"
         id="path3003-8-4"
         d="m 286.0282,597.39802 -10.74249,-2.23677 c 6.13678,-10.18118 15.32629,-18.49551 26.06884,-23.5861 16.22968,-7.69079 35.90803,-7.69079 52.13771,0 l 14.89646,8.68961 9.931,7.44825 12.41374,-3.72412 6.20687,-14.89649 -9.931,3.72412 c -6.33504,-2.14478 -12.55401,-4.63237 -18.62061,-7.44825 -8.10665,-3.7628 -16.06817,-8.15575 -24.82746,-9.93096 -9.72541,-1.97101 -19.87035,-0.56961 -29.38838,2.23676 -11.05402,3.25926 -21.65339,8.48167 -30.23432,16.17464 -7.77377,6.96934 -13.77091,15.90459 -17.27558,25.73925 l 6.16233,-0.11048 6.46728,0.89525 c 4.47426,1.09345 8.93236,2.253 13.37236,3.47814 4.42703,1.22156 8.83607,2.50833 13.22521,3.85975 l 14.40454,-1.41377 -9.00916,-1.2046 c -4.14297,-1.22444 -8.28093,-2.46583 -12.41374,-3.72413 -4.28679,-1.30519 -8.56804,-2.62857 -12.8436,-3.9701"
         style="fill:#150b02;fill-opacity:0.97058835;stroke:none" />
      <path
         sodipodi:nodetypes="ccsccccsccccccccccssssscc"
         inkscape:connector-curvature="0"
         inkscape:original-d="m 239.73184,527.73167 -0.31952,6.39077 c 0,0 0.95859,4.47356 2.23676,6.07125 1.27815,1.59769 5.43216,5.7517 5.43216,5.7517 l 5.7517,1.27815 13.10109,-5.11263 c 3.14151,-14.0932 11.51649,-15.24813 23.64587,-21.40909 0,0 17.2551,-9.58615 18.85279,-9.9057 1.5977,-0.31955 26.52171,-2.23677 28.11941,-2.55632 1.59769,-0.31952 19.81139,3.51494 19.81139,3.51494 0,0 23.32635,5.43215 24.92404,6.07122 1.59769,0.6391 19.81139,8.30802 19.81139,8.30802 l 12.46202,7.66894 5.11263,5.1126 3.51491,3.19539 6.07125,2.23679 0.31952,-9.58616 c -7.33046,-14.68188 -19.00337,-20.9642 -31.95386,-29.39757 -2.55632,-1.5977 -14.37924,-7.3494 -17.57463,-8.62757 -3.19541,-1.27814 -26.84126,-7.66891 -33.23205,-8.62753 -6.39077,-0.95862 -34.82973,-1.5977 -39.94233,0.63907 -5.11263,2.23676 -15.65741,6.39077 -21.08956,8.62756 -5.43217,2.23677 -17.2551,7.34939 -21.40911,9.26661 -4.154,1.91724 -15.33785,9.58616 -15.33785,9.58616 z"
         inkscape:path-effect="#path-effect3779-7-2-5-0-0-5-4-5-9-9-2-7-0-5-2-2-5"
         id="path3777-4-9"
         d="m 239.73184,527.73167 -0.31952,6.39077 c 0.37026,2.13676 1.13224,4.20501 2.23676,6.07125 1.3543,2.28828 3.22494,4.26896 5.43216,5.7517 l 5.7517,1.27815 13.10109,-5.11263 c 6.92483,-8.10677 14.89308,-15.32126 23.64587,-21.40909 5.84804,-4.06748 12.09405,-7.6555 18.85279,-9.9057 8.99767,-2.99561 18.6868,-3.53481 28.11941,-2.55632 6.67447,0.69238 13.24657,2.12531 19.81139,3.51494 8.36929,1.7716 16.77065,3.48167 24.92404,6.07122 6.83413,2.17055 13.47326,4.9547 19.81139,8.30802 l 12.46202,7.66894 c 1.65481,1.75267 3.35995,3.4578 5.11263,5.1126 1.15141,1.0871 2.32332,2.15249 3.51491,3.19539 l 6.07125,2.23679 0.31952,-9.58616 c -8.54215,-11.80418 -19.47999,-21.86699 -31.95386,-29.39757 -5.59364,-3.37693 -11.48933,-6.24818 -17.57463,-8.62757 -10.67943,-4.17572 -21.90771,-6.82581 -33.23205,-8.62753 -13.25739,-2.10927 -27.0322,-3.04006 -39.94233,0.63907 -7.31141,2.0836 -14.12321,5.5832 -21.08956,8.62756 -7.12702,3.11458 -14.46139,5.77028 -21.40911,9.26661 -5.39322,2.71405 -10.53493,5.92762 -15.33785,9.58616 l -8.30802,11.5034"
         style="fill:#150b02;fill-opacity:0.97058835;stroke:none" />
      <path
         inkscape:connector-curvature="0"
         inkscape:original-d="m 153.85366,514.02241 5.87549,6.50126 c 0,0 6.85471,6.15911 5.54905,9.923 -1.30565,3.7639 -3.91698,8.5543 -6.85473,9.58082 -2.93773,1.02651 -9.79244,2.39519 -11.42452,2.39519 -1.63207,0 -15.01512,-6.15909 -16.64717,-8.21211 -1.63208,-2.05303 -7.18114,-6.15909 -11.42454,-8.89647 -4.24341,-2.73738 -9.46604,-5.81695 -13.0566,-7.18563 -3.59058,-1.36868 -15.66792,-3.42173 -17.299997,-3.42173 -1.632078,0 -0.65285,-11.63385 -0.65285,-11.63385 l 3.590579,-9.58081 8.160363,-1.36868 c 0,0 12.403765,0.68435 13.709445,1.36868 1.30565,0.68437 13.05662,5.47476 14.68869,5.81694 1.63208,0.34217 10.7717,4.44825 12.40377,5.13258 1.63208,0.68435 13.38302,9.58081 13.38302,9.58081 z"
         inkscape:path-effect="#path-effect3783-4-4-2-9-0-7-5-0-7-8-7-9-2-5-7-2-1"
         id="path3781-9-9"
         d="m 153.85366,514.02241 5.87549,6.50126 c 1.81558,0.87984 3.35086,2.32764 4.33558,4.08854 0.98471,1.76091 1.41442,3.82695 1.21347,5.83446 -0.20308,2.02881 -1.03878,3.97123 -2.26329,5.60154 -1.2245,1.63031 -2.82765,2.95636 -4.59144,3.97928 -3.42346,1.98546 -7.49154,2.83546 -11.42452,2.39519 -3.11365,-0.34855 -6.10138,-1.47808 -8.85553,-2.97171 -2.75415,-1.49363 -5.29398,-3.34885 -7.79164,-5.2404 -3.84777,-2.91404 -7.61809,-5.92867 -11.42454,-8.89647 -3.95541,-3.08394 -8.13784,-6.20494 -13.0566,-7.18563 -2.93921,-0.58601 -5.971839,-0.36778 -8.963223,-0.5521 -1.495692,-0.0922 -2.993169,-0.28733 -4.425553,-0.72763 -1.432383,-0.4403 -2.802368,-1.13402 -3.911221,-2.142 -1.592476,-1.44761 -2.586576,-3.5346 -2.707155,-5.68333 -0.120579,-2.14872 0.633787,-4.33383 2.054305,-5.95052 l 3.590579,-9.58081 8.160363,-1.36868 c 4.603125,-0.3345 9.263295,0.13075 13.709445,1.36868 5.07731,1.41366 9.81721,3.80541 14.68869,5.81694 4.13709,1.70829 8.39062,3.15057 12.40377,5.13258 4.94083,2.44018 9.48058,5.69015 13.38302,9.58081"
         style="fill:#150b02;fill-opacity:0.97058835;stroke:none" />
      <path
         style="fill:#ffffff;fill-opacity:1;stroke:none"
         d="m 89.743259,556.87368 c 33.455411,14.63617 4.857877,37.4759 32.431991,45.04211 27.57411,7.56621 9.19163,5.78381 39.82675,-5.4829 11.79834,-3.07029 6.80665,-0.94701 2.2493,-12.41175 -4.55746,-11.46473 -8.86263,-27.13663 -28.12353,-29.06919 -19.261,-1.93266 -24.66725,3.01749 -46.384511,1.92173 z"
         id="path6028-3-6-2"
         inkscape:connector-curvature="0"
         sodipodi:nodetypes="czcssc" />
      <path
         transform="matrix(3.484659,0,0,2.9656756,-900.39221,-700.3247)"
         d="m 303.8305,430.97678 c 0,3.47251 -2.60315,6.28754 -5.8143,6.28754 -3.21114,0 -5.81429,-2.81503 -5.81429,-6.28754 0,-3.47252 2.60315,-6.28755 5.81429,-6.28755 3.21115,0 5.8143,2.81503 5.8143,6.28755 z"
         sodipodi:ry="6.2875466"
         sodipodi:rx="5.8142905"
         sodipodi:cy="430.97678"
         sodipodi:cx="298.0162"
         id="path3789-3-5"
         style="fill:#28170b;fill-opacity:1;stroke:none"
         sodipodi:type="arc" />
      <path
         sodipodi:nodetypes="cscccscscscscccccccssccsscccsssssssssccc"
         inkscape:connector-curvature="0"
         inkscape:original-d="m 89.321541,549.54963 c 0,0 0,2.40833 0,3.47873 0,1.07037 2.74161,6.15469 2.74161,6.15469 l 2.953822,3.45959 4.486222,1.9114 c 0,0 14.695785,-5.77762 19.902135,-5.62992 1.21798,0.0345 17.32654,0.58907 17.32654,0.58907 0,0 16.83743,6.26588 18.66518,8.40665 1.82772,2.14075 6.45243,9.41272 6.45243,9.41272 0,0 1.80007,5.13121 2.4093,6.73679 0.60925,1.60556 3.96011,10.70378 3.96011,10.70378 0,0 -5.17859,-1.87315 -6.39706,-1.87315 -1.21852,0 -7.61558,2.40833 -7.61558,2.40833 l -10.64895,5.68844 c 0,0 5.11023,-5.64385 -22.23983,0.31133 -14.76037,2.99045 -3.82024,-0.6775 -3.82024,-0.6775 -6.83193,-3.19877 -3.60513,-3.62475 -11.99216,-8.92276 3.12047,0.88926 5.46886,9.39584 7.55758,7.94146 1.82772,1.33798 5.72178,3.45672 5.72178,3.45672 0,0 21.57447,2.91192 22.79297,2.91192 1.21847,0 3.49013,-1.07618 5.62249,-1.61137 2.13236,-0.53519 3.6555,-1.87317 3.6555,-1.87317 l 1.82772,-1.60556 c 0,0 2.437,-0.53519 3.04623,-1.60556 0.60924,-1.0704 1.52311,-1.8732 4.87397,-2.67594 3.35086,-0.8028 9.21251,0.11107 9.21251,0.11107 l -1.67083,-8.06608 c 0,0 -0.83999,-4.35447 -1.14458,-5.96006 -0.30463,-1.60558 -0.65797,-2.85519 -1.2672,-5.79876 -0.60924,-2.94354 0.0487,-3.03187 -1.77904,-5.97541 -1.82775,-2.94354 -3.96009,-9.36582 -5.4832,-10.43619 -1.52314,-1.07038 -6.09188,-3.89928 -10.30182,-6.29369 -5.16015,-2.93485 -4.46781,-1.64205 -7.2094,-2.44485 -2.74163,-0.80277 -5.03089,-0.35967 -8.68636,-0.89486 -3.65549,-0.53519 -3.08316,-1.09819 -8.87097,0.23979 -5.78785,1.33796 -6.68328,1.57775 -11.25262,2.11296 -4.56933,0.53519 -9.6372,3.13815 -12.378811,3.13815 -2.74161,0 -5.270865,-1.20938 -5.270865,-1.20938 l -2.741586,-2.40837 z"
         inkscape:path-effect="#path-effect3787-0-5-7-4-5-6-5-9-3-8-79-3-8-1-6-1-7"
         id="path3785-7-5"
         d="m 89.321541,549.54963 0,3.47873 c 0,1.18552 0.04675,2.39699 0.478569,3.50106 0.431821,1.10408 1.233118,2.06651 2.263041,2.65363 l 2.953822,3.45959 4.486222,1.9114 c 6.254745,-2.97712 13.014705,-4.88938 19.902135,-5.62992 5.76484,-0.61984 11.61711,-0.42087 17.32654,0.58907 6.95009,0.48971 13.69253,3.52645 18.66518,8.40665 2.73202,2.68123 4.93685,5.89761 6.45243,9.41272 0.79367,2.24896 1.59678,4.49458 2.4093,6.73679 1.29612,3.57672 2.61619,7.14475 3.96011,10.70378 -1.91361,-1.18106 -4.14864,-1.83551 -6.39706,-1.87315 -2.70893,-0.0453 -5.42529,0.81366 -7.61558,2.40833 l -10.64895,5.68844 c -7.33198,1.29989 -14.87434,1.40548 -22.23983,0.31133 -1.27941,-0.19006 -2.55349,-0.41601 -3.82024,-0.6775 l -11.99216,-8.92276 7.55758,7.94146 5.72178,3.45672 c 6.90506,3.69483 15.18079,4.7521 22.79297,2.91192 1.89524,-0.45816 3.74448,-1.08704 5.62249,-1.61137 0.66781,-0.18645 1.34149,-0.36951 1.96396,-0.67492 0.62246,-0.3054 1.17063,-0.74066 1.69154,-1.19825 l 1.82772,-1.60556 c 1.03867,-0.48941 2.05543,-1.02531 3.04623,-1.60556 1.60134,-0.93781 3.14675,-1.99735 4.87397,-2.67594 2.93076,-1.15144 6.31036,-1.11069 9.21251,0.11107 l -1.67083,-8.06608 c -0.41035,-1.98101 -0.77073,-3.97184 -1.14458,-5.96006 -0.36568,-1.9448 -0.77633,-3.88172 -1.2672,-5.79876 -0.51562,-2.0137 -1.11943,-4.00418 -1.77904,-5.97541 -1.25695,-3.75636 -2.77767,-7.54306 -5.4832,-10.43619 -2.77044,-2.96254 -6.55325,-4.74444 -10.30182,-6.29369 -2.348,-0.97041 -4.73223,-1.88056 -7.2094,-2.44485 -2.84303,-0.64763 -5.7712,-0.83115 -8.68636,-0.89486 -2.95875,-0.0647 -5.92191,-0.008 -8.87097,0.23979 -3.81086,0.32022 -7.60546,0.96257 -11.25262,2.11296 -4.08235,1.28766 -8.09918,3.22967 -12.378811,3.13815 -1.814779,-0.0388 -3.620692,-0.45317 -5.270865,-1.20938 l -2.741586,-2.40837 -2.436997,-3.21101"
         style="fill:#150b02;fill-opacity:0.97058835;stroke:none" />
      <path
         sodipodi:nodetypes="csccssscssccsccssssccsccsscc"
         inkscape:connector-curvature="0"
         inkscape:original-d="m 157.06858,774.19348 c 0,0 10.35877,-4.44688 11.75001,-4.78827 1.39124,-0.3414 12.50291,-0.0202 13.61225,0.31712 1.10935,0.33737 9.4578,3.92732 9.4578,3.92732 0,0 5.03818,-3.29363 7.33192,-3.55173 2.29373,-0.25806 10.71672,-0.42006 13.19852,-0.19091 2.48188,0.22879 15.69964,2.62425 17.88079,3.76534 2.18117,1.14109 10.88706,5.93869 10.88706,5.93869 0,0 6.67532,4.61011 7.99154,5.20149 1.3162,0.59138 11.71398,4.13562 12.82332,4.473 1.10935,0.33735 11.82657,2.73645 12.71029,3.05297 0.88373,0.31653 24.03953,-2.37912 24.03953,-2.37912 0,0 3.59479,4.43973 3.74278,7.15846 0.0858,1.57666 -1.71018,4.30571 -1.71018,4.30571 -9.06973,9.17531 -21.94844,10.95895 -33.45684,14.90047 -1.22191,1.06184 -6.9552,7.34535 -8.92901,9.27747 -1.97379,1.93208 -8.89202,5.99183 -11.5239,7.62826 -2.63189,1.63642 -9.18442,1.77053 -10.81002,4.40523 -2.91447,4.72367 -17.27845,0.0491 -20.174,-0.68808 -2.89552,-0.73721 -15.83145,-3.81103 -15.83145,-3.81103 l -13.08646,-4.02741 c 0,0 -8.21666,-2.40315 -9.32649,-5.55968 -1.10986,-3.15654 -5.51116,-13.42989 -5.51116,-13.42989 l 2.1984,-7.54959 c 0,0 0.80768,-4.38905 -1.63662,-5.08461 -2.44429,-0.69555 -6.71233,-1.32452 -8.02904,-4.73508 -1.3167,-3.41057 -6.45218,-18.68517 -6.45218,-18.68517 z"
         inkscape:path-effect="#path-effect3793-9-5-6-8-9-1-1-0-7-0-3-19-6-7-1-6-1"
         id="path3791-8-3"
         d="m 157.06858,774.19348 c 3.54932,-2.35069 7.56863,-3.98861 11.75001,-4.78827 4.49144,-0.85896 9.16522,-0.74814 13.61225,0.31712 3.33362,0.79855 6.53908,2.12961 9.4578,3.92732 2.16576,-1.67006 4.67892,-2.88748 7.33192,-3.55173 4.29238,-1.07471 8.80237,-0.69431 13.19852,-0.19091 6.067,0.69473 12.16184,1.62415 17.88079,3.76534 3.88425,1.45428 7.56152,3.46016 10.88706,5.93869 2.43463,2.05597 5.12594,3.80767 7.99154,5.20149 4.07653,1.98281 8.46457,3.22763 12.82332,4.473 4.19278,1.19795 8.39757,2.40884 12.71029,3.05297 8.04548,1.20164 16.38566,0.37624 24.03953,-2.37912 1.21918,0.72334 2.23131,1.79137 2.88814,3.04762 0.65683,1.25626 0.95634,2.69688 0.85464,4.11084 -0.11254,1.56467 -0.71847,3.09023 -1.71018,4.30571 l -33.45684,14.90047 c -2.60951,3.41952 -5.61184,6.53903 -8.92901,9.27747 -3.55808,2.93732 -7.46756,5.42965 -11.5239,7.62826 -3.43145,1.85991 -7.00726,3.52595 -10.81002,4.40523 -6.60564,1.52736 -13.51878,0.60626 -20.174,-0.68808 -5.3298,-1.03656 -10.61381,-2.30856 -15.83145,-3.81103 l -13.08646,-4.02741 c -1.75619,-0.54047 -3.50922,-1.13758 -5.09914,-2.0587 -1.58992,-0.92112 -3.00341,-2.13048 -4.22735,-3.50098 -3.28598,-3.67945 -5.26534,-8.50286 -5.51116,-13.42989 l 2.1984,-7.54959 c 0.13867,-1.82057 -0.46202,-3.68675 -1.63662,-5.08461 -1.00726,-1.19871 -2.38278,-2.02914 -3.79141,-2.71271 -1.40863,-0.68356 -2.87902,-1.24413 -4.23763,-2.02237 -3.12017,-1.78729 -5.55893,-4.73287 -6.7326,-8.13175 -1.17367,-3.39888 -1.07209,-7.22166 0.28042,-10.55342 l -1.14686,0.12904"
         style="fill:#c83737;fill-opacity:1;stroke:none" />
    </g>
    <path
       style="fill:#af5b33;fill-opacity:1;stroke:none"
       d="m 104.6476,122.3653 c 2.05462,-2.65312 -5.000911,1.00019 0,0 z"
       id="path5973-8-3"
       inkscape:connector-curvature="0"
       sodipodi:nodetypes="cc" />
    <path
       style="fill:#af5b33;fill-opacity:0.98823529;stroke:none"
       d="m 108.13005,122.37827 c 0.12912,-0.33216 0.50237,-0.21825 0.75613,-0.39325 0.25379,-0.1751 0.38819,-0.63897 0.35862,-0.85177 -0.0592,-0.42559 -1.0929,-1.36079 -2.50155,-2.31034 0.281,-0.10315 2.14212,0.79492 2.69323,1.69493 0.72707,1.18737 -0.43718,2.56367 -1.11015,2.01922 z"
       id="path5975-4-2-3"
       inkscape:connector-curvature="0"
       sodipodi:nodetypes="csscssc" />
    <path
       sodipodi:nodetypes="cccccsssss"
       inkscape:connector-curvature="0"
       id="path7306-8"
       d="m 20.442457,57.432776 0,129.998804 140.000003,0 0,-129.998804 z m 69.801052,2.066468 c 31.494981,0 57.030051,25.396219 57.030051,56.728036 0,31.33173 -25.53507,56.74956 -57.030051,56.74956 -31.49501,0 -57.030103,-25.41783 -57.030103,-56.74956 0,-31.331817 25.535093,-56.728036 57.030103,-56.728036 z"
       style="fill:#7b5294;fill-opacity:1;stroke:none;display:inline" />
    <g
       style="display:inline"
       id="g10676"
       transform="matrix(0.4097729,0,0,0.4097729,95.701589,-192.79186)">
      <g
         id="g10670"
         transform="translate(-527.47537,516.71056)">
        <path
           style="fill:#ff4d69;fill-opacity:0.98823529;stroke:none;display:inline"
           d="m 293.65325,325.77936 14.03487,44.83444 -14.03487,44.87902 42.28455,0 0,-89.71346 -42.28455,0 z m 391.59688,0 0,89.71346 44.11388,0 -14.03487,-44.87902 14.03487,-44.83444 -44.11388,0 z"
           id="path4441-0"
           inkscape:connector-curvature="0" />
        <rect
           y="-335.8624"
           x="325.77936"
           height="28.475147"
           width="89.037216"
           id="rect3825-7-9-1-1"
           style="opacity:0.98999999;fill:url(#linearGradient8514);fill-opacity:1;stroke:none;display:inline"
           transform="matrix(0,1,-1,0,0,0)" />
        <rect
           y="684.81372"
           x="-415.02032"
           height="28.475147"
           width="89.037216"
           id="rect3825-7-9-1-1-78"
           style="opacity:0.98999999;fill:url(#linearGradient8516);fill-opacity:1;stroke:none;display:inline"
           transform="matrix(0,-1,1,0,0,0)" />
        <rect
           style="fill:#fd4d6a;fill-opacity:1;stroke:none"
           id="rect5666"
           width="356.75897"
           height="83.337891"
           x="332.1311"
           y="338.80972"
           ry="0" />
      </g>
    </g>
    <g
       style="font-size:41.81860352px;font-style:normal;font-weight:normal;line-height:125%;letter-spacing:0px;word-spacing:0px;fill:#eeeeee;fill-opacity:1;stroke:none;font-family:Sans"
       id="text9042"
       transform="matrix(0.97638894,0,0,0.97638894,-23.881001,3.7854289)">
      <path
         d="m 61.138658,174.42264 c 0.0055,0.56481 0.02,1.4657 0.04337,2.70269 0.02336,1.23699 0.02233,2.47398 -0.0031,3.71096 -0.02543,1.23699 -0.108549,2.13789 -0.249359,2.70269 -0.110211,0.38159 -0.266157,0.68477 -0.46784,0.90954 -0.201687,0.22477 -0.415133,0.33977 -0.640339,0.345 -0.177728,-0.43648 -0.407727,-0.82329 -0.689998,-1.16045 -0.282272,-0.33716 -0.679543,-0.51489 -1.191815,-0.53318 -0.372441,0.0113 -0.673008,0.14549 -0.901702,0.4025 -0.228691,0.257 -0.346304,0.5689 -0.35284,0.93568 0.03006,0.5567 0.220854,0.94874 0.572385,1.17613 0.351534,0.22738 0.683464,0.33716 0.995792,0.32932 1.214902,-0.0322 2.250769,-0.35981 3.107605,-0.98273 0.856831,-0.62291 1.521564,-1.34776 1.994199,-2.17453 0.336718,-0.57544 0.562361,-1.11298 0.67693,-1.61261 0.114559,-0.49964 0.167703,-1.0215 0.159432,-1.56557 0.0035,-0.26049 0.01742,-0.85291 0.04182,-1.77727 0.02439,-0.92434 0.03833,-2.0604 0.04182,-3.40817 l 0,-0.96181 c 0.0013,-1.31683 0.0091,-2.51474 0.02352,-3.59374 0.01437,-1.07898 0.02744,-1.72803 0.0392,-1.94716 0.0061,-0.19731 0.06708,-0.34106 0.182954,-0.43125 0.115865,-0.0901 0.312758,-0.13458 0.59068,-0.13329 l 0.731816,0 c 0.06185,8.8e-4 0.105409,-0.0113 0.130681,-0.0366 0.02526,-0.0252 0.03746,-0.0688 0.03659,-0.13068 l 0,-0.52273 c 8.65e-4,-0.0618 -0.01133,-0.1054 -0.03659,-0.13068 -0.02527,-0.0252 -0.06883,-0.0374 -0.130682,-0.0366 -0.138085,0.003 -0.436905,0.013 -0.896461,0.0313 -0.459568,0.0183 -1.192256,0.0288 -2.198065,0.0314 -1.12953,-0.003 -1.938885,-0.013 -2.428068,-0.0314 -0.489187,-0.0183 -0.781042,-0.0287 -0.875568,-0.0314 -0.06099,-4e-4 -0.101063,0.0109 -0.120229,0.034 -0.01917,0.0231 -0.02788,0.0606 -0.02614,0.11239 l 0,0.60636 c 8.71e-4,0.041 0.01481,0.0688 0.04182,0.0836 0.02701,0.0148 0.06186,0.0218 0.104545,0.0209 l 0.710907,0 c 0.341513,8.8e-4 0.568027,0.0619 0.679544,0.18295 0.111513,0.12112 0.191664,0.2971 0.240454,0.52796 0.02052,0.3241 0.03523,0.84915 0.04414,1.57514 0.0089,0.72602 0.01432,1.42299 0.01626,2.09091 0.0019,0.66793 0.0027,1.07682 0.0023,1.22666 z"
         style="font-size:20.90930176px;font-variant:normal;font-weight:bold;font-stretch:normal;text-align:start;writing-mode:lr-tb;text-anchor:start;fill:#eeeeee;font-family:Adobe Caslon Pro Bold;-inkscape-font-specification:'Adobe Caslon Pro Bold, Bold'"
         id="path3176"
         inkscape:connector-curvature="0" />
      <path
         d="m 71.64391,175.80264 c -0.2483,0.17381 -0.561935,0.35415 -0.940907,0.54102 -0.37898,0.18688 -0.964432,0.46654 -1.756358,0.83897 -0.669527,0.34152 -1.139109,0.73531 -1.408747,1.18136 -0.26964,0.44607 -0.39945,0.90258 -0.38943,1.36955 0.01176,0.57412 0.150283,1.03587 0.415567,1.38522 0.265282,0.34935 0.586758,0.52882 0.964429,0.53841 0.301871,0.001 0.576302,-0.0118 0.823293,-0.0392 0.246984,-0.0274 0.47437,-0.0771 0.682157,-0.14897 0.408158,-0.15247 0.747058,-0.31277 1.016702,-0.48091 0.269634,-0.16814 0.530126,-0.37026 0.781475,-0.60636 l 0.104545,0 c 0.2056,0.48308 0.484387,0.8185 0.836361,1.00624 0.351962,0.18775 0.735294,0.27748 1.149997,0.26921 0.64338,-0.0318 1.133871,-0.21388 1.471473,-0.54625 0.337585,-0.33237 0.551031,-0.62422 0.64034,-0.87557 0.03919,-0.0919 0.04965,-0.15899 0.03136,-0.20125 -0.01831,-0.0422 -0.04967,-0.0727 -0.09409,-0.0915 l -0.292726,-0.16728 c -0.03094,-0.0218 -0.06317,-0.0253 -0.09671,-0.0104 -0.03355,0.0148 -0.07101,0.0531 -0.112385,0.115 -0.04357,0.0797 -0.118494,0.16074 -0.224772,0.24307 -0.106297,0.0823 -0.233493,0.12676 -0.38159,0.13329 -0.192547,0.009 -0.319743,-0.0924 -0.381591,-0.30318 -0.06186,-0.21083 -0.09497,-0.58371 -0.09932,-1.11863 l -0.04182,-4.1609 c 0.0043,-0.37723 -0.03573,-0.71526 -0.120227,-1.01409 -0.08452,-0.29882 -0.23959,-0.55321 -0.465226,-0.76318 -0.197336,-0.19906 -0.440404,-0.34978 -0.729203,-0.45216 -0.288812,-0.10235 -0.756651,-0.15375 -1.403518,-0.1542 -0.853355,0.0148 -1.624375,0.17338 -2.313062,0.47568 -0.688694,0.30232 -1.255851,0.65952 -1.701473,1.07159 -0.216496,0.1969 -0.368958,0.43038 -0.457385,0.70045 -0.08843,0.27008 -0.131117,0.52448 -0.128067,0.76318 0.0074,0.23262 0.09714,0.41557 0.269203,0.54886 0.172063,0.1333 0.382024,0.20126 0.629885,0.20387 0.422534,-0.005 0.753594,-0.115 0.993179,-0.32932 0.23958,-0.21431 0.361549,-0.50181 0.365908,-0.8625 -0.01699,-0.33105 -0.04574,-0.59416 -0.08625,-0.78931 -0.04051,-0.19515 0.0091,-0.34325 0.148977,-0.44432 0.187307,-0.12371 0.372003,-0.21083 0.554089,-0.26136 0.182079,-0.0505 0.366776,-0.0749 0.55409,-0.0732 0.169881,-10e-4 0.331926,0.017 0.486135,0.0549 0.154199,0.0379 0.284881,0.10325 0.392044,0.19602 0.131983,0.13156 0.218233,0.30232 0.258749,0.51227 0.04051,0.20997 0.0588,0.42255 0.05489,0.63773 z m 0.02091,3.80544 c -0.0057,0.11108 -0.09889,0.25483 -0.279659,0.43125 -0.180781,0.17642 -0.415136,0.28358 -0.703066,0.32148 -0.238716,-0.007 -0.446063,-0.11892 -0.622044,-0.33716 -0.175988,-0.21824 -0.268336,-0.56585 -0.277044,-1.04284 0.01437,-0.69217 0.199939,-1.18963 0.556703,-1.49238 0.356756,-0.30274 0.798459,-0.58589 1.32511,-0.84943 z"
         style="font-size:20.90930176px;font-variant:normal;font-weight:bold;font-stretch:normal;text-align:start;writing-mode:lr-tb;text-anchor:start;fill:#eeeeee;font-family:Adobe Caslon Pro Bold;-inkscape-font-specification:'Adobe Caslon Pro Bold, Bold'"
         id="path3178"
         inkscape:connector-curvature="0" />
      <path
         d="m 80.009279,172.54083 c -0.02266,-0.0745 -0.06099,-0.13459 -0.115,-0.18034 -0.05402,-0.0457 -0.113261,-0.0693 -0.177727,-0.0706 -0.08277,0.002 -0.16292,0.0187 -0.240454,0.0497 -0.07754,0.0309 -0.157693,0.0632 -0.240454,0.0967 l -2.676356,1.21273 c -0.05358,0.0205 -0.09801,0.0475 -0.133295,0.081 -0.03529,0.0335 -0.05358,0.0762 -0.05489,0.12807 l 0,0.18818 c -0.0017,0.0423 0.007,0.0832 0.02614,0.12284 0.01917,0.0396 0.05924,0.0754 0.120227,0.10716 l 0.188181,0.0836 c 0.245245,0.11195 0.444751,0.26441 0.598521,0.45738 0.153767,0.19298 0.233047,0.44476 0.237841,0.75534 l 0,4.6418 c -0.01002,0.17294 -0.07885,0.28707 -0.206477,0.34239 -0.127633,0.0553 -0.253959,0.0806 -0.378976,0.0758 l -0.313636,0 c -0.08189,1e-5 -0.137651,0.0157 -0.167272,0.047 -0.02962,0.0314 -0.04356,0.0784 -0.04182,0.14114 l 0,0.41818 c -0.0035,0.12545 0.0453,0.18818 0.146363,0.18818 0.05707,-0.003 0.267028,-0.0131 0.629888,-0.0314 0.362858,-0.0183 0.912593,-0.0288 1.649205,-0.0314 0.681719,0.003 1.184408,0.0131 1.508068,0.0314 0.32365,0.0183 0.517931,0.0288 0.582841,0.0314 0.101043,0 0.149826,-0.0627 0.146349,-0.18818 l 0,-0.39727 c 0.0017,-0.0728 -0.0122,-0.12589 -0.04182,-0.15944 -0.02963,-0.0335 -0.08538,-0.0501 -0.167272,-0.0497 l -0.271818,0 c -0.09627,-0.005 -0.175553,-0.0732 -0.23784,-0.20386 -0.0623,-0.13068 -0.09453,-0.29272 -0.0967,-0.48613 l 0.04182,-4.28635 c 0.0017,-0.43038 0.04007,-0.78234 0.114999,-1.05591 0.07492,-0.27355 0.17598,-0.45825 0.303182,-0.55409 0.203858,-0.15463 0.386811,-0.26353 0.548862,-0.3267 0.162039,-0.0632 0.334539,-0.0936 0.517498,-0.0915 0.174671,-0.005 0.342815,0.0157 0.504431,0.0627 0.161602,0.047 0.334973,0.15159 0.520112,0.31363 0.213003,0.19647 0.351526,0.43605 0.415567,0.71875 0.06403,0.28271 0.09278,0.62161 0.08625,1.0167 l 0,2.23727 c -8e-6,0.47742 -0.01046,0.89212 -0.03136,1.24408 -0.02092,0.35198 -0.05228,0.66213 -0.09409,0.93046 -0.02484,0.18469 -0.0745,0.31189 -0.148978,0.38159 -0.07449,0.0697 -0.15029,0.1028 -0.227385,0.0993 l -0.229999,0 c -0.10281,-0.001 -0.17425,0.0118 -0.214319,0.0392 -0.04008,0.0274 -0.05925,0.0771 -0.0575,0.14898 l 0,0.37636 c -8.78e-4,0.0828 0.01132,0.14201 0.03659,0.17773 0.02526,0.0357 0.06882,0.0531 0.130681,0.0523 0.06926,-0.003 0.280974,-0.0131 0.63513,-0.0314 0.354142,-0.0183 0.874256,-0.0288 1.560343,-0.0314 0.825464,0.003 1.427471,0.0131 1.806023,0.0314 0.37853,0.0183 0.598947,0.0288 0.66125,0.0314 0.06183,-4.4e-4 0.10538,-0.0205 0.130654,-0.0601 0.02525,-0.0396 0.03745,-0.0963 0.03659,-0.16988 l 0,-0.37636 c 0.0022,-0.0627 -0.01264,-0.10978 -0.04443,-0.14114 -0.03181,-0.0314 -0.09367,-0.047 -0.185567,-0.047 l -0.564544,0 c -0.104556,0.009 -0.214328,-0.0348 -0.329318,-0.13068 -0.11501,-0.0958 -0.172509,-0.29621 -0.172499,-0.60113 0.02177,-0.3768 0.04094,-0.78365 0.0575,-1.22057 0.01654,-0.43691 0.02526,-0.83853 0.02614,-1.20488 l 0,-2.21636 c 0.01567,-0.50573 -0.03137,-0.93175 -0.141136,-1.27806 -0.109782,-0.3463 -0.376372,-0.71482 -0.79977,-1.10557 -0.276619,-0.24393 -0.60158,-0.40423 -0.974884,-0.4809 -0.373321,-0.0767 -0.766236,-0.11151 -1.178747,-0.10455 -0.340214,8.8e-4 -0.637297,0.0357 -0.891247,0.10455 -0.253964,0.0688 -0.493546,0.16641 -0.718748,0.29272 -0.201255,0.10586 -0.389436,0.22348 -0.564544,0.35284 -0.175118,0.12939 -0.321481,0.26268 -0.43909,0.39989 l -0.167272,0 z"
         style="font-size:20.90930176px;font-variant:normal;font-weight:bold;font-stretch:normal;text-align:start;writing-mode:lr-tb;text-anchor:start;fill:#eeeeee;font-family:Adobe Caslon Pro Bold;-inkscape-font-specification:'Adobe Caslon Pro Bold, Bold'"
         id="path3180"
         inkscape:connector-curvature="0" />
      <path
         d="m 91.811599,172.54083 c -0.02266,-0.0745 -0.06099,-0.13459 -0.115,-0.18034 -0.05402,-0.0457 -0.113261,-0.0693 -0.177726,-0.0706 -0.08277,0.002 -0.162921,0.0187 -0.240455,0.0497 -0.07754,0.0309 -0.157692,0.0632 -0.240453,0.0967 l -2.676356,1.21273 c -0.05358,0.0205 -0.09801,0.0475 -0.133296,0.081 -0.03528,0.0335 -0.05358,0.0762 -0.05489,0.12807 l 0,0.18818 c -0.0017,0.0423 0.007,0.0832 0.02614,0.12284 0.01917,0.0396 0.05924,0.0754 0.120227,0.10716 l 0.188181,0.0836 c 0.245244,0.11195 0.444751,0.26441 0.59852,0.45738 0.153767,0.19298 0.233047,0.44476 0.237841,0.75534 l 0,4.6418 c -0.01002,0.17294 -0.07885,0.28707 -0.206476,0.34239 -0.127634,0.0553 -0.253959,0.0806 -0.378977,0.0758 l -0.313635,0 c -0.08189,1e-5 -0.137652,0.0157 -0.167273,0.047 -0.02962,0.0314 -0.04356,0.0784 -0.04182,0.14114 l 0,0.41818 c -0.0035,0.12545 0.0453,0.18818 0.146364,0.18818 0.05706,-0.003 0.267027,-0.0131 0.629888,-0.0314 0.362858,-0.0183 0.912592,-0.0288 1.649204,-0.0314 0.68172,0.003 1.184409,0.0131 1.508068,0.0314 0.323651,0.0183 0.517931,0.0288 0.582842,0.0314 0.101043,0 0.149826,-0.0627 0.146349,-0.18818 l 0,-0.39727 c 0.0017,-0.0728 -0.0122,-0.12589 -0.04182,-0.15944 -0.02963,-0.0335 -0.08538,-0.0501 -0.167273,-0.0497 l -0.271817,0 c -0.09627,-0.005 -0.175554,-0.0732 -0.237841,-0.20386 -0.0623,-0.13068 -0.09453,-0.29272 -0.0967,-0.48613 l 0.04182,-4.28635 c 0.0017,-0.43038 0.04007,-0.78234 0.115,-1.05591 0.07492,-0.27355 0.175979,-0.45825 0.303181,-0.55409 0.203858,-0.15463 0.386812,-0.26353 0.548862,-0.3267 0.16204,-0.0632 0.334539,-0.0936 0.517499,-0.0915 0.174671,-0.005 0.342814,0.0157 0.50443,0.0627 0.161603,0.047 0.334974,0.15159 0.520112,0.31363 0.213004,0.19647 0.351526,0.43605 0.415567,0.71875 0.06403,0.28271 0.09278,0.62161 0.08625,1.0167 l 0,2.23727 c -7e-6,0.47742 -0.01046,0.89212 -0.03136,1.24408 -0.02092,0.35198 -0.05228,0.66213 -0.09409,0.93046 -0.02484,0.18469 -0.0745,0.31189 -0.148977,0.38159 -0.0745,0.0697 -0.150291,0.1028 -0.227386,0.0993 l -0.229999,0 c -0.10281,-0.001 -0.174249,0.0118 -0.214318,0.0392 -0.04008,0.0274 -0.05925,0.0771 -0.0575,0.14898 l 0,0.37636 c -8.78e-4,0.0828 0.01132,0.14201 0.03659,0.17773 0.02526,0.0357 0.06882,0.0531 0.130681,0.0523 0.06926,-0.003 0.280973,-0.0131 0.63513,-0.0314 0.354142,-0.0183 0.874256,-0.0288 1.560343,-0.0314 0.825464,0.003 1.427471,0.0131 1.806022,0.0314 0.378531,0.0183 0.598947,0.0288 0.66125,0.0314 0.06183,-4.4e-4 0.105381,-0.0205 0.130654,-0.0601 0.02525,-0.0396 0.03745,-0.0963 0.03659,-0.16988 l 0,-0.37636 c 0.0022,-0.0627 -0.01264,-0.10978 -0.04443,-0.14114 -0.03181,-0.0314 -0.09367,-0.047 -0.185567,-0.047 l -0.564544,0 c -0.104556,0.009 -0.214328,-0.0348 -0.329317,-0.13068 -0.11501,-0.0958 -0.17251,-0.29621 -0.1725,-0.60113 0.02177,-0.3768 0.04094,-0.78365 0.0575,-1.22057 0.01654,-0.43691 0.02526,-0.83853 0.02614,-1.20488 l 0,-2.21636 c 0.01567,-0.50573 -0.03137,-0.93175 -0.141136,-1.27806 -0.109783,-0.3463 -0.376373,-0.71482 -0.799771,-1.10557 -0.276618,-0.24393 -0.601579,-0.40423 -0.974884,-0.4809 -0.373321,-0.0767 -0.766236,-0.11151 -1.178746,-0.10455 -0.340215,8.8e-4 -0.637297,0.0357 -0.891248,0.10455 -0.253963,0.0688 -0.493546,0.16641 -0.718748,0.29272 -0.201255,0.10586 -0.389436,0.22348 -0.564544,0.35284 -0.175118,0.12939 -0.321481,0.26268 -0.439089,0.39989 l -0.167273,0 z"
         style="font-size:20.90930176px;font-variant:normal;font-weight:bold;font-stretch:normal;text-align:start;writing-mode:lr-tb;text-anchor:start;fill:#eeeeee;font-family:Adobe Caslon Pro Bold;-inkscape-font-specification:'Adobe Caslon Pro Bold, Bold'"
         id="path3182"
         inkscape:connector-curvature="0" />
      <path
         d="m 104.76392,175.80264 c -0.2483,0.17381 -0.56194,0.35415 -0.94091,0.54102 -0.37898,0.18688 -0.96443,0.46654 -1.75636,0.83897 -0.66953,0.34152 -1.13911,0.73531 -1.40875,1.18136 -0.26964,0.44607 -0.39945,0.90258 -0.38943,1.36955 0.0118,0.57412 0.15029,1.03587 0.41557,1.38522 0.26528,0.34935 0.58676,0.52882 0.96443,0.53841 0.30187,0.001 0.5763,-0.0118 0.82329,-0.0392 0.24699,-0.0274 0.47437,-0.0771 0.68216,-0.14897 0.40816,-0.15247 0.74706,-0.31277 1.0167,-0.48091 0.26964,-0.16814 0.53013,-0.37026 0.78148,-0.60636 l 0.10454,0 c 0.2056,0.48308 0.48439,0.8185 0.83636,1.00624 0.35197,0.18775 0.7353,0.27748 1.15,0.26921 0.64338,-0.0318 1.13387,-0.21388 1.47147,-0.54625 0.33759,-0.33237 0.55103,-0.62422 0.64034,-0.87557 0.0392,-0.0919 0.0496,-0.15899 0.0314,-0.20125 -0.0183,-0.0422 -0.0497,-0.0727 -0.0941,-0.0915 l -0.29273,-0.16728 c -0.0309,-0.0218 -0.0632,-0.0253 -0.0967,-0.0104 -0.0336,0.0148 -0.071,0.0531 -0.11238,0.115 -0.0436,0.0797 -0.11849,0.16074 -0.22477,0.24307 -0.1063,0.0823 -0.2335,0.12676 -0.38159,0.13329 -0.19255,0.009 -0.31975,-0.0924 -0.38159,-0.30318 -0.0619,-0.21083 -0.095,-0.58371 -0.0993,-1.11863 l -0.0418,-4.1609 c 0.004,-0.37723 -0.0357,-0.71526 -0.12023,-1.01409 -0.0845,-0.29882 -0.23959,-0.55321 -0.46522,-0.76318 -0.19734,-0.19906 -0.44041,-0.34978 -0.7292,-0.45216 -0.28882,-0.10235 -0.75666,-0.15375 -1.40352,-0.1542 -0.85336,0.0148 -1.62438,0.17338 -2.31306,0.47568 -0.6887,0.30232 -1.25586,0.65952 -1.70148,1.07159 -0.21649,0.1969 -0.36896,0.43038 -0.45738,0.70045 -0.0884,0.27008 -0.13112,0.52448 -0.12807,0.76318 0.007,0.23262 0.0971,0.41557 0.2692,0.54886 0.17207,0.1333 0.38203,0.20126 0.62989,0.20387 0.42253,-0.005 0.75359,-0.115 0.99318,-0.32932 0.23958,-0.21431 0.36155,-0.50181 0.36591,-0.8625 -0.017,-0.33105 -0.0457,-0.59416 -0.0863,-0.78931 -0.0405,-0.19515 0.009,-0.34325 0.14897,-0.44432 0.18731,-0.12371 0.37201,-0.21083 0.55409,-0.26136 0.18208,-0.0505 0.36678,-0.0749 0.55409,-0.0732 0.16988,-10e-4 0.33193,0.017 0.48614,0.0549 0.1542,0.0379 0.28488,0.10325 0.39204,0.19602 0.13198,0.13156 0.21823,0.30232 0.25875,0.51227 0.0405,0.20997 0.0588,0.42255 0.0549,0.63773 z m 0.0209,3.80544 c -0.006,0.11108 -0.0989,0.25483 -0.27966,0.43125 -0.18078,0.17642 -0.41514,0.28358 -0.70307,0.32148 -0.23872,-0.007 -0.44606,-0.11892 -0.62204,-0.33716 -0.17599,-0.21824 -0.26834,-0.56585 -0.27705,-1.04284 0.0144,-0.69217 0.19994,-1.18963 0.55671,-1.49238 0.35675,-0.30274 0.79845,-0.58589 1.32511,-0.84943 z"
         style="font-size:20.90930176px;font-variant:normal;font-weight:bold;font-stretch:normal;text-align:start;writing-mode:lr-tb;text-anchor:start;fill:#eeeeee;font-family:Adobe Caslon Pro Bold;-inkscape-font-specification:'Adobe Caslon Pro Bold, Bold'"
         id="path3184"
         inkscape:connector-curvature="0" />
      <path
         d="m 117.102,176.15809 c 0.22825,0.005 0.39378,-0.01 0.49659,-0.0444 0.10279,-0.0344 0.15332,-0.11717 0.15159,-0.24829 0.0186,-0.14946 -0.0395,-0.50801 -0.17424,-1.07566 -0.13476,-0.56763 -0.45768,-1.11669 -0.96879,-1.64717 -0.51111,-0.53046 -1.32192,-0.81466 -2.43241,-0.85262 -0.80893,0.002 -1.52245,0.14942 -2.14057,0.4417 -0.61812,0.2923 -1.11732,0.71658 -1.4976,1.27284 -0.45086,0.69523 -0.72529,1.30682 -0.8233,1.83477 -0.098,0.52796 -0.13721,0.94091 -0.11761,1.23886 0.003,0.7915 0.11238,1.451 0.32932,1.97852 0.21693,0.52752 0.58806,1.06679 1.1134,1.61783 0.34892,0.37027 0.79062,0.62815 1.32511,0.77364 0.53448,0.14549 1.13823,0.21519 1.81125,0.20909 0.99056,-0.044 1.80601,-0.31669 2.44635,-0.81807 0.64033,-0.50138 1.05851,-0.96748 1.25455,-1.39829 0.0893,-0.1738 0.13023,-0.29665 0.12284,-0.36852 -0.007,-0.0719 -0.0344,-0.11631 -0.081,-0.1333 l -0.35545,-0.18818 c -0.0427,-0.0314 -0.0828,-0.0418 -0.12023,-0.0314 -0.0375,0.0105 -0.0671,0.0418 -0.0889,0.0941 -0.21389,0.34064 -0.51794,0.61595 -0.91216,0.82591 -0.39423,0.20996 -0.84987,0.31799 -1.36692,0.32409 -0.78279,8.7e-4 -1.43359,-0.26746 -1.95239,-0.805 -0.51881,-0.53754 -0.78801,-1.3495 -0.80761,-2.4359 l 0,-0.56455 z m -4.76726,-0.79454 c 0.0714,-0.73355 0.24219,-1.28938 0.51227,-1.6675 0.27007,-0.37809 0.64992,-0.56802 1.13955,-0.56977 0.32626,0.0183 0.57804,0.20649 0.75533,0.56455 0.17729,0.35807 0.26702,0.77625 0.26921,1.25454 8.6e-4,0.15464 -0.0532,0.26354 -0.16205,0.3267 -0.1089,0.0632 -0.27792,0.0937 -0.50704,0.0915 z"
         style="font-size:20.90930176px;font-variant:normal;font-weight:bold;font-stretch:normal;text-align:start;writing-mode:lr-tb;text-anchor:start;fill:#eeeeee;font-family:Adobe Caslon Pro Bold;-inkscape-font-specification:'Adobe Caslon Pro Bold, Bold'"
         id="path3186"
         inkscape:connector-curvature="0" />
      <path
         d="m 126.53569,176.15809 c 0.22825,0.005 0.39378,-0.01 0.49659,-0.0444 0.10279,-0.0344 0.15332,-0.11717 0.15159,-0.24829 0.0186,-0.14946 -0.0395,-0.50801 -0.17424,-1.07566 -0.13476,-0.56763 -0.45769,-1.11669 -0.96879,-1.64717 -0.51111,-0.53046 -1.32192,-0.81466 -2.43241,-0.85262 -0.80893,0.002 -1.52245,0.14942 -2.14057,0.4417 -0.61812,0.2923 -1.11733,0.71658 -1.49761,1.27284 -0.45085,0.69523 -0.72528,1.30682 -0.82329,1.83477 -0.098,0.52796 -0.13722,0.94091 -0.11761,1.23886 0.003,0.7915 0.11238,1.451 0.32931,1.97852 0.21694,0.52752 0.58807,1.06679 1.11341,1.61783 0.34892,0.37027 0.79062,0.62815 1.32511,0.77364 0.53448,0.14549 1.13823,0.21519 1.81125,0.20909 0.99055,-0.044 1.80601,-0.31669 2.44635,-0.81807 0.64033,-0.50138 1.05851,-0.96748 1.25454,-1.39829 0.0893,-0.1738 0.13024,-0.29665 0.12285,-0.36852 -0.007,-0.0719 -0.0344,-0.11631 -0.081,-0.1333 l -0.35545,-0.18818 c -0.0427,-0.0314 -0.0828,-0.0418 -0.12023,-0.0314 -0.0375,0.0105 -0.0671,0.0418 -0.0889,0.0941 -0.21389,0.34064 -0.51794,0.61595 -0.91216,0.82591 -0.39423,0.20996 -0.84987,0.31799 -1.36693,0.32409 -0.78278,8.7e-4 -1.43358,-0.26746 -1.95238,-0.805 -0.51881,-0.53754 -0.78801,-1.3495 -0.80761,-2.4359 l 0,-0.56455 z m -4.76726,-0.79454 c 0.0714,-0.73355 0.24219,-1.28938 0.51227,-1.6675 0.27007,-0.37809 0.64992,-0.56802 1.13954,-0.56977 0.32627,0.0183 0.57805,0.20649 0.75534,0.56455 0.17729,0.35807 0.26702,0.77625 0.26921,1.25454 8.6e-4,0.15464 -0.0532,0.26354 -0.16205,0.3267 -0.1089,0.0632 -0.27792,0.0937 -0.50704,0.0915 z m 0.96182,-4.18181 c 0.0218,0.02 0.0462,0.027 0.0732,0.0209 0.027,-0.006 0.0514,-0.02 0.0732,-0.0418 l 2.63454,-1.83999 c 0.4112,-0.3402 0.55059,-0.71569 0.41818,-1.12648 -0.13243,-0.41076 -0.43213,-0.63466 -0.89909,-0.6717 -0.21868,0.002 -0.41383,0.0658 -0.58545,0.1908 -0.17164,0.12503 -0.32497,0.2984 -0.46,0.52011 l -1.54727,2.5509 c -0.0418,0.0662 -0.0418,0.12198 0,0.16727 z"
         style="font-size:20.90930176px;font-variant:normal;font-weight:bold;font-stretch:normal;text-align:start;writing-mode:lr-tb;text-anchor:start;fill:#eeeeee;font-family:Adobe Caslon Pro Bold;-inkscape-font-specification:'Adobe Caslon Pro Bold, Bold'"
         id="path3188"
         inkscape:connector-curvature="0" />
      <path
         d="m 133.6531,176.70173 c -0.0422,-0.003 -0.078,0.003 -0.10716,0.0183 -0.0292,0.0153 -0.0492,0.0579 -0.0601,0.12807 l -0.33454,3.97272 c -0.0113,0.11456 0.006,0.19907 0.0523,0.25352 0.0462,0.0545 0.12632,0.0815 0.24045,0.081 0.0719,0.004 0.13722,-0.009 0.19602,-0.0392 0.0588,-0.0301 0.11892,-0.10063 0.18035,-0.21171 0.061,-0.10629 0.11674,-0.19166 0.16727,-0.25613 0.0505,-0.0645 0.10628,-0.0976 0.16727,-0.0993 0.0501,-8.7e-4 0.11195,0.0165 0.18557,0.0523 0.0736,0.0357 0.17206,0.095 0.29534,0.17773 0.42253,0.2936 0.92086,0.51663 1.49499,0.66909 0.57413,0.15246 1.32337,0.22912 2.24772,0.23 1.39829,-0.0331 2.50647,-0.4844 3.32454,-1.35386 0.81806,-0.86947 1.23624,-1.95848 1.25454,-3.26704 0.003,-0.72441 -0.0867,-1.33512 -0.2692,-1.83215 -0.18253,-0.49702 -0.47613,-0.92479 -0.88079,-1.2833 -0.42386,-0.38637 -0.85162,-0.71133 -1.2833,-0.97488 -0.43169,-0.26353 -0.89604,-0.46827 -1.39306,-0.6142 -0.52927,-0.14941 -1.04938,-0.34194 -1.56034,-0.57761 -0.51097,-0.23566 -0.91085,-0.49615 -1.19965,-0.78148 -0.25135,-0.26048 -0.4073,-0.54972 -0.46784,-0.86772 -0.0606,-0.31798 -0.0858,-0.66995 -0.0758,-1.05591 -0.006,-0.31711 0.16771,-0.70218 0.52011,-1.15522 0.3524,-0.45302 0.91782,-0.70219 1.69625,-0.7475 0.46609,1e-5 0.86685,0.0732 1.20227,0.21954 0.33541,0.14638 0.63162,0.36592 0.88863,0.65864 0.35066,0.38204 0.62683,0.76275 0.82852,1.14215 0.20168,0.37943 0.35763,0.72355 0.46784,1.03239 0.0322,0.0727 0.0723,0.12067 0.12023,0.14375 0.0479,0.0231 0.0984,0.024 0.15159,0.003 l 0.46,-0.14636 c 0.0318,-0.009 0.0571,-0.0222 0.0758,-0.0392 0.0187,-0.017 0.0283,-0.0457 0.0288,-0.0863 l -0.33454,-3.57544 c -0.009,-0.0697 -0.0279,-0.14461 -0.0575,-0.22477 -0.0296,-0.0801 -0.0802,-0.1237 -0.15159,-0.13069 -0.12546,2e-5 -0.23001,0.0418 -0.31364,0.12546 l -0.27181,0.27182 c -0.0619,0.0736 -0.13157,0.1198 -0.20909,0.13852 -0.0776,0.0187 -0.16816,0.007 -0.27182,-0.034 -0.21258,-0.0906 -0.54016,-0.1812 -0.98273,-0.27182 -0.44258,-0.0906 -1.04197,-0.13937 -1.79817,-0.14636 -0.62466,-0.003 -1.1683,0.0758 -1.63091,0.23523 -0.46261,0.15944 -0.92261,0.41558 -1.37999,0.7684 -0.61421,0.46002 -1.03239,0.93047 -1.25455,1.41136 -0.22216,0.48092 -0.3267,1.03501 -0.31363,1.66227 -0.002,0.61378 0.0806,1.17919 0.24829,1.69625 0.16771,0.51707 0.43343,0.94135 0.79716,1.27283 0.55365,0.46393 1.11384,0.85336 1.68056,1.1683 0.56672,0.31495 1.01714,0.53188 1.35125,0.65079 1.31639,0.47569 2.16495,0.93046 2.54568,1.36431 0.38071,0.43387 0.54972,1.06637 0.50704,1.8975 -0.0462,0.81937 -0.35633,1.41267 -0.93045,1.77988 -0.57414,0.36722 -1.1352,0.54756 -1.68318,0.54102 -0.51097,8.7e-4 -0.99972,-0.11587 -1.46625,-0.35022 -0.46653,-0.23436 -0.85596,-0.59155 -1.16829,-1.07159 -0.25178,-0.4147 -0.44867,-0.82939 -0.59068,-1.24409 -0.14201,-0.41469 -0.2239,-0.78757 -0.24568,-1.11863 -8.7e-4,-0.071 -0.0148,-0.11718 -0.0418,-0.13853 -0.027,-0.0213 -0.0619,-0.0309 -0.10454,-0.0288 z"
         style="font-size:20.90930176px;font-variant:normal;font-weight:bold;font-stretch:normal;text-align:start;writing-mode:lr-tb;text-anchor:start;fill:#eeeeee;font-family:Adobe Caslon Pro Bold;-inkscape-font-specification:'Adobe Caslon Pro Bold, Bold'"
         id="path3190"
         inkscape:connector-curvature="0" />
      <path
         d="m 148.44052,169.13266 c -4.4e-4,-0.32016 -0.13025,-0.6155 -0.38943,-0.88602 -0.25919,-0.2705 -0.64514,-0.41425 -1.15784,-0.43125 -0.47045,0.0144 -0.85727,0.15814 -1.16045,0.43125 -0.30318,0.27313 -0.46,0.58938 -0.47045,0.94874 0.009,0.42996 0.15333,0.78802 0.43386,1.07421 0.28053,0.2862 0.64469,0.42995 1.0925,0.43124 0.58109,-0.0405 1.00275,-0.22084 1.26499,-0.54102 0.26223,-0.32016 0.39117,-0.66254 0.38682,-1.02715 z m 1.4009,12.08542 0,-0.39727 c 0.002,-0.0627 -0.0122,-0.10978 -0.0418,-0.14114 -0.0296,-0.0314 -0.0854,-0.047 -0.16728,-0.047 l -0.75272,0 c -0.1137,0.002 -0.19995,-0.0388 -0.25875,-0.12284 -0.0588,-0.0841 -0.098,-0.22433 -0.11761,-0.42079 -0.01,-0.12458 -0.0161,-0.3511 -0.0183,-0.67954 -0.002,-0.32845 -0.003,-0.70132 -0.003,-1.11864 l 0,-2.23726 c -8.8e-4,-0.92914 8.6e-4,-1.70016 0.005,-2.31307 0.004,-0.61288 0.0165,-1.01277 0.0366,-1.19965 0.0109,-0.0745 -4.4e-4,-0.13459 -0.034,-0.18034 -0.0336,-0.0457 -0.0919,-0.0693 -0.17511,-0.0706 -0.14637,1e-5 -0.33455,0.0418 -0.56455,0.12545 l -3.11544,1.00364 c -0.0919,0.0305 -0.15377,0.0584 -0.18557,0.0836 -0.0318,0.0253 -0.0466,0.0532 -0.0444,0.0836 l 0,0.23 c -0.004,0.0619 0.009,0.11588 0.0392,0.16205 0.0301,0.0462 0.10063,0.0897 0.2117,0.13068 0.42603,0.15551 0.70307,0.34108 0.83114,0.5567 0.12807,0.21563 0.18556,0.46915 0.1725,0.76057 l 0.0418,2.92726 c 8.7e-4,0.29447 -8.8e-4,0.5994 -0.005,0.91477 -0.004,0.31538 -0.0166,0.63076 -0.0366,0.94613 -0.0113,0.16379 -0.0514,0.27531 -0.12023,0.33455 -0.0688,0.0592 -0.16117,0.0871 -0.27704,0.0836 l -0.77364,0 c -0.0727,-8.7e-4 -0.12589,0.0113 -0.15943,0.0366 -0.0335,0.0253 -0.0501,0.0688 -0.0497,0.13068 l 0,0.41818 c 4.4e-4,0.0819 0.0153,0.13765 0.0444,0.16727 0.0292,0.0296 0.0701,0.0436 0.12284,0.0418 0.11893,-0.003 0.37245,-0.0131 0.76057,-0.0314 0.38813,-0.0183 0.88733,-0.0288 1.49762,-0.0314 0.90823,0.003 1.60607,0.0131 2.09352,0.0314 0.48744,0.0183 0.77232,0.0288 0.85466,0.0314 0.0719,4.3e-4 0.12152,-0.0161 0.14896,-0.0497 0.0274,-0.0335 0.0405,-0.0867 0.0392,-0.15943 z"
         style="font-size:20.90930176px;font-variant:normal;font-weight:bold;font-stretch:normal;text-align:start;writing-mode:lr-tb;text-anchor:start;fill:#eeeeee;font-family:Adobe Caslon Pro Bold;-inkscape-font-specification:'Adobe Caslon Pro Bold, Bold'"
         id="path3192"
         inkscape:connector-curvature="0" />
      <path
         d="m 155.34189,172.28992 c -0.56412,-0.002 -1.10339,0.0963 -1.61784,0.29534 -0.51445,0.19908 -1.00668,0.51185 -1.4767,0.93829 -0.55017,0.52491 -0.95005,1.13737 -1.19966,1.83738 -0.2496,0.70003 -0.37244,1.4118 -0.36852,2.13534 -0.007,0.52404 0.0693,1.01278 0.22739,1.46625 0.15812,0.45346 0.43778,0.92653 0.83897,1.4192 0.3315,0.41905 0.76623,0.73617 1.30421,0.95136 0.53796,0.21519 1.19747,0.32322 1.97851,0.32409 0.98141,-0.0275 1.83084,-0.22347 2.54829,-0.58807 0.71743,-0.3646 1.18527,-0.73312 1.40352,-1.10556 0.0322,-0.0518 0.0514,-0.0998 0.0575,-0.14375 0.006,-0.044 -0.006,-0.0867 -0.0366,-0.12807 l -0.29273,-0.29273 c -0.0305,-0.0396 -0.0636,-0.0545 -0.0993,-0.0444 -0.0357,0.01 -0.0793,0.0318 -0.13068,0.0653 -0.31974,0.23828 -0.63163,0.40991 -0.93568,0.51489 -0.30406,0.10498 -0.68913,0.15638 -1.15522,0.1542 -0.4722,0.008 -0.89735,-0.0762 -1.27545,-0.25352 -0.37811,-0.17729 -0.69872,-0.49703 -0.96182,-0.9592 -0.3389,-0.63293 -0.53928,-1.22274 -0.60113,-1.76943 -0.0619,-0.54668 -0.0845,-1.14172 -0.068,-1.78511 0.0222,-0.66516 0.18165,-1.18527 0.4783,-1.56034 0.29664,-0.37504 0.59721,-0.56584 0.9017,-0.57238 0.29185,-0.005 0.53927,0.068 0.74227,0.21954 0.20299,0.1516 0.36677,0.41296 0.49136,0.78409 0.081,0.27488 0.24306,0.52491 0.48614,0.75011 0.24306,0.22522 0.58283,0.34457 1.01931,0.35807 0.33803,-0.004 0.60287,-0.0949 0.79455,-0.27182 0.19165,-0.17685 0.28923,-0.41381 0.29272,-0.7109 0.0318,-0.36808 -0.18339,-0.78713 -0.64556,-1.25716 -0.46219,-0.47001 -1.36215,-0.72701 -2.69988,-0.77102 z"
         style="font-size:20.90930176px;font-variant:normal;font-weight:bold;font-stretch:normal;text-align:start;writing-mode:lr-tb;text-anchor:start;fill:#eeeeee;font-family:Adobe Caslon Pro Bold;-inkscape-font-specification:'Adobe Caslon Pro Bold, Bold'"
         id="path3194"
         inkscape:connector-curvature="0" />
      <path
         d="m 160.74797,180.13081 c -0.002,0.13983 -0.0449,0.25744 -0.12807,0.35284 -0.0832,0.0954 -0.19385,0.14506 -0.33193,0.14897 l -0.39727,0 c -0.0728,-0.001 -0.12589,0.0118 -0.15943,0.0392 -0.0335,0.0274 -0.0501,0.0771 -0.0497,0.14898 l 0,0.39727 c 4.3e-4,0.0636 0.01,0.11413 0.0288,0.15159 0.0187,0.0375 0.044,0.0566 0.0758,0.0575 0.0701,-0.003 0.29578,-0.0131 0.67694,-0.0314 0.38115,-0.0183 0.93611,-0.0288 1.66488,-0.0314 0.66735,0.003 1.17788,0.0131 1.53159,0.0314 0.35371,0.0183 0.56106,0.0288 0.62205,0.0314 0.0618,0 0.1054,-0.0157 0.13067,-0.047 0.0253,-0.0314 0.0374,-0.0784 0.0366,-0.14113 l 0,-0.43909 c 0.001,-0.0619 -0.0118,-0.10542 -0.0392,-0.13069 -0.0275,-0.0253 -0.0771,-0.0375 -0.14897,-0.0366 l -0.39728,0 c -0.10803,0.002 -0.20038,-0.0388 -0.27704,-0.12284 -0.0767,-0.0841 -0.11675,-0.22433 -0.12023,-0.42079 l 0,-3.11545 c 0.0636,-0.003 0.13504,0.0131 0.21432,0.047 0.0793,0.034 0.16117,0.10194 0.24568,0.20386 0.21851,0.28576 0.50168,0.66445 0.84953,1.13606 0.34783,0.47162 0.66198,0.91071 0.94245,1.31727 0.28046,0.40656 0.42889,0.65515 0.44529,0.74575 0.002,0.0745 -0.0122,0.13461 -0.0418,0.18034 -0.0296,0.0457 -0.0854,0.0693 -0.16727,0.0706 l -0.14637,0 c -0.0836,0.003 -0.12546,0.0592 -0.12545,0.16728 l 0,0.33454 c -4.4e-4,0.0928 0.0109,0.15812 0.034,0.19602 0.0231,0.0379 0.0605,0.0562 0.11238,0.0549 0.091,-0.003 0.33761,-0.0131 0.73968,-0.0314 0.40206,-0.0183 0.9152,-0.0288 1.53943,-0.0314 0.84245,0.003 1.44707,0.0131 1.81387,0.0314 0.36676,0.0183 0.58457,0.0288 0.65341,0.0314 0.0718,0 0.12149,-0.0157 0.14894,-0.047 0.0274,-0.0314 0.0405,-0.0784 0.0392,-0.14113 l 0,-0.41818 c 8.5e-4,-0.0719 -0.0113,-0.12154 -0.0366,-0.14898 -0.0253,-0.0274 -0.0688,-0.0405 -0.13068,-0.0392 -0.1259,0.003 -0.29753,-0.0183 -0.51488,-0.0627 -0.21738,-0.0444 -0.41514,-0.12807 -0.5933,-0.25091 -0.22458,-0.18353 -0.5932,-0.57384 -1.10585,-1.17091 -0.51267,-0.59706 -1.03462,-1.21969 -1.56586,-1.86787 -0.53125,-0.64818 -0.93704,-1.1407 -1.21737,-1.47757 0.2631,-0.26267 0.68303,-0.63641 1.25977,-1.12125 0.57674,-0.48482 1.04893,-0.82198 1.41659,-1.01147 0.26266,-0.11543 0.49527,-0.20342 0.69784,-0.26398 0.20255,-0.0605 0.3672,-0.091 0.49398,-0.0915 l 0.2509,0 c 0.0418,8.8e-4 0.0732,-0.0113 0.0941,-0.0366 0.0209,-0.0252 0.0314,-0.0688 0.0314,-0.13068 l 0,-0.43909 c -1e-5,-0.12544 -0.0418,-0.18817 -0.12546,-0.18818 -0.0658,0.003 -0.24784,0.0131 -0.54622,0.0313 -0.2984,0.0183 -0.75752,0.0288 -1.37738,0.0314 -0.67999,-0.003 -1.20708,-0.0131 -1.58125,-0.0314 -0.3742,-0.0183 -0.59287,-0.0287 -0.65603,-0.0314 -0.10108,0.004 -0.14987,0.0593 -0.14638,0.16729 l 0,0.43909 c -0.002,0.0627 0.007,0.10978 0.0287,0.14114 0.0213,0.0314 0.0675,0.0471 0.13853,0.047 0.1115,1e-5 0.21779,0.0314 0.31886,0.0941 0.10105,0.0627 0.15507,0.15683 0.16204,0.28228 -0.0227,0.17947 -0.22303,0.48962 -0.60113,0.93045 -0.37811,0.44084 -0.79804,0.87644 -1.25977,1.30681 -0.12415,0.1137 -0.24177,0.19472 -0.35284,0.24307 -0.11108,0.0484 -0.22347,0.0719 -0.33716,0.0706 l 0.0209,-3.05272 c 0.008,-1.44968 0.0178,-2.82097 0.0287,-4.11385 0.0109,-1.29287 0.0362,-2.2146 0.0758,-2.76522 0.0118,-0.12457 0.004,-0.21518 -0.0235,-0.27182 -0.0275,-0.0566 -0.0823,-0.0845 -0.16466,-0.0836 -0.0823,-4.2e-4 -0.18949,0.0214 -0.32147,0.0653 -0.132,0.044 -0.29665,0.11284 -0.49398,0.20648 -0.27792,0.0954 -0.71004,0.22871 -1.29636,0.39989 -0.58632,0.1712 -1.16481,0.30973 -1.73545,0.41556 -0.1028,0.0218 -0.17424,0.0514 -0.21432,0.0889 -0.0401,0.0375 -0.0592,0.0776 -0.0575,0.12022 l 0,0.37637 c -8.7e-4,0.0323 0.0218,0.0671 0.068,0.10454 0.0462,0.0375 0.1211,0.0723 0.22477,0.10455 0.50443,0.15683 0.82329,0.36069 0.95659,0.61159 0.13329,0.25092 0.19079,0.54887 0.1725,0.89386 z"
         style="font-size:20.90930176px;font-variant:normal;font-weight:bold;font-stretch:normal;text-align:start;writing-mode:lr-tb;text-anchor:start;fill:#eeeeee;font-family:Adobe Caslon Pro Bold;-inkscape-font-specification:'Adobe Caslon Pro Bold, Bold'"
         id="path3196"
         inkscape:connector-curvature="0" />
    </g>
  </g>
</svg>
