<?xml version="1.0" encoding="UTF-8" standalone="no"?>
<!-- Created with Inkscape (http://www.inkscape.org/) -->

<svg
   xmlns:dc="http://purl.org/dc/elements/1.1/"
   xmlns:cc="http://creativecommons.org/ns#"
   xmlns:rdf="http://www.w3.org/1999/02/22-rdf-syntax-ns#"
   xmlns:svg="http://www.w3.org/2000/svg"
   xmlns="http://www.w3.org/2000/svg"
   xmlns:xlink="http://www.w3.org/1999/xlink"
   xmlns:sodipodi="http://sodipodi.sourceforge.net/DTD/sodipodi-0.dtd"
   xmlns:inkscape="http://www.inkscape.org/namespaces/inkscape"
   width="106.29921"
   height="106.29921"
   id="svg4577"
   version="1.1"
   inkscape:version="0.48.4 r9939"
   sodipodi:docname="ego-zombieZealot.svg">
  <defs
     id="defs3">
    <linearGradient
       inkscape:collect="always"
       xlink:href="#linearGradient5541-4-9"
       id="linearGradient10685"
       gradientUnits="userSpaceOnUse"
       gradientTransform="matrix(0.15362219,0,0,5.5164261,160.34718,-2057.4152)"
       x1="1368.8352"
       y1="307.22827"
       x2="1368.8352"
       y2="315.50342" />
    <linearGradient
       inkscape:collect="always"
       id="linearGradient5541-4-9">
      <stop
         style="stop-color:#666666;stop-opacity:1;"
         offset="0"
         id="stop5543-0-8" />
      <stop
         style="stop-color:#666666;stop-opacity:0;"
         offset="1"
         id="stop5545-6-4" />
    </linearGradient>
    <linearGradient
       inkscape:collect="always"
       xlink:href="#linearGradient5541-4-9-0"
       id="linearGradient10687"
       gradientUnits="userSpaceOnUse"
       gradientTransform="matrix(0.15362219,0,0,5.5164261,-552.08515,-1036.7391)"
       x1="1368.8352"
       y1="307.22827"
       x2="1368.8352"
       y2="315.50342" />
    <linearGradient
       inkscape:collect="always"
       id="linearGradient5541-4-9-0">
      <stop
         style="stop-color:#666666;stop-opacity:1;"
         offset="0"
         id="stop5543-0-8-6" />
      <stop
         style="stop-color:#666666;stop-opacity:0;"
         offset="1"
         id="stop5545-6-4-9" />
    </linearGradient>
    <inkscape:path-effect
       effect="spiro"
       id="path-effect3812-7-1-8-1-8-4-4-1-8-4-8"
       is_visible="true" />
    <inkscape:path-effect
       effect="spiro"
       id="path-effect2999-8-1-7-7-6-8-8-2-4-7-2-6"
       is_visible="true" />
    <inkscape:path-effect
       effect="spiro"
       id="path-effect3005-1-8-1-4-4-8-2-6-0-3-4-7-5"
       is_visible="true" />
    <inkscape:path-effect
       effect="spiro"
       id="path-effect3779-7-2-5-0-0-5-4-5-9-9-2-7-0"
       is_visible="true" />
    <inkscape:path-effect
       effect="spiro"
       id="path-effect3783-4-4-2-9-0-7-5-0-7-8-7-9-2"
       is_visible="true" />
    <inkscape:path-effect
       effect="spiro"
       id="path-effect3787-0-5-7-4-5-6-5-9-3-8-79-3-8"
       is_visible="true" />
    <inkscape:path-effect
       effect="spiro"
       id="path-effect3793-9-5-6-8-9-1-1-0-7-0-3-19-6"
       is_visible="true" />
    <inkscape:path-effect
       effect="spiro"
       id="path-effect3812-7-1-8-1-8-4-4-1-8-4-8-8"
       is_visible="true" />
    <inkscape:path-effect
       effect="spiro"
       id="path-effect2999-8-1-7-7-6-8-8-2-4-7-2-6-2"
       is_visible="true" />
    <inkscape:path-effect
       effect="spiro"
       id="path-effect3005-1-8-1-4-4-8-2-6-0-3-4-7-5-4"
       is_visible="true" />
    <inkscape:path-effect
       effect="spiro"
       id="path-effect3779-7-2-5-0-0-5-4-5-9-9-2-7-0-5"
       is_visible="true" />
    <inkscape:path-effect
       effect="spiro"
       id="path-effect3783-4-4-2-9-0-7-5-0-7-8-7-9-2-5"
       is_visible="true" />
    <inkscape:path-effect
       effect="spiro"
       id="path-effect3787-0-5-7-4-5-6-5-9-3-8-79-3-8-1"
       is_visible="true" />
    <inkscape:path-effect
       effect="spiro"
       id="path-effect3793-9-5-6-8-9-1-1-0-7-0-3-19-6-7"
       is_visible="true" />
    <inkscape:path-effect
       effect="spiro"
       id="path-effect3812-7-1-8-1-8-4-4-1-8-4-8-8-1"
       is_visible="true" />
    <inkscape:path-effect
       effect="spiro"
       id="path-effect2999-8-1-7-7-6-8-8-2-4-7-2-6-2-1"
       is_visible="true" />
    <inkscape:path-effect
       effect="spiro"
       id="path-effect3005-1-8-1-4-4-8-2-6-0-3-4-7-5-4-5"
       is_visible="true" />
    <inkscape:path-effect
       effect="spiro"
       id="path-effect3779-7-2-5-0-0-5-4-5-9-9-2-7-0-5-2"
       is_visible="true" />
    <inkscape:path-effect
       effect="spiro"
       id="path-effect3783-4-4-2-9-0-7-5-0-7-8-7-9-2-5-7"
       is_visible="true" />
    <inkscape:path-effect
       effect="spiro"
       id="path-effect3787-0-5-7-4-5-6-5-9-3-8-79-3-8-1-6"
       is_visible="true" />
    <inkscape:path-effect
       effect="spiro"
       id="path-effect3793-9-5-6-8-9-1-1-0-7-0-3-19-6-7-1"
       is_visible="true" />
    <inkscape:path-effect
       effect="spiro"
       id="path-effect3812-7-1-8-1-8-4-4-1-8-4-8-8-1-4"
       is_visible="true" />
    <inkscape:path-effect
       effect="spiro"
       id="path-effect2999-8-1-7-7-6-8-8-2-4-7-2-6-2-1-2"
       is_visible="true" />
    <inkscape:path-effect
       effect="spiro"
       id="path-effect3005-1-8-1-4-4-8-2-6-0-3-4-7-5-4-5-3"
       is_visible="true" />
    <inkscape:path-effect
       effect="spiro"
       id="path-effect3779-7-2-5-0-0-5-4-5-9-9-2-7-0-5-2-2"
       is_visible="true" />
    <inkscape:path-effect
       effect="spiro"
       id="path-effect3783-4-4-2-9-0-7-5-0-7-8-7-9-2-5-7-2"
       is_visible="true" />
    <inkscape:path-effect
       effect="spiro"
       id="path-effect3787-0-5-7-4-5-6-5-9-3-8-79-3-8-1-6-1"
       is_visible="true" />
    <inkscape:path-effect
       effect="spiro"
       id="path-effect3793-9-5-6-8-9-1-1-0-7-0-3-19-6-7-1-6"
       is_visible="true" />
    <inkscape:path-effect
       effect="spiro"
       id="path-effect3793-9-5-6-8-9-1-1-0-7-0-3-19-6-1-8-2"
       is_visible="true" />
    <inkscape:path-effect
       effect="spiro"
       id="path-effect3787-0-5-7-4-5-6-5-9-3-8-79-3-8-1-4-9"
       is_visible="true" />
    <inkscape:path-effect
       effect="spiro"
       id="path-effect3783-4-4-2-9-0-7-5-0-7-8-7-9-2-4-9-1"
       is_visible="true" />
    <inkscape:path-effect
       effect="spiro"
       id="path-effect3779-7-2-5-0-0-5-4-5-9-9-2-7-0-3-0-3"
       is_visible="true" />
    <inkscape:path-effect
       effect="spiro"
       id="path-effect3005-1-8-1-4-4-8-2-6-0-3-4-7-5-3-4-5"
       is_visible="true" />
    <inkscape:path-effect
       effect="spiro"
       id="path-effect2999-8-1-7-7-6-8-8-2-4-7-2-6-2-7-9"
       is_visible="true" />
    <inkscape:path-effect
       effect="spiro"
       id="path-effect3812-7-1-8-1-8-4-4-1-8-4-8-1-1-8"
       is_visible="true" />
    <inkscape:path-effect
       effect="spiro"
       id="path-effect3812-7-1-8-1-8-4-4-1-8-4-8-4"
       is_visible="true" />
    <inkscape:path-effect
       effect="spiro"
       id="path-effect2999-8-1-7-7-6-8-8-2-4-7-2-6-0"
       is_visible="true" />
    <inkscape:path-effect
       effect="spiro"
       id="path-effect3005-1-8-1-4-4-8-2-6-0-3-4-7-5-7"
       is_visible="true" />
    <inkscape:path-effect
       effect="spiro"
       id="path-effect3779-7-2-5-0-0-5-4-5-9-9-2-7-0-6"
       is_visible="true" />
    <inkscape:path-effect
       effect="spiro"
       id="path-effect3783-4-4-2-9-0-7-5-0-7-8-7-9-2-3"
       is_visible="true" />
    <inkscape:path-effect
       effect="spiro"
       id="path-effect3787-0-5-7-4-5-6-5-9-3-8-79-3-8-6"
       is_visible="true" />
    <inkscape:path-effect
       effect="spiro"
       id="path-effect3793-9-5-6-8-9-1-1-0-7-0-3-19-6-15"
       is_visible="true" />
    <inkscape:path-effect
       effect="spiro"
       id="path-effect3812-7-1-8-1-8-4-4-1-8-4-8-17-5"
       is_visible="true" />
    <inkscape:path-effect
       effect="spiro"
       id="path-effect2999-8-1-7-7-6-8-8-2-4-7-2-6-4-7"
       is_visible="true" />
    <inkscape:path-effect
       effect="spiro"
       id="path-effect3005-1-8-1-4-4-8-2-6-0-3-4-7-5-0-4"
       is_visible="true" />
    <inkscape:path-effect
       effect="spiro"
       id="path-effect3779-7-2-5-0-0-5-4-5-9-9-2-7-0-9-44"
       is_visible="true" />
    <inkscape:path-effect
       effect="spiro"
       id="path-effect3783-4-4-2-9-0-7-5-0-7-8-7-9-2-48-44"
       is_visible="true" />
    <inkscape:path-effect
       effect="spiro"
       id="path-effect3787-0-5-7-4-5-6-5-9-3-8-79-3-8-8-2"
       is_visible="true" />
    <inkscape:path-effect
       effect="spiro"
       id="path-effect3793-9-5-6-8-9-1-1-0-7-0-3-19-6-2-9"
       is_visible="true" />
    <inkscape:path-effect
       effect="spiro"
       id="path-effect3812-7-1-8-1-8-4-4-1-8-4-8-17-5-7"
       is_visible="true" />
    <inkscape:path-effect
       effect="spiro"
       id="path-effect2999-8-1-7-7-6-8-8-2-4-7-2-6-4-7-6"
       is_visible="true" />
    <inkscape:path-effect
       effect="spiro"
       id="path-effect3005-1-8-1-4-4-8-2-6-0-3-4-7-5-0-4-1"
       is_visible="true" />
    <inkscape:path-effect
       effect="spiro"
       id="path-effect3779-7-2-5-0-0-5-4-5-9-9-2-7-0-9-44-8"
       is_visible="true" />
    <inkscape:path-effect
       effect="spiro"
       id="path-effect3783-4-4-2-9-0-7-5-0-7-8-7-9-2-48-44-9"
       is_visible="true" />
    <inkscape:path-effect
       effect="spiro"
       id="path-effect3787-0-5-7-4-5-6-5-9-3-8-79-3-8-8-2-2"
       is_visible="true" />
    <inkscape:path-effect
       effect="spiro"
       id="path-effect3793-9-5-6-8-9-1-1-0-7-0-3-19-6-2-9-7"
       is_visible="true" />
    <inkscape:path-effect
       effect="spiro"
       id="path-effect3812-7-1-8-1-8-4-4-1-8-4-8-17-39"
       is_visible="true" />
    <inkscape:path-effect
       effect="spiro"
       id="path-effect2999-8-1-7-7-6-8-8-2-4-7-2-6-4-1"
       is_visible="true" />
    <inkscape:path-effect
       effect="spiro"
       id="path-effect3005-1-8-1-4-4-8-2-6-0-3-4-7-5-0-2"
       is_visible="true" />
    <inkscape:path-effect
       effect="spiro"
       id="path-effect3779-7-2-5-0-0-5-4-5-9-9-2-7-0-9-8"
       is_visible="true" />
    <inkscape:path-effect
       effect="spiro"
       id="path-effect3783-4-4-2-9-0-7-5-0-7-8-7-9-2-48-8"
       is_visible="true" />
    <inkscape:path-effect
       effect="spiro"
       id="path-effect3787-0-5-7-4-5-6-5-9-3-8-79-3-8-8-1"
       is_visible="true" />
    <inkscape:path-effect
       effect="spiro"
       id="path-effect3793-9-5-6-8-9-1-1-0-7-0-3-19-6-2-8"
       is_visible="true" />
    <inkscape:path-effect
       effect="spiro"
       id="path-effect3812-7-1-8-1-8-4-4-1-8-4-8-8-2"
       is_visible="true" />
    <inkscape:path-effect
       effect="spiro"
       id="path-effect2999-8-1-7-7-6-8-8-2-4-7-2-6-5-2"
       is_visible="true" />
    <inkscape:path-effect
       effect="spiro"
       id="path-effect3005-1-8-1-4-4-8-2-6-0-3-4-7-5-8-0"
       is_visible="true" />
    <inkscape:path-effect
       effect="spiro"
       id="path-effect3779-7-2-5-0-0-5-4-5-9-9-2-7-0-39-1"
       is_visible="true" />
    <inkscape:path-effect
       effect="spiro"
       id="path-effect3783-4-4-2-9-0-7-5-0-7-8-7-9-2-44-2"
       is_visible="true" />
    <inkscape:path-effect
       effect="spiro"
       id="path-effect3787-0-5-7-4-5-6-5-9-3-8-79-3-8-69-7"
       is_visible="true" />
    <inkscape:path-effect
       effect="spiro"
       id="path-effect3793-9-5-6-8-9-1-1-0-7-0-3-19-6-8-7"
       is_visible="true" />
    <inkscape:path-effect
       effect="spiro"
       id="path-effect3812-7-1-8-1-8-4-4-1-8-4-8-8-2-9"
       is_visible="true" />
    <inkscape:path-effect
       effect="spiro"
       id="path-effect2999-8-1-7-7-6-8-8-2-4-7-2-6-5-2-5"
       is_visible="true" />
    <inkscape:path-effect
       effect="spiro"
       id="path-effect3005-1-8-1-4-4-8-2-6-0-3-4-7-5-8-0-4"
       is_visible="true" />
    <inkscape:path-effect
       effect="spiro"
       id="path-effect3779-7-2-5-0-0-5-4-5-9-9-2-7-0-39-1-3"
       is_visible="true" />
    <inkscape:path-effect
       effect="spiro"
       id="path-effect3783-4-4-2-9-0-7-5-0-7-8-7-9-2-44-2-1"
       is_visible="true" />
    <inkscape:path-effect
       effect="spiro"
       id="path-effect3787-0-5-7-4-5-6-5-9-3-8-79-3-8-69-7-2"
       is_visible="true" />
    <inkscape:path-effect
       effect="spiro"
       id="path-effect3793-9-5-6-8-9-1-1-0-7-0-3-19-6-8-7-3"
       is_visible="true" />
  </defs>
  <sodipodi:namedview
     id="base"
     pagecolor="#ffffff"
     bordercolor="#666666"
     borderopacity="1.0"
     inkscape:pageopacity="0.0"
     inkscape:pageshadow="2"
     inkscape:zoom="6.5902226"
     inkscape:cx="75.717868"
     inkscape:cy="50.821077"
     inkscape:document-units="mm"
     inkscape:current-layer="g7553"
     showgrid="false"
     units="mm"
     inkscape:window-width="1440"
     inkscape:window-height="825"
     inkscape:window-x="-9"
     inkscape:window-y="-9"
     inkscape:window-maximized="1"
     showguides="false"
     inkscape:guide-bbox="true"
     inkscape:snap-global="false">
    <sodipodi:guide
       orientation="1,0"
       position="53.149605,49.011239"
       id="guide5177" />
    <sodipodi:guide
       orientation="0,1"
       position="50.634127,53.149605"
       id="guide5179" />
    <sodipodi:guide
       orientation="0,1"
       position="-75.509159,100.52587"
       id="guide5483" />
    <sodipodi:guide
       orientation="0,1"
       position="-16.29529,5.9672891"
       id="guide5485" />
    <sodipodi:guide
       orientation="1,0"
       position="99.607826,29.606935"
       id="guide5487" />
    <sodipodi:guide
       orientation="1,0"
       position="6.1968002,73.67307"
       id="guide5489" />
    <sodipodi:guide
       orientation="0,1"
       position="-0.15063195,106.29595"
       id="guide5492" />
    <sodipodi:guide
       orientation="1,0"
       position="0,110.05327"
       id="guide5494" />
    <sodipodi:guide
       orientation="1,0"
       position="106.29688,0"
       id="guide5496" />
    <sodipodi:guide
       orientation="0,1"
       position="0,0"
       id="guide5498" />
    <sodipodi:guide
       orientation="1,0"
       position="9.5003953,73.767775"
       id="guide5609" />
    <sodipodi:guide
       orientation="0,1"
       position="82.988747,97.23934"
       id="guide5611" />
    <sodipodi:guide
       orientation="1,0"
       position="96.121646,65.664497"
       id="guide5613" />
    <sodipodi:guide
       orientation="0,1"
       position="49.737363,10.897512"
       id="guide5615" />
  </sodipodi:namedview>
  <metadata
     id="metadata4581">
    <rdf:RDF>
      <cc:Work
         rdf:about="">
        <dc:format>image/svg+xml</dc:format>
        <dc:type
           rdf:resource="http://purl.org/dc/dcmitype/StillImage" />
        <dc:title></dc:title>
      </cc:Work>
    </rdf:RDF>
  </metadata>
  <g
     style="display:inline"
     inkscape:label="3Dmaker"
     id="g7553"
     inkscape:groupmode="layer"
     sodipodi:insensitive="true">
    <rect
       y="2.2134197"
       x="3.9217744"
       height="103.08274"
       width="99.715721"
       id="rect7555"
       style="opacity:0.98999999;fill:#ffffff;fill-opacity:1;stroke:none;display:inline" />
    <path
       sodipodi:nodetypes="scccccccccccccccsczs"
       inkscape:connector-curvature="0"
       id="path7557"
       d="m 26.417325,82.423152 c 4.606094,-1.636236 13.980229,-4.911948 13.980229,-4.911948 l -1.322448,4.3452 2.078145,2.07816 3.96736,0.566748 4.911988,0.18894 7.745788,-0.755688 3.211652,0 1.889228,-0.566796 2.267097,0 0,-2.45598 -2.644907,-2.26704 6.990108,3.400596 8.501468,2.267028 4.156325,6.80124 c -0.85646,6.30474 0.03359,8.119944 -3.589523,10.579628 -5.950678,3.81964 -32.581136,2.13666 -33.542378,2.1998 -40.2403989,2.6449 -30.502222,-12.21268 -30.502222,-12.21268 0,0 0.15124,-3.72408 1.889217,-5.478756 1.737981,-1.754676 6.596775,-2.564856 10.012873,-3.778452 z"
       style="fill:#ffffff;fill-opacity:1;stroke:none;display:inline" />
    <path
       inkscape:connector-curvature="0"
       id="path7559"
       d="m 64.128424,73.267368 c -4.286528,6.069936 16.943626,13.621056 -14.927205,13.254828 -27.82795,-3.210444 -0.294233,-8.407464 -4.172074,-27.324924 0,0 4.089421,8.121636 6.069526,10.040628 1.980104,1.919004 2.520612,1.755612 4.193972,2.35914 1.673419,0.603444 4.294926,0.765552 5.766726,1.04844 1.471859,0.282876 3.069055,0.621888 3.069055,0.621888 z"
       style="fill:#c87137;stroke:none;display:inline"
       sodipodi:nodetypes="ccczzzc" />
    <path
       sodipodi:nodetypes="cccc"
       inkscape:connector-curvature="0"
       id="path7561"
       d="m 14.866848,91.37106 c -0.152485,10.06415 14.301957,4.317864 14.301957,4.317864 34.769237,5.654016 42.584471,1.73568 43.520048,-2.050476 0,0 2.978121,1.66734 8.965464,-2.571468"
       style="fill:none;stroke:#b5ecb8;stroke-width:1.51259851px;stroke-linecap:round;stroke-linejoin:miter;stroke-opacity:0.98823529;display:inline" />
    <path
       sodipodi:nodetypes="cccc"
       inkscape:connector-curvature="0"
       id="path7563"
       d="m 16.544212,86.796444 c 0.304976,8.996736 11.413988,2.600484 11.413988,2.600484 33.091903,5.34906 41.065779,1.701972 42.947129,-1.048236 0,0 6.011206,0.548736 8.036082,-1.153884"
       style="fill:none;stroke:#b5ecb8;stroke-width:1.51259851px;stroke-linecap:round;stroke-linejoin:miter;stroke-opacity:0.98823529;display:inline" />
    <path
       sodipodi:nodetypes="cscccc"
       inkscape:connector-curvature="0"
       id="path7565"
       d="m 47.577633,64.381452 c 1.146616,0.26874 2.053002,1.056168 2.921452,1.900812 0.868449,0.844584 2.693792,2.243808 2.693792,2.243808 l 11.47895,3.690972 -1.226914,2.319456 c 0,0 -16.680057,-2.679432 -15.86728,-10.155048 z"
       style="fill:#af5b33;fill-opacity:1;stroke:none;display:inline" />
    <g
       style="stroke:none;display:inline"
       transform="matrix(-0.0766908,0.00155099,0.0030372,0.07023602,80.062912,6.7681154)"
       id="g7567">
      <path
         style="fill:#150b02;fill-opacity:0.97058835;stroke:none"
         d="m 90.919581,581.80145 c -6.725988,3.85235 -14.844626,5.20905 -22.457714,3.75288 -7.613088,-1.45617 -14.657974,-5.71323 -19.487508,-11.77583 -4.829535,-6.0626 -7.403973,-13.88086 -7.121391,-21.6268 0.282581,-7.74595 3.419856,-15.35584 8.678307,-21.05042 1.455452,-1.57616 3.06191,-3.00565 4.551963,-4.54914 1.490053,-1.5435 2.877365,-3.22317 3.794607,-5.16258 0.917243,-1.9394 1.337216,-4.17017 0.843055,-6.25786 -0.247081,-1.04384 -0.721623,-2.0384 -1.412746,-2.85877 -0.691124,-0.82037 -1.60133,-1.46216 -2.620911,-1.7955 -1.384253,-0.45256 -2.892026,-0.32563 -4.319844,-0.0387 -1.427818,0.28688 -2.826972,0.72855 -4.273428,0.89806 -3.135335,0.36743 -6.387042,-0.61418 -8.862147,-2.57356 -2.475105,-1.95939 -4.164075,-4.85811 -4.753654,-7.95935 -0.58958,-3.10125 -0.09559,-6.3812 1.284504,-9.22033 1.380099,-2.83913 3.626368,-5.23325 6.316009,-6.88587 3.132804,-1.92492 6.776268,-2.83425 10.390803,-3.50872 3.614535,-0.67448 7.287249,-1.14655 10.775548,-2.30911 3.488299,-1.16256 6.847269,-3.10275 8.948139,-6.12038 1.050436,-1.50882 1.761171,-3.26888 1.942541,-5.09837 0.181371,-1.8295 -0.181624,-3.72568 -1.12127,-5.30587 -0.924256,-1.55431 -2.398925,-2.7737 -4.099176,-3.38956 -1.70025,-0.61586 -3.613752,-0.62372 -5.319009,-0.0219 -1.705257,0.60186 -3.189904,1.80908 -4.12691,3.35574 -0.937006,1.54666 -1.319577,3.42154 -1.063442,5.21166 L 47.093971,465.7925 35.063395,455.48056 c -2.032957,-3.05909 -4.336383,-5.93837 -6.874609,-8.59325 -6.576039,-6.87826 -14.734887,-12.27175 -20.343179,-19.95952 -2.8041458,-3.84389 -4.9293365,-8.27891 -5.5067228,-13.00176 -0.5773863,-4.72285 0.5089997,-9.748 3.5074609,-13.44231 2.4112016,-2.97076 5.9969859,-4.96088 9.7935779,-5.43546 3.796593,-0.47457 7.761921,0.57165 10.830199,2.85748 -3.0498,-5.67464 -6.498372,-11.1349 -10.311865,-16.32721 -6.4636595,-8.80067 -14.1076821,-17.06929 -17.7432031,-27.36559 -1.8177604,-5.14814 -2.5528327,-10.76822 -1.4333223,-16.11185 1.1195105,-5.34363 4.2169776,-10.37328 8.8646135,-13.23809 2.594528,-1.59927 5.5715559,-2.48859 8.5733559,-3.01627 3.0018,-0.52768 6.051738,-0.70936 9.086169,-0.9948 3.034432,-0.28544 6.079896,-0.67992 8.980826,-1.61472 2.90093,-0.9348 5.670917,-2.44147 7.732667,-4.68612 1.738456,-1.89267 2.922566,-4.26022 3.56795,-6.74778 0.645383,-2.48755 0.764901,-5.0939 0.529577,-7.65302 -0.470647,-5.11822 -2.324905,-9.99177 -4.097527,-14.81625 -3.314113,-9.01989 -6.408263,-18.14069 -8.593249,-27.49845 -1.715006,-7.34495 -2.865281,-14.82168 -3.437328,-22.34247 -3.053884,-0.99791 -5.824928,-2.8464 -7.919274,-5.28274 -2.094345,-2.43634 -3.505924,-5.45347 -4.034103,-8.62255 -0.528179,-3.16908 -0.171428,-6.48093 1.019547,-9.46482 1.190975,-2.98389 3.212724,-5.63118 5.777886,-7.5656 3.785725,-2.85486 8.59085,-4.08347 13.324463,-4.35706 4.733612,-0.27359 9.469048,0.33164 14.173946,0.91975 l 13.749264,1.71864 12.030529,0 c -0.46265,-5.86315 2.212554,-11.88237 6.874608,-15.46788 3.852067,-2.96256 8.956212,-4.2386 13.749241,-3.4373 2.949205,2.2119 6.625377,3.4373 10.311887,3.4373 3.68651,0 7.3627,-1.22539 10.31191,-3.4373 l 1.71867,-17.1865 3.43733,-8.59325 c 2.42378,-2.77953 5.34944,-5.12009 8.59322,-6.87463 5.72857,-3.09855 12.45255,-4.32109 18.90518,-3.43728 l 0,0 18.90517,12.03053 17.18654,-3.43728 c 4.73879,-5.74808 6.96587,-13.49666 6.00234,-20.88369 -0.96353,-7.38702 -5.10367,-14.30509 -11.15833,-18.64532 -2.30927,-1.65538 -4.85915,-2.93806 -7.3311,-4.33895 -2.47195,-1.40089 -4.90394,-2.94957 -6.83947,-5.02964 -1.93554,-2.08008 -3.35047,-4.75881 -3.4399,-7.598704 -0.0447,-1.419949 0.24754,-2.857936 0.90615,-4.116701 0.65861,-1.258765 1.6899,-2.330952 2.9551,-2.977114 1.5986,-0.816434 3.48801,-0.922481 5.25574,-0.610748 1.76774,0.311733 3.4402,1.015181 5.07441,1.757763 1.63421,0.742582 3.25671,1.533017 4.97998,2.035418 1.72327,0.502401 3.57629,0.705812 5.31374,0.254877 1.74641,-0.45326 3.28137,-1.548242 4.47555,-2.900757 1.19419,-1.352514 2.07075,-2.956304 2.80685,-4.603586 1.4722,-3.294563 2.46362,-6.888912 4.74813,-9.682207 2.19078,-2.678689 5.50895,-4.404023 8.96003,-4.65891 3.45107,-0.254888 6.98671,0.964243 9.54726,3.292011 2.56054,2.327769 4.11012,5.731561 4.18432,9.191243 0.0742,3.459682 -1.32803,6.926779 -3.78642,9.362186 1.84639,1.225255 4.14886,1.744942 6.34253,1.431562 2.19367,-0.31338 4.25854,-1.456971 5.688,-3.150202 1.52048,-1.801043 2.29343,-4.144637 2.52384,-6.490381 0.23042,-2.345745 -0.0483,-4.71157 -0.43204,-7.037162 -0.38371,-2.325593 -0.87331,-4.638423 -1.06911,-6.98731 -0.19581,-2.348888 -0.0878,-4.76064 0.69597,-6.983557 0.97125,-2.754756 2.9572,-5.095342 5.37781,-6.730172 2.42061,-1.63483 5.25817,-2.591108 8.14617,-3.02867 5.77601,-0.875126 11.63933,0.267185 17.41176,1.165542 6.33361,0.985691 12.73909,1.686433 18.90518,3.4373 7.26345,2.062465 14.11018,5.581235 20.01536,10.28658 l 3.38886,-5.49406 3.94964,-0.15196 11.24125,3.34198 c -0.0874,1.310875 0.35879,2.649587 1.21526,3.64583 1.08082,1.257204 2.74279,1.918788 4.39662,2.035271 1.65383,0.116483 3.3071,-0.266299 4.86983,-0.820011 1.26175,-0.447066 2.48347,-1.007025 3.6458,-1.671 0.5329,-0.947689 1.19985,-1.819865 1.97481,-2.58245 2.23118,-2.195566 5.37774,-3.426114 8.5069,-3.342 2.99705,0.08056 5.94521,1.359957 8.05116,3.49391 l 0.71564,4.45453 c 3.9382,-3.724068 8.7639,-6.503278 13.96145,-8.04067 9.11368,-2.695748 19.32874,-1.418875 27.49843,3.43728 2.97361,1.527278 5.84634,3.250918 8.59328,5.15597 3.6815,2.553183 7.13671,5.43253 10.31191,8.59327 l 8.59325,8.59325 c 3.48608,4.776303 6.3796,9.984639 8.59325,15.467849 1.78741,4.4274 3.1298,9.02281 4.87326,13.4677 1.74345,4.44489 3.92865,8.79464 7.15729,12.3121 4.79046,5.21899 11.82094,8.30893 18.90517,8.30893 7.08423,0 14.11471,-3.08994 18.90517,-8.30893 1.84565,-5.1233 4.79684,-9.84519 8.59328,-13.74924 5.9584,-6.12729 14.08041,-10.18979 22.5945,-10.93582 8.51408,-0.74604 17.34111,1.91182 23.80911,7.49851 6.29767,5.43957 10.06539,13.16201 13.7492,20.62385 1.70123,3.44598 3.41992,6.88334 5.15597,10.31191 1.35854,3.06091 3.09446,5.95411 5.15596,8.59325 4.29445,5.49778 10.01921,9.86837 16.45438,12.56216 6.43517,2.6938 13.56629,3.70474 20.49662,2.9057 7.22905,9.39446 18.31258,15.7279 30.0764,17.18652 5.54254,0.68723 11.1586,0.33612 16.73492,0.647 5.57633,0.31088 11.30553,1.36195 15.91948,4.50894 4.28046,2.91952 7.33006,7.58662 8.28492,12.67918 0.95485,5.09256 -0.19688,10.54741 -3.12895,14.81928 3.1505,3.70896 6.60293,7.16139 10.31189,10.31189 2.66527,2.26396 5.46742,4.3766 7.95239,6.83711 2.48496,2.46051 4.67038,5.32013 5.79682,8.63077 1.1273,3.31317 1.1273,6.99872 0,10.31189 l -10.31191,6.87463 c -2.55748,2.63744 -4.86288,5.51919 -6.87458,8.59325 -5.70351,8.71546 -8.97004,18.88808 -10.31192,29.2171 -0.96214,7.406 -0.96214,14.93644 0,22.34244 5.34718,-0.24676 10.75263,0.89841 15.54038,3.29229 4.78774,2.39388 8.94714,6.03115 11.95803,10.45695 3.70267,5.44267 5.60939,11.9075 6.8693,18.36854 1.25991,6.46105 1.92933,13.03536 3.44259,19.4418 2.27646,9.63751 6.41809,18.71909 9.52218,28.12273 4.65673,14.10726 6.97102,29.12579 5.42631,43.90124 -1.08264,10.35569 -4.19293,20.76743 -10.71401,28.88457 -8.04862,10.01856 -20.4349,15.61137 -29.28427,24.93019 -4.42468,4.65942 -7.97226,10.40604 -8.85647,16.77048 -0.4421,3.18222 -0.19952,6.47736 0.86718,9.50789 1.06669,3.03054 2.97411,5.78501 5.5407,7.71753 2.16129,1.62735 4.76999,2.65417 7.46066,2.93662 2.69066,0.28244 5.45572,-0.18028 7.90783,-1.32335 4.81203,6.63539 7.91904,14.49667 8.94364,22.62897 1.0246,8.13229 -0.0354,16.51857 -3.05113,24.1402 -3.01577,7.62162 -7.98104,14.46263 -14.29269,19.69207 -6.31165,5.22945 -13.95647,8.83638 -22.00588,10.38268 -2.8536,0.54818 -5.79918,0.85501 -8.4489,2.0477 -3.40435,1.53237 -6.06422,4.45224 -7.7592,7.77862 -1.69498,3.32638 -2.4889,7.04714 -2.85123,10.76285 -0.72465,7.43142 0.19735,15.06686 -1.69798,22.28897 -1.6555,6.30821 -5.44368,11.97932 -10.39868,16.21987 -4.95499,4.24055 -11.03837,7.07842 -17.39656,8.53018 -3.34632,0.76406 -6.7714,1.1553 -10.10355,1.97896 -3.33215,0.82367 -6.6361,2.12702 -9.17087,4.44145 -2.30242,2.10227 -3.84682,4.93761 -4.78759,7.91009 -0.94077,2.97248 -1.31042,6.09447 -1.53958,9.20384 -0.45832,6.21875 -0.4382,12.73309 -3.32694,18.25921 -2.44635,4.67984 -6.76501,8.14329 -11.42508,10.62711 -4.66007,2.48381 -9.71908,4.10623 -14.64328,6.01354 -14.08575,5.45589 -27.22705,13.34067 -38.66966,23.2018 L 90.919581,581.80145"
         id="path7569"
         inkscape:path-effect="#path-effect3812-7-1-8-1-8-4-4-1-8-4-8-4"
         inkscape:original-d="m 90.919581,581.80145 c 0,0 -37.343666,-36.68044 -40.388306,-50.70017 -3.044592,-14.01978 12.030576,-15.46788 5.155968,-20.62385 -6.874608,-5.15595 -3.733126,4.36232 -8.593272,0.85932 -4.860123,-3.503 -9.23589,-18.12458 -6.015288,-26.63911 4.500164,-11.89746 36.836529,-11.07385 30.935761,-22.34245 -2.395524,-4.57465 -14.608537,5.15597 -14.608537,5.15597 L 47.093971,465.7925 35.063395,455.48056 c 0,0 3.437304,8.59327 -6.874609,-8.59325 -10.311912,-17.18652 -30.5557626,-31.3284 -22.3424409,-46.40359 3.3145846,-6.0838 20.6237769,-2.57798 20.6237769,-2.57798 0,0 -5.15592,-0.85932 -10.311865,-16.32721 C 11.002289,366.11068 2.4090174,335.17496 5.8463451,324.863 9.2836493,314.55109 33.078779,324.14826 40.219363,314.55109 c 5.813497,-7.81354 5.155944,-8.59325 0,-29.21705 -5.155968,-20.62382 -5.155968,-20.62382 -8.593249,-27.49845 -3.437328,-6.87461 -3.437328,-22.34247 -3.437328,-22.34247 0,0 -11.404524,-22.55454 -5.155944,-30.93571 5.521362,-7.4058 27.498409,-3.43731 27.498409,-3.43731 l 13.749264,1.71864 12.030529,0 c 0,0 -1.71864,-13.74921 6.874608,-15.46788 8.593249,-1.71864 13.749241,-3.4373 13.749241,-3.4373 0,0 1.71864,3.4373 10.311887,3.4373 8.59325,0 10.31191,-3.4373 10.31191,-3.4373 l 1.71867,-17.1865 3.43733,-8.59325 c 0,0 -6.87466,-3.43732 8.59322,-6.87463 15.46788,-3.43728 18.90518,-3.43728 18.90518,-3.43728 l 0,0 18.90517,12.03053 17.18654,-3.43728 c -29.56805,-24.96058 -1.92622,-33.22712 -5.15599,-39.52901 -8.59327,-15.46786 -17.30385,-19.129309 -13.74922,-24.061109 3.55464,-4.93179 14.1977,6.13503 20.62387,3.43731 6.44778,-2.70683 -2e-5,-17.18655 12.03053,-17.18655 12.03058,0 18.90519,17.18653 18.90519,17.18653 0,0 10.31189,18.905179 12.03053,-1.71864 1.71866,-20.62381 -6.87459,-22.34247 1.71866,-27.49841 8.59325,-5.156 17.18654,-8.5933 30.93574,-8.5933 13.74924,0 6.87461,0 18.90518,3.4373 12.03053,3.43731 20.01536,10.28658 20.01536,10.28658 4.60414,0.73419 3.38886,-5.49406 3.38886,-5.49406 l 3.94964,-0.15196 11.24125,3.34198 c 0,0 -0.30383,3.19009 1.21526,3.64583 1.51909,0.45571 7.29161,1.8229 9.26645,1.21526 1.9748,-0.60764 3.6458,-1.671 3.6458,-1.671 0,0 -0.60764,-0.91145 1.97481,-2.58245 2.58245,-1.671 5.1649,-3.4939 8.5069,-3.342 3.342,0.15195 8.05116,3.49391 8.05116,3.49391 l 0.71564,4.45453 c 10.52415,-6.32203 7.08684,-6.32203 13.96145,-8.04067 6.87459,-1.71869 27.49843,3.43728 27.49843,3.43728 0,0 1.71867,-1.71864 8.59328,5.15597 6.87461,6.87461 10.31191,8.59327 10.31191,8.59327 l 8.59325,8.59325 c 0,0 0,-6.87463 8.59325,15.467849 8.59325,22.34247 -6.87461,20.62381 12.03055,25.7798 18.90521,5.15594 37.81034,0 37.81034,0 0,0 -3.43728,-10.31194 8.59328,-13.74924 12.03055,-3.43731 37.81037,-8.59328 46.40361,-3.43731 8.59323,5.15595 10.31189,12.03056 13.7492,20.62385 3.4373,8.59325 5.15597,10.31191 5.15597,10.31191 0,0 -8.59328,5.15595 5.15596,8.59325 13.7492,3.43728 36.951,15.46786 36.951,15.46786 0,0 7.73393,13.74922 30.0764,17.18652 22.34251,3.43728 27.49846,-6.87461 32.6544,5.15594 5.15597,12.0306 5.15597,27.49846 5.15597,27.49846 0,0 1.71864,8.59325 10.31189,10.31189 8.59324,1.71866 12.03057,8.59325 13.74921,15.46788 1.71864,6.87461 0,10.31189 0,10.31189 l -10.31191,6.87463 c 0,0 -3.4373,1.71864 -6.87458,8.59325 -3.43733,6.87463 -6.87461,12.03058 -10.31192,29.2171 -3.4373,17.18649 0,22.34244 0,22.34244 0,0 17.1865,-5.15595 27.49841,13.74924 10.31189,18.90516 10.31189,24.0611 10.31189,37.81034 0,13.7492 9.52218,0.62429 9.52218,28.12273 0,27.49843 0.38135,32.79024 5.42631,43.90124 9.7232,21.41435 1.31657,-10.64441 -10.71401,28.88457 -12.03055,39.52899 -24.85828,43.45821 -31.73286,58.92609 -6.87461,15.46786 15.36849,1.61327 15.36849,1.61327 0,0 -20.09412,63.0947 -30.40606,76.84392 -10.31193,13.74921 -8.4489,-22.01343 -8.4489,2.0477 0,24.06111 -10.58977,32.23714 -12.30841,40.83044 -1.71866,8.5932 -12.32738,16.15685 -27.79524,24.75005 -15.46788,8.5933 -12.87083,-0.47909 -19.27442,6.42041 -6.40359,6.89951 -3.04415,26.27849 -9.65411,35.37314 -6.60996,9.09465 -10.60048,13.20335 -26.06836,16.64065 -15.46786,3.4373 -38.66966,23.2018 -38.66966,23.2018 z"
         inkscape:connector-curvature="0"
         sodipodi:nodetypes="czszsacccsacssasscacccscscccscccccsazcssssccccsscssccscsccsscssscscsscssccsscsssssscsssszzscc" />
      <path
         style="fill:#c87137;fill-opacity:1;stroke:none;display:inline"
         d="m 86.281707,504.72502 10.121983,-38.2916 0.38196,-54.81143 10.69492,-44.97593 24.92295,-24.4455 c 3.67805,-5.02724 9.81308,-8.1633 16.04203,-8.20026 6.22895,-0.037 12.40075,3.02608 16.1382,8.00932 2.55605,3.40805 3.97307,7.55605 6.48733,10.99505 1.25712,1.7195 2.80895,3.26555 4.70212,4.24175 1.89317,0.9762 4.15511,1.34025 6.18979,0.71007 1.52635,-0.47274 2.85399,-1.47625 3.88254,-2.69909 1.02854,-1.22284 1.77503,-2.65994 2.37605,-4.14049 1.20203,-2.96109 1.86423,-6.15991 3.48141,-8.9163 1.24069,-2.11468 3.01692,-3.89925 5.07392,-5.23339 2.05701,-1.33413 4.38994,-2.22322 6.79602,-2.69434 4.81217,-0.94224 9.83423,-0.21402 14.48538,1.3389 10.08048,3.36565 18.71751,10.63777 24.15903,19.76649 1.76876,2.96728 3.22235,6.14354 4.05725,9.49558 0.83489,3.35205 1.03797,6.88868 0.3353,10.27091 -0.6073,2.9232 -1.89585,5.71155 -3.78777,8.02122 -1.89192,2.30967 -4.38956,4.13115 -7.19361,5.15644 -3.50928,1.28316 -7.47209,1.28316 -10.98137,0 -3.54761,-3.10183 -6.53769,-6.83943 -8.78512,-10.9814 -2.21956,-4.09061 -3.71383,-8.57343 -4.39254,-13.17766 -2.5117,2.09561 -4.46734,4.85171 -5.61591,7.91456 -1.14856,3.06284 -1.48737,6.42525 -0.97292,9.65567 0.85641,5.37776 4.15042,10.31876 8.78511,13.17766 7.51375,3.1812 15.7165,4.72332 23.87255,4.48804 6.1797,-0.17827 12.39166,-1.39183 17.93386,-4.13124 5.54221,-2.73942 10.38693,-7.07234 13.19599,-12.57958 1.64121,-3.21764 2.54148,-6.82006 2.51509,-10.432 -0.0264,-3.61194 -1.02359,-7.13846 -2.13313,-10.57586 l -4.87,-15.08746 -17.57023,-24.15903 6.58883,-15.37395 13.17766,0 13.17766,13.17766 2.19628,13.17766 c 1.04392,6.26353 2.09542,12.55306 4.03929,18.59814 1.94388,6.04507 4.8266,11.88073 9.13837,16.5423 4.85252,5.2462 11.42169,8.82969 18.41464,10.30219 6.99295,1.47251 14.37931,0.86094 21.11834,-1.5171 6.03365,-2.12913 11.67135,-5.76322 15.37392,-10.98138 3.57544,-5.03899 5.17606,-11.44148 4.39257,-17.5702 l -4.39257,-13.17766 0,15.37394 -13.17766,6.58881 c -4.86606,1.8962 -10.17156,2.65413 -15.37392,2.19628 -3.8893,-0.34229 -7.73852,-1.36696 -11.18614,-3.19939 -3.44761,-1.83243 -6.48382,-4.48829 -8.58035,-7.78198 -2.07492,-3.25975 -3.19849,-7.11729 -3.19849,-10.98139 0,-3.8641 1.12357,-7.72164 3.19849,-10.98139 l 13.17766,-13.17766 19.76649,-15.37392 17.57021,-2.19628 c 5.82083,-0.79375 11.74937,-0.79375 17.5702,0 17.38986,2.37134 33.6497,12.12725 43.92553,26.35532 -0.62833,4.36255 -0.62833,8.81511 0,13.17766 1.43033,9.93093 6.02362,19.07431 10.13527,28.22655 4.11166,9.15224 7.86332,18.85238 7.43496,28.87663 -0.26317,6.15847 -2.10265,12.14295 -4.31022,17.89818 -2.20756,5.75523 -4.79948,11.36921 -6.67118,17.24226 -1.2533,3.93261 -2.18244,7.99725 -2.32695,12.12221 -0.14451,4.12497 0.5212,8.32529 2.32695,12.03682 2.09822,4.31266 5.736,7.85642 10.10211,9.84101 4.36611,1.9846 9.42804,2.39524 14.05695,1.14037 l 17.5702,30.74786 c 11.1578,-0.59671 22.49247,3.45139 30.74787,10.9814 4.68534,4.27364 8.37713,9.59167 10.98137,15.37392 3.62547,8.04971 5.15126,17.03431 4.38645,25.82959 -0.7648,8.79528 -3.8185,17.38166 -8.77899,24.68477 -2.9793,5.80887 -4.42811,12.39424 -4.16187,18.91715 0.26624,6.5229 2.24691,12.96829 5.6897,18.51504 4.33198,6.97935 10.98727,12.48889 18.65273,15.44154 7.66546,2.95265 16.29705,3.33144 24.1917,1.06165 -5.64137,1.13199 -11.65344,0.32429 -16.79601,-2.25649 -5.10197,-2.5604 -9.30006,-6.82404 -11.94458,-11.88292 -2.64452,-5.05887 -3.74884,-10.88266 -3.32415,-16.57523 0.4247,-5.69257 2.35711,-11.24365 5.40271,-16.0717 3.0456,-4.82805 7.18808,-8.93652 11.93912,-12.10091 7.99827,-5.32719 17.77195,-7.94891 27.35995,-7.29963 6.27599,0.425 12.47389,2.23377 17.90727,5.40347 5.43339,3.1697 10.08502,7.70975 13.23668,13.15362 4.03667,6.97255 5.52241,15.27227 4.83819,23.29991 -0.68423,8.02764 -3.46188,15.79173 -7.42505,22.80632 -6.07121,10.74571 -14.89679,19.86136 -20.0137,31.09288 -4.04628,8.88149 -5.58235,18.67417 -8.6068,27.95349 -1.51222,4.63967 -3.41541,9.18602 -6.11199,13.25318 -2.69657,4.06716 -6.22211,7.65243 -10.51114,9.97998 -4.61834,2.50626 -10.05595,3.4721 -15.2549,2.70961 -5.19895,-0.7625 -10.13021,-3.24908 -13.83438,-6.97595 l 1.94418,-9.62985 -4.39255,26.3553 -2.19628,41.7293 c -3.33708,8.19483 -7.00143,16.25638 -10.98138,24.159 -6.49933,12.90512 -13.841,25.38595 -21.96277,37.3367 l -26.35532,32.9442 -24.15904,24.159 -21.96275,17.5702 c -24.15686,9.27109 -48.84775,17.15048 -73.90947,23.5861 -24.36977,6.25793 -49.32656,11.1733 -74.48245,10.6949 -13.6817,-0.26019 -27.33224,-2.12308 -40.58336,-5.5384 -8.90611,-5.74526 -16.72354,-13.17183 -22.91766,-21.7718 -7.11177,-9.87405 -12.01287,-21.13242 -16.90178,-32.2757 -5.89108,-13.42751 -11.84339,-26.82817 -17.85667,-40.2014 -6.3897,-8.17286 -12.47487,-16.5838 -18.23865,-25.2095 -6.01275,-8.9983 -11.67452,-18.22829 -17.09275,-27.5966 -12.77991,-22.09691 -24.327858,-45.30403 -29.539959,-70.2927 -2.061775,-9.88488 -3.111864,-19.97191 -3.308723,-30.0676 -0.314391,-16.12326 1.538693,-32.20554 3.64061,-48.19429 0.994931,-7.56819 2.04632,-15.12895 3.154051,-22.68145 l 0.958621,-39.21346 -7.826493,-24.83858 0.83713,-37.33671"
         id="path7571"
         inkscape:path-effect="#path-effect2999-8-1-7-7-6-8-8-2-4-7-2-6-0"
         inkscape:original-d="m 86.281707,504.72502 10.121983,-38.2916 0.38196,-54.81143 10.69492,-44.97593 24.92295,-24.4455 c 0,0 22.17246,-4.05251 32.18023,-0.19094 7.33517,2.83032 9.59098,17.02325 17.37924,15.94687 6.11631,-0.84531 4.75468,-12.11301 9.74,-15.75588 7.31149,-5.34264 16.8604,-8.71583 26.35532,-6.58883 9.49492,2.12699 19.66215,12.46254 24.15903,19.76649 4.49688,7.30395 5.86242,13.70857 4.39255,19.76649 -1.46987,6.05792 -6.73495,11.18874 -10.98138,13.17766 -4.24643,1.98891 -10.98137,0 -10.98137,0 0,0 -6.55868,-6.88891 -8.78512,-10.9814 -2.22643,-4.0925 -4.39254,-13.17766 -4.39254,-13.17766 0,0 -7.30419,11.35627 -6.58883,17.57023 0.60377,5.24456 8.78511,13.17766 8.78511,13.17766 0,0 14.0522,6.00656 23.87255,4.48804 9.82035,-1.51853 26.23631,-8.69617 31.12985,-16.71082 4.89354,-8.01465 0.38196,-21.00786 0.38196,-21.00786 l -4.87,-15.08746 -17.57023,-24.15903 6.58883,-15.37395 13.17766,0 13.17766,13.17766 2.19628,13.17766 c 0,0 3.36098,26.61102 13.17766,35.14044 9.81669,8.52942 29.83344,10.75926 39.53298,8.78509 9.69955,-1.97417 11.90297,-5.88347 15.37392,-10.98138 3.47096,-5.0979 4.39257,-17.5702 4.39257,-17.5702 l -4.39257,-13.17766 0,15.37394 -13.17766,6.58881 c 0,0 -4.39254,4.39257 -15.37392,2.19628 -10.98137,-2.19628 -15.94408,-4.48516 -19.76649,-10.98137 -3.71263,-6.30969 0,-21.96278 0,-21.96278 l 13.17766,-13.17766 19.76649,-15.37392 17.57021,-2.19628 c 0,0 -13.17766,-4.39255 17.5702,0 30.74789,4.39254 43.92553,26.35532 43.92553,26.35532 0,0 -4.39255,2.19628 0,13.17766 4.39257,10.98137 17.57023,46.12181 17.57023,57.10318 0,10.98138 -10.9814,24.15904 -10.9814,35.14044 0,10.98137 -19.76647,17.5702 0,24.15903 19.76649,6.58883 24.15906,10.98138 24.15906,10.98138 l 17.5702,30.74786 c 0,0 21.96278,8.78512 30.74787,10.9814 8.78511,2.19626 10.98137,8.78509 10.98137,15.37392 0,6.58883 -4.39254,50.51436 -4.39254,50.51436 0,0 -7.25726,30.84336 1.52783,37.43219 8.78512,6.58883 42.84443,16.50319 42.84443,16.50319 0,0 -19.75299,3.82414 -16.79601,-2.25649 2.95698,-6.08063 -0.12318,-47.84567 2.0731,-56.63076 2.19626,-8.78511 22.11373,-10.00415 27.35995,-7.29963 6.53958,3.37132 43.30114,19.55792 31.14395,18.55709 -12.15719,-1.00083 2.08485,31.58311 -2.58686,46.10623 -3.81996,11.87521 -16.29396,23.67548 -20.0137,31.09288 -3.71974,7.4174 -21.93001,49.04 -25.22993,51.18665 -3.29992,2.14665 -29.08928,-4.26634 -29.08928,-4.26634 l 1.94418,-9.62985 -4.39255,26.3553 c 1.36187,16.15298 -7.55814,27.7534 -2.19628,41.7293 0,0 -6.58883,15.3739 -10.98138,24.159 -4.39254,8.7851 -21.96277,37.3367 -21.96277,37.3367 l -26.35532,32.9442 -24.15904,24.159 -21.96275,17.5702 c -29.87473,15.19857 -46.96258,18.08938 -73.90947,23.5861 -8.78511,2.1963 -63.50105,10.6949 -74.48245,10.6949 -10.98137,0 -40.58336,-5.5384 -40.58336,-5.5384 0,0 -16.56845,-13.3627 -22.91766,-21.7718 -7.31789,-9.6921 -11.61714,-21.3413 -16.90178,-32.2757 -6.38054,-13.2019 -17.85667,-40.2014 -17.85667,-40.2014 0,0 -12.4645,-16.5936 -18.23865,-25.2095 -6.02394,-8.9885 -8.78748,-11.4942 -17.09275,-27.5966 -8.30527,-16.1025 -25.084766,-53.1116 -29.539959,-70.2927 -4.455192,-17.1812 -3.308723,-30.0676 -3.308723,-30.0676 0,0 1.925537,-32.18991 3.64061,-48.19429 0.814137,-7.59721 3.154051,-22.68145 3.154051,-22.68145 l 0.958621,-39.21346 -7.826493,-24.83858 z"
         inkscape:connector-curvature="0"
         sodipodi:nodetypes="cccccasazzzzczcaczzccccccczzzccccsaccccscssssccsscsczsscazzccccscccccscaacazzcacccc" />
      <path
         sodipodi:nodetypes="czcssc"
         inkscape:connector-curvature="0"
         id="path7573"
         d="m 389.39856,577.56372 c -26.06716,17.85409 -18.08703,24.65787 -37.36448,28.4999 -19.27745,3.84204 -40.22068,3.0679 -71.6939,-6.8273 -12.02068,-2.54438 -6.86963,-0.64507 -3.22752,-12.29086 3.64212,-11.64578 10.55975,-18.04784 29.63409,-20.827 19.07434,-2.77916 44.62989,-5.17509 82.65181,11.44526 z"
         style="fill:#ffffff;fill-opacity:1;stroke:none" />
      <path
         sodipodi:type="arc"
         style="fill:#28170b;fill-opacity:1;stroke:none"
         id="path7575"
         sodipodi:cx="385.6362"
         sodipodi:cy="431.92328"
         sodipodi:rx="9.3299084"
         sodipodi:ry="7.9101396"
         d="m 394.96611,431.92328 a 9.3299084,7.9101396 0 1 1 -18.65982,0 9.3299084,7.9101396 0 1 1 18.65982,0 z"
         transform="matrix(2.3117984,0,0,2.3833697,-554.48177,-447.06009)" />
      <path
         style="fill:#150b02;fill-opacity:0.97058835;stroke:none"
         d="m 286.0282,597.39802 -10.74249,-2.23677 c 6.13678,-10.18118 15.32629,-18.49551 26.06884,-23.5861 16.22968,-7.69079 35.90803,-7.69079 52.13771,0 l 14.89646,8.68961 9.931,7.44825 12.41374,-3.72412 6.20687,-14.89649 -9.931,3.72412 c -6.33504,-2.14478 -12.55401,-4.63237 -18.62061,-7.44825 -8.10665,-3.7628 -16.06817,-8.15575 -24.82746,-9.93096 -9.72541,-1.97101 -19.87035,-0.56961 -29.38838,2.23676 -11.05402,3.25926 -21.65339,8.48167 -30.23432,16.17464 -7.77377,6.96934 -13.77091,15.90459 -17.27558,25.73925 l 6.16233,-0.11048 6.46728,0.89525 c 4.47426,1.09345 8.93236,2.253 13.37236,3.47814 4.42703,1.22156 8.83607,2.50833 13.22521,3.85975 l 14.40454,-1.41377 -9.00916,-1.2046 c -4.14297,-1.22444 -8.28093,-2.46583 -12.41374,-3.72413 -4.28679,-1.30519 -8.56804,-2.62857 -12.8436,-3.9701"
         id="path7577"
         inkscape:path-effect="#path-effect3005-1-8-1-4-4-8-2-6-0-3-4-7-5-7"
         inkscape:original-d="m 286.0282,597.39802 -10.74249,-2.23677 c 0,0 8.68962,-19.86198 26.06884,-23.5861 17.37923,-3.72413 52.13771,0 52.13771,0 l 14.89646,8.68961 9.931,7.44825 12.41374,-3.72412 6.20687,-14.89649 -9.931,3.72412 c 0,0 -13.65511,-4.9655 -18.62061,-7.44825 -4.96549,-2.48274 -16.01727,-8.57897 -24.82746,-9.93096 -9.71079,-1.49022 -19.95637,-0.51225 -29.38838,2.23676 -10.97308,3.19818 -21.75895,8.50619 -30.23432,16.17464 -7.66224,6.93274 -17.27558,25.73925 -17.27558,25.73925 l 6.16233,-0.11048 6.46728,0.89525 13.37236,3.47814 13.22521,3.85975 14.40454,-1.41377 -9.00916,-1.2046 -12.41374,-3.72413 z"
         inkscape:connector-curvature="0"
         sodipodi:nodetypes="ccsccccccsaaaccccccccc" />
      <path
         style="fill:#150b02;fill-opacity:0.97058835;stroke:none"
         d="m 239.73184,527.73167 -0.31952,6.39077 c 0.37026,2.13676 1.13224,4.20501 2.23676,6.07125 1.3543,2.28828 3.22494,4.26896 5.43216,5.7517 l 5.7517,1.27815 13.10109,-5.11263 c 6.92483,-8.10677 14.89308,-15.32126 23.64587,-21.40909 5.84804,-4.06748 12.09405,-7.6555 18.85279,-9.9057 8.99767,-2.99561 18.6868,-3.53481 28.11941,-2.55632 6.67447,0.69238 13.24657,2.12531 19.81139,3.51494 8.36929,1.7716 16.77065,3.48167 24.92404,6.07122 6.83413,2.17055 13.47326,4.9547 19.81139,8.30802 l 12.46202,7.66894 c 1.65481,1.75267 3.35995,3.4578 5.11263,5.1126 1.15141,1.0871 2.32332,2.15249 3.51491,3.19539 l 6.07125,2.23679 0.31952,-9.58616 c -8.54215,-11.80418 -19.47999,-21.86699 -31.95386,-29.39757 -5.59364,-3.37693 -11.48933,-6.24818 -17.57463,-8.62757 -10.67943,-4.17572 -21.90771,-6.82581 -33.23205,-8.62753 -13.25739,-2.10927 -27.0322,-3.04006 -39.94233,0.63907 -7.31141,2.0836 -14.12321,5.5832 -21.08956,8.62756 -7.12702,3.11458 -14.46139,5.77028 -21.40911,9.26661 -5.39322,2.71405 -10.53493,5.92762 -15.33785,9.58616 l -8.30802,11.5034"
         id="path7579"
         inkscape:path-effect="#path-effect3779-7-2-5-0-0-5-4-5-9-9-2-7-0-6"
         inkscape:original-d="m 239.73184,527.73167 -0.31952,6.39077 c 0,0 0.95859,4.47356 2.23676,6.07125 1.27815,1.59769 5.43216,5.7517 5.43216,5.7517 l 5.7517,1.27815 13.10109,-5.11263 c 3.14151,-14.0932 11.51649,-15.24813 23.64587,-21.40909 0,0 17.2551,-9.58615 18.85279,-9.9057 1.5977,-0.31955 26.52171,-2.23677 28.11941,-2.55632 1.59769,-0.31952 19.81139,3.51494 19.81139,3.51494 0,0 23.32635,5.43215 24.92404,6.07122 1.59769,0.6391 19.81139,8.30802 19.81139,8.30802 l 12.46202,7.66894 5.11263,5.1126 3.51491,3.19539 6.07125,2.23679 0.31952,-9.58616 c -7.33046,-14.68188 -19.00337,-20.9642 -31.95386,-29.39757 -2.55632,-1.5977 -14.37924,-7.3494 -17.57463,-8.62757 -3.19541,-1.27814 -26.84126,-7.66891 -33.23205,-8.62753 -6.39077,-0.95862 -34.82973,-1.5977 -39.94233,0.63907 -5.11263,2.23676 -15.65741,6.39077 -21.08956,8.62756 -5.43217,2.23677 -17.2551,7.34939 -21.40911,9.26661 -4.154,1.91724 -15.33785,9.58616 -15.33785,9.58616 z"
         inkscape:connector-curvature="0"
         sodipodi:nodetypes="ccsccccsccccccccccssssscc" />
      <path
         style="fill:#150b02;fill-opacity:0.97058835;stroke:none"
         d="m 153.85366,514.02241 5.87549,6.50126 c 1.81558,0.87984 3.35086,2.32764 4.33558,4.08854 0.98471,1.76091 1.41442,3.82695 1.21347,5.83446 -0.20308,2.02881 -1.03878,3.97123 -2.26329,5.60154 -1.2245,1.63031 -2.82765,2.95636 -4.59144,3.97928 -3.42346,1.98546 -7.49154,2.83546 -11.42452,2.39519 -3.11365,-0.34855 -6.10138,-1.47808 -8.85553,-2.97171 -2.75415,-1.49363 -5.29398,-3.34885 -7.79164,-5.2404 -3.84777,-2.91404 -7.61809,-5.92867 -11.42454,-8.89647 -3.95541,-3.08394 -8.13784,-6.20494 -13.0566,-7.18563 -2.93921,-0.58601 -5.971839,-0.36778 -8.963223,-0.5521 -1.495692,-0.0922 -2.993169,-0.28733 -4.425553,-0.72763 -1.432383,-0.4403 -2.802368,-1.13402 -3.911221,-2.142 -1.592476,-1.44761 -2.586576,-3.5346 -2.707155,-5.68333 -0.120579,-2.14872 0.633787,-4.33383 2.054305,-5.95052 l 3.590579,-9.58081 8.160363,-1.36868 c 4.603125,-0.3345 9.263295,0.13075 13.709445,1.36868 5.07731,1.41366 9.81721,3.80541 14.68869,5.81694 4.13709,1.70829 8.39062,3.15057 12.40377,5.13258 4.94083,2.44018 9.48058,5.69015 13.38302,9.58081"
         id="path7581"
         inkscape:path-effect="#path-effect3783-4-4-2-9-0-7-5-0-7-8-7-9-2-3"
         inkscape:original-d="m 153.85366,514.02241 5.87549,6.50126 c 0,0 6.85471,6.15911 5.54905,9.923 -1.30565,3.7639 -3.91698,8.5543 -6.85473,9.58082 -2.93773,1.02651 -9.79244,2.39519 -11.42452,2.39519 -1.63207,0 -15.01512,-6.15909 -16.64717,-8.21211 -1.63208,-2.05303 -7.18114,-6.15909 -11.42454,-8.89647 -4.24341,-2.73738 -9.46604,-5.81695 -13.0566,-7.18563 -3.59058,-1.36868 -15.66792,-3.42173 -17.299997,-3.42173 -1.632078,0 -0.65285,-11.63385 -0.65285,-11.63385 l 3.590579,-9.58081 8.160363,-1.36868 c 0,0 12.403765,0.68435 13.709445,1.36868 1.30565,0.68437 13.05662,5.47476 14.68869,5.81694 1.63208,0.34217 10.7717,4.44825 12.40377,5.13258 1.63208,0.68435 13.38302,9.58081 13.38302,9.58081 z"
         inkscape:connector-curvature="0" />
      <path
         sodipodi:nodetypes="czcssc"
         inkscape:connector-curvature="0"
         id="path7583"
         d="m 89.743259,556.87368 c 33.455411,14.63617 4.857877,37.4759 32.431991,45.04211 27.57411,7.56621 9.19163,5.78381 39.82675,-5.4829 11.79834,-3.07029 6.80665,-0.94701 2.2493,-12.41175 -4.55746,-11.46473 -8.86263,-27.13663 -28.12353,-29.06919 -19.261,-1.93266 -24.66725,3.01749 -46.384511,1.92173 z"
         style="fill:#ffffff;fill-opacity:1;stroke:none" />
      <path
         sodipodi:type="arc"
         style="fill:#28170b;fill-opacity:1;stroke:none"
         id="path7585"
         sodipodi:cx="298.0162"
         sodipodi:cy="430.97678"
         sodipodi:rx="5.8142905"
         sodipodi:ry="6.2875466"
         d="m 303.8305,430.97678 a 5.8142905,6.2875466 0 1 1 -11.62859,0 5.8142905,6.2875466 0 1 1 11.62859,0 z"
         transform="matrix(3.484659,0,0,2.9656756,-900.39221,-700.3247)" />
      <path
         style="fill:#150b02;fill-opacity:0.97058835;stroke:none"
         d="m 89.321541,549.54963 0,3.47873 c 0,1.18552 0.04675,2.39699 0.478569,3.50106 0.431821,1.10408 1.233118,2.06651 2.263041,2.65363 l 2.953822,3.45959 4.486222,1.9114 c 6.254745,-2.97712 13.014705,-4.88938 19.902135,-5.62992 5.76484,-0.61984 11.61711,-0.42087 17.32654,0.58907 6.95009,0.48971 13.69253,3.52645 18.66518,8.40665 2.73202,2.68123 4.93685,5.89761 6.45243,9.41272 0.79367,2.24896 1.59678,4.49458 2.4093,6.73679 1.29612,3.57672 2.61619,7.14475 3.96011,10.70378 -1.91361,-1.18106 -4.14864,-1.83551 -6.39706,-1.87315 -2.70893,-0.0453 -5.42529,0.81366 -7.61558,2.40833 l -10.64895,5.68844 c -7.33198,1.29989 -14.87434,1.40548 -22.23983,0.31133 -1.27941,-0.19006 -2.55349,-0.41601 -3.82024,-0.6775 l -11.99216,-8.92276 7.55758,7.94146 5.72178,3.45672 c 6.90506,3.69483 15.18079,4.7521 22.79297,2.91192 1.89524,-0.45816 3.74448,-1.08704 5.62249,-1.61137 0.66781,-0.18645 1.34149,-0.36951 1.96396,-0.67492 0.62246,-0.3054 1.17063,-0.74066 1.69154,-1.19825 l 1.82772,-1.60556 c 1.03867,-0.48941 2.05543,-1.02531 3.04623,-1.60556 1.60134,-0.93781 3.14675,-1.99735 4.87397,-2.67594 2.93076,-1.15144 6.31036,-1.11069 9.21251,0.11107 l -1.67083,-8.06608 c -0.41035,-1.98101 -0.77073,-3.97184 -1.14458,-5.96006 -0.36568,-1.9448 -0.77633,-3.88172 -1.2672,-5.79876 -0.51562,-2.0137 -1.11943,-4.00418 -1.77904,-5.97541 -1.25695,-3.75636 -2.77767,-7.54306 -5.4832,-10.43619 -2.77044,-2.96254 -6.55325,-4.74444 -10.30182,-6.29369 -2.348,-0.97041 -4.73223,-1.88056 -7.2094,-2.44485 -2.84303,-0.64763 -5.7712,-0.83115 -8.68636,-0.89486 -2.95875,-0.0647 -5.92191,-0.008 -8.87097,0.23979 -3.81086,0.32022 -7.60546,0.96257 -11.25262,2.11296 -4.08235,1.28766 -8.09918,3.22967 -12.378811,3.13815 -1.814779,-0.0388 -3.620692,-0.45317 -5.270865,-1.20938 l -2.741586,-2.40837 -2.436997,-3.21101"
         id="path7587"
         inkscape:path-effect="#path-effect3787-0-5-7-4-5-6-5-9-3-8-79-3-8-6"
         inkscape:original-d="m 89.321541,549.54963 c 0,0 0,2.40833 0,3.47873 0,1.07037 2.74161,6.15469 2.74161,6.15469 l 2.953822,3.45959 4.486222,1.9114 c 0,0 14.695785,-5.77762 19.902135,-5.62992 1.21798,0.0345 17.32654,0.58907 17.32654,0.58907 0,0 16.83743,6.26588 18.66518,8.40665 1.82772,2.14075 6.45243,9.41272 6.45243,9.41272 0,0 1.80007,5.13121 2.4093,6.73679 0.60925,1.60556 3.96011,10.70378 3.96011,10.70378 0,0 -5.17859,-1.87315 -6.39706,-1.87315 -1.21852,0 -7.61558,2.40833 -7.61558,2.40833 l -10.64895,5.68844 c 0,0 5.11023,-5.64385 -22.23983,0.31133 -14.76037,2.99045 -3.82024,-0.6775 -3.82024,-0.6775 -6.83193,-3.19877 -3.60513,-3.62475 -11.99216,-8.92276 3.12047,0.88926 5.46886,9.39584 7.55758,7.94146 1.82772,1.33798 5.72178,3.45672 5.72178,3.45672 0,0 21.57447,2.91192 22.79297,2.91192 1.21847,0 3.49013,-1.07618 5.62249,-1.61137 2.13236,-0.53519 3.6555,-1.87317 3.6555,-1.87317 l 1.82772,-1.60556 c 0,0 2.437,-0.53519 3.04623,-1.60556 0.60924,-1.0704 1.52311,-1.8732 4.87397,-2.67594 3.35086,-0.8028 9.21251,0.11107 9.21251,0.11107 l -1.67083,-8.06608 c 0,0 -0.83999,-4.35447 -1.14458,-5.96006 -0.30463,-1.60558 -0.65797,-2.85519 -1.2672,-5.79876 -0.60924,-2.94354 0.0487,-3.03187 -1.77904,-5.97541 -1.82775,-2.94354 -3.96009,-9.36582 -5.4832,-10.43619 -1.52314,-1.07038 -6.09188,-3.89928 -10.30182,-6.29369 -5.16015,-2.93485 -4.46781,-1.64205 -7.2094,-2.44485 -2.74163,-0.80277 -5.03089,-0.35967 -8.68636,-0.89486 -3.65549,-0.53519 -3.08316,-1.09819 -8.87097,0.23979 -5.78785,1.33796 -6.68328,1.57775 -11.25262,2.11296 -4.56933,0.53519 -9.6372,3.13815 -12.378811,3.13815 -2.74161,0 -5.270865,-1.20938 -5.270865,-1.20938 l -2.741586,-2.40837 z"
         inkscape:connector-curvature="0"
         sodipodi:nodetypes="cscccscscscscccccccssccsscccsssssssssccc" />
      <path
         style="fill:#c83737;fill-opacity:1;stroke:none"
         d="m 157.06858,774.19348 c 3.54932,-2.35069 7.56863,-3.98861 11.75001,-4.78827 4.49144,-0.85896 9.16522,-0.74814 13.61225,0.31712 3.33362,0.79855 6.53908,2.12961 9.4578,3.92732 2.16576,-1.67006 4.67892,-2.88748 7.33192,-3.55173 4.29238,-1.07471 8.80237,-0.69431 13.19852,-0.19091 6.067,0.69473 12.16184,1.62415 17.88079,3.76534 3.88425,1.45428 7.56152,3.46016 10.88706,5.93869 2.43463,2.05597 5.12594,3.80767 7.99154,5.20149 4.07653,1.98281 8.46457,3.22763 12.82332,4.473 4.19278,1.19795 8.39757,2.40884 12.71029,3.05297 8.04548,1.20164 16.38566,0.37624 24.03953,-2.37912 1.21918,0.72334 2.23131,1.79137 2.88814,3.04762 0.65683,1.25626 0.95634,2.69688 0.85464,4.11084 -0.11254,1.56467 -0.71847,3.09023 -1.71018,4.30571 l -33.45684,14.90047 c -2.60951,3.41952 -5.61184,6.53903 -8.92901,9.27747 -3.55808,2.93732 -7.46756,5.42965 -11.5239,7.62826 -3.43145,1.85991 -7.00726,3.52595 -10.81002,4.40523 -6.60564,1.52736 -13.51878,0.60626 -20.174,-0.68808 -5.3298,-1.03656 -10.61381,-2.30856 -15.83145,-3.81103 l -13.08646,-4.02741 c -1.75619,-0.54047 -3.50922,-1.13758 -5.09914,-2.0587 -1.58992,-0.92112 -3.00341,-2.13048 -4.22735,-3.50098 -3.28598,-3.67945 -5.26534,-8.50286 -5.51116,-13.42989 l 2.1984,-7.54959 c 0.13867,-1.82057 -0.46202,-3.68675 -1.63662,-5.08461 -1.00726,-1.19871 -2.38278,-2.02914 -3.79141,-2.71271 -1.40863,-0.68356 -2.87902,-1.24413 -4.23763,-2.02237 -3.12017,-1.78729 -5.55893,-4.73287 -6.7326,-8.13175 -1.17367,-3.39888 -1.07209,-7.22166 0.28042,-10.55342 l -1.14686,0.12904"
         id="path7589"
         inkscape:path-effect="#path-effect3793-9-5-6-8-9-1-1-0-7-0-3-19-6-15"
         inkscape:original-d="m 157.06858,774.19348 c 0,0 10.35877,-4.44688 11.75001,-4.78827 1.39124,-0.3414 12.50291,-0.0202 13.61225,0.31712 1.10935,0.33737 9.4578,3.92732 9.4578,3.92732 0,0 5.03818,-3.29363 7.33192,-3.55173 2.29373,-0.25806 10.71672,-0.42006 13.19852,-0.19091 2.48188,0.22879 15.69964,2.62425 17.88079,3.76534 2.18117,1.14109 10.88706,5.93869 10.88706,5.93869 0,0 6.67532,4.61011 7.99154,5.20149 1.3162,0.59138 11.71398,4.13562 12.82332,4.473 1.10935,0.33735 11.82657,2.73645 12.71029,3.05297 0.88373,0.31653 24.03953,-2.37912 24.03953,-2.37912 0,0 3.59479,4.43973 3.74278,7.15846 0.0858,1.57666 -1.71018,4.30571 -1.71018,4.30571 -9.06973,9.17531 -21.94844,10.95895 -33.45684,14.90047 -1.22191,1.06184 -6.9552,7.34535 -8.92901,9.27747 -1.97379,1.93208 -8.89202,5.99183 -11.5239,7.62826 -2.63189,1.63642 -9.18442,1.77053 -10.81002,4.40523 -2.91447,4.72367 -17.27845,0.0491 -20.174,-0.68808 -2.89552,-0.73721 -15.83145,-3.81103 -15.83145,-3.81103 l -13.08646,-4.02741 c 0,0 -8.21666,-2.40315 -9.32649,-5.55968 -1.10986,-3.15654 -5.51116,-13.42989 -5.51116,-13.42989 l 2.1984,-7.54959 c 0,0 0.80768,-4.38905 -1.63662,-5.08461 -2.44429,-0.69555 -6.71233,-1.32452 -8.02904,-4.73508 -1.3167,-3.41057 -6.45218,-18.68517 -6.45218,-18.68517 z"
         inkscape:connector-curvature="0"
         sodipodi:nodetypes="csccssscssccsccssssccsccsscc" />
    </g>
    <path
       sodipodi:nodetypes="cc"
       inkscape:connector-curvature="0"
       id="path7591"
       d="m 65.793734,57.830376 c 1.723461,-2.22552 -4.194899,0.838968 0,0 z"
       style="fill:#af5b33;fill-opacity:1;stroke:none;display:inline" />
    <path
       sodipodi:nodetypes="csscssc"
       inkscape:connector-curvature="0"
       id="path7593"
       d="m 68.71486,57.8412 c 0.108312,-0.278592 0.421425,-0.183024 0.634281,-0.329856 0.212912,-0.14688 0.325624,-0.53598 0.300835,-0.714492 -0.04981,-0.356964 -0.916755,-1.141428 -2.098377,-1.93794 0.235734,-0.08652 1.796847,0.666768 2.259162,1.42176 0.609896,0.995988 -0.366748,2.150448 -0.931234,1.69374 z"
       style="fill:#af5b33;fill-opacity:0.98823529;stroke:none;display:inline" />
    <rect
       y="2.2718947"
       x="3.9758639"
       height="103.08274"
       width="99.715721"
       id="rect7595"
       style="opacity:0.98999999;fill:#ffffff;fill-opacity:0;stroke:none;display:inline" />
    <path
       sodipodi:nodetypes="scccccccccccccccsczs"
       inkscape:connector-curvature="0"
       id="path7597"
       d="m 26.471439,82.481712 c 4.606095,-1.636296 13.980229,-4.912008 13.980229,-4.912008 l -1.322448,4.3452 2.078145,2.07816 3.967362,0.566748 4.911969,0.188928 7.745788,-0.755676 3.211711,0 1.889227,-0.566748 2.267039,0 0,-2.455968 -2.644907,-2.2671 6.990108,3.400584 8.501526,2.2671 4.156267,6.80118 c -0.856402,6.3048 0.03359,8.119944 -3.589522,10.579628 -5.950622,3.81964 -32.581119,2.13666 -33.542362,2.19986 -40.2403979,2.64489 -30.502222,-12.212752 -30.502222,-12.212752 0,0 0.151241,-3.724068 1.889217,-5.478684 1.737982,-1.754688 6.596775,-2.564928 10.012873,-3.778452 z"
       style="fill:#78c557;fill-opacity:1;stroke:none;display:inline" />
    <path
       inkscape:connector-curvature="0"
       id="path7599"
       d="m 64.18252,73.325856 c -4.286469,6.069948 16.943627,13.621116 -14.927147,13.25484 -27.827989,-3.210384 -0.29429,-8.407416 -4.172114,-27.324924 0,0 4.089462,8.121636 6.069509,10.040628 1.980104,1.919064 2.520612,1.755672 4.19403,2.35914 1.673361,0.603444 4.294868,0.765552 5.766727,1.04844 1.4718,0.282936 3.068995,0.621876 3.068995,0.621876 z"
       style="fill:#c87137;stroke:none;display:inline"
       sodipodi:nodetypes="ccczzzc" />
    <path
       sodipodi:nodetypes="cscccc"
       inkscape:connector-curvature="0"
       id="path7601"
       d="m 47.631748,64.44 c 1.146598,0.268692 2.053043,1.056108 2.921491,1.900752 0.86845,0.844596 2.693735,2.24382 2.693735,2.24382 L 64.725925,72.275604 63.49901,74.595 c 0,0 -16.680039,-2.679432 -15.867262,-10.155 z"
       style="fill:#af5b33;fill-opacity:1;stroke:none;display:inline" />
    <path
       sodipodi:nodetypes="czszsacccsacssasscacccscscccscccccsazcssssccccsscssccscsccsscssscscsscssccsscsssssscsssszzscc"
       inkscape:connector-curvature="0"
       inkscape:original-d="m 74.911352,47.831039 c 0,0 2.752523,-2.634192 2.943426,-3.623637 0.190904,-0.989385 -0.969577,-1.067751 -0.458029,-1.440523 0.511548,-0.372772 0.29956,0.300604 0.661617,0.04692 0.362115,-0.253573 0.653278,-1.287325 0.380417,-1.880366 -0.381286,-0.828659 -2.85863,-0.720639 -2.440334,-1.521264 0.169821,-0.324988 1.135981,0.339468 1.135981,0.339468 l 0.785624,-0.136691 0.891328,-0.742937 c 0,0 -0.237529,0.608911 0.501122,-0.614182 0.738593,-1.22315 2.248157,-2.247808 1.572522,-3.293899 -0.272685,-0.422119 -1.589492,-0.149084 -1.589492,-0.149084 0,0 0.392811,-0.06835 0.741199,-1.16274 0.348445,-1.094326 0.913512,-3.280451 0.618584,-3.999409 -0.294928,-0.7189 -2.090616,-0.0082 -2.667381,-0.670943 -0.469614,-0.539754 -0.42154,-0.595531 -0.08873,-2.052099 0.332749,-1.456508 0.332749,-1.456508 0.575491,-1.944715 0.242742,-0.488148 0.19571,-1.574549 0.19571,-1.574549 0,0 0.806128,-1.60183 0.301473,-2.180796 -0.445924,-0.511605 -2.119285,-0.198781 -2.119285,-0.198781 l -1.049217,0.142019 -0.922663,0.01854 c 0,0 0.09006,-0.968362 -0.574217,-1.075745 -0.664222,-0.107388 -1.064853,-0.220095 -1.064853,-0.220095 0,0 -0.121342,0.244132 -0.780411,0.257454 -0.659011,0.01332 -0.801263,-0.225424 -0.801263,-0.225424 l -0.18401,-1.2045 -0.289658,-0.598196 c 0,0 0.51676,-0.252067 -0.679921,-0.469498 -1.196681,-0.21743 -1.460274,-0.212102 -1.460274,-0.212102 l 0,0 -1.413359,0.8743 -1.328448,-0.214767 c 2.191744,-1.798989 0.04692,-2.336774 0.275351,-2.784379 0.612039,-1.099723 1.268907,-1.370382 0.981335,-1.711298 -0.287572,-0.340858 -1.070184,0.452932 -1.57119,0.27344 -0.502744,-0.180131 -0.05213,-1.207108 -0.974848,-1.188457 -0.922663,0.01854 -1.397662,1.236414 -1.397662,1.236414 0,0 -0.733382,1.343855 -0.927818,-0.102048 -0.194494,-1.445853 0.459304,-1.579879 -0.215346,-1.928671 -0.674708,-0.348852 -1.344145,-0.576998 -2.398574,-0.555683 -1.05443,0.02143 -0.527244,0.01044 -1.439423,0.270833 -0.912179,0.260059 -1.503771,0.753536 -1.503771,0.753536 -0.350879,0.05867 -0.276568,-0.380648 -0.276568,-0.380648 l -0.303384,-0.0058 -0.851942,0.252182 c 0,0 0.03301,0.223571 -0.08213,0.257917 -0.115092,0.03418 -0.553655,0.139355 -0.706968,0.09974 -0.153257,-0.03938 -0.284676,-0.111672 -0.284676,-0.111672 0,0 0.04402,-0.06499 -0.15928,-0.178334 -0.203125,-0.113352 -0.406712,-0.237414 -0.662545,-0.221544 -0.255832,0.01564 -0.606826,0.257859 -0.606826,0.257859 l -0.04112,0.313931 c -0.826341,-0.427679 -0.562691,-0.433008 -1.095147,-0.543055 -0.532457,-0.110052 -2.098434,0.284039 -2.098434,0.284039 0,0 -0.137038,-0.118044 -0.643373,0.375493 -0.506335,0.493477 -0.764716,0.619511 -0.764716,0.619511 l -0.63293,0.616903 c 0,0 -0.02086,-0.482819 -0.612043,1.099723 -0.591165,1.582601 0.589855,1.437859 -0.844338,1.829339 -1.434192,0.39148 -2.899703,0.05867 -2.899703,0.05867 0,0 0.232287,-0.729616 -0.700788,-0.952375 -0.933071,-0.22276 -2.925808,-0.544909 -3.56917,-0.169474 -0.643361,0.375495 -0.754289,0.860979 -0.991795,1.46989 -0.237511,0.608852 -0.364096,0.732222 -0.364096,0.732222 0,0 0.674686,0.348851 -0.369319,0.611575 -1.043993,0.262723 -2.786822,1.143684 -2.786822,1.143684 0,0 -0.551362,0.977685 -2.254384,1.25379 -1.703028,0.276045 -2.129758,-0.440192 -2.488634,0.412794 -0.358871,0.852985 -0.311892,1.939386 -0.311892,1.939386 0,0 -0.105708,0.606189 -0.759509,0.740215 -0.653805,0.134084 -0.896535,0.622232 -1.007463,1.107774 -0.110928,0.485484 0.03133,0.72423 0.03133,0.72423 l 0.811707,0.466891 c 0,0 0.268829,0.11538 0.553319,0.592867 0.28449,0.477491 0.563756,0.834335 0.879564,2.036112 0.315807,1.201779 0.06786,1.569221 0.06786,1.569221 0,0 -1.333708,-0.335471 -2.067117,1.008326 -0.733404,1.343843 -0.717747,1.7059 -0.675987,2.671596 0.04176,0.965698 -0.728366,0.05862 -0.64485,1.99001 0.08352,1.931392 0.07034,2.303643 -0.282812,3.091874 -0.680638,1.519121 -0.133297,-0.745602 0.909393,2.012076 1.042695,2.757734 2.038395,3.013799 2.612594,4.089542 0.574194,1.075745 -1.173721,0.137154 -1.173721,0.137154 0,0 1.732664,4.400342 2.565251,5.350053 0.832591,0.94971 0.581097,-1.55926 0.654174,0.130724 0.07308,1.689927 0.910047,2.247749 1.067954,2.848673 0.157901,0.600852 0.994467,1.115652 2.206809,1.695192 1.212342,0.5796 0.985621,-0.05388 1.497673,0.42108 0.512051,0.474648 0.313271,1.84098 0.847812,2.469468 0.534548,0.628548 0.853061,0.910956 2.049747,1.128396 1.196681,0.217428 3.036075,1.569624 3.036075,1.569624 z"
       inkscape:path-effect="#path-effect3812-7-1-8-1-8-4-4-1-8-4-8-1-1-8"
       id="path7603"
       d="m 74.911352,47.831039 c 0.479438,0.330362 1.085088,0.472399 1.661412,0.389635 0.576324,-0.08276 1.117528,-0.389497 1.484623,-0.841427 0.367096,-0.451929 0.556392,-1.044511 0.519276,-1.625563 -0.03712,-0.581052 -0.300272,-1.144733 -0.721885,-1.546282 -0.110515,-0.105256 -0.231046,-0.199453 -0.343795,-0.302314 -0.112748,-0.10286 -0.218782,-0.215896 -0.292557,-0.349498 -0.07377,-0.133603 -0.113493,-0.29014 -0.08762,-0.44055 0.01294,-0.07521 0.04225,-0.147912 0.08772,-0.209196 0.04547,-0.06128 0.107288,-0.110842 0.178226,-0.138965 0.104171,-0.0413 0.221142,-0.03494 0.331434,-0.01512 0.110292,0.01982 0.218535,0.05244 0.330183,0.06204 0.219938,0.01889 0.445074,-0.05629 0.614374,-0.197953 0.169299,-0.141659 0.282201,-0.347121 0.318456,-0.564871 0.03625,-0.217751 -0.003,-0.446191 -0.103109,-0.642932 -0.100114,-0.196741 -0.259714,-0.361538 -0.449304,-0.47461 -0.234756,-0.140009 -0.508248,-0.199898 -0.778913,-0.238019 -0.270665,-0.03812 -0.54507,-0.05682 -0.81004,-0.123929 -0.26497,-0.06711 -0.525397,-0.188337 -0.703277,-0.395874 -0.08894,-0.103769 -0.155334,-0.228038 -0.184063,-0.361652 -0.02873,-0.133615 -0.01871,-0.276532 0.03596,-0.40179 0.05772,-0.13224 0.165087,-0.242101 0.295969,-0.302831 0.130882,-0.06073 0.284101,-0.07179 0.422346,-0.03047 0.138245,0.04131 0.260276,0.134621 0.336378,0.257205 0.0761,0.122584 0.105591,0.273344 0.08129,0.415568 l 0.785624,-0.136691 0.891328,-0.742937 c 0.149775,-0.218041 0.317574,-0.423697 0.501122,-0.614182 0.466308,-0.483932 1.035984,-0.872685 1.42649,-1.41962 0.195253,-0.273468 0.342758,-0.58736 0.383728,-0.920872 0.04097,-0.333511 -0.03207,-0.687654 -0.237696,-0.953407 -0.182552,-0.235927 -0.465401,-0.391511 -0.762404,-0.419367 -0.297002,-0.02786 -0.603849,0.07242 -0.827088,0.270283 0.22437,-0.40144 0.471987,-0.789885 0.741199,-1.16274 0.448892,-0.621711 0.967781,-1.218741 1.199345,-1.949771 0.115783,-0.365516 0.154115,-0.761519 0.06441,-1.134292 -0.08971,-0.372772 -0.315513,-0.719553 -0.645167,-0.915346 -0.201193,-0.119496 -0.432701,-0.179892 -0.664777,-0.209868 -0.232076,-0.02998 -0.46676,-0.03089 -0.700605,-0.03954 -0.233844,-0.0086 -0.46916,-0.02536 -0.695209,-0.08586 -0.226049,-0.0605 -0.444098,-0.167483 -0.60679,-0.335677 -0.12547,-0.129714 -0.214493,-0.292477 -0.267258,-0.465059 -0.05277,-0.172581 -0.07006,-0.354868 -0.06248,-0.535176 0.01516,-0.360616 0.127655,-0.709191 0.241009,-1.051864 0.212419,-0.642147 0.43179,-1.283788 0.575491,-1.944715 0.11252,-0.517519 0.178113,-1.045231 0.19571,-1.574549 0.211383,-0.07707 0.401089,-0.212661 0.542438,-0.387713 0.141348,-0.175051 0.233938,-0.389063 0.264748,-0.611937 0.03081,-0.222875 -2.47e-4,-0.45398 -0.0888,-0.660813 -0.08856,-0.206834 -0.234362,-0.388809 -0.41691,-0.520333 -0.295096,-0.212615 -0.669761,-0.28719 -1.03341,-0.293947 -0.36365,-0.0068 -0.725449,0.04638 -1.085875,0.09517 l -1.049217,0.142019 -0.922663,0.01854 c -0.0106,-0.421372 -0.230022,-0.832441 -0.574217,-1.075745 -0.304495,-0.215241 -0.699977,-0.296984 -1.064853,-0.220095 -0.2273,0.159932 -0.502565,0.25074 -0.780411,0.257454 -0.281535,0.0068 -0.564573,-0.07283 -0.801263,-0.225424 l -0.18401,-1.2045 -0.289658,-0.598196 c -0.198924,-0.19228 -0.42964,-0.351593 -0.679921,-0.469498 -0.451528,-0.212711 -0.966889,-0.287566 -1.460274,-0.212102 l 0,0 -1.413359,0.8743 -1.328448,-0.214767 c -0.349276,-0.39086 -0.525501,-0.931034 -0.473916,-1.452671 0.05158,-0.521636 0.3302,-1.01683 0.749267,-1.331708 0.318456,-0.23928 0.712908,-0.379499 0.984283,-0.671089 0.135687,-0.145795 0.236499,-0.331705 0.247756,-0.530553 0.0056,-0.09942 -0.01153,-0.20064 -0.05405,-0.290694 -0.04251,-0.09005 -0.110807,-0.1685 -0.196658,-0.218962 -0.118516,-0.06966 -0.263863,-0.08286 -0.399584,-0.06098 -0.135721,0.02188 -0.263888,0.07635 -0.38813,0.13519 -0.124243,0.05884 -0.246741,0.122768 -0.377402,0.165504 -0.130662,0.04274 -0.271879,0.06357 -0.406074,0.03373 -0.128557,-0.02859 -0.244026,-0.102535 -0.337127,-0.195681 -0.0931,-0.09315 -0.165362,-0.205061 -0.228624,-0.320569 -0.126525,-0.231016 -0.223649,-0.485162 -0.409097,-0.672207 -0.166024,-0.167454 -0.397399,-0.268346 -0.63308,-0.276059 -0.23568,-0.0077 -0.473156,0.07784 -0.649773,0.234078 -0.176617,0.156241 -0.290494,0.381509 -0.311586,0.61637 -0.02109,0.234862 0.05083,0.476815 0.196777,0.662025 -0.13714,0.102552 -0.313825,0.150741 -0.484041,0.13202 -0.170217,-0.01872 -0.332204,-0.104161 -0.443777,-0.234068 -0.107828,-0.125547 -0.166954,-0.287439 -0.190655,-0.451229 -0.0237,-0.16379 -0.01398,-0.330555 0.0027,-0.495204 0.01672,-0.164649 0.04042,-0.328883 0.04458,-0.494326 0.0042,-0.165443 -0.01188,-0.333728 -0.07201,-0.487912 -0.08136,-0.208614 -0.241409,-0.38181 -0.432645,-0.498293 -0.191237,-0.116482 -0.412317,-0.178603 -0.635111,-0.201013 -0.445589,-0.04482 -0.890089,0.06415 -1.330818,0.143623 -0.480732,0.08669 -0.969001,0.139225 -1.439423,0.270833 -0.543259,0.151985 -1.056831,0.409335 -1.503771,0.753536 l -0.276568,-0.380648 -0.303384,-0.0058 -0.851942,0.252182 c 0.0063,0.09218 -0.02369,0.186356 -0.08213,0.257917 -0.04005,0.04904 -0.09262,0.08727 -0.150325,0.113334 -0.0577,0.02606 -0.120449,0.04016 -0.183603,0.04467 -0.126309,0.009 -0.252387,-0.01982 -0.37304,-0.05827 -0.09719,-0.03097 -0.192352,-0.0683 -0.284676,-0.111672 -0.04491,-0.06613 -0.09862,-0.126269 -0.15928,-0.178334 -0.181076,-0.15543 -0.424271,-0.234676 -0.662545,-0.221544 -0.223907,0.01234 -0.442528,0.105239 -0.606826,0.257859 l -0.04112,0.313931 c -0.320378,-0.256865 -0.696761,-0.443503 -1.095147,-0.543055 -0.70151,-0.175299 -1.46877,-0.07145 -2.098434,0.284039 -0.222374,0.110891 -0.437449,0.236416 -0.643373,0.375493 -0.272202,0.183841 -0.528391,0.391384 -0.764716,0.619511 l -0.63293,0.616903 c -0.246949,0.340381 -0.452917,0.710465 -0.612043,1.099723 -0.127809,0.31265 -0.225263,0.636895 -0.348472,0.951386 -0.123209,0.31449 -0.274615,0.622741 -0.495866,0.877953 -0.3568,0.411567 -0.892232,0.662588 -1.436816,0.673607 -0.544584,0.01102 -1.089732,-0.218139 -1.462887,-0.614937 -0.16995,-0.358296 -0.409269,-0.683533 -0.700788,-0.952375 -0.479667,-0.442355 -1.107364,-0.728881 -1.758558,-0.770173 -0.651194,-0.04129 -1.320642,0.169783 -1.810612,0.600699 -0.446778,0.39293 -0.725755,0.937699 -0.991795,1.46989 -0.121882,0.243816 -0.243248,0.487891 -0.364096,0.732222 -0.09845,0.21745 -0.222707,0.423206 -0.369319,0.611575 -0.322719,0.414633 -0.755214,0.743023 -1.241294,0.942506 -0.486081,0.199482 -1.024578,0.269577 -1.545528,0.201178 -0.549066,0.690538 -1.378099,1.15161 -2.254384,1.25379 -0.424422,0.04949 -0.854052,0.01817 -1.280623,0.04307 -0.426571,0.02491 -0.866163,0.113356 -1.208011,0.369722 -0.289542,0.217139 -0.490225,0.549367 -0.54769,0.906693 -0.05747,0.357325 0.02894,0.735722 0.235798,1.032693 -0.23013,0.268993 -0.484685,0.517082 -0.759509,0.740215 -0.19692,0.159882 -0.40461,0.307327 -0.587897,0.482672 -0.183286,0.175345 -0.343623,0.383085 -0.419566,0.625102 -0.07382,0.235252 -0.06253,0.496232 0.03133,0.72423 l 0.811707,0.466891 c 0.203093,0.179045 0.388699,0.377916 0.553319,0.592867 0.453678,0.592385 0.742639,1.302631 0.879564,2.036112 0.0964,0.516389 0.119321,1.046438 0.06786,1.569221 -0.4012,-0.03558 -0.811707,0.04026 -1.17371,0.216845 -0.362003,0.176583 -0.674473,0.453404 -0.893407,0.791481 -0.251535,0.38842 -0.376029,0.845398 -0.45616,1.30116 -0.08013,0.455762 -0.119653,0.918656 -0.219827,1.370436 -0.151034,0.681153 -0.436853,1.324038 -0.64485,1.99001 -0.311285,0.996684 -0.446841,2.060675 -0.282812,3.091874 0.117362,0.737817 0.3981,1.467349 0.909393,2.012076 0.640535,0.68242 1.57479,1.013907 2.26986,1.640693 0.347534,0.313393 0.636571,0.712249 0.732259,1.170331 0.04784,0.229042 0.04571,0.469866 -0.01846,0.69488 -0.06417,0.225014 -0.191679,0.43341 -0.371068,0.583638 -0.159833,0.133852 -0.359297,0.219774 -0.566365,0.24397 -0.207068,0.0242 -0.420968,-0.01342 -0.607356,-0.106816 -0.587991,1.00604 -0.641166,2.305155 -0.137361,3.355884 0.503805,1.050728 1.550028,1.822702 2.702612,1.994169 0.2206,0.03282 0.44789,0.04594 0.654174,0.130724 0.245402,0.10086 0.443245,0.298482 0.57704,0.527598 0.133795,0.229115 0.207639,0.488825 0.252252,0.750367 0.08923,0.523086 0.06778,1.068334 0.238662,1.570708 0.156867,0.461174 0.472469,0.861513 0.865532,1.149246 0.393062,0.287733 0.860801,0.46575 1.341277,0.545946 0.259574,0.04333 0.523456,0.05896 0.781671,0.10977 0.258214,0.05081 0.515909,0.140375 0.716002,0.31131 0.168445,0.143898 0.287695,0.338956 0.3672,0.545739 0.07951,0.206782 0.12132,0.426021 0.15382,0.645165 0.065,0.438288 0.09962,0.898154 0.326792,1.278564 0.204994,0.343264 0.548381,0.584671 0.912878,0.748972 0.364497,0.164301 0.75515,0.260497 1.136869,0.379424 1.093284,0.34062 2.126042,0.874547 3.036075,1.569624 l 32.002217,-13.45229"
       style="fill:#150b02;fill-opacity:0.97058835;stroke:none;display:inline" />
    <path
       sodipodi:nodetypes="cccccasazzzzczcaczzccccccczzzccccsaccccscssssccsscsczsscazzccccscccccscaacazzcacccc"
       inkscape:connector-curvature="0"
       inkscape:original-d="M 75.032926,42.410324 74.140382,39.736573 73.944613,35.887397 72.987836,32.745132 71.002229,31.06686 c 0,0 -1.712746,-0.250271 -2.468541,0.03649 -0.553945,0.210133 -0.683802,1.210524 -1.284372,1.146985 -0.471641,-0.04981 -0.401442,-0.843427 -0.794833,-1.091556 -0.57694,-0.36391 -1.319529,-0.585974 -2.04121,-0.421888 -0.721739,0.164145 -1.470062,0.905808 -1.792733,1.425812 -0.322671,0.519934 -0.407988,0.971882 -0.276857,1.395044 0.13113,0.423221 0.550528,0.77543 0.882177,0.908531 0.331706,0.133099 0.842211,-0.0168 0.842211,-0.0168 0,0 0.482067,-0.493998 0.640361,-0.784929 0.158353,-0.290872 0.296839,-0.932277 0.296839,-0.932277 0,0 0.594663,0.786204 0.558695,1.223787 -0.03012,0.369297 -0.633701,0.93917 -0.633701,0.93917 0,0 -1.059469,0.443666 -1.817175,0.35221 -0.757765,-0.0914 -2.038546,-0.570046 -2.438134,-1.125381 -0.399647,-0.555335 -0.09313,-1.474858 -0.09313,-1.474858 l 0.327653,-1.067231 1.274119,-1.724098 -0.551976,-1.069605 -1.010642,0.02027 -0.970561,0.946005 -0.128409,0.928975 c 0,0 -0.176945,1.874227 -0.903896,2.488513 -0.726952,0.614239 -2.255224,0.801899 -3.005111,0.678298 -0.749887,-0.1236 -0.930713,-0.394781 -1.212377,-0.747396 -0.281664,-0.352674 -0.390264,-1.227194 -0.390264,-1.227194 l 0.296839,-0.932392 0.04692,1.079798 1.030625,0.442333 c 0,0 0.350241,0.301693 1.185735,0.130435 0.835492,-0.171268 1.209133,-0.339757 1.482514,-0.801957 0.265563,-0.448936 -0.06666,-1.542577 -0.06666,-1.542577 l -1.05067,-0.90511 -1.562561,-1.049159 -1.354165,-0.12696 c 0,0 0.997264,-0.328985 -1.347445,0.02722 -2.344768,0.356207 -3.288687,1.919172 -3.288687,1.919172 0,0 0.343581,0.147465 0.03996,0.925559 -0.303499,0.778094 -1.207395,3.266608 -1.174034,4.037867 0.03359,0.771318 0.915539,1.679847 0.9489,2.451108 0.03359,0.771318 1.56928,1.203399 0.07338,1.696818 -1.495889,0.493477 -1.819417,0.808793 -1.819417,0.808793 l -1.254085,2.186877 c 0,0 -1.657659,0.651077 -2.324727,0.818928 -0.667068,0.167909 -0.815487,0.634105 -0.795476,1.096885 0.02004,0.462779 0.490291,3.541101 0.490291,3.541101 0,0 0.650242,2.155021 -0.0035,2.63147 -0.65373,0.476391 -3.235649,1.225524 -3.235649,1.225524 0,0 1.526488,0.237994 1.281244,-0.184532 -0.245238,-0.422466 -0.135869,-3.360681 -0.330989,-3.974283 -0.195114,-0.613602 -1.726306,-0.668336 -2.120427,-0.470251 -0.491287,0.246913 -3.261393,1.440814 -2.332094,1.351675 0.929306,-0.08914 -0.06396,2.221514 0.338425,3.234299 0.329026,0.828138 1.321505,1.637625 1.629301,2.152816 0.307798,0.515208 1.830777,3.410328 2.090367,3.555996 0.259597,0.145668 2.217923,-0.344748 2.217923,-0.344748 l -0.178347,-0.673368 0.416913,1.84428 c -0.05537,1.136616 0.663935,1.937592 0.295177,2.927496 0,0 0.551999,1.069608 0.91555,1.679796 0.363544,0.610236 1.797738,2.588316 1.797738,2.588316 l 2.121248,2.273004 1.926181,1.659348 1.737709,1.199976 c 2.337296,1.021188 3.656535,1.19772 5.739795,1.541976 0.680441,0.140628 4.902447,0.652644 5.744601,0.635616 0.842153,-0.0168 3.095582,-0.451896 3.095582,-0.451896 0,0 1.230042,-0.964224 1.691431,-1.56474 0.531762,-0.692076 0.82611,-1.516908 1.198187,-2.293092 0.449226,-0.937152 1.247361,-2.851284 1.247361,-2.851284 0,0 0.90546,-1.184808 1.322135,-1.798932 0.434688,-0.640644 0.639029,-0.820896 1.227031,-1.964748 0.588059,-1.143864 1.762499,-3.769248 2.051982,-4.982904 0.289483,-1.213644 0.162407,-2.116968 0.162407,-2.116968 0,0 -0.245406,-2.257885 -0.425594,-3.379329 -0.08549,-0.53234 -0.31074,-1.58816 -0.31074,-1.58816 l -0.192641,-2.752697 0.524811,-1.756707 z"
       inkscape:path-effect="#path-effect2999-8-1-7-7-6-8-8-2-4-7-2-6-2-7-9"
       id="path7605"
       d="M 75.032926,42.410324 74.140382,39.736573 73.944613,35.887397 72.987836,32.745132 71.002229,31.06686 c -0.299369,-0.365849 -0.77041,-0.5848 -1.243081,-0.577813 -0.472672,0.007 -0.937036,0.239766 -1.22546,0.614303 -0.188351,0.244587 -0.30177,0.540152 -0.490061,0.784785 -0.09414,0.122317 -0.208246,0.232056 -0.345551,0.30257 -0.137304,0.07051 -0.29958,0.09925 -0.44876,0.05963 -0.11223,-0.02981 -0.212432,-0.09667 -0.293245,-0.180053 -0.08081,-0.08339 -0.143296,-0.182944 -0.195968,-0.286432 -0.105343,-0.206977 -0.174399,-0.433452 -0.30562,-0.625071 -0.211091,-0.308251 -0.569647,-0.496627 -0.939012,-0.55273 -0.369365,-0.0561 -0.748807,0.0096 -1.102198,0.130842 -0.737158,0.252847 -1.391291,0.757847 -1.792733,1.425812 -0.125494,0.208812 -0.226954,0.433807 -0.280909,0.671378 -0.05395,0.237571 -0.0592,0.488401 0.0041,0.723666 0.05719,0.212721 0.170228,0.410015 0.323963,0.567771 0.153734,0.157757 0.347757,0.275728 0.558214,0.34076 0.2729,0.08433 0.572891,0.07834 0.842211,-0.0168 0.260904,-0.217601 0.479581,-0.485645 0.640361,-0.784929 0.155223,-0.288939 0.256425,-0.606783 0.296839,-0.932277 0.19721,0.130227 0.356793,0.316747 0.45494,0.531731 0.09815,0.214983 0.134541,0.457742 0.103755,0.692056 -0.051,0.388154 -0.292852,0.74659 -0.633701,0.93917 -0.577075,0.228133 -1.196656,0.348221 -1.817175,0.35221 -0.468729,0.003 -0.942954,-0.06129 -1.375828,-0.241116 -0.432874,-0.179823 -0.823059,-0.481181 -1.062306,-0.884265 -0.130283,-0.2195 -0.212152,-0.469317 -0.222692,-0.724352 -0.01054,-0.255035 0.05465,-0.506494 0.129562,-0.750506 l 0.327653,-1.067231 1.274119,-1.724098 -0.551976,-1.069605 -1.010642,0.02027 -0.970561,0.946005 -0.128409,0.928975 c -0.06145,0.444542 -0.125203,0.891111 -0.258975,1.319478 -0.133772,0.428367 -0.339693,0.840053 -0.644921,1.169035 -0.367972,0.396609 -0.870649,0.658967 -1.400765,0.767035 -0.530117,0.108067 -1.085871,0.06581 -1.604346,-0.08874 -0.46191,-0.137688 -0.908682,-0.373113 -1.212377,-0.747396 -0.276864,-0.341215 -0.419182,-0.788736 -0.390264,-1.227194 l 0.296839,-0.932392 0.04692,1.079798 1.030625,0.442333 c 0.381253,0.121997 0.78708,0.16664 1.185735,0.130435 0.290139,-0.02635 0.578491,-0.09604 0.838498,-0.22746 0.260007,-0.131421 0.490964,-0.326606 0.644016,-0.574497 0.143549,-0.2325 0.215498,-0.508542 0.203701,-0.781531 -0.0118,-0.27299 -0.10729,-0.541796 -0.270361,-0.761046 l -1.05067,-0.90511 -1.562561,-1.049159 -1.354165,-0.12696 c -0.447772,-0.04971 -0.902046,-0.04053 -1.347445,0.02722 -1.285073,0.195486 -2.486331,0.896502 -3.288687,1.919172 0.06124,0.303949 0.07478,0.617462 0.03996,0.925559 -0.07941,0.702682 -0.403036,1.350082 -0.689839,1.996465 -0.286802,0.646384 -0.54595,1.336949 -0.484195,2.041402 0.03846,0.43869 0.200145,0.857203 0.387881,1.255553 0.187736,0.39835 0.403492,0.784322 0.561019,1.195555 0.103913,0.271271 0.182284,0.554374 0.204281,0.844032 0.022,0.289658 -0.01409,0.586813 -0.130901,0.852786 -0.146392,0.333336 -0.420489,0.608664 -0.753164,0.75655 -0.332676,0.147886 -0.720714,0.166898 -1.066253,0.05224 l -1.254085,2.186877 c -0.842013,-0.04753 -1.69841,0.254153 -2.324727,0.818928 -0.337849,0.304652 -0.609381,0.681766 -0.795476,1.096885 -0.256902,0.573066 -0.349173,1.218832 -0.263042,1.840913 0.08613,0.622081 0.35039,1.218482 0.753333,1.700188 0.223225,0.400146 0.341969,0.857993 0.34136,1.316191 -6.09e-4,0.458199 -0.120571,0.915728 -0.34486,1.315279 -0.306512,0.546025 -0.809536,0.978975 -1.395114,1.200766 -0.585578,0.221792 -1.249203,0.230719 -1.840535,0.02476 0.430433,0.09676 0.895612,0.02977 1.281244,-0.184532 0.351257,-0.195196 0.633224,-0.508467 0.802705,-0.872829 0.16948,-0.364361 0.227583,-0.777667 0.17852,-1.17651 -0.04906,-0.398843 -0.203704,-0.782588 -0.433826,-1.112022 -0.230122,-0.329434 -0.534577,-0.604892 -0.878388,-0.812922 -0.629722,-0.381027 -1.386984,-0.531834 -2.120427,-0.470251 -0.465924,0.03912 -0.927653,0.162669 -1.337112,0.38841 -0.409459,0.225741 -0.765104,0.556114 -0.994982,0.963265 -0.280393,0.496622 -0.363821,1.091404 -0.285649,1.656331 0.07817,0.564927 0.311084,1.101218 0.624074,1.577968 0.494495,0.753219 1.186674,1.367994 1.629301,2.152816 0.34505,0.611808 0.523804,1.301234 0.795697,1.948879 0.135946,0.323822 0.296563,0.639455 0.507641,0.920148 0.211078,0.280692 0.474736,0.526297 0.787029,0.686969 0.355668,0.182989 0.769835,0.250033 1.16507,0.188599 0.395235,-0.06143 0.76951,-0.251032 1.052853,-0.533347 l -0.178347,-0.673368 0.416913,1.84428 0.295177,2.927496 c 0.282169,0.572073 0.587691,1.132626 0.91555,1.679796 0.540329,0.901765 1.141382,1.767138 1.797738,2.588316 l 2.121248,2.273004 1.926181,1.659348 1.737709,1.199976 c 1.884541,0.613904 3.801318,1.128839 5.739795,1.541976 1.889196,0.402634 3.814394,0.709608 5.744601,0.635616 1.04401,-0.04002 2.0837,-0.191796 3.095582,-0.451896 0.659167,-0.403861 1.237575,-0.938945 1.691431,-1.56474 0.507398,-0.69962 0.853939,-1.500366 1.198187,-2.293092 0.413218,-0.951549 0.829007,-1.901982 1.247361,-2.851284 0.464085,-0.581989 0.905251,-1.182252 1.322135,-1.798932 0.432521,-0.639811 0.838805,-1.29713 1.227031,-1.964748 0.907615,-1.560791 1.726678,-3.20695 2.051982,-4.982904 0.127733,-0.697342 0.17774,-1.408189 0.162407,-2.116968 -0.02458,-1.136398 -0.2161,-2.262137 -0.425594,-3.379329 -0.09942,-0.530189 -0.203005,-1.059598 -0.31074,-1.58816 l -0.192641,-2.752697 0.524811,-1.756707 -0.177791,-2.621101"
       style="fill:#c87137;fill-opacity:1;stroke:none;display:inline" />
    <path
       style="fill:#ffffff;fill-opacity:1;stroke:none;display:inline"
       d="m 52.007895,47.996341 c 2.053373,1.213536 1.462012,1.703827 2.952056,1.943789 1.490103,0.239904 3.093903,0.153081 5.477534,-0.590724 0.914148,-0.197391 0.524869,-0.05618 0.21019,-0.868276 -0.314678,-0.812325 -0.864626,-1.251241 -2.335905,-1.416834 -1.471278,-0.16565 -3.438408,-0.29429 -6.303875,0.932045 z"
       id="path7607"
       inkscape:connector-curvature="0"
       sodipodi:nodetypes="czcssc" />
    <path
       transform="matrix(-0.17729368,0.00358558,0.00723878,0.1673984,121.28287,-25.433091)"
       d="m 394.96611,431.92328 a 9.3299084,7.9101396 0 1 1 -18.65982,0 9.3299084,7.9101396 0 1 1 18.65982,0 z"
       sodipodi:ry="7.9101396"
       sodipodi:rx="9.3299084"
       sodipodi:cy="431.92328"
       sodipodi:cx="385.6362"
       id="path7609"
       style="fill:#28170b;fill-opacity:1;stroke:none;display:inline"
       sodipodi:type="arc" />
    <path
       sodipodi:nodetypes="ccsccccccsaaaccccccccc"
       inkscape:connector-curvature="0"
       inkscape:original-d="m 59.995672,49.229107 0.817075,-0.17376 c 0,0 -0.72672,-1.381561 -2.070865,-1.616194 -1.344144,-0.234576 -3.998492,0.08086 -3.998492,0.08086 l -1.115999,0.633468 -0.738998,0.538539 -0.963323,-0.242337 -0.521278,-1.036647 0.772939,0.246158 c 0,0 1.032131,-0.369933 1.405367,-0.551976 0.373293,-0.182099 1.202357,-0.627445 1.873879,-0.736044 0.740214,-0.119724 1.528908,-0.06696 2.26061,0.111492 0.851247,0.207642 1.694559,0.563734 2.367818,1.089181 0.60868,0.475059 1.403107,1.781034 1.403107,1.781034 l -0.472973,0 -0.493244,0.07292 -1.014986,0.264983 -1.002534,0.291627 -1.108991,-0.07698 0.687277,-0.09858 0.940733,-0.280796 z"
       inkscape:path-effect="#path-effect3005-1-8-1-4-4-8-2-6-0-3-4-7-5-3-4-5"
       id="path7611"
       d="m 59.995672,49.229107 0.817075,-0.17376 c -0.529311,-0.710761 -1.252808,-1.27541 -2.070865,-1.616194 -1.26663,-0.52765 -2.754229,-0.497567 -3.998492,0.08086 l -1.115999,0.633468 -0.738998,0.538539 -0.963323,-0.242337 -0.521278,-1.036647 0.772939,0.246158 c 0.477265,-0.160416 0.946501,-0.344714 1.405367,-0.551976 0.612999,-0.276881 1.215662,-0.597547 1.873879,-0.736044 0.744595,-0.156672 1.521773,-0.07041 2.26061,0.111492 0.84992,0.209249 1.678312,0.549987 2.367818,1.089181 0.601102,0.470062 1.086813,1.0866 1.403107,1.781034 l -0.472973,0 -0.493244,0.07292 c -0.339533,0.08362 -0.677906,0.171963 -1.014986,0.264983 -0.3355,0.09258 -0.669721,0.189805 -1.002534,0.291627 l -1.108991,-0.07698 0.687277,-0.09858 c 0.313861,-0.09265 0.62744,-0.186246 0.940733,-0.280796 0.324603,-0.09796 0.648898,-0.196946 0.972878,-0.296948"
       style="fill:#150b02;fill-opacity:0.97058835;stroke:none;display:inline" />
    <path
       sodipodi:nodetypes="ccsccccsccccccccccssssscc"
       inkscape:connector-curvature="0"
       inkscape:original-d="m 63.334633,44.264221 0.04402,0.448357 c 0,0 -0.05995,0.315664 -0.153141,0.429881 -0.09313,0.114216 -0.399125,0.41239 -0.399125,0.41239 l -0.437179,0.0987 -1.020257,-0.338774 c -0.283749,-0.984984 -0.929554,-1.053097 -1.878454,-1.466992 0,0 -1.352428,-0.646559 -1.475913,-0.666483 -0.123542,-0.01969 -2.040804,-0.116016 -2.164289,-0.135938 -0.123484,-0.01969 -1.508695,0.277551 -1.508695,0.277551 0,0 -1.772403,0.417718 -1.892993,0.465096 -0.120589,0.0475 -1.494098,0.61424 -1.494098,0.61424 l -0.932452,0.558 -0.376536,0.366979 -0.259886,0.229884 -0.458783,0.166519 -0.05387,-0.672796 c 0.517572,-1.042556 1.393667,-1.501918 2.361275,-2.114304 0.191192,-0.116184 1.080436,-0.53848 1.321614,-0.633237 0.241177,-0.0947 2.035186,-0.580241 2.522348,-0.657505 0.487222,-0.07721 2.66628,-0.16623 3.065175,-0.0168 0.398893,0.149202 1.220196,0.42461 1.643589,0.57329 0.423394,0.14868 1.345593,0.489422 1.670002,0.617599 0.324409,0.128235 1.205426,0.649512 1.205426,0.649512 z"
       inkscape:path-effect="#path-effect3779-7-2-5-0-0-5-4-5-9-9-2-7-0-3-0-3"
       id="path7613"
       d="m 63.334633,44.264221 0.04402,0.448357 c -0.0234,0.151221 -0.07566,0.297924 -0.153141,0.429881 -0.09778,0.166537 -0.235872,0.309218 -0.399125,0.41239 l -0.437179,0.0987 -1.020257,-0.338774 C 60.805844,44.751515 60.173421,44.25762 59.490497,43.847783 59.026263,43.569187 58.5357,43.328157 58.014584,43.1813 c -0.700211,-0.197329 -1.441677,-0.219991 -2.164289,-0.135938 -0.508126,0.0591 -1.008605,0.169871 -1.508695,0.277551 -0.63546,0.136828 -1.273167,0.269273 -1.892993,0.465096 -0.514066,0.16241 -1.014445,0.368121 -1.494098,0.61424 l -0.932452,0.558 c -0.121915,0.125946 -0.247498,0.248342 -0.376536,0.366979 -0.08515,0.07828 -0.171796,0.15493 -0.259886,0.229884 l -0.458783,0.166519 -0.05387,-0.672796 c 0.637386,-0.851249 1.445064,-1.57445 2.361275,-2.114304 0.421353,-0.248271 0.86504,-0.457975 1.321614,-0.633237 0.812547,-0.311907 1.66387,-0.51421 2.522348,-0.657505 1.01471,-0.169373 2.064615,-0.255972 3.065175,-0.0168 0.564777,0.135003 1.099493,0.370416 1.643589,0.57329 0.556221,0.207395 1.125227,0.38177 1.670002,0.617599 0.419376,0.181545 0.823152,0.399109 1.205426,0.649512 l 0.672222,0.794831"
       style="fill:#150b02;fill-opacity:0.97058835;stroke:none;display:inline" />
    <path
       inkscape:connector-curvature="0"
       inkscape:original-d="m 69.879049,43.168089 -0.430866,0.465791 c 0,0 -0.506972,0.443202 -0.395418,0.705521 0.111552,0.262319 0.326378,0.594779 0.554814,0.662314 0.228378,0.06754 0.758228,0.153024 0.883392,0.150475 0.125164,0 1.132854,-0.455887 1.251763,-0.602598 0.118908,-0.146711 0.532051,-0.443723 0.849162,-0.642562 0.317111,-0.198839 0.708243,-0.423219 0.979482,-0.524927 0.271181,-0.101712 1.191179,-0.264636 1.316343,-0.267184 0.125164,0 0.01448,-0.818117 0.01448,-0.818117 l -0.304484,-0.667353 -0.629935,-0.08346 c 0,0 -0.949191,0.06731 -1.047249,0.117408 -0.09806,0.04981 -0.984693,0.404744 -1.108816,0.431328 -0.124122,0.02664 -0.812615,0.3291 -0.935694,0.379722 -0.12308,0.05039 -0.997205,0.693648 -0.997205,0.693648 z"
       inkscape:path-effect="#path-effect3783-4-4-2-9-0-7-5-0-7-8-7-9-2-4-9-1"
       id="path7615"
       d="m 69.879049,43.168089 -0.430866,0.465791 c -0.133576,0.05661 -0.247439,0.158583 -0.318367,0.285136 -0.07093,0.126554 -0.09849,0.276903 -0.07705,0.420385 0.02213,0.148141 0.09509,0.286197 0.194905,0.397873 0.09982,0.111677 0.225637,0.198058 0.359909,0.264441 0.271628,0.134292 0.582787,0.188592 0.883392,0.150475 0.464538,-0.0589 0.873511,-0.326571 1.251763,-0.602598 0.286737,-0.209245 0.566741,-0.427528 0.849162,-0.642562 0.297554,-0.226556 0.61192,-0.455906 0.979482,-0.524927 0.225232,-0.04229 0.457042,-0.02138 0.685809,-0.03496 0.114383,-0.0068 0.228961,-0.0224 0.337808,-0.05821 0.108847,-0.0358 0.212141,-0.09256 0.292726,-0.174022 0.105868,-0.107018 0.168505,-0.255645 0.171169,-0.406157 0.0027,-0.150512 -0.05467,-0.301262 -0.156689,-0.41196 l -0.304484,-0.667353 -0.629935,-0.08346 c -0.352364,-0.01776 -0.707566,0.02206 -1.047249,0.117408 -0.382088,0.107254 -0.740768,0.282886 -1.108816,0.431328 -0.312261,0.125942 -0.632711,0.232858 -0.935694,0.379722 -0.365851,0.177338 -0.703682,0.412331 -0.997205,0.693648 l 2.31e-4,-6e-6"
       style="fill:#150b02;fill-opacity:0.97058835;stroke:none;display:inline" />
    <path
       style="fill:#ffffff;fill-opacity:1;stroke:none;display:inline"
       d="m 74.92589,46.078386 c -2.521307,1.079856 -0.258727,2.639694 -2.350444,3.213853 -2.091715,0.574217 -0.687333,0.420498 -3.071023,-0.323309 -0.914148,-0.197333 -0.524869,-0.05618 -0.210191,-0.868275 0.314679,-0.812267 0.597269,-1.919693 2.068548,-2.085286 1.471278,-0.16565 1.900927,0.173644 3.56311,0.06301 z"
       id="path7617"
       inkscape:connector-curvature="0"
       sodipodi:nodetypes="czcssc" />
    <path
       transform="matrix(-0.2672413,0.00540467,0.00900737,0.20829725,147.04178,-43.757931)"
       d="m 303.8305,430.97678 a 5.8142905,6.2875466 0 1 1 -11.62859,0 5.8142905,6.2875466 0 1 1 11.62859,0 z"
       sodipodi:ry="6.2875466"
       sodipodi:rx="5.8142905"
       sodipodi:cy="430.97678"
       sodipodi:cx="298.0162"
       id="path7619"
       style="fill:#28170b;fill-opacity:1;stroke:none;display:inline"
       sodipodi:type="arc" />
    <path
       sodipodi:nodetypes="cscccscscscscccccccssccsscccsssssssssccc"
       inkscape:connector-curvature="0"
       inkscape:original-d="m 74.935969,45.563305 c 0,0 0.0076,0.169183 0.01044,0.244363 0.0058,0.07518 -0.191542,0.436542 -0.191542,0.436542 l -0.216041,0.247549 -0.338251,0.141208 c 0,0 -1.144553,-0.383023 -1.54339,-0.364547 -0.09331,0.0058 -1.326999,0.06823 -1.326999,0.06823 0,0 -1.272267,0.466197 -1.405945,0.619395 -0.133679,0.153198 -0.466254,0.671116 -0.466254,0.671116 0,0 -0.122444,0.363215 -0.16432,0.476912 -0.0417,0.1137 -0.27118,0.757938 -0.27118,0.757938 0,0 0.39148,-0.139587 0.484905,-0.141498 0.09348,0 0.591361,0.157369 0.591361,0.157369 l 0.833987,0.383023 c 0,0 -0.409087,-0.388526 1.706491,-0.01274 1.141078,0.187139 0.29093,-0.05328 0.29093,-0.05328 0.514212,-0.23527 0.265505,-0.260233 0.892602,-0.645342 -0.236601,0.0673 -0.3909,0.668394 -0.555507,0.569525 -0.136055,0.09678 -0.42826,0.251661 -0.42826,0.251661 0,0 -1.645733,0.237993 -1.739215,0.239847 -0.09342,0 -0.270892,-0.07014 -0.436079,-0.104424 -0.165129,-0.03418 -0.286008,-0.125917 -0.286008,-0.125917 l -0.145031,-0.109932 c 0,0 -0.188529,-0.0336 -0.238514,-0.108024 -0.04981,-0.07426 -0.1225,-0.12922 -0.381923,-0.18042 -0.259422,-0.05096 -0.706158,0.02201 -0.706158,0.02201 l 0.10362,-0.56912 c 0,0 0.05096,-0.307149 0.06967,-0.420382 0.01854,-0.113232 0.0417,-0.201561 0.07958,-0.409262 0.03764,-0.207642 -0.01274,-0.212854 0.118272,-0.422408 0.131247,-0.209612 0.275235,-0.663992 0.388816,-0.74149 0.11358,-0.07756 0.455365,-0.283344 0.77097,-0.458029 0.386789,-0.21413 0.337615,-0.122269 0.545431,-0.182911 0.207816,-0.06065 0.384761,-0.03301 0.66347,-0.07633 0.278711,-0.04344 0.233128,-0.0819 0.681022,0 0.447952,0.08502 0.517339,0.100428 0.869434,0.130956 0.352036,0.0307 0.748614,0.205442 0.958862,0.201214 0.21025,-0.0058 0.400516,-0.09313 0.400516,-0.09313 l 0.202951,-0.173412 z"
       inkscape:path-effect="#path-effect3787-0-5-7-4-5-6-5-9-3-8-79-3-8-1-4-9"
       id="path7621"
       d="m 74.935969,45.563305 c 0.01596,0.08028 0.01949,0.163015 0.01044,0.244363 -0.01785,0.160367 -0.08562,0.314822 -0.191542,0.436542 l -0.216041,0.247549 -0.338251,0.141208 c -0.491635,-0.199901 -1.01427,-0.323347 -1.54339,-0.364547 -0.442809,-0.03448 -0.890061,-0.01148 -1.326999,0.06823 -0.522562,0.0287 -1.032078,0.253174 -1.405945,0.619395 -0.195749,0.191746 -0.354859,0.420765 -0.466254,0.671116 -0.05405,0.159218 -0.108825,0.318191 -0.16432,0.476912 -0.08856,0.253296 -0.178958,0.505951 -0.27118,0.757938 0.146807,-0.08587 0.314954,-0.134938 0.484905,-0.141498 0.206891,-0.008 0.415804,0.04761 0.591361,0.157369 l 0.833987,0.383023 c 0.565295,0.08002 1.142454,0.07571 1.706491,-0.01274 0.09741,-0.01528 0.194429,-0.03304 0.29093,-0.05328 l 0.892602,-0.645342 -0.555507,0.569525 -0.42826,0.251661 c -0.531109,0.271137 -1.154544,0.357112 -1.739215,0.239847 -0.146563,-0.0294 -0.290373,-0.07104 -0.436079,-0.104424 -0.05135,-0.01177 -0.103101,-0.0232 -0.151662,-0.04362 -0.04856,-0.02042 -0.09237,-0.05048 -0.134346,-0.0823 l -0.145031,-0.109932 c -0.08094,-0.03271 -0.160537,-0.06876 -0.238514,-0.108024 -0.125888,-0.06339 -0.248334,-0.135478 -0.381923,-0.18042 -0.227984,-0.0767 -0.483393,-0.06874 -0.706158,0.02201 l 0.10362,-0.56912 c 0.02544,-0.139747 0.04701,-0.280156 0.06967,-0.420382 0.02217,-0.137224 0.04788,-0.273921 0.07958,-0.409262 0.03336,-0.142404 0.07334,-0.283223 0.118272,-0.422408 0.08648,-0.267847 0.195696,-0.536735 0.388816,-0.74149 0.206792,-0.219251 0.491232,-0.345865 0.77097,-0.458029 0.178168,-0.07144 0.358446,-0.139511 0.545431,-0.182911 0.217173,-0.05041 0.440724,-0.06691 0.66347,-0.07633 0.226891,-0.0096 0.454246,-0.012 0.681022,0 0.2932,0.01551 0.585749,0.05526 0.869434,0.130956 0.317051,0.0846 0.631009,0.215031 0.958862,0.201214 0.137741,-0.0058 0.274344,-0.03757 0.400516,-0.09313 l 0.202951,-0.173412 0.177287,-0.22626"
       style="fill:#150b02;fill-opacity:0.97058835;stroke:none;display:inline" />
    <path
       sodipodi:nodetypes="csccssscssccsccssssccsccsscc"
       inkscape:connector-curvature="0"
       inkscape:original-d="m 70.422683,61.44648 c 0,0 -0.807922,-0.296268 -0.915654,-0.318096 -0.107736,-0.02196 -0.95892,0.018 -1.042962,0.04344 -0.0841,0.02544 -0.713397,0.29052 -0.713397,0.29052 0,0 -0.396403,-0.223512 -0.573117,-0.238104 -0.176655,-0.01452 -0.823155,-0.01272 -1.012785,0.0072 -0.189629,0.01968 -1.196044,0.20868 -1.359841,0.292212 -0.163797,0.08352 -0.8169,0.433992 -0.8169,0.433992 0,0 -0.497938,0.334188 -0.597096,0.377748 -0.0991,0.04344 -0.885767,0.308652 -0.969809,0.33402 -0.08404,0.02544 -0.898684,0.21054 -0.965524,0.234168 -0.06678,0.02376 -1.850826,-0.129792 -1.850826,-0.129792 0,0 -0.262203,0.3174 -0.265273,0.508596 0,0.11088 0.144221,0.299736 0.144221,0.299736 0.723417,0.630396 1.716511,0.735696 2.611082,0.994656 0.09696,0.07272 0.555741,0.505116 0.712935,0.637752 0.157251,0.132636 0.700134,0.407064 0.906966,0.51792 0.206832,0.11088 0.709749,0.11016 0.842385,0.292608 0.237876,0.3273 1.325263,-0.02316 1.545069,-0.07956 0.219864,-0.05616 1.202588,-0.2922 1.202588,-0.2922 l 0.991356,-0.303216 c 0,0 0.62287,-0.181512 0.698396,-0.404916 0.07553,-0.223452 0.381866,-0.951852 0.381866,-0.951852 l -0.191541,-0.526836 c 0,0 -0.0753,-0.306972 0.110052,-0.359628 0.185344,-0.05268 0.510795,-0.10344 0.601381,-0.345024 0.09065,-0.241584 0.438106,-1.322424 0.438106,-1.322424 z"
       inkscape:path-effect="#path-effect3793-9-5-6-8-9-1-1-0-7-0-3-19-6-1-8-2"
       id="path7623"
       d="m 70.422683,61.44648 c -0.282831,-0.159818 -0.594655,-0.268145 -0.915654,-0.318096 -0.346051,-0.05385 -0.702751,-0.03967 -1.042962,0.04344 -0.250328,0.06115 -0.491564,0.159394 -0.713397,0.29052 -0.173814,-0.11443 -0.369387,-0.195681 -0.573117,-0.238104 -0.332091,-0.06915 -0.676195,-0.03491 -1.012785,0.0072 -0.461101,0.05768 -0.924167,0.130564 -1.359841,0.292212 -0.28994,0.107576 -0.565458,0.25395 -0.8169,0.433992 -0.183156,0.148942 -0.384058,0.276041 -0.597096,0.377748 -0.308941,0.147493 -0.640457,0.240607 -0.969809,0.33402 -0.318804,0.09042 -0.638279,0.181988 -0.965524,0.234168 -0.616072,0.09823 -1.254494,0.05346 -1.850826,-0.129792 -0.08944,0.04804 -0.163945,0.123458 -0.210898,0.213478 -0.04695,0.09002 -0.06616,0.194275 -0.05437,0.295118 0.01311,0.112177 0.06475,0.21949 0.144221,0.299736 l 2.611082,0.994656 c 0.213352,0.237818 0.452908,0.452112 0.712935,0.637752 0.283744,0.202572 0.591,0.37057 0.906966,0.51792 0.270126,0.125972 0.549402,0.237859 0.842385,0.292608 0.509905,0.09528 1.034768,0.01358 1.545069,-0.07956 0.406138,-0.07413 0.807795,-0.171449 1.202588,-0.2922 l 0.991356,-0.303216 c 0.130538,-0.03993 0.260912,-0.08354 0.380071,-0.150136 0.11916,-0.0666 0.226283,-0.15397 0.318325,-0.25478 0.235518,-0.257953 0.373803,-0.602649 0.381866,-0.951852 l -0.191541,-0.526836 c -0.01219,-0.128052 0.02829,-0.260328 0.110052,-0.359628 0.0741,-0.09 0.177625,-0.150784 0.283398,-0.199795 0.105774,-0.04901 0.216263,-0.08828 0.317983,-0.145229 0.222366,-0.124494 0.395561,-0.334271 0.475704,-0.576186 0.08014,-0.241914 0.06645,-0.513604 -0.0376,-0.746238 l 0.08832,0.0071"
       style="fill:#800000;fill-opacity:1;stroke:none;display:inline" />
    <path
       sodipodi:nodetypes="cc"
       inkscape:connector-curvature="0"
       id="path7625"
       d="m 65.847831,57.888864 c 1.723462,-2.225508 -4.194841,0.838968 0,0 z"
       style="fill:#af5b33;fill-opacity:1;stroke:none;display:inline" />
    <path
       sodipodi:nodetypes="csscssc"
       inkscape:connector-curvature="0"
       id="path7627"
       d="m 68.769016,57.89976 c 0.108312,-0.278652 0.421366,-0.183084 0.634222,-0.329916 0.212912,-0.14682 0.325625,-0.535932 0.300835,-0.714432 -0.04981,-0.357024 -0.916754,-1.141488 -2.098376,-1.938 0.235734,-0.08652 1.796904,0.666828 2.259162,1.42176 0.609895,0.995988 -0.366692,2.150436 -0.931235,1.69374 z"
       style="fill:#af5b33;fill-opacity:0.98823529;stroke:none;display:inline" />
    <path
       style="opacity:0.98999999;fill:#ff4966;fill-opacity:1;stroke:none;display:inline"
       d="m 0.00116477,0.00162959 0,106.29595041 106.29687523,0 0,-106.29595041 z M 52.998535,9.1632546 c 23.912971,0 43.300834,19.2824044 43.300834,43.0714944 0,23.78908 -19.387863,43.08785 -43.300834,43.08785 -23.912998,0 -43.3008598,-19.29877 -43.3008598,-43.08785 0,-23.78909 19.3878618,-43.0714944 43.3008598,-43.0714944 z"
       id="path7689-1"
       inkscape:connector-curvature="0"
       sodipodi:nodetypes="cccccsssss" />
  </g>
</svg>
