<?xml version="1.0" encoding="UTF-8" standalone="no"?>
<!-- Generator: Adobe Illustrator 14.0.0, SVG Export Plug-In . SVG Version: 6.00 Build 43363)  -->

<svg
   xmlns:dc="http://purl.org/dc/elements/1.1/"
   xmlns:cc="http://creativecommons.org/ns#"
   xmlns:rdf="http://www.w3.org/1999/02/22-rdf-syntax-ns#"
   xmlns:svg="http://www.w3.org/2000/svg"
   xmlns="http://www.w3.org/2000/svg"
   xmlns:sodipodi="http://sodipodi.sourceforge.net/DTD/sodipodi-0.dtd"
   xmlns:inkscape="http://www.inkscape.org/namespaces/inkscape"
   version="1.1"
   id="icon"
   x="0px"
   y="0px"
   width="200"
   height="260"
   viewBox="0 0 200 260"
   enable-background="new 0 0 1024 1024"
   xml:space="preserve"
   inkscape:version="0.48.4 r9939"
   sodipodi:docname="jannaee-sick-profile.svg"><metadata
   id="metadata27"><rdf:RDF><cc:Work
       rdf:about=""><dc:format>image/svg+xml</dc:format><dc:type
         rdf:resource="http://purl.org/dc/dcmitype/StillImage" /><dc:title /></cc:Work></rdf:RDF></metadata><defs
   id="defs25"><inkscape:path-effect
     effect="spiro"
     id="path-effect3812-7-1"
     is_visible="true" /><inkscape:path-effect
     effect="spiro"
     id="path-effect2999-8-1-7"
     is_visible="true" /><inkscape:path-effect
     effect="spiro"
     id="path-effect3005-1-8-1-4"
     is_visible="true" /><inkscape:path-effect
     effect="spiro"
     id="path-effect3779-7-2-5-0"
     is_visible="true" /><inkscape:path-effect
     effect="spiro"
     id="path-effect3783-4-4-2-9"
     is_visible="true" /><inkscape:path-effect
     effect="spiro"
     id="path-effect3787-0-5-7-4"
     is_visible="true" /><inkscape:path-effect
     effect="spiro"
     id="path-effect3793-9-5-6-8"
     is_visible="true" /><inkscape:path-effect
     effect="spiro"
     id="path-effect3802-4-1-1-8"
     is_visible="true" /><inkscape:path-effect
     effect="spiro"
     id="path-effect4044"
     is_visible="true" /><inkscape:path-effect
     effect="spiro"
     id="path-effect3812-7-1-1"
     is_visible="true" /><inkscape:path-effect
     effect="spiro"
     id="path-effect2999-8-1-7-7"
     is_visible="true" /><inkscape:path-effect
     effect="spiro"
     id="path-effect3005-1-8-1-4-4"
     is_visible="true" /><inkscape:path-effect
     effect="spiro"
     id="path-effect3779-7-2-5-0-0"
     is_visible="true" /><inkscape:path-effect
     effect="spiro"
     id="path-effect3783-4-4-2-9-9"
     is_visible="true" /><inkscape:path-effect
     effect="spiro"
     id="path-effect3787-0-5-7-4-4"
     is_visible="true" /><inkscape:path-effect
     effect="spiro"
     id="path-effect3793-9-5-6-8-8"
     is_visible="true" /><inkscape:path-effect
     effect="spiro"
     id="path-effect3802-4-1-1-8-8"
     is_visible="true" /><inkscape:path-effect
     effect="spiro"
     id="path-effect4044-2"
     is_visible="true" /><inkscape:path-effect
     effect="spiro"
     id="path-effect3812-7-1-1-4"
     is_visible="true" /></defs><sodipodi:namedview
   pagecolor="#ffffff"
   bordercolor="#666666"
   borderopacity="1"
   objecttolerance="10"
   gridtolerance="10"
   guidetolerance="10"
   inkscape:pageopacity="0"
   inkscape:pageshadow="2"
   inkscape:window-width="765"
   inkscape:window-height="645"
   id="namedview23"
   showgrid="false"
   inkscape:zoom="3.431875"
   inkscape:cx="103.76981"
   inkscape:cy="108.66873"
   inkscape:window-x="698"
   inkscape:window-y="77"
   inkscape:window-maximized="0"
   inkscape:current-layer="layer1"
   height="372.05px" />

<g
   inkscape:groupmode="layer"
   id="layer1"
   inkscape:label="profile"
   style="display:inline"
   transform="translate(0,-763.99998)"><g
     style="display:inline"
     transform="matrix(-1.1631276,0.24763963,0.25968695,1.1091692,729.23683,571.89202)"
     id="g4069"><g
       transform="matrix(0.15045499,0,0,0.15045499,519.2675,92.458254)"
       id="g4074"><path
         style="fill:none;stroke:#ff3d2e;stroke-width:21.87486839;stroke-linecap:round;stroke-linejoin:round;stroke-miterlimit:4;stroke-opacity:1;stroke-dasharray:none;stroke-dashoffset:0"
         d="m 90.919581,581.80145 c -6.725988,3.85235 -14.844626,5.20905 -22.457714,3.75288 -7.613088,-1.45617 -14.657974,-5.71323 -19.487508,-11.77583 -4.829535,-6.0626 -7.403973,-13.88086 -7.121391,-21.6268 0.282581,-7.74595 3.419856,-15.35584 8.678307,-21.05042 1.455452,-1.57616 3.06191,-3.00565 4.551963,-4.54914 1.490053,-1.5435 2.877365,-3.22317 3.794607,-5.16258 0.917243,-1.9394 1.337216,-4.17017 0.843055,-6.25786 -0.247081,-1.04384 -0.721623,-2.0384 -1.412746,-2.85877 -0.691124,-0.82037 -1.60133,-1.46216 -2.620911,-1.7955 -1.384253,-0.45256 -2.892026,-0.32563 -4.319844,-0.0387 -1.427818,0.28688 -2.826972,0.72855 -4.273428,0.89806 -3.135335,0.36743 -6.387042,-0.61418 -8.862147,-2.57356 -2.475105,-1.95939 -4.164075,-4.85811 -4.753654,-7.95935 -0.58958,-3.10125 -0.09559,-6.3812 1.284504,-9.22033 1.380099,-2.83913 3.626368,-5.23325 6.316009,-6.88587 3.132804,-1.92492 6.776268,-2.83425 10.390803,-3.50872 3.614535,-0.67448 7.287249,-1.14655 10.775548,-2.30911 3.488299,-1.16256 6.847269,-3.10275 8.948139,-6.12038 1.050436,-1.50882 1.761171,-3.26888 1.942541,-5.09837 0.181371,-1.8295 -0.181624,-3.72568 -1.12127,-5.30587 -0.924256,-1.55431 -2.398925,-2.7737 -4.099176,-3.38956 -1.70025,-0.61586 -3.613752,-0.62372 -5.319009,-0.0219 -1.705257,0.60186 -3.189904,1.80908 -4.12691,3.35574 -0.937006,1.54666 -1.319577,3.42154 -1.063442,5.21166 L 47.093971,465.7925 35.063395,455.48056 c -2.032957,-3.05909 -4.336383,-5.93837 -6.874609,-8.59325 -6.576039,-6.87826 -14.734887,-12.27175 -20.343179,-19.95952 -2.8041458,-3.84389 -4.9293365,-8.27891 -5.5067228,-13.00176 -0.5773863,-4.72285 0.5089997,-9.748 3.5074609,-13.44231 2.4112016,-2.97076 5.9969859,-4.96088 9.7935779,-5.43546 3.796593,-0.47457 7.761921,0.57165 10.830199,2.85748 -3.0498,-5.67464 -6.498372,-11.1349 -10.311865,-16.32721 -6.4636595,-8.80067 -14.1076821,-17.06929 -17.7432031,-27.36559 -1.8177604,-5.14814 -2.5528327,-10.76822 -1.4333223,-16.11185 1.1195105,-5.34363 4.2169776,-10.37328 8.8646135,-13.23809 2.594528,-1.59927 5.5715559,-2.48859 8.5733559,-3.01627 3.0018,-0.52768 6.051738,-0.70936 9.086169,-0.9948 3.034432,-0.28544 6.079896,-0.67992 8.980826,-1.61472 2.90093,-0.9348 5.670917,-2.44147 7.732667,-4.68612 1.738456,-1.89267 2.922566,-4.26022 3.56795,-6.74778 0.645383,-2.48755 0.764901,-5.0939 0.529577,-7.65302 -0.470647,-5.11822 -2.324905,-9.99177 -4.097527,-14.81625 -3.314113,-9.01989 -6.408263,-18.14069 -8.593249,-27.49845 -1.715006,-7.34495 -2.865281,-14.82168 -3.437328,-22.34247 -3.053884,-0.99791 -5.824928,-2.8464 -7.919274,-5.28274 -2.094345,-2.43634 -3.505924,-5.45347 -4.034103,-8.62255 -0.528179,-3.16908 -0.171428,-6.48093 1.019547,-9.46482 1.190975,-2.98389 3.212724,-5.63118 5.777886,-7.5656 3.785725,-2.85486 8.59085,-4.08347 13.324463,-4.35706 4.733612,-0.27359 9.469048,0.33164 14.173946,0.91975 l 13.749264,1.71864 12.030529,0 c -0.46265,-5.86315 2.212554,-11.88237 6.874608,-15.46788 3.852067,-2.96256 8.956212,-4.2386 13.749241,-3.4373 2.949205,2.2119 6.625377,3.4373 10.311887,3.4373 3.68651,0 7.3627,-1.22539 10.31191,-3.4373 l 1.71867,-17.1865 3.43733,-8.59325 c 2.42378,-2.77953 5.34944,-5.12009 8.59322,-6.87463 5.72857,-3.09855 12.45255,-4.32109 18.90518,-3.43728 l 0,0 18.90517,12.03053 17.18654,-3.43728 c 4.73879,-5.74808 6.96587,-13.49666 6.00234,-20.88369 -0.96353,-7.38702 -5.10367,-14.30509 -11.15833,-18.64532 -2.30927,-1.65538 -4.85915,-2.93806 -7.3311,-4.33895 -2.47195,-1.40089 -4.90394,-2.94957 -6.83947,-5.02964 -1.93554,-2.08008 -3.35047,-4.75881 -3.4399,-7.598704 -0.0447,-1.419949 0.24754,-2.857936 0.90615,-4.116701 0.65861,-1.258765 1.6899,-2.330952 2.9551,-2.977114 1.5986,-0.816434 3.48801,-0.922481 5.25574,-0.610748 1.76774,0.311733 3.4402,1.015181 5.07441,1.757763 1.63421,0.742582 3.25671,1.533017 4.97998,2.035418 1.72327,0.502401 3.57629,0.705812 5.31374,0.254877 1.74641,-0.45326 3.28137,-1.548242 4.47555,-2.900757 1.19419,-1.352514 2.07075,-2.956304 2.80685,-4.603586 1.4722,-3.294563 2.46362,-6.888912 4.74813,-9.682207 2.19078,-2.678689 5.50895,-4.404023 8.96003,-4.65891 3.45107,-0.254888 6.98671,0.964243 9.54726,3.292011 2.56054,2.327769 4.11012,5.731561 4.18432,9.191243 0.0742,3.459682 -1.32803,6.926779 -3.78642,9.362186 1.84639,1.225255 4.14886,1.744942 6.34253,1.431562 2.19367,-0.31338 4.25854,-1.456971 5.688,-3.150202 1.52048,-1.801043 2.29343,-4.144637 2.52384,-6.490381 0.23042,-2.345745 -0.0483,-4.71157 -0.43204,-7.037162 -0.38371,-2.325593 -0.87331,-4.638423 -1.06911,-6.98731 -0.19581,-2.348888 -0.0878,-4.76064 0.69597,-6.983557 0.97125,-2.754756 2.9572,-5.095342 5.37781,-6.730172 2.42061,-1.63483 5.25817,-2.591108 8.14617,-3.02867 5.77601,-0.875126 11.63933,0.267185 17.41176,1.165542 6.33361,0.985691 12.73909,1.686433 18.90518,3.4373 7.26345,2.062465 14.11018,5.581235 20.01536,10.28658 l 3.38886,-5.49406 3.94964,-0.15196 11.24125,3.34198 c -0.0874,1.310875 0.35879,2.649587 1.21526,3.64583 1.08082,1.257204 2.74279,1.918788 4.39662,2.035271 1.65383,0.116483 3.3071,-0.266299 4.86983,-0.820011 1.26175,-0.447066 2.48347,-1.007025 3.6458,-1.671 0.5329,-0.947689 1.19985,-1.819865 1.97481,-2.58245 2.23118,-2.195566 5.37774,-3.426114 8.5069,-3.342 2.99705,0.08056 5.94521,1.359957 8.05116,3.49391 l 0.71564,4.45453 c 3.9382,-3.724068 8.7639,-6.503278 13.96145,-8.04067 9.11368,-2.695748 19.32874,-1.418875 27.49843,3.43728 2.97361,1.527278 5.84634,3.250918 8.59328,5.15597 3.6815,2.553183 7.13671,5.43253 10.31191,8.59327 l 8.59325,8.59325 c 3.48608,4.776303 6.3796,9.984639 8.59325,15.467849 1.78741,4.4274 3.1298,9.02281 4.87326,13.4677 1.74345,4.44489 3.92865,8.79464 7.15729,12.3121 4.79046,5.21899 11.82094,8.30893 18.90517,8.30893 7.08423,0 14.11471,-3.08994 18.90517,-8.30893 1.84565,-5.1233 4.79684,-9.84519 8.59328,-13.74924 5.9584,-6.12729 14.08041,-10.18979 22.5945,-10.93582 8.51408,-0.74604 17.34111,1.91182 23.80911,7.49851 6.29767,5.43957 10.06539,13.16201 13.7492,20.62385 1.70123,3.44598 3.41992,6.88334 5.15597,10.31191 1.35854,3.06091 3.09446,5.95411 5.15596,8.59325 4.29445,5.49778 10.01921,9.86837 16.45438,12.56216 6.43517,2.6938 13.56629,3.70474 20.49662,2.9057 7.22905,9.39446 18.31258,15.7279 30.0764,17.18652 5.54254,0.68723 11.1586,0.33612 16.73492,0.647 5.57633,0.31088 11.30553,1.36195 15.91948,4.50894 4.28046,2.91952 7.33006,7.58662 8.28492,12.67918 0.95485,5.09256 -0.19688,10.54741 -3.12895,14.81928 3.1505,3.70896 6.60293,7.16139 10.31189,10.31189 2.66527,2.26396 5.46742,4.3766 7.95239,6.83711 2.48496,2.46051 4.67038,5.32013 5.79682,8.63077 1.1273,3.31317 1.1273,6.99872 0,10.31189 l -10.31191,6.87463 c -2.55748,2.63744 -4.86288,5.51919 -6.87458,8.59325 -5.70351,8.71546 -8.97004,18.88808 -10.31192,29.2171 -0.96214,7.406 -0.96214,14.93644 0,22.34244 10.52809,0.55306 20.73913,5.65859 27.49841,13.74924 4.28528,5.12935 7.15935,11.36418 8.67381,17.8742 1.51446,6.51001 1.63808,13.25229 1.63808,19.93614 l 0,20.62383 c 0,16.63502 0.4088,33.34248 -1.71862,49.8409 -1.42351,11.03948 -4.0936,21.87651 -6.87463,32.65437 -4.9866,19.32554 -10.38838,38.66539 -18.90513,56.71553 -3.94587,8.36275 -8.54767,16.4159 -13.74922,24.06111 -4.02707,4.56827 -8.0373,9.15138 -12.03058,13.74922 -6.14769,7.07842 -12.27902,14.22366 -17.29806,22.14246 -5.01903,7.91879 -8.92067,16.69214 -10.20037,25.97979 -1.02155,7.41409 -0.35543,14.94056 0.0184,22.41536 0.37384,7.47479 0.43441,15.10744 -1.73705,22.26964 -1.72259,5.68166 -4.81183,10.89075 -8.59325,15.4678 -7.50484,9.08392 -17.85564,15.7815 -29.2171,18.9052 l -8.59327,29.2171 c -0.52762,1.79389 -1.10459,3.59867 -2.10797,5.17653 -1.00339,1.57786 -2.41714,2.89564 -4.07746,3.75576 -1.66031,0.86011 -3.52795,1.26153 -5.39343,1.3897 -1.86548,0.12818 -3.73782,9.3e-4 -5.60766,-0.0101 -7.9032,-0.0466 -15.80787,2.11784 -22.58493,6.18407 -6.77706,4.06624 -12.40667,10.0224 -16.08473,17.01773"
         id="path3810"
         inkscape:path-effect="#path-effect3812-7-1-1"
         inkscape:original-d="m 90.919581,581.80145 c 0,0 -37.343666,-36.68044 -40.388306,-50.70017 -3.044592,-14.01978 12.030576,-15.46788 5.155968,-20.62385 -6.874608,-5.15595 -3.733126,4.36232 -8.593272,0.85932 -4.860123,-3.503 -9.23589,-18.12458 -6.015288,-26.63911 4.500164,-11.89746 36.836529,-11.07385 30.935761,-22.34245 -2.395524,-4.57465 -14.608537,5.15597 -14.608537,5.15597 L 47.093971,465.7925 35.063395,455.48056 c 0,0 3.437304,8.59327 -6.874609,-8.59325 -10.311912,-17.18652 -30.5557626,-31.3284 -22.3424409,-46.40359 3.3145846,-6.0838 20.6237769,-2.57798 20.6237769,-2.57798 0,0 -5.15592,-0.85932 -10.311865,-16.32721 C 11.002289,366.11068 2.4090174,335.17496 5.8463451,324.863 9.2836493,314.55109 33.078779,324.14826 40.219363,314.55109 c 5.813497,-7.81354 5.155944,-8.59325 0,-29.21705 -5.155968,-20.62382 -5.155968,-20.62382 -8.593249,-27.49845 -3.437328,-6.87461 -3.437328,-22.34247 -3.437328,-22.34247 0,0 -11.404524,-22.55454 -5.155944,-30.93571 5.521362,-7.4058 27.498409,-3.43731 27.498409,-3.43731 l 13.749264,1.71864 12.030529,0 c 0,0 -1.71864,-13.74921 6.874608,-15.46788 8.593249,-1.71864 13.749241,-3.4373 13.749241,-3.4373 0,0 1.71864,3.4373 10.311887,3.4373 8.59325,0 10.31191,-3.4373 10.31191,-3.4373 l 1.71867,-17.1865 3.43733,-8.59325 c 0,0 -6.87466,-3.43732 8.59322,-6.87463 15.46788,-3.43728 18.90518,-3.43728 18.90518,-3.43728 l 0,0 18.90517,12.03053 17.18654,-3.43728 c -29.56805,-24.96058 -1.92622,-33.22712 -5.15599,-39.52901 -8.59327,-15.46786 -17.30385,-19.129309 -13.74922,-24.061109 3.55464,-4.93179 14.1977,6.13503 20.62387,3.43731 6.44778,-2.70683 -2e-5,-17.18655 12.03053,-17.18655 12.03058,0 18.90519,17.18653 18.90519,17.18653 0,0 10.31189,18.905179 12.03053,-1.71864 1.71866,-20.62381 -6.87459,-22.34247 1.71866,-27.49841 8.59325,-5.156 17.18654,-8.5933 30.93574,-8.5933 13.74924,0 6.87461,0 18.90518,3.4373 12.03053,3.43731 20.01536,10.28658 20.01536,10.28658 4.60414,0.73419 3.38886,-5.49406 3.38886,-5.49406 l 3.94964,-0.15196 11.24125,3.34198 c 0,0 -0.30383,3.19009 1.21526,3.64583 1.51909,0.45571 7.29161,1.8229 9.26645,1.21526 1.9748,-0.60764 3.6458,-1.671 3.6458,-1.671 0,0 -0.60764,-0.91145 1.97481,-2.58245 2.58245,-1.671 5.1649,-3.4939 8.5069,-3.342 3.342,0.15195 8.05116,3.49391 8.05116,3.49391 l 0.71564,4.45453 c 10.52415,-6.32203 7.08684,-6.32203 13.96145,-8.04067 6.87459,-1.71869 27.49843,3.43728 27.49843,3.43728 0,0 1.71867,-1.71864 8.59328,5.15597 6.87461,6.87461 10.31191,8.59327 10.31191,8.59327 l 8.59325,8.59325 c 0,0 0,-6.87463 8.59325,15.467849 8.59325,22.34247 -6.87461,20.62381 12.03055,25.7798 18.90521,5.15594 37.81034,0 37.81034,0 0,0 -3.43728,-10.31194 8.59328,-13.74924 12.03055,-3.43731 37.81037,-8.59328 46.40361,-3.43731 8.59323,5.15595 10.31189,12.03056 13.7492,20.62385 3.4373,8.59325 5.15597,10.31191 5.15597,10.31191 0,0 -8.59328,5.15595 5.15596,8.59325 13.7492,3.43728 36.951,15.46786 36.951,15.46786 0,0 7.73393,13.74922 30.0764,17.18652 22.34251,3.43728 27.49846,-6.87461 32.6544,5.15594 5.15597,12.0306 5.15597,27.49846 5.15597,27.49846 0,0 1.71864,8.59325 10.31189,10.31189 8.59324,1.71866 12.03057,8.59325 13.74921,15.46788 1.71864,6.87461 0,10.31189 0,10.31189 l -10.31191,6.87463 c 0,0 -3.4373,1.71864 -6.87458,8.59325 -3.43733,6.87463 -6.87461,12.03058 -10.31192,29.2171 -3.4373,17.18649 0,22.34244 0,22.34244 0,0 17.1865,-5.15595 27.49841,13.74924 10.31189,18.90516 10.31189,24.0611 10.31189,37.81034 0,13.7492 0,-6.87461 0,20.62383 0,27.49843 0,37.81032 -1.71862,49.8409 -1.71866,12.03055 5.15595,-6.87461 -6.87463,32.65437 -12.03055,39.52899 -12.03055,41.24765 -18.90513,56.71553 -6.87461,15.46786 -13.74922,24.06111 -13.74922,24.06111 0,0 -1.71864,0 -12.03058,13.74922 -10.31193,13.74921 -27.49843,24.06112 -27.49843,48.12225 0,24.06111 0,36.0917 -1.71864,44.685 -1.71866,8.5932 6.87461,6.8746 -8.59325,15.4678 -15.46788,8.5933 -29.2171,18.9052 -29.2171,18.9052 l -8.59327,29.2171 c 0,0 -1.71864,6.8746 -17.18652,10.3119 -15.46786,3.4373 -38.66966,23.2018 -38.66966,23.2018"
         inkscape:connector-curvature="0"
         sodipodi:nodetypes="czszsacccsacssasscacccscscccscccccsazcssssccccsscssccscsccsscssscscsscssccsscsssssscssssccsc" /><path
         style="fill:none;stroke:#ff3d2e;stroke-width:9.45265198;stroke-linecap:butt;stroke-linejoin:round;stroke-miterlimit:4;stroke-opacity:1;stroke-dasharray:none;stroke-dashoffset:0;display:inline"
         d="m 86.281707,504.72502 10.121983,-38.2916 0.38196,-54.81143 c -2.310279,-15.61791 1.601815,-32.06965 10.69492,-44.97593 7.82356,-11.10435 19.38142,-19.52792 32.34791,-23.57573 4.02174,-1.04024 8.30591,-1.04851 12.33164,-0.0238 4.02573,1.02471 7.78458,3.08025 10.81955,5.91671 2.19258,2.04917 3.99617,4.4792 6.1258,6.59371 2.12963,2.11451 4.71094,3.9594 7.67979,4.39806 2.76799,0.40898 5.63003,-0.47144 7.93877,-2.05219 2.30874,-1.58074 4.10559,-3.81749 5.52961,-6.22605 2.84804,-4.81713 4.31484,-10.38489 7.44094,-15.02639 2.65283,-3.9388 6.48252,-7.09284 10.89801,-8.84074 4.41548,-1.74791 9.40172,-2.06531 13.97536,-0.78723 3.13558,0.87622 6.12764,2.54391 8.12777,5.11278 1.00007,1.28443 1.73799,2.7814 2.08046,4.37282 0.34248,1.59142 0.28244,3.27662 -0.23751,4.8192 -0.87392,2.59272 -2.98734,4.62797 -5.39351,5.93039 -2.40616,1.30242 -5.10522,1.95255 -7.78679,2.49578 -2.68158,0.54322 -5.39876,0.99768 -7.96237,1.95362 -2.56361,0.95595 -5.00422,2.46899 -6.55705,4.72169 -1.65937,2.40724 -2.16321,5.52612 -1.56898,8.38884 0.59424,2.86273 2.23386,5.45961 4.41179,7.41024 2.17792,1.95064 4.87294,3.27586 7.69298,4.04767 2.82005,0.77181 5.76695,1.00565 8.68989,0.93653 5.84587,-0.13824 11.59646,-1.46815 17.42143,-1.98097 5.82498,-0.51282 11.98981,-0.12521 17.01159,2.87063 2.98866,1.78294 5.44303,4.44907 6.97313,7.57473 -3.17153,4.96481 -8.76109,8.30198 -14.63625,8.73838 -4.05858,0.30147 -8.20577,-0.74184 -11.63856,-2.92791 -3.43278,-2.18606 -6.1322,-5.50281 -7.57557,-9.30802 -1.44336,-3.80521 -1.6227,-8.07786 -0.50328,-11.99064 1.11942,-3.91277 3.5314,-7.44406 6.76893,-9.9101 14.43928,-8.22828 28.89615,-16.42567 43.37049,-24.59211 23.54552,-13.28441 47.13725,-26.4869 70.77463,-39.60715 5.91265,-4.4288 13.11942,-7.10794 20.48926,-7.61695 7.36985,-0.50901 14.87652,1.15393 21.34188,4.72782 10.67592,5.90138 18.22697,17.13104 19.66459,29.24445 -0.62833,4.36255 -0.62833,8.81511 0,13.17766 1.43033,9.93093 6.02362,19.07431 10.13527,28.22655 4.11166,9.15224 7.86332,18.85238 7.43496,28.87663 -0.26317,6.15847 -2.10265,12.14295 -4.31022,17.89818 -2.20756,5.75523 -4.79948,11.36921 -6.67118,17.24226 -1.2533,3.93261 -2.18244,7.99725 -2.32695,12.12221 -0.14451,4.12497 0.5212,8.32529 2.32695,12.03682 2.09822,4.31266 5.736,7.85642 10.10211,9.84101 4.36611,1.9846 9.42804,2.39524 14.05695,1.14037 l 17.5702,30.74786 c 11.1578,-0.59671 22.49247,3.45139 30.74787,10.9814 4.68534,4.27364 8.37713,9.59167 10.98137,15.37392 3.62547,8.04971 5.15126,17.03431 4.38645,25.82959 -0.7648,8.79528 -3.8185,17.38166 -8.77899,24.68477 -3.17067,12.26603 -2.63193,25.46536 1.52783,37.43219 4.73802,13.6304 14.18372,25.57441 26.35532,33.32611 l 9.45354,-11.45883 c 0.73347,-3.89903 2.2347,-7.65211 4.39257,-10.98138 1.695,-2.61513 3.82403,-4.99543 6.46368,-6.652 2.63964,-1.65658 5.8218,-2.54961 8.91024,-2.13311 2.50542,0.33788 4.88571,1.54196 6.64235,3.36006 1.75665,1.8181 2.87819,4.23837 3.12975,6.75392 0.25156,2.51556 -0.36852,5.10999 -1.73035,7.23994 -1.36184,2.12995 -3.45656,3.78154 -5.84546,4.60885 1.72183,3.52626 2.93223,7.30174 3.58162,11.17182 1.13997,6.79372 0.52582,13.87426 -1.76687,20.37023 -2.2927,6.49597 -6.259,12.3934 -11.41079,16.9665 l -5.77791,8.5946 -13.17766,2.1963 -17.5702,0 -4.39255,26.3553 4.39255,6.5889 -6.58883,35.1404 c -3.33708,8.19483 -7.00143,16.25638 -10.98138,24.159 -6.49933,12.90512 -13.841,25.38595 -21.96277,37.3367 l -26.35532,32.9442 -24.15904,24.159 -21.96275,17.5702 -19.76649,10.9814 c -18.02489,4.2986 -36.07289,8.50025 -54.14298,12.6047 -24.51878,5.56921 -49.34083,10.98812 -74.48245,10.6949 -13.68728,-0.15963 -27.35381,-2.0247 -40.58336,-5.5384 -8.90611,-5.74526 -16.72354,-13.17183 -22.91766,-21.7718 -7.11177,-9.87405 -12.01287,-21.13242 -16.90178,-32.2757 -5.89108,-13.42751 -11.84339,-26.82817 -17.85667,-40.2014 -6.38813,-8.17406 -12.47324,-16.58492 -18.23865,-25.2095 -6.01449,-8.99719 -11.67993,-18.2251 -17.09275,-27.5966 -12.76561,-22.10177 -24.242221,-45.32507 -29.539959,-70.2927 -2.096323,-9.87973 -3.206512,-19.96843 -3.308723,-30.0676 -3.314177,-16.97244 -3.059737,-34.63313 0.742013,-51.50305 1.488963,-6.60714 3.515378,-13.09308 6.052648,-19.37269 l 0.958621,-39.21346 -7.826493,-24.83858 0.83713,-37.33675"
         id="path2997"
         inkscape:path-effect="#path-effect2999-8-1-7-7"
         inkscape:original-d="m 86.281707,504.72502 10.121983,-38.2916 0.38196,-54.81143 c 0,0 2.361096,-32.29842 10.69492,-44.97593 7.44129,-11.31978 32.34791,-23.57573 32.34791,-23.57573 0,0 15.96137,2.30509 23.15119,5.8929 5.21165,2.60068 6.01733,12.06815 13.80559,10.99177 6.11631,-0.84531 12.40935,-17.4123 20.90932,-23.30463 7.34675,-5.09289 15.37845,-11.75497 24.87337,-9.62797 9.49492,2.12699 -3.40325,5.40836 9.97072,14.3048 13.37397,8.89644 -26.22985,9.04356 -27.69972,15.10148 -1.46987,6.05792 57.90513,19.68402 53.6587,21.67294 -4.24643,1.98891 6.97313,7.57473 6.97313,7.57473 -55.33882,-57.32125 -55.46029,60.01718 -14.63625,8.73838 24.11876,-30.29542 -12.94848,-34.13667 -12.94848,-34.13667 l 43.37049,-24.59211 70.77463,-39.60715 c 0,0 11.08328,-7.28168 41.83114,-2.88913 30.74789,4.39254 19.66459,29.24445 19.66459,29.24445 0,0 -4.39255,2.19628 0,13.17766 4.39257,10.98137 17.57023,46.12181 17.57023,57.10318 0,10.98138 -10.9814,24.15904 -10.9814,35.14044 0,10.98137 -19.76647,17.5702 0,24.15903 19.76649,6.58883 24.15906,10.98138 24.15906,10.98138 l 17.5702,30.74786 c 0,0 21.96278,8.78512 30.74787,10.9814 8.78511,2.19626 10.98137,8.78509 10.98137,15.37392 0,6.58883 -4.39254,50.51436 -4.39254,50.51436 0,0 -7.25726,30.84336 1.52783,37.43219 8.78512,6.58883 26.35532,33.32611 26.35532,33.32611 l 9.45354,-11.45883 c 0,0 2.19629,-2.19629 4.39257,-10.98138 2.19626,-8.78511 10.1277,-11.48967 15.37392,-8.78511 6.53958,3.37132 2.19629,21.96277 2.19629,21.96277 0,0 3.63841,7.2616 3.58162,11.17182 -0.19165,13.19663 -13.17766,37.33673 -13.17766,37.33673 l -5.77791,8.5946 -13.17766,2.1963 -17.5702,0 -4.39255,26.3553 4.39255,6.5889 -6.58883,35.1404 c 0,0 -6.58883,15.3739 -10.98138,24.159 -4.39254,8.7851 -21.96277,37.3367 -21.96277,37.3367 l -26.35532,32.9442 -24.15904,24.159 -21.96275,17.5702 -19.76649,10.9814 c 0,0 -45.35789,10.4085 -54.14298,12.6047 -8.78511,2.1963 -63.50105,10.6949 -74.48245,10.6949 -10.98137,0 -40.58336,-5.5384 -40.58336,-5.5384 0,0 -16.56845,-13.3627 -22.91766,-21.7718 -7.31789,-9.6921 -11.61714,-21.3413 -16.90178,-32.2757 -6.38054,-13.2019 -17.85667,-40.2014 -17.85667,-40.2014 0,0 -12.4645,-16.5936 -18.23865,-25.2095 -6.02394,-8.9885 -8.78748,-11.4942 -17.09275,-27.5966 -8.30527,-16.1025 -25.084766,-53.1116 -29.539959,-70.2927 -4.455192,-17.1812 -3.308723,-30.0676 -3.308723,-30.0676 0,0 -1.969916,-34.54911 0.742013,-51.50305 1.068602,-6.68047 6.052648,-19.37269 6.052648,-19.37269 l 0.958621,-39.21346 -7.826493,-24.83858 z"
         inkscape:connector-curvature="0"
         sodipodi:nodetypes="cccscasazzzzcscccscssssccsscsccsscacccccccscccccsscaacazzcacccc" /><g
         transform="translate(3.3145804,-38.584349)"
         style="display:inline"
         id="g3938"><path
           sodipodi:nodetypes="ccsccccccsaaaccccccccc"
           inkscape:connector-curvature="0"
           inkscape:original-d="m 282.71362,635.98237 -10.74249,-2.23677 c 0,0 8.68962,-19.86198 26.06884,-23.5861 17.37923,-3.72413 52.13771,0 52.13771,0 l 14.89646,8.68961 9.931,7.44825 12.41374,-3.72412 6.20687,-14.89649 -9.931,3.72412 c 0,0 -13.65511,-4.9655 -18.62061,-7.44825 -4.96549,-2.48274 -16.01727,-8.57897 -24.82746,-9.93096 -9.71079,-1.49022 -19.95637,-0.51225 -29.38838,2.23676 -10.97308,3.19818 -21.75895,8.50619 -30.23432,16.17464 -7.66224,6.93274 -17.27558,25.73925 -17.27558,25.73925 l 6.16233,-0.11048 6.46728,0.89525 13.37236,3.47814 13.22521,3.85975 14.40454,-1.41377 -9.00916,-1.2046 -12.41374,-3.72413 z"
           inkscape:path-effect="#path-effect3005-1-8-1-4-4"
           id="path3003"
           d="m 282.71362,635.98237 -10.74249,-2.23677 c 6.13678,-10.18118 15.32629,-18.49551 26.06884,-23.5861 16.22968,-7.69079 35.90803,-7.69079 52.13771,0 l 14.89646,8.68961 9.931,7.44825 12.41374,-3.72412 6.20687,-14.89649 -9.931,3.72412 c -6.33504,-2.14478 -12.55401,-4.63237 -18.62061,-7.44825 -8.10665,-3.7628 -16.06817,-8.15575 -24.82746,-9.93096 -9.72541,-1.97101 -19.87035,-0.56961 -29.38838,2.23676 -11.05402,3.25926 -21.65339,8.48167 -30.23432,16.17464 -7.77377,6.96934 -13.77091,15.90459 -17.27558,25.73925 l 6.16233,-0.11048 6.46728,0.89525 c 4.47426,1.09345 8.93236,2.253 13.37236,3.47814 4.42703,1.22156 8.83607,2.50833 13.22521,3.85975 l 14.40454,-1.41377 -9.00916,-1.2046 c -4.14297,-1.22444 -8.28093,-2.46583 -12.41374,-3.72413 -4.28679,-1.30519 -8.56804,-2.62857 -12.8436,-3.9701"
           style="fill:#ff291f;fill-opacity:1;stroke:#ff3d2e;stroke-width:5.93380431;stroke-miterlimit:4;stroke-opacity:1;stroke-dasharray:none" /><path
           transform="matrix(2.3117984,0,0,2.3833697,-557.79635,-408.47574)"
           d="m 394.96611,431.92328 c 0,4.36865 -4.17714,7.91014 -9.32991,7.91014 -5.15277,0 -9.32991,-3.54149 -9.32991,-7.91014 0,-4.36865 4.17714,-7.91014 9.32991,-7.91014 5.15277,0 9.32991,3.54149 9.32991,7.91014 z"
           sodipodi:ry="7.9101396"
           sodipodi:rx="9.3299084"
           sodipodi:cy="431.92328"
           sodipodi:cx="385.6362"
           id="path3007"
           style="fill:#ff3d2e;fill-opacity:1;stroke:none"
           sodipodi:type="arc" /><path
           sodipodi:nodetypes="ccscccccsccccccccccsssssscc"
           inkscape:connector-curvature="0"
           inkscape:original-d="m 236.41726,566.31602 -0.31952,6.39077 c 0,0 0.95859,4.47356 2.23676,6.07125 1.27815,1.59769 5.43216,5.7517 5.43216,5.7517 l 5.7517,1.27815 13.10109,-5.11263 3.51493,-11.18385 20.13094,-10.22524 c 0,0 17.2551,-9.58615 18.85279,-9.9057 1.5977,-0.31955 26.52171,-2.23677 28.11941,-2.55632 1.59769,-0.31952 19.81139,3.51494 19.81139,3.51494 0,0 23.32635,5.43215 24.92404,6.07122 1.59769,0.6391 19.81139,8.30802 19.81139,8.30802 l 12.46202,7.66894 5.11263,5.1126 3.51491,3.19539 6.07125,2.23679 0.31952,-9.58616 -10.8643,-15.65741 c 0,0 -18.53325,-12.14247 -21.08956,-13.74016 -2.55632,-1.5977 -14.37924,-7.3494 -17.57463,-8.62757 -3.19541,-1.27814 -26.84126,-7.66891 -33.23205,-8.62753 -6.39077,-0.95862 -34.82973,-1.5977 -39.94233,0.63907 -5.11263,2.23676 -15.65741,6.39077 -21.08956,8.62756 -5.43217,2.23677 -17.2551,7.34939 -21.40911,9.26661 -4.154,1.91724 -15.33785,9.58616 -15.33785,9.58616 z"
           inkscape:path-effect="#path-effect3779-7-2-5-0-0"
           id="path3777"
           d="m 236.41726,566.31602 -0.31952,6.39077 c 0.37026,2.13676 1.13224,4.20501 2.23676,6.07125 1.3543,2.28828 3.22494,4.26896 5.43216,5.7517 l 5.7517,1.27815 13.10109,-5.11263 3.51493,-11.18385 20.13094,-10.22524 c 6.33198,-3.21624 12.2789,-7.21831 18.85279,-9.9057 8.8075,-3.60048 18.67115,-3.68142 28.11941,-2.55632 6.66204,0.79332 13.24145,2.1555 19.81139,3.51494 8.37766,1.73349 16.77399,3.46988 24.92404,6.07122 6.83073,2.18024 13.46873,4.96392 19.81139,8.30802 l 12.46202,7.66894 c 1.65481,1.75267 3.35995,3.4578 5.11263,5.1126 1.15141,1.0871 2.32332,2.15249 3.51491,3.19539 l 6.07125,2.23679 0.31952,-9.58616 -10.8643,-15.65741 c -6.74554,-4.99785 -13.7924,-9.58898 -21.08956,-13.74016 -5.6768,-3.22939 -11.51296,-6.19626 -17.57463,-8.62757 -10.64488,-4.26962 -21.90087,-6.85341 -33.23205,-8.62753 -13.26125,-2.07631 -27.03165,-3.03329 -39.94233,0.63907 -7.31251,2.08 -14.12356,5.58223 -21.08956,8.62756 -7.1266,3.11554 -14.46125,5.77057 -21.40911,9.26661 -5.39334,2.71383 -10.53508,5.92742 -15.33785,9.58616 l -8.30802,11.5034"
           style="fill:#ff3d2e;fill-opacity:1;stroke:none" /><path
           inkscape:connector-curvature="0"
           inkscape:original-d="m 150.53908,552.60676 5.87549,6.50126 c 0,0 6.85471,6.15911 5.54905,9.923 -1.30565,3.7639 -3.91698,8.5543 -6.85473,9.58082 -2.93773,1.02651 -9.79244,2.39519 -11.42452,2.39519 -1.63207,0 -15.01512,-6.15909 -16.64717,-8.21211 -1.63208,-2.05303 -7.18114,-6.15909 -11.42454,-8.89647 -4.24341,-2.73738 -9.46604,-5.81695 -13.0566,-7.18563 -3.590577,-1.36868 -15.66792,-3.42173 -17.299997,-3.42173 -1.632078,0 -0.65285,-11.63385 -0.65285,-11.63385 l 3.590579,-9.58081 8.160363,-1.36868 c 0,0 12.403765,0.68435 13.709445,1.36868 1.30565,0.68437 13.05662,5.47476 14.68869,5.81694 1.63208,0.34217 10.7717,4.44825 12.40377,5.13258 1.63208,0.68435 13.38302,9.58081 13.38302,9.58081 z"
           inkscape:path-effect="#path-effect3783-4-4-2-9-9"
           id="path3781"
           d="m 150.53908,552.60676 5.87549,6.50126 c 1.81558,0.87984 3.35086,2.32764 4.33558,4.08854 0.98471,1.76091 1.41442,3.82695 1.21347,5.83446 -0.20308,2.02881 -1.03878,3.97123 -2.26329,5.60154 -1.2245,1.63031 -2.82765,2.95636 -4.59144,3.97928 -3.42346,1.98546 -7.49154,2.83546 -11.42452,2.39519 -3.11365,-0.34855 -6.10138,-1.47808 -8.85553,-2.97171 -2.75415,-1.49363 -5.29398,-3.34885 -7.79164,-5.2404 -3.84777,-2.91404 -7.61809,-5.92867 -11.42454,-8.89647 -3.95541,-3.08394 -8.13784,-6.20494 -13.0566,-7.18563 -2.939206,-0.58601 -5.971839,-0.36778 -8.963223,-0.5521 -1.495692,-0.0922 -2.993169,-0.28733 -4.425553,-0.72763 -1.432383,-0.4403 -2.802368,-1.13402 -3.911221,-2.142 -1.592476,-1.44761 -2.586576,-3.5346 -2.707155,-5.68333 -0.120579,-2.14872 0.633787,-4.33383 2.054305,-5.95052 l 3.590579,-9.58081 8.160363,-1.36868 c 4.603125,-0.3345 9.263295,0.13075 13.709445,1.36868 5.07731,1.41366 9.81721,3.80541 14.68869,5.81694 4.13709,1.70829 8.39062,3.15057 12.40377,5.13258 4.94083,2.44018 9.48058,5.69015 13.38302,9.58081"
           style="fill:#ff3d2e;fill-opacity:1;stroke:none" /><path
           sodipodi:nodetypes="cscccscscscscccccccssccsscccsssssssssccc"
           inkscape:connector-curvature="0"
           inkscape:original-d="m 86.006961,588.13398 c 0,0 0,2.40833 0,3.47873 0,1.07037 2.74161,6.15469 2.74161,6.15469 l 2.953822,3.45959 4.486222,1.9114 c 0,0 14.695785,-5.77762 19.902135,-5.62992 1.21798,0.0345 17.32654,0.58907 17.32654,0.58907 0,0 16.83743,6.26588 18.66518,8.40665 1.82772,2.14075 6.45243,9.41272 6.45243,9.41272 0,0 1.80007,5.13121 2.4093,6.73679 0.60925,1.60556 3.96011,10.70378 3.96011,10.70378 0,0 -5.17859,-1.87315 -6.39706,-1.87315 -1.21852,0 -7.61558,2.40833 -7.61558,2.40833 l -4.87397,2.94357 c 0,0 -12.47126,7.11731 -22.48698,5.0756 -14.76037,2.99045 -2.76928,-1.65247 -2.76928,-1.65247 -6.83193,-3.19877 -3.81344,-3.38221 -12.20047,-8.68022 3.12047,0.88926 7.26832,5.31111 7.90829,5.79225 1.82772,1.33798 3.54454,3.5048 3.54454,3.5048 0,0 15.95132,3.98785 17.16982,3.98785 1.21847,0 4.56933,-1.33795 6.70169,-1.87314 2.13236,-0.53519 3.6555,-1.87317 3.6555,-1.87317 l 1.82772,-1.60556 c 0,0 2.437,-0.53519 3.04623,-1.60556 0.60924,-1.0704 1.52311,-1.8732 4.87397,-2.67594 3.35086,-0.8028 9.21251,0.11107 9.21251,0.11107 l -1.67083,-8.06608 c 0,0 -0.83999,-4.35447 -1.14458,-5.96006 -0.30463,-1.60558 -0.65797,-2.85519 -1.2672,-5.79876 -0.60924,-2.94354 0.0487,-3.03187 -1.77904,-5.97541 -1.82775,-2.94354 -3.96009,-9.36582 -5.4832,-10.43619 -1.52314,-1.07038 -6.09188,-3.89928 -10.30182,-6.29369 -5.16015,-2.93485 -4.46781,-1.64205 -7.2094,-2.44485 -2.74163,-0.80277 -5.03089,-0.35967 -8.68636,-0.89486 -3.65549,-0.53519 -3.08316,-1.09819 -8.87097,0.23979 -5.78785,1.33796 -6.68328,1.57775 -11.25262,2.11296 -4.56933,0.53519 -9.6372,3.13815 -12.378811,3.13815 -2.74161,0 -5.270865,-1.20938 -5.270865,-1.20938 l -2.741586,-2.40837 z"
           inkscape:path-effect="#path-effect3787-0-5-7-4-4"
           id="path3785"
           d="m 86.006961,588.13398 0,3.47873 c 0,1.18552 0.04675,2.39699 0.478569,3.50106 0.431821,1.10408 1.233118,2.06651 2.263041,2.65363 l 2.953822,3.45959 4.486222,1.9114 c 6.254745,-2.97712 13.014705,-4.88938 19.902135,-5.62992 5.76484,-0.61984 11.61711,-0.42087 17.32654,0.58907 6.95009,0.48971 13.69253,3.52645 18.66518,8.40665 2.73202,2.68123 4.93685,5.89761 6.45243,9.41272 0.79367,2.24896 1.59678,4.49458 2.4093,6.73679 1.29612,3.57672 2.61619,7.14475 3.96011,10.70378 -1.91361,-1.18106 -4.14864,-1.83551 -6.39706,-1.87315 -2.70893,-0.0453 -5.42529,0.81366 -7.61558,2.40833 l -4.87397,2.94357 c -3.39445,2.05004 -6.89187,4.02882 -10.72607,5.04069 -3.8342,1.01188 -7.93097,1.06279 -11.76091,0.0349 l -2.76928,-1.65247 -12.20047,-8.68022 c 2.81666,1.66655 5.46961,3.60964 7.90829,5.79225 1.23862,1.10856 2.42208,2.27876 3.54454,3.5048 4.82657,3.65009 11.22858,5.13701 17.16982,3.98785 2.27833,-0.44068 4.46815,-1.24363 6.70169,-1.87314 0.66731,-0.18808 1.34105,-0.37064 1.96367,-0.67562 0.62263,-0.30497 1.17096,-0.73999 1.69183,-1.19755 l 1.82772,-1.60556 c 1.03867,-0.48941 2.05543,-1.02531 3.04623,-1.60556 1.60134,-0.93781 3.14675,-1.99735 4.87397,-2.67594 2.93076,-1.15144 6.31036,-1.11069 9.21251,0.11107 l -1.67083,-8.06608 c -0.41035,-1.98101 -0.77073,-3.97184 -1.14458,-5.96006 -0.36568,-1.9448 -0.77633,-3.88172 -1.2672,-5.79876 -0.51562,-2.0137 -1.11943,-4.00418 -1.77904,-5.97541 -1.25695,-3.75636 -2.77767,-7.54306 -5.4832,-10.43619 -2.77044,-2.96254 -6.55325,-4.74444 -10.30182,-6.29369 -2.348,-0.97041 -4.73223,-1.88056 -7.2094,-2.44485 -2.84303,-0.64763 -5.7712,-0.83115 -8.68636,-0.89486 -2.95875,-0.0647 -5.92191,-0.008 -8.87097,0.23979 -3.81086,0.32022 -7.60546,0.96257 -11.25262,2.11296 -4.08235,1.28766 -8.09918,3.22967 -12.378811,3.13815 -1.814779,-0.0388 -3.620692,-0.45317 -5.270865,-1.20938 l -2.741586,-2.40837 -2.436997,-3.21101"
           style="fill:#ff3d2e;fill-opacity:1;stroke:#ff3d2e;stroke-width:6.5791555;stroke-miterlimit:4;stroke-opacity:1;stroke-dasharray:none" /><path
           sodipodi:nodetypes="csccssscsscccccsssssccsccsscc"
           inkscape:connector-curvature="0"
           inkscape:original-d="m 156.10338,838.59518 c 0,0 11.9655,-6.00711 13.59717,-6.52947 1.63166,-0.52235 14.95687,-1.30589 16.31659,-1.04473 1.35972,0.2612 11.69357,3.39533 11.69357,3.39533 0,0 5.71081,-4.17884 8.43026,-4.70122 2.71944,-0.52236 12.78135,-1.56707 15.7727,-1.56707 2.9914,0 19.03606,1.30592 21.75548,2.35063 2.71944,1.04471 13.59717,5.48475 13.59717,5.48475 0,0 8.43026,4.44005 10.06194,4.9624 1.63165,0.52236 14.41298,3.39531 15.7727,3.65652 1.35972,0.26117 14.41301,1.82824 15.50078,2.08942 1.08779,0.26118 6.25468,2.6118 6.25468,2.6118 l 5.16695,7.57418 -1.63167,4.9624 -7.61443,7.31302 c 0,0 -7.34246,3.65649 -8.70219,4.9624 -1.35972,1.30591 -7.6144,8.88009 -9.78995,11.23072 -2.17554,2.35059 -10.06194,7.57415 -13.05329,9.6636 -2.99137,2.08944 -10.81808,2.91116 -12.5094,6.00713 -3.03231,5.55069 -20.66769,1.82824 -24.20297,1.30589 -3.53523,-0.52236 -19.30799,-2.6118 -19.30799,-2.6118 l -16.04463,-3.13413 c 0,0 -10.06194,-1.82825 -11.69359,-5.22358 -1.63168,-3.39534 -7.88633,-14.36487 -7.88633,-14.36487 l 1.90358,-8.61889 c 0,0 0.54389,-4.9624 -2.44749,-5.48478 -2.99137,-0.52236 -8.1583,-0.78351 -10.06191,-4.44002 C 165.0775,854.78829 157.4631,838.334 157.4631,838.334 z"
           inkscape:path-effect="#path-effect3793-9-5-6-8-8"
           id="path3791"
           d="m 156.10338,838.59518 c 4.07994,-2.98694 8.71515,-5.2128 13.59717,-6.52947 5.29698,-1.42858 10.88035,-1.78373 16.31659,-1.04473 4.03647,0.54872 7.99092,1.69693 11.69357,3.39533 2.47445,-2.0875 5.35382,-3.69321 8.43026,-4.70122 5.04591,-1.65333 10.46399,-1.67785 15.7727,-1.56707 7.30904,0.15252 14.67268,0.53977 21.75548,2.35063 4.74894,1.21416 9.33492,3.06403 13.59717,5.48475 3.17764,1.98357 6.55393,3.6487 10.06194,4.9624 5.06715,1.89757 10.39522,3.05696 15.7727,3.65652 5.18962,0.57861 10.48153,0.64926 15.50078,2.08942 2.17662,0.62454 4.28028,1.50297 6.25468,2.6118 l 5.16695,7.57418 -1.63167,4.9624 -7.61443,7.31302 c -3.20026,1.03329 -6.18324,2.73433 -8.70219,4.9624 -3.72382,3.29381 -6.35705,7.63473 -9.78995,11.23072 -3.75036,3.92853 -8.38143,6.89373 -13.05329,9.6636 -3.98838,2.36464 -8.08097,4.63318 -12.5094,6.00713 -7.76543,2.40928 -16.09715,1.94007 -24.20297,1.30589 -6.4798,-0.50696 -12.92895,-1.36573 -19.30799,-2.6118 l -16.04463,-3.13413 c -2.12486,-0.41507 -4.25289,-0.88922 -6.24255,-1.74277 -1.98967,-0.85354 -3.82425,-2.05223 -5.45104,-3.48081 -4.18855,-3.67821 -7.03142,-8.85648 -7.88633,-14.36487 l 1.90358,-8.61889 c -0.0734,-2.05076 -0.97019,-4.06049 -2.44749,-5.48478 -1.33065,-1.2829 -3.06211,-2.06681 -4.81023,-2.66726 -1.74812,-0.60045 -3.55312,-1.04381 -5.25168,-1.77276 -3.72407,-1.59821 -6.82961,-4.59195 -8.56323,-8.25495 -1.73362,-3.663 -2.07988,-7.96264 -0.95478,-11.85586 l -1.35972,0.26118"
           style="fill:#ff3d2e;fill-opacity:1;stroke:none" /><path
           sodipodi:nodetypes="ccasssaacccsaaaaccccacccaaaccc"
           inkscape:connector-curvature="0"
           inkscape:original-d="m 160.96581,704.01814 -5.87662,19.05864 c 0,0 -3.09355,3.46167 -3.56614,5.63321 -1.15389,5.30218 1.21374,14.25058 2.20386,16.12898 0.99017,1.87843 11.09405,12.16612 6.66712,9.72381 -14.35172,-7.91775 10.30683,6.4558 14.35432,7.71629 4.86177,1.51408 9.80786,3.14528 14.8937,3.39723 3.95039,0.19571 7.91418,-0.61322 11.77272,-1.48243 6.01787,-1.35564 17.57889,-5.78411 17.57889,-5.78411 0,0 7.79451,6.05667 11.75512,7.46548 5.13614,2.11696 13.32318,0.65167 16.17097,0.0637 0,0 5.56703,-2.67861 7.1451,-4.39129 4.63201,-5.02713 4.10559,-6.74497 5.03923,-10.51917 0.71524,-2.89131 0.99373,-6.02261 0.34181,-8.92886 -1.12873,-5.03188 -3.93713,-9.68248 -7.13844,-13.72544 -1.08601,-1.37152 -2.43676,-2.59503 -3.97697,-3.42463 -1.51056,-0.81364 -4.95072,-1.40878 -4.95072,-1.40878 l -3.96058,0 c 19.73095,-1.80053 22.31267,-2.84895 18.57578,22.60402 -0.51867,2.52386 -0.25808,4.16325 -0.25808,4.16325 0,0 -2.97012,7.03815 -5.44579,9.86161 -1.21682,1.38777 -2.8109,2.44981 -4.45567,3.28722 -34.88977,20.12386 -23.25009,4.67051 -27.46259,-8.6999 -34.55716,55.07565 28.05631,24.50834 -15.57063,6.81144 0,0 -27.03989,-0.59722 -39.14429,-5.84424 -1.74093,-0.75466 -3.22519,-2.09554 -4.46231,-3.53425 -3.77341,-4.38827 -7.21865,-9.45663 -8.61916,-15.07215 -0.79203,-3.17578 0.30088,-9.81456 0.30088,-9.81456 l 2.93078,-3.03745 c 17.6917,-24.56042 26.45717,-75.64974 5.15771,-20.24762 z"
           inkscape:path-effect="#path-effect3802-4-1-1-8-8"
           id="path3800"
           d="m 160.96581,704.01814 -5.87662,19.05864 c -1.62399,1.54957 -2.86026,3.50242 -3.56614,5.63321 -0.87453,2.63987 -0.92908,5.50658 -0.45103,8.24613 0.47806,2.73956 1.47235,5.36585 2.65489,7.88285 1.68117,3.57833 3.78771,7.0146 6.66712,9.72381 3.98596,3.75034 9.1961,5.88717 14.35432,7.71629 4.81909,1.70887 9.78319,3.23418 14.8937,3.39723 3.96493,0.1265 7.91163,-0.57216 11.77272,-1.48243 6.01155,-1.41725 11.90032,-3.35487 17.57889,-5.78411 3.18454,3.44889 7.2795,6.04952 11.75512,7.46548 5.21851,1.65098 10.93962,1.67352 16.17097,0.0637 2.71469,-0.79537 5.20933,-2.32854 7.1451,-4.39129 2.69465,-2.8714 4.24227,-6.66288 5.03923,-10.51917 0.60609,-2.93272 0.80827,-5.97072 0.34181,-8.92886 -0.81465,-5.16626 -3.63228,-9.84463 -7.13844,-13.72544 -1.17769,-1.30353 -2.45547,-2.54646 -3.97697,-3.42463 -1.50112,-0.86641 -3.21834,-1.35506 -4.95072,-1.40878 l -3.96058,0 c 5.12399,1.15048 9.83777,4.05277 13.17202,8.11007 3.33425,4.05729 5.26805,9.24415 5.40376,14.49395 0.036,1.39174 -0.0505,2.78661 -0.25808,4.16325 -0.80974,3.7213 -2.72756,7.19422 -5.44579,9.86161 -1.32166,1.29694 -2.82718,2.40581 -4.45567,3.28722 -4.71273,2.55073 -10.4693,3.09724 -15.57782,1.4789 -5.10853,-1.61833 -9.50038,-5.37977 -11.88477,-10.1788 l -15.57063,6.81144 c -13.02955,4.07202 -27.87233,1.85599 -39.14429,-5.84424 -1.56822,-1.0713 -3.07033,-2.2422 -4.46231,-3.53425 -4.31588,-4.00606 -7.56609,-9.2785 -8.61916,-15.07215 -0.58967,-3.24419 -0.48641,-6.61259 0.30088,-9.81456 l 2.93078,-3.03745 5.15771,-20.24762"
           style="fill:#000000;fill-opacity:1;stroke:#ff3d2e;stroke-width:5.73514938;stroke-linejoin:round;stroke-miterlimit:4;stroke-opacity:1;stroke-dasharray:none" /></g></g><path
       style="fill:#ff3d2e;fill-opacity:1;stroke:#ff3d2e;stroke-width:1.19363033000000000;stroke-miterlimit:4;stroke-opacity:1;stroke-dasharray:none"
       d="m 125.05432,110.17189 c 1.33791,2.19651 2.61077,4.43265 3.81636,6.70448 0.67772,1.2771 1.33418,2.56548 1.96902,3.86443 -0.75133,-1.21044 -1.49421,-2.42612 -2.22858,-3.64693 -0.40857,-0.6792 -0.8145,-1.35999 -1.21778,-2.04234 l -2.33902,-4.87964"
       id="path4042"
       inkscape:path-effect="#path-effect4044-2"
       inkscape:original-d="m 125.05432,110.17189 3.81636,6.70448 1.96902,3.86443 -2.22858,-3.64693 -1.21778,-2.04234 z"
       inkscape:connector-curvature="0"
       transform="matrix(-0.79179944,0.17678185,0.17678185,0.79179944,625.38117,76.608814)"
       sodipodi:nodetypes="cccccc" /></g><path
     transform="matrix(-0.3782726,0.08053742,0.08707013,0.37189196,255.94921,713.05587)"
     d="m 394.96611,431.92328 c 0,4.36865 -4.17714,7.91014 -9.32991,7.91014 -5.15277,0 -9.32991,-3.54149 -9.32991,-7.91014 0,-4.36865 4.17714,-7.91014 9.32991,-7.91014 5.15277,0 9.32991,3.54149 9.32991,7.91014 z"
     sodipodi:ry="7.9101396"
     sodipodi:rx="9.3299084"
     sodipodi:cy="431.92328"
     sodipodi:cx="385.6362"
     id="path3007-1"
     style="fill:#ff3d2e;fill-opacity:1;stroke:none;display:inline"
     sodipodi:type="arc" /></g></svg>