<?xml version="1.0" encoding="UTF-8" standalone="no"?>
<!-- Generator: Adobe Illustrator 14.0.0, SVG Export Plug-In . SVG Version: 6.00 Build 43363)  -->

<svg
   xmlns:dc="http://purl.org/dc/elements/1.1/"
   xmlns:cc="http://creativecommons.org/ns#"
   xmlns:rdf="http://www.w3.org/1999/02/22-rdf-syntax-ns#"
   xmlns:svg="http://www.w3.org/2000/svg"
   xmlns="http://www.w3.org/2000/svg"
   xmlns:sodipodi="http://sodipodi.sourceforge.net/DTD/sodipodi-0.dtd"
   xmlns:inkscape="http://www.inkscape.org/namespaces/inkscape"
   version="1.1"
   id="icon"
   x="0px"
   y="0px"
   width="205"
   height="240"
   viewBox="0 0 205 240"
   enable-background="new 0 0 1024 1024"
   xml:space="preserve"
   inkscape:version="0.48.4 r9939"
   sodipodi:docname="jannaee-sick-profile-2.svg"><metadata
   id="metadata27"><rdf:RDF><cc:Work
       rdf:about=""><dc:format>image/svg+xml</dc:format><dc:type
         rdf:resource="http://purl.org/dc/dcmitype/StillImage" /><dc:title /></cc:Work></rdf:RDF></metadata><defs
   id="defs25"><inkscape:path-effect
     effect="spiro"
     id="path-effect3812-7-1"
     is_visible="true" /><inkscape:path-effect
     effect="spiro"
     id="path-effect2999-8-1-7"
     is_visible="true" /><inkscape:path-effect
     effect="spiro"
     id="path-effect3005-1-8-1-4"
     is_visible="true" /><inkscape:path-effect
     effect="spiro"
     id="path-effect3779-7-2-5-0"
     is_visible="true" /><inkscape:path-effect
     effect="spiro"
     id="path-effect3783-4-4-2-9"
     is_visible="true" /><inkscape:path-effect
     effect="spiro"
     id="path-effect3787-0-5-7-4"
     is_visible="true" /><inkscape:path-effect
     effect="spiro"
     id="path-effect3793-9-5-6-8"
     is_visible="true" /><inkscape:path-effect
     effect="spiro"
     id="path-effect3802-4-1-1-8"
     is_visible="true" /><inkscape:path-effect
     effect="spiro"
     id="path-effect4044"
     is_visible="true" /><inkscape:path-effect
     effect="spiro"
     id="path-effect3812-7-1-1"
     is_visible="true" /><inkscape:path-effect
     effect="spiro"
     id="path-effect2999-8-1-7-7"
     is_visible="true" /><inkscape:path-effect
     effect="spiro"
     id="path-effect3005-1-8-1-4-4"
     is_visible="true" /><inkscape:path-effect
     effect="spiro"
     id="path-effect3779-7-2-5-0-0"
     is_visible="true" /><inkscape:path-effect
     effect="spiro"
     id="path-effect3783-4-4-2-9-9"
     is_visible="true" /><inkscape:path-effect
     effect="spiro"
     id="path-effect3787-0-5-7-4-4"
     is_visible="true" /><inkscape:path-effect
     effect="spiro"
     id="path-effect3793-9-5-6-8-8"
     is_visible="true" /><inkscape:path-effect
     effect="spiro"
     id="path-effect3802-4-1-1-8-8"
     is_visible="true" /><inkscape:path-effect
     effect="spiro"
     id="path-effect4044-2"
     is_visible="true" /><inkscape:path-effect
     effect="spiro"
     id="path-effect3812-7-1-1-4"
     is_visible="true" /></defs><sodipodi:namedview
   pagecolor="#ffffff"
   bordercolor="#666666"
   borderopacity="1"
   objecttolerance="10"
   gridtolerance="10"
   guidetolerance="10"
   inkscape:pageopacity="0"
   inkscape:pageshadow="2"
   inkscape:window-width="1440"
   inkscape:window-height="838"
   id="namedview23"
   showgrid="false"
   inkscape:zoom="4.4126383"
   inkscape:cx="192.27038"
   inkscape:cy="51.525209"
   inkscape:window-x="-8"
   inkscape:window-y="-8"
   inkscape:window-maximized="1"
   inkscape:current-layer="layer1"
   height="372.05px" />

<g
   inkscape:groupmode="layer"
   id="layer1"
   inkscape:label="profile"
   style="display:inline"
   transform="translate(0,-783.99998)"><g
     style="display:inline"
     transform="matrix(-1.311133,0.27915129,0.29273135,1.2503085,800.42747,546.28883)"
     id="g4069"><g
       transform="matrix(0.15045499,0,0,0.15045499,519.2675,92.458254)"
       id="g4074"><path
         style="fill:none;stroke:#ffffff;stroke-width:9.45265198000000060;stroke-linecap:butt;stroke-linejoin:round;stroke-miterlimit:4;stroke-opacity:1;stroke-dasharray:none;stroke-dashoffset:0;display:inline"
         d="m 86.281707,504.72502 10.121983,-38.2916 0.38196,-54.81143 c -2.310279,-15.61791 1.601815,-32.06965 10.69492,-44.97593 7.82356,-11.10435 19.38142,-19.52792 32.34791,-23.57573 4.02174,-1.04024 8.30591,-1.04851 12.33164,-0.0238 4.02573,1.02471 7.78458,3.08025 10.81955,5.91671 2.19258,2.04917 3.99617,4.4792 6.1258,6.59371 2.12963,2.11451 4.71094,3.9594 7.67979,4.39806 2.76799,0.40898 5.63003,-0.47144 7.93877,-2.05219 2.30874,-1.58074 4.10559,-3.81749 5.52961,-6.22605 2.84804,-4.81713 4.31484,-10.38489 7.44094,-15.02639 2.65283,-3.9388 6.48252,-7.09284 10.89801,-8.84074 4.41548,-1.74791 9.40172,-2.06531 13.97536,-0.78723 3.13558,0.87622 6.12764,2.54391 8.12777,5.11278 1.00007,1.28443 1.73799,2.7814 2.08046,4.37282 0.34248,1.59142 0.28244,3.27662 -0.23751,4.8192 -0.87392,2.59272 -2.98734,4.62797 -5.39351,5.93039 -2.40616,1.30242 -5.10522,1.95255 -7.78679,2.49578 -2.68158,0.54322 -5.39876,0.99768 -7.96237,1.95362 -2.56361,0.95595 -5.00422,2.46899 -6.55705,4.72169 -1.65937,2.40724 -2.16321,5.52612 -1.56898,8.38884 0.59424,2.86273 2.23386,5.45961 4.41179,7.41024 2.17792,1.95064 4.87294,3.27586 7.69298,4.04767 2.82005,0.77181 5.76695,1.00565 8.68989,0.93653 5.84587,-0.13824 11.59646,-1.46815 17.42143,-1.98097 5.82498,-0.51282 11.98981,-0.12521 17.01159,2.87063 2.98866,1.78294 5.44303,4.44907 6.97313,7.57473 -3.17153,4.96481 -8.76109,8.30198 -14.63625,8.73838 -4.05858,0.30147 -8.20577,-0.74184 -11.63856,-2.92791 -3.43278,-2.18606 -6.1322,-5.50281 -7.57557,-9.30802 -1.44336,-3.80521 -1.6227,-8.07786 -0.50328,-11.99064 1.11942,-3.91277 3.5314,-7.44406 6.76893,-9.9101 14.43928,-8.22828 28.89615,-16.42567 43.37049,-24.59211 23.54552,-13.28441 47.13725,-26.4869 70.77463,-39.60715 5.91265,-4.4288 13.11942,-7.10794 20.48926,-7.61695 7.36985,-0.50901 14.87652,1.15393 21.34188,4.72782 10.67592,5.90138 18.22697,17.13104 19.66459,29.24445 -0.62833,4.36255 -0.62833,8.81511 0,13.17766 1.43033,9.93093 6.02362,19.07431 10.13527,28.22655 4.11166,9.15224 7.86332,18.85238 7.43496,28.87663 -0.26317,6.15847 -2.10265,12.14295 -4.31022,17.89818 -2.20756,5.75523 -4.79948,11.36921 -6.67118,17.24226 -1.2533,3.93261 -2.18244,7.99725 -2.32695,12.12221 -0.14451,4.12497 0.5212,8.32529 2.32695,12.03682 2.09822,4.31266 5.736,7.85642 10.10211,9.84101 4.36611,1.9846 9.42804,2.39524 14.05695,1.14037 l 17.5702,30.74786 c 11.1578,-0.59671 22.49247,3.45139 30.74787,10.9814 4.68534,4.27364 8.37713,9.59167 10.98137,15.37392 3.62547,8.04971 5.15126,17.03431 4.38645,25.82959 -0.7648,8.79528 -3.8185,17.38166 -8.77899,24.68477 -3.17067,12.26603 -2.63193,25.46536 1.52783,37.43219 4.73802,13.6304 14.18372,25.57441 26.35532,33.32611 l 9.45354,-11.45883 c 0.73347,-3.89903 2.2347,-7.65211 4.39257,-10.98138 1.695,-2.61513 3.82403,-4.99543 6.46368,-6.652 2.63964,-1.65658 5.8218,-2.54961 8.91024,-2.13311 2.50542,0.33788 4.88571,1.54196 6.64235,3.36006 1.75665,1.8181 2.87819,4.23837 3.12975,6.75392 0.25156,2.51556 -0.36852,5.10999 -1.73035,7.23994 -1.36184,2.12995 -3.45656,3.78154 -5.84546,4.60885 1.72183,3.52626 2.93223,7.30174 3.58162,11.17182 1.13997,6.79372 0.52582,13.87426 -1.76687,20.37023 -2.2927,6.49597 -6.259,12.3934 -11.41079,16.9665 l -5.77791,8.5946 -13.17766,2.1963 -17.5702,0 -4.39255,26.3553 4.39255,6.5889 -6.58883,35.1404 c -3.33708,8.19483 -7.00143,16.25638 -10.98138,24.159 -6.49933,12.90512 -13.841,25.38595 -21.96277,37.3367 l -26.35532,32.9442 -24.15904,24.159 -21.96275,17.5702 -19.76649,10.9814 c -18.02489,4.2986 -36.07289,8.50025 -54.14298,12.6047 -24.51878,5.56921 -49.34083,10.98812 -74.48245,10.6949 -13.68728,-0.15963 -27.35381,-2.0247 -40.58336,-5.5384 -8.90611,-5.74526 -16.72354,-13.17183 -22.91766,-21.7718 -7.11177,-9.87405 -12.01287,-21.13242 -16.90178,-32.2757 -5.89108,-13.42751 -11.84339,-26.82817 -17.85667,-40.2014 -6.38813,-8.17406 -12.47324,-16.58492 -18.23865,-25.2095 -6.01449,-8.99719 -11.67993,-18.2251 -17.09275,-27.5966 -12.76561,-22.10177 -24.242221,-45.32507 -29.539959,-70.2927 -2.096323,-9.87973 -3.206512,-19.96843 -3.308723,-30.0676 -3.314177,-16.97244 -3.059737,-34.63313 0.742013,-51.50305 1.488963,-6.60714 3.515378,-13.09308 6.052648,-19.37269 l 0.958621,-39.21346 -7.826493,-24.83858 0.83713,-37.33675"
         id="path2997"
         inkscape:path-effect="#path-effect2999-8-1-7-7"
         inkscape:original-d="m 86.281707,504.72502 10.121983,-38.2916 0.38196,-54.81143 c 0,0 2.361096,-32.29842 10.69492,-44.97593 7.44129,-11.31978 32.34791,-23.57573 32.34791,-23.57573 0,0 15.96137,2.30509 23.15119,5.8929 5.21165,2.60068 6.01733,12.06815 13.80559,10.99177 6.11631,-0.84531 12.40935,-17.4123 20.90932,-23.30463 7.34675,-5.09289 15.37845,-11.75497 24.87337,-9.62797 9.49492,2.12699 -3.40325,5.40836 9.97072,14.3048 13.37397,8.89644 -26.22985,9.04356 -27.69972,15.10148 -1.46987,6.05792 57.90513,19.68402 53.6587,21.67294 -4.24643,1.98891 6.97313,7.57473 6.97313,7.57473 -55.33882,-57.32125 -55.46029,60.01718 -14.63625,8.73838 24.11876,-30.29542 -12.94848,-34.13667 -12.94848,-34.13667 l 43.37049,-24.59211 70.77463,-39.60715 c 0,0 11.08328,-7.28168 41.83114,-2.88913 30.74789,4.39254 19.66459,29.24445 19.66459,29.24445 0,0 -4.39255,2.19628 0,13.17766 4.39257,10.98137 17.57023,46.12181 17.57023,57.10318 0,10.98138 -10.9814,24.15904 -10.9814,35.14044 0,10.98137 -19.76647,17.5702 0,24.15903 19.76649,6.58883 24.15906,10.98138 24.15906,10.98138 l 17.5702,30.74786 c 0,0 21.96278,8.78512 30.74787,10.9814 8.78511,2.19626 10.98137,8.78509 10.98137,15.37392 0,6.58883 -4.39254,50.51436 -4.39254,50.51436 0,0 -7.25726,30.84336 1.52783,37.43219 8.78512,6.58883 26.35532,33.32611 26.35532,33.32611 l 9.45354,-11.45883 c 0,0 2.19629,-2.19629 4.39257,-10.98138 2.19626,-8.78511 10.1277,-11.48967 15.37392,-8.78511 6.53958,3.37132 2.19629,21.96277 2.19629,21.96277 0,0 3.63841,7.2616 3.58162,11.17182 -0.19165,13.19663 -13.17766,37.33673 -13.17766,37.33673 l -5.77791,8.5946 -13.17766,2.1963 -17.5702,0 -4.39255,26.3553 4.39255,6.5889 -6.58883,35.1404 c 0,0 -6.58883,15.3739 -10.98138,24.159 -4.39254,8.7851 -21.96277,37.3367 -21.96277,37.3367 l -26.35532,32.9442 -24.15904,24.159 -21.96275,17.5702 -19.76649,10.9814 c 0,0 -45.35789,10.4085 -54.14298,12.6047 -8.78511,2.1963 -63.50105,10.6949 -74.48245,10.6949 -10.98137,0 -40.58336,-5.5384 -40.58336,-5.5384 0,0 -16.56845,-13.3627 -22.91766,-21.7718 -7.31789,-9.6921 -11.61714,-21.3413 -16.90178,-32.2757 -6.38054,-13.2019 -17.85667,-40.2014 -17.85667,-40.2014 0,0 -12.4645,-16.5936 -18.23865,-25.2095 -6.02394,-8.9885 -8.78748,-11.4942 -17.09275,-27.5966 -8.30527,-16.1025 -25.084766,-53.1116 -29.539959,-70.2927 -4.455192,-17.1812 -3.308723,-30.0676 -3.308723,-30.0676 0,0 -1.969916,-34.54911 0.742013,-51.50305 1.068602,-6.68047 6.052648,-19.37269 6.052648,-19.37269 l 0.958621,-39.21346 -7.826493,-24.83858 z"
         inkscape:connector-curvature="0"
         sodipodi:nodetypes="cccscasazzzzcscccscssssccsscsccsscacccccccscccccsscaacazzcacccc" /><g
         transform="translate(3.3145804,-38.584349)"
         style="display:inline"
         id="g3938"><path
           sodipodi:nodetypes="ccsccccccsaaaccccccccc"
           inkscape:connector-curvature="0"
           inkscape:original-d="m 282.71362,635.98237 -10.74249,-2.23677 c 0,0 8.68962,-19.86198 26.06884,-23.5861 17.37923,-3.72413 52.13771,0 52.13771,0 l 14.89646,8.68961 9.931,7.44825 12.41374,-3.72412 6.20687,-14.89649 -9.931,3.72412 c 0,0 -13.65511,-4.9655 -18.62061,-7.44825 -4.96549,-2.48274 -16.01727,-8.57897 -24.82746,-9.93096 -9.71079,-1.49022 -19.95637,-0.51225 -29.38838,2.23676 -10.97308,3.19818 -21.75895,8.50619 -30.23432,16.17464 -7.66224,6.93274 -17.27558,25.73925 -17.27558,25.73925 l 6.16233,-0.11048 6.46728,0.89525 13.37236,3.47814 13.22521,3.85975 14.40454,-1.41377 -9.00916,-1.2046 -12.41374,-3.72413 z"
           inkscape:path-effect="#path-effect3005-1-8-1-4-4"
           id="path3003"
           d="m 282.71362,635.98237 -10.74249,-2.23677 c 6.13678,-10.18118 15.32629,-18.49551 26.06884,-23.5861 16.22968,-7.69079 35.90803,-7.69079 52.13771,0 l 14.89646,8.68961 9.931,7.44825 12.41374,-3.72412 6.20687,-14.89649 -9.931,3.72412 c -6.33504,-2.14478 -12.55401,-4.63237 -18.62061,-7.44825 -8.10665,-3.7628 -16.06817,-8.15575 -24.82746,-9.93096 -9.72541,-1.97101 -19.87035,-0.56961 -29.38838,2.23676 -11.05402,3.25926 -21.65339,8.48167 -30.23432,16.17464 -7.77377,6.96934 -13.77091,15.90459 -17.27558,25.73925 l 6.16233,-0.11048 6.46728,0.89525 c 4.47426,1.09345 8.93236,2.253 13.37236,3.47814 4.42703,1.22156 8.83607,2.50833 13.22521,3.85975 l 14.40454,-1.41377 -9.00916,-1.2046 c -4.14297,-1.22444 -8.28093,-2.46583 -12.41374,-3.72413 -4.28679,-1.30519 -8.56804,-2.62857 -12.8436,-3.9701"
           style="fill:#ffffff;fill-opacity:1;stroke:#ffffff;stroke-width:4.79280133999999960;stroke-miterlimit:4;stroke-opacity:1;stroke-dasharray:none" /><path
           transform="matrix(2.3117984,0,0,2.3833697,-557.79635,-408.47574)"
           d="m 394.96611,431.92328 c 0,4.36865 -4.17714,7.91014 -9.32991,7.91014 -5.15277,0 -9.32991,-3.54149 -9.32991,-7.91014 0,-4.36865 4.17714,-7.91014 9.32991,-7.91014 5.15277,0 9.32991,3.54149 9.32991,7.91014 z"
           sodipodi:ry="7.9101396"
           sodipodi:rx="9.3299084"
           sodipodi:cy="431.92328"
           sodipodi:cx="385.6362"
           id="path3007"
           style="fill:#ffffff;fill-opacity:1;stroke:none"
           sodipodi:type="arc" /><path
           sodipodi:nodetypes="ccscccccsccccccccccsssssscc"
           inkscape:connector-curvature="0"
           inkscape:original-d="m 236.41726,566.31602 -0.31952,6.39077 c 0,0 0.95859,4.47356 2.23676,6.07125 1.27815,1.59769 5.43216,5.7517 5.43216,5.7517 l 5.7517,1.27815 13.10109,-5.11263 3.51493,-11.18385 20.13094,-10.22524 c 0,0 17.2551,-9.58615 18.85279,-9.9057 1.5977,-0.31955 26.52171,-2.23677 28.11941,-2.55632 1.59769,-0.31952 19.81139,3.51494 19.81139,3.51494 0,0 23.32635,5.43215 24.92404,6.07122 1.59769,0.6391 19.81139,8.30802 19.81139,8.30802 l 12.46202,7.66894 5.11263,5.1126 3.51491,3.19539 6.07125,2.23679 0.31952,-9.58616 -10.8643,-15.65741 c 0,0 -18.53325,-12.14247 -21.08956,-13.74016 -2.55632,-1.5977 -14.37924,-7.3494 -17.57463,-8.62757 -3.19541,-1.27814 -26.84126,-7.66891 -33.23205,-8.62753 -6.39077,-0.95862 -34.82973,-1.5977 -39.94233,0.63907 -5.11263,2.23676 -15.65741,6.39077 -21.08956,8.62756 -5.43217,2.23677 -17.2551,7.34939 -21.40911,9.26661 -4.154,1.91724 -15.33785,9.58616 -15.33785,9.58616 z"
           inkscape:path-effect="#path-effect3779-7-2-5-0-0"
           id="path3777"
           d="m 236.41726,566.31602 -0.31952,6.39077 c 0.37026,2.13676 1.13224,4.20501 2.23676,6.07125 1.3543,2.28828 3.22494,4.26896 5.43216,5.7517 l 5.7517,1.27815 13.10109,-5.11263 3.51493,-11.18385 20.13094,-10.22524 c 6.33198,-3.21624 12.2789,-7.21831 18.85279,-9.9057 8.8075,-3.60048 18.67115,-3.68142 28.11941,-2.55632 6.66204,0.79332 13.24145,2.1555 19.81139,3.51494 8.37766,1.73349 16.77399,3.46988 24.92404,6.07122 6.83073,2.18024 13.46873,4.96392 19.81139,8.30802 l 12.46202,7.66894 c 1.65481,1.75267 3.35995,3.4578 5.11263,5.1126 1.15141,1.0871 2.32332,2.15249 3.51491,3.19539 l 6.07125,2.23679 0.31952,-9.58616 -10.8643,-15.65741 c -6.74554,-4.99785 -13.7924,-9.58898 -21.08956,-13.74016 -5.6768,-3.22939 -11.51296,-6.19626 -17.57463,-8.62757 -10.64488,-4.26962 -21.90087,-6.85341 -33.23205,-8.62753 -13.26125,-2.07631 -27.03165,-3.03329 -39.94233,0.63907 -7.31251,2.08 -14.12356,5.58223 -21.08956,8.62756 -7.1266,3.11554 -14.46125,5.77057 -21.40911,9.26661 -5.39334,2.71383 -10.53508,5.92742 -15.33785,9.58616 l -8.30802,11.5034"
           style="fill:#ffffff;fill-opacity:1;stroke:none" /><path
           inkscape:connector-curvature="0"
           inkscape:original-d="m 150.53908,552.60676 5.87549,6.50126 c 0,0 6.85471,6.15911 5.54905,9.923 -1.30565,3.7639 -3.91698,8.5543 -6.85473,9.58082 -2.93773,1.02651 -9.79244,2.39519 -11.42452,2.39519 -1.63207,0 -15.01512,-6.15909 -16.64717,-8.21211 -1.63208,-2.05303 -7.18114,-6.15909 -11.42454,-8.89647 -4.24341,-2.73738 -9.46604,-5.81695 -13.0566,-7.18563 -3.590577,-1.36868 -15.66792,-3.42173 -17.299997,-3.42173 -1.632078,0 -0.65285,-11.63385 -0.65285,-11.63385 l 3.590579,-9.58081 8.160363,-1.36868 c 0,0 12.403765,0.68435 13.709445,1.36868 1.30565,0.68437 13.05662,5.47476 14.68869,5.81694 1.63208,0.34217 10.7717,4.44825 12.40377,5.13258 1.63208,0.68435 13.38302,9.58081 13.38302,9.58081 z"
           inkscape:path-effect="#path-effect3783-4-4-2-9-9"
           id="path3781"
           d="m 150.53908,552.60676 5.87549,6.50126 c 1.81558,0.87984 3.35086,2.32764 4.33558,4.08854 0.98471,1.76091 1.41442,3.82695 1.21347,5.83446 -0.20308,2.02881 -1.03878,3.97123 -2.26329,5.60154 -1.2245,1.63031 -2.82765,2.95636 -4.59144,3.97928 -3.42346,1.98546 -7.49154,2.83546 -11.42452,2.39519 -3.11365,-0.34855 -6.10138,-1.47808 -8.85553,-2.97171 -2.75415,-1.49363 -5.29398,-3.34885 -7.79164,-5.2404 -3.84777,-2.91404 -7.61809,-5.92867 -11.42454,-8.89647 -3.95541,-3.08394 -8.13784,-6.20494 -13.0566,-7.18563 -2.939206,-0.58601 -5.971839,-0.36778 -8.963223,-0.5521 -1.495692,-0.0922 -2.993169,-0.28733 -4.425553,-0.72763 -1.432383,-0.4403 -2.802368,-1.13402 -3.911221,-2.142 -1.592476,-1.44761 -2.586576,-3.5346 -2.707155,-5.68333 -0.120579,-2.14872 0.633787,-4.33383 2.054305,-5.95052 l 3.590579,-9.58081 8.160363,-1.36868 c 4.603125,-0.3345 9.263295,0.13075 13.709445,1.36868 5.07731,1.41366 9.81721,3.80541 14.68869,5.81694 4.13709,1.70829 8.39062,3.15057 12.40377,5.13258 4.94083,2.44018 9.48058,5.69015 13.38302,9.58081"
           style="fill:#ffffff;fill-opacity:1;stroke:none" /><path
           sodipodi:nodetypes="cscccscscscscccccccssccsscccsssssssssccc"
           inkscape:connector-curvature="0"
           inkscape:original-d="m 86.006961,588.13398 c 0,0 0,2.40833 0,3.47873 0,1.07037 2.74161,6.15469 2.74161,6.15469 l 2.953822,3.45959 4.486222,1.9114 c 0,0 14.695785,-5.77762 19.902135,-5.62992 1.21798,0.0345 17.32654,0.58907 17.32654,0.58907 0,0 16.83743,6.26588 18.66518,8.40665 1.82772,2.14075 6.45243,9.41272 6.45243,9.41272 0,0 1.80007,5.13121 2.4093,6.73679 0.60925,1.60556 3.96011,10.70378 3.96011,10.70378 0,0 -5.17859,-1.87315 -6.39706,-1.87315 -1.21852,0 -7.61558,2.40833 -7.61558,2.40833 l -4.87397,2.94357 c 0,0 -12.47126,7.11731 -22.48698,5.0756 -14.76037,2.99045 -2.76928,-1.65247 -2.76928,-1.65247 -6.83193,-3.19877 -3.81344,-3.38221 -12.20047,-8.68022 3.12047,0.88926 7.26832,5.31111 7.90829,5.79225 1.82772,1.33798 3.54454,3.5048 3.54454,3.5048 0,0 15.95132,3.98785 17.16982,3.98785 1.21847,0 4.56933,-1.33795 6.70169,-1.87314 2.13236,-0.53519 3.6555,-1.87317 3.6555,-1.87317 l 1.82772,-1.60556 c 0,0 2.437,-0.53519 3.04623,-1.60556 0.60924,-1.0704 1.52311,-1.8732 4.87397,-2.67594 3.35086,-0.8028 9.21251,0.11107 9.21251,0.11107 l -1.67083,-8.06608 c 0,0 -0.83999,-4.35447 -1.14458,-5.96006 -0.30463,-1.60558 -0.65797,-2.85519 -1.2672,-5.79876 -0.60924,-2.94354 0.0487,-3.03187 -1.77904,-5.97541 -1.82775,-2.94354 -3.96009,-9.36582 -5.4832,-10.43619 -1.52314,-1.07038 -6.09188,-3.89928 -10.30182,-6.29369 -5.16015,-2.93485 -4.46781,-1.64205 -7.2094,-2.44485 -2.74163,-0.80277 -5.03089,-0.35967 -8.68636,-0.89486 -3.65549,-0.53519 -3.08316,-1.09819 -8.87097,0.23979 -5.78785,1.33796 -6.68328,1.57775 -11.25262,2.11296 -4.56933,0.53519 -9.6372,3.13815 -12.378811,3.13815 -2.74161,0 -5.270865,-1.20938 -5.270865,-1.20938 l -2.741586,-2.40837 z"
           inkscape:path-effect="#path-effect3787-0-5-7-4-4"
           id="path3785"
           d="m 86.006961,588.13398 0,3.47873 c 0,1.18552 0.04675,2.39699 0.478569,3.50106 0.431821,1.10408 1.233118,2.06651 2.263041,2.65363 l 2.953822,3.45959 4.486222,1.9114 c 6.254745,-2.97712 13.014705,-4.88938 19.902135,-5.62992 5.76484,-0.61984 11.61711,-0.42087 17.32654,0.58907 6.95009,0.48971 13.69253,3.52645 18.66518,8.40665 2.73202,2.68123 4.93685,5.89761 6.45243,9.41272 0.79367,2.24896 1.59678,4.49458 2.4093,6.73679 1.29612,3.57672 2.61619,7.14475 3.96011,10.70378 -1.91361,-1.18106 -4.14864,-1.83551 -6.39706,-1.87315 -2.70893,-0.0453 -5.42529,0.81366 -7.61558,2.40833 l -4.87397,2.94357 c -3.39445,2.05004 -6.89187,4.02882 -10.72607,5.04069 -3.8342,1.01188 -7.93097,1.06279 -11.76091,0.0349 l -2.76928,-1.65247 -12.20047,-8.68022 c 2.81666,1.66655 5.46961,3.60964 7.90829,5.79225 1.23862,1.10856 2.42208,2.27876 3.54454,3.5048 4.82657,3.65009 11.22858,5.13701 17.16982,3.98785 2.27833,-0.44068 4.46815,-1.24363 6.70169,-1.87314 0.66731,-0.18808 1.34105,-0.37064 1.96367,-0.67562 0.62263,-0.30497 1.17096,-0.73999 1.69183,-1.19755 l 1.82772,-1.60556 c 1.03867,-0.48941 2.05543,-1.02531 3.04623,-1.60556 1.60134,-0.93781 3.14675,-1.99735 4.87397,-2.67594 2.93076,-1.15144 6.31036,-1.11069 9.21251,0.11107 l -1.67083,-8.06608 c -0.41035,-1.98101 -0.77073,-3.97184 -1.14458,-5.96006 -0.36568,-1.9448 -0.77633,-3.88172 -1.2672,-5.79876 -0.51562,-2.0137 -1.11943,-4.00418 -1.77904,-5.97541 -1.25695,-3.75636 -2.77767,-7.54306 -5.4832,-10.43619 -2.77044,-2.96254 -6.55325,-4.74444 -10.30182,-6.29369 -2.348,-0.97041 -4.73223,-1.88056 -7.2094,-2.44485 -2.84303,-0.64763 -5.7712,-0.83115 -8.68636,-0.89486 -2.95875,-0.0647 -5.92191,-0.008 -8.87097,0.23979 -3.81086,0.32022 -7.60546,0.96257 -11.25262,2.11296 -4.08235,1.28766 -8.09918,3.22967 -12.378811,3.13815 -1.814779,-0.0388 -3.620692,-0.45317 -5.270865,-1.20938 l -2.741586,-2.40837 -2.436997,-3.21101"
           style="fill:#ffffff;fill-opacity:1;stroke:#ffffff;stroke-width:4.86373075000000020;stroke-miterlimit:4;stroke-opacity:1;stroke-dasharray:none" /><path
           transform="matrix(3.484659,0,0,2.9656756,-903.63147,-659.83849)"
           d="m 303.8305,430.97678 c 0,3.47251 -2.60315,6.28754 -5.8143,6.28754 -3.21114,0 -5.81429,-2.81503 -5.81429,-6.28754 0,-3.47252 2.60315,-6.28755 5.81429,-6.28755 3.21115,0 5.8143,2.81503 5.8143,6.28755 z"
           sodipodi:ry="6.2875466"
           sodipodi:rx="5.8142905"
           sodipodi:cy="430.97678"
           sodipodi:cx="298.0162"
           id="path3789"
           style="fill:#ffffff;fill-opacity:1;stroke:none;stroke-width:0.41166251999999998;stroke-miterlimit:4;stroke-opacity:1;stroke-dasharray:none"
           sodipodi:type="arc" /><path
           sodipodi:nodetypes="csccssscsscccccsssssccsccsscc"
           inkscape:connector-curvature="0"
           inkscape:original-d="m 156.10338,838.59518 c 0,0 11.9655,-6.00711 13.59717,-6.52947 1.63166,-0.52235 14.95687,-1.30589 16.31659,-1.04473 1.35972,0.2612 11.69357,3.39533 11.69357,3.39533 0,0 5.71081,-4.17884 8.43026,-4.70122 2.71944,-0.52236 12.78135,-1.56707 15.7727,-1.56707 2.9914,0 19.03606,1.30592 21.75548,2.35063 2.71944,1.04471 13.59717,5.48475 13.59717,5.48475 0,0 8.43026,4.44005 10.06194,4.9624 1.63165,0.52236 14.41298,3.39531 15.7727,3.65652 1.35972,0.26117 14.41301,1.82824 15.50078,2.08942 1.08779,0.26118 6.25468,2.6118 6.25468,2.6118 l 5.16695,7.57418 -1.63167,4.9624 -7.61443,7.31302 c 0,0 -7.34246,3.65649 -8.70219,4.9624 -1.35972,1.30591 -7.6144,8.88009 -9.78995,11.23072 -2.17554,2.35059 -10.06194,7.57415 -13.05329,9.6636 -2.99137,2.08944 -10.81808,2.91116 -12.5094,6.00713 -3.03231,5.55069 -20.66769,1.82824 -24.20297,1.30589 -3.53523,-0.52236 -19.30799,-2.6118 -19.30799,-2.6118 l -16.04463,-3.13413 c 0,0 -10.06194,-1.82825 -11.69359,-5.22358 -1.63168,-3.39534 -7.88633,-14.36487 -7.88633,-14.36487 l 1.90358,-8.61889 c 0,0 0.54389,-4.9624 -2.44749,-5.48478 -2.99137,-0.52236 -8.1583,-0.78351 -10.06191,-4.44002 C 165.0775,854.78829 157.4631,838.334 157.4631,838.334 z"
           inkscape:path-effect="#path-effect3793-9-5-6-8-8"
           id="path3791"
           d="m 156.10338,838.59518 c 4.07994,-2.98694 8.71515,-5.2128 13.59717,-6.52947 5.29698,-1.42858 10.88035,-1.78373 16.31659,-1.04473 4.03647,0.54872 7.99092,1.69693 11.69357,3.39533 2.47445,-2.0875 5.35382,-3.69321 8.43026,-4.70122 5.04591,-1.65333 10.46399,-1.67785 15.7727,-1.56707 7.30904,0.15252 14.67268,0.53977 21.75548,2.35063 4.74894,1.21416 9.33492,3.06403 13.59717,5.48475 3.17764,1.98357 6.55393,3.6487 10.06194,4.9624 5.06715,1.89757 10.39522,3.05696 15.7727,3.65652 5.18962,0.57861 10.48153,0.64926 15.50078,2.08942 2.17662,0.62454 4.28028,1.50297 6.25468,2.6118 l 5.16695,7.57418 -1.63167,4.9624 -7.61443,7.31302 c -3.20026,1.03329 -6.18324,2.73433 -8.70219,4.9624 -3.72382,3.29381 -6.35705,7.63473 -9.78995,11.23072 -3.75036,3.92853 -8.38143,6.89373 -13.05329,9.6636 -3.98838,2.36464 -8.08097,4.63318 -12.5094,6.00713 -7.76543,2.40928 -16.09715,1.94007 -24.20297,1.30589 -6.4798,-0.50696 -12.92895,-1.36573 -19.30799,-2.6118 l -16.04463,-3.13413 c -2.12486,-0.41507 -4.25289,-0.88922 -6.24255,-1.74277 -1.98967,-0.85354 -3.82425,-2.05223 -5.45104,-3.48081 -4.18855,-3.67821 -7.03142,-8.85648 -7.88633,-14.36487 l 1.90358,-8.61889 c -0.0734,-2.05076 -0.97019,-4.06049 -2.44749,-5.48478 -1.33065,-1.2829 -3.06211,-2.06681 -4.81023,-2.66726 -1.74812,-0.60045 -3.55312,-1.04381 -5.25168,-1.77276 -3.72407,-1.59821 -6.82961,-4.59195 -8.56323,-8.25495 -1.73362,-3.663 -2.07988,-7.96264 -0.95478,-11.85586 l -1.35972,0.26118"
           style="fill:#ffffff;fill-opacity:1;stroke:none" /><path
           sodipodi:nodetypes="ccasssaacccsaaaaccccacccaaaccc"
           inkscape:connector-curvature="0"
           inkscape:original-d="m 160.96581,704.01814 -5.87662,19.05864 c 0,0 -3.09355,3.46167 -3.56614,5.63321 -1.15389,5.30218 1.21374,14.25058 2.20386,16.12898 0.99017,1.87843 11.09405,12.16612 6.66712,9.72381 -14.35172,-7.91775 10.30683,6.4558 14.35432,7.71629 4.86177,1.51408 9.80786,3.14528 14.8937,3.39723 3.95039,0.19571 7.91418,-0.61322 11.77272,-1.48243 6.01787,-1.35564 17.57889,-5.78411 17.57889,-5.78411 0,0 7.79451,6.05667 11.75512,7.46548 5.13614,2.11696 13.32318,0.65167 16.17097,0.0637 0,0 5.56703,-2.67861 7.1451,-4.39129 4.63201,-5.02713 4.10559,-6.74497 5.03923,-10.51917 0.71524,-2.89131 0.99373,-6.02261 0.34181,-8.92886 -1.12873,-5.03188 -3.93713,-9.68248 -7.13844,-13.72544 -1.08601,-1.37152 -2.43676,-2.59503 -3.97697,-3.42463 -1.51056,-0.81364 -4.95072,-1.40878 -4.95072,-1.40878 l -3.96058,0 c 19.73095,-1.80053 22.31267,-2.84895 18.57578,22.60402 -0.51867,2.52386 -0.25808,4.16325 -0.25808,4.16325 0,0 -2.97012,7.03815 -5.44579,9.86161 -1.21682,1.38777 -2.8109,2.44981 -4.45567,3.28722 -34.88977,20.12386 -23.25009,4.67051 -27.46259,-8.6999 -34.55716,55.07565 28.05631,24.50834 -15.57063,6.81144 0,0 -27.03989,-0.59722 -39.14429,-5.84424 -1.74093,-0.75466 -3.22519,-2.09554 -4.46231,-3.53425 -3.77341,-4.38827 -7.21865,-9.45663 -8.61916,-15.07215 -0.79203,-3.17578 0.30088,-9.81456 0.30088,-9.81456 l 2.93078,-3.03745 c 17.6917,-24.56042 26.45717,-75.64974 5.15771,-20.24762 z"
           inkscape:path-effect="#path-effect3802-4-1-1-8-8"
           id="path3800"
           d="m 160.96581,704.01814 -5.87662,19.05864 c -1.62399,1.54957 -2.86026,3.50242 -3.56614,5.63321 -0.87453,2.63987 -0.92908,5.50658 -0.45103,8.24613 0.47806,2.73956 1.47235,5.36585 2.65489,7.88285 1.68117,3.57833 3.78771,7.0146 6.66712,9.72381 3.98596,3.75034 9.1961,5.88717 14.35432,7.71629 4.81909,1.70887 9.78319,3.23418 14.8937,3.39723 3.96493,0.1265 7.91163,-0.57216 11.77272,-1.48243 6.01155,-1.41725 11.90032,-3.35487 17.57889,-5.78411 3.18454,3.44889 7.2795,6.04952 11.75512,7.46548 5.21851,1.65098 10.93962,1.67352 16.17097,0.0637 2.71469,-0.79537 5.20933,-2.32854 7.1451,-4.39129 2.69465,-2.8714 4.24227,-6.66288 5.03923,-10.51917 0.60609,-2.93272 0.80827,-5.97072 0.34181,-8.92886 -0.81465,-5.16626 -3.63228,-9.84463 -7.13844,-13.72544 -1.17769,-1.30353 -2.45547,-2.54646 -3.97697,-3.42463 -1.50112,-0.86641 -3.21834,-1.35506 -4.95072,-1.40878 l -3.96058,0 c 5.12399,1.15048 9.83777,4.05277 13.17202,8.11007 3.33425,4.05729 5.26805,9.24415 5.40376,14.49395 0.036,1.39174 -0.0505,2.78661 -0.25808,4.16325 -0.80974,3.7213 -2.72756,7.19422 -5.44579,9.86161 -1.32166,1.29694 -2.82718,2.40581 -4.45567,3.28722 -4.71273,2.55073 -10.4693,3.09724 -15.57782,1.4789 -5.10853,-1.61833 -9.50038,-5.37977 -11.88477,-10.1788 l -15.57063,6.81144 c -13.02955,4.07202 -27.87233,1.85599 -39.14429,-5.84424 -1.56822,-1.0713 -3.07033,-2.2422 -4.46231,-3.53425 -4.31588,-4.00606 -7.56609,-9.2785 -8.61916,-15.07215 -0.58967,-3.24419 -0.48641,-6.61259 0.30088,-9.81456 l 2.93078,-3.03745 5.15771,-20.24762"
           style="fill:#ffffff;fill-opacity:1;stroke:#ffffff;stroke-width:5.73514916999999970;stroke-linejoin:round;stroke-miterlimit:4;stroke-opacity:1;stroke-dasharray:none" /></g></g><path
       style="fill:#000000;fill-opacity:1;stroke:#ffffff;stroke-width:0.98184479000000002;stroke-miterlimit:4;stroke-opacity:1;stroke-dasharray:none"
       d="m 125.05432,110.17189 c 1.33791,2.19651 2.61077,4.43265 3.81636,6.70448 0.67772,1.2771 1.33418,2.56548 1.96902,3.86443 -0.75133,-1.21044 -1.49421,-2.42612 -2.22858,-3.64693 -0.40857,-0.6792 -0.8145,-1.35999 -1.21778,-2.04234 l -2.33902,-4.87964"
       id="path4042"
       inkscape:path-effect="#path-effect4044-2"
       inkscape:original-d="m 125.05432,110.17189 3.81636,6.70448 1.96902,3.86443 -2.22858,-3.64693 -1.21778,-2.04234 z"
       inkscape:connector-curvature="0"
       transform="matrix(-0.79179944,0.17678185,0.17678185,0.79179944,625.38117,76.608814)"
       sodipodi:nodetypes="cccccc" /></g><path
     sodipodi:nodetypes="czszsacccsacssasscacscscscccscccccsazcssssccccsscssccscsccsscssscscsscssscsscsssssscssssccsc"
     inkscape:connector-curvature="0"
     inkscape:original-d="m 155.09328,920.1855 c 0,0 10.73682,-5.78397 10.71996,-8.54917 -0.0169,-2.76521 -8.04016,-5.08906 -6.91111,-6.34771 1.12904,-1.25864 0.92855,0.66383 1.73301,-0.19926 0.80446,-0.86309 1.02367,-3.79741 0.0133,-5.26386 -1.41173,-2.04909 -7.75434,-0.53604 -7.08662,-2.90366 0.27108,-0.96117 3.10886,0.35636 3.10886,0.35636 l 1.95851,-0.7564 1.91906,-2.44512 c 0,0 7.7542,7.89712 9.03145,4.23097 1.27725,-3.66614 -0.96772,-12.79589 -5.69013,-15.80381 -1.1806,-0.75199 -4.18192,0.38123 -4.18192,0.38123 0,0 0.97925,-0.3782 1.31509,-3.50449 0.33585,-3.12628 0.66852,-9.30668 -0.46372,-11.10215 -1.13223,-1.79546 -6.49733,1.80586 -7.23481,-0.49617 -1.80037,-5.61981 13.56148,-7.15268 13.67024,-11.24887 0.10877,-4.09621 -14.84828,1.6565 -14.473,0.21891 0.3753,-1.43758 -0.30595,-4.34732 -0.30595,-4.34732 0,0 1.25636,-4.72184 -0.34541,-6.03602 -1.41535,-1.16125 -5.5759,0.50831 -5.5759,0.50831 0,0 2.63345,-15.66621 -2.63657,-15.59033 -5.71984,0.0824 -2.37323,16.99638 -2.37323,16.99638 0,0 -0.26652,-2.65862 -2.03738,-2.62101 -1.77085,0.0376 -2.86365,-0.0691 -2.86365,-0.0691 0,0 -0.18764,0.71879 -1.8828,1.0797 -1.69516,0.36091 -2.18558,-0.21351 -2.18558,-0.21351 l -1.09598,-3.16086 -1.05655,-1.47215 c 0,0 -0.71281,-9.75617 -3.9155,-9.75313 -3.20268,0.003 -1.96317,8.96823 -1.96317,8.96823 l 0,0 -3.1995,3.05713 -3.54172,0.0752 c 4.73345,-5.93731 -1.08344,-6.33142 -0.72387,-7.65255 1.01392,-3.27065 2.57096,-4.32527 1.65254,-5.10372 -0.91842,-0.77845 -2.53052,1.75039 -3.91701,1.5128 -1.39114,-0.23839 -0.75694,-3.23305 -3.13016,-2.72777 -2.37323,0.50528 -2.5889,-6.32782 -2.5889,-6.32782 0,0 -1.58507,14.34433 -2.83243,10.53686 -1.24737,-3.80747 0.3721,-4.49169 -1.55014,-5.10069 -1.9222,-0.60901 -13.356612,-15.46824 -16.068862,-14.89078 -2.71227,0.57747 8.23172,14.86227 6.00988,16.01415 -2.22183,1.15189 -3.49531,2.77571 -3.49531,2.77571 -0.87591,0.33148 -0.91049,-0.89119 -0.91049,-0.89119 l -0.78582,0.1373 -2.07033,1.1008 c 0,0 0.20043,0.58735 -0.0792,0.73688 -0.2796,0.14953 -1.35811,0.64916 -1.77444,0.6178 -0.41632,-0.0314 -0.79279,-0.16122 -0.79279,-0.16122 0,0 0.0797,-0.19698 -0.5033,-0.40286 -0.58303,-0.20587 -1.17274,-0.44033 -1.82532,-0.27139 -0.65257,0.16895 -1.43434,0.9954 -1.43434,0.9954 l 0.055,0.86802 c -2.3545,-0.74725 -7.42915,-7.02784 -8.86097,-7.06241 -1.43182,-0.0346 0.47958,7.93775 0.47958,7.93775 0,0 -0.41473,-0.25112 -1.46808,1.33083 -1.05336,1.58195 -1.65573,2.04962 -1.65573,2.04962 l -1.31669,1.97744 c 0,0 -0.30277,-1.29322 -1.01391,3.27065 -0.71113,4.56387 2.26447,3.59092 -1.2378,5.35485 -3.50229,1.76392 -7.45872,1.58802 -7.45872,1.58802 0,0 0.60741,-11.28853 -1.91721,-11.42986 -2.52461,-0.14133 -8.2207,9.17583 -9.68878,10.50666 -1.46807,1.33083 -1.50433,2.69623 -1.80392,4.45712 -0.29959,1.76089 -16.28701,-13.95121 -16.28701,-13.95121 0,0 17.64633,16.71659 15.08545,17.94066 -2.56087,1.22407 -6.60795,4.46167 -6.60795,4.46167 0,0 -0.92009,2.91126 -5.17612,4.49624 -4.25604,1.58499 -11.48001,-3.58991 -11.96724,-1.11024 -0.48724,2.47969 5.94672,8.84106 5.94672,8.84106 0,0 0.0394,1.6887 -1.58003,2.37291 -1.61946,0.68422 -1.99475,2.12181 -2.03101,3.48721 -0.0362,1.3654 -5.45715,5.60745 -3.38097,7.30902 1.97064,1.61507 6.17211,-4.50907 6.17211,-4.50907 0,0 0.75376,0.17893 1.7346,1.32779 0.98085,1.14885 1.88599,1.9744 3.321,5.06308 1.43501,3.08867 0.98403,4.20295 0.98403,4.20295 0,0 -13.58877,3.97057 -14.79033,7.96002 -1.20155,3.98944 8.9969,0.7407 9.60245,3.32714 0.60556,2.58643 5.52423,2.58594 1.29185,5.79723 -64.9504,49.28054 -8.30609,6.34566 -7.4372,8.53661 0.86889,2.19095 0.5977,6.2101 10.46461,13.90785 6.35474,4.9577 6.49097,5.33645 8.52835,7.95747 2.03737,2.621 3.38846,-3.33797 3.38846,-3.33797 0,0 -10.39936,-3.52381 -7.7596,-1.37047 2.63975,2.15333 15.68857,14.49324 16.7483,19.0195 1.05972,4.52626 3.12363,-0.88088 3.84114,0.66346 0.7175,1.54433 -1.05336,1.58195 2.3764,2.54882 3.42977,0.96688 6.5962,2.32924 6.5962,2.32924 l 2.98197,5.13527 c 0,0 0.64181,1.22103 3.84449,1.21799 3.20268,-0.003 8.6501,2.7405 8.6501,2.7405"
     inkscape:path-effect="#path-effect3812-7-1-1-4"
     id="path3810-2"
     d="m 155.09328,920.1855 c -0.0226,1.66779 0.43748,3.33936 1.31046,4.76061 0.87298,1.42126 2.15588,2.58745 3.65371,3.32132 1.49782,0.73387 3.20558,1.03297 4.86366,0.85183 1.65808,-0.18114 3.26096,-0.84192 4.565,-1.88189 1.30403,-1.03997 2.30488,-2.45566 2.85038,-4.03188 0.54551,-1.57622 0.63387,-3.30771 0.25164,-4.93127 -0.38223,-1.62356 -1.23376,-3.13378 -2.42516,-4.30109 -1.1914,-1.16731 -2.7187,-1.98782 -4.34973,-2.3368 -1.07817,-0.23069 -2.18769,-0.25826 -3.28518,-0.36401 -1.09749,-0.10575 -2.21096,-0.29831 -3.17958,-0.82503 -0.48431,-0.26336 -0.92706,-0.60974 -1.27283,-1.03911 -0.34578,-0.42936 -0.59227,-0.94354 -0.67684,-1.4883 -0.0846,-0.54476 -0.002,-1.11937 0.26154,-1.60341 0.26386,-0.48403 0.71342,-0.87053 1.24178,-1.02785 0.55847,-0.16628 1.1634,-0.0765 1.73301,-0.19926 0.57203,-0.12333 1.09137,-0.46619 1.4412,-0.93529 0.34984,-0.46909 0.52987,-1.05933 0.51596,-1.64434 -0.0139,-0.58501 -0.21927,-1.16179 -0.56648,-1.63283 -0.34721,-0.47104 -0.83336,-0.83583 -1.37738,-1.0514 -0.67734,-0.2684 -1.42338,-0.30544 -2.15165,-0.28428 -0.72828,0.0212 -1.45747,0.0971 -2.18395,0.0417 -0.72647,-0.0554 -1.46601,-0.2552 -2.02658,-0.7206 -0.28028,-0.2327 -0.51021,-0.52983 -0.64456,-0.86845 -0.13434,-0.33861 -0.17014,-0.71908 -0.0799,-1.07201 0.0936,-0.36581 0.32324,-0.69512 0.6342,-0.9093 0.31096,-0.21417 0.70052,-0.31137 1.07565,-0.26837 0.37512,0.043 0.73258,0.22583 0.98701,0.50481 0.25444,0.27899 0.40364,0.65173 0.412,1.02922 l 1.95851,-0.7564 1.91906,-2.44512 c 0.49203,1.82669 1.82011,3.41017 3.53323,4.21272 1.71313,0.80255 3.77981,0.80941 5.49822,0.0182 1.73449,-0.79856 3.07172,-2.37659 3.66538,-4.19145 0.59366,-1.81487 0.45927,-3.84021 -0.28082,-5.60045 -0.74009,-1.76024 -2.06602,-3.25265 -3.676,-4.27936 -1.60998,-1.0267 -3.49409,-1.59588 -5.39869,-1.73255 -1.40233,-0.10063 -2.8209,0.0287 -4.18192,0.38123 0.35851,-1.19609 0.79822,-2.36783 1.31509,-3.50449 0.87659,-1.92772 1.99171,-3.80904 2.24252,-5.9118 0.12541,-1.05138 0.0201,-2.14725 -0.42977,-3.10578 -0.44985,-0.95852 -1.26666,-1.76611 -2.27647,-2.08457 -0.59231,-0.1868 -1.22656,-0.20308 -1.84507,-0.14674 -0.61852,0.0563 -1.22812,0.1832 -1.84199,0.27752 -0.61387,0.0943 -1.23894,0.15615 -1.8555,0.0814 -0.61656,-0.0747 -1.22878,-0.29494 -1.69225,-0.70837 -0.34679,-0.30934 -0.59995,-0.71936 -0.73597,-1.16372 -0.13602,-0.44436 -0.1562,-0.92177 -0.0734,-1.37905 0.16555,-0.91456 0.73917,-1.72626 1.48062,-2.28669 0.74145,-0.56042 1.64055,-0.88505 2.55501,-1.05121 0.91445,-0.16615 1.84929,-0.1808 2.77866,-0.17079 0.92937,0.01 1.86037,0.0441 2.78713,-0.0262 0.92677,-0.0703 1.85581,-0.24859 2.69703,-0.64379 0.84122,-0.39519 1.59264,-1.02072 2.03099,-1.84028 0.21918,-0.40978 0.35776,-0.86426 0.38889,-1.32793 0.0311,-0.46367 -0.0465,-0.93612 -0.23869,-1.35924 -0.27439,-0.60418 -0.77697,-1.0918 -1.36613,-1.39711 -0.58916,-0.30531 -1.26063,-0.43461 -1.92413,-0.42583 -1.32702,0.0175 -2.5858,0.56609 -3.76855,1.16807 -1.18275,0.60198 -2.35181,1.27473 -3.64453,1.57499 -0.64637,0.15013 -1.32035,0.20355 -1.9759,0.1007 -0.65555,-0.10285 -1.29249,-0.36711 -1.79376,-0.80191 -0.60955,-0.52872 -0.99749,-1.30532 -1.05414,-2.11024 -0.0566,-0.80491 0.2187,-1.6282 0.74819,-2.23708 0.80372,-0.80471 1.24355,-1.95986 1.17858,-3.09534 -0.065,-1.13548 -0.63372,-2.2329 -1.52399,-2.94068 -0.80638,-0.64108 -1.86394,-0.95712 -2.88985,-0.86359 -1.0259,0.0935 -2.00889,0.59558 -2.68605,1.3719 1.3937,-0.91288 2.5133,-2.23862 3.17999,-3.76547 0.66669,-1.52686 0.878,-3.24919 0.60019,-4.89193 -0.27781,-1.64273 -1.04372,-3.1998 -2.17541,-4.42252 -1.13168,-1.22272 -2.62496,-2.10658 -4.24134,-2.51041 -2.33977,-0.58456 -4.91933,-0.13007 -6.91842,1.21894 -1.9991,1.34901 -3.38589,3.57105 -3.7194,5.95956 -0.33352,2.38852 0.39157,4.90545 1.94468,6.75046 1.55311,1.84501 3.90951,2.98871 6.31991,3.06742 -0.20913,-1.13066 -0.99326,-2.13941 -2.03738,-2.62101 -0.89158,-0.41124 -1.95328,-0.43686 -2.86365,-0.0691 -0.49719,0.54128 -1.16452,0.92396 -1.8828,1.0797 -0.72703,0.15763 -1.5028,0.0819 -2.18558,-0.21351 l -1.09598,-3.16086 -1.05655,-1.47215 c 1.16913,-0.58586 2.10499,-1.62271 2.56841,-2.84555 0.46342,-1.22284 0.44979,-2.61951 -0.0374,-3.83307 -0.4872,-1.21357 -1.44312,-2.23195 -2.62345,-2.79488 -1.18034,-0.56294 -2.57336,-0.66483 -3.82305,-0.27963 -0.88711,0.27344 -1.69925,0.78608 -2.32769,1.46931 -0.62844,0.68323 -1.07158,1.53529 -1.27008,2.44211 -0.19851,0.90683 -0.15188,1.8661 0.13365,2.7494 0.28552,0.88329 0.80921,1.68836 1.50095,2.30741 l 0,0 -3.1995,3.05713 -3.54172,0.0752 c -1.12423,-0.88713 -1.86383,-2.24572 -1.99869,-3.67145 -0.13487,-1.42573 0.33687,-2.89891 1.27482,-3.9811 0.70281,-0.8109 1.65313,-1.41287 2.20239,-2.33472 0.27463,-0.46093 0.43769,-1.0051 0.36391,-1.53654 -0.0369,-0.26572 -0.13326,-0.52449 -0.28964,-0.74247 -0.15638,-0.21797 -0.37365,-0.39391 -0.62412,-0.48999 -0.33788,-0.12961 -0.72001,-0.10913 -1.06541,-0.001 -0.3454,0.10797 -0.65916,0.29829 -0.95615,0.50507 -0.29699,0.20677 -0.58156,0.43204 -0.89021,0.62098 -0.30864,0.18894 -0.64624,0.34229 -1.00524,0.3879 -0.36885,0.0469 -0.7481,-0.0232 -1.08773,-0.17457 -0.33963,-0.15133 -0.64076,-0.38168 -0.89645,-0.65162 -0.51138,-0.53988 -0.83729,-1.22505 -1.14598,-1.90158 -0.94627,-2.0739 -1.81015,-4.18539 -2.5889,-6.32782 1.27241,-0.67189 2.74253,-0.96367 4.1751,-0.82864 1.43256,0.13502 2.82227,0.69635 3.94673,1.59416 1.12446,0.89781 1.97952,2.12877 2.42833,3.4959 0.44881,1.36713 0.48973,2.86536 0.11619,4.25494 -0.37354,1.38959 -1.16014,2.66538 -2.23393,3.62321 -1.07379,0.95784 -2.43079,1.59417 -3.85385,1.80717 -1.42307,0.21301 -2.90692,0.002 -4.2141,-0.59956 -1.30719,-0.60145 -2.43286,-1.59101 -3.1969,-2.81032 -0.95118,-1.51798 -1.3233,-3.32374 -1.55014,-5.10069 -0.3394,-2.6587 -0.39237,-5.34922 -0.77341,-8.00227 -0.38104,-2.65306 -1.11856,-5.31901 -2.67554,-7.50069 -0.77848,-1.09083 -1.757984,-2.04683 -2.907914,-2.73504 -1.149929,-0.68821 -2.473172,-1.10258 -3.813209,-1.11902 -1.340038,-0.0164 -2.693222,0.37529 -3.775974,1.16499 -1.082753,0.78969 -1.879122,1.98345 -2.122815,3.30125 -0.270334,1.46186 0.136986,2.98194 0.828228,4.29811 0.691241,1.31618 1.653669,2.4662 2.58116,3.62804 0.927492,1.16185 1.837662,2.36421 2.399358,3.74067 0.280848,0.68822 0.471458,1.41681 0.520252,2.15853 0.04879,0.74172 -0.04675,1.49717 -0.319118,2.1888 -0.285487,0.72494 -0.764971,1.37245 -1.375115,1.85698 -0.610144,0.48453 -1.349428,0.80488 -2.120195,0.91873 l -0.91049,-0.89119 -0.78582,0.1373 -2.07033,1.1008 c 0.06966,0.24351 0.04062,0.51374 -0.0792,0.73688 -0.07888,0.1469 -0.194974,0.27255 -0.330485,0.3697 -0.135511,0.0971 -0.290119,0.16625 -0.450837,0.21064 -0.321435,0.0888 -0.662243,0.079 -0.993118,0.0375 -0.267829,-0.0336 -0.533105,-0.0876 -0.79279,-0.16122 -0.148619,-0.15612 -0.318427,-0.29204 -0.5033,-0.40286 -0.541281,-0.32447 -1.21262,-0.42261 -1.82532,-0.27139 -0.577733,0.14259 -1.098621,0.50408 -1.43434,0.9954 l 0.055,0.86802 c 0.849411,-1.16693 1.228239,-2.66657 1.034934,-4.0969 -0.193305,-1.43034 -0.956614,-2.77562 -2.085309,-3.67522 -1.128695,-0.89959 -2.610341,-1.3436 -4.047759,-1.21299 -1.437418,0.13061 -2.81477,0.8344 -3.762836,1.9227 -0.964761,1.10747 -1.473224,2.60094 -1.384646,4.06702 0.08858,1.46608 0.773149,2.88747 1.864226,3.87073 -0.518125,0.41043 -1.008927,0.85535 -1.46808,1.33083 -0.610889,0.63262 -1.165679,1.31939 -1.65573,2.04962 l -1.31669,1.97744 c -0.469324,1.04356 -0.810652,2.14461 -1.01391,3.27065 -0.163763,0.90724 -0.237991,1.82852 -0.390377,2.73774 -0.152386,0.90922 -0.387962,1.81786 -0.847423,2.61711 -0.714404,1.24273 -1.9731,2.15934 -3.375116,2.45785 -1.402017,0.2985 -2.924932,-0.0259 -4.083604,-0.86983 1.242306,-0.50014 2.304848,-1.43451 2.959708,-2.60268 0.65486,-1.16817 0.89755,-2.56214 0.676011,-3.88289 -0.221539,-1.32075 -0.905788,-2.55923 -1.905973,-3.44979 -1.000185,-0.89056 -2.30945,-1.42709 -3.646956,-1.4945 -1.284479,-0.0647 -2.573285,0.29597 -3.689945,0.93406 -1.11666,0.63808 -2.066344,1.54524 -2.83824,2.57395 -1.543792,2.05743 -2.369665,4.55105 -3.160595,6.99865 -0.493889,1.52838 -0.990243,3.07227 -1.80392,4.45712 -1.607541,2.73597 -4.465963,4.70248 -7.595817,5.22569 -3.129853,0.5232 -6.472458,-0.40669 -8.882459,-2.47106 -2.410001,-2.06437 -3.842214,-5.22451 -3.805885,-8.39759 0.03633,-3.17308 1.540518,-6.2996 3.997151,-8.30825 2.399195,-1.20979 5.20986,-1.58403 7.842021,-1.04416 2.63216,0.53986 5.068578,1.9903 6.797833,4.04685 1.729256,2.05655 2.740025,4.70575 2.82014,7.39151 0.08012,2.68576 -0.770947,5.39049 -2.374544,7.54646 -1.61665,2.17352 -3.987741,3.77447 -6.60795,4.46167 -0.358156,1.14863 -1.041399,2.19395 -1.949731,2.98297 -0.908331,0.78902 -2.038953,1.31932 -3.226389,1.51327 -2.002308,0.32705 -4.022049,-0.28795 -5.981783,-0.81296 -0.979867,-0.26251 -1.969962,-0.50481 -2.980134,-0.59757 -1.010171,-0.0928 -2.046732,-0.0316 -3.005323,0.30029 -1.588002,0.54981 -2.890603,1.86633 -3.423507,3.46009 -0.532905,1.59376 -0.284161,3.429 0.653751,4.8234 0.937912,1.39441 2.543955,2.3167 4.221017,2.42398 1.677062,0.10727 3.387527,-0.60287 4.495459,-1.86641 -0.566757,0.76328 -1.094356,1.55564 -1.58003,2.37291 -0.687336,1.15662 -1.291053,2.36353 -2.03101,3.48721 -0.756113,1.14822 -1.651057,2.20422 -2.345965,3.39048 -0.694908,1.18626 -1.189282,2.55241 -1.035005,3.91854 0.08597,0.76126 0.375043,1.49865 0.829338,2.11552 0.454295,0.61687 1.0727,1.11171 1.774173,1.41969 0.701473,0.30797 1.484297,0.42832 2.245885,0.34527 0.761587,-0.083 1.500073,-0.3693 2.11868,-0.82122 0.618607,-0.45193 1.11582,-1.06843 1.426481,-1.76872 0.310662,-0.70029 0.43401,-1.48264 0.35388,-2.24454 -0.08013,-0.7619 -0.36354,-1.50148 -0.813092,-2.12182 -0.449552,-0.62033 -1.064144,-1.11991 -1.763235,-1.43325 0.618742,0.38598 1.200466,0.83128 1.7346,1.32779 1.491274,1.38624 2.594582,3.16101 3.321,5.06308 0.514912,1.34826 0.846902,2.76624 0.98403,4.20295 0.538396,-2.12756 0.444279,-4.41103 -0.267374,-6.48707 -0.711653,-2.07603 -2.038234,-3.93702 -3.768655,-5.28685 -1.730421,-1.34982 -3.858341,-2.18352 -6.045159,-2.36845 -2.186819,-0.18493 -4.424524,0.2796 -6.357045,1.31966 -1.932521,1.04007 -3.552778,2.65186 -4.602951,4.57891 -1.0501731,1.92705 -1.5264142,4.16229 -1.3529426,6.35004 0.1734715,2.18776 0.9960201,4.32002 2.3367596,6.05749 1.340739,1.73746 3.194757,3.07377 5.267037,3.79629 1.621041,0.56519 3.344614,0.75637 5.019369,1.13374 1.674754,0.37737 3.368075,0.98056 4.583081,2.1934 0.740902,0.73958 1.273154,1.68843 1.505155,2.70926 0.232001,1.02083 0.161199,2.11039 -0.213305,3.08797 -0.34237,0.8937 -0.926271,1.67877 -1.596484,2.36194 -0.670213,0.68318 -1.428543,1.27253 -2.180593,1.86442 -0.752051,0.59189 -1.503457,1.19141 -2.156101,1.89139 -0.652645,0.69998 -1.207477,1.50893 -1.504022,2.41886 -0.47807,1.46693 -0.242811,3.10509 0.419926,4.49837 0.662738,1.39328 1.72356,2.56385 2.895896,3.56688 2.344672,2.00606 5.205276,3.44583 7.148788,5.8426 1.294287,1.59614 2.1072,3.53193 3.345821,5.17164 0.619311,0.81985 1.352411,1.56877 2.235533,2.09394 0.883121,0.52517 1.926979,0.81547 2.946996,0.69189 0.84665,-0.10258 1.655843,-0.4927 2.263402,-1.0912 0.607559,-0.59851 1.009781,-1.40176 1.125058,-2.24677 -0.979814,-1.00278 -2.278851,-1.68884 -3.659481,-1.93268 -1.380631,-0.24384 -2.836085,-0.0443 -4.100119,0.56221 -1.337462,0.64171 -2.447008,1.72934 -3.164795,3.02756 -0.717786,1.29822 -1.048207,2.79921 -0.998611,4.28182 0.09919,2.96522 1.714482,5.75808 3.983776,7.66928 2.269294,1.91119 5.138648,3.00524 8.056519,3.54227 2.917871,0.53704 5.904933,0.54738 8.871411,0.49857 0.659177,-0.0109 1.320962,-0.0244 1.975294,0.0561 0.654332,0.0805 1.305978,0.25924 1.865846,0.60735 0.495591,0.30814 0.903506,0.73832 1.274038,1.18918 0.370533,0.45085 0.710032,0.92762 1.102362,1.35964 1.633267,1.79848 4.195753,2.70334 6.5962,2.32924 l 2.98197,5.13527 c 0.188561,0.32472 0.38715,0.64918 0.657574,0.9097 0.270423,0.26052 0.608041,0.45152 0.972341,0.54254 0.3643,0.091 0.747709,0.0837 1.118348,0.0235 0.37064,-0.0602 0.731048,-0.17028 1.096227,-0.25771 1.545242,-0.36996 3.1909,-0.31084 4.705612,0.16905 1.514711,0.47988 2.894187,1.37918 3.944488,2.57145"
     style="fill:none;stroke:#ffffff;stroke-width:4.31764698;stroke-linecap:round;stroke-linejoin:round;stroke-miterlimit:4;stroke-opacity:1;stroke-dasharray:none;stroke-dashoffset:0;display:inline" /></g></svg>