<?xml version="1.0" encoding="UTF-8" standalone="no"?>
<!-- Created with Inkscape (http://www.inkscape.org/) -->

<svg
   xmlns:dc="http://purl.org/dc/elements/1.1/"
   xmlns:cc="http://creativecommons.org/ns#"
   xmlns:rdf="http://www.w3.org/1999/02/22-rdf-syntax-ns#"
   xmlns:svg="http://www.w3.org/2000/svg"
   xmlns="http://www.w3.org/2000/svg"
   xmlns:sodipodi="http://sodipodi.sourceforge.net/DTD/sodipodi-0.dtd"
   xmlns:inkscape="http://www.inkscape.org/namespaces/inkscape"
   width="744.09448819"
   height="1052.3622047"
   id="svg2"
   version="1.1"
   inkscape:version="0.48.4 r9939"
   sodipodi:docname="jann.svg.2014_02_20_18_36_27.0.svg">
  <defs
     id="defs4">
    <inkscape:path-effect
       effect="spiro"
       id="path-effect3836"
       is_visible="true" />
    <inkscape:path-effect
       effect="spiro"
       id="path-effect3828"
       is_visible="true" />
    <inkscape:path-effect
       effect="spiro"
       id="path-effect3824"
       is_visible="true" />
    <inkscape:path-effect
       effect="spiro"
       id="path-effect3820"
       is_visible="true" />
    <inkscape:path-effect
       effect="spiro"
       id="path-effect3816"
       is_visible="true" />
    <inkscape:path-effect
       effect="spiro"
       id="path-effect3812"
       is_visible="true" />
    <inkscape:path-effect
       effect="spiro"
       id="path-effect3806"
       is_visible="true" />
    <inkscape:path-effect
       effect="spiro"
       id="path-effect3802"
       is_visible="true" />
    <inkscape:path-effect
       effect="spiro"
       id="path-effect3798"
       is_visible="true" />
    <inkscape:path-effect
       effect="spiro"
       id="path-effect3793"
       is_visible="true" />
    <inkscape:path-effect
       effect="spiro"
       id="path-effect3787"
       is_visible="true" />
    <inkscape:path-effect
       effect="spiro"
       id="path-effect3783"
       is_visible="true" />
    <inkscape:path-effect
       effect="spiro"
       id="path-effect3779"
       is_visible="true" />
    <inkscape:path-effect
       effect="spiro"
       id="path-effect3005"
       is_visible="true" />
    <inkscape:path-effect
       effect="spiro"
       id="path-effect2999"
       is_visible="true" />
    <inkscape:path-effect
       effect="spiro"
       id="path-effect3005-1"
       is_visible="true" />
    <inkscape:path-effect
       effect="spiro"
       id="path-effect3779-7"
       is_visible="true" />
    <inkscape:path-effect
       effect="spiro"
       id="path-effect3783-4"
       is_visible="true" />
    <inkscape:path-effect
       effect="spiro"
       id="path-effect3787-0"
       is_visible="true" />
    <inkscape:path-effect
       effect="spiro"
       id="path-effect3793-9"
       is_visible="true" />
    <inkscape:path-effect
       effect="spiro"
       id="path-effect3802-4"
       is_visible="true" />
    <inkscape:path-effect
       effect="spiro"
       id="path-effect2999-8"
       is_visible="true" />
    <inkscape:path-effect
       effect="spiro"
       id="path-effect3005-1-8"
       is_visible="true" />
    <inkscape:path-effect
       effect="spiro"
       id="path-effect3779-7-2"
       is_visible="true" />
    <inkscape:path-effect
       effect="spiro"
       id="path-effect3783-4-4"
       is_visible="true" />
    <inkscape:path-effect
       effect="spiro"
       id="path-effect3787-0-5"
       is_visible="true" />
    <inkscape:path-effect
       effect="spiro"
       id="path-effect3793-9-5"
       is_visible="true" />
    <inkscape:path-effect
       effect="spiro"
       id="path-effect3802-4-1"
       is_visible="true" />
    <inkscape:path-effect
       effect="spiro"
       id="path-effect3812-7"
       is_visible="true" />
    <inkscape:path-effect
       effect="spiro"
       id="path-effect2999-8-1"
       is_visible="true" />
    <inkscape:path-effect
       effect="spiro"
       id="path-effect3005-1-8-1"
       is_visible="true" />
    <inkscape:path-effect
       effect="spiro"
       id="path-effect3779-7-2-5"
       is_visible="true" />
    <inkscape:path-effect
       effect="spiro"
       id="path-effect3783-4-4-2"
       is_visible="true" />
    <inkscape:path-effect
       effect="spiro"
       id="path-effect3787-0-5-7"
       is_visible="true" />
    <inkscape:path-effect
       effect="spiro"
       id="path-effect3793-9-5-6"
       is_visible="true" />
    <inkscape:path-effect
       effect="spiro"
       id="path-effect3802-4-1-1"
       is_visible="true" />
  </defs>
  <sodipodi:namedview
     id="base"
     pagecolor="#ffffff"
     bordercolor="#666666"
     borderopacity="1.0"
     inkscape:pageopacity="0.0"
     inkscape:pageshadow="2"
     inkscape:zoom="0.88708316"
     inkscape:cx="270.17605"
     inkscape:cy="755.6494"
     inkscape:document-units="px"
     inkscape:current-layer="layer4"
     showgrid="false"
     inkscape:window-width="1440"
     inkscape:window-height="838"
     inkscape:window-x="-8"
     inkscape:window-y="-8"
     inkscape:window-maximized="1"
     showguides="true"
     inkscape:guide-bbox="true" />
  <metadata
     id="metadata7">
    <rdf:RDF>
      <cc:Work
         rdf:about="">
        <dc:format>image/svg+xml</dc:format>
        <dc:type
           rdf:resource="http://purl.org/dc/dcmitype/StillImage" />
        <dc:title />
      </cc:Work>
    </rdf:RDF>
  </metadata>
  <g
     inkscape:groupmode="layer"
     id="layer4"
     inkscape:label="Layer"
     style="display:inline">
    <rect
       style="fill:#000000;fill-opacity:1;stroke:#000000;stroke-width:11.07603645;stroke-linecap:round;stroke-linejoin:round;stroke-miterlimit:4;stroke-opacity:1;stroke-dasharray:none;stroke-dashoffset:0"
       id="rect5363-7"
       width="290.84601"
       height="66.460686"
       x="-381.56497"
       y="-365.89258"
       transform="matrix(-0.89212884,0.45178106,-0.41024549,-0.91197513,0,0)" />
    <rect
       style="fill:#000000;fill-opacity:1;stroke:#000000;stroke-width:11.64550972;stroke-linecap:round;stroke-linejoin:round;stroke-miterlimit:4;stroke-opacity:1;stroke-dasharray:none;stroke-dashoffset:0"
       id="rect5367-2"
       width="48.797848"
       height="65.884735"
       x="-466.56665"
       y="-364.35712"
       transform="matrix(-0.89212884,0.45178106,-0.41024549,-0.91197513,0,0)" />
    <g
       id="g4218"
       transform="translate(10.14561,-4.5091601)">
      <path
         transform="matrix(-0.69258361,0.35072976,-0.32576066,-0.72416551,741.77712,688.83917)"
         inkscape:transform-center-y="-25.122888"
         inkscape:transform-center-x="20.509932"
         d="m 438.41292,820.40191 c -2.23664,-1.24258 -3.60163,-83.96021 -1.4072,-85.27591 2.19442,-1.3157 74.51249,38.861 74.5547,41.41928 0.0422,2.55827 -70.91086,45.09921 -73.1475,43.85663 z"
         inkscape:randomized="0"
         inkscape:rounded="0.03"
         inkscape:flatsided="true"
         sodipodi:arg2="3.1250924"
         sodipodi:arg1="2.0778948"
         sodipodi:r2="24.620386"
         sodipodi:r1="49.240772"
         sodipodi:cy="777.35773"
         sodipodi:cx="462.32635"
         sodipodi:sides="3"
         id="path5365-1"
         style="fill:#000000;stroke:#000000;stroke-width:14.10700035;stroke-linecap:round;stroke-linejoin:round;stroke-miterlimit:4;stroke-opacity:1;stroke-dasharray:none;stroke-dashoffset:0"
         sodipodi:type="star" />
      <path
         transform="matrix(-0.84640856,0.47815942,-0.36768062,-0.66417303,792.11008,674.25278)"
         inkscape:transform-center-y="-8.4318887"
         inkscape:transform-center-x="8.5750467"
         d="m 404.93413,850.69226 c -0.0414,0.95264 -27.38647,15.19391 -28.19077,14.68172 -0.80431,-0.5122 0.53492,-31.31433 1.38064,-31.75479 0.84572,-0.44045 26.85155,16.12042 26.81013,17.07307 z"
         inkscape:randomized="0"
         inkscape:rounded="0.03"
         inkscape:flatsided="true"
         sodipodi:arg2="1.0906484"
         sodipodi:arg1="0.043450895"
         sodipodi:r2="9.1754761"
         sodipodi:r1="18.350952"
         sodipodi:cy="849.89514"
         sodipodi:cx="386.60049"
         sodipodi:sides="3"
         id="path5369-6"
         style="fill:#000000;fill-opacity:1;stroke:#000000;stroke-width:14.10700035;stroke-linecap:round;stroke-linejoin:round;stroke-miterlimit:4;stroke-opacity:1;stroke-dasharray:none;stroke-dashoffset:0"
         sodipodi:type="star" />
    </g>
    <text
       xml:space="preserve"
       style="font-size:255.995224px;font-style:normal;font-weight:normal;line-height:125%;letter-spacing:0px;word-spacing:0px;fill:#5e61ec;fill-opacity:1;stroke:none;display:inline;font-family:Sans"
       x="-524.52612"
       y="-156.41818"
       id="text5491-0"
       sodipodi:linespacing="125%"
       transform="matrix(-0.99941109,0.03431445,-0.03431445,-0.99941109,0,0)"><tspan
         sodipodi:role="line"
         id="tspan5493-4"
         x="-524.52612"
         y="-156.41818">{</tspan></text>
    <text
       xml:space="preserve"
       style="font-size:255.995224px;font-style:normal;font-weight:normal;line-height:125%;letter-spacing:0px;word-spacing:0px;fill:#5e61ec;fill-opacity:1;stroke:none;display:inline;font-family:Sans"
       x="213.58316"
       y="-139.89291"
       id="text5491-8-9"
       sodipodi:linespacing="125%"
       transform="matrix(0.99997518,0.00704571,0.00704571,-0.99997518,0,0)"><tspan
         sodipodi:role="line"
         id="tspan5493-2-4"
         x="213.58316"
         y="-139.89291">{</tspan></text>
    <text
       xml:space="preserve"
       style="font-size:40px;font-style:normal;font-weight:normal;line-height:125%;letter-spacing:0px;word-spacing:0px;fill:#000000;fill-opacity:1;stroke:none;font-family:helvetica;-inkscape-font-specification:helvetica"
       x="28.465071"
       y="675.99066"
       id="text5653"
       sodipodi:linespacing="125%"><tspan
         sodipodi:role="line"
         id="tspan5655"
         x="28.465071"
         y="675.99066"
         style="font-family:helvetica;-inkscape-font-specification:helvetica" /></text>
    <text
       xml:space="preserve"
       style="font-size:98.83797455px;font-style:normal;font-weight:normal;line-height:125%;letter-spacing:0px;word-spacing:0px;fill:#000000;fill-opacity:1;stroke:none;font-family:Sans"
       x="328.71585"
       y="298.97266"
       id="text4222"
       sodipodi:linespacing="125%"><tspan
         sodipodi:role="line"
         id="tspan4224"
         x="328.71585"
         y="298.97266">J.S.</tspan></text>
  </g>
  <g
     inkscape:label="Layer 1"
     inkscape:groupmode="layer"
     id="layer1"
     style="display:inline">
    <g
       style="display:inline"
       id="g4107"
       transform="matrix(-2.0709673,0.46237646,0.46237646,2.0709673,1999.8812,-438.93434)">
      <g
         transform="matrix(0.15045499,0,0,0.15045499,519.2675,92.458254)"
         id="g4074">
        <path
           style="fill:#ffffff;fill-opacity:1;stroke:#000000;stroke-width:21.87486839;stroke-linecap:round;stroke-linejoin:round;stroke-miterlimit:4;stroke-opacity:1;stroke-dasharray:none;stroke-dashoffset:0"
           d="m 90.919581,581.80145 c -6.725988,3.85235 -14.844626,5.20905 -22.457714,3.75288 -7.613088,-1.45617 -14.657974,-5.71323 -19.487508,-11.77583 -4.829535,-6.0626 -7.403973,-13.88086 -7.121391,-21.6268 0.282581,-7.74595 3.419856,-15.35584 8.678307,-21.05042 1.455452,-1.57616 3.06191,-3.00565 4.551963,-4.54914 1.490053,-1.5435 2.877365,-3.22317 3.794607,-5.16258 0.917243,-1.9394 1.337216,-4.17017 0.843055,-6.25786 -0.247081,-1.04384 -0.721623,-2.0384 -1.412746,-2.85877 -0.691124,-0.82037 -1.60133,-1.46216 -2.620911,-1.7955 -1.384253,-0.45256 -2.892026,-0.32563 -4.319844,-0.0387 -1.427818,0.28688 -2.826972,0.72855 -4.273428,0.89806 -3.135335,0.36743 -6.387042,-0.61418 -8.862147,-2.57356 -2.475105,-1.95939 -4.164075,-4.85811 -4.753654,-7.95935 -0.58958,-3.10125 -0.09559,-6.3812 1.284504,-9.22033 1.380099,-2.83913 3.626368,-5.23325 6.316009,-6.88587 3.132804,-1.92492 6.776268,-2.83425 10.390803,-3.50872 3.614535,-0.67448 7.287249,-1.14655 10.775548,-2.30911 3.488299,-1.16256 6.847269,-3.10275 8.948139,-6.12038 1.050436,-1.50882 1.761171,-3.26888 1.942541,-5.09837 0.181371,-1.8295 -0.181624,-3.72568 -1.12127,-5.30587 -0.924256,-1.55431 -2.398925,-2.7737 -4.099176,-3.38956 -1.70025,-0.61586 -3.613752,-0.62372 -5.319009,-0.0219 -1.705257,0.60186 -3.189904,1.80908 -4.12691,3.35574 -0.937006,1.54666 -1.319577,3.42154 -1.063442,5.21166 L 47.093971,465.7925 35.063395,455.48056 c -2.032957,-3.05909 -4.336383,-5.93837 -6.874609,-8.59325 -6.576039,-6.87826 -14.734887,-12.27175 -20.343179,-19.95952 -2.8041458,-3.84389 -4.9293365,-8.27891 -5.5067228,-13.00176 -0.5773863,-4.72285 0.5089997,-9.748 3.5074609,-13.44231 2.4112016,-2.97076 5.9969859,-4.96088 9.7935779,-5.43546 3.796593,-0.47457 7.761921,0.57165 10.830199,2.85748 -3.0498,-5.67464 -6.498372,-11.1349 -10.311865,-16.32721 -6.4636595,-8.80067 -14.1076821,-17.06929 -17.7432031,-27.36559 -1.8177604,-5.14814 -2.5528327,-10.76822 -1.4333223,-16.11185 1.1195105,-5.34363 4.2169776,-10.37328 8.8646135,-13.23809 2.594528,-1.59927 5.5715559,-2.48859 8.5733559,-3.01627 3.0018,-0.52768 6.051738,-0.70936 9.086169,-0.9948 3.034432,-0.28544 6.079896,-0.67992 8.980826,-1.61472 2.90093,-0.9348 5.670917,-2.44147 7.732667,-4.68612 1.738456,-1.89267 2.922566,-4.26022 3.56795,-6.74778 0.645383,-2.48755 0.764901,-5.0939 0.529577,-7.65302 -0.470647,-5.11822 -2.324905,-9.99177 -4.097527,-14.81625 -3.314113,-9.01989 -6.408263,-18.14069 -8.593249,-27.49845 -1.715006,-7.34495 -2.865281,-14.82168 -3.437328,-22.34247 -3.053884,-0.99791 -5.824928,-2.8464 -7.919274,-5.28274 -2.094345,-2.43634 -3.505924,-5.45347 -4.034103,-8.62255 -0.528179,-3.16908 -0.171428,-6.48093 1.019547,-9.46482 1.190975,-2.98389 3.212724,-5.63118 5.777886,-7.5656 3.785725,-2.85486 8.59085,-4.08347 13.324463,-4.35706 4.733612,-0.27359 9.469048,0.33164 14.173946,0.91975 l 13.749264,1.71864 12.030529,0 c -0.46265,-5.86315 2.212554,-11.88237 6.874608,-15.46788 3.852067,-2.96256 8.956212,-4.2386 13.749241,-3.4373 2.949205,2.2119 6.625377,3.4373 10.311887,3.4373 3.68651,0 7.3627,-1.22539 10.31191,-3.4373 l 1.71867,-17.1865 3.43733,-8.59325 c 2.42378,-2.77953 5.34944,-5.12009 8.59322,-6.87463 5.72857,-3.09855 12.45255,-4.32109 18.90518,-3.43728 l 0,0 18.90517,12.03053 17.18654,-3.43728 c 4.73879,-5.74808 6.96587,-13.49666 6.00234,-20.88369 -0.96353,-7.38702 -5.10367,-14.30509 -11.15833,-18.64532 -2.30927,-1.65538 -4.85915,-2.93806 -7.3311,-4.33895 -2.47195,-1.40089 -4.90394,-2.94957 -6.83947,-5.02964 -1.93554,-2.08008 -3.35047,-4.75881 -3.4399,-7.598704 -0.0447,-1.419949 0.24754,-2.857936 0.90615,-4.116701 0.65861,-1.258765 1.6899,-2.330952 2.9551,-2.977114 1.5986,-0.816434 3.48801,-0.922481 5.25574,-0.610748 1.76774,0.311733 3.4402,1.015181 5.07441,1.757763 1.63421,0.742582 3.25671,1.533017 4.97998,2.035418 1.72327,0.502401 3.57629,0.705812 5.31374,0.254877 1.74641,-0.45326 3.28137,-1.548242 4.47555,-2.900757 1.19419,-1.352514 2.07075,-2.956304 2.80685,-4.603586 1.4722,-3.294563 2.46362,-6.888912 4.74813,-9.682207 2.19078,-2.678689 5.50895,-4.404023 8.96003,-4.65891 3.45107,-0.254888 6.98671,0.964243 9.54726,3.292011 2.56054,2.327769 4.11012,5.731561 4.18432,9.191243 0.0742,3.459682 -1.32803,6.926779 -3.78642,9.362186 1.84639,1.225255 4.14886,1.744942 6.34253,1.431562 2.19367,-0.31338 4.25854,-1.456971 5.688,-3.150202 1.52048,-1.801043 2.29343,-4.144637 2.52384,-6.490381 0.23042,-2.345745 -0.0483,-4.71157 -0.43204,-7.037162 -0.38371,-2.325593 -0.87331,-4.638423 -1.06911,-6.98731 -0.19581,-2.348888 -0.0878,-4.76064 0.69597,-6.983557 0.97125,-2.754756 2.9572,-5.095342 5.37781,-6.730172 2.42061,-1.63483 5.25817,-2.591108 8.14617,-3.02867 5.77601,-0.875126 11.63933,0.267185 17.41176,1.165542 6.33361,0.985691 12.73909,1.686433 18.90518,3.4373 7.26345,2.062465 14.11018,5.581235 20.01536,10.28658 l 3.38886,-5.49406 3.94964,-0.15196 11.24125,3.34198 c -0.0874,1.310875 0.35879,2.649587 1.21526,3.64583 1.08082,1.257204 2.74279,1.918788 4.39662,2.035271 1.65383,0.116483 3.3071,-0.266299 4.86983,-0.820011 1.26175,-0.447066 2.48347,-1.007025 3.6458,-1.671 0.5329,-0.947689 1.19985,-1.819865 1.97481,-2.58245 2.23118,-2.195566 5.37774,-3.426114 8.5069,-3.342 2.99705,0.08056 5.94521,1.359957 8.05116,3.49391 l 0.71564,4.45453 c 3.9382,-3.724068 8.7639,-6.503278 13.96145,-8.04067 9.11368,-2.695748 19.32874,-1.418875 27.49843,3.43728 2.97361,1.527278 5.84634,3.250918 8.59328,5.15597 3.6815,2.553183 7.13671,5.43253 10.31191,8.59327 l 8.59325,8.59325 c 3.48608,4.776303 6.3796,9.984639 8.59325,15.467849 1.78741,4.4274 3.1298,9.02281 4.87326,13.4677 1.74345,4.44489 3.92865,8.79464 7.15729,12.3121 4.79046,5.21899 11.82094,8.30893 18.90517,8.30893 7.08423,0 14.11471,-3.08994 18.90517,-8.30893 1.84565,-5.1233 4.79684,-9.84519 8.59328,-13.74924 5.9584,-6.12729 14.08041,-10.18979 22.5945,-10.93582 8.51408,-0.74604 17.34111,1.91182 23.80911,7.49851 6.29767,5.43957 10.06539,13.16201 13.7492,20.62385 1.70123,3.44598 3.41992,6.88334 5.15597,10.31191 1.35854,3.06091 3.09446,5.95411 5.15596,8.59325 4.29445,5.49778 10.01921,9.86837 16.45438,12.56216 6.43517,2.6938 13.56629,3.70474 20.49662,2.9057 7.22905,9.39446 18.31258,15.7279 30.0764,17.18652 5.54254,0.68723 11.1586,0.33612 16.73492,0.647 5.57633,0.31088 11.30553,1.36195 15.91948,4.50894 4.28046,2.91952 7.33006,7.58662 8.28492,12.67918 0.95485,5.09256 -0.19688,10.54741 -3.12895,14.81928 3.1505,3.70896 6.60293,7.16139 10.31189,10.31189 2.66527,2.26396 5.46742,4.3766 7.95239,6.83711 2.48496,2.46051 4.67038,5.32013 5.79682,8.63077 1.1273,3.31317 1.1273,6.99872 0,10.31189 l -10.31191,6.87463 c -2.55748,2.63744 -4.86288,5.51919 -6.87458,8.59325 -5.70351,8.71546 -8.97004,18.88808 -10.31192,29.2171 -0.96214,7.406 -0.96214,14.93644 0,22.34244 10.52809,0.55306 20.73913,5.65859 27.49841,13.74924 4.28528,5.12935 7.15935,11.36418 8.67381,17.8742 1.51446,6.51001 1.63808,13.25229 1.63808,19.93614 l 0,20.62383 c 0,16.63502 0.4088,33.34248 -1.71862,49.8409 -1.42351,11.03948 -4.0936,21.87651 -6.87463,32.65437 -4.9866,19.32554 -10.38838,38.66539 -18.90513,56.71553 -3.94587,8.36275 -8.54767,16.4159 -13.74922,24.06111 -4.02707,4.56827 -8.0373,9.15138 -12.03058,13.74922 -6.14769,7.07842 -12.27902,14.22366 -17.29806,22.14246 -5.01903,7.91879 -8.92067,16.69214 -10.20037,25.97979 -1.02155,7.41409 -0.35543,14.94056 0.0184,22.41536 0.37384,7.47479 0.43441,15.10744 -1.73705,22.26964 -1.72259,5.68166 -4.81183,10.89075 -8.59325,15.4678 -7.50484,9.08392 -17.85564,15.7815 -29.2171,18.9052 l -8.59327,29.2171 c -0.52762,1.79389 -1.10459,3.59867 -2.10797,5.17653 -1.00339,1.57786 -2.41714,2.89564 -4.07746,3.75576 -1.66031,0.86011 -3.52795,1.26153 -5.39343,1.3897 -1.86548,0.12818 -3.73782,9.3e-4 -5.60766,-0.0101 -7.9032,-0.0466 -15.80787,2.11784 -22.58493,6.18407 -6.77706,4.06624 -12.40667,10.0224 -16.08473,17.01773"
           id="path3810"
           inkscape:path-effect="#path-effect3812-7"
           inkscape:original-d="m 90.919581,581.80145 c 0,0 -37.343666,-36.68044 -40.388306,-50.70017 -3.044592,-14.01978 12.030576,-15.46788 5.155968,-20.62385 -6.874608,-5.15595 -3.733126,4.36232 -8.593272,0.85932 -4.860123,-3.503 -9.23589,-18.12458 -6.015288,-26.63911 4.500164,-11.89746 36.836529,-11.07385 30.935761,-22.34245 -2.395524,-4.57465 -14.608537,5.15597 -14.608537,5.15597 L 47.093971,465.7925 35.063395,455.48056 c 0,0 3.437304,8.59327 -6.874609,-8.59325 -10.311912,-17.18652 -30.5557626,-31.3284 -22.3424409,-46.40359 3.3145846,-6.0838 20.6237769,-2.57798 20.6237769,-2.57798 0,0 -5.15592,-0.85932 -10.311865,-16.32721 C 11.002289,366.11068 2.4090174,335.17496 5.8463451,324.863 9.2836493,314.55109 33.078779,324.14826 40.219363,314.55109 c 5.813497,-7.81354 5.155944,-8.59325 0,-29.21705 -5.155968,-20.62382 -5.155968,-20.62382 -8.593249,-27.49845 -3.437328,-6.87461 -3.437328,-22.34247 -3.437328,-22.34247 0,0 -11.404524,-22.55454 -5.155944,-30.93571 5.521362,-7.4058 27.498409,-3.43731 27.498409,-3.43731 l 13.749264,1.71864 12.030529,0 c 0,0 -1.71864,-13.74921 6.874608,-15.46788 8.593249,-1.71864 13.749241,-3.4373 13.749241,-3.4373 0,0 1.71864,3.4373 10.311887,3.4373 8.59325,0 10.31191,-3.4373 10.31191,-3.4373 l 1.71867,-17.1865 3.43733,-8.59325 c 0,0 -6.87466,-3.43732 8.59322,-6.87463 15.46788,-3.43728 18.90518,-3.43728 18.90518,-3.43728 l 0,0 18.90517,12.03053 17.18654,-3.43728 c -29.56805,-24.96058 -1.92622,-33.22712 -5.15599,-39.52901 -8.59327,-15.46786 -17.30385,-19.129309 -13.74922,-24.061109 3.55464,-4.93179 14.1977,6.13503 20.62387,3.43731 6.44778,-2.70683 -2e-5,-17.18655 12.03053,-17.18655 12.03058,0 18.90519,17.18653 18.90519,17.18653 0,0 10.31189,18.905179 12.03053,-1.71864 1.71866,-20.62381 -6.87459,-22.34247 1.71866,-27.49841 8.59325,-5.156 17.18654,-8.5933 30.93574,-8.5933 13.74924,0 6.87461,0 18.90518,3.4373 12.03053,3.43731 20.01536,10.28658 20.01536,10.28658 4.60414,0.73419 3.38886,-5.49406 3.38886,-5.49406 l 3.94964,-0.15196 11.24125,3.34198 c 0,0 -0.30383,3.19009 1.21526,3.64583 1.51909,0.45571 7.29161,1.8229 9.26645,1.21526 1.9748,-0.60764 3.6458,-1.671 3.6458,-1.671 0,0 -0.60764,-0.91145 1.97481,-2.58245 2.58245,-1.671 5.1649,-3.4939 8.5069,-3.342 3.342,0.15195 8.05116,3.49391 8.05116,3.49391 l 0.71564,4.45453 c 10.52415,-6.32203 7.08684,-6.32203 13.96145,-8.04067 6.87459,-1.71869 27.49843,3.43728 27.49843,3.43728 0,0 1.71867,-1.71864 8.59328,5.15597 6.87461,6.87461 10.31191,8.59327 10.31191,8.59327 l 8.59325,8.59325 c 0,0 0,-6.87463 8.59325,15.467849 8.59325,22.34247 -6.87461,20.62381 12.03055,25.7798 18.90521,5.15594 37.81034,0 37.81034,0 0,0 -3.43728,-10.31194 8.59328,-13.74924 12.03055,-3.43731 37.81037,-8.59328 46.40361,-3.43731 8.59323,5.15595 10.31189,12.03056 13.7492,20.62385 3.4373,8.59325 5.15597,10.31191 5.15597,10.31191 0,0 -8.59328,5.15595 5.15596,8.59325 13.7492,3.43728 36.951,15.46786 36.951,15.46786 0,0 7.73393,13.74922 30.0764,17.18652 22.34251,3.43728 27.49846,-6.87461 32.6544,5.15594 5.15597,12.0306 5.15597,27.49846 5.15597,27.49846 0,0 1.71864,8.59325 10.31189,10.31189 8.59324,1.71866 12.03057,8.59325 13.74921,15.46788 1.71864,6.87461 0,10.31189 0,10.31189 l -10.31191,6.87463 c 0,0 -3.4373,1.71864 -6.87458,8.59325 -3.43733,6.87463 -6.87461,12.03058 -10.31192,29.2171 -3.4373,17.18649 0,22.34244 0,22.34244 0,0 17.1865,-5.15595 27.49841,13.74924 10.31189,18.90516 10.31189,24.0611 10.31189,37.81034 0,13.7492 0,-6.87461 0,20.62383 0,27.49843 0,37.81032 -1.71862,49.8409 -1.71866,12.03055 5.15595,-6.87461 -6.87463,32.65437 -12.03055,39.52899 -12.03055,41.24765 -18.90513,56.71553 -6.87461,15.46786 -13.74922,24.06111 -13.74922,24.06111 0,0 -1.71864,0 -12.03058,13.74922 -10.31193,13.74921 -27.49843,24.06112 -27.49843,48.12225 0,24.06111 0,36.0917 -1.71864,44.685 -1.71866,8.5932 6.87461,6.8746 -8.59325,15.4678 -15.46788,8.5933 -29.2171,18.9052 -29.2171,18.9052 l -8.59327,29.2171 c 0,0 -1.71864,6.8746 -17.18652,10.3119 -15.46786,3.4373 -38.66966,23.2018 -38.66966,23.2018"
           inkscape:connector-curvature="0"
           sodipodi:nodetypes="czszsacccsacssasscacccscscccscccccsazcssssccccsscssccscsccsscssscscsscssccsscsssssscssssccsc" />
        <path
           style="fill:#ffffff;fill-opacity:1;stroke:#000000;stroke-width:9.45268726;stroke-linecap:butt;stroke-linejoin:round;stroke-miterlimit:4;stroke-opacity:1;stroke-dasharray:none;stroke-dashoffset:0;display:inline"
           d="m 86.281707,504.72502 10.121983,-38.2916 0.38196,-54.81143 10.69492,-44.97593 24.92295,-24.4455 c 3.67805,-5.02724 9.81308,-8.1633 16.04203,-8.20026 6.22895,-0.037 12.40075,3.02608 16.1382,8.00932 2.55605,3.40805 3.97307,7.55605 6.48733,10.99505 1.25712,1.7195 2.80895,3.26555 4.70212,4.24175 1.89317,0.9762 4.15511,1.34025 6.18979,0.71007 1.52635,-0.47274 2.85399,-1.47625 3.88254,-2.69909 1.02854,-1.22284 1.77503,-2.65994 2.37605,-4.14049 1.20203,-2.96109 1.86423,-6.15991 3.48141,-8.9163 1.24069,-2.11468 3.01692,-3.89925 5.07392,-5.23339 2.05701,-1.33413 4.38994,-2.22322 6.79602,-2.69434 4.81217,-0.94224 9.83423,-0.21402 14.48538,1.3389 10.08048,3.36565 18.71751,10.63777 24.15903,19.76649 1.76876,2.96728 3.22235,6.14354 4.05725,9.49558 0.83489,3.35205 1.03797,6.88868 0.3353,10.27091 -0.6073,2.9232 -1.89585,5.71155 -3.78777,8.02122 -1.89192,2.30967 -4.38956,4.13115 -7.19361,5.15644 -3.50928,1.28316 -7.47209,1.28316 -10.98137,0 -3.54761,-3.10183 -6.53769,-6.83943 -8.78512,-10.9814 -2.21956,-4.09061 -3.71383,-8.57343 -4.39254,-13.17766 -2.5117,2.09561 -4.46734,4.85171 -5.61591,7.91456 -1.14856,3.06284 -1.48737,6.42525 -0.97292,9.65567 0.85641,5.37776 4.15042,10.31876 8.78511,13.17766 7.51375,3.1812 15.7165,4.72332 23.87255,4.48804 6.1797,-0.17827 12.39166,-1.39183 17.93386,-4.13124 5.54221,-2.73942 10.38693,-7.07234 13.19599,-12.57958 1.64121,-3.21764 2.54148,-6.82006 2.51509,-10.432 -0.0264,-3.61194 -1.02359,-7.13846 -2.13313,-10.57586 l -4.87,-15.08746 -17.57023,-24.15903 6.58883,-15.37395 13.17766,0 13.17766,13.17766 2.19628,13.17766 c 1.04392,6.26353 2.09542,12.55306 4.03929,18.59814 1.94388,6.04507 4.8266,11.88073 9.13837,16.5423 4.85252,5.2462 11.42169,8.82969 18.41464,10.30219 6.99295,1.47251 14.37931,0.86094 21.11834,-1.5171 6.03365,-2.12913 11.67135,-5.76322 15.37392,-10.98138 3.57544,-5.03899 5.17606,-11.44148 4.39257,-17.5702 l -4.39257,-13.17766 0,15.37394 -13.17766,6.58881 c -4.86606,1.8962 -10.17156,2.65413 -15.37392,2.19628 -3.8893,-0.34229 -7.73852,-1.36696 -11.18614,-3.19939 -3.44761,-1.83243 -6.48382,-4.48829 -8.58035,-7.78198 -2.07492,-3.25975 -3.19849,-7.11729 -3.19849,-10.98139 0,-3.8641 1.12357,-7.72164 3.19849,-10.98139 l 13.17766,-13.17766 19.76649,-15.37392 17.57021,-2.19628 c 5.82083,-0.79375 11.74937,-0.79375 17.5702,0 17.38986,2.37134 33.6497,12.12725 43.92553,26.35532 -0.62833,4.36255 -0.62833,8.81511 0,13.17766 1.43033,9.93093 6.02362,19.07431 10.13527,28.22655 4.11166,9.15224 7.86332,18.85238 7.43496,28.87663 -0.26317,6.15847 -2.10265,12.14295 -4.31022,17.89818 -2.20756,5.75523 -4.79948,11.36921 -6.67118,17.24226 -1.2533,3.93261 -2.18244,7.99725 -2.32695,12.12221 -0.14451,4.12497 0.5212,8.32529 2.32695,12.03682 2.09822,4.31266 5.736,7.85642 10.10211,9.84101 4.36611,1.9846 9.42804,2.39524 14.05695,1.14037 l 17.5702,30.74786 c 11.1578,-0.59671 22.49247,3.45139 30.74787,10.9814 4.68534,4.27364 8.37713,9.59167 10.98137,15.37392 3.62547,8.04971 5.15126,17.03431 4.38645,25.82959 -0.7648,8.79528 -3.8185,17.38166 -8.77899,24.68477 -3.17067,12.26603 -2.63193,25.46536 1.52783,37.43219 4.73802,13.6304 14.18372,25.57441 26.35532,33.32611 l 9.45354,-11.45883 c 0.73347,-3.89903 2.2347,-7.65211 4.39257,-10.98138 1.695,-2.61513 3.82403,-4.99543 6.46368,-6.652 2.63964,-1.65658 5.8218,-2.54961 8.91024,-2.13311 2.50542,0.33788 4.88571,1.54196 6.64235,3.36006 1.75665,1.8181 2.87819,4.23837 3.12975,6.75392 0.25156,2.51556 -0.36852,5.10999 -1.73035,7.23994 -1.36184,2.12995 -3.45656,3.78154 -5.84546,4.60885 1.72183,3.52626 2.93223,7.30174 3.58162,11.17182 1.13997,6.79372 0.52582,13.87426 -1.76687,20.37023 -2.2927,6.49597 -6.259,12.3934 -11.41079,16.9665 l -5.77791,8.5946 -13.17766,2.1963 -17.5702,0 -4.39255,26.3553 4.39255,6.5889 -6.58883,35.1404 c -3.33708,8.19483 -7.00143,16.25638 -10.98138,24.159 -6.49933,12.90512 -13.841,25.38595 -21.96277,37.3367 l -26.35532,32.9442 -24.15904,24.159 -21.96275,17.5702 -19.76649,10.9814 c -18.02489,4.2986 -36.07289,8.50025 -54.14298,12.6047 -24.51878,5.56921 -49.34083,10.98812 -74.48245,10.6949 -13.68728,-0.15963 -27.35381,-2.0247 -40.58336,-5.5384 -8.90611,-5.74526 -16.72354,-13.17183 -22.91766,-21.7718 -7.11177,-9.87405 -12.01287,-21.13242 -16.90178,-32.2757 -5.89108,-13.42751 -11.84339,-26.82817 -17.85667,-40.2014 -6.38813,-8.17406 -12.47324,-16.58492 -18.23865,-25.2095 -6.01449,-8.99719 -11.67993,-18.2251 -17.09275,-27.5966 -12.76561,-22.10177 -24.242221,-45.32507 -29.539959,-70.2927 -2.096323,-9.87973 -3.206512,-19.96843 -3.308723,-30.0676 -3.314177,-16.97244 -3.059737,-34.63313 0.742013,-51.50305 1.488963,-6.60714 3.515378,-13.09308 6.052648,-19.37269 l 0.958621,-39.21346 -7.826493,-24.83858 0.83713,-37.33675"
           id="path2997"
           inkscape:path-effect="#path-effect2999-8-1"
           inkscape:original-d="m 86.281707,504.72502 10.121983,-38.2916 0.38196,-54.81143 10.69492,-44.97593 24.92295,-24.4455 c 0,0 22.17246,-4.05251 32.18023,-0.19094 7.33517,2.83032 9.59098,17.02325 17.37924,15.94687 6.11631,-0.84531 4.75468,-12.11301 9.74,-15.75588 7.31149,-5.34264 16.8604,-8.71583 26.35532,-6.58883 9.49492,2.12699 19.66215,12.46254 24.15903,19.76649 4.49688,7.30395 5.86242,13.70857 4.39255,19.76649 -1.46987,6.05792 -6.73495,11.18874 -10.98138,13.17766 -4.24643,1.98891 -10.98137,0 -10.98137,0 0,0 -6.55868,-6.88891 -8.78512,-10.9814 -2.22643,-4.0925 -4.39254,-13.17766 -4.39254,-13.17766 0,0 -7.30419,11.35627 -6.58883,17.57023 0.60377,5.24456 8.78511,13.17766 8.78511,13.17766 0,0 14.0522,6.00656 23.87255,4.48804 9.82035,-1.51853 26.23631,-8.69617 31.12985,-16.71082 4.89354,-8.01465 0.38196,-21.00786 0.38196,-21.00786 l -4.87,-15.08746 -17.57023,-24.15903 6.58883,-15.37395 13.17766,0 13.17766,13.17766 2.19628,13.17766 c 0,0 3.36098,26.61102 13.17766,35.14044 9.81669,8.52942 29.83344,10.75926 39.53298,8.78509 9.69955,-1.97417 11.90297,-5.88347 15.37392,-10.98138 3.47096,-5.0979 4.39257,-17.5702 4.39257,-17.5702 l -4.39257,-13.17766 0,15.37394 -13.17766,6.58881 c 0,0 -4.39254,4.39257 -15.37392,2.19628 -10.98137,-2.19628 -15.94408,-4.48516 -19.76649,-10.98137 -3.71263,-6.30969 0,-21.96278 0,-21.96278 l 13.17766,-13.17766 19.76649,-15.37392 17.57021,-2.19628 c 0,0 -13.17766,-4.39255 17.5702,0 30.74789,4.39254 43.92553,26.35532 43.92553,26.35532 0,0 -4.39255,2.19628 0,13.17766 4.39257,10.98137 17.57023,46.12181 17.57023,57.10318 0,10.98138 -10.9814,24.15904 -10.9814,35.14044 0,10.98137 -19.76647,17.5702 0,24.15903 19.76649,6.58883 24.15906,10.98138 24.15906,10.98138 l 17.5702,30.74786 c 0,0 21.96278,8.78512 30.74787,10.9814 8.78511,2.19626 10.98137,8.78509 10.98137,15.37392 0,6.58883 -4.39254,50.51436 -4.39254,50.51436 0,0 -7.25726,30.84336 1.52783,37.43219 8.78512,6.58883 26.35532,33.32611 26.35532,33.32611 l 9.45354,-11.45883 c 0,0 2.19629,-2.19629 4.39257,-10.98138 2.19626,-8.78511 10.1277,-11.48967 15.37392,-8.78511 6.53958,3.37132 2.19629,21.96277 2.19629,21.96277 0,0 3.63841,7.2616 3.58162,11.17182 -0.19165,13.19663 -13.17766,37.33673 -13.17766,37.33673 l -5.77791,8.5946 -13.17766,2.1963 -17.5702,0 -4.39255,26.3553 4.39255,6.5889 -6.58883,35.1404 c 0,0 -6.58883,15.3739 -10.98138,24.159 -4.39254,8.7851 -21.96277,37.3367 -21.96277,37.3367 l -26.35532,32.9442 -24.15904,24.159 -21.96275,17.5702 -19.76649,10.9814 c 0,0 -45.35789,10.4085 -54.14298,12.6047 -8.78511,2.1963 -63.50105,10.6949 -74.48245,10.6949 -10.98137,0 -40.58336,-5.5384 -40.58336,-5.5384 0,0 -16.56845,-13.3627 -22.91766,-21.7718 -7.31789,-9.6921 -11.61714,-21.3413 -16.90178,-32.2757 -6.38054,-13.2019 -17.85667,-40.2014 -17.85667,-40.2014 0,0 -12.4645,-16.5936 -18.23865,-25.2095 -6.02394,-8.9885 -8.78748,-11.4942 -17.09275,-27.5966 -8.30527,-16.1025 -25.084766,-53.1116 -29.539959,-70.2927 -4.455192,-17.1812 -3.308723,-30.0676 -3.308723,-30.0676 0,0 -1.969916,-34.54911 0.742013,-51.50305 1.068602,-6.68047 6.052648,-19.37269 6.052648,-19.37269 l 0.958621,-39.21346 -7.826493,-24.83858 z"
           inkscape:connector-curvature="0"
           sodipodi:nodetypes="cccccasazzzzczcaczzccccccczzzccccsaccccscssssccsscsccsscacccccccscccccsscaacazzcacccc" />
        <g
           transform="translate(3.3145804,-38.584349)"
           style="display:inline"
           id="g3938">
          <path
             sodipodi:nodetypes="ccsccccccsaaaccccccccc"
             inkscape:connector-curvature="0"
             inkscape:original-d="m 282.71362,635.98237 -10.74249,-2.23677 c 0,0 8.68962,-19.86198 26.06884,-23.5861 17.37923,-3.72413 52.13771,0 52.13771,0 l 14.89646,8.68961 9.931,7.44825 12.41374,-3.72412 6.20687,-14.89649 -9.931,3.72412 c 0,0 -13.65511,-4.9655 -18.62061,-7.44825 -4.96549,-2.48274 -16.01727,-8.57897 -24.82746,-9.93096 -9.71079,-1.49022 -19.95637,-0.51225 -29.38838,2.23676 -10.97308,3.19818 -21.79179,8.47003 -30.23432,16.17464 -6.65011,6.06883 -14.85972,22.55392 -14.85972,22.55392 l 3.72412,6.20687 6.48963,-2.23677 13.37236,3.47814 13.22521,3.85975 14.40454,-1.41377 -9.00916,-1.2046 -12.41374,-3.72413 z"
             inkscape:path-effect="#path-effect3005-1-8-1"
             id="path3003"
             d="m 282.71362,635.98237 -10.74249,-2.23677 c 6.13678,-10.18118 15.32629,-18.49551 26.06884,-23.5861 16.22968,-7.69079 35.90803,-7.69079 52.13771,0 l 14.89646,8.68961 9.931,7.44825 12.41374,-3.72412 6.20687,-14.89649 -9.931,3.72412 c -6.3358,-2.14266 -12.55492,-4.63031 -18.62061,-7.44825 -8.10566,-3.76565 -16.06588,-8.16557 -24.82746,-9.93096 -9.72559,-1.95963 -19.86035,-0.52799 -29.38838,2.23676 -11.07733,3.21431 -21.78001,8.32839 -30.23432,16.17464 -6.66283,6.18361 -11.80718,13.99166 -14.85972,22.55392 l 3.72412,6.20687 6.48963,-2.23677 c 4.47426,1.09345 8.93236,2.253 13.37236,3.47814 4.42703,1.22156 8.83607,2.50833 13.22521,3.85975 l 14.40454,-1.41377 -9.00916,-1.2046 c -4.14297,-1.22444 -8.28093,-2.46583 -12.41374,-3.72413 -4.28679,-1.30519 -8.56804,-2.62857 -12.8436,-3.9701"
             style="fill:#000000;fill-opacity:1;stroke:#000000;stroke-width:3.78107476;stroke-miterlimit:4;stroke-opacity:1;stroke-dasharray:none" />
          <path
             transform="matrix(2.3117984,0,0,2.3833697,-557.79635,-408.47574)"
             d="m 394.96611,431.92328 c 0,4.36865 -4.17714,7.91014 -9.32991,7.91014 -5.15277,0 -9.32991,-3.54149 -9.32991,-7.91014 0,-4.36865 4.17714,-7.91014 9.32991,-7.91014 5.15277,0 9.32991,3.54149 9.32991,7.91014 z"
             sodipodi:ry="7.9101396"
             sodipodi:rx="9.3299084"
             sodipodi:cy="431.92328"
             sodipodi:cx="385.6362"
             id="path3007"
             style="fill:#000000;fill-opacity:1;stroke:none"
             sodipodi:type="arc" />
          <path
             sodipodi:nodetypes="ccscccccsccccccccccsssssscc"
             inkscape:connector-curvature="0"
             inkscape:original-d="m 236.41726,566.31602 -0.31952,6.39077 c 0,0 0.95859,4.47356 2.23676,6.07125 1.27815,1.59769 5.43216,5.7517 5.43216,5.7517 l 5.7517,1.27815 13.10109,-5.11263 3.51493,-11.18385 20.13094,-10.22524 c 0,0 17.2551,-9.58615 18.85279,-9.9057 1.5977,-0.31955 26.52171,-2.23677 28.11941,-2.55632 1.59769,-0.31952 19.81139,3.51494 19.81139,3.51494 0,0 23.32635,5.43215 24.92404,6.07122 1.59769,0.6391 19.81139,8.30802 19.81139,8.30802 l 12.46202,7.66894 5.11263,5.1126 3.51491,3.19539 6.07125,2.23679 0.31952,-9.58616 -10.8643,-15.65741 c 0,0 -18.53325,-12.14247 -21.08956,-13.74016 -2.55632,-1.5977 -14.37924,-7.3494 -17.57463,-8.62757 -3.19541,-1.27814 -26.84126,-7.66891 -33.23205,-8.62753 -6.39077,-0.95862 -34.82973,-1.5977 -39.94233,0.63907 -5.11263,2.23676 -15.65741,6.39077 -21.08956,8.62756 -5.43217,2.23677 -17.2551,7.34939 -21.40911,9.26661 -4.154,1.91724 -15.33785,9.58616 -15.33785,9.58616 z"
             inkscape:path-effect="#path-effect3779-7-2-5"
             id="path3777"
             d="m 236.41726,566.31602 -0.31952,6.39077 c 0.37026,2.13676 1.13224,4.20501 2.23676,6.07125 1.3543,2.28828 3.22494,4.26896 5.43216,5.7517 l 5.7517,1.27815 13.10109,-5.11263 3.51493,-11.18385 20.13094,-10.22524 c 6.33198,-3.21624 12.2789,-7.21831 18.85279,-9.9057 8.8075,-3.60048 18.67115,-3.68142 28.11941,-2.55632 6.66204,0.79332 13.24145,2.1555 19.81139,3.51494 8.37766,1.73349 16.77399,3.46988 24.92404,6.07122 6.83073,2.18024 13.46873,4.96392 19.81139,8.30802 l 12.46202,7.66894 c 1.65481,1.75267 3.35995,3.4578 5.11263,5.1126 1.15141,1.0871 2.32332,2.15249 3.51491,3.19539 l 6.07125,2.23679 0.31952,-9.58616 -10.8643,-15.65741 c -6.74554,-4.99785 -13.7924,-9.58898 -21.08956,-13.74016 -5.6768,-3.22939 -11.51296,-6.19626 -17.57463,-8.62757 -10.64488,-4.26962 -21.90087,-6.85341 -33.23205,-8.62753 -13.26125,-2.07631 -27.03165,-3.03329 -39.94233,0.63907 -7.31251,2.08 -14.12356,5.58223 -21.08956,8.62756 -7.1266,3.11554 -14.46125,5.77057 -21.40911,9.26661 -5.39334,2.71383 -10.53508,5.92742 -15.33785,9.58616 l -8.30802,11.5034"
             style="fill:#000000;fill-opacity:1;stroke:none" />
          <path
             inkscape:connector-curvature="0"
             inkscape:original-d="m 150.53908,552.60676 5.87549,6.50126 c 0,0 6.85471,6.15911 5.54905,9.923 -1.30565,3.7639 -3.91698,8.5543 -6.85473,9.58082 -2.93773,1.02651 -9.79244,2.39519 -11.42452,2.39519 -1.63207,0 -15.01512,-6.15909 -16.64717,-8.21211 -1.63208,-2.05303 -7.18114,-6.15909 -11.42454,-8.89647 -4.24341,-2.73738 -9.46604,-5.81695 -13.0566,-7.18563 -3.590577,-1.36868 -15.66792,-3.42173 -17.299997,-3.42173 -1.632078,0 -0.65285,-11.63385 -0.65285,-11.63385 l 3.590579,-9.58081 8.160363,-1.36868 c 0,0 12.403765,0.68435 13.709445,1.36868 1.30565,0.68437 13.05662,5.47476 14.68869,5.81694 1.63208,0.34217 10.7717,4.44825 12.40377,5.13258 1.63208,0.68435 13.38302,9.58081 13.38302,9.58081 z"
             inkscape:path-effect="#path-effect3783-4-4-2"
             id="path3781"
             d="m 150.53908,552.60676 5.87549,6.50126 c 1.81558,0.87984 3.35086,2.32764 4.33558,4.08854 0.98471,1.76091 1.41442,3.82695 1.21347,5.83446 -0.20308,2.02881 -1.03878,3.97123 -2.26329,5.60154 -1.2245,1.63031 -2.82765,2.95636 -4.59144,3.97928 -3.42346,1.98546 -7.49154,2.83546 -11.42452,2.39519 -3.11365,-0.34855 -6.10138,-1.47808 -8.85553,-2.97171 -2.75415,-1.49363 -5.29398,-3.34885 -7.79164,-5.2404 -3.84777,-2.91404 -7.61809,-5.92867 -11.42454,-8.89647 -3.95541,-3.08394 -8.13784,-6.20494 -13.0566,-7.18563 -2.939206,-0.58601 -5.971839,-0.36778 -8.963223,-0.5521 -1.495692,-0.0922 -2.993169,-0.28733 -4.425553,-0.72763 -1.432383,-0.4403 -2.802368,-1.13402 -3.911221,-2.142 -1.592476,-1.44761 -2.586576,-3.5346 -2.707155,-5.68333 -0.120579,-2.14872 0.633787,-4.33383 2.054305,-5.95052 l 3.590579,-9.58081 8.160363,-1.36868 c 4.603125,-0.3345 9.263295,0.13075 13.709445,1.36868 5.07731,1.41366 9.81721,3.80541 14.68869,5.81694 4.13709,1.70829 8.39062,3.15057 12.40377,5.13258 4.94083,2.44018 9.48058,5.69015 13.38302,9.58081"
             style="fill:#000000;fill-opacity:1;stroke:none" />
          <path
             sodipodi:nodetypes="cscccscscscscccccccssccsscccsssssssssccc"
             inkscape:connector-curvature="0"
             inkscape:original-d="m 86.006961,588.13398 c 0,0 0,2.40833 0,3.47873 0,1.07037 2.74161,6.15469 2.74161,6.15469 l 2.953822,3.45959 4.486222,1.9114 c 0,0 14.695785,-5.77762 19.902135,-5.62992 1.21798,0.0345 17.32654,0.58907 17.32654,0.58907 0,0 16.83743,6.26588 18.66518,8.40665 1.82772,2.14075 6.45243,9.41272 6.45243,9.41272 0,0 1.80007,5.13121 2.4093,6.73679 0.60925,1.60556 3.96011,10.70378 3.96011,10.70378 0,0 -5.17859,-1.87315 -6.39706,-1.87315 -1.21852,0 -7.61558,2.40833 -7.61558,2.40833 l -4.87397,2.94357 c 0,0 -12.47126,7.11731 -22.48698,5.0756 -14.76037,2.99045 -2.76928,-1.65247 -2.76928,-1.65247 -6.83193,-3.19877 -1.88463,-9.82638 -8.5569,-6.36667 3.12047,0.88926 3.62475,2.99756 4.26472,3.4787 1.82772,1.33798 3.54454,3.5048 3.54454,3.5048 0,0 15.95132,3.98785 17.16982,3.98785 1.21847,0 4.56933,-1.33795 6.70169,-1.87314 2.13236,-0.53519 3.6555,-1.87317 3.6555,-1.87317 l 1.82772,-1.60556 c 0,0 2.437,-0.53519 3.04623,-1.60556 0.60924,-1.0704 1.52311,-1.8732 4.87397,-2.67594 3.35086,-0.8028 9.21251,0.11107 9.21251,0.11107 l -1.67083,-8.06608 c 0,0 -0.83999,-4.35447 -1.14458,-5.96006 -0.30463,-1.60558 -1.21852,-3.21112 -1.82775,-6.15469 -0.60924,-2.94354 0.60923,-2.67594 -1.21849,-5.61948 -1.82775,-2.94354 -3.96009,-9.36582 -5.4832,-10.43619 -1.52314,-1.07038 -6.09188,-3.89928 -10.30182,-6.29369 -5.16015,-2.93485 -4.46781,-1.64205 -7.2094,-2.44485 -2.74163,-0.80277 -5.03089,-0.35967 -8.68636,-0.89486 -3.65549,-0.53519 -3.08316,-1.09819 -8.87097,0.23979 -5.78785,1.33796 -6.68328,1.57775 -11.25262,2.11296 -4.56933,0.53519 -9.6372,3.13815 -12.378811,3.13815 -2.74161,0 -5.270865,-1.20938 -5.270865,-1.20938 l -2.741586,-2.40837 z"
             inkscape:path-effect="#path-effect3787-0-5-7"
             id="path3785"
             d="m 86.006961,588.13398 0,3.47873 c 0,1.18552 0.04675,2.39699 0.478569,3.50106 0.431821,1.10408 1.233118,2.06651 2.263041,2.65363 l 2.953822,3.45959 4.486222,1.9114 c 6.254745,-2.97712 13.014705,-4.88938 19.902135,-5.62992 5.76484,-0.61984 11.61711,-0.42087 17.32654,0.58907 6.95009,0.48971 13.69253,3.52645 18.66518,8.40665 2.73202,2.68123 4.93685,5.89761 6.45243,9.41272 0.79367,2.24896 1.59678,4.49458 2.4093,6.73679 1.29612,3.57672 2.61619,7.14475 3.96011,10.70378 -1.91361,-1.18106 -4.14864,-1.83551 -6.39706,-1.87315 -2.70893,-0.0453 -5.42529,0.81366 -7.61558,2.40833 l -4.87397,2.94357 c -3.39445,2.05004 -6.89187,4.02882 -10.72607,5.04069 -3.8342,1.01188 -7.93097,1.06279 -11.76091,0.0349 l -2.76928,-1.65247 -8.5569,-6.36667 c 1.47851,1.08734 2.90246,2.24885 4.26472,3.4787 1.23374,1.11383 2.41687,2.2837 3.54454,3.5048 4.82657,3.65009 11.22858,5.13701 17.16982,3.98785 2.27833,-0.44068 4.46815,-1.24363 6.70169,-1.87314 0.66731,-0.18808 1.34105,-0.37064 1.96367,-0.67562 0.62263,-0.30497 1.17096,-0.73999 1.69183,-1.19755 l 1.82772,-1.60556 c 1.03867,-0.48941 2.05543,-1.02531 3.04623,-1.60556 1.60134,-0.93781 3.14675,-1.99735 4.87397,-2.67594 2.93076,-1.15144 6.31036,-1.11069 9.21251,0.11107 l -1.67083,-8.06608 c -0.41038,-1.98112 -0.68307,-3.99022 -1.14458,-5.96006 -0.48829,-2.08419 -1.28592,-4.08378 -1.82775,-6.15469 -0.48521,-1.85451 -0.76302,-3.75744 -1.21849,-5.61948 -0.94496,-3.86316 -2.70181,-7.5935 -5.4832,-10.43619 -2.83373,-2.89618 -6.56454,-4.72826 -10.30182,-6.29369 -2.34355,-0.98164 -4.73126,-1.88389 -7.2094,-2.44485 -2.84382,-0.64374 -5.77131,-0.83008 -8.68636,-0.89486 -2.95873,-0.0658 -5.92193,-0.008 -8.87097,0.23979 -3.81081,0.32064 -7.60543,0.96269 -11.25262,2.11296 -4.08238,1.28753 -8.09918,3.22964 -12.378811,3.13815 -1.81478,-0.0388 -3.620696,-0.45316 -5.270865,-1.20938 l -2.741586,-2.40837 -2.436997,-3.21101"
             style="fill:#000000;fill-opacity:1;stroke:#000000;stroke-width:2.83580613;stroke-miterlimit:4;stroke-opacity:1;stroke-dasharray:none" />
          <path
             transform="matrix(3.484659,0,0,2.9656756,-903.63147,-659.83849)"
             d="m 303.8305,430.97678 c 0,3.47251 -2.60315,6.28754 -5.8143,6.28754 -3.21114,0 -5.81429,-2.81503 -5.81429,-6.28754 0,-3.47252 2.60315,-6.28755 5.81429,-6.28755 3.21115,0 5.8143,2.81503 5.8143,6.28755 z"
             sodipodi:ry="6.2875466"
             sodipodi:rx="5.8142905"
             sodipodi:cy="430.97678"
             sodipodi:cx="298.0162"
             id="path3789"
             style="fill:#000000;fill-opacity:1;stroke:#000000;stroke-width:0.41166252;stroke-miterlimit:4;stroke-opacity:1;stroke-dasharray:none"
             sodipodi:type="arc" />
          <path
             sodipodi:nodetypes="csccssscsscccccsssssccsccsscc"
             inkscape:connector-curvature="0"
             inkscape:original-d="m 156.10338,838.59518 c 0,0 11.9655,-6.00711 13.59717,-6.52947 1.63166,-0.52235 14.95687,-1.30589 16.31659,-1.04473 1.35972,0.2612 11.69357,3.39533 11.69357,3.39533 0,0 5.71081,-4.17884 8.43026,-4.70122 2.71944,-0.52236 12.78135,-1.56707 15.7727,-1.56707 2.9914,0 19.03606,1.30592 21.75548,2.35063 2.71944,1.04471 13.59717,5.48475 13.59717,5.48475 0,0 8.43026,4.44005 10.06194,4.9624 1.63165,0.52236 14.41298,3.39531 15.7727,3.65652 1.35972,0.26117 14.41301,1.82824 15.50078,2.08942 1.08779,0.26118 6.25468,2.6118 6.25468,2.6118 l 5.16695,7.57418 -1.63167,4.9624 -7.61443,7.31302 c 0,0 -7.34246,3.65649 -8.70219,4.9624 -1.35972,1.30591 -7.6144,8.88009 -9.78995,11.23072 -2.17554,2.35059 -10.06194,7.57415 -13.05329,9.6636 -2.99137,2.08944 -10.81808,2.91116 -12.5094,6.00713 -3.03231,5.55069 -20.66769,1.82824 -24.20297,1.30589 -3.53523,-0.52236 -19.30799,-2.6118 -19.30799,-2.6118 l -16.04463,-3.13413 c 0,0 -10.06194,-1.82825 -11.69359,-5.22358 -1.63168,-3.39534 -7.88633,-14.36487 -7.88633,-14.36487 l 1.90358,-8.61889 c 0,0 0.54389,-4.9624 -2.44749,-5.48478 -2.99137,-0.52236 -8.1583,-0.78351 -10.06191,-4.44002 C 165.0775,854.78829 157.4631,838.334 157.4631,838.334 z"
             inkscape:path-effect="#path-effect3793-9-5-6"
             id="path3791"
             d="m 156.10338,838.59518 c 4.07994,-2.98694 8.71515,-5.2128 13.59717,-6.52947 5.29698,-1.42858 10.88035,-1.78373 16.31659,-1.04473 4.03647,0.54872 7.99092,1.69693 11.69357,3.39533 2.47445,-2.0875 5.35382,-3.69321 8.43026,-4.70122 5.04591,-1.65333 10.46399,-1.67785 15.7727,-1.56707 7.30904,0.15252 14.67268,0.53977 21.75548,2.35063 4.74894,1.21416 9.33492,3.06403 13.59717,5.48475 3.17764,1.98357 6.55393,3.6487 10.06194,4.9624 5.06715,1.89757 10.39522,3.05696 15.7727,3.65652 5.18962,0.57861 10.48153,0.64926 15.50078,2.08942 2.17662,0.62454 4.28028,1.50297 6.25468,2.6118 l 5.16695,7.57418 -1.63167,4.9624 -7.61443,7.31302 c -3.20026,1.03329 -6.18324,2.73433 -8.70219,4.9624 -3.72382,3.29381 -6.35705,7.63473 -9.78995,11.23072 -3.75036,3.92853 -8.38143,6.89373 -13.05329,9.6636 -3.98838,2.36464 -8.08097,4.63318 -12.5094,6.00713 -7.76543,2.40928 -16.09715,1.94007 -24.20297,1.30589 -6.4798,-0.50696 -12.92895,-1.36573 -19.30799,-2.6118 l -16.04463,-3.13413 c -2.12486,-0.41507 -4.25289,-0.88922 -6.24255,-1.74277 -1.98967,-0.85354 -3.82425,-2.05223 -5.45104,-3.48081 -4.18855,-3.67821 -7.03142,-8.85648 -7.88633,-14.36487 l 1.90358,-8.61889 c -0.0734,-2.05076 -0.97019,-4.06049 -2.44749,-5.48478 -1.33065,-1.2829 -3.06211,-2.06681 -4.81023,-2.66726 -1.74812,-0.60045 -3.55312,-1.04381 -5.25168,-1.77276 -3.72407,-1.59821 -6.82961,-4.59195 -8.56323,-8.25495 -1.73362,-3.663 -2.07988,-7.96264 -0.95478,-11.85586 l -1.35972,0.26118"
             style="fill:#000000;fill-opacity:1;stroke:none" />
          <path
             sodipodi:nodetypes="cccasaaaacsacaaaaacccscacaaazzcccsccaaacccc"
             inkscape:connector-curvature="0"
             inkscape:original-d="m 170.15024,701.45229 -6.34847,13.164 -5.9409,10.80083 c 0,0 -3.48459,5.3779 -3.96058,8.45283 -0.57966,3.74468 0.49509,9.39202 1.48521,11.27042 0.99017,1.87843 3.95193,10.44536 7.92118,14.08807 3.17927,2.91771 7.60616,4.28294 11.78606,5.35497 4.98294,1.27798 10.2462,1.02483 15.38846,1.16641 4.53244,0.12478 9.09084,0.19898 13.59963,-0.28022 6.79279,-0.72186 20.11992,-3.89319 20.11992,-3.89319 0,0 2.47535,3.75683 6.43596,5.16564 3.96058,1.4088 6.11669,2.16927 9.31066,2.29499 4.8195,0.18976 14.2779,-2.34802 14.2779,-2.34802 0,0 4.40971,-1.71096 6.22805,-3.16601 4.52408,-3.62019 9.38406,-7.85167 11.08304,-13.39122 0.8129,-2.65049 -0.13778,-5.58619 -0.79871,-8.27862 -0.52346,-2.13255 -1.41665,-4.18102 -2.47537,-6.10481 -2.59826,-4.72128 -5.00024,-10.0461 -9.4064,-13.14885 -1.40284,-0.98785 -4.95072,-1.40878 -4.95072,-1.40878 l -3.96058,0 7.42607,3.75681 c 0,0 1.9803,0.93919 3.96061,3.7568 1.98029,2.81761 4.95073,9.86163 4.95073,9.86163 0,0 1.64547,3.67256 1.98029,5.63522 0.21056,1.23443 0,3.75681 0,3.75681 0,0 -2.97013,7.03814 -5.44579,9.86161 -1.21682,1.38777 -2.8109,2.4498 -4.45567,3.28722 -4.1644,2.12024 -8.80702,3.20451 -13.36699,4.22641 -2.27503,0.50986 -3.63744,1.39564 -6.93104,0.9392 -3.2936,-0.45645 -9.77978,-3.21569 -11.88175,-5.16561 -2.10197,-1.94993 -1.98029,-3.75681 -1.98029,-3.75681 l -4.45566,0.46959 -6.93105,2.34802 c 0,0 -5.94087,1.40878 -9.90147,1.40878 -3.96058,0 -21.78325,-0.46958 -21.78325,-0.46958 l -10.39653,-2.81761 c 0,0 -3.75336,-2.67221 -5.44579,-4.22642 -1.25487,-1.15237 -2.30546,-2.50907 -3.46554,-3.7568 -1.31466,-1.41398 -3.16831,-2.46576 -3.96059,-4.22642 -2.1934,-4.87434 -1.4852,-15.96643 -1.4852,-15.96643 l 3.96058,-6.57442 4.95075,-10.33122 z"
             inkscape:path-effect="#path-effect3802-4-1-1"
             id="path3800"
             d="m 170.15024,701.45229 c -1.98817,4.44821 -4.10551,8.83867 -6.34847,13.164 -1.89175,3.64805 -3.87284,7.24976 -5.9409,10.80083 -2.1329,2.33111 -3.53432,5.32207 -3.96058,8.45283 -0.51534,3.785 0.36692,7.61786 1.48521,11.27042 1.59792,5.21915 3.8254,10.48009 7.92118,14.08807 3.27537,2.88528 7.50885,4.48413 11.78606,5.35497 5.04893,1.02796 10.23618,1.11772 15.38846,1.16641 4.53536,0.0429 9.07659,0.0566 13.59963,-0.28022 6.8277,-0.50839 13.59541,-1.81794 20.11992,-3.89319 1.73715,2.161 3.95026,3.93728 6.43596,5.16564 2.88487,1.42561 6.09845,2.10367 9.31066,2.29499 4.85464,0.28914 9.77152,-0.51945 14.2779,-2.34802 2.14285,-0.91636 4.22493,-1.97478 6.22805,-3.16601 2.57082,-1.52883 5.03142,-3.29433 7.03449,-5.51562 2.00308,-2.22129 3.53626,-4.92874 4.04855,-7.8756 0.47947,-2.75807 0.0513,-5.61136 -0.79871,-8.27862 -0.66711,-2.0933 -1.58823,-4.09486 -2.47537,-6.10481 -1.10957,-2.5139 -2.17568,-5.06189 -3.63632,-7.38941 -1.46065,-2.32752 -3.35447,-4.44961 -5.77008,-5.75944 -1.52048,-0.82446 -3.22396,-1.3092 -4.95072,-1.40878 l -3.96058,0 7.42607,3.75681 c 0.82729,0.41852 1.64166,0.88575 2.30767,1.53073 0.66601,0.64498 1.17813,1.42975 1.65294,2.22607 1.88473,3.16094 3.42855,6.511 4.95073,9.86163 0.82604,1.81828 1.65486,3.66479 1.98029,5.63522 0.20497,1.24107 0.20497,2.51574 0,3.75681 -0.79031,3.72751 -2.71196,7.20735 -5.44579,9.86161 -1.328,1.28935 -2.83956,2.38489 -4.45567,3.28722 -4.0975,2.28779 -8.76686,3.29782 -13.36699,4.22641 -2.28893,0.46205 -4.59609,0.91285 -6.93104,0.9392 -2.23696,0.0252 -4.48928,-0.34742 -6.55631,-1.203 -2.06703,-0.85558 -3.94401,-2.20299 -5.32544,-3.96261 -0.87891,-1.11952 -1.55337,-2.39904 -1.98029,-3.75681 l -4.45566,0.46959 -6.93105,2.34802 c -3.27357,0.63813 -6.57983,1.10854 -9.90147,1.40878 -7.24834,0.65517 -14.56987,0.49734 -21.78325,-0.46958 l -10.39653,-2.81761 c -1.98464,-1.17034 -3.8195,-2.59435 -5.44579,-4.22642 -1.20268,-1.20695 -2.28914,-2.52422 -3.46554,-3.7568 -1.33397,-1.39767 -2.78762,-2.69113 -3.96059,-4.22642 -1.7104,-2.23874 -2.77576,-4.96458 -3.0367,-7.76982 -0.26094,-2.80523 0.28336,-5.68081 1.5515,-8.19661 l 3.96058,-6.57442 c 1.73898,-3.40028 3.38997,-6.84555 4.95075,-10.33122 1.73321,-3.87075 3.35519,-7.79132 4.86324,-11.75522"
             style="fill:#000000;fill-opacity:1;stroke:#000000;stroke-width:2.36317182;stroke-linejoin:round;stroke-miterlimit:4;stroke-opacity:1;stroke-dasharray:none" />
        </g>
      </g>
    </g>
  </g>
</svg>
