<?xml version="1.0" encoding="UTF-8" standalone="no"?>
<!-- Created with Inkscape (http://www.inkscape.org/) -->

<svg
   xmlns:dc="http://purl.org/dc/elements/1.1/"
   xmlns:cc="http://creativecommons.org/ns#"
   xmlns:rdf="http://www.w3.org/1999/02/22-rdf-syntax-ns#"
   xmlns:svg="http://www.w3.org/2000/svg"
   xmlns="http://www.w3.org/2000/svg"
   xmlns:sodipodi="http://sodipodi.sourceforge.net/DTD/sodipodi-0.dtd"
   xmlns:inkscape="http://www.inkscape.org/namespaces/inkscape"
   width="744.09448819"
   height="1052.3622047"
   id="svg2"
   version="1.1"
   inkscape:version="0.48.4 r9939"
   sodipodi:docname="jann.svg">
  <defs
     id="defs4">
    <inkscape:path-effect
       effect="spiro"
       id="path-effect3836"
       is_visible="true" />
    <inkscape:path-effect
       effect="spiro"
       id="path-effect3828"
       is_visible="true" />
    <inkscape:path-effect
       effect="spiro"
       id="path-effect3824"
       is_visible="true" />
    <inkscape:path-effect
       effect="spiro"
       id="path-effect3820"
       is_visible="true" />
    <inkscape:path-effect
       effect="spiro"
       id="path-effect3816"
       is_visible="true" />
    <inkscape:path-effect
       effect="spiro"
       id="path-effect3812"
       is_visible="true" />
    <inkscape:path-effect
       effect="spiro"
       id="path-effect3806"
       is_visible="true" />
    <inkscape:path-effect
       effect="spiro"
       id="path-effect3802"
       is_visible="true" />
    <inkscape:path-effect
       effect="spiro"
       id="path-effect3798"
       is_visible="true" />
    <inkscape:path-effect
       effect="spiro"
       id="path-effect3793"
       is_visible="true" />
    <inkscape:path-effect
       effect="spiro"
       id="path-effect3787"
       is_visible="true" />
    <inkscape:path-effect
       effect="spiro"
       id="path-effect3783"
       is_visible="true" />
    <inkscape:path-effect
       effect="spiro"
       id="path-effect3779"
       is_visible="true" />
    <inkscape:path-effect
       effect="spiro"
       id="path-effect3005"
       is_visible="true" />
    <inkscape:path-effect
       effect="spiro"
       id="path-effect2999"
       is_visible="true" />
  </defs>
  <sodipodi:namedview
     id="base"
     pagecolor="#ffffff"
     bordercolor="#666666"
     borderopacity="1.0"
     inkscape:pageopacity="0.0"
     inkscape:pageshadow="2"
     inkscape:zoom="0.22177079"
     inkscape:cx="301.37883"
     inkscape:cy="210.33087"
     inkscape:document-units="px"
     inkscape:current-layer="layer4"
     showgrid="false"
     inkscape:window-width="1440"
     inkscape:window-height="838"
     inkscape:window-x="-8"
     inkscape:window-y="-8"
     inkscape:window-maximized="1"
     showguides="true"
     inkscape:guide-bbox="true" />
  <metadata
     id="metadata7">
    <rdf:RDF>
      <cc:Work
         rdf:about="">
        <dc:format>image/svg+xml</dc:format>
        <dc:type
           rdf:resource="http://purl.org/dc/dcmitype/StillImage" />
        <dc:title></dc:title>
      </cc:Work>
    </rdf:RDF>
  </metadata>
  <g
     inkscape:groupmode="layer"
     id="layer4"
     inkscape:label="Layer">
    <rect
       style="fill:#000000;fill-opacity:1;stroke:#000000;stroke-width:21.94722939;stroke-linecap:round;stroke-linejoin:round;stroke-miterlimit:4;stroke-opacity:1;stroke-dasharray:none;stroke-dashoffset:0"
       id="rect5363"
       width="582.85907"
       height="130.2132"
       x="-835.97058"
       y="-59.720501"
       transform="matrix(-0.64446796,-0.76463132,0.76463132,-0.64446796,0,0)" />
    <path
       sodipodi:type="star"
       style="fill:none;fill-opacity:1;stroke:#000000;stroke-width:14.10700035000000000;stroke-linecap:round;stroke-linejoin:round;stroke-miterlimit:4;stroke-opacity:1;stroke-dasharray:none;stroke-dashoffset:0"
       id="path5365"
       sodipodi:sides="3"
       sodipodi:cx="462.32635"
       sodipodi:cy="777.35773"
       sodipodi:r1="49.240772"
       sodipodi:r2="24.620386"
       sodipodi:arg1="2.0778948"
       sodipodi:arg2="3.1250924"
       inkscape:flatsided="true"
       inkscape:rounded="0.03"
       inkscape:randomized="0"
       d="m 438.41292,820.40191 c -2.23664,-1.24258 -3.60163,-83.96021 -1.4072,-85.27591 2.19442,-1.3157 74.51249,38.861 74.5547,41.41928 0.0422,2.55827 -70.91086,45.09921 -73.1475,43.85663 z"
       inkscape:transform-center-x="-11.400928"
       inkscape:transform-center-y="0.40376461"
       transform="matrix(-1.0026431,-1.1895895,1.1895895,-1.0026431,-344.12251,1462.813)" />
    <rect
       style="fill:#000000;fill-opacity:1;stroke:#000000;stroke-width:23.07564545;stroke-linecap:round;stroke-linejoin:round;stroke-miterlimit:4;stroke-opacity:1;stroke-dasharray:none;stroke-dashoffset:0"
       id="rect5367"
       width="97.791496"
       height="129.08478"
       x="-970.58008"
       y="-59.156269"
       transform="matrix(-0.64446796,-0.76463132,0.76463132,-0.64446796,0,0)" />
    <path
       sodipodi:type="star"
       style="fill:#000000;fill-opacity:1;stroke:#000000;stroke-width:14.10700035;stroke-linecap:round;stroke-linejoin:round;stroke-miterlimit:4;stroke-opacity:1;stroke-dasharray:none;stroke-dashoffset:0"
       id="path5369"
       sodipodi:sides="3"
       sodipodi:cx="386.60049"
       sodipodi:cy="849.89514"
       sodipodi:r1="18.350952"
       sodipodi:r2="9.1754761"
       sodipodi:arg1="0.043450895"
       sodipodi:arg2="1.0906484"
       inkscape:flatsided="true"
       inkscape:rounded="0.03"
       inkscape:randomized="0"
       d="m 404.93413,850.69226 c -0.0414,0.95264 -27.38647,15.19391 -28.19077,14.68172 -0.80431,-0.5122 0.53492,-31.31433 1.38064,-31.75479 0.84572,-0.44045 26.85155,16.12042 26.81013,17.07307 z"
       inkscape:transform-center-x="-4.2418741"
       inkscape:transform-center-y="0.16863575"
       transform="matrix(-1.0743596,-1.1252412,1.1252412,-1.0743596,-453.64353,1448.1965)" />
    <path
       sodipodi:type="arc"
       style="fill:#ffffff;fill-opacity:1;stroke:#000000;stroke-width:13.00734520000000000;stroke-linecap:round;stroke-linejoin:round;stroke-miterlimit:4;stroke-opacity:1;stroke-dasharray:none;stroke-dashoffset:0;display:inline"
       id="path5355"
       sodipodi:cx="420.8764"
       sodipodi:cy="408.29373"
       sodipodi:rx="251.88815"
       sodipodi:ry="210.4382"
       d="m 672.76456,408.29373 a 251.88815,210.4382 0 1 1 -503.77631,0 251.88815,210.4382 0 1 1 503.77631,0 z"
       transform="matrix(-0.99129811,-7.8798602e-4,9.431954e-4,-1.1865538,789.80848,913.02073)" />
  </g>
  <g
     inkscape:label="Layer 1"
     inkscape:groupmode="layer"
     id="layer1"
     style="display:inline">
    <path
       style="fill:none;stroke:#000000;stroke-width:4;stroke-linecap:butt;stroke-linejoin:round;stroke-miterlimit:4;stroke-opacity:1;stroke-dasharray:none;stroke-dashoffset:0"
       d="m 281.6011,399.01045 4.28322,-16.20348 0.16163,-23.19401 4.52566,-19.03202 10.5464,-10.34436 c 1.5564,-2.12733 4.1525,-3.45438 6.78835,-3.47002 2.63584,-0.0156 5.2475,1.28051 6.82904,3.38922 1.08162,1.44215 1.68124,3.19742 2.74518,4.65267 0.53196,0.72762 1.18864,1.38185 1.98975,1.79494 0.80111,0.41308 1.75827,0.56714 2.61927,0.30047 0.64589,-0.20004 1.2077,-0.62469 1.64293,-1.14215 0.43524,-0.51746 0.75113,-1.12558 1.00545,-1.75209 0.50866,-1.25301 0.78887,-2.60663 1.4732,-3.77302 0.52501,-0.89485 1.27664,-1.65001 2.14708,-2.21456 0.87044,-0.56455 1.85765,-0.94078 2.87581,-1.14014 2.03631,-0.39872 4.16145,-0.0906 6.12963,0.56657 4.26566,1.42421 7.9205,4.50148 10.22314,8.36439 0.74847,1.25563 1.36357,2.5997 1.71686,4.01815 0.3533,1.41845 0.43923,2.91501 0.14189,4.34624 -0.25699,1.23698 -0.80225,2.4169 -1.60283,3.39426 -0.80059,0.97736 -1.85749,1.74814 -3.04405,2.182 -1.48499,0.54298 -3.16189,0.54298 -4.64688,0 -1.5012,-1.31257 -2.76649,-2.89417 -3.71751,-4.64689 -0.93923,-1.73098 -1.57155,-3.62793 -1.85875,-5.57626 -1.06285,0.88678 -1.8904,2.05305 -2.37643,3.34912 -0.48603,1.29608 -0.62939,2.71892 -0.4117,4.0859 0.3624,2.27565 1.75629,4.36649 3.71751,5.57626 3.17952,1.34616 6.65059,1.99872 10.10191,1.89916 2.615,-0.0754 5.24365,-0.58896 7.5889,-1.74818 2.34524,-1.15921 4.39533,-2.99273 5.58401,-5.32317 0.6945,-1.36158 1.07545,-2.88598 1.06429,-4.41441 -0.0112,-1.52843 -0.43315,-3.02071 -0.90266,-4.47528 l -2.06079,-6.38441 -7.43502,-10.22314 2.78813,-6.50564 5.57626,0 5.57626,5.57626 0.92938,5.57626 c 0.44175,2.65047 0.8867,5.31196 1.70927,7.86999 0.82257,2.55803 2.04242,5.02745 3.86699,7.00004 2.05339,2.21998 4.8332,3.73637 7.79234,4.35948 2.95914,0.6231 6.08475,0.36431 8.93644,-0.64198 2.5532,-0.90096 4.93885,-2.43876 6.50563,-4.64688 1.51298,-2.1323 2.1903,-4.84158 1.85876,-7.43501 l -1.85876,-5.57626 0,6.50564 -5.57626,2.78812 c -2.05912,0.8024 -4.3042,1.12312 -6.50563,0.92938 -1.6458,-0.14484 -3.27463,-0.57844 -4.73353,-1.35385 -1.45889,-0.77541 -2.74369,-1.89927 -3.63086,-3.29303 -0.87802,-1.37939 -1.35347,-3.01175 -1.35347,-4.64689 0,-1.63513 0.47545,-3.26749 1.35347,-4.64688 l 5.57626,-5.57626 8.36439,-6.50563 7.43501,-0.92938 c 2.46314,-0.33588 4.97187,-0.33588 7.43501,0 7.3587,1.00346 14.23921,5.13177 18.58753,11.15252 -0.26588,1.84606 -0.26588,3.7302 0,5.57626 0.60526,4.20237 2.54895,8.07149 4.28884,11.94435 1.73989,3.87286 3.32745,7.97757 3.14618,12.21944 -0.11136,2.60602 -0.88976,5.13841 -1.82391,7.5738 -0.93415,2.43538 -2.03095,4.81099 -2.82298,7.29623 -0.53035,1.66413 -0.92352,3.38412 -0.98467,5.12964 -0.0611,1.74552 0.22055,3.52293 0.98467,5.0935 0.88788,1.82494 2.42725,3.32452 4.27481,4.16432 1.84756,0.8398 3.98957,1.01357 5.94834,0.48256 l 7.43501,13.01127 c 4.72154,-0.2525 9.51791,1.46049 13.01127,4.64689 1.98265,1.80844 3.54487,4.05881 4.64688,6.50563 1.53415,3.40632 2.17981,7.20824 1.85617,10.93005 -0.32363,3.72181 -1.61584,7.35523 -3.71492,10.44561 -1.3417,5.1905 -1.11372,10.77592 0.64652,15.83981 2.00494,5.76784 6.00198,10.82207 11.15252,14.10228 l 4.00036,-4.84892 c 0.31037,-1.64992 0.94564,-3.23807 1.85876,-4.64688 0.71726,-1.10662 1.61818,-2.11387 2.73517,-2.81486 1.11699,-0.701 2.46355,-1.0789 3.77046,-0.90265 1.06019,0.14298 2.06744,0.65249 2.81078,1.42184 0.74334,0.76935 1.21794,1.79351 1.32438,2.858 0.10645,1.06448 -0.15594,2.16234 -0.73221,3.06365 -0.57628,0.90131 -1.46268,1.60019 -2.47357,1.95028 0.72861,1.49217 1.2408,3.08981 1.5156,4.72747 0.48239,2.87483 0.22251,5.87103 -0.74767,8.61986 -0.97018,2.74884 -2.64856,5.24439 -4.82859,7.17954 l -2.44498,3.63692 -5.57626,0.92938 -7.43501,0 -1.85875,11.15251 1.85875,2.78813 -2.78813,14.87003 c -1.41212,3.46773 -2.96272,6.87906 -4.64688,10.22314 -2.75026,5.46093 -5.85696,10.74232 -9.29377,15.7994 l -11.15252,13.94065 -10.22314,10.22314 -9.29376,7.43502 -8.36439,4.64688 c -7.62741,1.819 -15.26461,3.59697 -22.91115,5.33381 -10.37537,2.35667 -20.87907,4.64974 -31.518,4.52566 -5.79191,-0.0675 -11.57504,-0.85678 -17.17326,-2.34364 -3.76871,-2.43116 -7.07674,-5.57379 -9.69784,-9.21295 -3.00942,-4.17831 -5.08337,-8.94241 -7.15216,-13.6578 -2.49287,-5.68199 -5.01165,-11.35261 -7.55623,-17.01163 -2.70321,-3.45892 -5.27818,-7.01805 -7.71787,-10.66763 -2.5451,-3.80726 -4.94248,-7.71216 -7.23297,-11.67781 -5.40188,-9.35259 -10.25834,-19.17976 -12.50013,-29.74507 -0.88708,-4.1807 -1.35687,-8.44984 -1.40012,-12.7234 -1.40243,-7.18206 -1.29476,-14.65535 0.31399,-21.79403 0.63007,-2.79588 1.48757,-5.54047 2.56124,-8.19775 l 0.40565,-16.59357 -3.31186,-10.5107 0.35424,-15.79942"
       id="path2997"
       inkscape:path-effect="#path-effect2999"
       inkscape:original-d="m 281.6011,399.01045 4.28322,-16.20348 0.16163,-23.19401 4.52566,-19.03202 10.5464,-10.34436 c 0,0 9.3825,-1.71486 13.61739,-0.0808 3.10395,1.19768 4.05852,7.20356 7.3542,6.74808 2.58818,-0.3577 2.01199,-5.12574 4.12158,-6.66726 3.09393,-2.26079 7.13465,-3.68819 11.15252,-2.78813 4.01787,0.90006 8.32024,5.27365 10.22314,8.36439 1.9029,3.09074 2.48074,5.80092 1.85875,8.36439 -0.62199,2.56347 -2.84996,4.73463 -4.64688,5.57626 -1.79692,0.84163 -4.64688,0 -4.64688,0 0,0 -2.77537,-2.91511 -3.71751,-4.64689 -0.94214,-1.73178 -1.85875,-5.57626 -1.85875,-5.57626 0,0 -3.09084,4.80552 -2.78813,7.43502 0.25549,2.21929 3.71751,5.57626 3.71751,5.57626 0,0 5.94633,2.54174 10.10191,1.89916 4.15558,-0.64258 11.10216,-3.67987 13.17291,-7.07135 2.07075,-3.39148 0.16163,-8.88969 0.16163,-8.88969 l -2.06079,-6.38441 -7.43502,-10.22314 2.78813,-6.50564 5.57626,0 5.57626,5.57626 0.92938,5.57626 c 0,0 1.42223,11.26072 5.57626,14.87003 4.15403,3.60931 12.62432,4.55289 16.72878,3.7175 4.10446,-0.83539 5.03686,-2.48965 6.50563,-4.64688 1.46877,-2.15723 1.85876,-7.43501 1.85876,-7.43501 l -1.85876,-5.57626 0,6.50564 -5.57626,2.78812 c 0,0 -1.85875,1.85876 -6.50563,0.92938 -4.64688,-0.92938 -6.7469,-1.89794 -8.36439,-4.64688 -1.57104,-2.67001 0,-9.29377 0,-9.29377 l 5.57626,-5.57626 8.36439,-6.50563 7.43501,-0.92938 c 0,0 -5.57626,-1.85875 7.43501,0 13.01128,1.85875 18.58753,11.15252 18.58753,11.15252 0,0 -1.85875,0.92938 0,5.57626 1.85876,4.64688 7.43502,19.51691 7.43502,24.16379 0,4.64688 -4.64689,10.22314 -4.64689,14.87003 0,4.64688 -8.36438,7.43501 0,10.22314 8.36439,2.78813 10.22315,4.64688 10.22315,4.64688 l 7.43501,13.01127 c 0,0 9.29377,3.71751 13.01127,4.64689 3.71751,0.92937 4.64688,3.7175 4.64688,6.50563 0,2.78813 -1.85875,21.37566 -1.85875,21.37566 0,0 -3.07098,13.05168 0.64652,15.83981 3.71751,2.78813 11.15252,14.10228 11.15252,14.10228 l 4.00036,-4.84892 c 0,0 0.92938,-0.92938 1.85876,-4.64688 0.92937,-3.71751 4.28564,-4.86197 6.50563,-3.71751 2.76729,1.42661 0.92938,9.29377 0.92938,9.29377 0,0 1.53963,3.07282 1.5156,4.72747 -0.0811,5.58427 -5.57626,15.7994 -5.57626,15.7994 l -2.44498,3.63692 -5.57626,0.92938 -7.43501,0 -1.85875,11.15251 1.85875,2.78813 -2.78813,14.87003 c 0,0 -2.78813,6.50564 -4.64688,10.22314 -1.85875,3.71751 -9.29377,15.7994 -9.29377,15.7994 l -11.15252,13.94065 -10.22314,10.22314 -9.29376,7.43502 -8.36439,4.64688 c 0,0 -19.19365,4.40444 -22.91115,5.33381 -3.71751,0.92938 -26.87111,4.52566 -31.518,4.52566 -4.64688,0 -17.17326,-2.34364 -17.17326,-2.34364 0,0 -7.01111,-5.65455 -9.69784,-9.21295 -3.09664,-4.1013 -4.91591,-9.03081 -7.15216,-13.6578 -2.69999,-5.58652 -7.55623,-17.01163 -7.55623,-17.01163 0,0 -5.27448,-7.02175 -7.71787,-10.66763 -2.54909,-3.8036 -3.71851,-4.86389 -7.23297,-11.67781 -3.51446,-6.81392 -10.61487,-22.47468 -12.50013,-29.74507 -1.88526,-7.27039 -1.40012,-12.7234 -1.40012,-12.7234 0,0 -0.83359,-14.6198 0.31399,-21.79403 0.45219,-2.82691 2.56124,-8.19775 2.56124,-8.19775 l 0.40565,-16.59357 -3.31186,-10.5107 z"
       inkscape:connector-curvature="0"
       sodipodi:nodetypes="cccccasazzzzczcaczzccccccczzzccccsaccccscssssccsscsccsscacccccccscccccsscaacazzcacccc" />
    <path
       style="fill:#000000;fill-opacity:1;stroke:#000000;stroke-width:1.60000002;stroke-miterlimit:4;stroke-opacity:1;stroke-dasharray:none"
       d="m 363.85086,437.13202 -4.54579,-0.94651 c 2.59684,-4.30827 6.48547,-7.82656 11.03129,-9.9807 6.86775,-3.25444 15.19485,-3.25444 22.0626,0 l 6.30359,3.6771 4.2024,3.1518 5.253,-1.5759 2.6265,-6.3036 -4.2024,1.5759 c -2.68106,-0.90669 -5.31274,-1.95936 -7.8795,-3.1518 -3.42999,-1.59347 -6.79844,-3.45535 -10.50599,-4.20239 -4.11548,-0.82924 -8.40411,-0.22342 -12.43599,0.94651 -4.68748,1.36017 -9.21643,3.52424 -12.79396,6.84446 -2.81944,2.61666 -4.99633,5.92071 -6.28804,9.54392 l 1.5759,2.6265 2.74615,-0.94651 c 1.89333,0.46271 3.77982,0.95338 5.65865,1.47181 1.87334,0.51692 3.73907,1.06142 5.59638,1.63329 l 6.09543,-0.59825 -3.81232,-0.50974 c -1.75314,-0.51813 -3.50416,-1.04344 -5.253,-1.5759 -1.814,-0.5523 -3.62565,-1.11231 -5.4349,-1.67999"
       id="path3003"
       inkscape:path-effect="#path-effect3005"
       inkscape:original-d="m 363.85086,437.13202 -4.54579,-0.94651 c 0,0 3.6771,-8.4048 11.03129,-9.9807 7.3542,-1.5759 22.0626,0 22.0626,0 l 6.30359,3.6771 4.2024,3.1518 5.253,-1.5759 2.6265,-6.3036 -4.2024,1.5759 c 0,0 -5.7783,-2.1012 -7.8795,-3.1518 -2.1012,-1.0506 -6.77787,-3.63028 -10.50599,-4.20239 -4.10922,-0.6306 -8.44474,-0.21676 -12.43599,0.94651 -4.64337,1.35334 -9.22142,3.58418 -12.79396,6.84446 -2.81406,2.56809 -6.28804,9.54392 -6.28804,9.54392 l 1.5759,2.6265 2.74615,-0.94651 5.65865,1.47181 5.59638,1.63329 6.09543,-0.59825 -3.81232,-0.50974 -5.253,-1.5759 z"
       inkscape:connector-curvature="0"
       sodipodi:nodetypes="ccsccccccsaaaccccccccc" />
    <path
       sodipodi:type="arc"
       style="fill:#000000;fill-opacity:1;stroke:none"
       id="path3007"
       sodipodi:cx="385.6362"
       sodipodi:cy="431.92328"
       sodipodi:rx="9.3299084"
       sodipodi:ry="7.9101396"
       d="m 394.96611,431.92328 a 9.3299084,7.9101396 0 1 1 -18.65982,0 9.3299084,7.9101396 0 1 1 18.65982,0 z"
       transform="matrix(0.97826087,0,0,1.008547,8.1805714,-4.8409898)" />
    <path
       style="fill:#000000;fill-opacity:1;stroke:none"
       d="m 344.26009,407.652 -0.13521,2.70432 c 0.15668,0.90419 0.47912,1.77939 0.94651,2.56911 0.57308,0.96831 1.36467,1.80645 2.29867,2.43389 l 2.43389,0.54086 5.54386,-2.16346 1.48738,-4.73256 8.51861,-4.32691 c 2.67944,-1.36099 5.19594,-3.0545 7.97775,-4.1917 3.72698,-1.52358 7.90088,-1.55783 11.89901,-1.08173 2.81911,0.3357 5.60325,0.91212 8.38339,1.48738 3.54509,0.73355 7.09808,1.46832 10.54686,2.5691 2.89049,0.92259 5.69943,2.10053 8.38339,3.51562 l 5.27343,3.24519 c 0.70025,0.74166 1.4218,1.46321 2.16346,2.16345 0.48723,0.46002 0.98314,0.91085 1.48737,1.35216 l 2.56911,0.94652 0.13521,-4.05648 -4.59734,-6.62559 c -2.85444,-2.11489 -5.83639,-4.05768 -8.92426,-5.81429 -2.4022,-1.36655 -4.87183,-2.62201 -7.43688,-3.65084 -4.50449,-1.80673 -9.26757,-2.90009 -14.06248,-3.65083 -5.61163,-0.87861 -11.43872,-1.28357 -16.902,0.27043 -3.09436,0.88017 -5.97653,2.36218 -8.92426,3.65084 -3.01569,1.31837 -6.11942,2.44188 -9.05948,3.92126 -2.28225,1.14839 -4.45803,2.50825 -6.49037,4.05648 l -3.51562,4.86778"
       id="path3777"
       inkscape:path-effect="#path-effect3779"
       inkscape:original-d="m 344.26009,407.652 -0.13521,2.70432 c 0,0 0.40564,1.89303 0.94651,2.56911 0.54086,0.67608 2.29867,2.43389 2.29867,2.43389 l 2.43389,0.54086 5.54386,-2.16346 1.48738,-4.73256 8.51861,-4.32691 c 0,0 7.30167,-4.05648 7.97775,-4.1917 0.67608,-0.13522 11.22293,-0.94651 11.89901,-1.08173 0.67608,-0.13521 8.38339,1.48738 8.38339,1.48738 0,0 9.87078,2.29867 10.54686,2.5691 0.67608,0.27044 8.38339,3.51562 8.38339,3.51562 l 5.27343,3.24519 2.16346,2.16345 1.48737,1.35216 2.56911,0.94652 0.13521,-4.05648 -4.59734,-6.62559 c 0,0 -7.84253,-5.13821 -8.92426,-5.81429 -1.08173,-0.67608 -6.08472,-3.10997 -7.43688,-3.65084 -1.35217,-0.54086 -11.35815,-3.24518 -14.06248,-3.65083 -2.70432,-0.40565 -14.73855,-0.67608 -16.902,0.27043 -2.16346,0.94651 -6.62559,2.70432 -8.92426,3.65084 -2.29868,0.94651 -7.30167,3.10997 -9.05948,3.92126 -1.75781,0.8113 -6.49037,4.05648 -6.49037,4.05648 z"
       inkscape:connector-curvature="0"
       sodipodi:nodetypes="ccscccccsccccccccccsssssscc" />
    <path
       style="fill:#000000;fill-opacity:1;stroke:none"
       d="m 307.91987,401.85079 2.48627,2.75107 c 0.76828,0.37231 1.41795,0.98496 1.83465,1.73011 0.41669,0.74514 0.59852,1.61941 0.51349,2.46891 -0.0859,0.85851 -0.43957,1.68047 -0.95773,2.37035 -0.51817,0.68988 -1.19655,1.25101 -1.94292,1.68387 -1.44867,0.84017 -3.17012,1.19985 -4.8344,1.01355 -1.31757,-0.14749 -2.58186,-0.62547 -3.74731,-1.25751 -1.16544,-0.63205 -2.2402,-1.4171 -3.29711,-2.21753 -1.62822,-1.2331 -3.22367,-2.50877 -4.83441,-3.76463 -1.67377,-1.305 -3.44361,-2.62568 -5.52503,-3.04067 -1.24376,-0.24798 -2.52704,-0.15563 -3.79288,-0.23363 -0.63292,-0.039 -1.26659,-0.12158 -1.87272,-0.3079 -0.60612,-0.18632 -1.18585,-0.47987 -1.65507,-0.90641 -0.67387,-0.61257 -1.09454,-1.4957 -1.14556,-2.40496 -0.051,-0.90925 0.26819,-1.8339 0.8693,-2.51802 l 1.51939,-4.05422 3.45314,-0.57917 c 1.94786,-0.14155 3.91986,0.0553 5.80129,0.57917 2.14852,0.59821 4.15425,1.6103 6.21567,2.4615 1.75065,0.72288 3.55058,1.33319 5.24878,2.1719 2.09076,1.03259 4.0118,2.40785 5.66316,4.05422"
       id="path3781"
       inkscape:path-effect="#path-effect3783"
       inkscape:original-d="m 307.91987,401.85079 2.48627,2.75107 c 0,0 2.90064,2.60629 2.34814,4.19902 -0.5525,1.59273 -1.65751,3.61984 -2.90065,4.05422 -1.24313,0.43438 -4.14377,1.01355 -4.8344,1.01355 -0.69063,0 -6.3538,-2.60628 -7.04442,-3.47504 -0.69063,-0.86876 -3.03877,-2.60628 -4.83441,-3.76463 -1.79564,-1.15835 -4.00565,-2.4615 -5.52503,-3.04067 -1.51939,-0.57917 -6.63004,-1.44794 -7.32067,-1.44794 -0.69063,0 -0.27626,-4.92298 -0.27626,-4.92298 l 1.51939,-4.05422 3.45314,-0.57917 c 0,0 5.24878,0.28959 5.80129,0.57917 0.5525,0.2896 5.52504,2.3167 6.21567,2.4615 0.69063,0.14479 4.55815,1.88232 5.24878,2.1719 0.69063,0.28959 5.66316,4.05422 5.66316,4.05422 z"
       inkscape:connector-curvature="0" />
    <path
       style="fill:#000000;fill-opacity:1;stroke:#000000;stroke-width:1.20000005;stroke-miterlimit:4;stroke-opacity:1;stroke-dasharray:none"
       d="m 280.61245,416.88449 0,1.47206 c 0,0.50166 0.0198,1.01431 0.20251,1.48151 0.18273,0.4672 0.52181,0.87446 0.95763,1.12291 l 1.24994,1.46396 1.89839,0.80883 c 2.64676,-1.2598 5.5073,-2.06899 8.42179,-2.38236 2.43945,-0.26229 4.9159,-0.1781 7.3319,0.24927 2.941,0.20722 5.79413,1.49225 7.89836,3.55736 1.15608,1.13459 2.08908,2.49563 2.73041,3.98309 0.33585,0.95167 0.67569,1.90193 1.01952,2.85074 0.54847,1.51352 1.10707,3.02337 1.67576,4.52941 -0.80976,-0.49978 -1.75554,-0.77671 -2.70698,-0.79264 -1.14631,-0.0192 -2.29576,0.34431 -3.22261,1.01911 l -2.06247,1.2456 c -1.4364,0.86749 -2.91636,1.70483 -4.53884,2.13302 -1.62248,0.42818 -3.35607,0.44973 -4.97675,0.0148 l -1.17185,-0.69926 -3.62094,-2.69412 c 0.62565,0.46012 1.22821,0.95162 1.80466,1.47205 0.52207,0.47133 1.02273,0.96637 1.49991,1.48309 2.04241,1.54457 4.75148,2.17378 7.26558,1.6875 0.9641,-0.18648 1.89075,-0.52625 2.83589,-0.79264 0.28238,-0.0796 0.56748,-0.15684 0.83095,-0.28589 0.26347,-0.12906 0.4955,-0.31314 0.71591,-0.50676 l 0.77342,-0.67941 c 0.43952,-0.2071 0.86978,-0.43387 1.28904,-0.67941 0.67762,-0.39684 1.33158,-0.8452 2.06247,-1.13235 1.24018,-0.48724 2.67029,-0.47 3.89837,0.047 l -0.70703,-3.41324 c -0.17366,-0.83833 -0.28905,-1.6885 -0.48434,-2.52206 -0.20663,-0.88194 -0.54415,-1.72809 -0.77343,-2.60442 -0.20532,-0.78476 -0.32288,-1.59 -0.51562,-2.37794 -0.39987,-1.63474 -1.1433,-3.21327 -2.32027,-4.41618 -1.19912,-1.22555 -2.77785,-2.00081 -4.35932,-2.66324 -0.9917,-0.41539 -2.00208,-0.79718 -3.05073,-1.03456 -1.20339,-0.2724 -2.44219,-0.35126 -3.67572,-0.37867 -1.25202,-0.0278 -2.50592,-0.004 -3.75384,0.10147 -1.61258,0.13568 -3.21832,0.40737 -4.76166,0.89412 -1.7275,0.54483 -3.42725,1.36665 -5.23822,1.32794 -0.76794,-0.0164 -1.53213,-0.19176 -2.23042,-0.51176 l -1.16013,-1.01913 -1.03124,-1.35877"
       id="path3785"
       inkscape:path-effect="#path-effect3787"
       inkscape:original-d="m 280.61245,416.88449 c 0,0 0,1.01911 0,1.47206 0,0.45294 1.16014,2.60442 1.16014,2.60442 l 1.24994,1.46396 1.89839,0.80883 c 0,0 6.21867,-2.44486 8.42179,-2.38236 0.5154,0.0146 7.3319,0.24927 7.3319,0.24927 0,0 7.12493,2.65147 7.89836,3.55736 0.77342,0.90588 2.73041,3.98309 2.73041,3.98309 0,0 0.76172,2.17132 1.01952,2.85074 0.25781,0.67941 1.67576,4.52941 1.67576,4.52941 0,0 -2.19137,-0.79264 -2.70698,-0.79264 -0.51563,0 -3.22261,1.01911 -3.22261,1.01911 l -2.06247,1.2456 c 0,0 -5.27734,3.01176 -9.51559,2.14779 -6.246,1.26544 -1.17185,-0.69926 -1.17185,-0.69926 -2.891,-1.35359 -0.7975,-4.15813 -3.62094,-2.69412 1.32046,0.3763 1.53385,1.26845 1.80466,1.47205 0.77342,0.56618 1.49991,1.48309 1.49991,1.48309 0,0 6.74996,1.6875 7.26558,1.6875 0.51561,0 1.93356,-0.56617 2.83589,-0.79264 0.90233,-0.22647 1.54686,-0.79265 1.54686,-0.79265 l 0.77342,-0.67941 c 0,0 1.03124,-0.22647 1.28904,-0.67941 0.25781,-0.45295 0.64452,-0.79266 2.06247,-1.13235 1.41795,-0.33971 3.89837,0.047 3.89837,0.047 l -0.70703,-3.41324 c 0,0 -0.35545,-1.84264 -0.48434,-2.52206 -0.12891,-0.67942 -0.51563,-1.35882 -0.77343,-2.60442 -0.25781,-1.24559 0.2578,-1.13235 -0.51562,-2.37794 -0.77343,-1.24559 -1.67575,-3.96324 -2.32027,-4.41618 -0.64453,-0.45294 -2.57784,-1.65002 -4.35932,-2.66324 -2.18357,-1.24191 -1.8906,-0.69485 -3.05073,-1.03456 -1.16015,-0.3397 -2.12887,-0.1522 -3.67572,-0.37867 -1.54686,-0.22647 -1.30467,-0.46471 -3.75384,0.10147 -2.44919,0.56617 -2.8281,0.66764 -4.76166,0.89412 -1.93356,0.22647 -4.07808,1.32794 -5.23822,1.32794 -1.16014,0 -2.23042,-0.51176 -2.23042,-0.51176 l -1.16013,-1.01913 z"
       inkscape:connector-curvature="0"
       sodipodi:nodetypes="cscccscscscscccccccssccsscccsssssssssccc" />
    <path
       sodipodi:type="arc"
       style="fill:#000000;fill-opacity:1;stroke:#000000;stroke-width:0.41166252;stroke-miterlimit:4;stroke-opacity:1;stroke-dasharray:none"
       id="path3789"
       sodipodi:cx="298.0162"
       sodipodi:cy="430.97678"
       sodipodi:rx="5.8142905"
       sodipodi:ry="6.2875466"
       d="m 303.8305,430.97678 a 5.8142905,6.2875466 0 1 1 -11.62859,0 5.8142905,6.2875466 0 1 1 11.62859,0 z"
       transform="matrix(1.4745687,0,0,1.2549556,-138.16306,-111.20768)" />
    <path
       style="fill:#000000;fill-opacity:1;stroke:none"
       d="m 310.27446,522.86968 c 1.72647,-1.26395 3.6879,-2.20585 5.75378,-2.76301 2.24147,-0.60452 4.60413,-0.75481 6.90453,-0.44209 1.70807,0.23219 3.38144,0.71807 4.94825,1.43677 1.04709,-0.88335 2.26552,-1.56282 3.56735,-1.98937 2.13523,-0.69962 4.42794,-0.71 6.67438,-0.66312 3.09289,0.0645 6.20889,0.22841 9.20605,0.99469 2.00956,0.51379 3.95017,1.29658 5.75378,2.32093 1.34465,0.83937 2.77336,1.54399 4.25781,2.09989 2.14421,0.80297 4.39885,1.29358 6.67438,1.54729 2.19604,0.24484 4.43536,0.27474 6.55931,0.88416 0.92106,0.26428 1.81124,0.636 2.64673,1.10521 l 2.18645,3.20509 -0.69046,2.09989 -3.22212,3.09458 c -1.35422,0.43725 -2.6165,1.15706 -3.68242,2.09989 -1.57577,1.39381 -2.69005,3.23071 -4.14272,4.75239 -1.587,1.66239 -3.54668,2.91715 -5.52363,4.08925 -1.68772,1.00062 -3.41955,1.96058 -5.29348,2.54198 -3.28602,1.01951 -6.81167,0.82096 -10.24173,0.5526 -2.74199,-0.21453 -5.47102,-0.57792 -8.17037,-1.10521 l -6.78945,-1.32624 c -0.89916,-0.17564 -1.79965,-0.37628 -2.6416,-0.73747 -0.84195,-0.36118 -1.61827,-0.86842 -2.30666,-1.47294 -1.77243,-1.55647 -2.97542,-3.74771 -3.33718,-6.07864 l 0.80552,-3.64717 c -0.031,-0.8678 -0.41054,-1.71824 -1.03568,-2.32094 -0.56308,-0.54287 -1.29576,-0.87459 -2.0355,-1.12868 -0.73973,-0.25409 -1.50354,-0.4417 -2.2223,-0.75016 -1.57588,-0.6763 -2.89002,-1.94313 -3.62362,-3.49316 -0.73359,-1.55004 -0.88012,-3.36948 -0.40402,-5.01693 l -0.57538,0.11052"
       id="path3791"
       inkscape:path-effect="#path-effect3793"
       inkscape:original-d="m 310.27446,522.86968 c 0,0 5.06332,-2.54197 5.75378,-2.76301 0.69045,-0.22104 6.32915,-0.5526 6.90453,-0.44209 0.57538,0.11053 4.94825,1.43677 4.94825,1.43677 0,0 2.41659,-1.76832 3.56735,-1.98937 1.15076,-0.22104 5.40856,-0.66312 6.67438,-0.66312 1.26584,0 8.0553,0.55261 9.20605,0.99469 1.15076,0.44208 5.75378,2.32093 5.75378,2.32093 0,0 3.56735,1.87885 4.25781,2.09989 0.69045,0.22104 6.099,1.43676 6.67438,1.54729 0.57538,0.11052 6.09901,0.77364 6.55931,0.88416 0.46031,0.11052 2.64673,1.10521 2.64673,1.10521 l 2.18645,3.20509 -0.69046,2.09989 -3.22212,3.09458 c 0,0 -3.10704,1.54728 -3.68242,2.09989 -0.57538,0.55261 -3.22211,3.7577 -4.14272,4.75239 -0.9206,0.99468 -4.25781,3.20508 -5.52363,4.08925 -1.26583,0.88417 -4.57778,1.23189 -5.29348,2.54198 -1.28315,2.34883 -8.74574,0.77364 -10.24173,0.5526 -1.49597,-0.22104 -8.17037,-1.10521 -8.17037,-1.10521 l -6.78945,-1.32624 c 0,0 -4.25781,-0.77364 -4.94826,-2.21041 -0.69046,-1.43677 -3.33718,-6.07864 -3.33718,-6.07864 l 0.80552,-3.64717 c 0,0 0.23015,-2.09989 -1.03568,-2.32094 -1.26583,-0.22104 -3.45227,-0.33155 -4.2578,-1.87884 -0.80553,-1.54729 -4.02764,-8.51009 -4.02764,-8.51009 z"
       inkscape:connector-curvature="0"
       sodipodi:nodetypes="csccssscsscccccsssssccsccsscc" />
    <path
       style="fill:#000000;fill-opacity:1;stroke:#000000;stroke-width:1;stroke-linejoin:round;stroke-miterlimit:4;stroke-opacity:1;stroke-dasharray:none"
       d="m 316.21853,464.83628 c -0.84131,1.8823 -1.73729,3.74017 -2.68642,5.57048 -0.80051,1.54371 -1.63883,3.06781 -2.51395,4.57048 -0.90256,0.98643 -1.49558,2.25209 -1.67596,3.5769 -0.21807,1.60166 0.15526,3.22357 0.62848,4.76919 0.67618,2.20854 1.61876,4.43476 3.35193,5.96151 1.38601,1.22093 3.17745,1.89751 4.98739,2.26601 2.1365,0.43499 4.33154,0.47297 6.51178,0.49358 1.91918,0.0181 3.84085,0.0239 5.75482,-0.11858 2.88921,-0.21513 5.75303,-0.76928 8.51395,-1.64744 0.73509,0.91445 1.67159,1.6661 2.72344,2.18589 1.22076,0.60326 2.58062,0.89019 3.9399,0.97115 2.05429,0.12235 4.13492,-0.21981 6.04184,-0.99359 0.90677,-0.38777 1.78782,-0.83565 2.63546,-1.33973 1.08787,-0.64694 2.12909,-1.39403 2.97672,-2.33399 0.84762,-0.93996 1.4964,-2.08565 1.71318,-3.33264 0.20289,-1.1671 0.0217,-2.3745 -0.33798,-3.50318 -0.28229,-0.8858 -0.67208,-1.73278 -1.04748,-2.58331 -0.46953,-1.06378 -0.92066,-2.14199 -1.53875,-3.1269 -0.61808,-0.98492 -1.41947,-1.8829 -2.44166,-2.43717 -0.64341,-0.34888 -1.36425,-0.554 -2.09495,-0.59614 l -1.67596,0 3.14242,1.58973 c 0.35008,0.1771 0.69469,0.37481 0.97651,0.64774 0.28183,0.27293 0.49854,0.60502 0.69946,0.94199 0.79754,1.33759 1.45082,2.7552 2.09495,4.17305 0.34955,0.76942 0.70027,1.55079 0.83798,2.3846 0.0867,0.52517 0.0867,1.06456 0,1.58973 -0.33443,1.57733 -1.14759,3.04986 -2.30444,4.17304 -0.56196,0.5456 -1.20159,1.00919 -1.88546,1.39102 -1.7339,0.9681 -3.70979,1.39551 -5.65638,1.78845 -0.96858,0.19552 -1.94488,0.38628 -2.93294,0.39743 -0.94659,0.0107 -1.89968,-0.14702 -2.77437,-0.50906 -0.87468,-0.36205 -1.66894,-0.93222 -2.25351,-1.67682 -0.37192,-0.47374 -0.65732,-1.01518 -0.83798,-1.58973 l -1.88546,0.19871 -2.93294,0.99359 c -1.38525,0.27003 -2.78432,0.46909 -4.18991,0.59614 -3.06721,0.27724 -6.16539,0.21045 -9.2178,-0.19871 l -4.3994,-1.1923 c -0.83982,-0.49524 -1.61626,-1.09782 -2.30444,-1.78845 -0.50893,-0.51073 -0.96867,-1.06815 -1.46648,-1.58973 -0.56448,-0.59144 -1.17961,-1.13878 -1.67596,-1.78845 -0.72378,-0.94734 -1.17459,-2.10082 -1.28501,-3.28788 -0.11042,-1.18706 0.11991,-2.40389 0.65653,-3.46848 l 1.67596,-2.78203 c 0.73587,-1.43886 1.4345,-2.89676 2.09496,-4.37176 0.73343,-1.63795 1.41978,-3.29697 2.05793,-4.97434"
       id="path3800"
       inkscape:path-effect="#path-effect3802"
       inkscape:original-d="m 316.21853,464.83628 -2.68642,5.57048 -2.51395,4.57048 c 0,0 -1.47454,2.27571 -1.67596,3.5769 -0.24529,1.5846 0.2095,3.97433 0.62848,4.76919 0.419,0.79488 1.6723,4.42006 3.35193,5.96151 1.34534,1.23466 3.21862,1.81237 4.98739,2.26601 2.10858,0.54079 4.33578,0.43367 6.51178,0.49358 1.91795,0.0528 3.84688,0.0842 5.75482,-0.11858 2.87444,-0.30546 8.51395,-1.64744 8.51395,-1.64744 0,0 1.04747,1.58974 2.72344,2.18589 1.67596,0.59615 2.58834,0.91795 3.9399,0.97115 2.03942,0.0803 6.04184,-0.99359 6.04184,-0.99359 0,0 1.86601,-0.72401 2.63546,-1.33973 1.91441,-1.53192 3.97096,-3.32251 4.6899,-5.66663 0.34399,-1.12158 -0.0583,-2.36385 -0.33798,-3.50318 -0.22151,-0.90241 -0.59947,-1.76924 -1.04748,-2.58331 -1.09948,-1.99786 -2.1159,-4.25111 -3.98041,-5.56407 -0.59363,-0.41802 -2.09495,-0.59614 -2.09495,-0.59614 l -1.67596,0 3.14242,1.58973 c 0,0 0.83798,0.39743 1.67597,1.58973 0.83798,1.1923 2.09495,4.17305 2.09495,4.17305 0,0 0.6963,1.55408 0.83798,2.3846 0.0891,0.52236 0,1.58973 0,1.58973 0,0 -1.25684,2.97826 -2.30444,4.17304 -0.51491,0.58725 -1.18946,1.03666 -1.88546,1.39102 -1.76221,0.8972 -3.72678,1.35602 -5.65638,1.78845 -0.9627,0.21575 -1.53922,0.59058 -2.93294,0.39743 -1.39372,-0.19315 -4.13841,-1.36075 -5.02788,-2.18588 -0.88947,-0.82513 -0.83798,-1.58973 -0.83798,-1.58973 l -1.88546,0.19871 -2.93294,0.99359 c 0,0 -2.51394,0.59614 -4.18991,0.59614 -1.67596,0 -9.2178,-0.19871 -9.2178,-0.19871 l -4.3994,-1.1923 c 0,0 -1.58827,-1.13077 -2.30444,-1.78845 -0.53101,-0.48764 -0.97558,-1.06174 -1.46648,-1.58973 -0.55631,-0.59834 -1.3407,-1.04341 -1.67596,-1.78845 -0.92816,-2.06263 -0.62848,-6.75636 -0.62848,-6.75636 l 1.67596,-2.78203 2.09496,-4.37176 z"
       inkscape:connector-curvature="0"
       sodipodi:nodetypes="cccasaaaacsacaaaaacccscacaaazzcccsccaaacccc" />
    <path
       style="fill:none;stroke:#000000;stroke-width:9.25657177;stroke-linecap:round;stroke-linejoin:round;stroke-miterlimit:4;stroke-opacity:1;stroke-dasharray:none;stroke-dashoffset:0"
       d="m 279.82913,434.23983 c -2.84617,1.63016 -6.28165,2.20426 -9.50321,1.58807 -3.22155,-0.6162 -6.20267,-2.41761 -8.24634,-4.98306 -2.04366,-2.56545 -3.13306,-5.87383 -3.01348,-9.1516 0.11957,-3.27778 1.44714,-6.49798 3.67231,-8.9077 0.61589,-0.66697 1.29568,-1.27187 1.92621,-1.92501 0.63053,-0.65315 1.21759,-1.36392 1.60573,-2.1846 0.38814,-0.82068 0.56585,-1.76465 0.35674,-2.64808 -0.10455,-0.44171 -0.30536,-0.86257 -0.59782,-1.20972 -0.29245,-0.34715 -0.67761,-0.61872 -1.10906,-0.75978 -0.58576,-0.19151 -1.22379,-0.13779 -1.82799,-0.0164 -0.60419,0.1214 -1.19626,0.3083 -1.80834,0.38003 -1.32675,0.15548 -2.70274,-0.2599 -3.75011,-1.08903 -1.04736,-0.82913 -1.76207,-2.05575 -2.01156,-3.36808 -0.24948,-1.31232 -0.0404,-2.70027 0.54356,-3.90167 0.584,-1.20141 1.53453,-2.21451 2.67268,-2.91383 1.32568,-0.81455 2.86745,-1.19934 4.39697,-1.48475 1.52953,-0.28541 3.08368,-0.48517 4.55978,-0.97712 1.47611,-0.49195 2.8975,-1.31296 3.7865,-2.5899 0.4445,-0.63847 0.74526,-1.38326 0.82201,-2.15743 0.0768,-0.77417 -0.0769,-1.57656 -0.47448,-2.24523 -0.39111,-0.65772 -1.01513,-1.17372 -1.73461,-1.43433 -0.71948,-0.2606 -1.52919,-0.26393 -2.25079,-0.009 -0.7216,0.25468 -1.34984,0.76553 -1.74634,1.42001 -0.39651,0.65449 -0.5584,1.44786 -0.45001,2.20537 l -4.3636,-0.72727 -5.09086,-4.3636 c -0.86027,-1.29449 -1.83498,-2.51288 -2.90906,-3.63632 -2.78272,-2.9106 -6.23522,-5.19292 -8.60842,-8.44608 -1.1866,-1.62657 -2.0859,-3.5033 -2.33023,-5.50182 -0.24432,-1.99852 0.21539,-4.12497 1.48422,-5.68825 1.02032,-1.25711 2.53769,-2.09925 4.14425,-2.30007 1.60657,-0.20082 3.28454,0.2419 4.58291,1.20917 -1.29055,-2.40128 -2.74985,-4.71184 -4.36357,-6.90902 -2.73516,-3.72409 -5.96981,-7.22304 -7.50822,-11.58002 -0.7692,-2.17849 -1.08025,-4.55669 -0.60652,-6.8179 0.47373,-2.26121 1.78446,-4.38956 3.75115,-5.60183 1.0979,-0.67675 2.35766,-1.05307 3.6279,-1.27637 1.27024,-0.22329 2.56086,-0.30017 3.84491,-0.42096 1.28405,-0.12078 2.57277,-0.28771 3.80032,-0.68328 1.22756,-0.39557 2.39971,-1.03314 3.27216,-1.98298 0.73565,-0.8009 1.23671,-1.80276 1.50981,-2.85539 0.2731,-1.05263 0.32368,-2.15554 0.2241,-3.23845 -0.19916,-2.16583 -0.98381,-4.22812 -1.73391,-6.26965 -1.4024,-3.81686 -2.71172,-7.67642 -3.63632,-11.63625 -0.72572,-3.10809 -1.21247,-6.27194 -1.45454,-9.45444 -1.29228,-0.42228 -2.46488,-1.20448 -3.35112,-2.23545 -0.88625,-1.03096 -1.48357,-2.30769 -1.70707,-3.64871 -0.22351,-1.34103 -0.0726,-2.74248 0.43143,-4.00514 0.50397,-1.26266 1.35949,-2.38289 2.44497,-3.20146 1.60197,-1.20806 3.63531,-1.72796 5.63838,-1.84373 2.00308,-0.11577 4.00692,0.14034 5.99785,0.3892 l 5.81814,0.72726 5.09084,0 c -0.19577,-2.48105 0.93627,-5.02814 2.90906,-6.54539 1.63004,-1.25364 3.78991,-1.79361 5.81813,-1.45453 1.24799,0.93599 2.8036,1.45453 4.36358,1.45453 1.55999,0 3.1156,-0.51854 4.36359,-1.45453 l 0.72727,-7.27264 1.45454,-3.63632 c 1.02565,-1.17619 2.26367,-2.16662 3.63631,-2.90907 2.4241,-1.31118 5.26942,-1.82851 7.99992,-1.45452 l 0,0 7.99991,5.09084 7.27266,-1.45452 c 2.00526,-2.43236 2.94768,-5.71125 2.53995,-8.83714 -0.40773,-3.1259 -2.15967,-6.05335 -4.72176,-7.88996 -0.97719,-0.70049 -2.0562,-1.24327 -3.10223,-1.83607 -1.04603,-0.5928 -2.07515,-1.24814 -2.89419,-2.12834 -0.81904,-0.88021 -1.41778,-2.01374 -1.45563,-3.21547 -0.0189,-0.60087 0.10475,-1.20936 0.38345,-1.74202 0.2787,-0.53266 0.7151,-0.98637 1.25048,-1.2598 0.67646,-0.34548 1.47599,-0.39036 2.22402,-0.25845 0.74804,0.13192 1.45576,0.42959 2.14729,0.74382 0.69153,0.31423 1.37811,0.64871 2.10733,0.86131 0.72922,0.21259 1.51334,0.29867 2.24856,0.10785 0.73901,-0.1918 1.38854,-0.65515 1.89387,-1.22748 0.50534,-0.57233 0.87626,-1.25099 1.18775,-1.94806 0.62298,-1.39413 1.0425,-2.91511 2.00922,-4.09712 0.92705,-1.13351 2.33117,-1.8636 3.79152,-1.97146 1.46036,-0.10786 2.9565,0.40803 4.04002,1.39304 1.08352,0.98502 1.73924,2.42537 1.77064,3.88937 0.0314,1.464 -0.56197,2.93113 -1.60226,3.9617 0.78132,0.51848 1.75563,0.73839 2.68391,0.60578 0.92827,-0.13261 1.80204,-0.61653 2.40693,-1.33304 0.64341,-0.76213 0.97049,-1.75384 1.06799,-2.74647 0.0975,-0.99263 -0.0205,-1.99375 -0.18282,-2.97785 -0.16237,-0.98409 -0.36955,-1.96279 -0.45241,-2.95675 -0.0829,-0.99395 -0.0371,-2.01451 0.29451,-2.95516 0.411,-1.1657 1.25137,-2.15615 2.27568,-2.84794 1.0243,-0.69179 2.22504,-1.09645 3.44713,-1.28161 2.44417,-0.37032 4.9253,0.11306 7.36796,0.49321 2.68013,0.41711 5.39068,0.71363 7.99992,1.45453 3.0736,0.87275 5.97086,2.36176 8.4697,4.35287 l 1.43403,-2.32487 1.67133,-0.0643 4.75685,1.41419 c -0.037,0.55471 0.15183,1.1212 0.51425,1.54277 0.45736,0.532 1.16064,0.81195 1.86047,0.86124 0.69984,0.0493 1.39943,-0.11268 2.06072,-0.34699 0.53392,-0.18918 1.05091,-0.42613 1.54276,-0.7071 0.2255,-0.40102 0.50773,-0.77009 0.83566,-1.09279 0.94415,-0.92908 2.27565,-1.44979 3.59978,-1.4142 1.26823,0.0341 2.51577,0.57548 3.40693,1.47848 l 0.30283,1.88498 c 1.66649,-1.57588 3.70853,-2.75193 5.90793,-3.40249 3.85654,-1.14073 8.17915,-0.60041 11.63624,1.45452 1.25831,0.64628 2.47393,1.37566 3.63633,2.1818 1.55786,1.08041 3.01997,2.29883 4.36359,3.63633 l 3.63632,3.63632 c 1.47517,2.02114 2.69959,4.22511 3.63632,6.54538 0.75636,1.8735 1.32441,3.81809 2.06217,5.69899 0.73776,1.8809 1.66245,3.72154 3.02868,5.20999 2.02713,2.20847 5.00215,3.51601 7.99991,3.51601 2.99777,0 5.97279,-1.30754 7.99992,-3.51601 0.781,-2.16797 2.02983,-4.16609 3.63633,-5.81813 2.52136,-2.59282 5.95827,-4.31191 9.56109,-4.62761 3.60282,-0.31569 7.33807,0.80901 10.07507,3.17308 2.66492,2.30181 4.25927,5.56964 5.81811,8.72719 0.71989,1.4582 1.44717,2.91276 2.1818,4.36359 0.57488,1.29526 1.30946,2.51954 2.1818,3.63632 1.81724,2.32644 4.23973,4.1759 6.96284,5.3158 2.72311,1.13991 5.74071,1.5677 8.67335,1.22958 3.05905,3.97536 7.74915,6.65542 12.72713,7.27265 2.34538,0.29081 4.72187,0.14223 7.08155,0.27379 2.35968,0.13155 4.78405,0.57632 6.73649,1.908 1.81132,1.23543 3.10179,3.21035 3.50585,5.36532 0.40405,2.15497 -0.0833,4.46324 -1.32405,6.27093 1.33317,1.56949 2.79409,3.03041 4.36358,4.36358 1.12784,0.95802 2.31359,1.852 3.36513,2.89319 1.05154,1.04119 1.97632,2.25127 2.45299,3.6522 0.47703,1.402 0.47703,2.96158 0,4.36358 l -4.36359,2.90907 c -1.08222,1.11606 -2.05778,2.3355 -2.90905,3.63632 -2.4135,3.68803 -3.79576,7.99268 -4.36359,12.36351 -0.40714,3.13392 -0.40714,6.32051 0,9.45443 4.45507,0.23403 8.77597,2.39449 11.63623,5.81813 1.81336,2.17054 3.02955,4.80887 3.67041,7.56365 0.64086,2.75478 0.69317,5.60784 0.69317,8.43618 l 0,8.72718 c 0,7.03928 0.17299,14.10921 -0.72725,21.09068 -0.60237,4.67147 -1.73225,9.25727 -2.90907,13.81803 -2.11013,8.1778 -4.39595,16.36165 -7.9999,23.99975 -1.66973,3.53878 -3.61703,6.94655 -5.81812,10.1817 -1.7041,1.93311 -3.40107,3.8725 -5.09086,5.81812 -2.60146,2.9953 -5.19599,6.01889 -7.31985,9.36981 -2.12385,3.35092 -3.77487,7.06345 -4.31639,10.99361 -0.43228,3.13734 -0.15041,6.32224 0.008,9.48527 0.1582,3.16304 0.18383,6.39287 -0.73504,9.42362 -0.72893,2.40426 -2.03617,4.60855 -3.63632,6.54538 -3.17575,3.84395 -7.55579,6.6781 -12.36351,7.99992 l -3.63633,12.3635 c -0.22327,0.7591 -0.46742,1.52281 -0.89201,2.1905 -0.4246,0.66769 -1.02284,1.22532 -1.72542,1.58929 -0.70257,0.36397 -1.49288,0.53383 -2.28228,0.58808 -0.7894,0.0542 -1.5817,3.9e-4 -2.37294,-0.004 -3.34432,-0.0197 -6.68925,0.8962 -9.55703,2.61686 -2.86778,1.72067 -5.25001,4.24107 -6.80643,7.20121"
       id="path3810"
       inkscape:path-effect="#path-effect3812"
       inkscape:original-d="m 279.82913,434.23983 c 0,0 -15.80235,-15.5217 -17.09072,-21.45429 -1.28835,-5.93261 5.09086,-6.54539 2.1818,-8.72719 -2.90906,-2.18179 -1.57971,1.84596 -3.63633,0.36363 -2.05661,-1.48233 -3.90826,-7.6696 -2.54543,-11.27261 1.90429,-5.03453 15.58775,-4.68601 13.09078,-9.45443 -1.01369,-1.93581 -6.18175,2.1818 -6.18175,2.1818 l -4.3636,-0.72727 -5.09086,-4.3636 c 0,0 1.45453,3.63633 -2.90906,-3.63632 -4.36359,-7.27265 -12.92998,-13.25693 -9.45443,-19.63615 1.4026,-2.57442 8.72716,-1.0909 8.72716,-1.0909 0,0 -2.18178,-0.36363 -4.36357,-6.90902 -2.1818,-6.54538 -5.81813,-19.63614 -4.36359,-23.99975 1.45453,-4.36359 11.52368,-0.30245 14.54529,-4.36359 2.46004,-3.30638 2.18179,-3.63632 0,-12.36349 -2.1818,-8.72718 -2.1818,-8.72718 -3.63632,-11.63625 -1.45454,-2.90906 -1.45454,-9.45444 -1.45454,-9.45444 0,0 -4.82594,-9.54418 -2.18179,-13.09076 2.33642,-3.13384 11.63623,-1.45453 11.63623,-1.45453 l 5.81814,0.72726 5.09084,0 c 0,0 -0.72726,-5.81812 2.90906,-6.54539 3.63632,-0.72726 5.81813,-1.45453 5.81813,-1.45453 0,0 0.72726,1.45453 4.36358,1.45453 3.63632,0 4.36359,-1.45453 4.36359,-1.45453 l 0.72727,-7.27264 1.45454,-3.63632 c 0,0 -2.90908,-1.45454 3.63631,-2.90907 6.54539,-1.45452 7.99992,-1.45452 7.99992,-1.45452 l 0,0 7.99991,5.09084 7.27266,-1.45452 c -12.51202,-10.56232 -0.8151,-14.06039 -2.18181,-16.7271 -3.63633,-6.54538 -7.3223,-8.09476 -5.81812,-10.1817 1.50418,-2.08694 6.0079,2.5961 8.7272,1.45453 2.72844,-1.14542 -1e-5,-7.27266 5.09084,-7.27266 5.09086,0 7.99992,7.27265 7.99992,7.27265 0,0 4.36358,7.99992 5.09084,-0.72726 0.72727,-8.72717 -2.90905,-9.45444 0.72727,-11.63623 3.63632,-2.18181 7.27266,-3.63634 13.09077,-3.63634 5.81813,0 2.90906,0 7.99992,1.45453 5.09084,1.45453 8.4697,4.35287 8.4697,4.35287 1.94829,0.31068 1.43403,-2.32487 1.43403,-2.32487 l 1.67133,-0.0643 4.75685,1.41419 c 0,0 -0.12857,1.34992 0.51425,1.54277 0.64282,0.19284 3.08552,0.77138 3.92119,0.51425 0.83566,-0.25713 1.54276,-0.7071 1.54276,-0.7071 0,0 -0.25713,-0.38569 0.83566,-1.09279 1.09279,-0.7071 2.18558,-1.47848 3.59978,-1.4142 1.4142,0.0643 3.40693,1.47848 3.40693,1.47848 l 0.30283,1.88498 c 4.4534,-2.67523 2.99887,-2.67523 5.90793,-3.40249 2.90905,-0.72728 11.63624,1.45452 11.63624,1.45452 0,0 0.72727,-0.72726 3.63633,2.1818 2.90906,2.90906 4.36359,3.63633 4.36359,3.63633 l 3.63632,3.63632 c 0,0 0,-2.90907 3.63632,6.54538 3.63632,9.45444 -2.90906,8.72717 5.09085,10.90898 7.99993,2.18179 15.99983,0 15.99983,0 0,0 -1.45452,-4.3636 3.63633,-5.81813 5.09085,-1.45453 15.99984,-3.63633 19.63616,-1.45453 3.63631,2.18179 4.36358,5.09085 5.81811,8.72719 1.45453,3.63632 2.1818,4.36359 2.1818,4.36359 0,0 -3.63633,2.18179 2.1818,3.63632 5.81811,1.45452 15.63619,6.54538 15.63619,6.54538 0,0 3.27269,5.81812 12.72713,7.27265 9.45446,1.45452 11.63625,-2.90906 13.81804,2.18179 2.1818,5.09087 2.1818,11.63625 2.1818,11.63625 0,0 0.72726,3.63632 4.36358,4.36358 3.63632,0.72727 5.09086,3.63632 5.81812,6.54539 0.72726,2.90906 0,4.36358 0,4.36358 l -4.36359,2.90907 c 0,0 -1.45453,0.72726 -2.90905,3.63632 -1.45454,2.90907 -2.90906,5.09086 -4.36359,12.36351 -1.45453,7.27264 0,9.45443 0,9.45443 0,0 7.27264,-2.18179 11.63623,5.81813 4.36358,7.99991 4.36358,10.1817 4.36358,15.99983 0,5.81811 0,-2.90906 0,8.72718 0,11.63624 0,15.99982 -0.72725,21.09068 -0.72727,5.09085 2.18179,-2.90906 -2.90907,13.81803 -5.09085,16.72709 -5.09085,17.45436 -7.9999,23.99975 -2.90906,6.54538 -5.81812,10.1817 -5.81812,10.1817 0,0 -0.72726,0 -5.09086,5.81812 -4.3636,5.81812 -11.63624,10.18171 -11.63624,20.36342 0,10.1817 0,15.27257 -0.72726,18.90889 -0.72727,3.63633 2.90906,2.90906 -3.63632,6.54538 -6.54539,3.63633 -12.36351,7.99992 -12.36351,7.99992 l -3.63633,12.3635 c 0,0 -0.72726,2.90906 -7.27265,4.3636 -6.54538,1.45452 -16.36346,9.81807 -16.36346,9.81807"
       inkscape:connector-curvature="0"
       sodipodi:nodetypes="czszsacccsacssasscacccscscccscccccsazcssssccccsscssccscsccsscssscscsscssccsscsssssscssssccsc" />
  </g>
</svg>
